<svg xmlns="http://www.w3.org/2000/svg" xmlns:xlink="http://www.w3.org/1999/xlink" width="93.754" height="93.754" viewBox="0 0 93.754 93.754">
  <defs>
    <filter id="Trazado_896985" x="0" y="0" width="93.754" height="93.754" filterUnits="userSpaceOnUse">
      <feOffset dy="3" input="SourceAlpha"/>
      <feGaussianBlur stdDeviation="3" result="blur"/>
      <feFlood flood-opacity="0.161"/>
      <feComposite operator="in" in2="blur"/>
      <feComposite in="SourceGraphic"/>
    </filter>
  </defs>
  <g id="Grupo_1111749" data-name="Grupo 1111749" transform="translate(-428.051 -8162.415)">
    <g id="Grupo_1111318" data-name="Grupo 1111318" transform="translate(437.051 8168.415)">
      <g id="Grupo_1109826" data-name="Grupo 1109826" transform="translate(0 0)">
        <g id="Grupo_1098742" data-name="Grupo 1098742">
          <g transform="matrix(1, 0, 0, 1, -9, -6)" filter="url(#Trazado_896985)">
            <g id="Trazado_896985-2" data-name="Trazado 896985" transform="translate(9 6)" fill="#cdb9f8" opacity="0.859">
              <path d="M 37.87689971923828 74.25390625 C 32.96538925170898 74.25390625 28.20158767700195 73.29231262207031 23.71783256530762 71.39583587646484 C 19.38627815246582 69.56375122070312 15.49582195281982 66.94062805175781 12.15454387664795 63.59936141967773 C 8.813277244567871 60.25808334350586 6.190155506134033 56.36762619018555 4.358066558837891 52.03607177734375 C 2.461588621139526 47.55231475830078 1.499999761581421 42.78851699829102 1.499999761581421 37.87700653076172 C 1.499999761581421 32.96547317504883 2.461588621139526 28.2016487121582 4.358066558837891 23.71787071228027 C 6.190155506134033 19.38630485534668 8.813277244567871 15.4958381652832 12.15454387664795 12.15456008911133 C 15.49582195281982 8.81328296661377 19.38626670837402 6.190160274505615 23.71783256530762 4.358071327209473 C 28.20158767700195 2.461593866348267 32.96538925170898 1.500004887580872 37.87689971923828 1.500004887580872 C 42.78841018676758 1.500004887580872 47.55221176147461 2.461593866348267 52.03597640991211 4.358060359954834 C 56.36753463745117 6.190160274505615 60.25797653198242 8.813271522521973 63.5992546081543 12.15454959869385 C 66.94053649902344 15.49582672119141 69.56364440917969 19.38627243041992 71.39574432373047 23.71782684326172 C 73.29221343994141 28.20159339904785 74.25379943847656 32.96539306640625 74.25379943847656 37.87690353393555 C 74.25379943847656 42.78843688964844 73.29221343994141 47.55226135253906 71.39574432373047 52.03603744506836 C 69.56364440917969 56.36760330200195 66.94053649902344 60.25806045532227 63.5992546081543 63.59934997558594 C 60.25797653198242 66.94062805175781 56.36753463745117 69.56375122070312 52.03597640991211 71.39583587646484 C 47.55221176147461 73.29231262207031 42.78841018676758 74.25390625 37.87689971923828 74.25390625 Z" stroke="none"/>
              <path d="M 37.87689971923828 3 C 33.1672248840332 3 28.60002517700195 3.921722412109375 24.30216217041016 5.739570617675781 C 20.14939880371094 7.496040344238281 16.41921234130859 10.01121520996094 13.21521377563477 13.2152099609375 C 10.01119995117188 16.41922378540039 7.496040344238281 20.1494255065918 5.739578247070312 24.30220031738281 C 3.921722412109375 28.60007476806641 3 33.16730117797852 3 37.87699890136719 C 3 42.58667373657227 3.921722412109375 47.15387344360352 5.73956298828125 51.45175170898438 C 7.496040344238281 55.60449981689453 10.01119995117188 59.33468627929688 13.21521377563477 62.53868865966797 C 16.41921234130859 65.74269866943359 20.14939880371094 68.25785827636719 24.30215072631836 70.01433563232422 C 28.60002517700195 71.83217620849609 33.1672248840332 72.75389862060547 37.87689971923828 72.75389862060547 C 42.58657455444336 72.75389862060547 47.15377426147461 71.83217620849609 51.45163726806641 70.01432800292969 C 55.60440063476562 68.25785827636719 59.33458709716797 65.74269104003906 62.53858947753906 62.53868865966797 C 65.74259948730469 59.33467483520508 68.25775909423828 55.60447692871094 70.01422119140625 51.45169830322266 C 71.83207702636719 47.15382385253906 72.75379943847656 42.58659744262695 72.75379943847656 37.87689971923828 C 72.75379943847656 33.1672248840332 71.83207702636719 28.60002517700195 70.01423645019531 24.30215072631836 C 68.25775909423828 20.14939880371094 65.74259948730469 16.41921234130859 62.53858947753906 13.2152099609375 C 59.33458709716797 10.01119995117188 55.60440063476562 7.496040344238281 51.45165252685547 5.73956298828125 C 47.15377426147461 3.921722412109375 42.58657455444336 3 37.87689971923828 3 M 37.87689971923828 0 C 58.79573822021484 0 75.75379943847656 16.95806121826172 75.75379943847656 37.87689971923828 L 75.75379943847656 37.87699890136719 C 75.75379943847656 58.79583740234375 58.79573822021484 75.75389862060547 37.87689971923828 75.75389862060547 C 16.95806121826172 75.75389862060547 0 58.79583740234375 0 37.87699890136719 L 0 37.87689971923828 C 0 16.95806121826172 16.95806121826172 0 37.87689971923828 0 Z" stroke="none" fill="#fff"/>
            </g>
          </g>
          <g id="Rect치ngulo_400907" data-name="Rect치ngulo 400907" transform="translate(0)" fill="none" stroke="#fff" stroke-width="3">
            <rect width="75.754" height="75.754" rx="37.877" stroke="none"/>
            <rect x="1.5" y="1.5" width="72.754" height="72.754" rx="36.377" fill="none"/>
          </g>
        </g>
      </g>
    </g>
    <g id="Grupo_1111748" data-name="Grupo 1111748" transform="translate(450.993 8182.37)">
      <path id="Trazado_900786" data-name="Trazado 900786" d="M34.491,2.595A1.6,1.6,0,0,0,32.9,1H7.244a1.6,1.6,0,0,0-1.132.47L1.47,6.111A1.6,1.6,0,0,0,1,7.244V44.06a1.6,1.6,0,0,0,1.595,1.595h31.9Z" transform="translate(-0.203 -0.203)" fill="#d9dde3"/>
      <rect id="Rect치ngulo_404659" data-name="Rect치ngulo 404659" width="23.922" height="13.556" rx="1" transform="translate(5.582 10.366)" fill="#55cba9"/>
      <circle id="Elipse_12807" data-name="Elipse 12807" cx="10.366" cy="10.366" r="10.366" transform="translate(26.315 26.315)" fill="#55cba9"/>
      <path id="Trazado_900787" data-name="Trazado 900787" d="M6.618,1.18V5.024A1.6,1.6,0,0,1,5.024,6.618H1.18a1.608,1.608,0,0,1,.327-.47L6.148,1.507a1.608,1.608,0,0,1,.47-.327Z" transform="translate(-0.239 -0.239)" fill="#f1f3f5"/>
      <path id="Trazado_900788" data-name="Trazado 900788" d="M12,18H31.935v8.772a.8.8,0,0,1-.8.8H12Z" transform="translate(-2.431 -3.647)" fill="#fff"/>
      <g id="Grupo_1111747" data-name="Grupo 1111747" transform="translate(0 0)">
        <path id="Trazado_900789" data-name="Trazado 900789" d="M31.517,25.556V13.595A1.6,1.6,0,0,0,29.922,12H7.595A1.6,1.6,0,0,0,6,13.595V25.556a1.6,1.6,0,0,0,1.595,1.595H29.922A1.6,1.6,0,0,0,31.517,25.556Zm-3.987,0V23.961h2.392v1.595ZM13.974,17.582v1.595H11.582V17.582Zm-2.392,3.19h2.392v1.595H11.582Zm3.987,0h2.392v1.595H15.569Zm3.987,0h2.392v1.595H19.556Zm3.987,0h2.392v1.595H23.543Zm3.987,0h2.392v1.595H27.53Zm0-1.595V17.582h2.392v1.595Zm-1.595,0H23.543V17.582h2.392Zm-3.987,0H19.556V17.582h2.392Zm-3.987,0H15.569V17.582h2.392Zm-6.379,4.784h2.392v1.595H11.582Zm3.987,0h2.392v1.595H15.569Zm3.987,0h2.392v1.595H19.556Zm3.987,0h2.392v1.595H23.543Zm6.379-10.366v2.392H7.595V13.595ZM7.595,17.582H9.987v7.974H7.595Z" transform="translate(-1.216 -2.431)" fill="#373737"/>
        <path id="Trazado_900790" data-name="Trazado 900790" d="M2.392,46.25H30.96A11.164,11.164,0,1,0,29.8,27.909H15.151a.8.8,0,1,0,0,1.595H28.142A11.221,11.221,0,0,0,27.026,31.1H19.138a.8.8,0,1,0,0,1.595h7.128a11.073,11.073,0,0,0-.484,1.595H15.151a.8.8,0,0,0,0,1.595H25.558c-.019.265-.041.528-.041.8s.022.533.041.8H15.151a.8.8,0,1,0,0,1.595H25.782a11.147,11.147,0,0,0,3.1,5.582H2.392a.8.8,0,0,1-.8-.8V7.177h3.19A2.392,2.392,0,0,0,7.177,4.784V1.595H32.694a.8.8,0,0,1,.8.8v21.53a.8.8,0,0,0,1.595,0V2.392A2.392,2.392,0,0,0,32.694,0H7.041a2.38,2.38,0,0,0-1.7.7L.7,5.343a2.382,2.382,0,0,0-.7,1.7V43.858A2.392,2.392,0,0,0,2.392,46.25Zm24.72-9.569a9.569,9.569,0,1,1,9.569,9.569,9.569,9.569,0,0,1-9.569-9.569ZM5.582,2.722V4.784a.8.8,0,0,1-.8.8H2.722Z" transform="translate(0 0)" fill="#373737"/>
        <path id="Trazado_900791" data-name="Trazado 900791" d="M11.378,38.784a.8.8,0,0,0,1.595,0,3.994,3.994,0,0,0-3.19-3.907V34.8a.8.8,0,0,0-1.595,0v.08a3.987,3.987,0,0,0,0,7.815V47.41a2.392,2.392,0,0,1-1.595-2.246.8.8,0,0,0-1.595,0,3.994,3.994,0,0,0,3.19,3.907v.08a.8.8,0,0,0,1.595,0v-.08a3.987,3.987,0,0,0,0-7.815V36.539A2.392,2.392,0,0,1,11.378,38.784Zm-4.784,0a2.392,2.392,0,0,1,1.595-2.246V41.03a2.392,2.392,0,0,1-1.595-2.245Zm4.784,6.379a2.392,2.392,0,0,1-1.595,2.246V42.918A2.392,2.392,0,0,1,11.378,45.164Z" transform="translate(-1.012 -6.888)" fill="#373737"/>
        <path id="Trazado_900792" data-name="Trazado 900792" d="M18.8,40.595h.8a.8.8,0,0,0,0-1.595h-.8a.8.8,0,0,0,0,1.595Z" transform="translate(-3.647 -7.901)" fill="#373737"/>
        <path id="Trazado_900793" data-name="Trazado 900793" d="M25.974,52.595a.8.8,0,1,0,0-1.595H18.8a.8.8,0,1,0,0,1.595Z" transform="translate(-3.647 -10.332)" fill="#373737"/>
        <path id="Trazado_900794" data-name="Trazado 900794" d="M42.626,50.924a.8.8,0,0,0,.564.234.866.866,0,0,0,.1-.006.8.8,0,0,0,.587-.389l5.582-9.569a.8.8,0,1,0-1.378-.8l-5.06,8.673L41.361,47.4a.8.8,0,1,0-1.128,1.128Z" transform="translate(-8.104 -8.097)" fill="#373737"/>
      </g>
    </g>
  </g>
</svg>
