<svg xmlns="http://www.w3.org/2000/svg" xmlns:xlink="http://www.w3.org/1999/xlink" width="103" height="103" viewBox="0 0 103 103">
  <defs>
    <filter id="Trazado_873828" x="0" y="0" width="103" height="103" filterUnits="userSpaceOnUse">
      <feOffset dy="3" input="SourceAlpha"/>
      <feGaussianBlur stdDeviation="3" result="blur"/>
      <feFlood flood-opacity="0.161"/>
      <feComposite operator="in" in2="blur"/>
    </filter>
    <filter id="Trazado_873828-2" x="0" y="0" width="103" height="103" filterUnits="userSpaceOnUse">
      <feOffset dy="3" input="SourceAlpha"/>
      <feGaussianBlur stdDeviation="3" result="blur-2"/>
      <feFlood flood-opacity="0.161" result="color"/>
      <feComposite operator="out" in="SourceGraphic" in2="blur-2"/>
      <feComposite operator="in" in="color"/>
      <feComposite operator="in" in2="SourceGraphic"/>
    </filter>
  </defs>
  <g id="Grupo_1111368" data-name="Grupo 1111368" transform="translate(9 6)">
    <g data-type="innerShadowGroup">
      <g transform="matrix(1, 0, 0, 1, -9, -6)" filter="url(#Trazado_873828)">
        <g id="Trazado_873828-3" data-name="Trazado 873828" transform="translate(9 6)" fill="#fed6a8">
          <path d="M 42.5 83 C 37.03165054321289 83 31.72793769836426 81.92946624755859 26.73618698120117 79.81813812255859 C 21.91371154785156 77.77839660644531 17.582275390625 74.85792541503906 13.86217498779297 71.13782501220703 C 10.14207458496094 67.41773986816406 7.22160005569458 63.08628845214844 5.181875228881836 58.26381301879883 C 3.070537567138672 53.27206420898438 2 47.96834945678711 2 42.5 C 2 37.03165054321289 3.070537567138672 31.72793769836426 5.181875228881836 26.73618698120117 C 7.22160005569458 21.91371154785156 10.14207458496094 17.582275390625 13.86217498779297 13.86217498779297 C 17.582275390625 10.14207458496094 21.91371154785156 7.22160005569458 26.73618698120117 5.181875228881836 C 31.72793769836426 3.070537567138672 37.03165054321289 2 42.5 2 C 47.96834945678711 2 53.27206420898438 3.070537567138672 58.26381301879883 5.181875228881836 C 63.08628845214844 7.22160005569458 67.41773986816406 10.14207458496094 71.13782501220703 13.86217498779297 C 74.85792541503906 17.582275390625 77.77839660644531 21.91371154785156 79.81813812255859 26.73618698120117 C 81.92946624755859 31.72793769836426 83 37.03165054321289 83 42.5 C 83 47.96834945678711 81.92946624755859 53.27206420898438 79.81813812255859 58.26381301879883 C 77.77839660644531 63.08628845214844 74.85792541503906 67.41773986816406 71.13782501220703 71.13782501220703 C 67.41773986816406 74.85792541503906 63.08628845214844 77.77839660644531 58.26381301879883 79.81813812255859 C 53.27206420898438 81.92946624755859 47.96834945678711 83 42.5 83 Z" stroke="none"/>
          <path d="M 42.5 4 C 37.3007698059082 4 32.25918579101562 5.017387390136719 27.51528549194336 7.023887634277344 C 22.93121337890625 8.962783813476562 18.81345367431641 11.73932647705078 15.27638244628906 15.27638244628906 C 11.73932647705078 18.81345367431641 8.962783813476562 22.93121337890625 7.023887634277344 27.51528549194336 C 5.017387390136719 32.25918579101562 4 37.3007698059082 4 42.5 C 4 47.6992301940918 5.017387390136719 52.74081420898438 7.023887634277344 57.48471450805664 C 8.962783813476562 62.06878662109375 11.73932647705078 66.18653869628906 15.27638244628906 69.72361755371094 C 18.81345367431641 73.26067352294922 22.93121337890625 76.03721618652344 27.51528549194336 77.97611236572266 C 32.25918579101562 79.98261260986328 37.3007698059082 81 42.5 81 C 47.6992301940918 81 52.74081420898438 79.98261260986328 57.48471450805664 77.97611236572266 C 62.06878662109375 76.03721618652344 66.18653869628906 73.26067352294922 69.72361755371094 69.72361755371094 C 73.26067352294922 66.18653869628906 76.03721618652344 62.06878662109375 77.97611236572266 57.48471450805664 C 79.98261260986328 52.74081420898438 81 47.6992301940918 81 42.5 C 81 37.3007698059082 79.98261260986328 32.25918579101562 77.97611236572266 27.51528549194336 C 76.03721618652344 22.93121337890625 73.26067352294922 18.81345367431641 69.72361755371094 15.27638244628906 C 66.18653869628906 11.73932647705078 62.06878662109375 8.962783813476562 57.48471450805664 7.023887634277344 C 52.74081420898438 5.017387390136719 47.6992301940918 4 42.5 4 M 42.5 0 C 65.97209930419922 0 85 19.02790069580078 85 42.5 C 85 65.97209930419922 65.97209930419922 85 42.5 85 C 19.02790069580078 85 0 65.97209930419922 0 42.5 C 0 19.02790069580078 19.02790069580078 0 42.5 0 Z" stroke="none" fill="#fff"/>
        </g>
      </g>
      <g id="Trazado_873828-4" data-name="Trazado 873828" fill="#fed6a8">
        <path d="M 42.5 83 C 37.03165054321289 83 31.72793769836426 81.92946624755859 26.73618698120117 79.81813812255859 C 21.91371154785156 77.77839660644531 17.582275390625 74.85792541503906 13.86217498779297 71.13782501220703 C 10.14207458496094 67.41773986816406 7.22160005569458 63.08628845214844 5.181875228881836 58.26381301879883 C 3.070537567138672 53.27206420898438 2 47.96834945678711 2 42.5 C 2 37.03165054321289 3.070537567138672 31.72793769836426 5.181875228881836 26.73618698120117 C 7.22160005569458 21.91371154785156 10.14207458496094 17.582275390625 13.86217498779297 13.86217498779297 C 17.582275390625 10.14207458496094 21.91371154785156 7.22160005569458 26.73618698120117 5.181875228881836 C 31.72793769836426 3.070537567138672 37.03165054321289 2 42.5 2 C 47.96834945678711 2 53.27206420898438 3.070537567138672 58.26381301879883 5.181875228881836 C 63.08628845214844 7.22160005569458 67.41773986816406 10.14207458496094 71.13782501220703 13.86217498779297 C 74.85792541503906 17.582275390625 77.77839660644531 21.91371154785156 79.81813812255859 26.73618698120117 C 81.92946624755859 31.72793769836426 83 37.03165054321289 83 42.5 C 83 47.96834945678711 81.92946624755859 53.27206420898438 79.81813812255859 58.26381301879883 C 77.77839660644531 63.08628845214844 74.85792541503906 67.41773986816406 71.13782501220703 71.13782501220703 C 67.41773986816406 74.85792541503906 63.08628845214844 77.77839660644531 58.26381301879883 79.81813812255859 C 53.27206420898438 81.92946624755859 47.96834945678711 83 42.5 83 Z" stroke="none"/>
        <path d="M 42.5 4 C 37.3007698059082 4 32.25918579101562 5.017387390136719 27.51528549194336 7.023887634277344 C 22.93121337890625 8.962783813476562 18.81345367431641 11.73932647705078 15.27638244628906 15.27638244628906 C 11.73932647705078 18.81345367431641 8.962783813476562 22.93121337890625 7.023887634277344 27.51528549194336 C 5.017387390136719 32.25918579101562 4 37.3007698059082 4 42.5 C 4 47.6992301940918 5.017387390136719 52.74081420898438 7.023887634277344 57.48471450805664 C 8.962783813476562 62.06878662109375 11.73932647705078 66.18653869628906 15.27638244628906 69.72361755371094 C 18.81345367431641 73.26067352294922 22.93121337890625 76.03721618652344 27.51528549194336 77.97611236572266 C 32.25918579101562 79.98261260986328 37.3007698059082 81 42.5 81 C 47.6992301940918 81 52.74081420898438 79.98261260986328 57.48471450805664 77.97611236572266 C 62.06878662109375 76.03721618652344 66.18653869628906 73.26067352294922 69.72361755371094 69.72361755371094 C 73.26067352294922 66.18653869628906 76.03721618652344 62.06878662109375 77.97611236572266 57.48471450805664 C 79.98261260986328 52.74081420898438 81 47.6992301940918 81 42.5 C 81 37.3007698059082 79.98261260986328 32.25918579101562 77.97611236572266 27.51528549194336 C 76.03721618652344 22.93121337890625 73.26067352294922 18.81345367431641 69.72361755371094 15.27638244628906 C 66.18653869628906 11.73932647705078 62.06878662109375 8.962783813476562 57.48471450805664 7.023887634277344 C 52.74081420898438 5.017387390136719 47.6992301940918 4 42.5 4 M 42.5 0 C 65.97209930419922 0 85 19.02790069580078 85 42.5 C 85 65.97209930419922 65.97209930419922 85 42.5 85 C 19.02790069580078 85 0 65.97209930419922 0 42.5 C 0 19.02790069580078 19.02790069580078 0 42.5 0 Z" stroke="none"/>
      </g>
      <g transform="matrix(1, 0, 0, 1, -9, -6)" filter="url(#Trazado_873828-2)">
        <g id="Trazado_873828-5" data-name="Trazado 873828" transform="translate(9 6)" fill="#fff">
          <path d="M 42.5 83 C 37.03165054321289 83 31.72793769836426 81.92946624755859 26.73618698120117 79.81813812255859 C 21.91371154785156 77.77839660644531 17.582275390625 74.85792541503906 13.86217498779297 71.13782501220703 C 10.14207458496094 67.41773986816406 7.22160005569458 63.08628845214844 5.181875228881836 58.26381301879883 C 3.070537567138672 53.27206420898438 2 47.96834945678711 2 42.5 C 2 37.03165054321289 3.070537567138672 31.72793769836426 5.181875228881836 26.73618698120117 C 7.22160005569458 21.91371154785156 10.14207458496094 17.582275390625 13.86217498779297 13.86217498779297 C 17.582275390625 10.14207458496094 21.91371154785156 7.22160005569458 26.73618698120117 5.181875228881836 C 31.72793769836426 3.070537567138672 37.03165054321289 2 42.5 2 C 47.96834945678711 2 53.27206420898438 3.070537567138672 58.26381301879883 5.181875228881836 C 63.08628845214844 7.22160005569458 67.41773986816406 10.14207458496094 71.13782501220703 13.86217498779297 C 74.85792541503906 17.582275390625 77.77839660644531 21.91371154785156 79.81813812255859 26.73618698120117 C 81.92946624755859 31.72793769836426 83 37.03165054321289 83 42.5 C 83 47.96834945678711 81.92946624755859 53.27206420898438 79.81813812255859 58.26381301879883 C 77.77839660644531 63.08628845214844 74.85792541503906 67.41773986816406 71.13782501220703 71.13782501220703 C 67.41773986816406 74.85792541503906 63.08628845214844 77.77839660644531 58.26381301879883 79.81813812255859 C 53.27206420898438 81.92946624755859 47.96834945678711 83 42.5 83 Z" stroke="none"/>
          <path d="M 42.5 4 C 37.3007698059082 4 32.25918579101562 5.017387390136719 27.51528549194336 7.023887634277344 C 22.93121337890625 8.962783813476562 18.81345367431641 11.73932647705078 15.27638244628906 15.27638244628906 C 11.73932647705078 18.81345367431641 8.962783813476562 22.93121337890625 7.023887634277344 27.51528549194336 C 5.017387390136719 32.25918579101562 4 37.3007698059082 4 42.5 C 4 47.6992301940918 5.017387390136719 52.74081420898438 7.023887634277344 57.48471450805664 C 8.962783813476562 62.06878662109375 11.73932647705078 66.18653869628906 15.27638244628906 69.72361755371094 C 18.81345367431641 73.26067352294922 22.93121337890625 76.03721618652344 27.51528549194336 77.97611236572266 C 32.25918579101562 79.98261260986328 37.3007698059082 81 42.5 81 C 47.6992301940918 81 52.74081420898438 79.98261260986328 57.48471450805664 77.97611236572266 C 62.06878662109375 76.03721618652344 66.18653869628906 73.26067352294922 69.72361755371094 69.72361755371094 C 73.26067352294922 66.18653869628906 76.03721618652344 62.06878662109375 77.97611236572266 57.48471450805664 C 79.98261260986328 52.74081420898438 81 47.6992301940918 81 42.5 C 81 37.3007698059082 79.98261260986328 32.25918579101562 77.97611236572266 27.51528549194336 C 76.03721618652344 22.93121337890625 73.26067352294922 18.81345367431641 69.72361755371094 15.27638244628906 C 66.18653869628906 11.73932647705078 62.06878662109375 8.962783813476562 57.48471450805664 7.023887634277344 C 52.74081420898438 5.017387390136719 47.6992301940918 4 42.5 4 M 42.5 0 C 65.97209930419922 0 85 19.02790069580078 85 42.5 C 85 65.97209930419922 65.97209930419922 85 42.5 85 C 19.02790069580078 85 0 65.97209930419922 0 42.5 C 0 19.02790069580078 19.02790069580078 0 42.5 0 Z" stroke="none"/>
        </g>
      </g>
      <g id="Trazado_873828-6" data-name="Trazado 873828" fill="none">
        <path d="M 42.5 83 C 37.03165054321289 83 31.72793769836426 81.92946624755859 26.73618698120117 79.81813812255859 C 21.91371154785156 77.77839660644531 17.582275390625 74.85792541503906 13.86217498779297 71.13782501220703 C 10.14207458496094 67.41773986816406 7.22160005569458 63.08628845214844 5.181875228881836 58.26381301879883 C 3.070537567138672 53.27206420898438 2 47.96834945678711 2 42.5 C 2 37.03165054321289 3.070537567138672 31.72793769836426 5.181875228881836 26.73618698120117 C 7.22160005569458 21.91371154785156 10.14207458496094 17.582275390625 13.86217498779297 13.86217498779297 C 17.582275390625 10.14207458496094 21.91371154785156 7.22160005569458 26.73618698120117 5.181875228881836 C 31.72793769836426 3.070537567138672 37.03165054321289 2 42.5 2 C 47.96834945678711 2 53.27206420898438 3.070537567138672 58.26381301879883 5.181875228881836 C 63.08628845214844 7.22160005569458 67.41773986816406 10.14207458496094 71.13782501220703 13.86217498779297 C 74.85792541503906 17.582275390625 77.77839660644531 21.91371154785156 79.81813812255859 26.73618698120117 C 81.92946624755859 31.72793769836426 83 37.03165054321289 83 42.5 C 83 47.96834945678711 81.92946624755859 53.27206420898438 79.81813812255859 58.26381301879883 C 77.77839660644531 63.08628845214844 74.85792541503906 67.41773986816406 71.13782501220703 71.13782501220703 C 67.41773986816406 74.85792541503906 63.08628845214844 77.77839660644531 58.26381301879883 79.81813812255859 C 53.27206420898438 81.92946624755859 47.96834945678711 83 42.5 83 Z" stroke="none"/>
        <path d="M 42.5 4 C 37.3007698059082 4 32.25918579101562 5.017387390136719 27.51528549194336 7.023887634277344 C 22.93121337890625 8.962783813476562 18.81345367431641 11.73932647705078 15.27638244628906 15.27638244628906 C 11.73932647705078 18.81345367431641 8.962783813476562 22.93121337890625 7.023887634277344 27.51528549194336 C 5.017387390136719 32.25918579101562 4 37.3007698059082 4 42.5 C 4 47.6992301940918 5.017387390136719 52.74081420898438 7.023887634277344 57.48471450805664 C 8.962783813476562 62.06878662109375 11.73932647705078 66.18653869628906 15.27638244628906 69.72361755371094 C 18.81345367431641 73.26067352294922 22.93121337890625 76.03721618652344 27.51528549194336 77.97611236572266 C 32.25918579101562 79.98261260986328 37.3007698059082 81 42.5 81 C 47.6992301940918 81 52.74081420898438 79.98261260986328 57.48471450805664 77.97611236572266 C 62.06878662109375 76.03721618652344 66.18653869628906 73.26067352294922 69.72361755371094 69.72361755371094 C 73.26067352294922 66.18653869628906 76.03721618652344 62.06878662109375 77.97611236572266 57.48471450805664 C 79.98261260986328 52.74081420898438 81 47.6992301940918 81 42.5 C 81 37.3007698059082 79.98261260986328 32.25918579101562 77.97611236572266 27.51528549194336 C 76.03721618652344 22.93121337890625 73.26067352294922 18.81345367431641 69.72361755371094 15.27638244628906 C 66.18653869628906 11.73932647705078 62.06878662109375 8.962783813476562 57.48471450805664 7.023887634277344 C 52.74081420898438 5.017387390136719 47.6992301940918 4 42.5 4 M 42.5 0 C 65.97209930419922 0 85 19.02790069580078 85 42.5 C 85 65.97209930419922 65.97209930419922 85 42.5 85 C 19.02790069580078 85 0 65.97209930419922 0 42.5 C 0 19.02790069580078 19.02790069580078 0 42.5 0 Z" stroke="none" fill="#fff"/>
      </g>
    </g>
    <g id="increase_12411288" transform="translate(17.206 18.098)">
      <path id="Trazado_873825" data-name="Trazado 873825" d="M7.845,22.4,34.279,3.613l-.924-1.3,4.232.334-1.075,4.1-.921-1.3L23.714,13.839l1.143,1.619L35.12,8.21l2.233,3.142L40.1.854,29.288,0l2.229,3.145L6.7,20.788Z" transform="translate(-6.14 0)" fill="#12263f"/>
      <path id="Trazado_873826" data-name="Trazado 873826" d="M366.543,341.422H364.9a.843.843,0,0,1,0-1.687h3.579v-1.982h-1.855v-1.44h-1.982v1.452a2.825,2.825,0,0,0,.259,5.639h1.646a.843.843,0,1,1,0,1.687h-3.761v1.982h1.855v1.682h1.982v-1.684a2.825,2.825,0,1,0-.077-5.649Z" transform="translate(-326.254 -302.943)" fill="#12263f"/>
      <path id="Trazado_873827" data-name="Trazado 873827" d="M46.1,89.326V65.965H37.036V88.336a11.16,11.16,0,0,0-2.222.994V74.641H25.746v26.621H23.524V82.725H14.456v18.536H12.235V89.312H3.166v11.949H1.086v1.982H30.081A11.211,11.211,0,1,0,46.1,89.326ZM10.253,101.261h-5.1V91.294h5.1Zm11.29,0h-5.1V84.707h5.1ZM39.018,67.947h5.1V88.414a11.231,11.231,0,0,0-5.1-.522Zm-9.541,33.314H27.728V76.622h5.1V90.8a11.207,11.207,0,0,0-3.355,10.457Zm10.984,6.979a9.23,9.23,0,1,1,9.229-9.229,9.23,9.23,0,0,1-9.229,9.229Z" transform="translate(-1.086 -59.42)" fill="#12263f"/>
    </g>
  </g>
</svg>
