<svg xmlns="http://www.w3.org/2000/svg" width="52.037" height="51.732" viewBox="0 0 52.037 51.732">
  <g id="bioquimico" transform="translate(-2 -2.353)">
    <path id="Trazado_1034401" data-name="Trazado 1034401" d="M41.292,43.6V42.324A5.184,5.184,0,0,0,37.825,41H36.09s-.867,5.2-2.6,7.806l-5.2-3.469-5.2,3.469c-1.735-2.6-2.6-7.806-2.6-7.806h-2.6a4.337,4.337,0,0,0-4.337,4.337v6.938L11.806,41H4L6.6,58.346H37.823a1.734,1.734,0,0,1-1.6-2.4Z" transform="translate(-0.265 -5.128)" fill="#fff"/>
    <path id="Trazado_1034402" data-name="Trazado 1034402" d="M9,26h5.2V37.275H9Z" transform="translate(-0.929 -3.138)" fill="#71caf0"/>
    <g id="Grupo_1178116" data-name="Grupo 1178116" transform="translate(15.01 8.985)">
      <path id="Trazado_1034403" data-name="Trazado 1034403" d="M44.3,24.337A2.168,2.168,0,0,0,44.3,20H43v4.337Z" transform="translate(-20.45 -11.327)" fill="#fce0b9"/>
      <path id="Trazado_1034404" data-name="Trazado 1034404" d="M19.168,20a2.168,2.168,0,1,0,0,4.337h1.3V20Z" transform="translate(-17 -11.327)" fill="#fce0b9"/>
      <path id="Trazado_1034405" data-name="Trazado 1034405" d="M38.429,12.415a3.84,3.84,0,0,0-5.8-1.7,3.84,3.84,0,0,1-4.268.132l-.379-.237a3.841,3.841,0,0,0-5.741,2.246L21,18.673v6.071h.043a9.536,9.536,0,0,0,18.994,0h.043V18.673Z" transform="translate(-17.531 -10)" fill="#fce0b9"/>
    </g>
    <path id="Trazado_1034406" data-name="Trazado 1034406" d="M9,39v3.469a2.6,2.6,0,0,0,5.2,0V39Z" transform="translate(-0.929 -4.863)" fill="#78af4f"/>
    <path id="Trazado_1034407" data-name="Trazado 1034407" d="M58.21,54.352,56.217,49.5,53.144,42.01V31.6h.434a1.3,1.3,0,1,0,0-2.6H45.768a1.3,1.3,0,1,0,0,2.6H46.2V42.01l-5.07,12.343a1.734,1.734,0,0,0,1.6,2.4H56.609A1.734,1.734,0,0,0,58.21,54.352Z" transform="translate(-5.175 -3.536)" fill="#71caf0"/>
    <path id="Trazado_1034408" data-name="Trazado 1034408" d="M8.2,40.1V34.469h.867a1.735,1.735,0,1,0,0-3.469h-5.2A.868.868,0,0,0,3,31.867L4.135,40.1Z" transform="translate(-0.133 -3.801)" fill="#fce0b9"/>
    <path id="Trazado_1034409" data-name="Trazado 1034409" d="M27.851,9.73l.379.237A3.84,3.84,0,0,0,32.5,9.835a3.84,3.84,0,0,1,5.8,1.7l1.652,6.258-.362-8.652a6.848,6.848,0,0,0-9.462-5.226L26.071,5.649A6.071,6.071,0,0,0,20,11.72l.867,6.071,1.243-5.815A3.841,3.841,0,0,1,27.851,9.73Z" transform="translate(-2.388 -0.133)" fill="#665642"/>
    <path id="Trazado_1034410" data-name="Trazado 1034410" d="M32,22.6a3.469,3.469,0,0,0,3.469,3.469h4.337a1.734,1.734,0,0,0,1.735-1.735V20H32Zm4.337-.867a.867.867,0,1,1-.867.867A.868.868,0,0,1,36.337,21.735Z" transform="translate(-3.981 -2.342)" fill="#71caf0"/>
    <circle id="Elipse_12870" data-name="Elipse 12870" cx="0.867" cy="0.867" r="0.867" transform="translate(31.488 19.393)" fill="#fff"/>
    <path id="Trazado_1034411" data-name="Trazado 1034411" d="M22.735,26.071h4.337A3.469,3.469,0,0,0,30.54,22.6V20H21v4.337A1.734,1.734,0,0,0,22.735,26.071ZM26.2,21.735a.867.867,0,1,1-.867.867A.868.868,0,0,1,26.2,21.735Z" transform="translate(-2.521 -2.342)" fill="#71caf0"/>
    <circle id="Elipse_12871" data-name="Elipse 12871" cx="0.867" cy="0.867" r="0.867" transform="translate(22.815 19.393)" fill="#fff"/>
    <path id="Trazado_1034412" data-name="Trazado 1034412" d="M51,37.735V41.2a1.734,1.734,0,0,0,1.735,1.735H56.2a.868.868,0,0,0,.867-.867v-5.2A.868.868,0,0,0,56.2,36H52.733A1.734,1.734,0,0,0,51,37.735Z" transform="translate(-6.502 -4.465)" fill="#fce0b9"/>
    <path id="Trazado_1034413" data-name="Trazado 1034413" d="M12,32.735a1.734,1.734,0,0,0,1.735,1.735h2.6A.868.868,0,0,0,17.2,33.6V31.867A.868.868,0,0,0,16.337,31h-2.6A1.734,1.734,0,0,0,12,32.735Z" transform="translate(-1.327 -3.801)" fill="#fce0b9"/>
    <path id="Trazado_1034414" data-name="Trazado 1034414" d="M49.2,36.735A1.734,1.734,0,0,0,47.469,35h-2.6a.868.868,0,0,0-.867.867V37.6a.868.868,0,0,0,.867.867h2.6A1.734,1.734,0,0,0,49.2,36.735Z" transform="translate(-5.573 -4.332)" fill="#fce0b9"/>
    <circle id="Elipse_12872" data-name="Elipse 12872" cx="1.735" cy="1.735" r="1.735" transform="translate(46.233 15.924)" fill="#fca947"/>
    <circle id="Elipse_12873" data-name="Elipse 12873" cx="1.735" cy="1.735" r="1.735" transform="translate(43.631 6.383)" fill="#fca947"/>
    <path id="Trazado_1034415" data-name="Trazado 1034415" d="M50.049,52.48a5.576,5.576,0,0,0-4.559-.74l-2.317.631L41.13,57.344a1.735,1.735,0,0,0,1.6,2.4H56.609a1.734,1.734,0,0,0,1.6-2.4l-1.993-4.854A5.575,5.575,0,0,1,50.049,52.48Z" transform="translate(-5.174 -6.527)" fill="#fca947"/>
    <path id="Trazado_1034416" data-name="Trazado 1034416" d="M42.732,59.864H53.108l-.482-.19a20.675,20.675,0,0,1-9.257-7.238l-.2.053-2.043,4.972a1.735,1.735,0,0,0,1.6,2.4Z" transform="translate(-5.175 -6.646)" fill="#e68f29"/>
    <path id="Trazado_1034417" data-name="Trazado 1034417" d="M31.337,36.841A9.487,9.487,0,0,1,27,35.8v3.644l4.337,5.2,4.337-5.2V35.8A9.487,9.487,0,0,1,31.337,36.841Z" transform="translate(-3.317 -4.438)" fill="#fce0b9"/>
    <path id="Trazado_1034418" data-name="Trazado 1034418" d="M26.071,7.077l4.053-1.737a6.848,6.848,0,0,1,9.462,5.226l.291,6.956.07.27-.362-8.652a6.848,6.848,0,0,0-9.462-5.226L26.071,5.649A6.071,6.071,0,0,0,20,11.72l.075.523A6.068,6.068,0,0,1,26.071,7.077Z" transform="translate(-2.388 -0.133)" fill="#735f47"/>
    <path id="Trazado_1034419" data-name="Trazado 1034419" d="M28.842,36.424l5.395,5.035,1.681-2.016V35.8a9.416,9.416,0,0,1-7.075.626Z" transform="translate(-3.562 -4.438)" fill="#f5cba1"/>
    <path id="Trazado_1034420" data-name="Trazado 1034420" d="M38.4,41s-.867,5.2-2.6,7.806l-.063-.042c-.009.013-.016.029-.025.042l-5.16-3.44,0,0s-5.174,3.409-5.183,3.4l-.062.042-.1-.308c-1.525-2.544-2.328-7-2.406-7.451,0-.029-.008-.047-.008-.047H21.4c.5,2.556,1.336,7.056,2.755,9.6a.871.871,0,0,0,1.245.3l5.1-3.4,5.1,3.4a.871.871,0,0,0,1.245-.3c1.42-2.544,2.533-7.044,3.1-9.6H38.4Z" transform="translate(-2.575 -5.128)" fill="#ccc"/>
    <path id="Trazado_1034421" data-name="Trazado 1034421" d="M39.806,40.6,36.337,38v1.735L32,44.938l5.2,3.469C38.938,45.806,39.806,40.6,39.806,40.6Z" transform="translate(-3.981 -4.73)" fill="#fff"/>
    <path id="Trazado_1034422" data-name="Trazado 1034422" d="M26.469,38,23,40.6s.867,5.2,2.6,7.806l5.2-3.469-4.337-5.2Z" transform="translate(-2.787 -4.73)" fill="#fff"/>
    <path id="Trazado_1034423" data-name="Trazado 1034423" d="M11.6,43.6A2.6,2.6,0,0,1,9,41v1.735a2.6,2.6,0,1,0,5.2,0V41A2.6,2.6,0,0,1,11.6,43.6Z" transform="translate(-0.929 -5.128)" fill="#619c35"/>
    <path id="Trazado_1034424" data-name="Trazado 1034424" d="M26.768,24.286a1.518,1.518,0,1,1,1.518-1.518A1.519,1.519,0,0,1,26.768,24.286Zm0-1.735a.217.217,0,0,0-.217.217c0,.239.434.239.434,0A.217.217,0,0,0,26.768,22.551Z" transform="translate(-3.085 -2.507)"/>
    <path id="Trazado_1034425" data-name="Trazado 1034425" d="M36.768,24.286a1.518,1.518,0,1,1,1.518-1.518A1.519,1.519,0,0,1,36.768,24.286Zm0-1.735a.217.217,0,0,0-.217.217c0,.239.434.239.434,0A.217.217,0,0,0,36.768,22.551Z" transform="translate(-4.412 -2.507)"/>
    <path id="Trazado_1034426" data-name="Trazado 1034426" d="M31.5,33.252A3.257,3.257,0,0,1,28.25,30h1.3a1.951,1.951,0,1,0,3.9,0h1.3A3.257,3.257,0,0,1,31.5,33.252Z" transform="translate(-3.483 -3.669)"/>
    <path id="Trazado_1034427" data-name="Trazado 1034427" d="M5.478,53.337a.866.866,0,0,0,.859.748h45.1a2.6,2.6,0,0,0,2.4-3.6L49.262,39.341h.44a1.736,1.736,0,0,0,1.735-1.735V32.4A1.736,1.736,0,0,0,49.7,30.668h-.866V28.89A2.169,2.169,0,0,0,48.4,24.6H40.593a2.169,2.169,0,0,0-.434,4.293V29.8h-.866a1.736,1.736,0,0,0-1.735,1.735V33.27A1.736,1.736,0,0,0,39.294,35h.866v.588A6.062,6.062,0,0,0,37.56,35H36.114l-2.891-2.168v-.975a10.4,10.4,0,0,0,5.2-9h.434a3.035,3.035,0,1,0,0-6.07h-.469l-.327-7.822a.765.765,0,0,0-.01-.1,7.716,7.716,0,0,0-10.66-5.888l-3.9,1.67a6.946,6.946,0,0,0-6.755,6.936.84.84,0,0,0,.009.123l.726,5.081h-.3a3.036,3.036,0,1,0,0,6.071h.434a10.406,10.406,0,0,0,5.2,9v.974L19.925,35H18.479a6.048,6.048,0,0,0-4.337,1.831v-5.3h.867A1.736,1.736,0,0,0,16.744,29.8V28.066a1.736,1.736,0,0,0-1.735-1.735h-.867V22.862a.867.867,0,0,0-.867-.867h-5.2a.867.867,0,0,0-.867.867v3.469H3.735A1.736,1.736,0,0,0,2,28.066a.774.774,0,0,0,.009.119Zm46.678-1.372a.852.852,0,0,1-.721.386H37.558a.868.868,0,0,1-.8-1.2l1.88-4.577,1.905-.52a4.708,4.708,0,0,1,3.849.625,6.4,6.4,0,0,0,6.213.51l1.628,3.965a.848.848,0,0,1-.079.814ZM49.7,37.606H46.231a.868.868,0,0,1-.867-.867V33.27a.868.868,0,0,1,.867-.867H49.7ZM41.027,27.2h-.434a.434.434,0,0,1,0-.867H48.4a.434.434,0,1,1,0,.867H44.5v1.735h2.6v1.735h-.871a2.589,2.589,0,0,0-1.9.839A2.6,2.6,0,0,0,41.9,29.8h0V28.066a.867.867,0,0,0-.867-.867Zm-1.733,4.337h2.6a.867.867,0,1,1,0,1.735h-2.6ZM41.9,35a2.582,2.582,0,0,0,1.733-.676v2.41a2.605,2.605,0,0,0,2.6,2.6h1.157l2.562,6.241a4.7,4.7,0,0,1-4.594-.351,6.453,6.453,0,0,0-5.268-.855l-.618.168L41.828,38.8a.859.859,0,0,0,.065-.33V35ZM40.16,37.628V38.3l-5,12.18a2.6,2.6,0,0,0-.052,1.868H28.887V41.828L32.742,44.4a.869.869,0,0,0,1.2-.24c1.439-2.159,2.29-5.86,2.6-7.42H37.56A4.314,4.314,0,0,1,40.16,37.628Zm-5.286-1.385a26.413,26.413,0,0,1-1.934,6.2L29.3,40.023l3.718-4.462a.869.869,0,0,0,.2-.556ZM19.346,18.526h7.806V20.26a2.605,2.605,0,0,1-2.6,2.6H20.213a.868.868,0,0,1-.867-.867Zm.2-1.735,1.008-4.719A2.974,2.974,0,0,1,25,10.332l.38.237a4.694,4.694,0,0,0,5.232-.162,2.973,2.973,0,0,1,4.469,1.27l1.35,5.115H19.551Zm9.336,1.735h7.806v3.469a.868.868,0,0,1-.867.867H31.488a2.605,2.605,0,0,1-2.6-2.6Zm11.275,1.3a1.3,1.3,0,0,1-1.3,1.3h-.434v-2.6h.434A1.3,1.3,0,0,1,40.162,19.827ZM23.683,6.383a.855.855,0,0,0,.342-.07l4.053-1.737a5.983,5.983,0,0,1,8.257,4.518l.056,1.327A4.71,4.71,0,0,0,29.606,9a2.966,2.966,0,0,1-3.3.1l-.38-.237a4.706,4.706,0,0,0-7.048,2.8l-.226,1.052-.169-1.186A5.21,5.21,0,0,1,23.683,6.383Zm-6.5,14.744a1.3,1.3,0,1,1,0-2.6h.434v2.6ZM19.5,24.486a2.564,2.564,0,0,0,.709.111H24.55a4.321,4.321,0,0,0,3.469-1.761A4.321,4.321,0,0,0,31.488,24.6h4.337a2.565,2.565,0,0,0,.709-.111,8.668,8.668,0,0,1-17.03,0Zm8.515,8.784a10.34,10.34,0,0,0,3.469-.607v2.028l-3.469,4.163L24.55,34.691V32.663A10.34,10.34,0,0,0,28.019,33.27ZM22.815,35a.871.871,0,0,0,.2.556l3.718,4.462L23.1,42.446a26.384,26.384,0,0,1-1.934-6.2Zm-9.54,13.01a.867.867,0,0,0,.867-.867V41.076a4.341,4.341,0,0,1,4.337-4.337h1.015c.31,1.559,1.161,5.261,2.6,7.42a.868.868,0,0,0,1.2.24l3.855-2.571V52.351H20.213V48.881H18.479v3.469H7.092L5,37.162H7.2v.445a3.473,3.473,0,0,0,3.469,3.469,3.428,3.428,0,0,0,1.76-.5c-.013.164-.025.329-.025.5v5.2H10.673v1.735ZM8.938,35h3.469v2.6a1.735,1.735,0,1,1-3.469,0Zm3.469-1.735H8.938V31.535a2.585,2.585,0,0,0,1.735-.676,2.581,2.581,0,0,0,1.735.676Zm2.6-3.469h-2.6a.867.867,0,1,1,0-1.735h2.6ZM8.938,23.73h3.469v2.6a2.585,2.585,0,0,0-1.735.677,2.581,2.581,0,0,0-1.735-.677Zm0,4.337a.867.867,0,1,1,0,1.735h-2.6v1.735H7.2v3.892H4.758L3.743,28.066Z" transform="translate(0 0)"/>
    <path id="Trazado_1034428" data-name="Trazado 1034428" d="M54.6,22.2A2.6,2.6,0,1,0,52,19.6,2.605,2.605,0,0,0,54.6,22.2Zm0-3.469a.867.867,0,1,1-.867.867A.868.868,0,0,1,54.6,18.735Z" transform="translate(-6.635 -1.944)"/>
    <path id="Trazado_1034429" data-name="Trazado 1034429" d="M54.2,8.6a2.6,2.6,0,1,0-2.6,2.6A2.605,2.605,0,0,0,54.2,8.6Zm-2.6.867a.867.867,0,1,1,.867-.867A.868.868,0,0,1,51.6,9.469Z" transform="translate(-6.237 -0.484)"/>
  </g>
</svg>
