<svg xmlns="http://www.w3.org/2000/svg" width="55" height="55" viewBox="0 0 55 55">
  <g id="Grupo_1178123" data-name="Grupo 1178123" transform="translate(-168.782 -737.282)">
    <path id="Trazado_1034491" data-name="Trazado 1034491" d="M347.606,40.7A25.858,25.858,0,1,1,368.994,70.36,25.858,25.858,0,0,1,347.606,40.7" transform="translate(-176.857 719.941)" fill="#fd9826"/>
    <path id="Trazado_1034492" data-name="Trazado 1034492" d="M371.992,71.192a27.5,27.5,0,1,1,27.5-27.5,27.5,27.5,0,0,1-27.5,27.5m0-52a24.5,24.5,0,1,0,24.505,24.5,24.5,24.5,0,0,0-24.505-24.5Z" transform="translate(-175.711 721.09)" fill="#fff"/>
    <path id="Trazado_1034493" data-name="Trazado 1034493" d="M395.195,59.654a.533.533,0,0,0-.533.532v5.007a.294.294,0,0,1-.294.294H391.5V55a.532.532,0,1,0-1.065,0V65.489h-5.764l1.671-1.839a.953.953,0,0,0,.231-.766v-.016l-1.592-9.405.428-.646a1.209,1.209,0,0,0,.762.331.932.932,0,0,0,.834-.516l1.679-3.365,3.826,1.481a3.69,3.69,0,0,1,2.148,3.354v3.6a.532.532,0,0,0,.532.532h0a.532.532,0,0,0,.532-.532V54.1a4.753,4.753,0,0,0-2.811-4.34l-.01,0-6.366-2.466V45.8a4.992,4.992,0,0,0,1.888-3.282,2.308,2.308,0,0,0,1.354-.552,2.263,2.263,0,0,0,.236-3.192V36.8a6.6,6.6,0,0,0-13.2,0v2.025a2.14,2.14,0,0,0-.549,1.426,2.257,2.257,0,0,0,.785,1.715,2.3,2.3,0,0,0,1.354.552,4.938,4.938,0,0,0,2,3.361v1.415l-6.36,2.466-.01,0a4.751,4.751,0,0,0-2.81,4.34V65.2a1.361,1.361,0,0,0,1.359,1.359h5.074a.533.533,0,0,0,0-1.065H376.51V55a.532.532,0,1,0-1.065,0V65.489h-2.863a.294.294,0,0,1-.294-.294V54.1a3.69,3.69,0,0,1,2.148-3.354l3.823-1.482,1.679,3.365a.932.932,0,0,0,.834.517,1.208,1.208,0,0,0,.762-.331l.429.645-1.592,9.405,0,.016a.955.955,0,0,0,.23.766l1.672,1.839h-2.13a.533.533,0,0,0,0,1.065h14.227a1.361,1.361,0,0,0,1.359-1.359V60.184a.532.532,0,0,0-.532-.53m-7.5-10.776-1.565,3.138-1.882-1.337,1.933-2.387Zm-3.147,3.32-.406.611h-1.328l-.406-.611,1.07-.762Zm-3.074-4.737v-1a5.405,5.405,0,0,0,2.014.381,5,5,0,0,0,1.992-.415v1.034l-2,2.47Zm8.032-7.213a1.2,1.2,0,0,1-.414.905,1.249,1.249,0,0,1-.615.283V39.06a1.2,1.2,0,0,1,1.03,1.189M378.364,41.44a1.2,1.2,0,0,1-1.03-1.191,1.265,1.265,0,0,1,1.03-1.161Zm.029-3.435a2.635,2.635,0,0,0-.509.115V36.8a5.534,5.534,0,0,1,11.069,0v1.281a2.376,2.376,0,0,0-.48-.093c0-.514,0-.415-1.676-2.222a.948.948,0,0,0-1.21-.147,10.267,10.267,0,0,1-6.206,1.671.946.946,0,0,0-.988.71Zm1.036,3.854v-3.5a11.38,11.38,0,0,0,6.656-1.795c.771.828,1.189,1.262,1.323,1.429v3.865a3.99,3.99,0,0,1-7.978.079c0-.028,0-.056,0-.084Zm1.393,10.159-1.565-3.138,1.511-.585,1.934,2.387Zm.611,10.965,1.542-9.107h1l1.542,9.107-2.041,2.245Z" transform="translate(-187.193 715.399)" fill="#12263f"/>
  </g>
</svg>
