<svg xmlns="http://www.w3.org/2000/svg" width="400" height="329" viewBox="0 0 400 329">
  <g id="Capa_2" data-name="Capa 2" transform="translate(-48.59 -77.202)">
    <g id="Grupo_59953" data-name="Grupo 59953" transform="translate(48.59 77.202)">
      <g id="freepik--background-complete--inject-14" transform="translate(0 0)">
        <path id="Trazado_109976" data-name="Trazado 109976" d="M32.45,312.91l5,32.816H66.459L73.2,313.391Z" transform="translate(-28.433 -16.906)" fill="#aed3f2"/>
        <path id="Trazado_109977" data-name="Trazado 109977" d="M69.014,333.008c0,.09-7.438.168-16.612.168s-16.623,0-16.623-.168,7.427-.168,16.6-.168S69.014,332.934,69.014,333.008Z" transform="translate(-28.279 -15.988)" fill="#fafafa"/>
        <path id="Trazado_109978" data-name="Trazado 109978" d="M69.105,331.482c0,.09-7.49.18-16.737.18s-16.737-.084-16.737-.18,7.481-.168,16.737-.168S69.105,331.383,69.105,331.482Z" transform="translate(-28.286 -16.059)" fill="#fafafa"/>
        <path id="Trazado_109979" data-name="Trazado 109979" d="M69.025,329.738c0,.09-7.481.168-16.737.168s-16.737-.073-16.737-.168,7.481-.168,16.737-.168S69.025,329.643,69.025,329.738Z" transform="translate(-28.29 -16.139)" fill="#fafafa"/>
        <path id="Trazado_109980" data-name="Trazado 109980" d="M40.474,342.856a27.818,27.818,0,0,1-.89-4.122,29.71,29.71,0,0,1-.554-4.184,25.275,25.275,0,0,1,.889,4.132A25.767,25.767,0,0,1,40.474,342.856Z" transform="translate(-28.13 -15.909)" fill="#fafafa"/>
        <path id="Trazado_109981" data-name="Trazado 109981" d="M42.325,342.518q-.438-4.015-.541-8.055a32.65,32.65,0,0,1,.541,8.055Z" transform="translate(-28.003 -15.914)" fill="#fafafa"/>
        <path id="Trazado_109982" data-name="Trazado 109982" d="M45.774,342.529a19.949,19.949,0,0,1-.754-4.184,19.5,19.5,0,0,1-.23-4.184,35.21,35.21,0,0,1,.565,4.184A37.1,37.1,0,0,1,45.774,342.529Z" transform="translate(-27.865 -15.928)" fill="#fafafa"/>
        <path id="Trazado_109983" data-name="Trazado 109983" d="M48.169,342.7a21.059,21.059,0,0,1-.4-4.184,20.262,20.262,0,0,1,.125-4.184q.283,4.2.27,8.421Z" transform="translate(-27.729 -15.92)" fill="#fafafa"/>
        <path id="Trazado_109984" data-name="Trazado 109984" d="M52.447,342.513a23.087,23.087,0,0,1-.3-3.986,23.539,23.539,0,0,1,0-4.027,48.466,48.466,0,0,1,.27,7.981Z" transform="translate(-27.529 -15.911)" fill="#fafafa"/>
        <path id="Trazado_109985" data-name="Trazado 109985" d="M55.546,342.7a52.617,52.617,0,0,1,.073-8.254,24.771,24.771,0,0,1,.136,4.132,23.674,23.674,0,0,1-.209,4.122Z" transform="translate(-27.374 -15.915)" fill="#fafafa"/>
        <path id="Trazado_109986" data-name="Trazado 109986" d="M58.47,342.288a55.03,55.03,0,0,1,.838-8.588,28.242,28.242,0,0,1-.241,4.31,29.446,29.446,0,0,1-.6,4.279Z" transform="translate(-27.233 -15.949)" fill="#fafafa"/>
        <path id="Trazado_109987" data-name="Trazado 109987" d="M62.24,341.817a22.774,22.774,0,0,1,1.58-7.211,32.428,32.428,0,0,1-.732,3.605,30.454,30.454,0,0,1-.847,3.6Z" transform="translate(-27.06 -15.907)" fill="#fafafa"/>
        <path id="Trazado_109988" data-name="Trazado 109988" d="M59.9,251a.451.451,0,0,1,0,.168,2.207,2.207,0,0,1-.125.461l-.554,1.768c-.23.754-.554,1.705-.847,2.814s-.68,2.343-1.046,3.734-.763,2.919-1.129,4.572-.754,3.431-1.082,5.318c-.67,3.745-1.339,7.888-1.778,12.25s-.617,8.557-.67,12.355v5.376c0,1.663.125,3.264.209,4.7s.2,2.741.282,3.881.188,2.092.282,2.919.146,1.392.188,1.841a2.092,2.092,0,0,0,0,.481v.136a.868.868,0,0,1,0-.157,3.615,3.615,0,0,0-.073-.481c-.063-.451-.146-1.047-.251-1.841s-.241-1.778-.334-2.919-.27-2.434-.345-3.87-.2-3.012-.241-4.7-.073-3.5-.09-5.419A122.733,122.733,0,0,1,52.979,282c.451-4.383,1.046-8.526,1.8-12.271.387-1.872.743-3.641,1.161-5.294s.784-3.139,1.161-4.572.763-2.636,1.046-3.724.68-2.019.91-2.794.461-1.352.617-1.758c.063-.18.115-.334.168-.461a.512.512,0,0,1,.063-.125Z" transform="translate(-27.518 -19.761)" fill="#aed3f2"/>
        <path id="Trazado_109989" data-name="Trazado 109989" d="M54.593,270.715a10.775,10.775,0,0,1,4.507-5.691,2.542,2.542,0,0,1,2.389-.438c1.046.491,1.1,1.914.795,2.992A7.932,7.932,0,0,1,59,272.055a6.7,6.7,0,0,1-4.927,1.262" transform="translate(-27.437 -26.321)" fill="#aed3f2"/>
        <path id="Trazado_109990" data-name="Trazado 109990" d="M52.9,283.991c.743-2.835,3-6.862,5.367-8.61a3.411,3.411,0,0,1,1.224-.67,1.392,1.392,0,0,1,1.3.282,1.977,1.977,0,0,1,.293,1.872,11.413,11.413,0,0,1-8.463,8.526" transform="translate(-27.504 -24.687)" fill="#aed3f2"/>
        <path id="Trazado_109991" data-name="Trazado 109991" d="M52.42,295.459a16.56,16.56,0,0,1,5.367-6.789,2.563,2.563,0,0,1,1.893-.67c1.046.188,1.485,1.442,1.392,2.48-.18,2.092-1.81,3.839-3.494,5.178a21.964,21.964,0,0,1-5,2.562" transform="translate(-27.513 -18.056)" fill="#aed3f2"/>
        <path id="Trazado_109992" data-name="Trazado 109992" d="M52.68,303.658a15.9,15.9,0,0,1,4.6-5.228,3.139,3.139,0,0,1,1.339-.617,1.392,1.392,0,0,1,1.352.513c.451.67,0,1.59-.481,2.239a13.024,13.024,0,0,1-6.559,4.812" transform="translate(-27.5 -17.604)" fill="#aed3f2"/>
        <path id="Trazado_109993" data-name="Trazado 109993" d="M52.833,300.32a50.45,50.45,0,0,0-6.57-6.716c-.377-.314-.847-.67-1.308-.5a1.046,1.046,0,0,0-.607.89,2.524,2.524,0,0,0,.251,1.047,12.784,12.784,0,0,0,8.463,7.121" transform="translate(-27.885 -17.821)" fill="#aed3f2"/>
        <path id="Trazado_109994" data-name="Trazado 109994" d="M53.089,289.576c-1.713-2.092-3.441-4.184-5.157-6.277a6.214,6.214,0,0,0-1.674-1.59,1.893,1.893,0,0,0-2.919,2.092,5.555,5.555,0,0,0,1.046,2.092,15.336,15.336,0,0,0,3.766,3.986,6.277,6.277,0,0,0,4.7,1.465" transform="translate(-27.93 -23.747)" fill="#aed3f2"/>
        <path id="Trazado_109995" data-name="Trazado 109995" d="M53.751,277.449a17.971,17.971,0,0,0-5.228-7.8,3.012,3.012,0,0,0-1.339-.8,2.3,2.3,0,0,0-2.375,1.674,4.289,4.289,0,0,0,.47,3.411,8.9,8.9,0,0,0,2.434,2.562,20.46,20.46,0,0,0,5.733,3.139" transform="translate(-27.871 -25.539)" fill="#aed3f2"/>
        <path id="Trazado_109996" data-name="Trazado 109996" d="M55.691,266.727c-.5-3.65-2.406-6.716-4.6-9.644-.461-.617-1.109-1.276-1.883-1.161a1.5,1.5,0,0,0-1.046.931,3.284,3.284,0,0,0-.209,1.454,11.288,11.288,0,0,0,7.323,10.074" transform="translate(-27.719 -27.33)" fill="#aed3f2"/>
        <path id="Trazado_109997" data-name="Trazado 109997" d="M56.72,261.243a29.991,29.991,0,0,1-.188-5.649,10.011,10.011,0,0,1,1.872-5.228,4.3,4.3,0,0,1,1.872-1.5,2.385,2.385,0,0,1,2.3.3,2.532,2.532,0,0,1,.784,2.019,6.276,6.276,0,0,1-.586,2.155c-1.339,3.316-3.661,6.977-6.039,7.908" transform="translate(-27.325 -28.391)" fill="#aed3f2"/>
        <path id="Trazado_109998" data-name="Trazado 109998" d="M35.2,264.84a1.778,1.778,0,0,1,0,.471v3.431a26.475,26.475,0,0,0,.1,2.772c.09,2.092.282,4.5.6,7.186s.795,5.649,1.422,8.724,1.423,5.963,2.193,8.565,1.6,4.906,2.343,6.82c.356.973.721,1.82,1.046,2.584s.575,1.4.806,1.924.387.91.523,1.224a2.094,2.094,0,0,1,.168.4,2.529,2.529,0,0,1-.22-.408c-.146-.3-.345-.67-.575-1.193s-.554-1.151-.868-1.9-.7-1.611-1.046-2.562c-.763-1.914-1.59-4.184-2.406-6.82s-1.579-5.513-2.228-8.588-1.046-6.039-1.412-8.724a64.981,64.981,0,0,1-.523-7.218V265.3a2.019,2.019,0,0,1,.073-.461Z" transform="translate(-28.309 -19.122)" fill="#aed3f2"/>
        <path id="Trazado_109999" data-name="Trazado 109999" d="M36,279.4a7.678,7.678,0,0,1,1.841-4.854,1.831,1.831,0,0,1,1.527-.806c.795.115,1.161,1.046,1.182,1.862a5.544,5.544,0,0,1-1.276,3.724,4.739,4.739,0,0,1-3.138,1.914" transform="translate(-28.27 -25.064)" fill="#aed3f2"/>
        <path id="Trazado_110000" data-name="Trazado 110000" d="M37.65,288.788a13.034,13.034,0,0,1,1.8-7.02,2.376,2.376,0,0,1,.67-.7.974.974,0,0,1,.942-.084,1.4,1.4,0,0,1,.607,1.213,8.149,8.149,0,0,1-3.923,7.626" transform="translate(-28.194 -23.907)" fill="#aed3f2"/>
        <path id="Trazado_110001" data-name="Trazado 110001" d="M39.82,296.7a11.737,11.737,0,0,1,2.217-5.785,1.8,1.8,0,0,1,1.129-.858c.743-.09,1.352.67,1.5,1.381a5.723,5.723,0,0,1-1.276,4.279,15.806,15.806,0,0,1-2.846,2.825" transform="translate(-28.093 -17.96)" fill="#aed3f2"/>
        <path id="Trazado_110002" data-name="Trazado 110002" d="M41.78,302.237a11.422,11.422,0,0,1,2.019-4.561,2.292,2.292,0,0,1,.806-.711.973.973,0,0,1,1.046.063c.451.356.356,1.046.157,1.632a9.414,9.414,0,0,1-3.431,4.7" transform="translate(-28.002 -17.648)" fill="#aed3f2"/>
        <path id="Trazado_110003" data-name="Trazado 110003" d="M41.228,299.9a36.066,36.066,0,0,0-5.921-3.139,1.047,1.047,0,0,0-1.046-.052.67.67,0,0,0-.22.732,1.809,1.809,0,0,0,.4.67,9.1,9.1,0,0,0,7.323,3.023" transform="translate(-28.361 -17.659)" fill="#aed3f2"/>
        <path id="Trazado_110004" data-name="Trazado 110004" d="M39.076,292.522,34.2,289.384a4.288,4.288,0,0,0-1.475-.711,1.506,1.506,0,0,0-1.506.451,1.465,1.465,0,0,0,0,1.569,3.807,3.807,0,0,0,1.119,1.193,10.787,10.787,0,0,0,3.425,1.9,4.529,4.529,0,0,0,3.525,0" transform="translate(-28.5 -18.026)" fill="#aed3f2"/>
        <path id="Trazado_110005" data-name="Trazado 110005" d="M36.9,284.114a12.741,12.741,0,0,0-5.228-4.184,2.093,2.093,0,0,0-1.1-.251,1.622,1.622,0,0,0-1.257,1.641,3.075,3.075,0,0,0,1.046,2.228,6.631,6.631,0,0,0,2.207,1.224,14.947,14.947,0,0,0,4.582.879" transform="translate(-28.578 -24.311)" fill="#aed3f2"/>
        <path id="Trazado_110006" data-name="Trazado 110006" d="M35.9,276.386a15.2,15.2,0,0,0-5.228-5.576,1.548,1.548,0,0,0-1.527-.387,1.047,1.047,0,0,0-.534.858,2.552,2.552,0,0,0,.168,1.046,8.076,8.076,0,0,0,7.155,5.228" transform="translate(-28.61 -25.581)" fill="#aed3f2"/>
        <path id="Trazado_110007" data-name="Trazado 110007" d="M35.4,272.421a21.842,21.842,0,0,1-1.392-3.777,7.145,7.145,0,0,1,.157-3.975,2.939,2.939,0,0,1,.952-1.422,1.674,1.674,0,0,1,1.632-.293,1.841,1.841,0,0,1,.973,1.213,4.507,4.507,0,0,1,.063,1.59c-.22,2.553-.991,5.544-2.427,6.716" transform="translate(-28.371 -26.506)" fill="#aed3f2"/>
        <path id="Trazado_110008" data-name="Trazado 110008" d="M70.683,264.54v1.81a15.536,15.536,0,0,1,0,2.092v2.773c-.063,2.092-.241,4.507-.534,7.218s-.763,5.669-1.4,8.724-1.433,5.973-2.228,8.578-1.642,4.906-2.416,6.82c-.366.963-.743,1.81-1.046,2.563s-.617,1.392-.868,1.914l-.575,1.193a2.952,2.952,0,0,1-.22.4,1.632,1.632,0,0,1,.157-.429c.125-.314.3-.711.523-1.213s.5-1.182.806-1.935.67-1.611,1.046-2.584c.743-1.914,1.538-4.184,2.333-6.82s1.549-5.492,2.2-8.557,1.1-6.046,1.433-8.724.5-5.138.6-7.2c.063-1.046.073-1.956.09-2.772s0-1.517,0-2.092V265.02a2,2,0,0,1,.108-.48Z" transform="translate(-27.099 -19.136)" fill="#aed3f2"/>
        <path id="Trazado_110009" data-name="Trazado 110009" d="M69.672,279.1a7.636,7.636,0,0,0-1.841-4.854,1.851,1.851,0,0,0-1.538-.816c-.784.115-1.151,1.046-1.182,1.872a5.7,5.7,0,0,0,1.276,3.756,4.822,4.822,0,0,0,3.138,1.9" transform="translate(-26.928 -25.108)" fill="#aed3f2"/>
        <path id="Trazado_110010" data-name="Trazado 110010" d="M68,288.476a12.971,12.971,0,0,0-1.8-7.009,2.4,2.4,0,0,0-.67-.67.984.984,0,0,0-.942-.09,1.4,1.4,0,0,0-.607,1.213,8.16,8.16,0,0,0,3.933,7.626" transform="translate(-26.98 -23.947)" fill="#aed3f2"/>
        <path id="Trazado_110011" data-name="Trazado 110011" d="M65.835,296.394a11.737,11.737,0,0,0-2.217-5.785,1.767,1.767,0,0,0-1.14-.868c-.732-.09-1.339.67-1.485,1.381a5.678,5.678,0,0,0,1.276,4.279,15.159,15.159,0,0,0,2.846,2.825" transform="translate(-27.119 -17.976)" fill="#aed3f2"/>
        <path id="Trazado_110012" data-name="Trazado 110012" d="M63.885,301.929a11.59,11.59,0,0,0-2.019-4.551,2.322,2.322,0,0,0-.816-.711.983.983,0,0,0-1.046,0c-.461.356-.356,1.046-.157,1.632a9.248,9.248,0,0,0,3.431,4.7" transform="translate(-27.178 -17.662)" fill="#aed3f2"/>
        <path id="Trazado_110013" data-name="Trazado 110013" d="M64.584,299.586a37.17,37.17,0,0,1,5.91-3.138,1.046,1.046,0,0,1,1.046-.052.69.69,0,0,1,.22.732,1.831,1.831,0,0,1-.408.67,9.112,9.112,0,0,1-7.323,3.023" transform="translate(-26.977 -17.673)" fill="#aed3f2"/>
        <path id="Trazado_110014" data-name="Trazado 110014" d="M66.749,292.222l4.874-3.138a4.717,4.717,0,0,1,1.475-.721,1.559,1.559,0,0,1,1.517.461,1.506,1.506,0,0,1,0,1.569,4.056,4.056,0,0,1-1.129,1.182,10.556,10.556,0,0,1-3.431,1.914,4.551,4.551,0,0,1-3.515,0" transform="translate(-26.861 -18.041)" fill="#aed3f2"/>
        <path id="Trazado_110015" data-name="Trazado 110015" d="M68.9,283.814a12.856,12.856,0,0,1,5.228-4.184,2.208,2.208,0,0,1,1.1-.251,1.642,1.642,0,0,1,1.256,1.653,3.138,3.138,0,0,1-1.046,2.228,6.381,6.381,0,0,1-2.2,1.213,14.947,14.947,0,0,1-4.582.879" transform="translate(-26.764 -24.354)" fill="#aed3f2"/>
        <path id="Trazado_110016" data-name="Trazado 110016" d="M69.881,276.075a15.2,15.2,0,0,1,5.228-5.576,1.622,1.622,0,0,1,1.538-.387,1.1,1.1,0,0,1,.534.868,2.524,2.524,0,0,1-.18,1.046,8.055,8.055,0,0,1-7.166,5.294" transform="translate(-26.709 -25.62)" fill="#aed3f2"/>
        <path id="Trazado_110017" data-name="Trazado 110017" d="M70.219,272.173a22.263,22.263,0,0,0,1.352-3.808,7.323,7.323,0,0,0-.146-3.986,3,3,0,0,0-.963-1.412,1.7,1.7,0,0,0-1.632-.293,1.81,1.81,0,0,0-.973,1.213,4.572,4.572,0,0,0-.063,1.6c.22,2.553.991,5.534,2.427,6.705" transform="translate(-26.806 -26.547)" fill="#aed3f2"/>
        <path id="Trazado_110018" data-name="Trazado 110018" d="M29.27,306.68v6.141a2.406,2.406,0,0,0,2.417,2.416H73.7a2.406,2.406,0,0,0,2.417-2.416h0V306.68Z" transform="translate(-28.579 -17.194)" fill="#aed3f2"/>
        <path id="Trazado_110019" data-name="Trazado 110019" d="M32.76,314.88l.345,1.956L71.863,319.6l.983-4.718Z" transform="translate(-28.419 -16.816)" fill="#aed3f2"/>
        <path id="Trazado_110020" data-name="Trazado 110020" d="M123.985,252.81a7.322,7.322,0,0,0-6.141-8.369h0a.575.575,0,0,0-.721.774,8.85,8.85,0,0,0,6.893,7.815" transform="translate(-46.872 -29.284)" fill="#aed3f2"/>
        <path id="Trazado_110021" data-name="Trazado 110021" d="M113.911,266.034c1.851,3.808,4.519,6.382,7.815,6.507.67,0,1.151-.408,1.789-.451a4.076,4.076,0,0,1,1.046.4,1.7,1.7,0,0,0,.554.125c3.4-.18,6.277-2.573,8.264-6.58,2.73-5.617,1.883-11.643-1.872-13.484a8.94,8.94,0,0,0-1.549-.6,6.277,6.277,0,0,0-1.862-.22,13.6,13.6,0,0,0-4.268.972.671.671,0,0,0-.188.063c-3.055-1.339-5.492-1.339-7.856-.22C111.987,254.387,111.192,260.382,113.911,266.034Z" transform="translate(-47.092 -27.351)" fill="#aed3f2"/>
        <path id="Trazado_110022" data-name="Trazado 110022" d="M113.915,260.308a2.835,2.835,0,0,1-.3-1.129,6.057,6.057,0,0,1,1.9-5.158,3.138,3.138,0,0,1,.963-.68,11.447,11.447,0,0,0-.836.784,6.863,6.863,0,0,0-1.454,2.312,6.727,6.727,0,0,0-.4,2.689C113.831,259.826,114.02,260.308,113.915,260.308Z" transform="translate(-47.034 -28.085)" fill="#fafafa"/>
        <path id="Trazado_110023" data-name="Trazado 110023" d="M114.575,262.561c-.063,0-.188-.251-.261-.6s-.09-.631,0-.67.188.251.261.6S114.648,262.545,114.575,262.561Z" transform="translate(-47.002 -27.311)" fill="#fafafa"/>
        <path id="Trazado_110024" data-name="Trazado 110024" d="M131.448,243.66c0,.052-.7.324-1.768.963a12.807,12.807,0,0,0-1.758,1.256,14.174,14.174,0,0,0-3.358,4.07,15.169,15.169,0,0,0-.879,1.978c-.408,1.161-.534,1.924-.586,1.914a2.343,2.343,0,0,1,.063-.541,5.857,5.857,0,0,1,.125-.617,6.611,6.611,0,0,1,.23-.816,11.673,11.673,0,0,1,.847-2.008,13,13,0,0,1,5.209-5.392,8.014,8.014,0,0,1,.743-.366,3.281,3.281,0,0,1,.6-.251,2.488,2.488,0,0,1,.534-.188Z" transform="translate(-46.594 -29.292)" fill="#aed3f2"/>
        <path id="Trazado_110025" data-name="Trazado 110025" d="M161.013,252.809a7.323,7.323,0,0,0-6.151-8.369h0a.732.732,0,0,0-.534.063c-.209.146-.209.451-.188.711a8.833,8.833,0,0,0,6.893,7.815" transform="translate(-45.164 -29.283)" fill="#aed3f2"/>
        <path id="Trazado_110026" data-name="Trazado 110026" d="M150.94,266.034c1.862,3.808,4.519,6.382,7.815,6.507.67,0,1.161-.408,1.789-.451a4.079,4.079,0,0,1,1.046.4,1.705,1.705,0,0,0,.554.125c3.411-.18,6.277-2.573,8.264-6.58,2.73-5.617,1.883-11.643-1.872-13.484a9.747,9.747,0,0,0-1.538-.6,6.276,6.276,0,0,0-1.872-.22,13.6,13.6,0,0,0-4.268.973l-.188.063c-3.055-1.339-5.492-1.339-7.856-.22C149.033,254.387,148.222,260.382,150.94,266.034Z" transform="translate(-45.385 -27.351)" fill="#aed3f2"/>
        <path id="Trazado_110027" data-name="Trazado 110027" d="M150.956,260.308a2.857,2.857,0,0,1-.314-1.129,6.057,6.057,0,0,1,1.9-5.158,2.866,2.866,0,0,1,.973-.68s-.345.282-.847.784a6.669,6.669,0,0,0-1.442,2.312,6.926,6.926,0,0,0-.408,2.689A11.038,11.038,0,0,1,150.956,260.308Z" transform="translate(-45.327 -28.085)" fill="#fafafa"/>
        <path id="Trazado_110028" data-name="Trazado 110028" d="M151.635,262.561c-.073,0-.2-.251-.27-.6s-.09-.631,0-.67.188.251.261.6A1.047,1.047,0,0,1,151.635,262.561Z" transform="translate(-45.295 -27.311)" fill="#fafafa"/>
        <path id="Trazado_110029" data-name="Trazado 110029" d="M168.5,243.66c0,.052-.7.325-1.768.963a14.554,14.554,0,0,0-1.758,1.256,14.174,14.174,0,0,0-3.358,4.07,16.739,16.739,0,0,0-.879,1.978c-.408,1.161-.523,1.924-.575,1.914a3.145,3.145,0,0,1,.052-.541,5.873,5.873,0,0,1,.125-.617,7.263,7.263,0,0,1,.23-.816,11.671,11.671,0,0,1,.847-2.008,13.023,13.023,0,0,1,1.475-2.253,13.726,13.726,0,0,1,1.914-1.9,13.054,13.054,0,0,1,1.862-1.234,5.055,5.055,0,0,1,.753-.377,3.137,3.137,0,0,1,.586-.251,2.762,2.762,0,0,1,.491-.18Z" transform="translate(-44.887 -29.292)" fill="#aed3f2"/>
        <path id="Trazado_110030" data-name="Trazado 110030" d="M105.077,252.81a7.322,7.322,0,0,0-6.141-8.369h-.052a.575.575,0,0,0-.721.774,8.839,8.839,0,0,0,6.914,7.815" transform="translate(-47.746 -29.284)" fill="#aed3f2"/>
        <path id="Trazado_110031" data-name="Trazado 110031" d="M94.99,266.034c1.862,3.808,4.519,6.382,7.815,6.507.68,0,1.161-.408,1.789-.451a4.3,4.3,0,0,1,1.046.4,1.655,1.655,0,0,0,.554.125c3.4-.18,6.277-2.573,8.264-6.58,2.72-5.617,1.872-11.643-1.872-13.484a9.277,9.277,0,0,0-1.549-.6,6.275,6.275,0,0,0-1.862-.22,13.68,13.68,0,0,0-4.279.973.606.606,0,0,0-.18.063c-3.055-1.339-5.5-1.339-7.867-.22C93.107,254.387,92.271,260.382,94.99,266.034Z" transform="translate(-47.964 -27.351)" fill="#e0eaf2"/>
        <path id="Trazado_110032" data-name="Trazado 110032" d="M95.015,260.307a3.033,3.033,0,0,1-.314-1.129,6.089,6.089,0,0,1,1.9-5.147,2.981,2.981,0,0,1,.963-.68,11.441,11.441,0,0,0-.836.784,6.621,6.621,0,0,0-1.851,5A9.857,9.857,0,0,0,95.015,260.307Z" transform="translate(-47.905 -28.084)" fill="#fafafa"/>
        <path id="Trazado_110033" data-name="Trazado 110033" d="M95.664,262.561c-.063,0-.188-.251-.27-.6s-.084-.631,0-.67.2.251.282.6S95.738,262.545,95.664,262.561Z" transform="translate(-47.875 -27.311)" fill="#fafafa"/>
        <path id="Trazado_110034" data-name="Trazado 110034" d="M112.556,243.66c0,.052-.711.325-1.768.963a12.809,12.809,0,0,0-1.758,1.256,13.756,13.756,0,0,0-4.184,6.046c-.408,1.161-.534,1.924-.586,1.914a2.343,2.343,0,0,1,.063-.541,4.021,4.021,0,0,1,.115-.617c.073-.241.125-.523.23-.816a11.671,11.671,0,0,1,.847-2.008A13.074,13.074,0,0,1,107,247.6a12.929,12.929,0,0,1,3.724-3.138c.27-.157.534-.261.754-.366a3.144,3.144,0,0,1,.586-.251,2.582,2.582,0,0,1,.491-.188Z" transform="translate(-47.463 -29.292)" fill="#aed3f2"/>
        <path id="Trazado_110035" data-name="Trazado 110035" d="M141.954,252.809a7.323,7.323,0,0,0-6.129-8.369h0a.732.732,0,0,0-.534.063.754.754,0,0,0-.188.711A8.84,8.84,0,0,0,142,253.029" transform="translate(-46.043 -29.283)" fill="#aed3f2"/>
        <path id="Trazado_110036" data-name="Trazado 110036" d="M131.881,266.034c1.862,3.808,4.519,6.382,7.815,6.507.68,0,1.161-.408,1.789-.451a4.3,4.3,0,0,1,1.046.4,1.393,1.393,0,0,0,.554.125c3.4-.18,6.277-2.573,8.264-6.58,2.72-5.617,1.872-11.643-1.883-13.484a8.832,8.832,0,0,0-1.538-.6,6.277,6.277,0,0,0-1.872-.22,13.685,13.685,0,0,0-4.268.973l-.188.063c-3.055-1.339-5.492-1.339-7.856-.22C129.987,254.387,129.16,260.382,131.881,266.034Z" transform="translate(-46.263 -27.351)" fill="#e0eaf2"/>
        <path id="Trazado_110037" data-name="Trazado 110037" d="M131.9,260.307a3.034,3.034,0,0,1-.314-1.129,6.089,6.089,0,0,1,1.914-5.157,2.982,2.982,0,0,1,.963-.68,11.424,11.424,0,0,0-.836.784,6.57,6.57,0,0,0-1.851,5.01C131.812,259.826,131.938,260.307,131.9,260.307Z" transform="translate(-46.205 -28.085)" fill="#fafafa"/>
        <path id="Trazado_110038" data-name="Trazado 110038" d="M132.555,262.561c-.063,0-.188-.251-.27-.6s-.084-.631,0-.67.2.251.27.6S132.618,262.545,132.555,262.561Z" transform="translate(-46.175 -27.311)" fill="#fafafa"/>
        <path id="Trazado_110039" data-name="Trazado 110039" d="M149.418,243.66c0,.052-.7.324-1.758.963a12.9,12.9,0,0,0-1.768,1.256,14.174,14.174,0,0,0-3.358,4.07,15.166,15.166,0,0,0-.879,1.978c-.408,1.161-.534,1.924-.586,1.914a1.893,1.893,0,0,1,.063-.541,2.8,2.8,0,0,1,.125-.617,7.256,7.256,0,0,1,.23-.816,12.548,12.548,0,0,1,.836-2.008,13.315,13.315,0,0,1,3.4-4.184,12.927,12.927,0,0,1,1.82-1.235,8.02,8.02,0,0,1,.743-.366,3.139,3.139,0,0,1,.586-.251,2.58,2.58,0,0,1,.541-.157Z" transform="translate(-45.766 -29.292)" fill="#aed3f2"/>
        <path id="Trazado_110040" data-name="Trazado 110040" d="M200.184,252.81a7.322,7.322,0,0,0-6.119-8.369h-.032a.7.7,0,0,0-.523.063.743.743,0,0,0-.209.711,8.871,8.871,0,0,0,6.9,7.815" transform="translate(-43.36 -29.283)" fill="#aed3f2"/>
        <path id="Trazado_110041" data-name="Trazado 110041" d="M190.124,266.034c1.851,3.808,4.507,6.382,7.8,6.507.68,0,1.161-.408,1.8-.451a4.078,4.078,0,0,1,1.046.4,1.476,1.476,0,0,0,.554.125c3.4-.18,6.277-2.573,8.264-6.58,2.72-5.617,1.883-11.643-1.883-13.484a9.75,9.75,0,0,0-1.538-.6,6.276,6.276,0,0,0-1.862-.22,13.6,13.6,0,0,0-4.268.973l-.188.063c-3.055-1.339-5.492-1.339-7.867-.22C188.238,254.387,187.391,260.382,190.124,266.034Z" transform="translate(-43.58 -27.351)" fill="#aed3f2"/>
        <path id="Trazado_110042" data-name="Trazado 110042" d="M190.146,260.308a3.035,3.035,0,0,1-.314-1.129,5.942,5.942,0,0,1,.334-2.8,6.087,6.087,0,0,1,1.569-2.353,2.867,2.867,0,0,1,.973-.68,9.38,9.38,0,0,0-.836.784,6.621,6.621,0,0,0-1.862,5.01A7.759,7.759,0,0,0,190.146,260.308Z" transform="translate(-43.521 -28.085)" fill="#fafafa"/>
        <path id="Trazado_110043" data-name="Trazado 110043" d="M190.785,262.561c-.073,0-.2-.251-.27-.6s-.084-.631,0-.67.2.251.27.6S190.856,262.545,190.785,262.561Z" transform="translate(-43.49 -27.311)" fill="#fafafa"/>
        <path id="Trazado_110044" data-name="Trazado 110044" d="M207.678,243.66c0,.052-.67.324-1.758.963a12.285,12.285,0,0,0-1.768,1.256,15.7,15.7,0,0,0-1.862,1.872,15.493,15.493,0,0,0-1.475,2.2,13.882,13.882,0,0,0-.879,1.978c-.408,1.161-.534,1.924-.575,1.914a1.886,1.886,0,0,1,0-.541,4.03,4.03,0,0,1,.125-.617,7.418,7.418,0,0,1,.23-.827,11.776,11.776,0,0,1,.847-2.019,13.941,13.941,0,0,1,1.485-2.253,14.154,14.154,0,0,1,1.9-1.893,13.088,13.088,0,0,1,1.81-1.224,7.172,7.172,0,0,1,.754-.377,4.926,4.926,0,0,1,.586-.251,2.8,2.8,0,0,1,.575-.18Z" transform="translate(-43.081 -29.292)" fill="#aed3f2"/>
        <path id="Trazado_110045" data-name="Trazado 110045" d="M181.138,252.81A7.323,7.323,0,0,0,175,244.441h-.052a.575.575,0,0,0-.721.774,8.84,8.84,0,0,0,6.9,7.815" transform="translate(-44.24 -29.284)" fill="#aed3f2"/>
        <path id="Trazado_110046" data-name="Trazado 110046" d="M171.07,266.034c1.862,3.808,4.519,6.382,7.815,6.507.67,0,1.151-.408,1.789-.451a4.079,4.079,0,0,1,1.046.4,1.706,1.706,0,0,0,.554.125c3.4-.18,6.277-2.573,8.264-6.58,2.73-5.617,1.883-11.643-1.872-13.484a9.751,9.751,0,0,0-1.538-.6,6.276,6.276,0,0,0-1.872-.22,13.6,13.6,0,0,0-4.268.973.669.669,0,0,0-.188.063c-3.055-1.339-5.492-1.339-7.856-.22C169.178,254.387,168.34,260.382,171.07,266.034Z" transform="translate(-44.457 -27.351)" fill="#e0eaf2"/>
        <path id="Trazado_110047" data-name="Trazado 110047" d="M171.062,260.307a2.835,2.835,0,0,1-.3-1.129,6.057,6.057,0,0,1,1.9-5.157,2.866,2.866,0,0,1,.973-.68s-.345.282-.847.784a6.863,6.863,0,0,0-1.454,2.312,6.728,6.728,0,0,0-.4,2.689,7.421,7.421,0,0,1,.126,1.182Z" transform="translate(-44.399 -28.085)" fill="#fafafa"/>
        <path id="Trazado_110048" data-name="Trazado 110048" d="M171.725,262.561c-.063,0-.188-.251-.261-.6s-.09-.631,0-.67.188.251.261.6S171.8,262.545,171.725,262.561Z" transform="translate(-44.369 -27.311)" fill="#fafafa"/>
        <path id="Trazado_110049" data-name="Trazado 110049" d="M188.617,243.66c0,.052-.7.324-1.768.963a12.8,12.8,0,0,0-1.758,1.256,14.175,14.175,0,0,0-3.358,4.07,15.168,15.168,0,0,0-.879,1.978c-.408,1.161-.523,1.924-.575,1.914a1.883,1.883,0,0,1,.052-.541,5.86,5.86,0,0,1,.125-.617,7.259,7.259,0,0,1,.23-.816,11.675,11.675,0,0,1,.847-2.008,13,13,0,0,1,5.209-5.392,8.014,8.014,0,0,1,.743-.366,3.282,3.282,0,0,1,.6-.251,2.489,2.489,0,0,1,.534-.188Z" transform="translate(-43.959 -29.292)" fill="#aed3f2"/>
        <rect id="Rectángulo_8856" data-name="Rectángulo 8856" width="158.943" height="7.752" transform="translate(16.46 244.762)" fill="#aed3f2"/>
        <rect id="Rectángulo_8857" data-name="Rectángulo 8857" width="102.956" height="162.699" transform="translate(288.789 16.109)" fill="#aed3f2"/>
        <rect id="Rectángulo_8858" data-name="Rectángulo 8858" width="97.057" height="156.966" transform="translate(291.561 19.174)" fill="#e0eaf2"/>
        <rect id="Rectángulo_8859" data-name="Rectángulo 8859" width="38.695" height="60.057" transform="translate(340.089 28.317)" fill="#6595bf"/>
        <path id="Trazado_110050" data-name="Trazado 110050" d="M395.667,101.884a1.442,1.442,0,1,1-1.442-1.442,1.442,1.442,0,0,1,1.442,1.442Z" transform="translate(-34.165 -68.263)" fill="#aed3f2"/>
        <rect id="Rectángulo_8860" data-name="Rectángulo 8860" width="38.695" height="60.057" transform="translate(301.091 132.385)" fill="#6595bf"/>
        <path id="Trazado_110051" data-name="Trazado 110051" d="M358.4,175.264a1.442,1.442,0,1,1-1.442-1.442A1.442,1.442,0,0,1,358.4,175.264Z" transform="translate(-35.882 -39.867)" fill="#aed3f2"/>
        <rect id="Rectángulo_8861" data-name="Rectángulo 8861" width="33.046" height="59.475" transform="translate(300.568 28.317)" fill="#6595bf"/>
        <path id="Trazado_110052" data-name="Trazado 110052" d="M354.337,100.868a1.2,1.2,0,1,1-1.2-1.2h0a1.192,1.192,0,0,1,1.2,1.2Z" transform="translate(-36.047 -68.298)" fill="#aed3f2"/>
        <rect id="Rectángulo_8862" data-name="Rectángulo 8862" width="35.567" height="19.709" transform="translate(344.727 135.424) rotate(-6.44)" fill="#6595bf"/>
        <path id="Trazado_110053" data-name="Trazado 110053" d="M398.108,176.459a1.235,1.235,0,1,1-.58-1.163A1.235,1.235,0,0,1,398.108,176.459Z" transform="translate(-34.032 -39.696)" fill="#aed3f2"/>
        <path id="Trazado_110054" data-name="Trazado 110054" d="M371.028,183.232c0,.157-6.046.293-13.6.293s-13.6-.136-13.6-.293,6.039-.282,13.6-.282S371.028,183.075,371.028,183.232Z" transform="translate(-36.421 -38.641)" fill="#6595bf"/>
        <path id="Trazado_110055" data-name="Trazado 110055" d="M371.028,187.323c0,.157-6.046.293-13.6.293s-13.6-.136-13.6-.293,6.039-.293,13.6-.293S371.028,187.176,371.028,187.323Z" transform="translate(-36.421 -38.053)" fill="#aed3f2"/>
        <path id="Trazado_110056" data-name="Trazado 110056" d="M371.028,191.453c0,.146-6.046.282-13.6.282s-13.6-.136-13.6-.282,6.039-.293,13.6-.293S371.028,191.286,371.028,191.453Z" transform="translate(-36.421 -37.458)" fill="#aed3f2"/>
        <path id="Trazado_110057" data-name="Trazado 110057" d="M371.028,195.552c0,.157-6.046.293-13.6.293s-13.6-.136-13.6-.293,6.039-.282,13.6-.282S371.028,195.4,371.028,195.552Z" transform="translate(-36.421 -36.866)" fill="#aed3f2"/>
        <path id="Trazado_110058" data-name="Trazado 110058" d="M371.028,199.663c0,.157-6.046.293-13.6.293s-13.6-.136-13.6-.293,6.039-.293,13.6-.293S371.028,199.506,371.028,199.663Z" transform="translate(-36.421 -36.276)" fill="#aed3f2"/>
        <path id="Trazado_110059" data-name="Trazado 110059" d="M371.028,203.768c0,.157-6.046.282-13.6.282s-13.6-.125-13.6-.282,6.039-.293,13.6-.293S371.028,203.6,371.028,203.768Z" transform="translate(-36.421 -35.684)" fill="#aed3f2"/>
        <path id="Trazado_110060" data-name="Trazado 110060" d="M371.028,207.863c0,.146-6.046.282-13.6.282s-13.6-.136-13.6-.282,6.039-.293,13.6-.293S371.028,207.716,371.028,207.863Z" transform="translate(-36.421 -35.095)" fill="#aed3f2"/>
        <path id="Trazado_110061" data-name="Trazado 110061" d="M411.306,178.821c0,.157-5.984,1.129-13.43,2.176s-13.421,1.778-13.484,1.611,5.984-1.129,13.43-2.176S411.285,178.664,411.306,178.821Z" transform="translate(-34.551 -39.107)" fill="#aed3f2"/>
        <path id="Trazado_110062" data-name="Trazado 110062" d="M411.816,181.391c0,.157-5.973,1.129-13.43,2.176s-13.38,1.778-13.473,1.6,5.973-1.129,13.421-2.176S411.795,181.234,411.816,181.391Z" transform="translate(-34.527 -38.735)" fill="#aed3f2"/>
        <path id="Trazado_110063" data-name="Trazado 110063" d="M412.3,183.761c0,.157-5.984,1.129-13.43,2.187s-13.463,1.768-13.484,1.611,5.973-1.14,13.43-2.187S412.265,183.6,412.3,183.761Z" transform="translate(-34.505 -38.39)" fill="#aed3f2"/>
        <path id="Trazado_110064" data-name="Trazado 110064" d="M410.161,108.768c0,.146-6.862.282-15.323.282s-15.336-.136-15.336-.282,6.862-.293,15.336-.293S410.161,108.6,410.161,108.768Z" transform="translate(-34.777 -54.425)" fill="#aed3f2"/>
        <path id="Trazado_110065" data-name="Trazado 110065" d="M410.161,111.2c0,.168-6.862.293-15.323.293s-15.336-.125-15.336-.293,6.862-.261,15.336-.261S410.161,111.055,410.161,111.2Z" transform="translate(-34.777 -54.312)" fill="#aed3f2"/>
        <path id="Trazado_110066" data-name="Trazado 110066" d="M410.161,113.653c0,.157-6.862.293-15.323.293s-15.336-.136-15.336-.293,6.862-.293,15.336-.293S410.161,113.506,410.161,113.653Z" transform="translate(-34.777 -54.2)" fill="#aed3f2"/>
        <path id="Trazado_110067" data-name="Trazado 110067" d="M410.161,116.082c0,.168-6.862.293-15.323.293s-15.336-.125-15.336-.293,6.862-.282,15.336-.282S410.161,115.936,410.161,116.082Z" transform="translate(-34.777 -48.312)" fill="#aed3f2"/>
        <path id="Trazado_110068" data-name="Trazado 110068" d="M410.161,118.532c0,.168-6.862.293-15.323.293s-15.336-.125-15.336-.293,6.862-.282,15.336-.282S410.161,118.375,410.161,118.532Z" transform="translate(-34.777 -47.958)" fill="#aed3f2"/>
        <path id="Trazado_110069" data-name="Trazado 110069" d="M410.161,121.012c0,.168-6.862.293-15.323.293s-15.336-.125-15.336-.293,6.862-.282,15.336-.282S410.161,120.814,410.161,121.012Z" transform="translate(-34.777 -47.601)" fill="#aed3f2"/>
        <path id="Trazado_110070" data-name="Trazado 110070" d="M410.161,123.423c0,.157-6.862.282-15.323.282s-15.336-.125-15.336-.282,6.862-.293,15.336-.293S410.161,123.255,410.161,123.423Z" transform="translate(-34.777 -47.255)" fill="#aed3f2"/>
        <path id="Trazado_110071" data-name="Trazado 110071" d="M410.161,130.662c0,.168-6.862.293-15.323.293s-15.336-.125-15.336-.293,6.862-.282,15.336-.282S410.161,130.505,410.161,130.662Z" transform="translate(-34.777 -46.211)" fill="#aed3f2"/>
        <path id="Trazado_110072" data-name="Trazado 110072" d="M410.352,133.242c0,.168-6.873.293-15.335.293s-15.335-.125-15.335-.293,6.873-.282,15.335-.282S410.352,133.086,410.352,133.242Z" transform="translate(-34.769 -45.84)" fill="#aed3f2"/>
        <path id="Trazado_110073" data-name="Trazado 110073" d="M410.571,135.822c0,.168-6.85.293-15.323.293s-15.336-.125-15.336-.293,6.862-.282,15.336-.282S410.571,135.665,410.571,135.822Z" transform="translate(-34.758 -45.468)" fill="#aed3f2"/>
        <path id="Trazado_110074" data-name="Trazado 110074" d="M410.783,138.4c0,.168-6.862.293-15.323.293s-15.367-.146-15.367-.293,6.862-.282,15.335-.282S410.783,138.245,410.783,138.4Z" transform="translate(-34.75 -45.097)" fill="#aed3f2"/>
        <path id="Trazado_110075" data-name="Trazado 110075" d="M410.972,141.012c0,.157-6.873.293-15.335.293s-15.335-.136-15.335-.293,6.862-.282,15.335-.282S410.972,140.824,410.972,141.012Z" transform="translate(-34.74 -44.721)" fill="#aed3f2"/>
        <path id="Trazado_110076" data-name="Trazado 110076" d="M411.2,143.562c0,.157-6.873.293-15.336.293s-15.335-.136-15.335-.293,6.862-.282,15.335-.282S411.2,143.405,411.2,143.562Z" transform="translate(-34.729 -44.353)" fill="#aed3f2"/>
        <circle id="Elipse_4279" data-name="Elipse 4279" cx="29.301" cy="29.301" r="29.301" transform="matrix(0.159, -0.987, 0.987, 0.159, 197.996, 57.84)" fill="#5e6178"/>
        <path id="Trazado_110077" data-name="Trazado 110077" d="M246,102.5v2.636c0,.334.073.711.09,1.119s.084.847.125,1.352a11.264,11.264,0,0,0,.251,1.465,25.88,25.88,0,0,0,2.48,7.27,26.748,26.748,0,0,0,6.277,7.961l1.046.931c.387.293.795.554,1.2.847a12.748,12.748,0,0,0,1.235.836l1.352.743.67.377.721.325,1.454.67c.491.2,1.046.334,1.538.513a13.12,13.12,0,0,0,1.579.471,23.71,23.71,0,0,0,3.316.607c.575.063,1.14.157,1.726.18h2.646l.89-.073c.607-.063,1.2-.09,1.8-.18a25.965,25.965,0,0,0,3.6-.806l.9-.261.461-.125.439-.188,1.768-.711c.575-.27,1.129-.586,1.705-.879.282-.157.586-.282.858-.461l.816-.534a30.332,30.332,0,0,0,3.138-2.353l1.442-1.392.366-.356.324-.387.67-.763.67-.774.6-.836.586-.847.3-.418c.09-.146.168-.293.251-.439l1.047-1.82q.408-.942.847-1.914a26.079,26.079,0,0,0,1.046-16.737l-.586-2.008c-.261-.67-.523-1.287-.774-1.924l-.2-.481-.147-.461-.471-.91-.471-.9L295.025,90l-.541-.847-.282-.429-.314-.4-1.256-1.569a29.22,29.22,0,0,0-2.835-2.741l-.743-.68c-.241-.209-.523-.377-.774-.565-.541-.366-1.047-.754-1.59-1.1l-1.663-.944-.408-.22a4.07,4.07,0,0,0-.439-.2l-.858-.387a28.508,28.508,0,0,0-3.463-1.262c-.586-.157-1.182-.27-1.768-.4l-.868-.2c-.293-.063-.6-.073-.879-.115l-1.747-.209H272.86a23.838,23.838,0,0,0-3.348.168,12.046,12.046,0,0,0-1.632.261c-.534.1-1.046.18-1.59.314l-1.538.471-.754.22-.711.293-1.422.554c-.471.188-.9.451-1.352.68s-.868.439-1.3.67l-1.2.774a26.467,26.467,0,0,0-7.229,7.082,25.265,25.265,0,0,0-3.411,6.873,13.342,13.342,0,0,0-.439,1.433c-.1.451-.2.879-.293,1.276s-.188.763-.241,1.046-.084.68-.115.931l-.157,1.262a1.036,1.036,0,0,1-.073.429,3.5,3.5,0,0,1,0-.439c0-.293.073-.711.125-1.262a8.717,8.717,0,0,1,.1-.931,6.467,6.467,0,0,1,.23-1.1c.084-.429.18-.836.27-1.3a11.121,11.121,0,0,1,.429-1.433,25.629,25.629,0,0,1,3.357-6.936,26.549,26.549,0,0,1,7.259-7.155l1.2-.795c.429-.241.868-.461,1.308-.67s.879-.491,1.339-.67l1.443-.586.721-.293.763-.22,1.538-.461c.523-.136,1.047-.209,1.6-.324a15.835,15.835,0,0,1,1.642-.261,28.539,28.539,0,0,1,3.411-.18h1.747l1.768.2a5.176,5.176,0,0,1,.89.115l.879.188c.586.146,1.192.251,1.789.418a29.63,29.63,0,0,1,3.494,1.262l.868.387.439.2.408.23,1.685.952c.541.334,1.046.732,1.6,1.046.261.188.541.366.784.575l.754.67a31.383,31.383,0,0,1,2.877,2.782l1.256,1.579.324.408.282.429.554.858.565.858.481.92.481.92.241.461.2.491.784,1.946.6,2.008a26.589,26.589,0,0,1-1.109,16.895l-.858,1.935-.983,1.8c-.084.157-.168.314-.261.461l-.3.429-.6.847-.6.847-.67.774-.67.784-.334.387-.366.356-1.465,1.4a28.155,28.155,0,0,1-3.2,2.375l-.836.541c-.27.18-.575.314-.858.471-.586.293-1.14.617-1.726.879l-1.789.721-.439.18-.461.136-.91.261a27.1,27.1,0,0,1-3.63.806c-.617.09-1.224.115-1.82.18l-.9.073H271.1a16.016,16.016,0,0,1-1.737-.188,23.137,23.137,0,0,1-3.358-.631,12.051,12.051,0,0,1-1.59-.471c-.523-.18-1.046-.324-1.548-.523l-1.465-.67-.721-.324-.68-.387-1.339-.763c-.439-.241-.836-.565-1.245-.836s-.816-.565-1.2-.858l-1.046-.942a26.708,26.708,0,0,1-6.277-8.055,25.106,25.106,0,0,1-2.434-7.323,14.446,14.446,0,0,1-.241-1.475c0-.471-.073-.91-.115-1.352s-.063-.784-.073-1.119,0-.67,0-.942V102.8A1.235,1.235,0,0,0,246,102.5Z" transform="translate(-40.93 -70.806)" fill="#aed3f2"/>
        <path id="Trazado_110078" data-name="Trazado 110078" d="M283.728,104.3a4.6,4.6,0,0,1-.931.063H271.3v-1.747c0-3.86,0-7.386.052-9.9V89.726a5.548,5.548,0,0,1,.073-1.046,6.447,6.447,0,0,1,.063,1.046c0,.763,0,1.778.052,2.992,0,2.542.052,6.046.052,9.9v1.737l-.168-.18c3.452,0,6.517,0,8.724.063h2.6a4.6,4.6,0,0,1,.983.063Z" transform="translate(-39.764 -70.29)" fill="#aed3f2"/>
        <path id="Trazado_110079" data-name="Trazado 110079" d="M271.568,81.52a7.322,7.322,0,0,1,.168,2.228A7.384,7.384,0,0,1,271.568,86a7.386,7.386,0,0,1-.18-2.253,7.322,7.322,0,0,1,.18-2.228Z" transform="translate(-39.76 -70.62)" fill="#aed3f2"/>
        <path id="Trazado_110080" data-name="Trazado 110080" d="M283.318,85a14.646,14.646,0,0,1-3.138,3.138,7.377,7.377,0,0,1,1.442-1.685A7.03,7.03,0,0,1,283.318,85Z" transform="translate(-39.355 -70.46)" fill="#aed3f2"/>
        <path id="Trazado_110081" data-name="Trazado 110081" d="M290.165,92.38a9.32,9.32,0,0,1-1.831,1.224,9.042,9.042,0,0,1-1.915,1.047,5.983,5.983,0,0,1,1.768-1.339,5.869,5.869,0,0,1,1.977-.931Z" transform="translate(-39.066 -70.12)" fill="#aed3f2"/>
        <path id="Trazado_110082" data-name="Trazado 110082" d="M294.269,103.4a27.112,27.112,0,0,1-6.109,0,28.4,28.4,0,0,1,6.109,0Z" transform="translate(-38.987 -69.619)" fill="#aed3f2"/>
        <path id="Trazado_110083" data-name="Trazado 110083" d="M253.694,103.008a24.144,24.144,0,0,1-5.764,0,24.144,24.144,0,0,1,5.764,0Z" transform="translate(-40.841 -69.638)" fill="#aed3f2"/>
        <path id="Trazado_110084" data-name="Trazado 110084" d="M256.512,111.2a12.46,12.46,0,0,1-2.176,2.019,13.287,13.287,0,0,1-2.4,1.705,12.018,12.018,0,0,1,2.176-2.008,13.336,13.336,0,0,1,2.4-1.713Z" transform="translate(-40.656 -69.252)" fill="#aed3f2"/>
        <path id="Trazado_110085" data-name="Trazado 110085" d="M263.513,117.54a19.2,19.2,0,0,1-1.442,2.573,20.218,20.218,0,0,1-1.58,2.51,9.741,9.741,0,0,1,1.287-2.678A9.624,9.624,0,0,1,263.513,117.54Z" transform="translate(-40.262 -68.96)" fill="#aed3f2"/>
        <path id="Trazado_110086" data-name="Trazado 110086" d="M271.569,125.969a13.6,13.6,0,0,1-.18-3.055,12.97,12.97,0,0,1,.18-3.055,13.6,13.6,0,0,1,.168,3.055,13.6,13.6,0,0,1-.168,3.055Z" transform="translate(-39.761 -68.853)" fill="#aed3f2"/>
        <path id="Trazado_110087" data-name="Trazado 110087" d="M284.353,122.026a8.924,8.924,0,0,1-2.524-1.726,8.8,8.8,0,0,1-2.092-2.26,27.837,27.837,0,0,1,2.364,2.051,27.074,27.074,0,0,1,2.252,1.935Z" transform="translate(-39.374 -68.937)" fill="#aed3f2"/>
        <path id="Trazado_110088" data-name="Trazado 110088" d="M290.227,115.637a11.286,11.286,0,0,1-2.019-1.778,10.889,10.889,0,0,1-1.778-2.019,11.226,11.226,0,0,1,2.008,1.778,10.944,10.944,0,0,1,1.789,2.019Z" transform="translate(-39.066 -69.222)" fill="#aed3f2"/>
        <path id="Trazado_110089" data-name="Trazado 110089" d="M256.141,95.3A17.084,17.084,0,0,1,252.86,92a15.692,15.692,0,0,1,3.285,3.3Z" transform="translate(-40.614 -70.137)" fill="#aed3f2"/>
        <path id="Trazado_110090" data-name="Trazado 110090" d="M263.474,87.615a8.011,8.011,0,0,1-1.747-1.538,7.877,7.877,0,0,1-1.517-1.758,8.075,8.075,0,0,1,1.758,1.506A7.8,7.8,0,0,1,263.474,87.615Z" transform="translate(-40.275 -70.491)" fill="#aed3f2"/>
        <path id="Trazado_110091" data-name="Trazado 110091" d="M249.14,104.339a26.51,26.51,0,0,1,24.947-26.466c-.52,0-1.054-.062-1.577-.062a26.526,26.526,0,1,0,0,53.053,13.034,13.034,0,0,0,1.569-.068,26.518,26.518,0,0,1-24.939-26.456Z" transform="translate(-40.931 -70.791)" fill="#fd9826"/>
      </g>
      <g id="freepik--character-1--inject-14" transform="translate(6.262 99.039)">
        <path id="Trazado_110092" data-name="Trazado 110092" d="M120.154,156.446a8.463,8.463,0,0,0-.617-14.729L109.4,139.75q.4,19.081.541,38.172a14.311,14.311,0,0,0,7.186-3.055c1.946-1.778,2.992-4.76,1.851-7.145A6.727,6.727,0,0,0,122,158.715,6.841,6.841,0,0,0,120.154,156.446Z" transform="translate(-53.488 -123.928)" fill="#344154"/>
        <path id="Trazado_110093" data-name="Trazado 110093" d="M73.23,155.228,73,150.721l26.957-6c8.369-1.14,17.627,6.957,18.422,15.335.868,9.3,1.58,20.691.67,27.679C117.26,201.792,106.6,203.9,106.6,203.9l.858,13.8c.345,8.055-6.391,10.073-14.467,10.461h0a14.645,14.645,0,0,1-15.233-13.5Z" transform="translate(-55.165 -123.704)" fill="#966960"/>
        <path id="Trazado_110094" data-name="Trazado 110094" d="M112.977,168.207a1.81,1.81,0,0,1-1.685,1.862,1.705,1.705,0,0,1-1.883-1.506h0a1.81,1.81,0,0,1,1.674-1.872,1.726,1.726,0,0,1,1.893,1.538Z" transform="translate(-53.487 -122.687)" fill="#344154"/>
        <path id="Trazado_110095" data-name="Trazado 110095" d="M114.065,165.21c-.209.241-1.6-.721-3.536-.67s-3.305,1.046-3.525.847.1-.534.711-1.046a4.885,4.885,0,0,1,2.814-.963,4.77,4.77,0,0,1,2.825.816C113.938,164.687,114.148,165.075,114.065,165.21Z" transform="translate(-53.602 -122.838)" fill="#344154"/>
        <path id="Trazado_110096" data-name="Trazado 110096" d="M95.8,169.331a1.789,1.789,0,0,1-1.663,1.82,1.713,1.713,0,0,1-1.9-1.506v-.05a1.789,1.789,0,0,1,1.674-1.862,1.726,1.726,0,0,1,1.893,1.538Z" transform="translate(-54.279 -122.639)" fill="#344154"/>
        <path id="Trazado_110097" data-name="Trazado 110097" d="M95.914,166.081c-.22.241-1.611-.721-3.536-.67s-3.316,1.046-3.525.847.1-.534.711-1.046a4.885,4.885,0,0,1,2.814-.963,4.76,4.76,0,0,1,2.825.806C95.81,165.6,96.019,166.018,95.914,166.081Z" transform="translate(-54.438 -122.799)" fill="#344154"/>
        <path id="Trazado_110098" data-name="Trazado 110098" d="M102.78,180.218a14.069,14.069,0,0,1,3.138-.67c.491-.063.963-.18,1.046-.513a2.434,2.434,0,0,0-.366-1.454l-1.579-3.714c-2.187-5.228-3.8-9.624-3.577-9.718s2.163,4.122,4.352,9.415l1.517,3.734a2.866,2.866,0,0,1,.314,1.924,1.245,1.245,0,0,1-.795.743,3.137,3.137,0,0,1-.827.146,10.545,10.545,0,0,1-3.223.106Z" transform="translate(-53.856 -122.803)" fill="#344154"/>
        <path id="Trazado_110099" data-name="Trazado 110099" d="M105.981,201.515A36.949,36.949,0,0,1,86.62,197.08s5.031,9.655,19.469,7.932Z" transform="translate(-54.538 -121.285)" fill="#77544d"/>
        <path id="Trazado_110100" data-name="Trazado 110100" d="M102.332,184.054a3.5,3.5,0,0,0-3.138-1.193,3.139,3.139,0,0,0-2.176,1.193,2.019,2.019,0,0,0-.084,2.312,2.364,2.364,0,0,0,2.553.554,7.511,7.511,0,0,0,2.427-1.549,2.093,2.093,0,0,0,.541-.575.67.67,0,0,0,0-.711" transform="translate(-54.077 -121.942)" fill="#77544d"/>
        <path id="Trazado_110101" data-name="Trazado 110101" d="M97.342,181c.314,0,.387,2.092,2.228,3.5s4.056,1.119,4.079,1.422c0,.125-.481.418-1.422.471a5.228,5.228,0,0,1-3.411-1.046,4.561,4.561,0,0,1-1.726-2.939C97,181.481,97.206,181,97.342,181Z" transform="translate(-54.056 -122.026)" fill="#344154"/>
        <path id="Trazado_110102" data-name="Trazado 110102" d="M96.239,160.88c-.168.523-2.092.334-4.362.67s-4.07,1.046-4.383.554c-.136-.22.168-.721.89-1.256a7.679,7.679,0,0,1,6.664-.941C95.879,160.224,96.32,160.618,96.239,160.88Z" transform="translate(-54.499 -123.016)" fill="#344154"/>
        <path id="Trazado_110103" data-name="Trazado 110103" d="M113.76,158.894c-.324.451-1.663,0-3.264.063s-2.939.387-3.275-.063c-.136-.22.063-.67.67-1.1a4.738,4.738,0,0,1,5.228,0C113.708,158.224,113.906,158.674,113.76,158.894Z" transform="translate(-53.59 -123.132)" fill="#344154"/>
        <path id="Trazado_110104" data-name="Trazado 110104" d="M76.987,207.766s-14.645,16.005-14.645,34.845,11.946,42.453,10.816,55.945-11.507,31.477-14.645,40.47S56,350.834,56,350.834h77.023l-1.548-51.562-.136-27.2.451-24.562L109.979,217.97v-6L77.97,203.54Z" transform="translate(-55.951 -120.988)" fill="#e6dcfb"/>
        <path id="Trazado_110105" data-name="Trazado 110105" d="M128.85,306.68s26.655,28.244,27.2,28.705,21.047,0,21.047,0l12.553,7.03s-.743,2.4-4.938,1.2a1.726,1.726,0,0,1-.638,2.524H176.9l-6.391-.073H149.437L129.4,332.2Z" transform="translate(-52.591 -116.233)" fill="#966960"/>
        <g id="Grupo_59948" data-name="Grupo 59948" transform="translate(13.215 108.464)" opacity="0.3">
          <path id="Trazado_110106" data-name="Trazado 110106" d="M68.6,228.31a43.727,43.727,0,0,0,8.141,26.581,35.745,35.745,0,0,0,23.5,14.331c3.138.429,6.36.4,9.415,1.245,2.741.763,5.228,2.217,7.908,3.138a21.257,21.257,0,0,0,9.707.952c1.276-.168,2.689-.607,3.138-1.789.68-1.768-1.276-3.358-2.939-4.258-20.409-11.086-41.708-24.447-58.822-40.2" transform="translate(-68.583 -228.31)" fill="#344154"/>
        </g>
        <path id="Trazado_110107" data-name="Trazado 110107" d="M99.75,258.132s48.654,21.487,55.443,21.487,44.982-34.678,44.982-34.678l-9.091-10.922L154.3,255.548l-42.136-23.1Z" transform="translate(-53.932 -119.655)" fill="#966960"/>
        <path id="Trazado_110108" data-name="Trazado 110108" d="M181.05,238.7l8.944-5.576s3.923-7.7,5.984-8.6,13.8-5.228,13.8-5.228l11.88-1.1s1.046,1.517-2.228,3.756c-2.458,1.663-7.239,2.553-7.239,2.553l-2.929,1.339s2.207,2.49,3.966,2.416c1.569-.052,7.072-3.275,8.8-2.584s-.513,5.178-.513,5.178h0a108.589,108.589,0,0,1-7.8,12.239c-1.046,1.213-8.243,1.213-8.243,1.213l-7.731.963-8.653,6.705Z" transform="translate(-50.185 -120.312)" fill="#966960"/>
        <path id="Trazado_110109" data-name="Trazado 110109" d="M83.45,209.92a17.354,17.354,0,0,0-12.323,8.364c-3.714,5.973-2.689,11.726-.22,19.405a25.681,25.681,0,0,0,6.58,9.729c6.58,6.35,20.7,15.116,20.7,15.116L120.157,237.6S95.962,213.309,83.45,209.92Z" transform="translate(-55.364 -120.693)" fill="#e6dcfb"/>
        <path id="Trazado_110110" data-name="Trazado 110110" d="M92.434,213.76l.136.1.4.324,1.5,1.256,5.691,4.812,20.116,17.188.115.09-.1.125L98.83,262.034l-.523.575-.09.115-.125-.073c-4.027-2.434-7.932-4.938-11.57-7.5a49.168,49.168,0,0,1-9.75-8.369,33.245,33.245,0,0,1-6.277-9.739,23.165,23.165,0,0,1-1.046-14.321,23.474,23.474,0,0,1,1.331-3.711,19.108,19.108,0,0,1,3.484-5.228,17.353,17.353,0,0,1,3.118-2.524l.89-.523.314-.157-.293.2-.879.541a18.409,18.409,0,0,0-2.974,2.584,19.1,19.1,0,0,0-3.4,5.228,22.24,22.24,0,0,0-1.276,3.682,23.381,23.381,0,0,0-.631,4.326,23.725,23.725,0,0,0,1.695,9.825,33.182,33.182,0,0,0,6.277,9.644,51.068,51.068,0,0,0,9.687,8.264c3.62,2.563,7.511,5.031,11.507,7.459h-.23l.523-.586,21.493-24.335v.22l-20.032-17.2-5.63-4.879-1.475-1.308-.377-.334Z" transform="translate(-55.361 -120.663)" fill="#344154"/>
        <path id="Trazado_110111" data-name="Trazado 110111" d="M109.083,211.705a3.057,3.057,0,0,1,0,.534,8.433,8.433,0,0,1-.282,1.5,20.242,20.242,0,0,1-2.019,5.228l-.073.125-.125-.084a58.505,58.505,0,0,0-11.224-5.753,116.406,116.406,0,0,0-13.6-4.3c-1.758-.47-3.2-.784-4.184-1.046l-1.151-.282a1.654,1.654,0,0,1-.387-.115,1.651,1.651,0,0,1,.4,0l1.161.209c1.046.2,2.458.471,4.184.91a101.984,101.984,0,0,1,13.6,4.19,54.608,54.608,0,0,1,11.277,5.764h-.2a21.308,21.308,0,0,0,2.092-5.084c.168-.631.27-1.129.345-1.475a3.064,3.064,0,0,1,.188-.314Z" transform="translate(-55.025 -120.805)" fill="#344154"/>
        <path id="Trazado_110112" data-name="Trazado 110112" d="M123.336,148.293a8.672,8.672,0,0,0,3.138-9.08,9.907,9.907,0,0,0-6.957-6.81,10.853,10.853,0,0,0-2.008-.314,9.184,9.184,0,0,0-4.383-1.109,4.708,4.708,0,0,0-3.7-3.557,11.162,11.162,0,0,0-5.377.377,9.122,9.122,0,0,0-14.645,1.1,7.481,7.481,0,0,0-10.157,2.939,7.563,7.563,0,0,0-.754,2,7.448,7.448,0,0,0-5.228,2.689,7.05,7.05,0,0,0-1.141,1.957,6.967,6.967,0,0,0-1.245,2.814,8.369,8.369,0,0,0-3.358,15.44,7.688,7.688,0,0,0,.23,10.869,8.056,8.056,0,0,0,1.789,1.276,9.8,9.8,0,0,0,1.046,7.668,4.728,4.728,0,0,0,2.532,2.207,1.81,1.81,0,0,0,.23.523c.879,1.287,2.919.68,4.1-.356,2.884-2.434,4.362-6.171,5.084-9.886s.816-7.511,1.506-11.224a.6.6,0,0,1,0-.261,10.461,10.461,0,0,1,1.812-4.288,25.848,25.848,0,0,0,3.431,2.092,11.131,11.131,0,0,0,12.867-2.974,16.3,16.3,0,0,0,10.461,3.463c3.766-.1,7.469-.92,10.283-3.431a5.137,5.137,0,0,0,1.569-2.4,1.6,1.6,0,0,0-1.129-1.726Z" transform="translate(-55.602 -124.625)" fill="#344154"/>
        <path id="Trazado_110113" data-name="Trazado 110113" d="M76.256,172.392c-.188-.09-7.595-2.646-7.71,5.031s7.6,6.214,7.626,5.994S76.256,172.392,76.256,172.392Z" transform="translate(-55.37 -122.446)" fill="#966960"/>
        <path id="Trazado_110114" data-name="Trazado 110114" d="M73.79,180.368a2.22,2.22,0,0,1-.356.188,1.381,1.381,0,0,1-1.046,0,3.275,3.275,0,0,1-1.485-2.982,4.289,4.289,0,0,1,.408-1.914,1.517,1.517,0,0,1,1.046-1.046.68.68,0,0,1,.763.418c.1.22,0,.377.09.387s.168-.125.1-.439a.827.827,0,0,0-.293-.491,1.047,1.047,0,0,0-.732-.209,1.893,1.893,0,0,0-1.422,1.172,4.572,4.572,0,0,0-.491,2.092c0,1.548.795,3.013,1.893,3.348a1.433,1.433,0,0,0,1.234-.18C73.78,180.525,73.823,180.379,73.79,180.368Z" transform="translate(-55.286 -122.336)" fill="#77544d"/>
        <path id="Trazado_110115" data-name="Trazado 110115" d="M125.035,137.38a.481.481,0,0,0,.063.18,3.214,3.214,0,0,1,.147.541,5.88,5.88,0,0,1-1.58,5.228,6.025,6.025,0,0,1-4.07,1.768l.146-.115a13.249,13.249,0,0,1-3.075,6.716,10.461,10.461,0,0,1-3.358,2.594,8.5,8.5,0,0,1-4.4.721,15.022,15.022,0,0,1-4.279-1.046,11.382,11.382,0,0,1-3.577-2.092h.23a13.954,13.954,0,0,1-6.371,3.682,10.984,10.984,0,0,1-5.785-.4,11.61,11.61,0,0,1-3.358-1.82c-.261-.209-.523-.439-.763-.67a1.871,1.871,0,0,1-.241-.261s.366.314,1.046.836a11.767,11.767,0,0,0,3.348,1.705,10.837,10.837,0,0,0,5.66.324,13.661,13.661,0,0,0,6.206-3.634l.115-.1.115.1a11.371,11.371,0,0,0,3.463,2.008,14.789,14.789,0,0,0,4.184.983,8.191,8.191,0,0,0,4.184-.67,9.77,9.77,0,0,0,3.222-2.51,12.877,12.877,0,0,0,3.055-6.538V144.8h.18a5.889,5.889,0,0,0,3.913-1.642,5.712,5.712,0,0,0,1.579-2.884,6.046,6.046,0,0,0,.073-2.092A7.14,7.14,0,0,0,125.035,137.38Z" transform="translate(-54.624 -124.037)" fill="#5e6178"/>
        <path id="Trazado_110116" data-name="Trazado 110116" d="M71.569,140.13a16.225,16.225,0,0,0-.67,2.636,10.984,10.984,0,0,0,1.276,6.82l.063.115-.09.073a7.082,7.082,0,0,0-2.019,3.138,6.789,6.789,0,0,0,0,4.079,7.04,7.04,0,0,0,3.3,4.027l.146.073-.073.157a8.787,8.787,0,0,0-.868,4.792,9.6,9.6,0,0,0,1.139,3.715,10.67,10.67,0,0,0,2.2,2.689.9.9,0,0,1-.209-.136c-.188-.136-.366-.282-.541-.429a8.653,8.653,0,0,1-1.622-2.019,9.52,9.52,0,0,1-1.245-3.786A9.185,9.185,0,0,1,73.2,161.1l.073.23A7.448,7.448,0,0,1,69.8,157.08a7.093,7.093,0,0,1,0-4.3,7.322,7.322,0,0,1,2.092-3.264v.2a10.859,10.859,0,0,1-1.194-7,9.285,9.285,0,0,1,.534-1.967,5.065,5.065,0,0,1,.22-.491C71.541,140.172,71.563,140.12,71.569,140.13Z" transform="translate(-55.328 -123.91)" fill="#5e6178"/>
        <path id="Trazado_110117" data-name="Trazado 110117" d="M71.955,182.7a6.193,6.193,0,0,0-.146,1.4,1.978,1.978,0,0,0,.554,1.3,1.726,1.726,0,0,0,1.579.451,1.412,1.412,0,0,0,.952-1.276,2.8,2.8,0,0,0-.261-1.422c-.377-.763-.711-1.213-.68-1.245a3.5,3.5,0,0,1,.889,1.151,2.814,2.814,0,0,1,.366,1.569,2.092,2.092,0,0,1-.314.931,1.61,1.61,0,0,1-.868.638,1.987,1.987,0,0,1-1.9-.554,2.239,2.239,0,0,1-.575-1.506,2.163,2.163,0,0,1,.408-1.433Z" transform="translate(-55.232 -121.985)" fill="#344154"/>
        <path id="Trazado_110118" data-name="Trazado 110118" d="M114.708,232.74a2.221,2.221,0,0,1-.23.261l-.67.711-2.584,2.524c-2.155,2.176-5.094,5.228-8.233,8.64s-5.869,6.67-7.842,9.059l-2.312,2.794-.67.754a1.65,1.65,0,0,1-.23.241,2.465,2.465,0,0,1,.18-.282l.586-.795c.513-.67,1.262-1.663,2.217-2.866,1.914-2.4,4.624-5.628,7.762-9.091s6.119-6.454,8.369-8.578c1.109-1.046,2.019-1.9,2.646-2.49l.732-.67a1.129,1.129,0,0,1,.277-.213Z" transform="translate(-54.294 -119.641)" fill="#344154"/>
      </g>
      <g id="freepik--character-2--inject-14" transform="translate(167.819 79.557)">
        <path id="Trazado_110119" data-name="Trazado 110119" d="M224.5,226.053l6.129-6.046,7.323-1.276,25.7,10.021s4.027,7.093.91,12.3-6.039,5.021-6.039,5.021l-5.471-3.463-19.469,2.163s-8.212-5.649-8.369-6.747-.18-7.647-.18-7.647l-.774-1.046a2.511,2.511,0,0,1,.23-3.285Z" transform="translate(-209.773 -100.804)" fill="#ffbe9d"/>
        <path id="Trazado_110120" data-name="Trazado 110120" d="M225.34,235.388a76.8,76.8,0,0,0,12.312,5.879,7.061,7.061,0,0,0,2.96.617,3.368,3.368,0,0,0,2.542-1.37,2.794,2.794,0,0,0,.252-2.825,5.105,5.105,0,0,0-2.2-1.9l-7.793-4.436" transform="translate(-209.701 -100.222)" fill="#ffbe9d"/>
        <path id="Trazado_110121" data-name="Trazado 110121" d="M225.3,235.465c2.217,1.318,4.507,2.524,6.841,3.62a39.2,39.2,0,0,0,6.936,2.741,3.672,3.672,0,0,0,4.436-1.831c.732-1.768-.471-3.2-1.967-4.09-2.678-1.58-5.408-3.086-8.118-4.624a.084.084,0,0,0-.073.147h0l7.522,4.279c1.172.67,2.573,1.412,2.678,2.929a3.044,3.044,0,0,1-2.73,3.138,8.671,8.671,0,0,1-4.184-.983c-1.318-.5-2.689-1.046-4-1.674a80.41,80.41,0,0,1-7.323-3.808c-.09-.063-.168.084-.073.146Z" transform="translate(-209.707 -100.226)" fill="#eb996e"/>
        <path id="Trazado_110122" data-name="Trazado 110122" d="M225.19,237.37c3.357,3.734,7.94,7.186,11.8,11.12a5.6,5.6,0,0,0,.931-6.591" transform="translate(-209.708 -99.945)" fill="#ffbe9d"/>
        <path id="Trazado_110123" data-name="Trazado 110123" d="M225.131,237.418c3.641,4.027,8.013,7.322,11.8,11.12a.09.09,0,0,0,.125,0,5.722,5.722,0,0,0,.942-6.716c-.052-.09-.188,0-.136.09a5.555,5.555,0,0,1,.09,5.053,3.526,3.526,0,0,1-.774,1.172c-.241.168-.209.125-.461-.073a5.35,5.35,0,0,1-.491-.5c-.754-.732-1.527-1.454-2.3-2.163-2.939-2.678-6.015-5.228-8.683-8.128-.073-.073-.188,0-.115.125Z" transform="translate(-209.712 -99.951)" fill="#eb996e"/>
        <path id="Trazado_110124" data-name="Trazado 110124" d="M237.776,223.721c-4.5-2.614-11.664-3.682-19.614-5.011l-7.772,14.2s14.018,2.092,19.98,4.7c8.526,3.7,13.139,14.854,13.139,14.854l11.245-13.945S251.826,230.52,237.776,223.721Z" transform="translate(-210.39 -100.805)" fill="#5e6178"/>
        <path id="Trazado_110125" data-name="Trazado 110125" d="M235.762,227.224l-1.412,2.646c.9.6,1.831,1.245,1.475,2.4-.418,1.381-1.831,1.8-3.5,1.352l-.607,1.119-.513-.157.607-1.129a3.839,3.839,0,0,1-2.008-1.642l.554-.491a3.441,3.441,0,0,0,1.81,1.517l1.4-2.614c-.868-.586-1.726-1.235-1.352-2.4.408-1.352,1.8-1.8,3.411-1.381l.607-1.119.513.157-.617,1.129a4.007,4.007,0,0,1,1.778,1.234l-.513.523a3.348,3.348,0,0,0-1.632-1.14Zm-1.768,3.264-1.339,2.48c1.172.293,2.092,0,2.364-.847.22-.689-.334-1.161-1.025-1.632Zm-.084-.931,1.329-2.48c-1.129-.252-2.008.073-2.28.9S233.284,229.1,233.911,229.557Z" transform="translate(-209.495 -100.501)" fill="#ffbf9d"/>
        <path id="Trazado_110126" data-name="Trazado 110126" d="M237.072,224.692l.345.157,1.046.492c.451.22.991.491,1.611.847s1.352.743,2.144,1.256a41.367,41.367,0,0,1,5.429,3.986,29.564,29.564,0,0,1,5.8,6.653l.052.084-.063.073-9.414,11.877-.168.209-.115-.251a32.692,32.692,0,0,0-4.027-6.76,23.5,23.5,0,0,0-6.141-5.628,21.38,21.38,0,0,0-5.228-2.176c-1.778-.541-3.568-1.046-5.3-1.465-3.5-.879-6.884-1.653-10.074-2.333h-.22l.115-.188,6.559-11.329.052-.084h.084A112.268,112.268,0,0,1,232.6,222.8a23.312,23.312,0,0,1,3.389,1.3,9.619,9.619,0,0,1,1.109.617,1.5,1.5,0,0,1-.293-.136c-.188-.09-.471-.251-.858-.408a24.423,24.423,0,0,0-3.4-1.235,117.626,117.626,0,0,0-13.034-2.573l.136-.063-6.517,11.35-.1-.241c3.211.68,6.591,1.442,10.064,2.323,1.758.439,3.546.91,5.335,1.465a20.85,20.85,0,0,1,5.228,2.207,23.558,23.558,0,0,1,6.277,5.722,32.7,32.7,0,0,1,4.079,6.831h-.282l9.415-11.827v.146a29.615,29.615,0,0,0-5.691-6.611,41.764,41.764,0,0,0-5.367-4.027c-.774-.523-1.5-.92-2.092-1.287a16.47,16.47,0,0,0-1.6-.879l-.991-.523a1.811,1.811,0,0,1-.325-.251Z" transform="translate(-210.282 -100.741)" fill="#ffbf9d"/>
        <path id="Trazado_110127" data-name="Trazado 110127" d="M243.193,222.23c-.146.115-14.938,4.76-14.938,4.76l-4.874,2.092s2.092,3.3,5.3,2.626a12.312,12.312,0,0,0,4.184-1.339l5.228.241s2.163,9.153,18.506,4.77" transform="translate(-209.791 -100.642)" fill="#ffbe9d"/>
        <path id="Trazado_110128" data-name="Trazado 110128" d="M256.526,235.372a2.4,2.4,0,0,1-.387.125l-1.14.282a27.717,27.717,0,0,1-4.32.774,20.283,20.283,0,0,1-3.139.084h-.858l-.89-.125-.9-.136-.92-.251a12.552,12.552,0,0,1-1.851-.67,10.321,10.321,0,0,1-1.758-1.14,7.417,7.417,0,0,1-2.553-3.62l.157.125-5.228-.23h.1a10.3,10.3,0,0,1-2.563.983,16.953,16.953,0,0,1-2.019.439,4.184,4.184,0,0,1-2.092-.252,6.57,6.57,0,0,1-3.034-2.5l-.1-.168.188-.073,4.874-2.092h0l10.838-3.348,3.055-.942.816-.241a.805.805,0,0,1,.282-.073,1.245,1.245,0,0,1-.27.115l-.795.293-3.034,1.046-10.67,3.431h0L223.44,229.3l.084-.241a6.276,6.276,0,0,0,2.866,2.353,4.07,4.07,0,0,0,1.9.241,16.3,16.3,0,0,0,1.977-.439,10.242,10.242,0,0,0,2.458-.92h.063l5.228.251h.115v.125a7.009,7.009,0,0,0,.972,1.935,8.367,8.367,0,0,0,1.454,1.517,9.873,9.873,0,0,0,1.758,1.046,11.083,11.083,0,0,0,1.81.68l.879.261.879.146.868.136h.847a22.9,22.9,0,0,0,3.055,0,33.468,33.468,0,0,0,4.32-.68l1.14-.241a2.671,2.671,0,0,1,.408-.1Z" transform="translate(-209.807 -100.637)" fill="#eb996e"/>
        <path id="Trazado_110129" data-name="Trazado 110129" d="M222.127,222.366c0,.586-.68,1.046-1.442,1.046s-1.442-.471-1.442-1.046.68-1.046,1.442-1.046S222.127,221.77,222.127,222.366Z" transform="translate(-209.983 -100.685)" fill="#ffbf9d"/>
        <path id="Trazado_110130" data-name="Trazado 110130" d="M242,245.171c0,.774.451,1.392,1.046,1.392s1.046-.617,1.046-1.392-.461-1.381-1.046-1.381S242,244.417,242,245.171Z" transform="translate(-208.933 -99.649)" fill="#ffbf9d"/>
        <path id="Trazado_110131" data-name="Trazado 110131" d="M415.66,308.85l-2.207.575-90.591,2.542L319.9,345.913l97.611.147,1.851-2.4Z" transform="translate(-205.343 -96.65)" fill="#344154"/>
        <path id="Trazado_110132" data-name="Trazado 110132" d="M348.981,186.622l11.193-5.138,5.228-6.653,34.521-4.6,4.844,6.277,27,17.543s-8.369,96.732-9.415,105.258-6.81,15.9-6.81,15.9-58.644,15.619-79.318,7.679c0,0-14.029-8.735-12.605-22.962s9-53.5,9-53.5Z" transform="translate(-205.175 -103.039)" fill="#fed6a8"/>
        <path id="Trazado_110133" data-name="Trazado 110133" d="M260.6,227.589l47.493,13.233s-.282-5.228,4.184-6.277c0,0,27.91-39.532,30.975-42.89s8.9-5.8,8.9-5.8L332.121,265.08s-17.387,9.238-24.479,7.835-25.514-7.815-36.414-15.346l-16.738-10.46Z" transform="translate(-208.357 -102.319)" fill="#fed6a8"/>
        <path id="Trazado_110134" data-name="Trazado 110134" d="M312.477,255.871a3.4,3.4,0,0,1-.18-.732c-.1-.541-.241-1.2-.387-2.008a51.126,51.126,0,0,0-1.747-6.454q-.631-1.726-1.412-3.389a27.715,27.715,0,0,0-1.454-2.614c-.92-1.442-1.611-2.239-1.569-2.291a2.854,2.854,0,0,1,.523.541,7.08,7.08,0,0,1,.565.67,8.517,8.517,0,0,1,.67.942,21.016,21.016,0,0,1,1.538,2.6,30.777,30.777,0,0,1,1.454,3.425,39.932,39.932,0,0,1,1.653,6.517c.146.847.241,1.538.293,2.019a2.733,2.733,0,0,1,.054.771Z" transform="translate(-205.996 -99.899)" fill="#344154"/>
        <path id="Trazado_110135" data-name="Trazado 110135" d="M429.45,192.234s-20.5-2.092-28.433,15.692-8.505,67.567-8.505,67.567c-.942-1.841-17.784,12.124-21.152,15.388l-34.521,9.561,6.046,22.146s42.453-4.341,53.55-9.854c12.553-6.277,21.644-8.181,25.263-15.085s12.553-48.4,13.5-61.832S439.9,195.621,429.45,192.234Z" transform="translate(-204.561 -102.029)" fill="#fed6a8"/>
        <path id="Trazado_110136" data-name="Trazado 110136" d="M376.008,185.006a.983.983,0,0,1-.146.27c-.1.168-.261.418-.471.732-.429.68-1.046,1.549-1.883,2.689-1.611,2.228-4.027,5.228-6.444,8.735l-.168.241-.136-.261c-.22-.429-.451-.89-.67-1.352-2.092-4.184-4.027-7.9-5.377-10.618-.67-1.339-1.182-2.427-1.59-3.232l-.418-.9a1.4,1.4,0,0,1-.125-.314,1.6,1.6,0,0,1,.188.293c.1.188.293.5.481.858l1.685,3.138c1.422,2.689,3.358,6.434,5.471,10.576l.67,1.339h-.293c2.448-3.546,4.874-6.507,6.548-8.724l1.956-2.584a8.87,8.87,0,0,1,.721-.89Z" transform="translate(-203.56 -102.543)" fill="#344154"/>
        <path id="Trazado_110137" data-name="Trazado 110137" d="M400.923,177.49a4.191,4.191,0,0,1-.3.3l-.91.806c-.774.711-1.924,1.726-3.284,3.034a117.84,117.84,0,0,0-9.98,10.785c-1.569,1.924-3.013,3.818-4.279,5.576l-.168.23-.115-.261-4.027-9.091-1.14-2.626c-.125-.282-.22-.523-.293-.7a1.187,1.187,0,0,1-.084-.251,1.208,1.208,0,0,1,.136.23l.334.67c.3.67.711,1.517,1.224,2.584l4.184,9.059h-.293c1.262-1.768,2.689-3.672,4.279-5.6A104.6,104.6,0,0,1,396.34,181.5c1.381-1.287,2.553-2.27,3.348-2.95l.963-.763a1.215,1.215,0,0,1,.27-.293Z" transform="translate(-202.741 -102.705)" fill="#344154"/>
        <path id="Trazado_110138" data-name="Trazado 110138" d="M422.521,294.725s-.052.136-.168.4l-.523,1.14a26.241,26.241,0,0,1-2.573,4.184,26.952,26.952,0,0,1-5.544,5.471,37.157,37.157,0,0,1-9.216,4.906,72.406,72.406,0,0,1-12.385,3.245c-2.28.439-4.656.795-7.082,1.318s-4.938,1.047-7.542,1.517c-10.461,1.747-22.083,3.285-34.584,4.874h-.136v-.147c-1.935-7.113-3.966-14.531-6.046-22.156v-.18h.18c2.187-.418,4.529-.92,6.873-1.475,4.874-1.161,9.634-2.5,14.311-3.777s9.342-2.312,13.484-4.383a27.269,27.269,0,0,0,5.607-3.829c1.705-1.475,3.275-3.044,4.854-4.551a45.768,45.768,0,0,1,4.927-4.184,18.047,18.047,0,0,1,5.607-2.741l-.115.136c2.6-18.4,4.777-33.8,6.277-44.606.774-5.377,1.381-9.644,1.81-12.553.209-1.433.366-2.542.481-3.305.063-.366.09-.67.136-.847a.506.506,0,0,0,0-.282,1.281,1.281,0,0,1,0,.282c0,.2-.063.481-.1.858-.1.763-.251,1.872-.439,3.316-.4,2.908-.983,7.166-1.713,12.553-1.5,10.816-3.63,26.229-6.182,44.617v.1h-.1a17.656,17.656,0,0,0-5.492,2.689,43.933,43.933,0,0,0-4.885,4.184c-1.58,1.506-3.138,3.086-4.867,4.561a27.7,27.7,0,0,1-5.678,3.881c-4.184,2.092-8.881,3.138-13.536,4.417s-9.415,2.626-14.331,3.777c-2.344.565-4.7,1.046-6.884,1.485l.136-.22c2.092,7.615,4.09,15.033,6.046,22.156l-.188-.125c12.49-1.569,24.165-3.138,34.574-4.812,10.283-2.291,19.709-3.138,26.979-6a36.717,36.717,0,0,0,9.185-4.833A27.01,27.01,0,0,0,421.8,296.3c.23-.491.418-.868.541-1.129a4.041,4.041,0,0,1,.188-.451Z" transform="translate(-204.568 -101.073)" fill="#344154"/>
        <g id="Grupo_59949" data-name="Grupo 59949" transform="translate(187.853 172.547)" opacity="0.3">
          <path id="Trazado_110139" data-name="Trazado 110139" d="M413.251,279.685a5.317,5.317,0,0,0-1.047-2.448c-2.5-3.515-6.768-5.44-11.036-6s-6.684-.241-10.942.461l-.261.2c7.2-.554,12.439,2.26,17.177,7.772a10.454,10.454,0,0,0,2.2,2.207,2.782,2.782,0,0,0,2.96.2,2.524,2.524,0,0,0,.952-2.385Z" transform="translate(-389.965 -270.944)" fill="#344154"/>
        </g>
        <path id="Trazado_110140" data-name="Trazado 110140" d="M410.223,276.913a22.456,22.456,0,0,0-2.27-2.3,15.773,15.773,0,0,0-7.009-3.2,23.922,23.922,0,0,0-7.772-.09c-.991.125-1.8.251-2.353.334a4.014,4.014,0,0,1-.868.09,3.951,3.951,0,0,1,.836-.22c.554-.136,1.352-.293,2.343-.461a22.638,22.638,0,0,1,7.877,0,15.063,15.063,0,0,1,7.1,3.358,11.21,11.21,0,0,1,1.632,1.747,4.285,4.285,0,0,1,.48.743Z" transform="translate(-202.114 -98.407)" fill="#344154"/>
        <path id="Trazado_110141" data-name="Trazado 110141" d="M422.91,193.035a28.542,28.542,0,0,0-4.519-.67,16.918,16.918,0,0,0-2.3.063,9.586,9.586,0,0,0-1.262.2,8.51,8.51,0,0,0-1.339.293,16.946,16.946,0,0,0-5.45,2.532,21.723,21.723,0,0,0-4.393,4.184c-.3.345-.534.743-.806,1.046a7.957,7.957,0,0,0-.721,1.046c-.408.711-.836,1.339-1.151,2.008l-.836,1.713c-.251.513-.4.973-.554,1.339s-.251.617-.345.847-.136.293-.146.282a.774.774,0,0,1,.084-.3c.073-.241.168-.523.282-.868s.282-.836.5-1.352l.795-1.747c.3-.67.721-1.308,1.119-2.019.2-.366.481-.67.721-1.046a9.489,9.489,0,0,1,.806-1.119,21.287,21.287,0,0,1,4.446-4.184,16.926,16.926,0,0,1,5.565-2.553,8.37,8.37,0,0,1,1.352-.293c.439-.063.868-.136,1.287-.18a17.368,17.368,0,0,1,2.333,0l1.046.073a4.056,4.056,0,0,1,.89.157,8.442,8.442,0,0,1,1.422.314l.879.261Z" transform="translate(-201.693 -102.025)" fill="#344154"/>
        <path id="Trazado_110142" data-name="Trazado 110142" d="M335.914,212.06v.743c0,.5-.09,1.2-.168,2.092-.136,1.831-.377,4.477-.67,7.741-.67,6.538-1.695,15.545-3.138,25.462s-3.065,18.83-4.326,25.284c-.638,3.222-1.161,5.826-1.558,7.615-.2.879-.345,1.569-.461,2.092a2.091,2.091,0,0,1-.125.541.881.881,0,0,1-.052.18.569.569,0,0,1,0-.188,3.711,3.711,0,0,1,.09-.541c.09-.491.23-1.193.387-2.092.345-1.831.847-4.435,1.454-7.647,1.2-6.444,2.751-15.378,4.184-25.284s2.542-18.9,3.253-25.431c.345-3.245.631-5.879.827-7.731.09-.89.168-1.6.22-2.092a3.135,3.135,0,0,1,.073-.541.388.388,0,0,1,.011-.2Z" transform="translate(-205.089 -101.112)" fill="#344154"/>
        <g id="Grupo_59950" data-name="Grupo 59950" transform="translate(116.165 136.264)" opacity="0.3">
          <path id="Trazado_110143" data-name="Trazado 110143" d="M329.045,262.768c2.26-8.369,3.138-17.658,4.289-26.508-1.422,10.021-6.277,21.665-11.9,30.117C324.222,265.154,326.816,263.95,329.045,262.768Z" transform="translate(-321.436 -236.26)" fill="#344154"/>
        </g>
        <g id="Grupo_59951" data-name="Grupo 59951" transform="translate(173.829 75.769)" opacity="0.3">
          <path id="Trazado_110144" data-name="Trazado 110144" d="M376.56,185.952a127.71,127.71,0,0,0,4.038,15.116,3.138,3.138,0,0,0,.865,1.464,1.987,1.987,0,0,0,1.872.2,4.447,4.447,0,0,0,1.58-1.119c2.448-2.427,3.766-5.712,5.3-8.8a92.759,92.759,0,0,1,9.554-14.384c-7.211,6.039-12.553,12.93-17.784,19.625Z" transform="translate(-376.56 -178.43)" fill="#344154"/>
        </g>
        <g id="Grupo_59952" data-name="Grupo 59952" transform="translate(155.7 79.639)" opacity="0.3">
          <path id="Trazado_110145" data-name="Trazado 110145" d="M359.23,182.13a133.087,133.087,0,0,0,6.622,19.739c.136.3.324.68.638.68a1.046,1.046,0,0,0,.754-.5,65.8,65.8,0,0,0,8.181-16.33l-8.536,11.507Z" transform="translate(-359.23 -182.13)" fill="#344154"/>
        </g>
        <path id="Trazado_110146" data-name="Trazado 110146" d="M381.863,252.77a1.484,1.484,0,0,1-.366.18l-1.047.439c-.92.387-2.27.91-3.954,1.527-3.358,1.256-8.055,2.866-13.286,4.417s-10.074,2.72-13.6,3.484c-1.758.387-3.138.67-4.184.858l-1.14.209a2.59,2.59,0,0,1-.4.052,1.2,1.2,0,0,1,.387-.125l1.119-.261,4.122-.973c3.484-.827,8.274-2.092,13.526-3.588s9.938-3.138,13.3-4.32l4.027-1.422,1.046-.377a1.975,1.975,0,0,1,.451-.09Z" transform="translate(-204.237 -99.235)" fill="#344154"/>
        <path id="Trazado_110147" data-name="Trazado 110147" d="M373.232,212.726a1.041,1.041,0,0,1-.157.115l-.461.293c-.418.251-1.046.67-1.789,1.161-1.538,1.046-3.661,2.636-6.423,4.477a31.787,31.787,0,0,1-4.738,2.636,18.539,18.539,0,0,1-6.046,1.5,12.146,12.146,0,0,1-6.705-1.352,8.421,8.421,0,0,1-2.762-2.427,5.88,5.88,0,0,1-1.14-3.6,3.912,3.912,0,0,1,.565-1.862,3.827,3.827,0,0,1,1.392-1.352,5.283,5.283,0,0,1,3.63-.541,4.581,4.581,0,0,1,2.939,1.978,5.753,5.753,0,0,1,.92,3.275,6.85,6.85,0,0,1-.763,3.138,7.2,7.2,0,0,1-2.019,2.312,9.885,9.885,0,0,1-5.074,1.883,13.07,13.07,0,0,1-4.456-.4,20.923,20.923,0,0,1-3.191-1.1,19.755,19.755,0,0,1-1.935-.92l-.481-.261c-.1-.063-.168-.09-.157-.1l.18.073.5.23c.439.2,1.046.5,1.946.858a21.3,21.3,0,0,0,3.138,1.046,13.212,13.212,0,0,0,4.394.345,9.667,9.667,0,0,0,4.917-1.872,6.767,6.767,0,0,0,1.872-2.239,6.7,6.7,0,0,0,.732-3,5.429,5.429,0,0,0-.889-3.138,4.184,4.184,0,0,0-2.73-1.81,4.874,4.874,0,0,0-3.357.5,3.483,3.483,0,0,0-1.262,1.2,3.724,3.724,0,0,0-.513,1.705,5.439,5.439,0,0,0,1.046,3.348,7.876,7.876,0,0,0,2.636,2.344,11.872,11.872,0,0,0,6.528,1.339,18.054,18.054,0,0,0,5.949-1.442,31,31,0,0,0,4.7-2.573c2.773-1.8,4.927-3.389,6.49-4.383.784-.491,1.4-.868,1.82-1.109l.491-.261a.366.366,0,0,1,.264-.013Z" transform="translate(-204.676 -101.129)" fill="#ffbf9d"/>
        <path id="Trazado_110148" data-name="Trazado 110148" d="M396.871,229.968s-.052,0-.147-.084l-.408-.282a13.88,13.88,0,0,0-8.369-2.28A13.107,13.107,0,0,0,379,231.8a10.607,10.607,0,0,0-2.636,5.324,5.769,5.769,0,0,0,.377,3.086,4.372,4.372,0,0,0,2.092,2.3,4.111,4.111,0,0,0,3.139,0,5.115,5.115,0,0,0,2.458-1.862,3.84,3.84,0,0,0,.67-1.339,4.465,4.465,0,0,0,.188-1.485,6.057,6.057,0,0,0-.721-2.794,7.321,7.321,0,0,0-1.747-2.163,7.782,7.782,0,0,0-2.291-1.263,10.365,10.365,0,0,0-4.7-.492,17.983,17.983,0,0,0-6.507,2.291c-.721.4-1.276.732-1.642.952l-.429.251-.147.084a.533.533,0,0,1,.125-.1l.408-.282c.366-.251.9-.6,1.611-1.046a25.807,25.807,0,0,1,2.689-1.352,14.991,14.991,0,0,1,3.86-1.046,10.618,10.618,0,0,1,4.822.461,8,8,0,0,1,2.385,1.339,7.323,7.323,0,0,1,1.831,2.239,6.464,6.464,0,0,1,.785,2.95,5.367,5.367,0,0,1-.2,1.579,4.183,4.183,0,0,1-.67,1.465,5.461,5.461,0,0,1-2.626,2.019,4.5,4.5,0,0,1-3.357-.084,4.718,4.718,0,0,1-2.291-2.49,6.129,6.129,0,0,1-.408-3.264,10.9,10.9,0,0,1,2.73-5.492,13.128,13.128,0,0,1,15.974-3.034,9.476,9.476,0,0,1,2.092,1.422Z" transform="translate(-203.166 -100.42)" fill="#ffbf9d"/>
        <path id="Trazado_110149" data-name="Trazado 110149" d="M433.886,214.77l-.157.063-.461.146a15.044,15.044,0,0,1-1.81.387,17.615,17.615,0,0,1-6.779-.324,17.022,17.022,0,0,1-4.372-1.758,10.464,10.464,0,0,1-2.092-1.558,6.277,6.277,0,0,1-1.579-2.333,4.487,4.487,0,0,1,0-2.96,3.348,3.348,0,0,1,2.092-2.217,3.452,3.452,0,0,1,3.138.711,4.4,4.4,0,0,1,1.632,2.855,6.276,6.276,0,0,1-.461,3.253,10.8,10.8,0,0,1-1.579,2.762,16.037,16.037,0,0,1-9.478,5.994,15.4,15.4,0,0,1-4.7.23,16.026,16.026,0,0,1-6.455-2.092,12.126,12.126,0,0,1-2.019-1.465l.147.084.387.27a15.942,15.942,0,0,0,7.961,2.961,15.242,15.242,0,0,0,4.624-.261,15.806,15.806,0,0,0,9.258-5.921,10.652,10.652,0,0,0,1.538-2.678,6.276,6.276,0,0,0,.439-3.138,4.07,4.07,0,0,0-1.517-2.626,3.065,3.065,0,0,0-2.782-.67,3.023,3.023,0,0,0-1.914,2.019,4.111,4.111,0,0,0,0,2.741,7.752,7.752,0,0,0,3.546,3.766,17.291,17.291,0,0,0,4.3,1.758,17.928,17.928,0,0,0,6.716.429c.8-.1,1.4-.23,1.81-.325l.461-.1Z" transform="translate(-201.705 -101.478)" fill="#ffbf9d"/>
        <path id="Trazado_110150" data-name="Trazado 110150" d="M332.879,231.263a13.924,13.924,0,0,0-.952-1.276,7.782,7.782,0,0,0-3.557-2.343,7.6,7.6,0,0,0-6.129.795,4.917,4.917,0,0,0-2.353,2.751,2,2,0,0,0,.345,1.758,2.751,2.751,0,0,0,1.705.89,2.96,2.96,0,0,0,1.9-.345,3.735,3.735,0,0,0,1.339-1.339,7.072,7.072,0,0,0,.868-3.6,11.853,11.853,0,0,0-1.713-6.1,12.554,12.554,0,0,0-2.825-3.253c-.816-.631-1.352-.9-1.308-.931a1.559,1.559,0,0,1,.377.18c.345.209.68.429,1.046.67a12.092,12.092,0,0,1,4.792,9.415,7.385,7.385,0,0,1-.89,3.766,4.184,4.184,0,0,1-1.465,1.5,3.275,3.275,0,0,1-2.092.387,3.012,3.012,0,0,1-1.924-1.046,2.312,2.312,0,0,1-.408-2.092,5.227,5.227,0,0,1,2.51-2.939,7.783,7.783,0,0,1,6.371-.754,7.667,7.667,0,0,1,3.6,2.49,7.062,7.062,0,0,1,.67.983,1.36,1.36,0,0,1,.09.437Z" transform="translate(-205.36 -100.825)" fill="#ffbf9d"/>
        <path id="Trazado_110151" data-name="Trazado 110151" d="M368.505,182.25a16.737,16.737,0,0,0-3.786,1.256,16.133,16.133,0,0,0-3.138,2.406,7.04,7.04,0,0,1,3-2.689A7.155,7.155,0,0,1,368.505,182.25Z" transform="translate(-203.421 -102.486)" fill="#ffbf9d"/>
        <path id="Trazado_110152" data-name="Trazado 110152" d="M389.382,187.648a3.682,3.682,0,0,1-1.442-.481,7.992,7.992,0,0,1-4.184-5.774,3.756,3.756,0,0,1,0-1.527c.063,0,.063.575.261,1.475a8.743,8.743,0,0,0,4.08,5.639A13.108,13.108,0,0,0,389.382,187.648Z" transform="translate(-202.403 -102.595)" fill="#ffbf9d"/>
        <path id="Trazado_110153" data-name="Trazado 110153" d="M349.006,277.985a4.84,4.84,0,0,1-.9.314,7.81,7.81,0,0,1-1.047.293c-.429.09-.91.23-1.454.3a24.808,24.808,0,0,1-3.839.334,25.178,25.178,0,0,1-9.248-1.685,24.624,24.624,0,0,1-3.473-1.663,14.506,14.506,0,0,1-1.245-.795,9.244,9.244,0,0,1-.91-.67,4.584,4.584,0,0,1-.732-.617c0-.052,1.109.795,3,1.841a28.115,28.115,0,0,0,3.473,1.59,28.584,28.584,0,0,0,4.5,1.234,29.831,29.831,0,0,0,4.634.429,27.025,27.025,0,0,0,3.8-.261C347.668,278.351,349.006,277.946,349.006,277.985Z" transform="translate(-205.053 -98.266)" fill="#ffbf9d"/>
        <path id="Trazado_110154" data-name="Trazado 110154" d="M390.686,263.986l-.168-.052-.47-.188-.754-.314c-.3-.115-.67-.22-1.046-.356a21.633,21.633,0,0,0-6.988-1.047,22.377,22.377,0,0,0-10.064,2.594,19.6,19.6,0,0,0-4.927,3.7,8,8,0,0,0-1.747,2.689,4.446,4.446,0,0,0,0,3.2,3.044,3.044,0,0,0,2.323,2.019,3.316,3.316,0,0,0,2.8-1.129,3.859,3.859,0,0,0,1.1-2.773,5.355,5.355,0,0,0-.9-2.794,8.87,8.87,0,0,0-4.279-3.389,11.423,11.423,0,0,0-4.77-.743,11.748,11.748,0,0,0-6.528,2.417,16.916,16.916,0,0,0-1.862,1.81.4.4,0,0,1,.09-.136l.3-.408a5.1,5.1,0,0,1,.541-.617,8.012,8.012,0,0,1,.826-.754,11.842,11.842,0,0,1,11.507-1.841,9.08,9.08,0,0,1,4.456,3.494,5.807,5.807,0,0,1,.952,2.95,4.184,4.184,0,0,1-1.182,3.012,3.672,3.672,0,0,1-3.138,1.245,3.359,3.359,0,0,1-2.6-2.217,4.655,4.655,0,0,1,0-3.441,8.369,8.369,0,0,1,1.81-2.814A20.314,20.314,0,0,1,371,264.342a22.344,22.344,0,0,1,10.243-2.552,21.174,21.174,0,0,1,7.04,1.14l1.046.387.754.345.451.22Z" transform="translate(-203.844 -98.82)" fill="#ffbf9d"/>
        <path id="Trazado_110155" data-name="Trazado 110155" d="M422.582,256.42a1.875,1.875,0,0,1-.261.18l-.806.461c-.356.2-.795.429-1.308.67a18.461,18.461,0,0,1-1.768.806c-.721.261-1.392.575-2.2.847s-1.663.534-2.584.806a38.706,38.706,0,0,1-12.239,1.37c-.952-.063-1.851-.09-2.689-.209s-1.622-.22-2.333-.345-1.339-.27-1.9-.387a11.51,11.51,0,0,1-1.412-.377l-.89-.261a1.049,1.049,0,0,1-.3-.115,1.106,1.106,0,0,1,.324,0l.9.209c.387.09.868.209,1.422.314s1.193.252,1.9.334,1.485.22,2.323.293,1.726.136,2.689.18a46.174,46.174,0,0,0,6.129-.22,47.363,47.363,0,0,0,6.046-1.14c.9-.252,1.778-.481,2.563-.774s1.538-.534,2.2-.8,1.256-.523,1.778-.754.963-.439,1.352-.617l.827-.4Z" transform="translate(-202.024 -99.067)" fill="#ffbf9d"/>
        <path id="Trazado_110156" data-name="Trazado 110156" d="M289.6,264.736a1.461,1.461,0,0,1,.09-.3l.345-.837c.157-.345.334-.784.523-1.308s.429-1.1.67-1.758c.481-1.3.952-2.9,1.422-4.655a56.3,56.3,0,0,0,1.161-5.859,45.13,45.13,0,0,0,.429-5.942,32.6,32.6,0,0,0-.356-4.844c-.052-.345-.084-.67-.146-.983s-.125-.586-.188-.858a12.077,12.077,0,0,0-.334-1.381l-.241-.858a.754.754,0,0,1-.063-.3,3.087,3.087,0,0,1,.136.282l.293.847a8.908,8.908,0,0,1,.4,1.339c.073.282.147.565.22.868s.115.638.18.983a30.627,30.627,0,0,1,.429,4.885,45.9,45.9,0,0,1-.4,5.994,53.709,53.709,0,0,1-1.2,5.88c-.491,1.778-.991,3.357-1.5,4.676-.241.67-.491,1.234-.711,1.737s-.408.952-.586,1.3l-.387.806A1.748,1.748,0,0,1,289.6,264.736Z" transform="translate(-206.739 -100.061)" fill="#ffbf9d"/>
        <path id="Trazado_110157" data-name="Trazado 110157" d="M376.913,185a.637.637,0,0,1,0,.2,2.254,2.254,0,0,1-.063.6l-.282,2.28c-.241,2.019-.67,4.854-1.172,8.369-1.046,7.072-2.678,16.821-4.875,27.523s-4.417,20.325-6.078,27.282c-.837,3.452-1.527,6.277-2.019,8.222l-.565,2.239-.157.575a.632.632,0,0,1-.063.2.669.669,0,0,1,0-.209,5.129,5.129,0,0,1,.115-.586l.513-2.253c.451-1.967,1.1-4.777,1.9-8.254,1.6-6.967,3.786-16.6,5.973-27.293s3.86-20.42,4.979-27.523c.554-3.525.983-6.391,1.276-8.369l.345-2.28a3.43,3.43,0,0,1,.09-.586.777.777,0,0,1,.078-.133Z" transform="translate(-203.419 -102.358)" fill="#344154"/>
        <path id="Trazado_110158" data-name="Trazado 110158" d="M360.683,259.47a2.53,2.53,0,0,1-.27.27l-.806.754a16.89,16.89,0,0,0-1.255,1.192l-.743.784a9.622,9.622,0,0,0-.806.91,26.7,26.7,0,0,0-1.685,2.207c-.282.418-.575.827-.868,1.276l-.816,1.422a33.574,33.574,0,0,0-2.782,6.747,43.063,43.063,0,0,0-1.34,7.186c-.073,1.119-.188,2.187-.2,3.138v2.794c0,.858.052,1.632.09,2.3s.073,1.256.125,1.726l.09,1.109a2.261,2.261,0,0,1,0,.377,1.047,1.047,0,0,1-.073-.377c-.052-.282-.09-.67-.168-1.046a15.817,15.817,0,0,1-.18-1.737c-.041-.69-.136-1.442-.147-2.3a11.822,11.822,0,0,0-.052-1.339,13.666,13.666,0,0,1,0-1.465c0-1.046.09-2.092.168-3.2a41.654,41.654,0,0,1,1.339-7.26,32.711,32.711,0,0,1,2.814-6.8l.847-1.433c.293-.439.6-.868.89-1.287a25.018,25.018,0,0,1,1.737-2.2,11.212,11.212,0,0,1,.827-.9l.774-.763a12.552,12.552,0,0,1,1.308-1.172l.847-.67a1.214,1.214,0,0,1,.324-.251Z" transform="translate(-204.01 -98.926)" fill="#344154"/>
        <path id="Trazado_110159" data-name="Trazado 110159" d="M397.742,131.849C398.16,117.821,388.453,106,374.413,106l-1.3.073a25.106,25.106,0,0,0-23.694,24.458c-.293,12.176-.461,25.619,0,32.115.931,13.421,14.5,14.771,14.5,14.771l.084,2.092,13.15,8.505,21.57-14.645Z" transform="translate(-203.995 -106)" fill="#ffbe9d"/>
        <path id="Trazado_110160" data-name="Trazado 110160" d="M352.59,138.281a1.9,1.9,0,0,0,1.956,1.831,1.831,1.831,0,0,0,1.883-1.778v-.063a1.935,1.935,0,0,0-1.967-1.831,1.82,1.82,0,0,0-1.872,1.789Z" transform="translate(-203.836 -104.597)" fill="#344154"/>
        <path id="Trazado_110161" data-name="Trazado 110161" d="M352.3,135.03c.251.241,1.653-.92,3.714-1.046s3.641.836,3.86.565c.09-.1-.168-.554-.858-.991a5.228,5.228,0,0,0-3.139-.763,5.042,5.042,0,0,0-2.939,1.129C352.364,134.455,352.176,134.914,352.3,135.03Z" transform="translate(-203.851 -104.766)" fill="#344154"/>
        <path id="Trazado_110162" data-name="Trazado 110162" d="M371.85,137.591a1.935,1.935,0,0,0,1.956,1.841,1.841,1.841,0,0,0,1.883-1.789v-.063a1.935,1.935,0,0,0-1.967-1.831,1.831,1.831,0,0,0-1.872,1.789Z" transform="translate(-202.948 -104.629)" fill="#344154"/>
        <path id="Trazado_110163" data-name="Trazado 110163" d="M372,133.337c.23.27,1.747-.743,3.808-.631s3.536,1.234,3.766.983-.09-.565-.732-1.046a5.228,5.228,0,0,0-3-1.046,5.042,5.042,0,0,0-3.044.806C372.1,132.814,371.855,133.221,372,133.337Z" transform="translate(-202.943 -104.82)" fill="#344154"/>
        <path id="Trazado_110164" data-name="Trazado 110164" d="M365.865,150.691a13.6,13.6,0,0,0-3.389-.418c-.523,0-1.046-.1-1.14-.461a2.574,2.574,0,0,1,.261-1.579c.439-1.308.889-2.678,1.339-4.111,1.851-5.848,3.138-10.636,2.919-10.712s-1.935,4.613-3.766,10.461L360.813,148a3.138,3.138,0,0,0-.157,2.092,1.328,1.328,0,0,0,.91.721,3.36,3.36,0,0,0,.91.084,14.466,14.466,0,0,0,3.389-.209Z" transform="translate(-203.47 -104.736)" fill="#344154"/>
        <path id="Trazado_110165" data-name="Trazado 110165" d="M371.8,151c-.334,0-.22,2.239-2.019,3.943s-4.184,1.579-4.184,1.9c0,.136.554.408,1.569.366a5.554,5.554,0,0,0,3.536-1.454,4.874,4.874,0,0,0,1.565-3.305C372.232,151.481,371.95,151,371.8,151Z" transform="translate(-203.236 -103.926)" fill="#344154"/>
        <path id="Trazado_110166" data-name="Trazado 110166" d="M371.841,126.805c.188.565,2.26.356,4.7.711s4.362,1.046,4.708.586c.146-.241-.188-.774-.963-1.339a8.233,8.233,0,0,0-7.145-1.046C372.217,126.1,371.746,126.533,371.841,126.805Z" transform="translate(-202.949 -105.109)" fill="#aed3f2"/>
        <path id="Trazado_110167" data-name="Trazado 110167" d="M352.932,129.934c.4.451,1.8-.115,3.5-.23s3.138.125,3.484-.377c.136-.251-.115-.67-.774-1.119a4.99,4.99,0,0,0-2.9-.607,4.792,4.792,0,0,0-2.73,1.109C352.932,129.22,352.766,129.714,352.932,129.934Z" transform="translate(-203.823 -105.006)" fill="#aed3f2"/>
        <path id="Trazado_110168" data-name="Trazado 110168" d="M387.361,111.092c.67-.366,3.515,2.584,4.07,3.075,3.232,2.866,4.572,8.254,4.99,12.553a46.027,46.027,0,0,1-.09,12.344c-.084.523-.387,2.751-.387,2.751-.565.513-1.151,5.318-1.914,5.367-1.047.09-2.092-7.249-2.333-7.8a31.654,31.654,0,0,0-.9-4.948,44.979,44.979,0,0,1-1.538-7.961c-.188-3.745-1.611-9.289-1.8-13.024C387.413,112.734,386.754,111.437,387.361,111.092Z" transform="translate(-202.245 -105.766)" fill="#aed3f2"/>
        <path id="Trazado_110169" data-name="Trazado 110169" d="M387.69,115.83l7.815,5.628a32.443,32.443,0,0,1,.827,4.363l-7.762-4.7Z" transform="translate(-202.218 -105.547)" fill="#fafafa"/>
        <path id="Trazado_110170" data-name="Trazado 110170" d="M393.64,140.306c.22-.1,9.091-3.253,9.31,5.962s-9.069,7.542-9.091,7.323S393.64,140.306,393.64,140.306Z" transform="translate(-201.944 -104.446)" fill="#ffbe9d"/>
        <path id="Trazado_110171" data-name="Trazado 110171" d="M396.45,149.852a4.351,4.351,0,0,0,.439.23,1.6,1.6,0,0,0,1.2,0c.963-.387,1.747-1.956,1.747-3.605a5.419,5.419,0,0,0-.5-2.291,1.862,1.862,0,0,0-1.262-1.161.816.816,0,0,0-.941.461c-.115.27-.052.451-.09.471s-.209-.157-.147-.541a1.047,1.047,0,0,1,.356-.575,1.2,1.2,0,0,1,.879-.261,2.239,2.239,0,0,1,1.705,1.392,5.419,5.419,0,0,1,.631,2.553c0,1.862-.931,3.62-2.253,4.027a1.712,1.712,0,0,1-1.475-.209C396.471,150.071,396.419,149.873,396.45,149.852Z" transform="translate(-201.815 -104.315)" fill="#eb996e"/>
        <path id="Trazado_110172" data-name="Trazado 110172" d="M363.1,174.532a32.346,32.346,0,0,0,17.784-6.182s-3.7,9.844-14.75,10.1c-.188,0-2.814-1.82-2.814-1.82Z" transform="translate(-203.351 -103.126)" fill="#eb996e"/>
        <path id="Trazado_110173" data-name="Trazado 110173" d="M360.033,140.511a4.665,4.665,0,0,1-3.358,1.308c-2.092.115-3.588-.754-3.494-.89a28.486,28.486,0,0,0,3.452.251C358.526,141.024,359.938,140.343,360.033,140.511Z" transform="translate(-203.809 -104.41)" fill="#eb996e"/>
        <path id="Trazado_110174" data-name="Trazado 110174" d="M360.191,133.831c-.073.052-.345-.241-.879-.554a5.228,5.228,0,0,0-2.239-.67,13.7,13.7,0,0,0-2.448.1c-.67.063-1.047.073-1.047,0s.345-.251.983-.439a7.824,7.824,0,0,1,2.594-.27,4.352,4.352,0,0,1,2.469.952C360.107,133.361,360.3,133.79,360.191,133.831Z" transform="translate(-203.79 -104.802)" fill="#eb996e"/>
        <path id="Trazado_110175" data-name="Trazado 110175" d="M384.946,133c.115.115-.67,1.046-2.019,1.412a3.4,3.4,0,0,1-2.427,0,22.193,22.193,0,0,1,2.239-.565A20.041,20.041,0,0,1,384.946,133Z" transform="translate(-202.549 -104.757)" fill="#eb996e"/>
        <path id="Trazado_110176" data-name="Trazado 110176" d="M385.555,135.733c.09.146-.806.763-2.092.67s-2.092-.827-1.956-.952.92.251,2.008.314S385.486,135.567,385.555,135.733Z" transform="translate(-202.503 -104.643)" fill="#eb996e"/>
        <path id="Trazado_110177" data-name="Trazado 110177" d="M379.909,132.542c-.1.168-1.569-1.129-3.786-1.224s-3.8,1.046-3.891.836.27-.439.963-.816a5.7,5.7,0,0,1,5.859.3C379.689,132.061,379.972,132.49,379.909,132.542Z" transform="translate(-202.931 -104.863)" fill="#eb996e"/>
        <path id="Trazado_110178" data-name="Trazado 110178" d="M378.167,139.311c.125.125-.816,1.046-2.375,1.433a3.463,3.463,0,0,1-2.773-.23c.052-.157,1.234-.052,2.626-.387S378.062,139.175,378.167,139.311Z" transform="translate(-202.894 -104.466)" fill="#eb996e"/>
        <path id="Trazado_110179" data-name="Trazado 110179" d="M373.307,151.131c-.157.1-.638-.366-1.392-.491s-1.339.084-1.475-.063.565-.774,1.6-.565S373.474,151.047,373.307,151.131Z" transform="translate(-203.014 -103.973)" fill="#eb996e"/>
        <path id="Trazado_110180" data-name="Trazado 110180" d="M374.829,150.555c-.168.084-.534-.334-1.109-.67s-1.119-.439-1.129-.617.67-.366,1.442.063S374.986,150.492,374.829,150.555Z" transform="translate(-202.914 -104.014)" fill="#eb996e"/>
        <path id="Trazado_110181" data-name="Trazado 110181" d="M387.421,163.16a.617.617,0,0,1,.251.481,3.859,3.859,0,0,1-.314,1.381,1.046,1.046,0,0,0,.418,1.36h.1a3.443,3.443,0,0,1,1.046.784,1.685,1.685,0,0,1,.188,1.527,13.2,13.2,0,0,1-1.352,2.155,1.82,1.82,0,0,0,.146,1.713c.575.931,1.172,1.412,1.1,1.485s-.721-.261-1.485-1.245a2.217,2.217,0,0,1-.293-2.187c.334-.806,1.047-1.352,1.245-2.092a1.047,1.047,0,0,0-.084-.963,3.38,3.38,0,0,0-.868-.67,1.642,1.642,0,0,1-.806-.983,1.832,1.832,0,0,1,.168-1.046,5.734,5.734,0,0,0,.491-1.235C387.464,163.359,387.38,163.181,387.421,163.16Z" transform="translate(-202.264 -103.366)" fill="#eb996e"/>
        <path id="Trazado_110182" data-name="Trazado 110182" d="M392.976,172.255a3.234,3.234,0,0,1-1.046-1.262,2.824,2.824,0,0,1-.345-1.862c.125-.795.9-1.352.795-1.841s-.774-.858-1.352-1.308a1.914,1.914,0,0,1-.67-1.8,1.873,1.873,0,0,1,.6-1.129c.241-.188.408-.22.429-.188a2.613,2.613,0,0,0-.575,1.339,1.506,1.506,0,0,0,.6,1.308c.23.18.534.334.858.565A1.8,1.8,0,0,1,393,167.12a1.737,1.737,0,0,1-.418,1.245,2.186,2.186,0,0,0-.429.816,2.626,2.626,0,0,0,.168,1.549,8.719,8.719,0,0,1,.659,1.527Z" transform="translate(-202.096 -103.379)" fill="#eb996e"/>
        <path id="Trazado_110183" data-name="Trazado 110183" d="M374.308,119.78a2.939,2.939,0,0,1-2.092.763c-1.412.09-3.275-.3-5.157.136a27.563,27.563,0,0,0-2.689,1.046,5.228,5.228,0,0,1-2.427.377,2.771,2.771,0,0,1-1.538-.617c-.293-.282-.377-.491-.345-.513a3.662,3.662,0,0,0,1.924.68,5.44,5.44,0,0,0,2.176-.481,20.562,20.562,0,0,1,2.678-1.046,8.923,8.923,0,0,1,2.982-.125c.879.073,1.663.168,2.323.168a12.55,12.55,0,0,0,2.163-.387Z" transform="translate(-203.491 -105.365)" fill="#eb996e"/>
        <path id="Trazado_110184" data-name="Trazado 110184" d="M371.222,117.95c0,.18-2.344.293-5.228.429s-5.228.241-5.228.063,2.312-.565,5.228-.67S371.222,117.772,371.222,117.95Z" transform="translate(-203.46 -105.459)" fill="#eb996e"/>
        <path id="Trazado_110185" data-name="Trazado 110185" d="M369.107,115.879c-.052.18-.931.052-2.008,0s-2.019-.115-2.019-.293.9-.439,2.092-.345S369.181,115.722,369.107,115.879Z" transform="translate(-203.26 -105.575)" fill="#eb996e"/>
        <path id="Trazado_110186" data-name="Trazado 110186" d="M352.2,136.569c.09.157-.607.565-1.465.261s-1.151-1.046-.983-1.14.565.314,1.192.534S352.105,136.4,352.2,136.569Z" transform="translate(-203.969 -104.632)" fill="#eb996e"/>
        <path id="Trazado_110187" data-name="Trazado 110187" d="M351.381,137.533c.063.168-.261.461-.541.858s-.461.806-.67.795-.293-.6.115-1.161S351.329,137.377,351.381,137.533Z" transform="translate(-203.956 -104.55)" fill="#eb996e"/>
        <path id="Trazado_110188" data-name="Trazado 110188" d="M307.222,296.488,290.778,292.3a2.741,2.741,0,0,0-3.348,1.946h0l-4.665,18.181a2.741,2.741,0,0,0,1.935,3.348h0l34.647,8.881a2.741,2.741,0,0,0,3.348-1.946h0l4.7-18.17a2.73,2.73,0,0,0-1.946-3.348h0Z" transform="translate(-207.058 -97.417)" fill="#344154"/>
        <path id="Trazado_110189" data-name="Trazado 110189" d="M308.861,320.6c-.09,0,1.192-4.749,2.866-10.546s3.138-10.461,3.222-10.461-1.2,4.76-2.884,10.546S308.944,320.627,308.861,320.6Z" transform="translate(-205.851 -97.077)" fill="#5e6178"/>
        <path id="Trazado_110190" data-name="Trazado 110190" d="M339.261,298.657s-5.126.461-6.559.084-10.513-3.484-12.312-3.766a8.374,8.374,0,0,0-1.352-.115,9.1,9.1,0,0,0-4.027.868l-3.881,1.81,8.369,2.144s0,.754-1.422,2.092-17.6,7.94-18.683,8.515-2.217,1.339-1.412,2.542a6.433,6.433,0,0,0,3.839,2.019,13.926,13.926,0,0,0,3.065-.67s-4.708,2.542-4.792,3.494.541,2.6,1.475,2.469c.774-.1,4.822-.942,4.822-.942s10.461-2.207,10.838-1.872-4.867,3.515-5.617,3.714-4.027.147-4.8.523a1.695,1.695,0,0,0-.052,3.012,17.552,17.552,0,0,0,4.456,1.862,1.924,1.924,0,0,0-.461,2.207,2.433,2.433,0,0,0,2.019,1.475,7.322,7.322,0,0,0,4.184-.991c.92-.607,16.455-6.454,17.459-7.121s4.236-4.268,5.6-5.318a39.615,39.615,0,0,1,3.672-2.344Z" transform="translate(-206.365 -97.295)" fill="#ffbe9d"/>
        <path id="Trazado_110191" data-name="Trazado 110191" d="M301.53,315.537a3.838,3.838,0,0,1,.68-.554,6.817,6.817,0,0,1,.858-.575l.541-.334.67-.324a46.889,46.889,0,0,1,7.386-2.772,74.527,74.527,0,0,0,7.459-2.542l.67-.282.575-.293a8.615,8.615,0,0,0,.9-.471,4.628,4.628,0,0,1,.774-.418,4.9,4.9,0,0,1-.711.513,7.6,7.6,0,0,1-.89.523l-.565.314-.67.3a59.432,59.432,0,0,1-7.448,2.636,54.675,54.675,0,0,0-7.386,2.689l-.67.3-.565.314a9.249,9.249,0,0,0-.879.523A4.737,4.737,0,0,1,301.53,315.537Z" transform="translate(-206.189 -96.737)" fill="#eb996e"/>
        <path id="Trazado_110192" data-name="Trazado 110192" d="M319.32,314.574a8.735,8.735,0,0,0,6.464-2.814,2.584,2.584,0,0,1-.67.868,7.094,7.094,0,0,1-2.176,1.5,6.789,6.789,0,0,1-2.573.575,2.531,2.531,0,0,1-1.047-.125Z" transform="translate(-205.369 -96.516)" fill="#eb996e"/>
        <path id="Trazado_110193" data-name="Trazado 110193" d="M310.21,325.3a2.643,2.643,0,0,1,.67-.22l1.872-.5a54.733,54.733,0,0,0,11.727-4.867c.711-.4,1.276-.732,1.674-.963a2.855,2.855,0,0,1,.638-.334,2.837,2.837,0,0,1-.575.429c-.377.261-.931.617-1.632,1.046a44.88,44.88,0,0,1-11.758,4.885c-.8.2-1.442.334-1.893.418a3.432,3.432,0,0,1-.722.107Z" transform="translate(-205.789 -96.209)" fill="#eb996e"/>
        <path id="Trazado_110194" data-name="Trazado 110194" d="M293.14,289.08l-2.03,4.615,27,6.548Z" transform="translate(-206.669 -97.562)" fill="#5e6178"/>
        <path id="Trazado_110195" data-name="Trazado 110195" d="M316.652,300.039h-.282a4.479,4.479,0,0,1-.826-.063c-.711-.063-1.747-.188-3.012-.408a89.022,89.022,0,0,1-9.739-2.312c-3.766-1.047-7.229-1.726-9.7-2.448-1.234-.345-2.217-.67-2.9-.91a6.274,6.274,0,0,1-1.046-.418,7.82,7.82,0,0,1,1.046.293c.67.2,1.685.481,2.919.806,2.469.67,5.942,1.339,9.728,2.344s7.186,1.914,9.7,2.406c1.245.241,2.26.408,2.974.513a7.54,7.54,0,0,1,1.14.2Z" transform="translate(-206.76 -97.358)" fill="#5e6178"/>
      </g>
      <g id="freepik--Counter--inject-14" transform="translate(1.244 328.652)">
        <path id="Trazado_110196" data-name="Trazado 110196" d="M447.682,344.288c0,.1-94.155.18-210.277.18s-187.7-.009-187.7-.117,71.528-.231,187.7-.231S447.682,344.192,447.682,344.288Z" transform="translate(-49.704 -344.12)" fill="#344154"/>
      </g>
      <g id="freepik--speech-bubble--inject-14" transform="translate(103.304 45.074)">
        <path id="Trazado_110197" data-name="Trazado 110197" d="M148.74,176.612l7.04-12.375a33.3,33.3,0,1,1,7.971,8.871h0Z" transform="translate(-148.717 -113.424)" fill="#fd9826"/>
        <path id="Trazado_110198" data-name="Trazado 110198" d="M148.741,176.615,163.773,173l-.052.125h0l-.4-.523.523.408a34.406,34.406,0,0,0,6.82,4.032,33.307,33.307,0,0,0,9.059,2.553,31.248,31.248,0,0,0,5.228.251c.89-.063,1.81-.084,2.73-.168l2.782-.429A33.214,33.214,0,0,0,211.023,166a32.638,32.638,0,0,0,5.544-12.709,33.391,33.391,0,0,0-.4-14.645,32.334,32.334,0,0,0-7.05-13.526l-1.339-1.475a17.235,17.235,0,0,0-1.442-1.339,16.318,16.318,0,0,0-1.5-1.308l-1.579-1.172a12.293,12.293,0,0,0-1.632-1.046l-1.663-1.046-1.747-.847a13.994,13.994,0,0,0-1.768-.784,33.6,33.6,0,0,0-14.771-2.28,32.429,32.429,0,0,0-13.536,4,33.475,33.475,0,0,0-15.692,19.206,36.2,36.2,0,0,0-1.465,10.743,33.182,33.182,0,0,0,1.579,9.269,33.663,33.663,0,0,0,3.285,7.134v.084c-4.572,7.95-6.81,11.873-7.134,12.375l6.988-12.469v.09a34.083,34.083,0,0,1-3.358-7.155,32.91,32.91,0,0,1-1.622-9.331,36.026,36.026,0,0,1,1.422-10.827,33.757,33.757,0,0,1,15.807-19.394,32.91,32.91,0,0,1,13.673-4.027,34.155,34.155,0,0,1,14.9,2.291,18.233,18.233,0,0,1,1.789.795l1.758.858,1.685,1.046a14.451,14.451,0,0,1,1.653,1.046l1.59,1.192a18.277,18.277,0,0,1,1.506,1.352c.481.451,1.046.868,1.465,1.339l1.339,1.485a32.837,32.837,0,0,1,7.121,13.672,34,34,0,0,1,.4,14.771,32.942,32.942,0,0,1-5.617,12.835,33.475,33.475,0,0,1-20.765,13.34l-2.73.408c-.92.073-1.851.09-2.751.157a30.489,30.489,0,0,1-5.228-.27,33.214,33.214,0,0,1-9.112-2.563,33.694,33.694,0,0,1-6.841-4.122l.125-.115h0l.084.115h-.125Z" transform="translate(-148.718 -113.428)" fill="#344154"/>
        <path id="Trazado_110199" data-name="Trazado 110199" d="M171.96,146.2l3.358-3.357,6.49,5.764,12.741-12.25,3.118,3.357L181.337,155.1Z" transform="translate(-147.647 -112.369)" fill="#fff5ea"/>
      </g>
      <rect id="Rectángulo_8863" data-name="Rectángulo 8863" width="242.056" height="16.58" transform="translate(157.944 312.416)" fill="#2c597c"/>
    </g>
  </g>
</svg>
