<svg xmlns="http://www.w3.org/2000/svg" width="362.316" height="364.1" viewBox="0 0 362.316 364.1">
  <g id="Capa_2" data-name="Capa 2" transform="translate(-15.222 -22.12)">
    <g id="Grupo_60011" data-name="Grupo 60011" transform="translate(15.222 22.12)">
      <g id="Grupo_59954" data-name="Grupo 59954" transform="translate(148.032 294.021)">
        <path id="Trazado_110200" data-name="Trazado 110200" d="M220.047,460.8c-1.27-1.086-4.09-4.522-1.917-8.516.8-1.47,2.493-2.189,3.994-2.836a16.451,16.451,0,0,0,4.418-2.285c2.4-2.037,3.052-5.416,4.642-8.133,1.821-3.124,5.225-5.456,8.788-5.3,4.122.192,7.549,3.555,9.107,7.39s1.6,8.093,1.646,12.231c0,2.293-.088,4.873-1.766,6.391-1.55,1.43-3.883,1.446-5.984,1.382l-22.5-.695" transform="translate(-203.901 -398.923)" fill="#aed3f2"/>
        <path id="Trazado_110201" data-name="Trazado 110201" d="M259.7,390.16H200.52l10.665,63.567a7.086,7.086,0,0,0,5.049,5.656l.208.056a3.928,3.928,0,0,0,.527.136,6.634,6.634,0,0,0,1.206.144v.056l.288-.04h26.363a7.86,7.86,0,0,0,1.446-.144,7.19,7.19,0,0,0,5.992-6.215l5.137-43.795.232-1.742h0l2.037-17.344Zm-11.184,40.551h-6.072l.615-18.446H250.1Zm2.165-18.446h5.808l-2.165,18.446H249.1Zm-17.352,38.9-.367-16.034h8.764l-.527,16.034Zm-9.459-16.034h8.5l.367,16.034h-7.621Zm.655,16.034h-7.118c-.679-4.33-1.558-9.954-2.516-16.034h8.4Zm-1-20.451-1.43-18.446h9.746l.423,18.446Zm9.331,0-.423-18.446h10.026l-.607,18.446Zm-.527-22.872-.391-17.088h11.3l-.567,17.088Zm-.591,0h-9.986l-1.326-17.088h10.921Zm-10.577,0H210.618l-1.047-6.623c-1.11-6.9-1.518-9.5-1.75-10.481h12.039Zm.344,4.426,1.438,18.446h-8.788c-.3-1.877-.591-3.771-.887-5.664-.687-4.354-1.374-8.708-2.013-12.782Zm-7.9,18.446h-5.712L204.8,412.265h5.9c.927,5.728,1.925,12.039,2.932,18.446Zm.7,4.418c.871,5.552,1.726,11.017,2.508,16.034h-5.488l-2.684-16.034Zm27.458,16.034.535-16.034h5.84l-1.366,16.034Zm1.438-43.324.567-17.088h8.189l-1.462,17.088Zm-35.9-17.088c.232,1.238,1.31,7.989,2.756,17.088H204.1l-2.868-17.088Zm44.69,60.412h-4.57l1.366-16.034h5.081Zm5.081-43.324h-5.952l1.462-17.088h6.495Z" transform="translate(-200.52 -390.16)" fill="#839eb6"/>
      </g>
      <g id="Grupo_59955" data-name="Grupo 59955" transform="translate(227.856)">
        <rect id="Rectángulo_8864" data-name="Rectángulo 8864" width="30.837" height="61.131" transform="translate(0 56.489)" fill="#bce0fc"/>
        <rect id="Rectángulo_8865" data-name="Rectángulo 8865" width="33.321" height="61.131" transform="translate(32.027 56.489)" fill="#bce0fc"/>
        <rect id="Rectángulo_8866" data-name="Rectángulo 8866" width="33.321" height="59.07" transform="translate(32.027 121.894)" fill="#bce0fc"/>
        <path id="Trazado_110202" data-name="Trazado 110202" d="M387.59,77.555h35.087V23.326h1.19V77.555h28.56V22.12H387.59Z" transform="translate(-317.967 -22.12)" fill="#bce0fc"/>
        <rect id="Rectángulo_8867" data-name="Rectángulo 8867" width="28.56" height="61.131" transform="translate(105.9 56.489)" fill="#bce0fc"/>
        <rect id="Rectángulo_8868" data-name="Rectángulo 8868" width="28.56" height="59.07" transform="translate(105.9 121.894)" fill="#bce0fc"/>
        <rect id="Rectángulo_8869" data-name="Rectángulo 8869" width="30.837" height="59.07" transform="translate(0 121.894)" fill="#bce0fc"/>
        <rect id="Rectángulo_8870" data-name="Rectángulo 8870" width="35.095" height="59.07" transform="translate(69.623 121.894)" fill="#bce0fc"/>
        <rect id="Rectángulo_8871" data-name="Rectángulo 8871" width="30.837" height="53.23" transform="translate(0 182.018)" fill="#bce0fc"/>
        <rect id="Rectángulo_8872" data-name="Rectángulo 8872" width="28.56" height="53.23" transform="translate(105.9 182.018)" fill="#bce0fc"/>
        <path id="Trazado_110203" data-name="Trazado 110203" d="M331.285,77.555V23.326h1.182V77.555h33.321V22.12H300.44V77.555Z" transform="translate(-300.44 -22.12)" fill="#bce0fc"/>
        <rect id="Rectángulo_8873" data-name="Rectángulo 8873" width="35.095" height="53.23" transform="translate(69.623 182.018)" fill="#bce0fc"/>
        <rect id="Rectángulo_8874" data-name="Rectángulo 8874" width="33.321" height="53.23" transform="translate(32.027 182.018)" fill="#bce0fc"/>
        <rect id="Rectángulo_8875" data-name="Rectángulo 8875" width="35.095" height="61.131" transform="translate(69.623 56.489)" fill="#bce0fc"/>
      </g>
      <g id="Grupo_59956" data-name="Grupo 59956" transform="translate(0 106.877)">
        <path id="Trazado_110204" data-name="Trazado 110204" d="M27.38,198.9a3.132,3.132,0,0,1-3.835-2.213l-7.062-26.307a2.6,2.6,0,0,1,1.941-3.124l2.469-.663a2.684,2.684,0,0,0,1.973-2.037l.248-1.222a2.684,2.684,0,0,1,1.965-2.037l11.776-3.156a2.732,2.732,0,0,1,2.548.6l.8.759a2.716,2.716,0,0,0,2.548.591l14.971-3.994a2.6,2.6,0,0,1,3.2,1.734l7.19,26.906a3.14,3.14,0,0,1-2.213,3.843Z" transform="translate(-15.462 -155.921)" fill="#839eb6"/>
        <path id="Trazado_110205" data-name="Trazado 110205" d="M41.024,160.47,31.5,163l-1.278-1.366a3.427,3.427,0,0,0-3.363-.863l-9.315,2.5a3.012,3.012,0,0,0-2.245,3.611l.3,1.086,7.661,28.568a3.419,3.419,0,0,0,4.266,2.277l37.851-10.186a3.419,3.419,0,0,0,2.556-4.106l-7.286-26.946a2.253,2.253,0,0,0-2.764-1.6Z" transform="translate(-15.222 -155.903)" fill="#aed3f2"/>
      </g>
      <g id="Grupo_59957" data-name="Grupo 59957" transform="translate(136.725 64.481)">
        <path id="Trazado_110206" data-name="Trazado 110206" d="M189.269,146.929a3.8,3.8,0,0,1-2.8-4.578l7.733-32.011a3.14,3.14,0,0,1,3.851-2.189l3,.727a3.267,3.267,0,0,0,3.275-1.023l.967-1.158a3.267,3.267,0,0,1,3.275-1.023l14.316,3.435a3.3,3.3,0,0,1,2.4,2.1l.431,1.286a3.315,3.315,0,0,0,2.4,2.1l18.215,4.4a3.132,3.132,0,0,1,2.4,3.707l-7.9,32.754a3.8,3.8,0,0,1-4.578,2.8Z" transform="translate(-186.367 -103.384)" fill="#839eb6"/>
        <path id="Trazado_110207" data-name="Trazado 110207" d="M226.279,113.632,214.7,110.8l-.567-2.181a4.106,4.106,0,0,0-3.044-2.908l-11.328-2.748a3.643,3.643,0,0,0-4.482,2.532l-.32,1.326-8.4,34.759a4.146,4.146,0,0,0,3.2,4.889l46.016,11.112a4.146,4.146,0,0,0,5.089-2.884l7.925-32.842a2.724,2.724,0,0,0-2.005-3.291Z" transform="translate(-186.388 -102.833)" fill="#aed3f2"/>
      </g>
      <g id="Grupo_59959" data-name="Grupo 59959" transform="translate(41.137 13.012)">
        <g id="Grupo_59958" data-name="Grupo 59958">
          <path id="Trazado_110208" data-name="Trazado 110208" d="M76.149,91.184a4.25,4.25,0,0,1-4.7-3.763L67.457,50.672a3.531,3.531,0,0,1,3.2-3.8l3.451-.375a3.667,3.667,0,0,0,3.068-2.333l.575-1.6a3.667,3.667,0,0,1,3.068-2.325l16.409-1.805a3.7,3.7,0,0,1,3.291,1.326l.919,1.206a3.675,3.675,0,0,0,3.291,1.326l20.915-2.3a3.523,3.523,0,0,1,3.994,2.988l4.13,37.6a4.242,4.242,0,0,1-3.763,4.689Z" transform="translate(-66.862 -38.408)" fill="#839eb6"/>
          <path id="Trazado_110209" data-name="Trazado 110209" d="M102.557,42.894,89.248,44.332l-1.43-2.093A4.626,4.626,0,0,0,83.5,40.329L70.49,41.759a4.09,4.09,0,0,0-3.763,4.386l.168,1.518,4.386,39.9a4.65,4.65,0,0,0,5.249,3.938L129.352,85.7a4.634,4.634,0,0,0,4.266-4.977l-4.138-37.7a3.076,3.076,0,0,0-3.387-2.716Z" transform="translate(-66.715 -38.786)" fill="#aed3f2"/>
        </g>
        <path id="Trazado_110210" data-name="Trazado 110210" d="M112.094,70.615a5.145,5.145,0,0,0,2.532-5.081,4.849,4.849,0,1,0-9.587,1.015A5.153,5.153,0,0,0,108.627,71c-7.334,1.917-6.087,9.906-6.087,9.906l17.5-1.845S119.548,70.918,112.094,70.615Z" transform="translate(-73.904 -42.884)" fill="#839eb6"/>
      </g>
      <path id="Trazado_110211" data-name="Trazado 110211" d="M33.146,96.7a9.2,9.2,0,0,1,2.3-.7l.711-2.109,3.667.367.272,2.2a8.963,8.963,0,0,1,2.125,1.142l1.989-1,2.341,2.852-1.422,1.758a9.147,9.147,0,0,1,.719,2.341l2.117.7-.367,3.667-2.213.28a9.067,9.067,0,0,1-1.142,2.117l1,2-2.852,2.333-1.758-1.374a8.875,8.875,0,0,1-2.3.7l-.711,2.117-3.675-.4-.28-2.213a9.035,9.035,0,0,1-2.117-1.134l-1.989.991-2.341-2.852,1.374-1.758a9.2,9.2,0,0,1-.7-2.3l-2.117-.711.367-3.667,2.213-.272a9.171,9.171,0,0,1,1.134-2.117l-.991-2,2.852-2.333Zm1.382,5.113a3.954,3.954,0,1,0,5.592.551,3.994,3.994,0,0,0-5.616-.551Z" transform="translate(-17.345 -36.556)" fill="#839eb6"/>
      <g id="Grupo_59960" data-name="Grupo 59960" transform="translate(8.005 184.269)">
        <path id="Trazado_110212" data-name="Trazado 110212" d="M51.62,277.912a2.486,2.486,0,0,0,.959-.16,1.957,1.957,0,0,0,.895-.727,2,2,0,0,0,.288-.679c.04-.256.064-.559.112-.863.3-2.477.751-6.016,1.294-10.385l.439-3.443c.072-.591.152-1.206.232-1.821l.12-.943a4.1,4.1,0,0,0,.072-.919,1.822,1.822,0,0,0-.975-1.43,2.4,2.4,0,0,0-.919-.232l-1.023-.128-4.226-.551-18.83-2.461a1.766,1.766,0,0,0-2,1.542l-.088.615c-.048.407-.1.8-.16,1.222q-.328,2.445-.631,4.793c-.423,3.148-.8,6.183-1.206,9.083-.1.719-.192,1.43-.28,2.133a1.782,1.782,0,0,0,.8,1.638,1.853,1.853,0,0,0,.879.32l1.007.128,1.957.264,7.19.967,10.385,1.43,2.7.415.727.12.248.056H51.34l-.735-.072-2.828-.335-10.385-1.294-7.19-.919-1.957-.248-1.007-.136a2.181,2.181,0,0,1-1.989-2.341c.088-.711.184-1.43.272-2.157.375-2.892.8-5.928,1.182-9.075q.312-2.4.631-4.793c.056-.4.1-.8.16-1.222l.08-.615a2.4,2.4,0,0,1,.192-.655,2.213,2.213,0,0,1,2.277-1.238l18.894,2.477,4.226.559,1.023.136a2.862,2.862,0,0,1,1.031.272,2.189,2.189,0,0,1,1.158,1.718,4.442,4.442,0,0,1-.08,1,6.254,6.254,0,0,1-.128.935c-.08.623-.16,1.23-.24,1.829-.168,1.19-.32,2.333-.471,3.427-.6,4.354-1.086,7.885-1.422,10.386-.048.3-.08.591-.136.871a2.013,2.013,0,0,1-1.286,1.454,1.732,1.732,0,0,1-.735.112,1.308,1.308,0,0,1-.256-.056Z" transform="translate(-25.242 -252.777)" fill="#839eb6"/>
        <path id="Trazado_110213" data-name="Trazado 110213" d="M52.731,277.121a1.805,1.805,0,0,1-.24-.3l-.615-.919-2.2-3.4-1.5-2.4-.407-.639a.583.583,0,0,0-.519-.256c-.216,0-.367.144-.591.343l-.639.543L44.7,271.217a2.155,2.155,0,0,1-.391.3.935.935,0,0,1-.551.1.99.99,0,0,1-.519-.216,1.6,1.6,0,0,1-.192-.216l-.128-.192-2.093-3.2-1.063-1.6c-.168-.264-.344-.527-.519-.8a.567.567,0,0,0-.591-.272.615.615,0,0,0-.3.152l-.32.32-.639.631-1.23,1.222-4.29,4.218-2.948,2.868-.8.751a1.6,1.6,0,0,1-.3.24,1.351,1.351,0,0,1,.248-.3c.2-.224.447-.487.751-.8l2.82-2.916,4.226-4.274,1.222-1.238.631-.631.328-.328a.935.935,0,0,1,.5-.264.983.983,0,0,1,1.007.447l.527.8c.344.535.7,1.071,1.063,1.6.711,1.095,1.406,2.165,2.085,3.2a.655.655,0,0,0,1.182.144l1.326-1.118.647-.535a3.283,3.283,0,0,1,.336-.272.943.943,0,0,1,.471-.152.959.959,0,0,1,.8.423l.407.655,1.454,2.4c.855,1.43,1.6,2.6,2.093,3.475l.543.959a1.906,1.906,0,0,1,.232.32Z" transform="translate(-25.762 -255.189)" fill="#839eb6"/>
        <path id="Trazado_110214" data-name="Trazado 110214" d="M50.759,262.974a2.946,2.946,0,0,0-.08-.575,2.4,2.4,0,0,0-.711-1.31,2.237,2.237,0,0,0-2.029-.543,2.181,2.181,0,0,0-.527,4.05,2.237,2.237,0,0,0,2.1,0,2.4,2.4,0,0,0,1.023-1.086c.152-.328.184-.543.224-.535a1.127,1.127,0,0,1-.072.591,2.4,2.4,0,0,1-1.031,1.286,2.548,2.548,0,1,1-1.766-4.705,2.485,2.485,0,0,1,2.317.711,2.341,2.341,0,0,1,.663,1.5,1.078,1.078,0,0,1-.112.615Z" transform="translate(-29.382 -254.248)" fill="#839eb6"/>
      </g>
      <g id="Grupo_59961" data-name="Grupo 59961" transform="translate(136.695 19.41)">
        <path id="Trazado_110215" data-name="Trazado 110215" d="M208.435,78.447a2.493,2.493,0,0,0,.935.256,1.965,1.965,0,0,0,1.11-.3,1.894,1.894,0,0,0,.543-.5c.144-.216.288-.479.455-.735l5.432-8.932,1.813-2.956.959-1.6c.168-.264.328-.535.5-.8a4.25,4.25,0,0,0,.439-.8,1.8,1.8,0,0,0-.3-1.7,2.317,2.317,0,0,0-.743-.591l-.871-.535-3.635-2.237c-4.969-3.06-10.433-6.391-16.161-9.962a1.814,1.814,0,0,0-2.1.16,2.588,2.588,0,0,0-.351.471l-.328.527-.647,1.055-2.548,4.122c-1.67,2.7-3.283,5.3-4.793,7.781-.375.623-.759,1.23-1.126,1.829a1.789,1.789,0,0,0,0,1.821,1.862,1.862,0,0,0,.671.647l.863.535,1.678,1.047,6.1,3.8,8.86,5.592,2.4,1.526.615.407a1.675,1.675,0,0,1,.208.144,1.014,1.014,0,0,1-.232-.112l-.639-.367L205.1,76.577l-8.932-5.432-6.151-3.779-1.686-1.031-.871-.535a2.173,2.173,0,0,1-.8-.8,2.149,2.149,0,0,1-.056-2.189c.368-.615.751-1.23,1.126-1.853l4.793-7.8,2.548-4.122.647-1.055.328-.527a2.484,2.484,0,0,1,.439-.519,2.229,2.229,0,0,1,2.588-.2l16.145,9.994,3.627,2.245.871.543a2.748,2.748,0,0,1,.8.671,2.157,2.157,0,0,1,.352,2.037,4.378,4.378,0,0,1-.479.879l-.5.8-.975,1.6c-.639,1.023-1.246,2.005-1.837,2.94l-5.5,8.8c-.168.264-.312.511-.479.743a2,2,0,0,1-2.493.607,1,1,0,0,1-.176-.144Z" transform="translate(-186.329 -46.416)" fill="#839eb6"/>
        <path id="Trazado_110216" data-name="Trazado 110216" d="M209.517,64.37,211,67.326a.8.8,0,0,1-.8,1.206l-3.363-.1-3.275-.1a.8.8,0,0,1-.671-1.294l1.837-2.812,1.861-2.852a.8.8,0,0,1,1.446.088Z" transform="translate(-189.624 -49.34)" fill="#839eb6"/>
      </g>
      <path id="Trazado_110217" data-name="Trazado 110217" d="M379.118,477.568c0,.112-77.26.208-172.559.208S34,477.68,34,477.568s77.236-.208,172.559-.208S379.118,477.448,379.118,477.568Z" transform="translate(-18.999 -113.676)" fill="#344154"/>
      <g id="Grupo_59963" data-name="Grupo 59963" transform="translate(268.344 216.114)">
        <path id="Trazado_110218" data-name="Trazado 110218" d="M433.905,296.94c-7.51,3.891-13.269,10.585-17.408,17.959s-6.815,15.466-9.451,23.5L404.73,379.84c8.74-14.867,15.754-32.347,17.647-49.483l-5.816-.519c3.9-.6,7.19-3.419,9.259-6.775s3.148-7.19,4.194-11.017l-7.094,1.055a26.259,26.259,0,0,0,10.985-16.161Z" transform="translate(-361.902 -293.505)" fill="#5e6178"/>
        <g id="Grupo_59962" data-name="Grupo 59962" transform="translate(42.828 3.435)" opacity="0.3">
          <path id="Trazado_110219" data-name="Trazado 110219" d="M433.905,296.94c-7.51,3.891-13.269,10.585-17.408,17.959s-6.815,15.466-9.451,23.5L404.73,379.84c8.74-14.867,15.754-32.347,17.647-49.483l-5.816-.519c3.9-.6,7.19-3.419,9.259-6.775s3.148-7.19,4.194-11.017l-7.094,1.055a26.259,26.259,0,0,0,10.985-16.161Z" transform="translate(-404.73 -296.94)" fill="#d9a171"/>
        </g>
        <path id="Trazado_110220" data-name="Trazado 110220" d="M398.38,388.682s-18.965-22.7-18.75-44.378h7.661s-8.316-5.472-7.661-8.532.879-14.668.879-14.668l7.006,1.75s-5.257-2.628-5.912-6.79,1.51-23.423,1.51-23.423,8.532,8.979,11.184,18.175,9.523,19.916,7.5,47.933S398.38,388.682,398.38,388.682Z" transform="translate(-356.847 -292.64)" fill="#5e6178"/>
        <path id="Trazado_110221" data-name="Trazado 110221" d="M415.148,397.045s20.547-13.685,25.117-31.156l-6.167-1.678s7.893-2.58,8.037-5.193,2.5-11.983,2.5-11.983l-6.016-.12s4.793-.967,6.239-4.162,3.891-19.173,3.891-19.173-8.788,5.353-12.95,12.167-11.983,13.932-16.521,36.908S415.148,397.045,415.148,397.045Z" transform="translate(-363.995 -298.863)" fill="#5e6178"/>
        <path id="Trazado_110222" data-name="Trazado 110222" d="M390.51,317.42a1.053,1.053,0,0,1,.072.232l.168.7c.144.639.352,1.542.607,2.692s.575,2.6.911,4.274.727,3.563,1.118,5.672c.8,4.21,1.67,9.243,2.556,14.843s1.71,11.776,2.469,18.271,1.326,12.71,1.766,18.374.727,10.745.895,15.027c.1,2.141.152,4.082.208,5.784s.08,3.2.088,4.37,0,2.1,0,2.756v.719a1.533,1.533,0,0,1,0,.248,1.282,1.282,0,0,1,0-.248v-.719c0-.655-.056-1.6-.1-2.756s-.088-2.66-.16-4.362-.144-3.635-.272-5.776c-.2-4.282-.543-9.371-.983-15.019s-1.047-11.848-1.789-18.374-1.6-12.662-2.437-18.263-1.694-10.633-2.469-14.843c-.367-2.109-.743-3.994-1.062-5.688s-.6-3.108-.839-4.282-.4-2.061-.527-2.708c-.056-.3-.1-.527-.128-.711a1.387,1.387,0,0,1-.088-.216Z" transform="translate(-359.042 -297.624)" fill="#344154"/>
        <path id="Trazado_110223" data-name="Trazado 110223" d="M390.026,416.934s-17.36-19.693-22.752-31.6l4.074-1.742a10.6,10.6,0,0,1-8.26-2.708,29.452,29.452,0,0,1-5.592-6.95l5.361-.9A19.972,19.972,0,0,1,351.12,364c6.327,1.047,12.047,4.514,16.777,8.86a83.511,83.511,0,0,1,10.154,11.768A39.836,39.836,0,0,1,382,391.114C384.9,397.106,390.034,409.7,390.026,416.934Z" transform="translate(-351.12 -306.992)" fill="#5e6178"/>
        <path id="Trazado_110224" data-name="Trazado 110224" d="M439.378,337.93a2.044,2.044,0,0,1-.08.208l-.264.567-1.055,2.189c-.927,1.893-2.237,4.642-3.835,8.061-3.2,6.822-7.39,16.353-11.544,27.074s-7.438,20.6-9.674,27.8c-1.118,3.595-2,6.519-2.58,8.54l-.7,2.325-.192.607a.694.694,0,0,1-.08.2,1.608,1.608,0,0,1,.04-.216l.152-.615c.152-.567.359-1.35.615-2.341.543-2.045,1.382-4.977,2.461-8.588,2.165-7.19,5.424-17.128,9.587-27.865s8.4-20.252,11.664-27.05c1.6-3.4,2.98-6.135,3.954-7.989l1.127-2.149.3-.559A1.068,1.068,0,0,1,439.378,337.93Z" transform="translate(-362.837 -301.749)" fill="#344154"/>
        <path id="Trazado_110225" data-name="Trazado 110225" d="M398.46,432.353a9.354,9.354,0,0,1-.264-1.406c-.136-.911-.367-2.221-.687-3.835a79.1,79.1,0,0,0-3.515-12.311,79.977,79.977,0,0,0-5.5-11.56c-.8-1.422-1.518-2.556-2.021-3.331a9.715,9.715,0,0,1-.727-1.23,9.678,9.678,0,0,1,.863,1.142c.543.743,1.278,1.861,2.133,3.267a69.968,69.968,0,0,1,9.051,23.967c.288,1.6.471,2.94.559,3.859a8.592,8.592,0,0,1,.1,1.438Z" transform="translate(-358.085 -313.966)" fill="#344154"/>
        <rect id="Rectángulo_8876" data-name="Rectángulo 8876" width="37.987" height="7.749" transform="translate(25.293 113.753)" fill="#fd9826"/>
        <path id="Trazado_110226" data-name="Trazado 110226" d="M387.31,444.73l4.106,26.068h22.96L418.2,444.73Z" transform="translate(-358.398 -323.228)" fill="#fd9826"/>
        <path id="Trazado_110227" data-name="Trazado 110227" d="M419.329,444.678c0,.112-7.19.208-16.05.208s-16.05-.1-16.05-.208,7.19-.208,16.05-.208S419.329,444.558,419.329,444.678Z" transform="translate(-358.382 -323.175)" fill="#344154"/>
      </g>
      <g id="Grupo_59983" data-name="Grupo 59983" transform="translate(32.633 80.144)">
        <path id="Rectángulo_8877" data-name="Rectángulo 8877" d="M0,0H121.414V283.74H0Z" fill="#cb7a1e"/>
        <g id="Grupo_59964" data-name="Grupo 59964" opacity="0.3">
          <path id="Rectángulo_8878" data-name="Rectángulo 8878" d="M0,0H33.194V283.74H0Z" fill="#985b17"/>
        </g>
        <g id="Grupo_59966" data-name="Grupo 59966" transform="translate(37.739 19.045)">
          <path id="Trazado_110228" data-name="Trazado 110228" d="M182.623,202.777V187.407c0-9.8-.056-23.847-.088-40.919l.168.168-79.2.04h0l.208-.208v56.289l-.192-.192,57.1.1,16.281.048h.064l-16.233.048-57.224.1h-.192V146.28h.216l79.2.04h.168v.168c-.04,17.112-.064,31.156-.088,41.023,0,4.881,0,8.7-.04,11.312v2.956a2.66,2.66,0,0,1-.144,1Z" transform="translate(-103.31 -146.28)" fill="#344154"/>
          <g id="Grupo_59965" data-name="Grupo 59965" transform="translate(24.326 34.815)" opacity="0.3">
            <rect id="Rectángulo_8879" data-name="Rectángulo 8879" width="32.243" height="5.456" fill="#d9a171"/>
          </g>
          <rect id="Rectángulo_8880" data-name="Rectángulo 8880" width="20.603" height="15.786" rx="2.49" transform="translate(32.035 10.545)" fill="#fff"/>
        </g>
        <g id="Grupo_59978" data-name="Grupo 59978" transform="translate(36.924 58.717)">
          <g id="Grupo_59967" data-name="Grupo 59967" transform="translate(0 21.067)" opacity="0.4">
            <rect id="Rectángulo_8881" data-name="Rectángulo 8881" width="69.048" height="53.645" fill="#d9a171"/>
          </g>
          <path id="Trazado_110229" data-name="Trazado 110229" d="M144.087,224.17H130.969l-.8-1.318a2.884,2.884,0,0,0-2.485-1.422h-9.659a2.876,2.876,0,0,0-2.876,2.74H111.7a2.708,2.708,0,0,0-2.7,2.7v6.695h37.787V226.87A2.7,2.7,0,0,0,144.087,224.17Z" transform="translate(-103.639 -201.066)" fill="#839eb6"/>
          <path id="Trazado_110230" data-name="Trazado 110230" d="M152.773,224.17H139.647l-.8-1.318a2.9,2.9,0,0,0-2.493-1.422h-9.627a2.876,2.876,0,0,0-2.876,2.74H120.41a2.7,2.7,0,0,0-2.7,2.7v6.695h37.779V226.87a2.7,2.7,0,0,0-2.716-2.7Z" transform="translate(-105.391 -201.066)" fill="#aed3f2"/>
          <path id="Trazado_110231" data-name="Trazado 110231" d="M164.037,224.17H150.911l-.8-1.318a2.892,2.892,0,0,0-2.493-1.422h-9.643a2.884,2.884,0,0,0-2.884,2.74H131.65a2.7,2.7,0,0,0-2.7,2.7v6.695h37.787V226.87a2.708,2.708,0,0,0-2.7-2.7Z" transform="translate(-107.652 -201.066)" fill="#aed3f2"/>
          <path id="Trazado_110232" data-name="Trazado 110232" d="M134.76,258.707V226.544a2.788,2.788,0,0,1,2.9-2.66h2.772a2.932,2.932,0,0,0,2.628-1.542l.6-1.182a2.932,2.932,0,0,1,2.636-1.55h13.15a2.948,2.948,0,0,1,2.5,1.31l.647,1a2.948,2.948,0,0,0,2.493,1.31h16.777a2.788,2.788,0,0,1,2.9,2.652v32.826Z" transform="translate(-108.82 -200.699)" fill="#d9a171"/>
          <g id="Grupo_59968" data-name="Grupo 59968" transform="translate(25.94 18.91)" opacity="0.3">
            <path id="Trazado_110233" data-name="Trazado 110233" d="M134.76,258.707V226.544a2.788,2.788,0,0,1,2.9-2.66h2.772a2.932,2.932,0,0,0,2.628-1.542l.6-1.182a2.932,2.932,0,0,1,2.636-1.55h13.15a2.948,2.948,0,0,1,2.5,1.31l.647,1a2.948,2.948,0,0,0,2.493,1.31h16.777a2.788,2.788,0,0,1,2.9,2.652v32.826Z" transform="translate(-134.76 -219.609)" fill="#cb7a1e"/>
          </g>
          <g id="Grupo_59973" data-name="Grupo 59973" transform="translate(36.445)">
            <g id="Grupo_59970" data-name="Grupo 59970">
              <path id="Trazado_110234" data-name="Trazado 110234" d="M147.91,228.4V202.985a3.8,3.8,0,0,1,3.795-3.795h40.464a3.8,3.8,0,0,1,3.795,3.795v24.709Z" transform="translate(-147.91 -196.593)" fill="#fff"/>
              <g id="Grupo_59969" data-name="Grupo 59969" transform="translate(1.548)">
                <path id="Trazado_110235" data-name="Trazado 110235" d="M149.89,235.159V203.02a2.788,2.788,0,0,1,2.9-2.66h2.78a2.924,2.924,0,0,0,2.636-1.542l.559-1.206a2.932,2.932,0,0,1,2.636-1.542h13.182a2.956,2.956,0,0,1,2.493,1.3l.647,1a2.956,2.956,0,0,0,2.5,1.31H197a2.788,2.788,0,0,1,2.9,2.66v32.818Z" transform="translate(-149.857 -195.965)" fill="#fd9826"/>
                <path id="Trazado_110236" data-name="Trazado 110236" d="M149.882,235.133h3.7l10.282-.048,36.022-.1-.184.192V203.138a8.965,8.965,0,0,0,0-1.15,2.4,2.4,0,0,0-1.246-1.71,3,3,0,0,0-.975-.336,7.788,7.788,0,0,0-1.07,0H180.263a3.378,3.378,0,0,1-1.087-.16,3.124,3.124,0,0,1-1.694-1.334l-.551-.863a2.524,2.524,0,0,0-.639-.7,2.908,2.908,0,0,0-1.766-.567H161.034a2.8,2.8,0,0,0-1.542.7c-.847.727-.935,2.2-2.037,2.924a3.147,3.147,0,0,1-1.726.6h-1.766a16.212,16.212,0,0,0-1.662,0,2.756,2.756,0,0,0-1.414.631,2.484,2.484,0,0,0-.8,1.27,9.018,9.018,0,0,0-.072,1.558v6.056c0,7.725-.056,13.98-.08,18.326v.1c0-4.354-.048-10.625-.08-18.374v-6.1a8.179,8.179,0,0,1,.08-1.6,2.716,2.716,0,0,1,.9-1.446,3.124,3.124,0,0,1,1.6-.719,13.678,13.678,0,0,1,1.71-.04h1.718a2.9,2.9,0,0,0,1.534-.543c.975-.615,1.015-1.981,2-2.908a3.2,3.2,0,0,1,1.742-.8c.663-.056,1.246,0,1.877,0h11.664a3.3,3.3,0,0,1,2.013.639,3.012,3.012,0,0,1,.727.8l.559.863a2.628,2.628,0,0,0,1.478,1.158,2.8,2.8,0,0,0,.959.144H196.5a7.849,7.849,0,0,1,1.134,0,3.268,3.268,0,0,1,1.11.375,2.844,2.844,0,0,1,1.454,2.013,7.9,7.9,0,0,1,.04,1.214V235.4h-.192l-36.142-.1-10.242-.048h-3.387Z" transform="translate(-149.848 -195.939)" fill="#344154"/>
              </g>
            </g>
            <path id="Trazado_110237" data-name="Trazado 110237" d="M175.837,199.671a34.455,34.455,0,0,1-5.3.208,34.52,34.52,0,0,1-5.313-.208,33.354,33.354,0,0,1,5.313-.208A33.285,33.285,0,0,1,175.837,199.671Z" transform="translate(-151.391 -196.642)" fill="#fff"/>
            <g id="Grupo_59972" data-name="Grupo 59972" transform="translate(17.09 13.458)">
              <g id="Grupo_59971" data-name="Grupo 59971">
                <path id="Trazado_110238" data-name="Trazado 110238" d="M169.38,252.157v-32.2c0-1.47,1.462-2.66,3.275-2.66h3.132a3.4,3.4,0,0,0,2.98-1.542l.695-1.142a3.387,3.387,0,0,1,2.972-1.55h14.875a3.5,3.5,0,0,1,2.82,1.31l.727,1a3.475,3.475,0,0,0,2.82,1.31H222.6c1.813,0,3.275,1.19,3.275,2.652v32.826Z" transform="translate(-169.318 -212.839)" fill="#fd9826"/>
                <path id="Trazado_110239" data-name="Trazado 110239" d="M169.365,252.1h4.194l11.664-.048,40.639-.1-.192.192V219.02a2.4,2.4,0,0,0-1.19-1.718,3.723,3.723,0,0,0-2.165-.511H203.94a4.186,4.186,0,0,1-2.229-.5,3.2,3.2,0,0,1-.9-.743c-.24-.3-.439-.591-.655-.887a3.011,3.011,0,0,0-1.6-1.262,5.279,5.279,0,0,0-2.053-.232H182.171a3.555,3.555,0,0,0-1.734.551,2.54,2.54,0,0,0-.663.607,6.7,6.7,0,0,0-.487.8c-.16.272-.3.535-.479.8a2.908,2.908,0,0,1-.679.719,3.755,3.755,0,0,1-1.774.719c-1.27.088-2.4,0-3.627,0a3.315,3.315,0,0,0-2.868,1.358,2.445,2.445,0,0,0-.343,1.526v4.841c0,8.3-.064,15.011-.08,19.676V250.2c0-1.238,0-3.036-.04-5.337,0-4.682,0-11.416-.08-19.732v-4.849a2.764,2.764,0,0,1,.383-1.7,3.651,3.651,0,0,1,3.14-1.526c1.166,0,2.4,0,3.579-.04a3.547,3.547,0,0,0,1.6-.663,3.994,3.994,0,0,0,1.062-1.446q.232-.411.5-.8a3.035,3.035,0,0,1,.751-.679,3.9,3.9,0,0,1,1.917-.623h14.34a5.592,5.592,0,0,1,2.189.248,3.459,3.459,0,0,1,1.758,1.4c.216.288.431.607.639.871a3,3,0,0,0,.8.647,3.81,3.81,0,0,0,2.029.439h18.374a4.178,4.178,0,0,1,2.4.575A2.78,2.78,0,0,1,226.149,219c.04.8,0,1.6,0,2.357v30.925h-.192l-40.743-.1-11.736-.088Z" transform="translate(-169.303 -212.784)" fill="#344154"/>
              </g>
              <path id="Trazado_110240" data-name="Trazado 110240" d="M199.966,217.131a60.345,60.345,0,0,1-7.022.208,60.147,60.147,0,0,1-7.014-.208,60.141,60.141,0,0,1,7.014-.208,60.345,60.345,0,0,1,7.022.208Z" transform="translate(-172.647 -213.612)" fill="#fff"/>
            </g>
          </g>
          <g id="Grupo_59976" data-name="Grupo 59976" transform="translate(0 20.069)">
            <rect id="Rectángulo_8882" data-name="Rectángulo 8882" width="50.25" height="43.316" transform="translate(0 11.728)" fill="#5e6178"/>
            <g id="Grupo_59974" data-name="Grupo 59974" transform="translate(0 11.728)" opacity="0.3">
              <rect id="Rectángulo_8883" data-name="Rectángulo 8883" width="50.25" height="43.316" fill="#985b17"/>
            </g>
            <g id="Grupo_59975" data-name="Grupo 59975" transform="translate(50.05)">
              <rect id="Rectángulo_8884" data-name="Rectángulo 8884" width="79.209" height="56.289" transform="translate(0.192 0.296)" fill="#cb7a1e"/>
              <path id="Trazado_110241" data-name="Trazado 110241" d="M244.341,277.637v-15.37c0-9.794-.056-23.847-.088-40.911l.168.168-79.2.04h0l.208-.208v56.281l-.192-.184,57.1.1,16.281.048h-.024l-16.233.048-57.224.1h-.192V221.06h.216l79.2.04h.168v.168c-.04,17.112-.064,31.2-.088,41.015,0,4.881,0,8.708-.04,11.32v2.956A8.6,8.6,0,0,1,244.341,277.637Z" transform="translate(-164.94 -221.06)" fill="#344154"/>
            </g>
          </g>
          <g id="Grupo_59977" data-name="Grupo 59977" transform="translate(75.75 57.441)" opacity="0.3">
            <rect id="Rectángulo_8885" data-name="Rectángulo 8885" width="36.749" height="5.456" fill="#d9a171"/>
          </g>
          <rect id="Rectángulo_8886" data-name="Rectángulo 8886" width="20.603" height="15.786" rx="2.49" transform="translate(82.621 36.326)" fill="#fff"/>
        </g>
        <g id="Grupo_59980" data-name="Grupo 59980" transform="translate(37.755 141.474)">
          <path id="Trazado_110242" data-name="Trazado 110242" d="M182.627,356.115V340.736c0-9.794-.056-23.847-.088-40.911l.168.168-79.2.04h0l.208-.208v56.289l-.192-.192,57.1.1,16.281.048h.08l-16.233.056-57.224.088h-.192V299.53h.216l79.2.04h.168v.168c-.04,17.112-.064,31.2-.088,41.015,0,4.889,0,8.708-.04,11.32v2.956A3.241,3.241,0,0,1,182.627,356.115Z" transform="translate(-103.33 -299.53)" fill="#344154"/>
          <g id="Grupo_59979" data-name="Grupo 59979" transform="translate(24.31 34.895)" opacity="0.3">
            <rect id="Rectángulo_8887" data-name="Rectángulo 8887" width="33.505" height="5.456" fill="#d9a171"/>
          </g>
          <rect id="Rectángulo_8888" data-name="Rectángulo 8888" width="20.603" height="15.786" rx="2.49" transform="translate(31.348 13.685)" fill="#fff"/>
        </g>
        <g id="Grupo_59982" data-name="Grupo 59982" transform="translate(37.739 202.789)">
          <path id="Trazado_110243" data-name="Trazado 110243" d="M182.623,432.777V417.407c0-9.8-.056-23.847-.088-40.919l.168.168H103.5l.208-.208v56.289l-.192-.192,57.1.1,16.281.048h.064l-16.233.048-57.224.1h-.192V376.28h.216l79.2.04h.168v.168c-.04,17.112-.064,31.2-.088,41.023,0,4.881,0,8.7-.04,11.312v2.956a2.66,2.66,0,0,1-.144,1Z" transform="translate(-103.31 -376.28)" fill="#344154"/>
          <g id="Grupo_59981" data-name="Grupo 59981" transform="translate(24.326 34.839)" opacity="0.3">
            <rect id="Rectángulo_8889" data-name="Rectángulo 8889" width="33.505" height="5.456" fill="#d9a171"/>
          </g>
          <rect id="Rectángulo_8890" data-name="Rectángulo 8890" width="20.603" height="15.786" rx="2.49" transform="translate(31.364 13.429)" fill="#fff"/>
        </g>
      </g>
      <g id="Grupo_59990" data-name="Grupo 59990" transform="translate(260.506 30.691)">
        <g id="Grupo_59986" data-name="Grupo 59986">
          <g id="Grupo_59984" data-name="Grupo 59984" transform="translate(0 37.558)">
            <path id="Trazado_110244" data-name="Trazado 110244" d="M346.861,110.43a2.66,2.66,0,1,1-2.66-2.66A2.66,2.66,0,0,1,346.861,110.43Z" transform="translate(-341.355 -107.595)" fill="#fff"/>
            <path id="Trazado_110245" data-name="Trazado 110245" d="M346.814,110.386a4.8,4.8,0,0,1-.168-.631,2.628,2.628,0,0,0-.975-1.366,2.509,2.509,0,0,0-2.357-.32,2.469,2.469,0,0,0,0,4.626,2.509,2.509,0,0,0,2.357-.32,2.628,2.628,0,0,0,.975-1.366c.12-.391.128-.631.168-.623a1.246,1.246,0,0,1,0,.663,2.62,2.62,0,0,1-.951,1.558,2.8,2.8,0,0,1-2.668.447,2.836,2.836,0,0,1,0-5.345,2.8,2.8,0,0,1,2.668.447,2.621,2.621,0,0,1,.951,1.6A1.3,1.3,0,0,1,346.814,110.386Z" transform="translate(-341.309 -107.551)" fill="#344154"/>
          </g>
          <g id="Grupo_59985" data-name="Grupo 59985" transform="translate(6.344)">
            <circle id="Elipse_4280" data-name="Elipse 4280" cx="21.945" cy="21.945" r="21.945" transform="translate(0.208 0.146)" fill="#fff"/>
            <path id="Trazado_110246" data-name="Trazado 110246" d="M393.356,82.629a1.753,1.753,0,0,1,0-.352l-.072-1.047a5.036,5.036,0,0,0-.048-.8c-.048-.32-.1-.591-.144-.919a16.52,16.52,0,0,0-.463-2.261,20.892,20.892,0,0,0-2.437-5.808,21.81,21.81,0,0,0-5.592-6.183,21.522,21.522,0,0,0-9.187-4.018,21.881,21.881,0,0,0-11.432.951,23.4,23.4,0,0,0-2.836,1.254c-.455.248-.895.535-1.35.8a11.186,11.186,0,0,0-1.31.9,23.518,23.518,0,0,0-2.461,2.149,23.97,23.97,0,0,0-2.133,2.516,21.139,21.139,0,0,0-3.108,5.992,21.61,21.61,0,0,0,0,13.725,21.137,21.137,0,0,0,3.108,5.992,24.9,24.9,0,0,0,2.133,2.524,24.427,24.427,0,0,0,2.469,2.093,11.292,11.292,0,0,0,1.31.911c.455.264.895.559,1.35.8a22.162,22.162,0,0,0,2.836,1.246,21.841,21.841,0,0,0,26.164-9.283,21,21,0,0,0,2.437-5.808,17.016,17.016,0,0,0,.463-2.261c.048-.336.112-.639.144-.919s0-.535.048-.8l.072-1.039a1.773,1.773,0,0,1,0-.359,2.029,2.029,0,0,1,0,.359c0,.256,0,.6,0,1.047v.8a6.559,6.559,0,0,1-.12.927,16.341,16.341,0,0,1-.423,2.277,21.018,21.018,0,0,1-2.4,5.9,22.025,22.025,0,0,1-26.491,9.523,22.371,22.371,0,0,1-2.892-1.262c-.463-.256-.919-.543-1.382-.8a10.7,10.7,0,0,1-1.334-.919,24.355,24.355,0,0,1-2.516-2.133,25.915,25.915,0,0,1-2.173-2.564,21.427,21.427,0,0,1-3.2-6.1,21.962,21.962,0,0,1,0-13.98,21.635,21.635,0,0,1,3.2-6.1,25.916,25.916,0,0,1,2.173-2.564,24.361,24.361,0,0,1,2.516-2.133,11.066,11.066,0,0,1,1.342-.919c.463-.272.911-.567,1.374-.8a24.761,24.761,0,0,1,2.892-1.262,21.817,21.817,0,0,1,26.467,9.459,20.978,20.978,0,0,1,2.4,5.888,16.192,16.192,0,0,1,.423,2.285c.048.336.1.639.12.919s0,.543,0,.8v1.047a1.942,1.942,0,0,1,.064.32Z" transform="translate(-349.25 -60.538)" fill="#344154"/>
          </g>
        </g>
        <g id="Grupo_59989" data-name="Grupo 59989" transform="translate(20.668 13.343)">
          <g id="Grupo_59987" data-name="Grupo 59987">
            <path id="Trazado_110247" data-name="Trazado 110247" d="M373.835,90.533a6.647,6.647,0,1,1,6.639-6.647,6.647,6.647,0,0,1-6.639,6.647Zm0-12.487a5.848,5.848,0,1,0,5.84,5.84A5.848,5.848,0,0,0,373.835,78.047Z" transform="translate(-367.18 -77.24)" fill="#344154"/>
            <rect id="Rectángulo_8891" data-name="Rectángulo 8891" width="0.799" height="6.479" transform="translate(9.783 12.101) rotate(-35.964)" fill="#344154"/>
          </g>
          <g id="Grupo_59988" data-name="Grupo 59988" transform="translate(2.481 4.17)">
            <path id="Trazado_110248" data-name="Trazado 110248" d="M371.339,82.49a3.843,3.843,0,0,0,1.166,5.7" transform="translate(-370.337 -82.466)" fill="#fff"/>
            <path id="Trazado_110249" data-name="Trazado 110249" d="M372.454,88.18a2.12,2.12,0,0,1-.871-.471,3.707,3.707,0,0,1-.919-4.45,1.97,1.97,0,0,1,.623-.8c.04,0-.16.352-.351.895a4.121,4.121,0,0,0-.168,2.181,4.2,4.2,0,0,0,1.015,1.941C372.174,87.924,372.454,88.124,372.454,88.18Z" transform="translate(-370.285 -82.46)" fill="#344154"/>
          </g>
        </g>
      </g>
      <g id="Grupo_60010" data-name="Grupo 60010" transform="translate(136.855 49.052)">
        <g id="Grupo_59993" data-name="Grupo 59993" transform="translate(74.237)">
          <path id="Trazado_110250" data-name="Trazado 110250" d="M333.416,159.558c-1.2-21.394-10.753-31.348-13.581-48.069-1.414-8.4-1.055-16.992-7.006-23.072a17.849,17.849,0,0,0-9.179-4.793,12.093,12.093,0,0,0-5.76.575c-2.82-.423-4.082-.559-6.064,0a16.593,16.593,0,0,0-7.19,4.346c-4.242,5.177-5.113,12.3-5.177,18.989a111.046,111.046,0,0,0,4.466,32.011,3.4,3.4,0,0,0,4.681,2.956,63.605,63.605,0,0,0,12.071-3.156,4.05,4.05,0,0,0,1.534-.839c1.078-1.1.623-2.924.128-4.386l10.841-9.275c-.719,6.455-2.8,12.678-3.715,19.1a54.069,54.069,0,0,0,1.71,23.024,35.151,35.151,0,0,1,12.782-.288c1.023.168,2.668,8.2,3.571,7.7C329.206,173.49,333.536,161.331,333.416,159.558Z" transform="translate(-279.456 -83.521)" fill="#344154"/>
          <g id="Grupo_59992" data-name="Grupo 59992" transform="translate(1.809 2.546)">
            <g id="Grupo_59991" data-name="Grupo 59991" transform="translate(1.875 2.351)">
              <path id="Trazado_110251" data-name="Trazado 110251" d="M295.885,89.994l3.076-.344,11.752,4.737a3.268,3.268,0,0,1,3.092,3.2l-.1,38.275a10.721,10.721,0,0,1-2.069,6.91l-1.654,2.181a8.662,8.662,0,0,1-14.476-.919,4.092,4.092,0,0,1-.415-.983,8.722,8.722,0,0,1-.176-.863,27.165,27.165,0,0,1-.367-5.744c-.208-3.379-.28-4.793-.28-4.737s-7.19-.8-9.139-10.066c-.967-4.594-1.118-12.191-1.039-18.422C284.157,97.591,288.967,89.986,295.885,89.994Z" transform="translate(-284.067 -89.65)" fill="#ffbf9d"/>
              <path id="Trazado_110252" data-name="Trazado 110252" d="M286.89,115.424a1.2,1.2,0,0,0,1.206,1.15,1.15,1.15,0,0,0,1.182-1.142,1.2,1.2,0,0,0-1.214-1.142,1.134,1.134,0,0,0-1.174,1.134Z" transform="translate(-284.635 -94.605)" fill="#344154"/>
              <path id="Trazado_110253" data-name="Trazado 110253" d="M301.84,114.492a1.2,1.2,0,0,0,1.214,1.142,1.134,1.134,0,0,0,1.174-1.134,1.2,1.2,0,0,0-1.206-1.15,1.15,1.15,0,0,0-1.182,1.142Z" transform="translate(-287.641 -94.416)" fill="#344154"/>
              <path id="Trazado_110254" data-name="Trazado 110254" d="M286.324,111.064c.16.152,1.031-.567,2.309-.623s2.261.535,2.4.367-.1-.344-.527-.623a3.252,3.252,0,0,0-1.925-.487,3.14,3.14,0,0,0-1.829.687C286.364,110.737,286.244,111,286.324,111.064Z" transform="translate(-284.516 -93.681)" fill="#344154"/>
              <path id="Trazado_110255" data-name="Trazado 110255" d="M301.584,110.216c.16.144,1.015-.591,2.293-.687s2.277.463,2.4.3-.1-.344-.543-.607a3.2,3.2,0,0,0-1.933-.431,3.132,3.132,0,0,0-1.806.743C301.616,109.865,301.5,110.152,301.584,110.216Z" transform="translate(-287.585 -93.496)" fill="#344154"/>
              <path id="Trazado_110256" data-name="Trazado 110256" d="M296.166,120.427a7.79,7.79,0,0,0-2.1-.272c-.336,0-.647-.072-.711-.288a1.726,1.726,0,0,1,.168-.991l.847-2.54a43.858,43.858,0,0,0,1.853-6.647,43.921,43.921,0,0,0-2.4,6.479l-.8,2.556a1.933,1.933,0,0,0-.1,1.3.8.8,0,0,0,.559.447,2.492,2.492,0,0,0,.559.056A8.7,8.7,0,0,0,296.166,120.427Z" transform="translate(-285.835 -93.68)" fill="#344154"/>
              <path id="Trazado_110257" data-name="Trazado 110257" d="M296.88,141.217a23.647,23.647,0,0,0,12.295-3.947s-2.812,6.6-12.2,6.175Z" transform="translate(-286.644 -99.227)" fill="#ff9a6c"/>
              <path id="Trazado_110258" data-name="Trazado 110258" d="M297.884,126.755a2.3,2.3,0,0,1,2.029-.967,2.125,2.125,0,0,1,1.5.711,1.342,1.342,0,0,1,.176,1.526,1.6,1.6,0,0,1-1.662.511,4.874,4.874,0,0,1-1.694-.895,1.4,1.4,0,0,1-.383-.367.439.439,0,0,1,0-.479" transform="translate(-286.825 -96.917)" fill="#ff9a6c"/>
              <path id="Trazado_110259" data-name="Trazado 110259" d="M300.832,124c-.208,0-.144,1.4-1.286,2.445s-2.636.967-2.636,1.166.344.256.975.24a3.491,3.491,0,0,0,2.2-.895,3.076,3.076,0,0,0,.991-2.045C301.1,124.328,300.928,124,300.832,124Z" transform="translate(-286.65 -96.558)" fill="#344154"/>
              <path id="Trazado_110260" data-name="Trazado 110260" d="M301.584,104.351c.192.312,1.262-.12,2.6-.264s2.5,0,2.6-.352c.048-.16-.216-.439-.719-.663a4.154,4.154,0,0,0-2.061-.28,3.994,3.994,0,0,0-1.909.743C301.672,103.871,301.5,104.2,301.584,104.351Z" transform="translate(-287.586 -92.287)" fill="#344154"/>
              <path id="Trazado_110261" data-name="Trazado 110261" d="M285.989,104.954c.24.28,1.111-.072,2.173-.136s1.981.1,2.173-.216c.08-.16-.072-.439-.479-.7a3,3,0,0,0-1.8-.391,2.956,2.956,0,0,0-1.7.671C285.989,104.507,285.869,104.811,285.989,104.954Z" transform="translate(-284.444 -92.436)" fill="#344154"/>
              <path id="Trazado_110262" data-name="Trazado 110262" d="M319,118.521c0-.687.687-2.4,1.366-2.508,1.813-.375,5.121-.391,5.384,4.25.359,6.343-6.087,5.4-6.111,5.217S319.128,120.917,319,118.521Z" transform="translate(-291.093 -94.922)" fill="#ffbf9d"/>
              <path id="Trazado_110263" data-name="Trazado 110263" d="M322.066,123.47a2.13,2.13,0,0,0,.3.152,1.119,1.119,0,0,0,.8,0,2.752,2.752,0,0,0,1.126-2.524,3.6,3.6,0,0,0-.4-1.6,1.3,1.3,0,0,0-.879-.8.575.575,0,0,0-.639.344c-.072.184,0,.3-.056.32s-.144-.1-.1-.367a.679.679,0,0,1,.224-.407.839.839,0,0,1,.6-.2,1.6,1.6,0,0,1,1.214.919,3.755,3.755,0,0,1,.479,1.75c0,1.278-.551,2.516-1.454,2.828a1.2,1.2,0,0,1-1.023-.1C322.089,123.622,322.01,123.486,322.066,123.47Z" transform="translate(-291.706 -95.43)" fill="#ff9a6c"/>
            </g>
            <path id="Trazado_110264" data-name="Trazado 110264" d="M314.89,103.15c.447-2.532-.5-6.08-1.158-8.548a9.307,9.307,0,0,0-3.827-4.993,15.474,15.474,0,0,0-9.587-2.892l-1.27.423c-1.877-.152-3.883.24-4.913,1.758h-.04V87.2a12.557,12.557,0,0,0-8.38,5.5,29.771,29.771,0,0,0-3.994,9.459,104.3,104.3,0,0,0,12.239-12.327c3.675,4.793,9.1,7.877,14.052,11.464a18.327,18.327,0,0,1,1.094,7.286c0,6.231,1.318,11.863,1.806,18.087.28,3.587.256,6.655,3.923,6.343C315.369,121.517,312.916,114.439,314.89,103.15Z" transform="translate(-281.72 -86.707)" fill="#344154"/>
          </g>
          <path id="Trazado_110265" data-name="Trazado 110265" d="M325.483,106.212a5.942,5.942,0,0,1-1.758.32,17.167,17.167,0,0,1-4.322-.168,20.374,20.374,0,0,1-4.146-1.2,6.758,6.758,0,0,1-1.6-.8c.056-.144,2.54,1.015,5.816,1.6A36.986,36.986,0,0,0,325.483,106.212Z" transform="translate(-286.335 -87.711)" fill="#5e6178"/>
          <path id="Trazado_110266" data-name="Trazado 110266" d="M321.3,100.013a5.593,5.593,0,0,1-1.015-.064c-.655-.064-1.6-.2-2.74-.415A46.711,46.711,0,0,1,300.7,92.7c-.975-.647-1.742-1.2-2.253-1.6a4.992,4.992,0,0,1-.8-.655,4.684,4.684,0,0,1,.863.527c.543.367,1.334.879,2.317,1.494a55.475,55.475,0,0,0,8.085,4.106,54.328,54.328,0,0,0,8.668,2.684c1.134.248,2.053.431,2.7.543A4.265,4.265,0,0,1,321.3,100.013Z" transform="translate(-283.115 -84.914)" fill="#5e6178"/>
          <path id="Trazado_110267" data-name="Trazado 110267" d="M283.194,103.34a12.071,12.071,0,0,1-3.2,3.116c-.08-.088.575-.847,1.462-1.71a6.345,6.345,0,0,1,1.734-1.406Z" transform="translate(-279.564 -87.507)" fill="#5e6178"/>
        </g>
        <g id="Grupo_59995" data-name="Grupo 59995" transform="translate(21.378 51.663)">
          <path id="Trazado_110268" data-name="Trazado 110268" d="M280.165,154.493c.7-1.238.168-6.3.168-6.3l-1.638,2.964c-3.483,1.35-8.26,3.275-9.587,4.218-2.013,1.406-4.721,7.334-4.721,7.334L247.65,183.94l-31.4-5.5L213.29,194.19l10.6,2.2,18.622,2.4c5.233,1.126,10.322,1.542,14.42-1.893l.288-.543c-1.486,21.17.551,44.514,1.254,65.724a11.328,11.328,0,0,0,.879,4.849c1.071,2.093,5.033,3.2,7.358,2.892s1.6-1.8,2.093-4.1c.264-1.254-.9-3-1.063-4.266q-3.427-27.633-6.846-55.275c-.072-1.134-.152-2.181-.224-3.124-.8-9.738-.927-12.367-.5-16.825C260.8,179.346,275.371,162.857,280.165,154.493Z" transform="translate(-213.29 -148.19)" fill="#9d978d"/>
          <path id="Trazado_110269" data-name="Trazado 110269" d="M273.37,173.3a5.073,5.073,0,0,1-.471.959c-.344.591-.8,1.478-1.326,2.58a43.935,43.935,0,0,0-3.2,8.979,44.549,44.549,0,0,0-1.142,9.459v2.9a4.556,4.556,0,0,1,0,1.063,5.913,5.913,0,0,1-.16-1.055,28.6,28.6,0,0,1-.176-2.908,39.867,39.867,0,0,1,1.038-9.587,39.452,39.452,0,0,1,3.315-9.019,26.953,26.953,0,0,1,1.446-2.524,5.3,5.3,0,0,1,.671-.847Z" transform="translate(-224.071 -153.24)" fill="#344154"/>
          <g id="Grupo_59994" data-name="Grupo 59994" transform="translate(40.683 23.727)" opacity="0.3">
            <path id="Trazado_110270" data-name="Trazado 110270" d="M270.626,177.89a36.91,36.91,0,0,0-5.792,11.528c-1.078,4.178-.4,6.559-.5,10.961l2.524.567C266.3,193.061,266.56,187.86,270.626,177.89Z" transform="translate(-264.215 -177.89)" fill="#d9a171"/>
          </g>
          <path id="Trazado_110271" data-name="Trazado 110271" d="M271.078,184.2a2.309,2.309,0,0,1,0-.415c.048-.264.072-.671.2-1.174a32.118,32.118,0,0,1,1.278-4.178,122.7,122.7,0,0,1,5.96-13.1c.735-1.422,1.462-2.8,2.181-4.106l.056-.1h.12l2.644-.048-.176.272a2.628,2.628,0,0,0-1.022-1.158l-.192-.112.144-.168a61.29,61.29,0,0,1,5.672-5.952c.735-.679,1.334-1.19,1.75-1.534a4.38,4.38,0,0,1,.663-.5,4.383,4.383,0,0,1-.583.583l-1.678,1.6a74.016,74.016,0,0,0-5.536,6.032l-.048-.28a2.987,2.987,0,0,1,1.19,1.318l.12.272h-.3l-2.644.064.176-.1c-.711,1.3-1.438,2.684-2.173,4.1-2.564,4.993-4.721,9.587-6.056,13.014a40.637,40.637,0,0,0-1.4,4.114,13.077,13.077,0,0,1-.352,1.558Z" transform="translate(-224.91 -148.942)" fill="#344154"/>
        </g>
        <g id="Grupo_59997" data-name="Grupo 59997" transform="translate(97.629 267.666)">
          <path id="Trazado_110272" data-name="Trazado 110272" d="M310.522,428.013l10.306,16.577s-13.4,16.042-11.792,19.293L341.9,445.061,326.915,418.57Z" transform="translate(-308.77 -418.57)" fill="#d9a171"/>
          <path id="Trazado_110273" data-name="Trazado 110273" d="M335.254,442.07a1.55,1.55,0,0,1,1.805,1,1.494,1.494,0,0,1-.983,1.8,1.6,1.6,0,0,1-1.9-1.07,1.55,1.55,0,0,1,1.222-1.758" transform="translate(-313.849 -423.289)" fill="#839eb6"/>
          <g id="Grupo_59996" data-name="Grupo 59996" transform="translate(0 23.879)" opacity="0.6">
            <path id="Trazado_110274" data-name="Trazado 110274" d="M341.869,451.072l-1.6-2.612-30.925,19.021s-1.1,1.47-.344,2.4Z" transform="translate(-308.736 -448.46)" fill="#fff"/>
          </g>
          <path id="Trazado_110275" data-name="Trazado 110275" d="M323,451.114c.1.152.943-.232,2.029-.168s1.885.5,2,.351-.655-.943-1.973-1S322.911,450.986,323,451.114Z" transform="translate(-311.603 -424.951)" fill="#344154"/>
          <path id="Trazado_110276" data-name="Trazado 110276" d="M319.749,455.479c.048.176.9.056,1.837.415s1.5,1,1.654.9-.264-1.071-1.43-1.5S319.661,455.327,319.749,455.479Z" transform="translate(-310.95 -425.92)" fill="#344154"/>
          <path id="Trazado_110277" data-name="Trazado 110277" d="M319.534,461.61c.168-.048-.072-.983-.983-1.6s-1.869-.567-1.861-.391.743.375,1.486.919S319.334,461.682,319.534,461.61Z" transform="translate(-310.336 -426.803)" fill="#344154"/>
          <path id="Trazado_110278" data-name="Trazado 110278" d="M320.623,445.76c.144.1.759-.535,1.7-.991s1.813-.575,1.813-.8-1-.367-2.1.192S320.471,445.68,320.623,445.76Z" transform="translate(-311.121 -423.639)" fill="#344154"/>
        </g>
        <g id="Grupo_59999" data-name="Grupo 59999" transform="translate(82.322 283.468)">
          <path id="Trazado_110279" data-name="Trazado 110279" d="M308.07,438.8l1.11,19.493s-19.437,7.669-19.581,11.3l37.867-.8-.487-30.437Z" transform="translate(-289.581 -438.35)" fill="#d9a171"/>
          <path id="Trazado_110280" data-name="Trazado 110280" d="M328.268,460.993a1.542,1.542,0,0,1,1.11,1.742,1.494,1.494,0,0,1-1.718,1.11,1.638,1.638,0,0,1-1.166-1.853,1.55,1.55,0,0,1,1.917-.959" transform="translate(-296.996 -442.898)" fill="#839eb6"/>
          <g id="Grupo_59998" data-name="Grupo 59998" transform="translate(0 27.37)" opacity="0.6">
            <path id="Trazado_110281" data-name="Trazado 110281" d="M327.462,475.678l-.176-3.068-36.237,1.909s-1.67.8-1.454,1.957Z" transform="translate(-289.576 -472.61)" fill="#fff"/>
          </g>
          <path id="Trazado_110282" data-name="Trazado 110282" d="M313.34,463.032c0,.184.935.256,1.853.8s1.43,1.342,1.6,1.262-.136-1.142-1.262-1.814S313.292,462.864,313.34,463.032Z" transform="translate(-294.355 -443.276)" fill="#344154"/>
          <path id="Trazado_110283" data-name="Trazado 110283" d="M308.41,465.22c-.04.184.8.479,1.414,1.246s.839,1.6,1.023,1.6.28-1.063-.535-2S308.41,465.028,308.41,465.22Z" transform="translate(-293.363 -443.738)" fill="#344154"/>
          <path id="Trazado_110284" data-name="Trazado 110284" d="M305.322,470.455c.168.04.407-.895-.088-1.893s-1.366-1.39-1.446-1.23.471.687.871,1.51S305.138,470.439,305.322,470.455Z" transform="translate(-292.433 -444.172)" fill="#344154"/>
          <path id="Trazado_110285" data-name="Trazado 110285" d="M313.638,457.312c.08.168.919-.1,1.965-.056s1.869.359,1.965.2-.7-.8-1.941-.847S313.542,457.169,313.638,457.312Z" transform="translate(-294.414 -442.022)" fill="#344154"/>
        </g>
        <g id="Grupo_60001" data-name="Grupo 60001" transform="translate(71.75 133.701)">
          <g id="Grupo_60000" data-name="Grupo 60000">
            <path id="Trazado_110286" data-name="Trazado 110286" d="M277.171,256.68s-1.742,82.932-.176,88.676,33.625,64.438,33.625,64.438l19.333-9.491-25.644-61.985,5.656-79.689Z" transform="translate(-276.342 -252.046)" fill="#344154"/>
            <path id="Trazado_110287" data-name="Trazado 110287" d="M319.829,250.88s11.121,18.159,9.155,29.047c-.8,4.466-6.894,14.38-6.894,14.38v53.174l4.7,70.973H304.275L294.6,355.869a51.109,51.109,0,0,1-4.7-10.7c-1.3-4.953-5.6-63.575-5.6-63.575l-6.743-23.831Z" transform="translate(-276.587 -250.88)" fill="#344154"/>
            <path id="Trazado_110288" data-name="Trazado 110288" d="M336.412,413.69a8.968,8.968,0,0,0,0,1.494c0,.959.1,2.349.192,4.066.2,3.427.535,8.157.935,13.381s.735,9.954.959,13.381c.112,1.654.2,3.02.272,4.058a8.744,8.744,0,0,0,.152,1.486,9.057,9.057,0,0,0,0-1.494c0-.959-.048-2.349-.12-4.066-.136-3.435-.423-8.173-.8-13.4s-.8-9.874-1.063-13.373c-.144-1.654-.256-3.02-.344-4.05A9.269,9.269,0,0,0,336.412,413.69Z" transform="translate(-288.417 -283.624)" fill="#5e6178"/>
          </g>
          <path id="Trazado_110289" data-name="Trazado 110289" d="M322.163,262.509a3.288,3.288,0,0,1-.6.679,13.205,13.205,0,0,1-1.941,1.6,15.411,15.411,0,0,1-15.714.927,13.58,13.58,0,0,1-2.109-1.334,3.372,3.372,0,0,1-.679-.607,33.173,33.173,0,0,0,2.916,1.67,15.89,15.89,0,0,0,15.426-.943C321.22,263.4,322.107,262.445,322.163,262.509Z" transform="translate(-281.326 -253.218)" fill="#5e6178"/>
          <path id="Trazado_110290" data-name="Trazado 110290" d="M286.26,283.39a1.292,1.292,0,0,1,.04.3c0,.216.048.5.072.863.064.8.144,1.885.248,3.307.2,2.9.479,7.054.8,12.175.727,10.274,1.6,24.486,3,40.136.184,2.133.4,4.242.639,6.3.136,1.023.248,2.053.471,3.02a24.952,24.952,0,0,0,.943,2.86c1.39,3.747,2.876,7.286,4.3,10.593v.024c1.494,9.643,2.764,17.791,3.667,23.559.463,2.852.8,5.113,1.094,6.687.128.759.232,1.342.312,1.774s.136.591.128.6a5.725,5.725,0,0,1-.192-.591c-.088-.391-.224-.983-.367-1.758-.312-1.542-.711-3.8-1.206-6.671-.983-5.736-2.3-13.885-3.819-23.543v.048c-1.438-3.307-2.932-6.838-4.338-10.6a25.56,25.56,0,0,1-.951-2.892,30.939,30.939,0,0,1-.487-3.084c-.248-2.069-.455-4.17-.647-6.311-1.374-15.666-2.229-29.878-2.876-40.16l-.639-12.151c-.072-1.422-.12-2.532-.16-3.315v-.863a1.4,1.4,0,0,1-.032-.3Z" transform="translate(-278.337 -257.418)" fill="#5e6178"/>
        </g>
        <g id="Grupo_60005" data-name="Grupo 60005" transform="translate(61.171 45.824)">
          <path id="Trazado_110291" data-name="Trazado 110291" d="M291.462,151.544s-.24,3.635,2.716,3.635c4.154,0,12.87-7.989,12.87-7.989l-16.777,40.04v48.452l-14.212,1.47s-1.662-.24-2.005-2.644c-.663-4.689-.567-13.238-1.11-16.777-1.694-10.937-5.017-16.9-4.546-25.564.7-12.886,18.83-35.111,18.83-35.111Z" transform="translate(-264.156 -142.149)" fill="#fff"/>
          <path id="Trazado_110292" data-name="Trazado 110292" d="M310.757,140.88a108.649,108.649,0,0,1-7.014,11.36c-3.619,5.041-26.6,40.232-26.6,40.232l9.187,71.4,1.015,6.048a3.02,3.02,0,0,0,3.611,2.461l40.583-7.134a3.683,3.683,0,0,0,2.884-4.705L316.3,209.632,328,164.439s-.431-6.583-7.557-13.261c-1.358-1.27-6.958-5.912-7.877-7.19Z" transform="translate(-265.924 -140.88)" fill="#e2dacc"/>
          <g id="Grupo_60002" data-name="Grupo 60002" transform="translate(13.445 68.752)" opacity="0.3">
            <path id="Trazado_110293" data-name="Trazado 110293" d="M280.593,232.229s18.678,14.811,27.769,14.947,13.821-7.557,13.821-7.557l-18.286.5L279.93,226.94Z" transform="translate(-279.93 -226.94)" fill="#d9a171"/>
          </g>
          <path id="Trazado_110294" data-name="Trazado 110294" d="M263.39,204.218s16.857,11.128,19.972,13.246,17.823,10.649,19.74,11.264,13.821.7,15.978-3.347,3.659-12.67,3.659-12.67l2.868-40.384a16.3,16.3,0,0,0-2.9-10.561c-1.75-2.461-4.05-4.681-6.543-4.306-5.3.8-16.777,13.637-16.185,20.236s.567,24.973.567,24.973l-30.07-9.954Z" transform="translate(-263.158 -144.206)" fill="#e2dacc"/>
          <path id="Trazado_110295" data-name="Trazado 110295" d="M322.673,162.84s.2.256.543.8a14.018,14.018,0,0,1,1.278,2.453,15.975,15.975,0,0,1,1.1,4.314,33.046,33.046,0,0,1-.136,6.016c-.623,9-1.51,21.81-2.572,37.124h0q-.455,2.58-1.1,5.225a45.894,45.894,0,0,1-1.6,5.321,11.374,11.374,0,0,1-1.27,2.58,6.529,6.529,0,0,1-2.309,1.837,18.127,18.127,0,0,1-5.7,1.686,24.636,24.636,0,0,1-6.1.16,8.309,8.309,0,0,1-3.028-.8c-.935-.463-1.837-.975-2.756-1.478q-5.488-3.068-11.073-6.391c-4.458-2.588-8.6-5.512-12.726-8.2l-11.983-7.989-.152-.1.1-.16,7.094-11.7.072-.128.144.048,30.062,10.186-.176.12c.615-7.5,1.1-13.477,1.438-17.575.176-2.029.312-3.611.407-4.689.048-.519.088-.919.112-1.206s.048-.407.048-.407a3.9,3.9,0,0,1,0,.407c0,.288-.048.687-.08,1.214-.072,1.078-.184,2.66-.328,4.7-.312,4.114-.759,10.09-1.318,17.575v.176l-.168-.056-30.11-10.1.224-.088q-3.387,5.592-7.078,11.7l-.056-.264,11.983,7.949c4.138,2.7,8.26,5.592,12.718,8.2,3.715,2.213,7.406,4.362,11.057,6.391.911.5,1.821,1.015,2.74,1.47a7.87,7.87,0,0,0,2.892.8,23.841,23.841,0,0,0,5.992-.152,17.68,17.68,0,0,0,5.592-1.638,6.008,6.008,0,0,0,2.173-1.718,10.494,10.494,0,0,0,1.23-2.493,45.136,45.136,0,0,0,1.6-5.265c.439-1.758.8-3.5,1.11-5.2h0c1.126-15.315,2.069-28.121,2.724-37.116a33.2,33.2,0,0,0,.192-5.984,16.116,16.116,0,0,0-1.047-4.29,15.442,15.442,0,0,0-1.222-2.461c-.152-.272-.3-.463-.375-.6a1.224,1.224,0,0,0-.168-.2Z" transform="translate(-263.1 -145.296)" fill="#344154"/>
          <path id="Trazado_110296" data-name="Trazado 110296" d="M283.55,185.335a3.922,3.922,0,0,1,.359-.439L285,183.722l3.994-4.346,6-6.391c2.293-2.4,4.793-5.057,7.645-7.605v.3l-.24-.272-2.029-2.245-.336-.367h.5l3.755.192-.184.1,7.557-13.158,2.237-3.819.615-1.015a1.646,1.646,0,0,1,.24-.344,1.788,1.788,0,0,1-.176.376l-.551,1.055c-.527.943-1.246,2.253-2.141,3.875l-7.43,13.261-.064.112h-.12l-3.763-.184.168-.352,2.021,2.245.248.272.144.152-.168.144c-2.844,2.509-5.329,5.193-7.637,7.549l-6.055,6.343c-1.726,1.813-3.124,3.259-4.106,4.25-.5.5-.879.879-1.15,1.126a2.118,2.118,0,0,1-.423.352Z" transform="translate(-267.213 -141.66)" fill="#344154"/>
          <g id="Grupo_60003" data-name="Grupo 60003" transform="translate(14.987 19.293)" opacity="0.3">
            <path id="Trazado_110297" data-name="Trazado 110297" d="M281.86,191.649,304.716,170.1l-1.941-2.125h1.941l.511-2.948-1.286,2.269-3.755-.192,2.213,2.037-18.981,20.068Z" transform="translate(-281.86 -165.03)" fill="#d9a171"/>
          </g>
          <path id="Trazado_110298" data-name="Trazado 110298" d="M299.93,267.53a1.961,1.961,0,0,1,.375-.1l1.166-.248,4.41-.927,15.4-3.132h.136l.072.12,4.242,6.91.16.256-.3.056-.5.1-22.457,4.218h-.12l-.04-.112c-.8-2.221-1.454-3.994-1.909-5.273l-.5-1.39a2.878,2.878,0,0,1-.144-.463s.08.176.216.5.328.8.559,1.4c.5,1.238,1.174,2.972,2.029,5.137l-.152-.088,22.433-4.354.5-.1-.136.312-4.234-6.918.208.1-15.291,2.908-4.482.8-1.214.216Z" transform="translate(-270.507 -165.464)" fill="#344154"/>
          <g id="Grupo_60004" data-name="Grupo 60004" transform="translate(29.679 102.737)" opacity="0.3">
            <path id="Trazado_110299" data-name="Trazado 110299" d="M300.25,269.48l1.614,8.388,23.264-4.194-.647-1.949-21.81,4.162Z" transform="translate(-300.25 -269.48)" fill="#d9a171"/>
          </g>
          <path id="Trazado_110300" data-name="Trazado 110300" d="M315.7,221.1c-.112.056-1.086-1.861-2.82-3.819s-3.507-3.2-3.435-3.283A14.044,14.044,0,0,1,315.7,221.1Z" transform="translate(-272.421 -155.586)" fill="#344154"/>
        </g>
        <g id="Grupo_60008" data-name="Grupo 60008" transform="translate(0 79.349)">
          <g id="Grupo_60006" data-name="Grupo 60006">
            <path id="Trazado_110301" data-name="Trazado 110301" d="M207.221,188.841s-5.832-3.491-8.157-5.728c0,0-3.4-1.071-4.961,1.07,0,0-3.587.991-4.074,1.662s-3.5,5.329-3.5,5.329,1.6,5.552,1.75,5.832c.3.607.943,1.246,1.494.583a1.246,1.246,0,0,0,.264-.8v-.368l.871-.615s.391,2.157,1.558,1.821a20,20,0,0,0,3.787-2.277s3.691,2.1,5.632,2.317a60.9,60.9,0,0,1,6.391,1.43l1.957-10.537Z" transform="translate(-186.53 -182.845)" fill="#ffbf9d"/>
            <path id="Trazado_110302" data-name="Trazado 110302" d="M190.362,197.771a.5.5,0,0,1-.463.088,1.174,1.174,0,0,1-.8-.959,17.192,17.192,0,0,1,0-4.058,37.061,37.061,0,0,1,.639-3.994,6.59,6.59,0,0,1,.439-1.6c.136,0-.32,2.532-.663,5.632a24.473,24.473,0,0,0-.144,3.954,1.023,1.023,0,0,0,.591.863C190.186,197.8,190.346,197.739,190.362,197.771Z" transform="translate(-187.023 -183.731)" fill="#ff9a6c"/>
            <path id="Trazado_110303" data-name="Trazado 110303" d="M198.355,189a4.634,4.634,0,0,1-2.756,1.27l.168-.152-.048.208a12.67,12.67,0,0,1-.959,3.084,12.671,12.671,0,0,1,.551-3.2l.056-.208v-.136h.136a22.673,22.673,0,0,0,2.852-.871Z" transform="translate(-188.185 -184.083)" fill="#ff9a6c"/>
          </g>
          <g id="Grupo_60007" data-name="Grupo 60007" transform="translate(4.146 4.214)">
            <path id="Trazado_110304" data-name="Trazado 110304" d="M202.475,189.716a2.836,2.836,0,0,0-3.2-.655l-.615.8-4.6,3.843A7.055,7.055,0,0,0,192,196.019a2.4,2.4,0,0,0,.487,2.86c.935.719,2.333.312,3.259-.431s1.6-1.774,2.532-2.477c1.486-1.094,3.643-1.39,4.562-2.988A2.852,2.852,0,0,0,202.475,189.716Z" transform="translate(-191.722 -188.262)" fill="#ffbf9d"/>
            <path id="Trazado_110305" data-name="Trazado 110305" d="M198.926,188.12a2.572,2.572,0,0,1-.407,1.678,6.335,6.335,0,0,1-1.158,1.486,15.232,15.232,0,0,1-1.8,1.4,11.185,11.185,0,0,0-3.044,2.612,9.944,9.944,0,0,0-.8,1.47,2.708,2.708,0,0,1,.535-1.638,6.9,6.9,0,0,1,1.23-1.422,19.307,19.307,0,0,1,1.821-1.366A17.227,17.227,0,0,0,197.088,191a6.863,6.863,0,0,0,1.158-1.358,7.989,7.989,0,0,0,.679-1.526Z" transform="translate(-191.72 -188.12)" fill="#ff9a6c"/>
          </g>
        </g>
        <g id="Grupo_60009" data-name="Grupo 60009" transform="translate(34.504 90.729)">
          <path id="Trazado_110306" data-name="Trazado 110306" d="M229.72,208.386s.16-5.728,1.6-7.422,9.922-3.875,9.922-3.875l21.282,4.937-4.945,7.989-1.494-1.406s-6.7,2.013-10.01,1.286a36.582,36.582,0,0,1-5.808-1.774l-3.467.248s-2.5,2.58-3.307,2.58-1.694-.727-1.286-1.534l-.727-1.214S230.04,209.105,229.72,208.386Z" transform="translate(-229.72 -197.09)" fill="#ffbf9d"/>
          <path id="Trazado_110307" data-name="Trazado 110307" d="M241.51,206.227a3.459,3.459,0,0,1-1.518.519,26.079,26.079,0,0,0-3.715.727,5.185,5.185,0,0,0-2.668,2.445,9.345,9.345,0,0,1-.8,1.374,4.385,4.385,0,0,1,.543-1.51,6.631,6.631,0,0,1,.967-1.478,4.538,4.538,0,0,1,1.813-1.214,16.854,16.854,0,0,1,3.811-.631C240.951,206.347,241.494,206.171,241.51,206.227Z" transform="translate(-230.341 -198.925)" fill="#ff9a6c"/>
          <path id="Trazado_110308" data-name="Trazado 110308" d="M239.6,200.917c0,.056-.679.176-1.726.543a16.773,16.773,0,0,0-1.813.727,9.043,9.043,0,0,0-2.013,1.2,4.347,4.347,0,0,0-.679.967q-.312.519-.551,1.007a10.538,10.538,0,0,0-.7,1.805c-.28,1.071-.232,1.774-.3,1.774a3.611,3.611,0,0,1,0-1.837,8.939,8.939,0,0,1,.623-1.909c.16-.344.344-.7.551-1.047a4.6,4.6,0,0,1,.751-1.07,8.6,8.6,0,0,1,2.141-1.238,13.326,13.326,0,0,1,1.877-.655A4.474,4.474,0,0,1,239.6,200.917Z" transform="translate(-230.118 -197.858)" fill="#ff9a6c"/>
        </g>
      </g>
    </g>
    <g id="Grupo_60012" data-name="Grupo 60012" transform="translate(109.936 107.68)">
      <path id="Trazado_110309" data-name="Trazado 110309" d="M139.021,136.544h-.9l-3.435-5.249v5.249h-.9V129.73h.9l3.443,5.281V129.73h.895Z" transform="translate(-133.78 -129.323)" fill="#f2e9e4"/>
      <path id="Trazado_110310" data-name="Trazado 110310" d="M141.88,133.838a2.932,2.932,0,0,1,.3-1.342,2.165,2.165,0,0,1,.8-.919,2.245,2.245,0,0,1,1.2-.32,2.141,2.141,0,0,1,1.67.711,2.788,2.788,0,0,1,.639,1.909v.056a3.116,3.116,0,0,1-.28,1.334,2.149,2.149,0,0,1-.8.911,2.189,2.189,0,0,1-1.206.328,2.141,2.141,0,0,1-1.67-.711,2.764,2.764,0,0,1-.639-1.9Zm.871.1a2.157,2.157,0,0,0,.391,1.358,1.254,1.254,0,0,0,1.047.511,1.238,1.238,0,0,0,1.047-.519,2.4,2.4,0,0,0,.391-1.446,2.157,2.157,0,0,0-.4-1.35,1.31,1.31,0,0,0-2.085,0,2.317,2.317,0,0,0-.368,1.478Zm1.821-4.713h1.047l-1.246,1.422h-.7Z" transform="translate(-135.409 -129.22)" fill="#f2e9e4"/>
      <path id="Trazado_110311" data-name="Trazado 110311" d="M149.8,131.9v.567a1.853,1.853,0,0,1,1.5-.655,1.446,1.446,0,0,1,1.446.8,1.869,1.869,0,0,1,1.6-.8c1.11,0,1.678.583,1.694,1.766v3.387h-.863v-3.339a1.174,1.174,0,0,0-.248-.8,1.186,1.186,0,0,0-1.973.8v3.355h-.839v-3.315a.967.967,0,0,0-1.079-1.1,1.158,1.158,0,0,0-1.166.727v3.691H149v-5.065Z" transform="translate(-136.841 -129.739)" fill="#f2e9e4"/>
      <path id="Trazado_110312" data-name="Trazado 110312" d="M159.53,130.112a.543.543,0,0,1,.128-.352.583.583,0,0,1,.8,0,.511.511,0,0,1,.136.352.479.479,0,0,1-.136.351.583.583,0,0,1-.8,0A.511.511,0,0,1,159.53,130.112Zm.943,6.391H159.6v-5.065h.871Z" transform="translate(-138.959 -129.297)" fill="#f2e9e4"/>
      <path id="Trazado_110313" data-name="Trazado 110313" d="M163.243,131.9v.639a1.837,1.837,0,0,1,1.518-.727c1.07,0,1.6.6,1.6,1.813v3.339h-.871v-3.347a1.142,1.142,0,0,0-.248-.8,1.015,1.015,0,0,0-.8-.264,1.254,1.254,0,0,0-.743.224,1.6,1.6,0,0,0-.5.591v3.6h-.863v-5.065Z" transform="translate(-139.524 -129.741)" fill="#f2e9e4"/>
      <path id="Trazado_110314" data-name="Trazado 110314" d="M172.177,136.962a1.837,1.837,0,0,1-.12-.527,1.925,1.925,0,0,1-1.438.623,1.758,1.758,0,0,1-1.23-.423,1.366,1.366,0,0,1-.479-1.07,1.43,1.43,0,0,1,.6-1.23,2.812,2.812,0,0,1,1.694-.439h.839v-.4a.975.975,0,0,0-.264-.719,1.1,1.1,0,0,0-.8-.272,1.294,1.294,0,0,0-.8.232.7.7,0,0,0-.312.567h-.887a1.158,1.158,0,0,1,.272-.727,1.725,1.725,0,0,1,.727-.559,2.4,2.4,0,0,1,1.015-.208,1.965,1.965,0,0,1,1.366.439,1.6,1.6,0,0,1,.519,1.2v2.333a2.836,2.836,0,0,0,.176,1.11v.072Zm-1.43-.655a1.47,1.47,0,0,0,.8-.216,1.191,1.191,0,0,0,.527-.543v-1.039h-.7c-1.063,0-1.6.312-1.6.927a.8.8,0,0,0,.272.639,1.063,1.063,0,0,0,.671.232Z" transform="translate(-140.845 -129.74)" fill="#f2e9e4"/>
    </g>
  </g>
</svg>
