<svg xmlns="http://www.w3.org/2000/svg" width="125" height="124" viewBox="0 0 125 124">
  <g id="Grupo_57477" data-name="Grupo 57477" transform="translate(-406.154 -4236.921)">
    <g id="Grupo_57473" data-name="Grupo 57473" transform="translate(406.154 4236.921)">
      <rect id="Rectángulo_5871" data-name="Rectángulo 5871" width="125" height="124" fill="#344154" opacity="0"/>
      <path id="Trazado_105605" data-name="Trazado 105605" d="M527.15,4307.163c0,28.274-23.145,51.194-51.694,51.194s-51.694-22.92-51.694-51.194,23.145-51.193,51.694-51.193S527.15,4278.889,527.15,4307.163Z" transform="translate(-412.821 -4244.235)" fill="#344154"/>
    </g>
    <g id="Grupo_57475" data-name="Grupo 57475" transform="translate(438.267 4271.917)">
      <g id="Grupo_57474" data-name="Grupo 57474">
        <path id="Trazado_105606" data-name="Trazado 105606" d="M503.061,4327.781a5.364,5.364,0,0,0,.271-8.272,4.468,4.468,0,0,0-1.658-4.27,4.382,4.382,0,0,0-3.238-.842,6.643,6.643,0,0,0-8.62-5.444,7.07,7.07,0,0,0-11.343,3.02,6.83,6.83,0,0,0-2.721.682,25.024,25.024,0,0,1,6.571-17.321,1.148,1.148,0,0,0-.974-1.917,27.417,27.417,0,0,0-20.8,13.792,1.148,1.148,0,0,0,2,1.123,25.138,25.138,0,0,1,16.093-12.118,27.324,27.324,0,0,0-5.1,18.212c-.023.029-.047.058-.07.085a7.028,7.028,0,0,0-1.214,5.82,4.414,4.414,0,0,0,1.454,8.583h5.452a27.451,27.451,0,0,0,21.6,10.616,25.192,25.192,0,0,1-15.426,6.016,6.238,6.238,0,0,0-5.311-5.859,5.432,5.432,0,0,0-5.107-3.661c-.168,0-.336.007-.5.023a6.43,6.43,0,0,0-10.372-.94,25.232,25.232,0,0,1-1.952-3.2,24.846,24.846,0,0,1-2.554-14.332,1.148,1.148,0,1,0-2.28-.275,27.255,27.255,0,0,0,4.6,18.7,5.08,5.08,0,0,0-2.839,4.553,5.184,5.184,0,0,0,.035.607,6.293,6.293,0,0,0,4.3,10.9h15.747a6.242,6.242,0,0,0,5.9-4.211,27.435,27.435,0,0,0,19.607-8.857,1.148,1.148,0,0,0-.974-1.916,25.174,25.174,0,0,1-21.49-8.164H500.11a4.4,4.4,0,0,0,2.951-1.134Zm-23.95,21.985H463.364a4.011,4.011,0,0,1-4.01-4A3.96,3.96,0,0,1,461,4342.54a1.148,1.148,0,0,0,.427-1.239,2.782,2.782,0,0,1,2.683-3.521c.063,0,.125,0,.187.006a1.149,1.149,0,0,0,1.035-.562,4.137,4.137,0,0,1,7.382.541,1.147,1.147,0,0,0,1.368.672,3.1,3.1,0,0,1,3.9,2.5,1.149,1.149,0,0,0,1.135.976,3.926,3.926,0,1,1,0,7.851Zm-5.4-23.147a2.118,2.118,0,1,1,0-4.237,1.148,1.148,0,0,0,1.076-1.548,5.049,5.049,0,0,1,.5-4.924,4.264,4.264,0,0,1,3.456-1.648c.162,0,.325.007.491.023a1.147,1.147,0,0,0,1.236-.927,4.769,4.769,0,0,1,7.129-3.185,6.652,6.652,0,0,0-2.382,5.083,1.15,1.15,0,0,0,2.3,0,4.351,4.351,0,0,1,2.475-3.91l.035-.015a4.342,4.342,0,0,1,6.167,3.923,4.7,4.7,0,0,1-.037.583,1.148,1.148,0,0,0,1.719,1.132,2.171,2.171,0,0,1,2.411.1,2.381,2.381,0,0,1,.673,2.629,1.148,1.148,0,0,0,.483,1.25,3.071,3.071,0,0,1,.185,5.036c-.03.022-.058.047-.086.072a2.1,2.1,0,0,1-1.433.562Z" transform="translate(-457.057 -4293.409)" fill="#fff"/>
        <path id="Trazado_105607" data-name="Trazado 105607" d="M509.775,4301.293l3.419,1.861,1.862,3.411a1.148,1.148,0,0,0,1.007.6h0a1.149,1.149,0,0,0,1.007-.6l1.865-3.412,3.42-1.861a1.148,1.148,0,0,0,0-2.017l-3.419-1.859L517.071,4294a1.147,1.147,0,0,0-1.007-.6h0a1.148,1.148,0,0,0-1.007.6l-1.862,3.411-3.419,1.858a1.148,1.148,0,0,0,0,2.018Zm4.814-2.019a1.153,1.153,0,0,0,.459-.459l1.017-1.864,1.02,1.865a1.152,1.152,0,0,0,.459.458l1.862,1.011-1.863,1.013a1.149,1.149,0,0,0-.458.458l-1.02,1.864-1.017-1.863a1.147,1.147,0,0,0-.459-.458l-1.863-1.014Z" transform="translate(-476.792 -4293.409)" fill="#fff"/>
        <path id="Trazado_105608" data-name="Trazado 105608" d="M542.661,4315.5l-3.42-1.861-1.865-3.412a1.148,1.148,0,0,0-1.007-.6h0a1.149,1.149,0,0,0-1.008.6l-1.862,3.412-3.419,1.86a1.149,1.149,0,0,0,0,2.018l3.419,1.858,1.862,3.411a1.148,1.148,0,0,0,1.008.6h0a1.149,1.149,0,0,0,1.007-.6l1.865-3.412,3.419-1.858a1.148,1.148,0,0,0,0-2.018Zm-4.813,2.019a1.153,1.153,0,0,0-.459.458l-1.02,1.865-1.017-1.864a1.152,1.152,0,0,0-.459-.458l-1.862-1.012,1.862-1.013a1.15,1.15,0,0,0,.459-.458l1.017-1.863,1.02,1.864a1.152,1.152,0,0,0,.459.458l1.862,1.013Z" transform="translate(-484.481 -4299.549)" fill="#fff"/>
        <path id="Trazado_105609" data-name="Trazado 105609" d="M459.76,4324.414a1.148,1.148,0,0,0,1.544-.5v-.007a1.148,1.148,0,1,0-1.547.51Z" transform="translate(-457.843 -4304.326)" fill="#fff"/>
      </g>
    </g>
    <g id="Grupo_57476" data-name="Grupo 57476" transform="translate(497.423 4251.294)">
      <path id="Trazado_105610" data-name="Trazado 105610" d="M565.113,4270.037h9.381v4.044h-9.381v10.629h-4.3v-10.629h-9.381v-4.044h9.381v-9.82h4.3Z" transform="translate(-551.434 -4260.217)" fill="#6595bf"/>
    </g>
  </g>
</svg>
