<svg xmlns="http://www.w3.org/2000/svg" width="125" height="125" viewBox="0 0 125 125">
  <g id="Grupo_57488" data-name="Grupo 57488" transform="translate(-983.003 -4236.653)">
    <g id="Grupo_57484" data-name="Grupo 57484" transform="translate(983.003 4236.652)">
      <rect id="Rectángulo_5873" data-name="Rectángulo 5873" width="125" height="125" transform="translate(0 0.001)" fill="#5e6178" opacity="0"/>
      <path id="Trazado_105618" data-name="Trazado 105618" d="M1103.6,4307.464a51.5,51.5,0,1,1-51.5-51.5,51.5,51.5,0,0,1,51.5,51.5Z" transform="translate(-989.605 -4243.896)" fill="#f2e9e4"/>
    </g>
    <g id="Grupo_57485" data-name="Grupo 57485" transform="translate(1006.218 4268.35)">
      <path id="Trazado_105619" data-name="Trazado 105619" d="M1053.649,4300.958a1.327,1.327,0,0,0,2.3-1.326l-2.886-5a1.327,1.327,0,0,0-2.3,1.325Z" transform="translate(-1031.561 -4289.845)" fill="#344154" fill-rule="evenodd"/>
      <path id="Trazado_105620" data-name="Trazado 105620" d="M1111.237,4317.548a1.326,1.326,0,0,0,.661-.178l5-2.887a1.327,1.327,0,1,0-1.326-2.3l-5,2.886a1.326,1.326,0,0,0,.664,2.475Z" transform="translate(-1053.808 -4296.609)" fill="#344154" fill-rule="evenodd"/>
      <path id="Trazado_105621" data-name="Trazado 105621" d="M1033.21,4314.483l5,2.886a1.327,1.327,0,1,0,1.326-2.3l-5-2.886a1.327,1.327,0,1,0-1.326,2.3Z" transform="translate(-1024.797 -4296.609)" fill="#344154" fill-rule="evenodd"/>
      <path id="Trazado_105622" data-name="Trazado 105622" d="M1095.914,4301.444a1.326,1.326,0,0,0,1.811-.486l2.886-5a1.327,1.327,0,0,0-2.3-1.325l-2.886,5A1.326,1.326,0,0,0,1095.914,4301.444Z" transform="translate(-1048.311 -4289.845)" fill="#344154" fill-rule="evenodd"/>
      <path id="Trazado_105623" data-name="Trazado 105623" d="M1076.553,4295.8a1.326,1.326,0,0,0,1.326-1.326V4288.7a1.326,1.326,0,1,0-2.652,0v5.775a1.326,1.326,0,0,0,1.326,1.326Z" transform="translate(-1040.802 -4287.369)" fill="#344154" fill-rule="evenodd"/>
      <path id="Trazado_105624" data-name="Trazado 105624" d="M1076.553,4376.694a1.326,1.326,0,0,0-1.326,1.326v5.775a1.326,1.326,0,1,0,2.652,0v-5.775A1.326,1.326,0,0,0,1076.553,4376.694Z" transform="translate(-1040.802 -4320.866)" fill="#344154" fill-rule="evenodd"/>
      <path id="Trazado_105625" data-name="Trazado 105625" d="M1122.371,4336.652H1116.6a1.326,1.326,0,0,0,0,2.651h5.776a1.326,1.326,0,1,0,0-2.651Z" transform="translate(-1055.818 -4305.85)" fill="#344154" fill-rule="evenodd"/>
      <path id="Trazado_105626" data-name="Trazado 105626" d="M1097.724,4372a1.327,1.327,0,0,0-2.3,1.326l2.887,5a1.327,1.327,0,0,0,2.3-1.326Z" transform="translate(-1048.311 -4318.855)" fill="#344154" fill-rule="evenodd"/>
      <path id="Trazado_105627" data-name="Trazado 105627" d="M1116.9,4359.739l-5-2.886a1.327,1.327,0,1,0-1.326,2.3l5,2.886a1.327,1.327,0,0,0,1.326-2.3Z" transform="translate(-1053.808 -4313.359)" fill="#344154" fill-rule="evenodd"/>
      <path id="Trazado_105628" data-name="Trazado 105628" d="M1073.715,4320.971a1.326,1.326,0,0,0-.968,1.605,17.373,17.373,0,0,1-22.383,20.649,7.265,7.265,0,0,0-5.932-10.983,10.243,10.243,0,0,0-5.892-5.322v-.153a17.359,17.359,0,0,1,29.288-12.611,1.326,1.326,0,1,0,1.823-1.926,20.009,20.009,0,0,0-33.756,14.143c-.238-.017-.477-.025-.717-.025a10.249,10.249,0,0,0-10.047,8.367,6.082,6.082,0,0,0,1.1,12.064h17.892a7.229,7.229,0,0,0,4.33-1.434,20.021,20.021,0,0,0,26.869-23.408A1.327,1.327,0,0,0,1073.715,4320.971Zm-47.486,23.155a3.431,3.431,0,1,1,0-6.861h.079a1.324,1.324,0,0,0,1.323-1.233,7.564,7.564,0,0,1,14.674-2,1.325,1.325,0,0,0,1.374.875c.148-.014.3-.021.443-.021a4.62,4.62,0,1,1,0,9.239Z" transform="translate(-1020.147 -4294.639)" fill="#344154" fill-rule="evenodd"/>
      <path id="Trazado_105629" data-name="Trazado 105629" d="M1101.049,4322.9a1.326,1.326,0,1,0,1.326-1.326A1.326,1.326,0,0,0,1101.049,4322.9Z" transform="translate(-1050.485 -4300.197)" fill="#344154" fill-rule="evenodd"/>
    </g>
    <g id="Grupo_57486" data-name="Grupo 57486" transform="translate(1073.802 4251.38)">
      <path id="Trazado_105630" data-name="Trazado 105630" d="M1142.041,4270.1h9.436v4.067h-9.436v10.692h-4.323v-10.692h-9.436V4270.1h9.436v-9.878h4.323Z" transform="translate(-1128.282 -4260.217)" fill="#6595bf"/>
    </g>
    <g id="Grupo_57487" data-name="Grupo 57487" transform="translate(1056.782 4252.146)">
      <path id="Trazado_105631" data-name="Trazado 105631" d="M1116.665,4263.092l-9.569,21.455h-3.078l9.537-20.693H1101.05v-2.412h15.616Z" transform="translate(-1101.049 -4261.442)" fill="#d9a171"/>
    </g>
  </g>
</svg>
