<svg xmlns="http://www.w3.org/2000/svg" xmlns:xlink="http://www.w3.org/1999/xlink" width="123" height="125" viewBox="0 0 123 125">
  <defs>
    <clipPath id="clip-path">
      <path id="Trazado_105650" data-name="Trazado 105650" d="M1439.627,4279.6a50.671,50.671,0,1,1-71.66,71.66Z" transform="translate(-1367.967 -4279.6)" fill="none"/>
    </clipPath>
  </defs>
  <g id="Grupo_57496" data-name="Grupo 57496" transform="translate(-1325.019 -4236.652)">
    <rect id="Rectángulo_5874" data-name="Rectángulo 5874" width="123" height="125" transform="translate(1325.019 4236.652)" fill="#344154" opacity="0"/>
    <path id="Trazado_105632" data-name="Trazado 105632" d="M1430.336,4270.6a52.393,52.393,0,0,1,0,73.074,49.981,49.981,0,0,1-71.66,0,52.4,52.4,0,0,1,0-73.074,49.981,49.981,0,0,1,71.66,0Z" transform="translate(-7.244 -7.244)" fill="#f2e9e4"/>
    <g id="Grupo_57489" data-name="Grupo 57489" transform="translate(1351.432 4265.929)">
      <path id="Trazado_105633" data-name="Trazado 105633" d="M1401.42,4296.194a1.3,1.3,0,0,0,2.26-1.305l-2.84-4.918a1.3,1.3,0,0,0-2.26,1.3Z" transform="translate(-1379.686 -4285.257)" fill="#344154" fill-rule="evenodd"/>
      <path id="Trazado_105634" data-name="Trazado 105634" d="M1459.036,4312.806a1.292,1.292,0,0,0,.651-.174l4.919-2.839a1.3,1.3,0,0,0-1.3-2.259l-4.919,2.839a1.3,1.3,0,0,0,.654,2.435Z" transform="translate(-1402.525 -4292.202)" fill="#344154" fill-rule="evenodd"/>
      <path id="Trazado_105635" data-name="Trazado 105635" d="M1381.019,4309.792l4.918,2.839a1.3,1.3,0,0,0,1.3-2.259l-4.919-2.839a1.3,1.3,0,0,0-1.3,2.259Z" transform="translate(-1372.741 -4292.202)" fill="#344154" fill-rule="evenodd"/>
      <path id="Trazado_105636" data-name="Trazado 105636" d="M1443.723,4296.671a1.3,1.3,0,0,0,1.782-.477l2.84-4.919a1.3,1.3,0,0,0-2.26-1.3l-2.84,4.918a1.305,1.305,0,0,0,.478,1.777Z" transform="translate(-1396.882 -4285.257)" fill="#344154" fill-rule="evenodd"/>
      <path id="Trazado_105637" data-name="Trazado 105637" d="M1424.352,4291.008a1.3,1.3,0,0,0,1.3-1.3v-5.683a1.3,1.3,0,1,0-2.609,0v5.684a1.306,1.306,0,0,0,1.309,1.3Z" transform="translate(-1389.173 -4282.716)" fill="#344154" fill-rule="evenodd"/>
      <path id="Trazado_105638" data-name="Trazado 105638" d="M1424.352,4372.041a1.3,1.3,0,0,0-1.3,1.3v5.683a1.3,1.3,0,1,0,2.609,0v-5.683a1.3,1.3,0,0,0-1.3-1.3Z" transform="translate(-1389.173 -4317.106)" fill="#344154" fill-rule="evenodd"/>
      <path id="Trazado_105639" data-name="Trazado 105639" d="M1470.078,4332H1464.4a1.3,1.3,0,0,0,0,2.609h5.683a1.3,1.3,0,1,0,0-2.609Z" transform="translate(-1404.589 -4301.69)" fill="#344154" fill-rule="evenodd"/>
      <path id="Trazado_105640" data-name="Trazado 105640" d="M1445.505,4367.334a1.3,1.3,0,0,0-2.26,1.3l2.841,4.919a1.3,1.3,0,0,0,2.259-1.3Z" transform="translate(-1396.882 -4315.042)" fill="#344154" fill-rule="evenodd"/>
      <path id="Trazado_105641" data-name="Trazado 105641" d="M1464.6,4355.037l-4.919-2.84a1.3,1.3,0,1,0-1.3,2.259l4.919,2.841a1.3,1.3,0,0,0,1.3-2.26Z" transform="translate(-1402.525 -4309.398)" fill="#344154" fill-rule="evenodd"/>
      <path id="Trazado_105642" data-name="Trazado 105642" d="M1420.678,4316.09a1.3,1.3,0,0,0-.952,1.581,17.094,17.094,0,0,1-22.024,20.318,7.151,7.151,0,0,0-5.838-10.808,10.078,10.078,0,0,0-5.8-5.236v-.152a17.081,17.081,0,0,1,28.819-12.409,1.306,1.306,0,1,0,1.793-1.9,19.689,19.689,0,0,0-33.216,13.917q-.35-.026-.706-.026a10.084,10.084,0,0,0-9.886,8.233,5.985,5.985,0,0,0,1.083,11.872h17.606a7.115,7.115,0,0,0,4.261-1.411,19.7,19.7,0,0,0,26.44-23.03A1.3,1.3,0,0,0,1420.678,4316.09Zm-46.726,22.785a3.376,3.376,0,1,1,0-6.752h.077a1.3,1.3,0,0,0,1.3-1.214,7.444,7.444,0,0,1,14.44-1.967,1.3,1.3,0,0,0,1.353.862c.145-.014.291-.021.435-.021a4.546,4.546,0,1,1,0,9.091Z" transform="translate(-1367.967 -4290.18)" fill="#344154" fill-rule="evenodd"/>
      <path id="Trazado_105643" data-name="Trazado 105643" d="M1448.87,4318.228a1.3,1.3,0,1,0,1.3-1.3,1.3,1.3,0,0,0-1.3,1.3Z" transform="translate(-1399.115 -4295.886)" fill="#344154" fill-rule="evenodd"/>
    </g>
    <path id="Trazado_105644" data-name="Trazado 105644" d="M1439.627,4279.6a50.671,50.671,0,1,1-71.66,71.66Z" transform="translate(-16.535 -14.535)" fill="#344154"/>
    <path id="Trazado_105645" data-name="Trazado 105645" d="M1439.627,4279.6a50.671,50.671,0,1,1-71.66,71.66Z" transform="translate(-16.535 -14.535)" fill="#344154"/>
    <g id="Grupo_57493" data-name="Grupo 57493" transform="translate(1351.432 4265.065)">
      <g id="Grupo_57492" data-name="Grupo 57492" clip-path="url(#clip-path)">
        <g id="Grupo_57491" data-name="Grupo 57491" transform="translate(4.892 8.493)">
          <g id="Grupo_57490" data-name="Grupo 57490">
            <path id="Trazado_105646" data-name="Trazado 105646" d="M1421.456,4327.43a5.308,5.308,0,0,0,.269-8.187,4.423,4.423,0,0,0-1.641-4.227,4.338,4.338,0,0,0-3.2-.834,6.576,6.576,0,0,0-8.532-5.388,7,7,0,0,0-11.227,2.989,6.743,6.743,0,0,0-2.693.673,24.771,24.771,0,0,1,6.5-17.144,1.136,1.136,0,0,0-.964-1.9,27.138,27.138,0,0,0-20.587,13.65,1.136,1.136,0,0,0,1.983,1.111,24.882,24.882,0,0,1,15.929-11.994,27.044,27.044,0,0,0-5.053,18.027c-.023.029-.047.056-.069.084a6.954,6.954,0,0,0-1.2,5.761,4.369,4.369,0,0,0,1.439,8.5h5.4a27.172,27.172,0,0,0,21.377,10.508,24.934,24.934,0,0,1-15.268,5.954,6.174,6.174,0,0,0-5.257-5.8,5.376,5.376,0,0,0-5.055-3.623c-.167,0-.333.007-.5.023a6.365,6.365,0,0,0-10.266-.932,24.9,24.9,0,0,1-1.932-3.171,24.594,24.594,0,0,1-2.528-14.185,1.136,1.136,0,1,0-2.256-.273,26.865,26.865,0,0,0,2.761,15.491,27.2,27.2,0,0,0,1.8,3.024,5.028,5.028,0,0,0-2.81,4.506,5.093,5.093,0,0,0,.035.6,6.229,6.229,0,0,0,4.258,10.788h15.587a6.176,6.176,0,0,0,5.836-4.169,27.213,27.213,0,0,0,11.718-2.937,26.929,26.929,0,0,0,7.689-5.829,1.136,1.136,0,0,0-.964-1.9,24.916,24.916,0,0,1-21.271-8.08h17.778a4.35,4.35,0,0,0,2.921-1.123Zm-23.706,21.762h-15.587a3.968,3.968,0,0,1-3.969-3.961,3.92,3.92,0,0,1,1.625-3.193,1.136,1.136,0,0,0,.423-1.227,2.725,2.725,0,0,1-.1-.735,2.755,2.755,0,0,1,2.755-2.749c.062,0,.123,0,.185.006a1.138,1.138,0,0,0,1.024-.556,4.095,4.095,0,0,1,7.306.535,1.135,1.135,0,0,0,1.354.665,3.13,3.13,0,0,1,.832-.113,3.078,3.078,0,0,1,3.028,2.591,1.137,1.137,0,0,0,1.124.965,3.886,3.886,0,1,1,0,7.772Zm-5.344-22.912a2.1,2.1,0,1,1,0-4.194,1.136,1.136,0,0,0,1.065-1.532,5,5,0,0,1,.5-4.874,4.222,4.222,0,0,1,3.421-1.632q.24,0,.486.023a1.135,1.135,0,0,0,1.224-.918,4.72,4.72,0,0,1,7.056-3.151,6.585,6.585,0,0,0-2.358,5.029,1.136,1.136,0,1,0,2.272,0,4.3,4.3,0,0,1,2.45-3.869l.035-.015a4.246,4.246,0,0,1,1.81-.4,4.293,4.293,0,0,1,4.294,4.283,4.608,4.608,0,0,1-.036.577,1.136,1.136,0,0,0,1.7,1.122,2.149,2.149,0,0,1,2.386.1,2.357,2.357,0,0,1,.666,2.6,1.135,1.135,0,0,0,.478,1.237,3.04,3.04,0,0,1,.183,4.986.935.935,0,0,0-.085.072,2.081,2.081,0,0,1-1.418.556Z" transform="translate(-1375.922 -4293.409)" fill="#fff"/>
            <path id="Trazado_105647" data-name="Trazado 105647" d="M1428.633,4301.212l3.385,1.842,1.843,3.376a1.137,1.137,0,0,0,1,.592h0a1.135,1.135,0,0,0,1-.592l1.846-3.377,3.385-1.842a1.136,1.136,0,0,0,0-2l-3.384-1.839-1.846-3.376a1.135,1.135,0,0,0-1-.591h0a1.137,1.137,0,0,0-1,.591l-1.843,3.376-3.384,1.839a1.136,1.136,0,0,0,0,2Zm4.764-2a1.133,1.133,0,0,0,.454-.454l1.007-1.845,1.009,1.846a1.14,1.14,0,0,0,.454.453l1.843,1-1.844,1a1.143,1.143,0,0,0-.453.454l-1.009,1.845-1.007-1.845a1.139,1.139,0,0,0-.454-.454l-1.844-1Z" transform="translate(-1395.987 -4293.409)" fill="#fff"/>
            <path id="Trazado_105648" data-name="Trazado 105648" d="M1461.392,4315.436l-3.385-1.843-1.846-3.377a1.136,1.136,0,0,0-1-.592h0a1.137,1.137,0,0,0-1,.591l-1.843,3.376-3.384,1.842a1.137,1.137,0,0,0,0,2l3.384,1.839,1.843,3.376a1.137,1.137,0,0,0,1,.592h0a1.134,1.134,0,0,0,1-.592l1.846-3.377,3.384-1.839a1.135,1.135,0,0,0,0-2Zm-4.764,2a1.144,1.144,0,0,0-.455.454l-1.009,1.846-1.007-1.845a1.14,1.14,0,0,0-.455-.454l-1.843-1,1.844-1a1.135,1.135,0,0,0,.454-.454l1.007-1.844,1.009,1.845a1.138,1.138,0,0,0,.454.454l1.843,1Z" transform="translate(-1403.805 -4299.652)" fill="#fff"/>
            <path id="Trazado_105649" data-name="Trazado 105649" d="M1378.618,4324.391a1.134,1.134,0,0,0,1.528-.5v-.007a1.136,1.136,0,1,0-1.531.5Z" transform="translate(-1376.721 -4304.508)" fill="#fff"/>
          </g>
        </g>
      </g>
    </g>
    <g id="Grupo_57494" data-name="Grupo 57494" transform="translate(1414.366 4251.144)">
      <path id="Trazado_105651" data-name="Trazado 105651" d="M1483.838,4269.937h9.285v4h-9.285v10.521h-4.254v-10.521H1470.3v-4h9.285v-9.72h4.254Z" transform="translate(-1470.299 -4260.217)" fill="#6595bf"/>
    </g>
    <g id="Grupo_57495" data-name="Grupo 57495" transform="translate(1398.619 4251.417)">
      <path id="Trazado_105652" data-name="Trazado 105652" d="M1460.059,4262.285l-9.416,21.112h-3.029l9.385-20.363h-12.305v-2.373h15.366Z" transform="translate(-1444.693 -4260.661)" fill="#d9a171"/>
    </g>
  </g>
</svg>
