<svg xmlns="http://www.w3.org/2000/svg" width="84.858" height="84.854" viewBox="0 0 84.858 84.854">
  <g id="licencias" transform="translate(0.01 -0.008)">
    <path id="Trazado_1034332" data-name="Trazado 1034332" d="M96.016,40.008v76.368h56.569V40.008Zm0,0" transform="translate(-79.051 -32.929)" fill="#348fd9"/>
    <path id="Trazado_1034333" data-name="Trazado 1034333" d="M149.756,49.907l-9.9-9.9H96.016v73.54h53.74Zm0,0" transform="translate(-79.051 -32.929)" fill="#3086cd"/>
    <path id="Trazado_1034334" data-name="Trazado 1034334" d="M64.016,84.376h56.569V20.736L107.856,8.008H64.016Zm0,0" transform="translate(-52.707 -6.586)" fill="#60d1e0"/>
    <path id="Trazado_1034335" data-name="Trazado 1034335" d="M324.744,20.736H312.016V8.008Zm0,0" transform="translate(-256.867 -6.586)" fill="#9fe4ed"/>
    <path id="Trazado_1034336" data-name="Trazado 1034336" d="M166.685,176.008l-46.669,46.669h46.669Zm0,0" transform="translate(-98.808 -144.887)" fill="#5ac6d4"/>
    <path id="Trazado_1034337" data-name="Trazado 1034337" d="M213.714,342.15H185.43a1.414,1.414,0,0,1-1.414-1.414V329.422a1.414,1.414,0,0,1,1.414-1.414h28.284a1.414,1.414,0,0,1,1.414,1.414v11.314A1.414,1.414,0,0,1,213.714,342.15Zm-26.87-2.828H212.3v-8.485H186.844Zm0,0" transform="translate(-151.494 -270.017)" fill="#348fd9"/>
    <path id="Trazado_1034338" data-name="Trazado 1034338" d="M216.016,360.008h5.657v2.828h-5.657Zm0,0" transform="translate(-177.837 -296.36)" fill="#348fd9"/>
    <path id="Trazado_1034339" data-name="Trazado 1034339" d="M264.016,360.008h11.314v2.828H264.016Zm0,0" transform="translate(-217.352 -296.36)" fill="#348fd9"/>
    <path id="Trazado_1034340" data-name="Trazado 1034340" d="M248.016,224.5l8.485-8.485,19.8,19.8-8.485,8.485Zm0,0" transform="translate(-204.18 -177.819)" fill="#e0e0de"/>
    <path id="Trazado_1034341" data-name="Trazado 1034341" d="M325.229,144.008a8.486,8.486,0,0,0-8.485,8.485v.707l-12.728,13.435,7.071,7.071,13.435-12.728h.707a8.485,8.485,0,0,0,0-16.971Zm0,0" transform="translate(-250.281 -118.544)" fill="#95573a"/>
    <path id="Trazado_1034342" data-name="Trazado 1034342" d="M224.02,268.247,228.262,264l19.8,19.8-4.243,4.243Zm0,0" transform="translate(-184.426 -217.327)" fill="#ebebe9"/>
    <path id="Trazado_1034343" data-name="Trazado 1034343" d="M345.244,148.246c-5.859,14.817-15.014,21.891-21.138,25.43l3.52,3.52,13.435-12.728h.707a8.485,8.485,0,0,0,3.476-16.221Zm0,0" transform="translate(-266.819 -122.033)" fill="#8f4d2e"/>
    <path id="Trazado_1034344" data-name="Trazado 1034344" d="M196.539,60.8a2.4,2.4,0,0,0-3.209-3.209,2.4,2.4,0,0,0-4.534,0,2.4,2.4,0,0,0-3.2,3.209,2.4,2.4,0,0,0,0,4.534,2.4,2.4,0,0,0,3.209,3.2,2.4,2.4,0,0,0,4.534,0,2.4,2.4,0,0,0,3.2-3.209,2.4,2.4,0,0,0,0-4.526Zm0,0" transform="translate(-151.475 -46.081)" fill="#ffb531"/>
    <path id="Trazado_1034345" data-name="Trazado 1034345" d="M88.057,71.563A15.545,15.545,0,0,0,64.016,58.534V84.592A15.545,15.545,0,0,0,88.057,71.563Zm0,0" transform="translate(-52.707 -46.1)" fill="#5ac6d4"/>
    <path id="Trazado_1034346" data-name="Trazado 1034346" d="M328.016,80.008h9.9v2.828h-9.9Zm0,0" transform="translate(-270.038 -65.858)" fill="#5ac6d4"/>
    <g id="Grupo_1178101" data-name="Grupo 1178101" transform="translate(18.379 28.292)">
      <path id="Trazado_1034347" data-name="Trazado 1034347" d="M152.016,232.008h14.142v2.828H152.016Zm0,0" transform="translate(-143.53 -219.28)" fill="#3fb7c7"/>
      <path id="Trazado_1034348" data-name="Trazado 1034348" d="M104.016,264.008h16.971v2.828H104.016Zm0,0" transform="translate(-104.016 -245.623)" fill="#3fb7c7"/>
      <path id="Trazado_1034349" data-name="Trazado 1034349" d="M104.016,200.008h29.7v2.828h-29.7Zm0,0" transform="translate(-104.016 -192.937)" fill="#3fb7c7"/>
      <path id="Trazado_1034350" data-name="Trazado 1034350" d="M104.016,296.008H112.5v2.828h-8.485Zm0,0" transform="translate(-104.016 -271.966)" fill="#3fb7c7"/>
      <path id="Trazado_1034351" data-name="Trazado 1034351" d="M104.016,328.008h11.314v2.828H104.016Zm0,0" transform="translate(-104.016 -298.309)" fill="#3fb7c7"/>
      <path id="Trazado_1034352" data-name="Trazado 1034352" d="M104.016,360.008h11.314v2.828H104.016Zm0,0" transform="translate(-104.016 -324.652)" fill="#3fb7c7"/>
      <path id="Trazado_1034353" data-name="Trazado 1034353" d="M104.016,392.008h11.314v2.828H104.016Zm0,0" transform="translate(-104.016 -350.995)" fill="#3fb7c7"/>
      <path id="Trazado_1034354" data-name="Trazado 1034354" d="M104.016,232.008h5.657v2.828h-5.657Zm0,0" transform="translate(-104.016 -219.28)" fill="#3fb7c7"/>
      <path id="Trazado_1034355" data-name="Trazado 1034355" d="M168.016,296.008h5.657v2.828h-5.657Zm0,0" transform="translate(-156.702 -271.966)" fill="#3fb7c7"/>
      <path id="Trazado_1034356" data-name="Trazado 1034356" d="M168.016,160.008h5.657v2.828h-5.657Zm0,0" transform="translate(-156.702 -160.008)" fill="#3fb7c7"/>
      <path id="Trazado_1034357" data-name="Trazado 1034357" d="M216.016,160.008h11.314v2.828H216.016Zm0,0" transform="translate(-196.217 -160.008)" fill="#3fb7c7"/>
    </g>
    <path id="Trazado_1034358" data-name="Trazado 1034358" d="M39.129,55.564A15.556,15.556,0,1,1,23.572,40.008,15.556,15.556,0,0,1,39.129,55.564Zm0,0" transform="translate(-6.607 -32.929)" fill="#7eb457"/>
    <path id="Trazado_1034359" data-name="Trazado 1034359" d="M39.6,98.908a1.414,1.414,0,0,1-1-.414l-4.243-4.243,2-2L39.6,95.494,52.744,82.352l2,2L40.6,98.494A1.414,1.414,0,0,1,39.6,98.908Zm0,0" transform="translate(-28.294 -67.787)" fill="#ffb531"/>
    <path id="Trazado_1034360" data-name="Trazado 1034360" d="M192.917,112.306a15.367,15.367,0,0,0-.934-2.97A2.369,2.369,0,0,0,192.917,112.306Zm0,0" transform="translate(-157.89 -90.001)" fill="#f98500"/>
    <path id="Trazado_1034361" data-name="Trazado 1034361" d="M185.61,96.494a15.619,15.619,0,0,0-1.448-2.584A2.353,2.353,0,0,0,185.61,96.494Zm0,0" transform="translate(-151.586 -77.302)" fill="#f98500"/>
    <path id="Trazado_1034362" data-name="Trazado 1034362" d="M391.087,47.564V33.422a1.414,1.414,0,0,0-1.414-1.414h-5.657v2.828h4.243V47.564Zm0,0" transform="translate(-316.139 -26.343)"/>
    <path id="Trazado_1034363" data-name="Trazado 1034363" d="M56.016,240.008v35.355a1.414,1.414,0,0,0,1.414,1.414H114a1.414,1.414,0,0,0,1.414-1.414v-9.9h-2.828v8.485H58.844V240.008Zm0,0" transform="translate(-46.122 -197.573)"/>
    <path id="Trazado_1034364" data-name="Trazado 1034364" d="M101.856.149c-.044-.02-.086-.031-.132-.047a1.406,1.406,0,0,0-.366-.073.54.54,0,0,0-.088-.021H57.43a1.414,1.414,0,0,0-1.414,1.414V4.25h2.828V2.836H99.856V14.15a1.414,1.414,0,0,0,1.414,1.414h11.314v7.071h2.828V14.15c0-.03-.015-.057-.017-.088a1.378,1.378,0,0,0-.073-.366c-.016-.046-.027-.088-.047-.132a1.405,1.405,0,0,0-.282-.414L102.265.422a1.416,1.416,0,0,0-.409-.273Zm8.728,12.586h-7.9v-7.9Zm0,0" transform="translate(-46.122)"/>
    <path id="Trazado_1034365" data-name="Trazado 1034365" d="M184.016,329.422v11.314a1.414,1.414,0,0,0,1.414,1.414h18.385v-2.828H186.844v-8.485h7.071v-2.828H185.43A1.414,1.414,0,0,0,184.016,329.422Zm0,0" transform="translate(-151.494 -270.017)"/>
    <path id="Trazado_1034366" data-name="Trazado 1034366" d="M216.016,360.008H224.5v2.828h-8.485Zm0,0" transform="translate(-177.837 -296.36)"/>
    <path id="Trazado_1034367" data-name="Trazado 1034367" d="M154,136.008a9.912,9.912,0,0,0-9.9,9.9v.142l-7.213,7.614-4.515-4.515a1.414,1.414,0,0,0-2,0l-12.728,12.728a1.415,1.415,0,0,0,0,2l19.8,19.8a1.415,1.415,0,0,0,2,0l4.243-4.243,7.485-7.483v22.042H96.016v2.828h56.569A1.414,1.414,0,0,0,154,195.405V161.464H151.17v6.486l-4.93-4.93,7.617-7.213H154a9.9,9.9,0,1,0,0-19.8Zm-15.556,44.67-17.8-17.8,2.243-2.243,17.8,17.8Zm10.728-10.728-6.486,6.486-17.8-17.8,6.486-6.486,3.569,3.569-3.182,3.357a1.414,1.414,0,0,0,.027,1.98l7.071,7.071a1.414,1.414,0,0,0,1.971.027l3.359-3.182ZM154,152.979h-.707a1.417,1.417,0,0,0-.973.387l-12.435,11.775-5.118-5.118,11.781-12.435a1.414,1.414,0,0,0,.382-.973v-.707A7.071,7.071,0,1,1,154,152.979Zm0,0" transform="translate(-79.051 -111.958)"/>
    <path id="Trazado_1034368" data-name="Trazado 1034368" d="M152.016,232.008h14.142v2.828H152.016Zm0,0" transform="translate(-125.151 -190.988)"/>
    <path id="Trazado_1034369" data-name="Trazado 1034369" d="M104.016,264.008h16.971v2.828H104.016Zm0,0" transform="translate(-85.636 -217.331)"/>
    <path id="Trazado_1034370" data-name="Trazado 1034370" d="M176.016,200.008h16.971v2.828H176.016Zm0,0" transform="translate(-144.908 -164.644)"/>
    <path id="Trazado_1034371" data-name="Trazado 1034371" d="M104.016,296.008H112.5v2.828h-8.485Zm0,0" transform="translate(-85.636 -243.674)"/>
    <path id="Trazado_1034372" data-name="Trazado 1034372" d="M104.016,328.008h11.314v2.828H104.016Zm0,0" transform="translate(-85.636 -270.017)"/>
    <path id="Trazado_1034373" data-name="Trazado 1034373" d="M104.016,360.008h11.314v2.828H104.016Zm0,0" transform="translate(-85.636 -296.36)"/>
    <path id="Trazado_1034374" data-name="Trazado 1034374" d="M104.016,392.008h11.314v2.828H104.016Zm0,0" transform="translate(-85.636 -322.703)"/>
    <path id="Trazado_1034375" data-name="Trazado 1034375" d="M104.016,232.008h5.657v2.828h-5.657Zm0,0" transform="translate(-85.636 -190.988)"/>
    <path id="Trazado_1034376" data-name="Trazado 1034376" d="M168.016,296.008h5.657v2.828h-5.657Zm0,0" transform="translate(-138.323 -243.674)"/>
    <path id="Trazado_1034377" data-name="Trazado 1034377" d="M200.016,160.008h14.142v2.828H200.016Zm0,0" transform="translate(-164.666 -131.716)"/>
    <path id="Trazado_1034378" data-name="Trazado 1034378" d="M16.965,65.938A16.971,16.971,0,0,0,33.906,49.561a3.738,3.738,0,0,0,2.742.857,3.835,3.835,0,0,0,5.889,0A3.836,3.836,0,0,0,46.7,46.255a3.835,3.835,0,0,0,0-5.889A3.836,3.836,0,0,0,42.537,36.2a3.835,3.835,0,0,0-5.889,0,3.836,3.836,0,0,0-4.163,4.163,3.672,3.672,0,0,0-.566.583A16.971,16.971,0,1,0,16.965,65.938ZM34.594,42.376a1.413,1.413,0,0,0,.8-1.938.99.99,0,0,1,1.322-1.322,1.413,1.413,0,0,0,1.938-.8.99.99,0,0,1,1.867,0,1.414,1.414,0,0,0,1.939.8.989.989,0,0,1,1.322,1.322,1.413,1.413,0,0,0,.8,1.938.99.99,0,0,1,0,1.867,1.414,1.414,0,0,0-.8,1.939.951.951,0,0,1-.195,1.131.963.963,0,0,1-1.132.2,1.414,1.414,0,0,0-1.938.8.99.99,0,0,1-1.867,0,1.411,1.411,0,0,0-.792-.833,1.442,1.442,0,0,0-.541-.108,1.385,1.385,0,0,0-.606.142.99.99,0,0,1-1.322-1.322,1.414,1.414,0,0,0-.8-1.939.99.99,0,0,1,0-1.867ZM16.965,34.825A14.142,14.142,0,1,1,2.823,48.967,14.142,14.142,0,0,1,16.965,34.825Zm0,0" transform="translate(0 -26.332)"/>
    <path id="Trazado_1034379" data-name="Trazado 1034379" d="M38.6,98.494a1.415,1.415,0,0,0,2,0L54.744,84.351l-2-2L39.6,95.494l-3.243-3.243-2,2Zm0,0" transform="translate(-28.294 -67.787)"/>
  </g>
</svg>
