<svg xmlns="http://www.w3.org/2000/svg" xmlns:xlink="http://www.w3.org/1999/xlink" width="400" height="400" viewBox="0 0 400 400">
  <defs>
    <clipPath id="clip-path">
      <path id="SVGID" d="M667.872,6090.07s5.481,4.758,7.122,7.9,23.177,47.063,23.1,50.065-3.274,8.729-8.9,8.729-26.927-34.233-26.927-34.233Z" transform="translate(-662.268 -6090.07)" fill="none"/>
    </clipPath>
    <clipPath id="clip-path-2">
      <path id="SVGID-2" data-name="SVGID" d="M652.053,6058.321c-10.884,2.558-13.8,9.6-13.711,15.972a42.863,42.863,0,0,0,2.618,11.1l-.192-.4s-3.273-5.709-3.753-2.28,2.757,6.984,3.836,8.126a1.745,1.745,0,0,0,2.217.123c2.164,5.238,4.583,9.924,6.162,11.2,3.422,2.767,8.23,4.19,12.053.873s7.6-22.231,7.6-22.231C669.787,6061.661,662.938,6055.772,652.053,6058.321Z" transform="translate(-636.967 -6057.759)" fill="none"/>
    </clipPath>
    <clipPath id="clip-path-3">
      <path id="SVGID-3" data-name="SVGID" d="M632.867,6095.5s-16.3,44.427-15.546,49.391,9.3,2.985,12,2.312,13.092-17.168,13.161-20.719a5.593,5.593,0,0,0,2.55-3.824c.639-2.863,1.072-13.092-3.064-20.766" transform="translate(-617.295 -6095.5)" fill="none"/>
    </clipPath>
    <clipPath id="clip-path-4">
      <path id="SVGID-4" data-name="SVGID" d="M645.2,6124.418s-20.949-1.279-23.637-1.493-5.914,3.491-3.377,8.631,6.553,5.434,11.5,4.495,15.85-7.593,15.85-7.593Z" transform="translate(-617.265 -6122.917)" fill="none"/>
    </clipPath>
    <clipPath id="clip-path-5">
      <path id="SVGID-5" data-name="SVGID" d="M639.36,6121.713s2.706-2.877,3.422-2.809,5.97-.228,6.414,1-.262.689-.986,1.1a24.706,24.706,0,0,1-4.316.872,15.324,15.324,0,0,1,4.033.8c.933.55,4.888,4.2,4.87,4.914s-.5.873-1.458.873-.253.689-.515,1.379-2.156.54-2.156.54.16,2.4-1.266,2.27a12.046,12.046,0,0,1-4-1.992s-5.3,1.939-7.2,1.79a6.962,6.962,0,0,0-3.6.812,40.8,40.8,0,0,1,6.749-11.551Z" transform="translate(-632.611 -6118.903)" fill="none"/>
    </clipPath>
    <clipPath id="clip-path-6">
      <path id="SVGID-6" data-name="SVGID" d="M611.895,6132.875a2.952,2.952,0,0,0-4.974.3c-2.583,3.309-.533,14.795.741,19.386s22.8,23.635,24.823,25.049,28.41,7.375,30.715,6.286,2.967-6.618,1.658-9.6-25.966-9.322-25.966-9.322Z" transform="translate(-605.679 -6131.656)" fill="none"/>
    </clipPath>
    <clipPath id="clip-path-7">
      <path id="SVGID-7" data-name="SVGID" d="M642.859,6158.323a3.858,3.858,0,0,0-3.029,3.133c-.515,2.731,2.174,5.062,2.174,5.062s5.665,1.946,7.353-2.619S645.6,6158.148,642.859,6158.323Z" transform="translate(-639.764 -6158.307)" fill="none"/>
    </clipPath>
    <clipPath id="clip-path-8">
      <path id="SVGID-8" data-name="SVGID" d="M600.672,6128.776s-15.955,9.271-17.2,9.889-2.489,10.213-2.489,11.12,15.955,36.963,15.955,36.963,3.927,3.326,15.423,3.326,12.386-1.745,12.386-1.745l.916-15.214s3.927-10.282,4.233-12.1-3.221-24.1-3.221-24.1l-16.321-10.883S603.709,6122.125,600.672,6128.776Z" transform="translate(-580.981 -6124.894)" fill="none"/>
    </clipPath>
    <clipPath id="clip-path-9">
      <path id="SVGID-9" data-name="SVGID" d="M587.13,6134.028s-1.37-1.031-4.416,1.265-5.882,12.733-3.98,17.16,6.983,27.432,9.347,28.69,27.8,1.152,30.8.444,5.1-4.635,4.591-8.03a5.275,5.275,0,0,0-4.845-4.3c-.986-.025-21.244-1.177-21.244-1.177l-6.293-26.586" transform="translate(-578.118 -6133.797)" fill="none"/>
    </clipPath>
    <clipPath id="clip-path-10">
      <path id="SVGID-10" data-name="SVGID" d="M606.979,6156.667a5.125,5.125,0,0,0-3.107,4.678,4.476,4.476,0,0,0,2.855,4.653c.585.409,4.111,2.3,5.534,1.143a6.091,6.091,0,0,0,1.746-6.9C612.651,6157.621,608.366,6156.7,606.979,6156.667Z" transform="translate(-603.846 -6156.667)" fill="none"/>
    </clipPath>
  </defs>
  <g id="Grupo_57555" data-name="Grupo 57555" transform="translate(-531.929 -6037.906)">
    <rect id="Rectángulo_5882" data-name="Rectángulo 5882" width="400" height="400" transform="translate(531.929 6037.906)" fill="#344154" opacity="0"/>
    <g id="Grupo_57554" data-name="Grupo 57554" transform="translate(550.103 6065.786)">
      <g id="freepik--background-simple--inject-1--inject-76" transform="translate(0 15.548)">
        <rect id="Rectángulo_5883" data-name="Rectángulo 5883" width="359.889" height="13.973" transform="translate(0 285.011)" fill="#d9a171" stroke="#fff" stroke-miterlimit="10" stroke-width="1"/>
        <path id="Trazado_105733" data-name="Trazado 105733" d="M625.486,6065.149v288.737h192.49V6065.149Zm185.665,6.112v36.212H778.384V6071.3ZM704.72,6192.11v-37.529h31.308v37.532Zm31.308,4.783v37.532H704.72v-37.532Zm-36.833-4.783H667.866v-37.529h31.317Zm0,4.783v37.532H667.866v-37.532Zm0,42.315v37.53H667.866v-37.53Zm5.526,0h31.308v37.53H704.72Zm36.833,0h31.316v37.53H741.541Zm0-4.774V6196.9h31.316v37.531Zm0-42.322v-37.53h31.316v37.532Zm0-42.315v-37.532h31.316V6149.8Zm-5.526,0H704.72v-37.532h31.308Zm-36.833,0H667.866v-17.98a14.22,14.22,0,0,0,0-2.877v-16.687h31.317Zm-36.841,0H632.276v-37.532H662.31Zm-16.879,4.774,4.774,3.664a8.376,8.376,0,0,0-3.369-3.664h15.474v37.53H632.276v-37.53Zm16.879,42.322v37.532H632.276v-37.532Zm0,42.315v37.53H632.276v-37.53Zm0,42.322v37.527H632.276v-37.532Zm5.526,0h31.316v37.527H667.866Zm36.842,0h31.308v37.527H704.72Zm36.833,0h31.316v37.527H741.541Zm36.841,0h32.767v37.527H778.386Zm0-4.774v-37.53h32.767v37.53Zm0-42.322V6196.9h32.767v37.531Zm0-42.322v-37.53h32.767v37.532Zm0-42.315v-37.532h32.767V6149.8Zm-5.526-78.5v36.177H741.541V6071.3Zm-36.842,0v36.177H704.72V6071.3Zm-36.833,0v36.177H667.866V6071.3Zm-36.841,0v36.177H632.276V6071.3Zm-30.077,276.446v-23.892H662.31v23.889Zm35.56,0v-23.892h31.316v23.889Zm36.841,0v-23.892h31.308v23.889Zm36.832,0v-23.892h31.317v23.889Zm36.841,0v-23.892h32.767v23.889Z" transform="translate(-494.118 -6065.149)" fill="#d9a171" stroke="#fff" stroke-miterlimit="10" stroke-width="1"/>
        <g id="Grupo_57523" data-name="Grupo 57523" opacity="0.8">
          <rect id="Rectángulo_5884" data-name="Rectángulo 5884" width="359.889" height="13.973" transform="translate(0 285.011)" fill="#aed3f2"/>
          <path id="Trazado_105734" data-name="Trazado 105734" d="M625.486,6065.149v288.737h192.49V6065.149Zm185.665,6.112v36.212H778.384V6071.3ZM704.72,6192.11v-37.529h31.308v37.532Zm31.308,4.783v37.532H704.72v-37.532Zm-36.833-4.783H667.866v-37.529h31.317Zm0,4.783v37.532H667.866v-37.532Zm0,42.315v37.53H667.866v-37.53Zm5.526,0h31.308v37.53H704.72Zm36.833,0h31.316v37.53H741.541Zm0-4.774V6196.9h31.316v37.531Zm0-42.322v-37.53h31.316v37.532Zm0-42.315v-37.532h31.316V6149.8Zm-5.526,0H704.72v-37.532h31.308Zm-36.833,0H667.866v-17.98a14.22,14.22,0,0,0,0-2.877v-16.687h31.317Zm-36.841,0H632.276v-37.532H662.31Zm-16.879,4.774,4.774,3.664a8.376,8.376,0,0,0-3.369-3.664h15.474v37.53H632.276v-37.53Zm16.879,42.322v37.532H632.276v-37.532Zm0,42.315v37.53H632.276v-37.53Zm0,42.322v37.527H632.276v-37.532Zm5.526,0h31.316v37.527H667.866Zm36.842,0h31.308v37.527H704.72Zm36.833,0h31.316v37.527H741.541Zm36.841,0h32.767v37.527H778.386Zm0-4.774v-37.53h32.767v37.53Zm0-42.322V6196.9h32.767v37.531Zm0-42.322v-37.53h32.767v37.532Zm0-42.315v-37.532h32.767V6149.8Zm-5.526-78.5v36.177H741.541V6071.3Zm-36.842,0v36.177H704.72V6071.3Zm-36.833,0v36.177H667.866V6071.3Zm-36.841,0v36.177H632.276V6071.3Zm-30.077,276.446v-23.892H662.31v23.889Zm35.56,0v-23.892h31.316v23.889Zm36.841,0v-23.892h31.308v23.889Zm36.832,0v-23.892h31.317v23.889Zm36.841,0v-23.892h32.767v23.889Z" transform="translate(-494.118 -6065.149)" fill="#dfedfa"/>
        </g>
      </g>
      <g id="freepik--Plants--inject-1--inject-76" transform="translate(323.555 136.364)">
        <path id="Trazado_105735" data-name="Trazado 105735" d="M757.322,6224.9c-.08,0,1.151-5.37,1.265-5.7,1.344-3.816,6.2-10.4,10.727-10.283a5.358,5.358,0,0,1,5,6.234c-.409,3.168-3.334,5.813-5.96,7.314C765.265,6224.225,757.33,6224.9,757.322,6224.9Z" transform="translate(-738.785 -6099.937)" fill="#344154"/>
        <path id="Trazado_105736" data-name="Trazado 105736" d="M757.638,6210.514c-.078,0,1.947-5.133,2.113-5.435,1.918-3.579,7.7-9.357,12.157-8.545a5.368,5.368,0,0,1,4.156,6.353,5.6,5.6,0,0,1-.148.561c-.873,3.082-4.182,5.235-6.984,6.328C765.59,6211.055,757.647,6210.514,757.638,6210.514Z" transform="translate(-738.596 -6107.391)" fill="#344154"/>
        <path id="Trazado_105737" data-name="Trazado 105737" d="M761.2,6195.327c-.088,0,1.937-5.131,2.1-5.434,1.918-3.569,7.706-9.348,12.167-8.546a5.369,5.369,0,0,1,4.156,6.358,5.687,5.687,0,0,1-.15.563c-.874,3.073-4.181,5.238-6.983,6.329C769.148,6195.862,761.2,6195.327,761.2,6195.327Z" transform="translate(-736.464 -6116.478)" fill="#344154"/>
        <path id="Trazado_105738" data-name="Trazado 105738" d="M763.858,6180.847c-.088,0,1.937-5.132,2.1-5.447,1.918-3.569,7.707-9.347,12.167-8.535a5.367,5.367,0,0,1,4.156,6.354,4.85,4.85,0,0,1-.149.56c-.873,3.08-4.189,5.235-6.982,6.328C771.808,6181.38,763.858,6180.847,763.858,6180.847Z" transform="translate(-734.874 -6125.145)" fill="#344154"/>
        <path id="Trazado_105739" data-name="Trazado 105739" d="M762.729,6169.463c-.086,0,.516-5.463.595-5.8.873-3.956,4.955-11.06,9.479-11.452a5.367,5.367,0,0,1,5.679,5.039,5.673,5.673,0,0,1,0,.573c0,3.2-2.618,6.162-5.08,7.951C770.542,6167.844,762.729,6169.463,762.729,6169.463Z" transform="translate(-735.553 -6133.875)" fill="#344154"/>
        <path id="Trazado_105740" data-name="Trazado 105740" d="M762.06,6224.8c.08,0-.8-5.434-.873-5.755-1.09-3.9-5.5-10.8-10.028-10.97a5.364,5.364,0,0,0-5.409,5.891c.2,3.2,2.951,6.024,5.473,7.69C754.18,6223.618,762.052,6224.8,762.06,6224.8Z" transform="translate(-745.724 -6100.438)" fill="#344154"/>
        <path id="Trazado_105741" data-name="Trazado 105741" d="M764.157,6208.937c.086,0-1.606-5.235-1.745-5.569-1.677-3.692-7.079-9.836-11.584-9.322a5.366,5.366,0,0,0-4.442,6.643c.681,3.125,3.836,5.506,6.573,6.772C756.187,6208.954,764.147,6208.937,764.157,6208.937Z" transform="translate(-745.428 -6108.851)" fill="#344154"/>
        <path id="Trazado_105742" data-name="Trazado 105742" d="M767.54,6194.615c.078,0-1.606-5.235-1.745-5.558-1.667-3.693-7.07-9.837-11.574-9.322a5.366,5.366,0,0,0-4.562,6.073q.041.285.11.566c.69,3.132,3.836,5.508,6.582,6.782C759.573,6194.633,767.533,6194.615,767.54,6194.615Z" transform="translate(-743.401 -6117.417)" fill="#344154"/>
        <path id="Trazado_105743" data-name="Trazado 105743" d="M770.015,6181.292c.086,0-1.606-5.236-1.745-5.567-1.677-3.685-7.07-9.828-11.582-9.314a5.364,5.364,0,0,0-4.443,6.633c.681,3.134,3.836,5.508,6.58,6.774C762.045,6181.31,770.015,6181.292,770.015,6181.292Z" transform="translate(-741.921 -6125.389)" fill="#344154"/>
        <path id="Trazado_105744" data-name="Trazado 105744" d="M769.7,6168.444c.086,0-2.164-5.037-2.348-5.342-2.068-3.491-8.109-9-12.535-7.992a5.363,5.363,0,0,0-3.676,7.088c1.021,3.028,4.408,5.053,7.279,6C761.784,6169.334,769.7,6168.444,769.7,6168.444Z" transform="translate(-742.689 -6132.204)" fill="#344154"/>
        <path id="Trazado_105745" data-name="Trazado 105745" d="M764.762,6159.568c.07,0,.393-5.471.376-5.821-.235-4.049-3.055-11.731-7.445-12.874a5.369,5.369,0,0,0-6.438,4.022,5.766,5.766,0,0,0-.1.569c-.489,3.168,1.589,6.52,3.692,8.729C757.317,6156.706,764.754,6159.561,764.762,6159.568Z" transform="translate(-742.517 -6140.734)" fill="#344154"/>
        <path id="Trazado_105746" data-name="Trazado 105746" d="M757.5,6291.212s-.288-2.312-.639-6.328-.75-9.75-.933-16.662c-.1-3.491-.131-7.193-.061-11.155,0-1.99.1-3.98.182-6.109.07-1.029.149-2.069.219-3.125s.245-2.138.358-3.221a123.109,123.109,0,0,1,2.5-13.092c1.074-4.406,2.3-8.832,3.491-13.249s2.374-8.833,3.3-13.224a91.905,91.905,0,0,0,1.894-13.012,69.174,69.174,0,0,0-.419-12.282,93.694,93.694,0,0,0-1.894-10.97c-.767-3.344-1.667-6.363-2.487-9.026s-1.667-4.956-2.366-6.826c-1.423-3.753-2.4-5.829-2.4-5.829s1.012,2.059,2.513,5.776c.751,1.86,1.616,4.138,2.524,6.783s1.849,5.657,2.687,9a94.877,94.877,0,0,1,2.191,10.911,70.134,70.134,0,0,1,.7,12.43,94.69,94.69,0,0,1-1.632,13.213c-.873,4.451-1.918,8.92-3.029,13.372s-2.27,8.912-3.238,13.267a120.081,120.081,0,0,0-2.182,12.935c-.088,1.056-.245,2.059-.28,3.126s-.1,2.1-.16,3.132c0,1.99-.061,4.05-.043,6,0,3.92.131,7.62.305,11.029.32,6.833.873,12.516,1.279,16.478s.759,6.2.759,6.2a1.6,1.6,0,0,1-3.151.463h0v-.01Z" transform="translate(-739.677 -6136.924)" fill="#344154"/>
        <path id="Trazado_105747" data-name="Trazado 105747" d="M750.8,6231.62h21.759v4.5h-1.894l-3.927,24.579H756.631l-3.937-24.579H750.8Z" transform="translate(-742.686 -6086.349)" fill="#344154" stroke="#263238" stroke-linecap="round" stroke-linejoin="round" stroke-width="1"/>
      </g>
      <g id="freepik--Character--inject-1--inject-76" transform="translate(113.585)">
        <path id="Trazado_105748" data-name="Trazado 105748" d="M661.251,6243.092s-.751,4.424-.2,5.42,1.439,2.3,1.439,2.3h6.929l.376-2.138a9.948,9.948,0,0,0,3.44,2.472c1.841.653,3.622,0,5.778.159,1.824.141,6.109,0,6.109,0L685,6249l-12.507-5.594-4.476-3.493S664.078,6243.453,661.251,6243.092Z" transform="translate(-586.543 -5945.025)" fill="#344154" stroke="#263238" stroke-linecap="round" stroke-linejoin="round" stroke-width="1"/>
        <path id="Trazado_105749" data-name="Trazado 105749" d="M637.45,6242.765s1.188,3.6.751,4.591-1.152,3.132-1.152,3.132h-6.921l-.612-2.138a8.467,8.467,0,0,1-3.168,2.471c-1.745.654-3.63,0-5.754.16-1.806.141-6.109,0-6.109,0l-.123-2.312,11.9-5.595,4.722-2.62S634.658,6243.126,637.45,6242.765Z" transform="translate(-614.361 -5944.699)" fill="#344154" stroke="#263238" stroke-linecap="round" stroke-linejoin="round" stroke-width="1"/>
        <path id="Trazado_105750" data-name="Trazado 105750" d="M686.484,6135.443s2.863,37.061,3.857,54.779,1.458,25.755,1.571,38.229.663,37.122.663,46.382a214.608,214.608,0,0,1-1.841,28.27l-8.369,4.462s-2.706-23.777-3.8-32.288c-.986-7.707-4.591-39.068-6.223-48.766s-9.069-43.413-9.069-43.413-9.923,35.375-12.49,49.507-12.22,46-14.288,53.748-5.367,19.246-5.367,19.246a8.705,8.705,0,0,1-3.587.279,3.308,3.308,0,0,1-2.62-1.668s2.436-23.2,3.439-34.476c1.248-13.964,1.642-32.5,3.16-40.263s1.466-22.623,3.229-32.607c1-5.665,6.109-59.857,6.109-59.857S669.176,6148.466,686.484,6135.443Z" transform="translate(-608.041 -6007.537)" fill="#344154" stroke="#263238" stroke-linecap="round" stroke-linejoin="round" stroke-width="1"/>
        <line id="Línea_395" data-name="Línea 395" x1="6.52" y2="5.289" transform="translate(76.173 295.565)" fill="none" stroke="#fff" stroke-linecap="round" stroke-linejoin="round" stroke-width="0.5"/>
        <line id="Línea_396" data-name="Línea 396" x2="5.176" y2="3.972" transform="translate(16.622 295.739)" fill="none" stroke="#fff" stroke-linecap="round" stroke-linejoin="round" stroke-width="0.5"/>
        <path id="Trazado_105751" data-name="Trazado 105751" d="M651.789,6143.247l-.524,21.611,3.665-3.658" transform="translate(-592.278 -6002.867)" fill="none" stroke="#fff" stroke-linecap="round" stroke-linejoin="round" stroke-width="0.5"/>
        <line id="Línea_397" data-name="Línea 397" y1="12.952" x2="10.412" transform="translate(57.224 161.972)" fill="none" stroke="#fff" stroke-linecap="round" stroke-linejoin="round" stroke-width="0.5"/>
        <line id="Línea_398" data-name="Línea 398" x1="8.684" y2="8.519" transform="translate(61.842 162.916)" fill="none" stroke="#fff" stroke-linecap="round" stroke-linejoin="round" stroke-width="0.5"/>
        <path id="Trazado_105752" data-name="Trazado 105752" d="M651.17,6163.137a29.365,29.365,0,0,0-13.048-13.88" transform="translate(-600.142 -5999.271)" fill="none" stroke="#fff" stroke-linecap="round" stroke-linejoin="round" stroke-width="0.5"/>
        <path id="Trazado_105753" data-name="Trazado 105753" d="M656.271,6139.588l-.5,2.53-4.05.943.462-3.15" transform="translate(-592.003 -6005.057)" fill="none" stroke="#fff" stroke-linecap="round" stroke-linejoin="round" stroke-width="0.5"/>
        <path id="Trazado_105754" data-name="Trazado 105754" d="M656,6143.3a56.983,56.983,0,0,1-11.433-1.579l.81-2.522" transform="translate(-596.283 -6005.292)" fill="none" stroke="#fff" stroke-linecap="round" stroke-linejoin="round" stroke-width="0.5"/>
        <path id="Trazado_105755" data-name="Trazado 105755" d="M645.785,6138.8l-.767,3.152s-6.015-.321-6.983-1.259" transform="translate(-600.195 -6005.529)" fill="none" stroke="#fff" stroke-linecap="round" stroke-linejoin="round" stroke-width="0.5"/>
        <path id="Trazado_105756" data-name="Trazado 105756" d="M654.258,6143.161a13.361,13.361,0,0,0,5.914-1.57l2.751-1.579-1.066-2.208" transform="translate(-590.487 -6006.126)" fill="none" stroke="#fff" stroke-linecap="round" stroke-linejoin="round" stroke-width="0.5"/>
        <path id="Trazado_105757" data-name="Trazado 105757" d="M667.872,6090.07s5.481,4.758,7.122,7.9,23.177,47.063,23.1,50.065-3.274,8.729-8.9,8.729-26.927-34.233-26.927-34.233Z" transform="translate(-585.693 -6034.688)" fill="#aed3f2"/>
        <g id="Grupo_57526" data-name="Grupo 57526" transform="translate(76.574 55.383)">
          <g id="Grupo_57525" data-name="Grupo 57525" clip-path="url(#clip-path)">
            <g id="Grupo_57524" data-name="Grupo 57524" transform="translate(5.861 0.191)">
              <path id="Trazado_105758" data-name="Trazado 105758" d="M666.349,6095.272l.368.2c.639.375,2.094,1.223,3.676,2.277a30.51,30.51,0,0,1,4.88,4.688,22.989,22.989,0,0,0-4.863-7.742,39.872,39.872,0,0,1-4.475-4.506Z" transform="translate(-665.935 -6090.19)" fill="#6595bf" opacity="0.5" style="isolation: isolate"/>
            </g>
          </g>
        </g>
        <path id="Trazado_105759" data-name="Trazado 105759" d="M667.872,6090.07s5.481,4.758,7.122,7.9,23.177,47.063,23.1,50.065-3.274,8.729-8.9,8.729-26.927-34.233-26.927-34.233Z" transform="translate(-585.693 -6034.688)" fill="none" stroke="#263238" stroke-linecap="round" stroke-linejoin="round" stroke-width="1"/>
        <path id="Trazado_105760" data-name="Trazado 105760" d="M681.6,6129.189c-.726-.873-6.111-9.542-6.661-12.778s.873-7.384.873-9.548-3.42,3.778-3.6,3.063-2.339-8.471-2.339-8.471L663.26,6110l-.986,5.734s8.344,13.4,15.973,23.425c5.435-1.745,13.625-4.406,15.388-5.471C696.361,6132.076,682.323,6130.1,681.6,6129.189Z" transform="translate(-585.69 -6027.877)" fill="#6595bf" opacity="0.5" style="isolation: isolate"/>
        <path id="Trazado_105761" data-name="Trazado 105761" d="M662.658,6086.358l26.351,5.934a174.307,174.307,0,0,1,1.624,20.8c-.211,7.3-5.639,52.428-5.639,52.428s-13.965,14.245-45.316.873c0,0-1.092-2.1-1.5-17.832-.392-15.5-12.054-44.312-11.118-47.594,1.918-6.729,24.98-13.2,28.009-13.379a59.564,59.564,0,0,0,7.593-1.229Z" transform="translate(-606.796 -6036.91)" fill="#aed3f2" stroke="#263238" stroke-linecap="round" stroke-linejoin="round" stroke-width="1"/>
        <path id="Trazado_105762" data-name="Trazado 105762" d="M659.836,6156.534l-24.136-9.461,4.172-45.841,27.451,12.849,16.452-7.4-11.766,47.839Z" transform="translate(-601.592 -6028.008)" fill="#6595bf" opacity="0.5" style="isolation: isolate"/>
        <path id="Trazado_105763" data-name="Trazado 105763" d="M672.188,6094.262c1.119,0,11.539,2.086,17.456,3.291-.34-3.091-.639-5.238-.639-5.238l-26.356-5.935a59.5,59.5,0,0,1-7.594,1.23c-3.037.185-26.087,6.652-28.009,13.38-.305,1.092.759,4.966,2.34,10.229,2.3-5.945,4.364-10.84,5.07-11.531,1.589-1.587,17.456-5.707,17.456-5.707Z" transform="translate(-606.802 -6036.897)" fill="#6595bf" opacity="0.5" style="isolation: isolate"/>
        <path id="Trazado_105764" data-name="Trazado 105764" d="M658.579,6098l-3.622,8.1,7.942,56.123-5.821,7.856-5.526-6.406,1.544-56.855-7.314-8.536,4.678-8.85Z" transform="translate(-595.559 -6035.073)" fill="#344154"/>
        <path id="Trazado_105765" data-name="Trazado 105765" d="M691.025,6107.071l-21.113,11.713-27.154-14.21-4.3,40.1,26.891,12.962,20.364-12.256Z" transform="translate(-599.943 -6026.009)" fill="#d9a171" stroke="#263238" stroke-linecap="round" stroke-linejoin="round" stroke-width="1"/>
        <line id="Línea_399" data-name="Línea 399" y1="6.442" x2="0.802" transform="translate(69.164 95.341)" fill="none" stroke="#263238" stroke-linecap="round" stroke-linejoin="round" stroke-width="0.5"/>
        <line id="Línea_400" data-name="Línea 400" y1="26.316" x2="3.317" transform="translate(65.403 105.317)" fill="none" stroke="#263238" stroke-linecap="round" stroke-linejoin="round" stroke-width="0.5"/>
        <path id="Trazado_105766" data-name="Trazado 105766" d="M656.69,6085.187s4.757,0,6.825,3.143,6.04,15.561,6.04,15.561l-14.315-4.023-8.674,8.964s-7.952-11.784-4.714-19.262S656.69,6085.187,656.69,6085.187Z" transform="translate(-598.374 -6037.991)" fill="#c1d5e5" stroke="#263238" stroke-linecap="round" stroke-linejoin="round" stroke-width="1"/>
        <path id="Trazado_105767" data-name="Trazado 105767" d="M664.96,6091.236a21.752,21.752,0,0,0-1.448-2.905c-2.068-3.186-6.825-3.143-6.825-3.143s-11.582-3.1-14.838,4.365a13.368,13.368,0,0,0-.27,8.065,19.484,19.484,0,0,1,3.491-6.108c2.217-2.218,2.479-.289,2.479-.289l12.412-.987A40.049,40.049,0,0,0,664.96,6091.236Z" transform="translate(-598.371 -6037.992)" fill="#6595bf" opacity="0.5" style="isolation: isolate"/>
        <path id="Trazado_105768" data-name="Trazado 105768" d="M657.1,6080.428s.8,16.513-1.279,19.769-4.459,2.008-6.2,0a33.646,33.646,0,0,1-3.7-6.493l-2.121-12.219S656.158,6083.762,657.1,6080.428Z" transform="translate(-596.742 -6040.458)" fill="#ffbf9d" stroke="#263238" stroke-linecap="round" stroke-linejoin="round" stroke-width="1"/>
        <path id="Trazado_105769" data-name="Trazado 105769" d="M652.539,6092.989a9.127,9.127,0,0,0,4.574-3.019v-2.758c-2.035-2.33-6.7-6.731-11.906-5.317-.444.124-.873.263-1.264.4l1.885,10.691a33.223,33.223,0,0,0,3.7,6.495l-1.745-7.793a4.932,4.932,0,0,0,4.757,1.3Z" transform="translate(-596.659 -6039.744)" fill="#d9a171" opacity="0.5" style="isolation: isolate"/>
        <path id="Trazado_105770" data-name="Trazado 105770" d="M657.42,6071.109s2.4-.174,2.444,3.816-2.3,7.339-3.911,5.952S656.978,6069.3,657.42,6071.109Z" transform="translate(-589.782 -6046.162)" fill="#aed3f2" stroke="#263238" stroke-linecap="round" stroke-linejoin="round" stroke-width="1"/>
        <path id="Trazado_105771" data-name="Trazado 105771" d="M652.053,6058.321c-10.884,2.558-13.8,9.6-13.711,15.972a42.863,42.863,0,0,0,2.618,11.1l-.192-.4s-3.273-5.709-3.753-2.28,2.757,6.984,3.836,8.126a1.745,1.745,0,0,0,2.217.123c2.164,5.238,4.583,9.924,6.162,11.2,3.422,2.767,8.23,4.19,12.053.873s7.6-22.231,7.6-22.231C669.787,6061.661,662.938,6055.772,652.053,6058.321Z" transform="translate(-600.833 -6054.023)" fill="#ffbf9d"/>
        <g id="Grupo_57529" data-name="Grupo 57529" transform="translate(36.133 3.736)">
          <g id="Grupo_57528" data-name="Grupo 57528" clip-path="url(#clip-path-2)">
            <g id="Grupo_57527" data-name="Grupo 57527" transform="translate(0 0.026)">
              <path id="Trazado_105772" data-name="Trazado 105772" d="M646.259,6078.457s3.8-3.17,7.6-3.17,11.731,3.493,12.672,6.337c.577,1.746-.1,7.375-.742,11.653,1.833-6.022,3.125-12.468,3.125-12.468.873-19.123-5.988-25.032-16.863-22.467s-13.8,9.6-13.711,15.974a42.868,42.868,0,0,0,2.618,11.094l-.192-.4s-3.273-5.708-3.753-2.277,2.757,6.983,3.836,8.126a1.749,1.749,0,0,0,2.217.124c2.165,5.235,4.583,9.922,6.162,11.2,0,0-3.64-8.195-4.906-11.679S643.4,6080.961,646.259,6078.457Z" transform="translate(-636.967 -6057.775)" fill="#d9a171" opacity="0.5" style="isolation: isolate"/>
            </g>
          </g>
        </g>
        <path id="Trazado_105773" data-name="Trazado 105773" d="M652.053,6058.321c-10.884,2.558-13.8,9.6-13.711,15.972a42.863,42.863,0,0,0,2.618,11.1l-.192-.4s-3.273-5.709-3.753-2.28,2.757,6.984,3.836,8.126a1.745,1.745,0,0,0,2.217.123c2.164,5.238,4.583,9.924,6.162,11.2,3.422,2.767,8.23,4.19,12.053.873s7.6-22.231,7.6-22.231C669.787,6061.661,662.938,6055.772,652.053,6058.321Z" transform="translate(-600.833 -6054.023)" fill="none" stroke="#263238" stroke-linecap="round" stroke-linejoin="round" stroke-width="1"/>
        <path id="Trazado_105774" data-name="Trazado 105774" d="M656.339,6075.655a3.752,3.752,0,0,1-5.15,1.084" transform="translate(-592.323 -6043.315)" fill="none" stroke="#263238" stroke-linecap="round" stroke-linejoin="round" stroke-width="1"/>
        <path id="Trazado_105775" data-name="Trazado 105775" d="M649.071,6076.376a3.752,3.752,0,0,1-5.15,1.082" transform="translate(-596.672 -6042.883)" fill="none" stroke="#263238" stroke-linecap="round" stroke-linejoin="round" stroke-width="1"/>
        <path id="Trazado_105776" data-name="Trazado 105776" d="M650.717,6075.22a13.075,13.075,0,0,0-4.495-1.317,7.188,7.188,0,0,0-4.12,1.6" transform="translate(-597.761 -6044.362)" fill="none" stroke="#263238" stroke-linecap="round" stroke-linejoin="round" stroke-width="1"/>
        <path id="Trazado_105777" data-name="Trazado 105777" d="M652.5,6080.242a2.04,2.04,0,0,1-2.268,1.745,3.016,3.016,0,0,1-2.733-1.562" transform="translate(-594.532 -6040.569)" fill="none" stroke="#263238" stroke-linecap="round" stroke-linejoin="round" stroke-width="1"/>
        <path id="Trazado_105778" data-name="Trazado 105778" d="M654.907,6082.879s-5.1,1.519-8.371.2a6.265,6.265,0,0,0,4.086,3.063C652.552,6086.659,654.907,6082.879,654.907,6082.879Z" transform="translate(-595.107 -6038.991)" fill="#344154"/>
        <path id="Trazado_105779" data-name="Trazado 105779" d="M657.658,6073.347s-1.918-.161-3.718-.149c-1.659,0-3.309,2.157-3.309,2.157l-.583,2.618" transform="translate(-593.006 -6044.785)" fill="none" stroke="#263238" stroke-linecap="round" stroke-linejoin="round" stroke-width="1"/>
        <path id="Trazado_105780" data-name="Trazado 105780" d="M650.961,6074.567a67.329,67.329,0,0,0,12.893,8.492c7.512,3.754,13.267-3.491,9.75-7.052s4.583,3.909,5.857-.558-10.39-19.8-22.1-20.023-14.545,7.123-14.545,7.123-1.379-3.78-2.418-1.695a8.741,8.741,0,0,0-1.012,3.677,42.246,42.246,0,0,0-3.42,2.784c-1.049,1.04.3,2.14.3,2.14s-2.094,5.235-.977,9.27l6.013,8.728a4.73,4.73,0,0,0,3.692-1.973c1.571-2.059.419-8.482.419-8.482s.1,6.911,1.937,5.393-.873-8.273-.873-8.273Z" transform="translate(-602.037 -6055.422)" fill="#344154"/>
        <path id="Trazado_105781" data-name="Trazado 105781" d="M641.7,6062.932s5.36,4.034,9.236,7.717,9.784,5.1,11.539,4.287" transform="translate(-598.001 -6050.927)" fill="none" stroke="#fff" stroke-linecap="round" stroke-miterlimit="10" stroke-width="0.5"/>
        <path id="Trazado_105782" data-name="Trazado 105782" d="M658.38,6070.2s-7.672-1.746-9.488-5.08-7.4-2.941-7.4-2.941a11.085,11.085,0,0,1,10.561-2.515" transform="translate(-598.126 -6053.136)" fill="none" stroke="#fff" stroke-linecap="round" stroke-miterlimit="10" stroke-width="0.5"/>
        <path id="Trazado_105783" data-name="Trazado 105783" d="M639.875,6063.963s6,9.052,2.217,11.836" transform="translate(-599.093 -6050.31)" fill="none" stroke="#fff" stroke-linecap="round" stroke-miterlimit="10" stroke-width="0.5"/>
        <path id="Trazado_105784" data-name="Trazado 105784" d="M632.867,6095.5s-16.3,44.427-15.546,49.391,9.3,2.985,12,2.312,13.092-17.168,13.161-20.719a5.593,5.593,0,0,0,2.55-3.824c.639-2.863,1.072-13.092-3.064-20.766" transform="translate(-612.605 -6031.438)" fill="#aed3f2"/>
        <g id="Grupo_57532" data-name="Grupo 57532" transform="translate(4.69 64.061)">
          <g id="Grupo_57531" data-name="Grupo 57531" clip-path="url(#clip-path-3)">
            <g id="Grupo_57530" data-name="Grupo 57530">
              <path id="Trazado_105785" data-name="Trazado 105785" d="M632.867,6095.5s-16.3,44.427-15.546,49.391c.42,2.717,3.178,3.342,6.023,3.255,1.99-5.612,2.767-15.867,4.26-20.948,1.65-5.681,7.033-20.387,10.3-28.121Z" transform="translate(-617.295 -6095.5)" fill="#6595bf" opacity="0.5" style="isolation: isolate"/>
            </g>
          </g>
        </g>
        <path id="Trazado_105786" data-name="Trazado 105786" d="M632.867,6095.5s-16.3,44.427-15.546,49.391,9.3,2.985,12,2.312,13.092-17.168,13.161-20.719a5.593,5.593,0,0,0,2.55-3.824c.639-2.863,1.072-13.092-3.064-20.766" transform="translate(-612.605 -6031.438)" fill="none" stroke="#263238" stroke-linecap="round" stroke-linejoin="round" stroke-width="1"/>
        <path id="Trazado_105787" data-name="Trazado 105787" d="M645.2,6124.418s-20.949-1.279-23.637-1.493-5.914,3.491-3.377,8.631,6.553,5.434,11.5,4.495,15.85-7.593,15.85-7.593Z" transform="translate(-612.623 -6015.033)" fill="#aed3f2"/>
        <g id="Grupo_57535" data-name="Grupo 57535" transform="translate(4.642 107.883)">
          <g id="Grupo_57534" data-name="Grupo 57534" clip-path="url(#clip-path-4)">
            <g id="Grupo_57533" data-name="Grupo 57533">
              <path id="Trazado_105788" data-name="Trazado 105788" d="M645.2,6124.418s-20.949-1.279-23.637-1.493-5.914,3.491-3.377,8.631,6.553,5.434,11.5,4.495,15.85-7.593,15.85-7.593Z" transform="translate(-617.265 -6122.917)" fill="#6595bf" stroke="#263238" stroke-linecap="round" stroke-linejoin="round" stroke-width="1" opacity="0.5" style="isolation: isolate"/>
            </g>
          </g>
        </g>
        <path id="Trazado_105789" data-name="Trazado 105789" d="M645.2,6124.418s-20.949-1.279-23.637-1.493-5.914,3.491-3.377,8.631,6.553,5.434,11.5,4.495,15.85-7.593,15.85-7.593Z" transform="translate(-612.623 -6015.033)" fill="none" stroke="#263238" stroke-linecap="round" stroke-linejoin="round" stroke-width="1"/>
        <path id="Trazado_105790" data-name="Trazado 105790" d="M639.36,6121.713s2.706-2.877,3.422-2.809,5.97-.228,6.414,1-.262.689-.986,1.1a24.706,24.706,0,0,1-4.316.872,15.324,15.324,0,0,1,4.033.8c.933.55,4.888,4.2,4.87,4.914s-.5.873-1.458.873-.253.689-.515,1.379-2.156.54-2.156.54.16,2.4-1.266,2.27a12.046,12.046,0,0,1-4-1.992s-5.3,1.939-7.2,1.79a6.962,6.962,0,0,0-3.6.812,40.8,40.8,0,0,1,6.749-11.551Z" transform="translate(-603.44 -6017.436)" fill="#ffbf9d"/>
        <g id="Grupo_57538" data-name="Grupo 57538" transform="translate(29.17 101.468)">
          <g id="Grupo_57537" data-name="Grupo 57537" clip-path="url(#clip-path-5)">
            <g id="Grupo_57536" data-name="Grupo 57536" transform="translate(-0.006)">
              <path id="Trazado_105791" data-name="Trazado 105791" d="M639.362,6121.713a40.754,40.754,0,0,0-6.755,11.478,6.971,6.971,0,0,1,3.595-.812,7.515,7.515,0,0,0,1.859-.2,27.922,27.922,0,0,0,.673-5.081c0-2.54,4.05-8.2,4.05-8.2C642.058,6118.843,639.362,6121.713,639.362,6121.713Z" transform="translate(-632.607 -6118.903)" fill="#d9a171" opacity="0.5" style="isolation: isolate"/>
            </g>
          </g>
        </g>
        <path id="Trazado_105792" data-name="Trazado 105792" d="M639.36,6121.713s2.706-2.877,3.422-2.809,5.97-.228,6.414,1-.262.689-.986,1.1a24.706,24.706,0,0,1-4.316.872,15.324,15.324,0,0,1,4.033.8c.933.55,4.888,4.2,4.87,4.914s-.5.873-1.458.873-.253.689-.515,1.379-2.156.54-2.156.54.16,2.4-1.266,2.27a12.046,12.046,0,0,1-4-1.992s-5.3,1.939-7.2,1.79a6.962,6.962,0,0,0-3.6.812,40.8,40.8,0,0,1,6.749-11.551Z" transform="translate(-603.44 -6017.436)" fill="none" stroke="#263238" stroke-linecap="round" stroke-linejoin="round" stroke-width="1"/>
        <path id="Trazado_105793" data-name="Trazado 105793" d="M647.5,6126.434l-4.669-3.71-3.806-.55" transform="translate(-599.603 -6015.478)" fill="none" stroke="#263238" stroke-linecap="round" stroke-linejoin="round" stroke-width="1"/>
        <path id="Trazado_105794" data-name="Trazado 105794" d="M645.474,6127.25l-5.176-2.8-2.374-.428" transform="translate(-600.26 -6014.374)" fill="none" stroke="#263238" stroke-linecap="round" stroke-linejoin="round" stroke-width="1"/>
        <path id="Trazado_105795" data-name="Trazado 105795" d="M677.751,6119.5s-2.706-2.862-3.422-2.81-5.97-.219-6.414,1,.262.689.986,1.107a24.3,24.3,0,0,0,4.316.83,15.031,15.031,0,0,0-4.033.812c-.933.558-4.888,4.2-4.87,4.9s.5.875,1.458.875.253.689.515,1.377,2.156.532,2.156.532-.16,2.4,1.266,2.28a11.915,11.915,0,0,0,4-1.992s5.3,1.938,7.2,1.746a6.907,6.907,0,0,1,3.594.821,40.785,40.785,0,0,0-6.748-11.484Z" transform="translate(-584.47 -6018.758)" fill="#ffbf9d" stroke="#263238" stroke-linecap="round" stroke-linejoin="round" stroke-width="1"/>
        <path id="Trazado_105796" data-name="Trazado 105796" d="M665.228,6124.217l4.661-3.7,3.806-.55" transform="translate(-583.922 -6016.797)" fill="none" stroke="#263238" stroke-linecap="round" stroke-linejoin="round" stroke-width="1"/>
        <path id="Trazado_105797" data-name="Trazado 105797" d="M666.9,6125.038l5.176-2.793,2.374-.437" transform="translate(-582.922 -6015.696)" fill="none" stroke="#263238" stroke-linecap="round" stroke-linejoin="round" stroke-width="1"/>
        <path id="Trazado_105798" data-name="Trazado 105798" d="M674.669,6121.254s8.981-1.029,12.063,1.279,2.557,8.2,2.557,8.2" transform="translate(-578.273 -6016.164)" fill="none" stroke="#263238" stroke-linecap="round" stroke-linejoin="round" stroke-width="1"/>
      </g>
      <g id="freepik--character--inject-1--inject-76-2" data-name="freepik--character--inject-1--inject-76" transform="translate(55.456 65.85)">
        <path id="Trazado_105799" data-name="Trazado 105799" d="M630.28,6240.608a3.719,3.719,0,0,1,4.025-1.527c3.063.384,4.984,4.024,2.877,5.166S630.28,6240.608,630.28,6240.608Z" transform="translate(-546.706 -6011.442)" fill="#d9a171" stroke="#263238" stroke-linecap="round" stroke-linejoin="round" stroke-width="1"/>
        <path id="Trazado_105800" data-name="Trazado 105800" d="M638.66,6184.539s7.21,1.448,10.676,3.754,4.031,2.877,4.9,7.5-2.3,17.011-2.3,23.356-4.616,44.986-4.616,48.172,3.176,9.8,2.888,12.105a13.048,13.048,0,0,0,.577,4.905s2.016,1.438-.577,1.746-2.888.575-5.193-.576-3.491-6.922-5.481-8.649a8.053,8.053,0,0,1-3.168-5.193c0-1.45,4.608-6.914,4.608-6.914s-.575-8.073-.873-14.994-3.491-22.206-3.491-28.8,4.364-22.206,4.364-22.206-11.2,1.372-15.562-1.508S625.978,6181.659,638.66,6184.539Z" transform="translate(-550.556 -6044.261)" fill="#aed3f2" stroke="#263238" stroke-linecap="round" stroke-linejoin="round" stroke-width="1"/>
        <path id="Trazado_105801" data-name="Trazado 105801" d="M635.719,6243.436s-5.236-4.495-5.395-3.357a75.8,75.8,0,0,0,.192,11.11c.385.959,10.727,1.918,16.1,2.877s3.256-2.5,2.1-3.264S635.719,6243.436,635.719,6243.436Z" transform="translate(-546.751 -6010.885)" fill="#d9a171" stroke="#263238" stroke-linecap="round" stroke-linejoin="round" stroke-width="1"/>
        <path id="Trazado_105802" data-name="Trazado 105802" d="M635.719,6243.436s-5.236-4.495-5.395-3.357a75.8,75.8,0,0,0,.192,11.11c.385.959,10.727,1.918,16.1,2.877s3.256-2.5,2.1-3.264S635.719,6243.436,635.719,6243.436Z" transform="translate(-546.751 -6010.885)" opacity="0.2" style="isolation: isolate"/>
        <path id="Trazado_105803" data-name="Trazado 105803" d="M634.594,6247.438a16.868,16.868,0,0,1,3.639-3.257,16.193,16.193,0,0,1,5.367-2.485l2.489,4.782a25.208,25.208,0,0,0-4.976,1.746,14.732,14.732,0,0,0-3.256,2.679S634.978,6248.975,634.594,6247.438Z" transform="translate(-544.125 -6009.807)" fill="#344154" stroke="#263238" stroke-linecap="round" stroke-linejoin="round" stroke-width="1"/>
        <path id="Trazado_105804" data-name="Trazado 105804" d="M638.418,6242.286a1.791,1.791,0,0,0-1.552,2,.587.587,0,0,0,.016.105c.192,1.919.384,8.048,1.152,8.239s10.343,1.746,13.791,1.918,7.279.192,7.279-1.528-.577-2.488-1.336-2.488a12.34,12.34,0,0,1-4.8-1.918c-2.3-1.334-7.856-6.51-9.6-6.7S639.379,6240.558,638.418,6242.286Z" transform="translate(-542.773 -6010.014)" fill="#d9a171" stroke="#263238" stroke-linecap="round" stroke-linejoin="round" stroke-width="1"/>
        <path id="Trazado_105805" data-name="Trazado 105805" d="M638.418,6242.286a1.791,1.791,0,0,0-1.552,2,.587.587,0,0,0,.016.105c.192,1.919.384,8.048,1.152,8.239s10.343,1.746,13.791,1.918,7.279.192,7.279-1.528-.577-2.488-1.336-2.488a12.34,12.34,0,0,1-4.8-1.918c-2.3-1.334-7.856-6.51-9.6-6.7S639.379,6240.558,638.418,6242.286Z" transform="translate(-542.773 -6010.014)" opacity="0.2" style="isolation: isolate"/>
        <path id="Trazado_105806" data-name="Trazado 105806" d="M590.851,6248.723a4.364,4.364,0,1,0-4.364,4.364A4.364,4.364,0,0,0,590.851,6248.723Z" transform="translate(-575.522 -6008.211)" fill="#344154" stroke="#263238" stroke-linecap="round" stroke-linejoin="round" stroke-width="1"/>
        <circle id="Elipse_4183" data-name="Elipse 4183" cx="2.182" cy="2.182" r="2.182" transform="translate(8.783 238.321)" fill="#aed3f2" stroke="#263238" stroke-linecap="round" stroke-linejoin="round" stroke-width="1"/>
        <path id="Trazado_105807" data-name="Trazado 105807" d="M620.109,6248.723a4.364,4.364,0,1,0-4.363,4.364A4.364,4.364,0,0,0,620.109,6248.723Z" transform="translate(-558.015 -6008.211)" fill="#344154" stroke="#263238" stroke-linecap="round" stroke-linejoin="round" stroke-width="1"/>
        <path id="Trazado_105808" data-name="Trazado 105808" d="M617.112,6247.908a2.183,2.183,0,1,0-2.182,2.183A2.184,2.184,0,0,0,617.112,6247.908Z" transform="translate(-557.199 -6007.397)" fill="#aed3f2" stroke="#263238" stroke-linecap="round" stroke-linejoin="round" stroke-width="1"/>
        <path id="Trazado_105809" data-name="Trazado 105809" d="M629.667,6248.723a4.364,4.364,0,1,0-4.364,4.364A4.364,4.364,0,0,0,629.667,6248.723Z" transform="translate(-552.295 -6008.211)" fill="#344154" stroke="#263238" stroke-linecap="round" stroke-linejoin="round" stroke-width="1"/>
        <path id="Trazado_105810" data-name="Trazado 105810" d="M626.679,6247.913a2.191,2.191,0,1,0-2.2,2.184h.018A2.181,2.181,0,0,0,626.679,6247.913Z" transform="translate(-551.484 -6007.402)" fill="#aed3f2" stroke="#263238" stroke-linecap="round" stroke-linejoin="round" stroke-width="1"/>
        <rect id="Rectángulo_5885" data-name="Rectángulo 5885" width="9.234" height="69.922" transform="translate(41.723 165.588)" fill="#344154" stroke="#263238" stroke-linecap="round" stroke-linejoin="round" stroke-width="1"/>
        <rect id="Rectángulo_5886" data-name="Rectángulo 5886" width="14.157" height="33.386" transform="translate(39.27 202.126)" fill="#344154" stroke="#263238" stroke-linecap="round" stroke-linejoin="round" stroke-width="1"/>
        <path id="Trazado_105811" data-name="Trazado 105811" d="M585.6,6243.137h65.229a3.491,3.491,0,0,1,3.491,3.491v.461H582.107v-.461a3.491,3.491,0,0,1,3.491-3.491Z" transform="translate(-575.533 -6008.944)" fill="#344154" stroke="#263238" stroke-linecap="round" stroke-linejoin="round" stroke-width="1"/>
        <rect id="Rectángulo_5887" data-name="Rectángulo 5887" width="11.87" height="19.133" transform="translate(25.044 138.549)" fill="#344154" stroke="#263238" stroke-linecap="round" stroke-linejoin="round" stroke-width="1"/>
        <rect id="Rectángulo_5888" data-name="Rectángulo 5888" width="89.709" height="14.515" rx="4.003" transform="translate(1.487 155.038)" fill="#d9a171" stroke="#263238" stroke-linecap="round" stroke-linejoin="round" stroke-width="1"/>
        <rect id="Rectángulo_5889" data-name="Rectángulo 5889" width="89.709" height="14.515" rx="4.003" transform="translate(1.487 155.038)" opacity="0.1" style="isolation: isolate"/>
        <path id="Trazado_105812" data-name="Trazado 105812" d="M655.39,6200.868a7.251,7.251,0,0,0-7.254-7.251H608.564a7.262,7.262,0,1,0-.5,14.515h40.077A7.263,7.263,0,0,0,655.39,6200.868Z" transform="translate(-564.197 -6038.58)" fill="#d9a171" stroke="#263238" stroke-miterlimit="10" stroke-width="1"/>
        <path id="Trazado_105813" data-name="Trazado 105813" d="M655.39,6201.011a7.251,7.251,0,0,0-7.252-7.251H608.564a7.262,7.262,0,1,0-.5,14.515h40.077a7.252,7.252,0,0,0,7.252-7.253Z" transform="translate(-564.197 -6038.495)" opacity="0.1" style="isolation: isolate"/>
        <path id="Trazado_105814" data-name="Trazado 105814" d="M632.349,6206.256H586.1a8.1,8.1,0,0,1-8.1-8.1c0-.07,0-.141,0-.211l1.145-45.1a8.089,8.089,0,0,1,8.1-7.9h38.168a8.088,8.088,0,0,1,8.013,6.871l6.939,45.134a8.1,8.1,0,0,1-8,9.3Z" transform="translate(-577.994 -6067.699)" fill="#d9a171" stroke="#263238" stroke-linecap="round" stroke-linejoin="round" stroke-width="1"/>
        <path id="Trazado_105815" data-name="Trazado 105815" d="M632.349,6206.256H586.1a8.1,8.1,0,0,1-8.1-8.1c0-.07,0-.141,0-.211l1.145-45.1a8.089,8.089,0,0,1,8.1-7.9h38.168a8.088,8.088,0,0,1,8.013,6.871l6.939,45.134a8.1,8.1,0,0,1-8,9.3Z" transform="translate(-577.994 -6067.699)" opacity="0.1" style="isolation: isolate"/>
        <line id="Línea_401" data-name="Línea 401" x1="20.284" y2="13.355" transform="translate(18.968 167.24)" fill="none" stroke="#263238" stroke-linecap="round" stroke-linejoin="round" stroke-width="1"/>
        <path id="Trazado_105816" data-name="Trazado 105816" d="M591.055,6208.461l-3.492,2.348a2.238,2.238,0,0,0-.588,3.116,2.081,2.081,0,0,0,.274.333l.3.279a2.228,2.228,0,0,0,2.978.13l3.2-2.619a2.238,2.238,0,0,0,.3-3.145c-.037-.043-.075-.088-.114-.128h0a2.225,2.225,0,0,0-2.848-.315Z" transform="translate(-572.854 -6029.919)" fill="#344154" stroke="#263238" stroke-linecap="round" stroke-linejoin="round" stroke-width="1"/>
        <path id="Trazado_105817" data-name="Trazado 105817" d="M604.534,6243.137h20.013a3.491,3.491,0,0,1,3.491,3.491v.461h-23.5Z" transform="translate(-562.112 -6008.944)" fill="#344154" stroke="#263238" stroke-linecap="round" stroke-linejoin="round" stroke-width="1"/>
        <ellipse id="Elipse_4184" data-name="Elipse 4184" cx="7.148" cy="4.068" rx="7.148" ry="4.068" transform="translate(51.297 107.179)" fill="#aed3f2" stroke="#263238" stroke-linecap="round" stroke-linejoin="round" stroke-width="1"/>
        <path id="Trazado_105818" data-name="Trazado 105818" d="M628.652,6187.09s11.529.576,14.132,6.633a27.707,27.707,0,0,1,.873,6.346c0,3.168,10.666,64.3,10.954,65.461s6.633,10.091,7.5,12.107,1.745,3.753,1.745,3.753,2.62,1.152,2.314,2.018-6.346,1.152-8.938,1.152-5.481-6.338-7.21-6.923-3.753-2.618-3.753-3.743.873-9.515.873-9.515a85.466,85.466,0,0,0-5.754-19.9c-3.857-8.792-8.657-21.63-9.234-27.678s-.575-11.828-.575-11.828l-7.279-1.16S623.422,6188.818,628.652,6187.09Z" transform="translate(-550.32 -6042.484)" fill="#aed3f2" stroke="#263238" stroke-linecap="round" stroke-linejoin="round" stroke-width="1"/>
        <path id="Trazado_105819" data-name="Trazado 105819" d="M641.666,6247.991s2.3-9.382,8.238-5.742l2.489,4.207a7.891,7.891,0,0,0-7.279,5.369,5.494,5.494,0,0,1-3.447-3.833Z" transform="translate(-539.893 -6009.977)" fill="#344154" stroke="#263238" stroke-linecap="round" stroke-linejoin="round" stroke-width="1"/>
        <path id="Trazado_105820" data-name="Trazado 105820" d="M626.676,6184.193l-.28.044c-2.618-10.667-6.154-21.568-6.154-21.568s-17.343,4.581-27.345,1.473c0,0-5.088,25.061-5.088,31.6,0,5.238-1.082,10.561,2.877,13.634a5.092,5.092,0,0,0,3.334,2.155c10.813,2.035,29.449,1.328,32.556,1.947s19.595,4.94,19.595,4.94a57.169,57.169,0,0,1,3.779-14.994c2.793-5.9,15.544-4.9,15.544-4.9Z" transform="translate(-572.201 -6057.096)" fill="#6595bf" stroke="#263238" stroke-linecap="round" stroke-linejoin="round" stroke-width="1"/>
        <path id="Trazado_105821" data-name="Trazado 105821" d="M611.895,6132.875a2.952,2.952,0,0,0-4.974.3c-2.583,3.309-.533,14.795.741,19.386s22.8,23.635,24.823,25.049,28.41,7.375,30.715,6.286,2.967-6.618,1.658-9.6-25.966-9.322-25.966-9.322Z" transform="translate(-561.427 -6075.655)" fill="#aed3f2"/>
        <g id="Grupo_57541" data-name="Grupo 57541" transform="translate(44.253 56.001)">
          <g id="Grupo_57540" data-name="Grupo 57540" clip-path="url(#clip-path-6)">
            <g id="Grupo_57539" data-name="Grupo 57539" transform="translate(2.394 9.388)">
              <path id="Trazado_105822" data-name="Trazado 105822" d="M631.589,6174.118c2.025,1.4,28.41,7.375,30.715,6.283,1.327-.628,2.1-2.739,2.278-4.982a33.078,33.078,0,0,0-11.155-2.62c-3.256.184-1.073,3.22-6.293,2.365a53.171,53.171,0,0,1-16.583-6.581c-5.412-3.09-15.126-12.22-15.126-12.22l7.62.873-8.684-2.678,7.549-2.838-6.485-.383a7.858,7.858,0,0,0,.568-3.239c0-2.237-4.278-10.569-4.278-10.569L607.177,6150C610.345,6155.693,629.678,6172.782,631.589,6174.118Z" transform="translate(-607.177 -6137.529)" fill="#d9a171" opacity="0.5" style="isolation: isolate"/>
            </g>
          </g>
        </g>
        <path id="Trazado_105823" data-name="Trazado 105823" d="M611.895,6132.875a2.952,2.952,0,0,0-4.974.3c-2.583,3.309-.533,14.795.741,19.386s22.8,23.635,24.823,25.049,28.41,7.375,30.715,6.286,2.967-6.618,1.658-9.6-25.966-9.322-25.966-9.322Z" transform="translate(-561.427 -6075.655)" fill="none" stroke="#263238" stroke-linecap="round" stroke-linejoin="round" stroke-width="1"/>
        <path id="Trazado_105824" data-name="Trazado 105824" d="M617.09,6147.506l-5.927,2.3,9.968,3.317" transform="translate(-558.146 -6066.17)" fill="none" stroke="#263238" stroke-linecap="round" stroke-linejoin="round" stroke-width="0.5"/>
        <path id="Trazado_105825" data-name="Trazado 105825" d="M642.859,6158.323a3.858,3.858,0,0,0-3.029,3.133c-.515,2.731,2.174,5.062,2.174,5.062s5.665,1.946,7.353-2.619S645.6,6158.148,642.859,6158.323Z" transform="translate(-541.031 -6059.705)" fill="#aed3f2"/>
        <g id="Grupo_57544" data-name="Grupo 57544" transform="translate(98.733 98.602)">
          <g id="Grupo_57543" data-name="Grupo 57543" clip-path="url(#clip-path-7)">
            <g id="Grupo_57542" data-name="Grupo 57542" transform="translate(0.006 2.966)">
              <path id="Trazado_105826" data-name="Trazado 105826" d="M642.007,6165.409s4.835,1.649,6.9-1.675a36.929,36.929,0,0,0-9.034-3.571,1.76,1.76,0,0,0-.043.185C639.319,6163.078,642.007,6165.409,642.007,6165.409Z" transform="translate(-639.768 -6160.163)" fill="#d9a171" opacity="0.5" style="isolation: isolate"/>
            </g>
          </g>
        </g>
        <path id="Trazado_105827" data-name="Trazado 105827" d="M642.859,6158.323a3.858,3.858,0,0,0-3.029,3.133c-.515,2.731,2.174,5.062,2.174,5.062s5.665,1.946,7.353-2.619S645.6,6158.148,642.859,6158.323Z" transform="translate(-541.031 -6059.705)" fill="none" stroke="#263238" stroke-linecap="round" stroke-linejoin="round" stroke-width="1"/>
        <path id="Trazado_105828" data-name="Trazado 105828" d="M652.255,6162.3a7.4,7.4,0,0,1,4.156,2.165c1.65,1.859.305,2.618-.751,2.348S651.128,6161.415,652.255,6162.3Z" transform="translate(-533.689 -6057.375)" fill="#aed3f2" stroke="#263238" stroke-linecap="round" stroke-linejoin="round" stroke-width="1"/>
        <path id="Trazado_105829" data-name="Trazado 105829" d="M651.564,6162.1a7.391,7.391,0,0,1,3.814,2.718c1.379,2.06-.061,2.618-1.065,2.217S650.568,6161.058,651.564,6162.1Z" transform="translate(-534.098 -6057.513)" fill="#aed3f2" stroke="#263238" stroke-linecap="round" stroke-linejoin="round" stroke-width="1"/>
        <path id="Trazado_105830" data-name="Trazado 105830" d="M646.394,6159.508s-2.618.959-2.906,2.619a3.742,3.742,0,0,0,.959,2.863,16.971,16.971,0,0,0,3.612,2.312c1,.22,3.23,1.494,3.493.281s-2.4-2.288-2.4-2.288,5.072.305,5.238,1.327,2,2.078,3.622,2.1-.341-3.254-.734-4.076S649.645,6159.568,646.394,6159.508Z" transform="translate(-538.812 -6058.987)" fill="#ffbf9d" stroke="#263238" stroke-linecap="round" stroke-linejoin="round" stroke-width="1"/>
        <path id="Trazado_105831" data-name="Trazado 105831" d="M600.672,6128.776s-15.955,9.271-17.2,9.889-2.489,10.213-2.489,11.12,15.955,36.963,15.955,36.963,3.927,3.326,15.423,3.326,12.386-1.745,12.386-1.745l.916-15.214s3.927-10.282,4.233-12.1-3.221-24.1-3.221-24.1l-16.321-10.883S603.709,6122.125,600.672,6128.776Z" transform="translate(-576.207 -6079.699)" fill="#aed3f2"/>
        <g id="Grupo_57547" data-name="Grupo 57547" transform="translate(4.774 45.195)">
          <g id="Grupo_57546" data-name="Grupo 57546" clip-path="url(#clip-path-8)">
            <g id="Grupo_57545" data-name="Grupo 57545" transform="translate(-0.002 -0.02)">
              <path id="Trazado_105832" data-name="Trazado 105832" d="M585.094,6145.271c1.248-2,12.734-9.486,12.734-9.486l4.242-2.5,5.435-8.248a5.813,5.813,0,0,0-6.835,3.744s-15.984,9.27-17.2,9.881-2.489,10.212-2.489,11.119c0,.2.751,2.053,1.918,4.835a28.829,28.829,0,0,1,2.2-9.348Z" transform="translate(-580.98 -6124.881)" fill="#d9a171" opacity="0.5" style="isolation: isolate"/>
            </g>
          </g>
        </g>
        <path id="Trazado_105833" data-name="Trazado 105833" d="M600.672,6128.776s-15.955,9.271-17.2,9.889-2.489,10.213-2.489,11.12,15.955,36.963,15.955,36.963,3.927,3.326,15.423,3.326,12.386-1.745,12.386-1.745l.916-15.214s3.927-10.282,4.233-12.1-3.221-24.1-3.221-24.1l-16.321-10.883S603.709,6122.125,600.672,6128.776Z" transform="translate(-576.207 -6079.699)" fill="none" stroke="#263238" stroke-linecap="round" stroke-linejoin="round" stroke-width="1"/>
        <path id="Trazado_105834" data-name="Trazado 105834" d="M596.915,6139.278l4.651,5.02-.969,21.34,6.807,1.8.716-9.322,2.5,9.681,5.019-5.02-10.85-18.835,1.439-5.734-6.091-6.807-3.937,9.322" transform="translate(-567.097 -6075.809)" fill="#344154" stroke="#263238" stroke-linecap="round" stroke-linejoin="round" stroke-width="1"/>
        <path id="Trazado_105835" data-name="Trazado 105835" d="M591.352,6129.61a51.65,51.65,0,0,0,2.321,9.6c1.327,2.957,4.316,7.976,4.316,7.976l6.31-6.319,6.32,4.365s-.663-10.964-2.994-15.947S594.005,6119.312,591.352,6129.61Z" transform="translate(-570.001 -6080.481)" fill="#aed3f2" stroke="#263238" stroke-linecap="round" stroke-linejoin="round" stroke-width="1"/>
        <path id="Trazado_105836" data-name="Trazado 105836" d="M595.864,6134.063l6.31-9.6a10.637,10.637,0,0,0-3.64-.873c-1.082.22-2.3.49-3.6.777a7.811,7.811,0,0,0-3.587,5.238s.5,3.357,1.266,6.363Z" transform="translate(-570 -6080.481)" fill="#d9a171" opacity="0.5" style="isolation: isolate"/>
        <path id="Trazado_105837" data-name="Trazado 105837" d="M605.861,6131.207a14.83,14.83,0,0,0-1.327,5.987c0,3.318.663,6.982.663,8.641v4.984s-4-4.984-6.983-8.641-5.315-6.983-4.984-9.967,3.326-14.628,3.326-14.628a8.473,8.473,0,0,1,7.645,4.652A13.579,13.579,0,0,1,605.861,6131.207Z" transform="translate(-568.895 -6084.076)" fill="#ffbf9d" stroke="#263238" stroke-linecap="round" stroke-linejoin="round" stroke-width="1"/>
        <path id="Trazado_105838" data-name="Trazado 105838" d="M595.508,6122.578l-1,.479c-.611,2.618-1.152,5.123-1.279,6.3-.32,2.877,1.833,6.108,4.671,9.6l.358-6.873,7.6-3.709-6.111-6.031Z" transform="translate(-568.893 -6081.225)" fill="#d9a171" opacity="0.5" style="isolation: isolate"/>
        <path id="Trazado_105839" data-name="Trazado 105839" d="M607.423,6124.193s-2.2,4.076.174,4.242,1.859-1.867,2.2-2.54,1.869.873,1.021,4.068-5.089,5.434-7.637,2.877a6.056,6.056,0,0,1-1.013-7.288C603.009,6123.5,606.428,6122.5,607.423,6124.193Z" transform="translate(-563.998 -6080.633)" fill="#344154" stroke="#263238" stroke-linecap="round" stroke-linejoin="round" stroke-width="1"/>
        <path id="Trazado_105840" data-name="Trazado 105840" d="M607.637,6101.431c-.742-.1-1.518-.185-2.321-.227-2.925-.149-6.111.042-8.388,1.868-4.731,3.788-3.937,11.4-3.6,16.7.385,6.013.305,14.785,4.819,19.142,7.62,7.353,19.532-.516,19.532-9.227,0-3.676.141-9.3.385-10.55a37.18,37.18,0,0,0,.654-4.7C619.246,6106.406,614.7,6102.435,607.637,6101.431Z" transform="translate(-568.978 -6093.9)" fill="#ffbf9d" stroke="#263238" stroke-linecap="round" stroke-linejoin="round" stroke-width="1"/>
        <path id="Trazado_105841" data-name="Trazado 105841" d="M610.435,6136.706a51.071,51.071,0,0,1-6.373-.487c-3.238-.5-7.733-5.745-5.489-12.981a42.229,42.229,0,0,0,2.25-10.988l-7.637-4.775a54.731,54.731,0,0,0,.141,8.521c.383,6.012.305,14.784,4.817,19.14A10.283,10.283,0,0,0,610.435,6136.706Z" transform="translate(-568.964 -6090.124)" fill="#d9a171" opacity="0.5" style="isolation: isolate"/>
        <ellipse id="Elipse_4185" data-name="Elipse 4185" cx="0.865" cy="1.483" rx="0.865" ry="1.483" transform="translate(36.276 27.781)" fill="#344154"/>
        <path id="Trazado_105842" data-name="Trazado 105842" d="M607.213,6115.733c-.053.82-.489,1.458-.959,1.422s-.82-.716-.767-1.535.479-1.458.959-1.424S607.269,6114.913,607.213,6115.733Z" transform="translate(-561.545 -6086.102)" fill="#344154"/>
        <path id="Trazado_105843" data-name="Trazado 105843" d="M599.554,6113.607s1.745-3.676,4.547-1.945" transform="translate(-565.093 -6087.896)" fill="#aed3f2" stroke="#263238" stroke-linecap="round" stroke-linejoin="round" stroke-width="1"/>
        <path id="Trazado_105844" data-name="Trazado 105844" d="M605.244,6112.161s2.068-2.375,3.246,1.519" transform="translate(-561.688 -6087.749)" fill="#aed3f2" stroke="#263238" stroke-linecap="round" stroke-linejoin="round" stroke-width="1"/>
        <path id="Trazado_105845" data-name="Trazado 105845" d="M605.053,6116.773v.427c.217,1.519,1.3,2.618.873,3.246s-2.618.873-2.618.873" transform="translate(-562.846 -6084.559)" fill="#aed3f2" stroke="#263238" stroke-linecap="round" stroke-linejoin="round" stroke-width="1"/>
        <path id="Trazado_105846" data-name="Trazado 105846" d="M604.761,6122.5s-3.815,1.179-5.238-1.9" transform="translate(-565.111 -6082.272)" fill="#aed3f2" stroke="#263238" stroke-linecap="round" stroke-linejoin="round" stroke-width="1"/>
        <circle id="Elipse_4186" data-name="Elipse 4186" cx="4.487" cy="4.487" r="4.487" transform="translate(31.912 23.922)" fill="none" stroke="#263238" stroke-linecap="round" stroke-linejoin="round" stroke-width="0.5"/>
        <ellipse id="Elipse_4187" data-name="Elipse 4187" cx="4.023" cy="4.487" rx="4.023" ry="4.487" transform="translate(42.525 23.922)" fill="none" stroke="#263238" stroke-linecap="round" stroke-linejoin="round" stroke-width="0.5"/>
        <line id="Línea_402" data-name="Línea 402" x1="6.406" y2="0.27" transform="translate(25.506 28.409)" fill="none" stroke="#263238" stroke-linecap="round" stroke-linejoin="round" stroke-width="0.5"/>
        <line id="Línea_403" data-name="Línea 403" x1="1.642" transform="translate(48.932 28.409)" fill="none" stroke="#263238" stroke-linecap="round" stroke-linejoin="round" stroke-width="0.5"/>
        <line id="Línea_404" data-name="Línea 404" x2="1.859" transform="translate(40.876 27.038)" fill="none" stroke="#263238" stroke-linecap="round" stroke-linejoin="round" stroke-width="0.5"/>
        <path id="Trazado_105847" data-name="Trazado 105847" d="M621.512,6098.852a73.354,73.354,0,0,0-10.134-1.047,18.687,18.687,0,0,0-13.965.351c-11.476,4.486-11.224,19.82-8.379,29.57.873,2.952,2.924,7.429,1.039,10.39a2.253,2.253,0,0,1-4.068-1.694c.516-2.558,1.354-1.693,2.035-2.034s-.34-.681-1.868-1.187-2.863.872-3.055,4.234c-.507,9.164,13,15.229,18.145,7.218,2.1-3.493.237-9.559-.671-13.965a38.31,38.31,0,0,1-.585-4.618,6.5,6.5,0,0,0,4.232-2.138,19.454,19.454,0,0,0,2.061-3.552q.976.008,1.947.113c6.982.7,9.095-11.189,9.095-11.189s3.491,6.643,4.538,9.1l1.048,2.444s2.8.351,5.594-5.594S628.154,6099.926,621.512,6098.852Z" transform="translate(-574.937 -6096.62)" fill="#344154" stroke="#263238" stroke-linecap="round" stroke-linejoin="round" stroke-width="1"/>
        <path id="Trazado_105848" data-name="Trazado 105848" d="M604.272,6102.811s8.588,2.951,8.85,8.047-1.074,5.359-1.074,5.359" transform="translate(-562.269 -6092.914)" fill="none" stroke="#fff" stroke-linecap="round" stroke-miterlimit="10" stroke-width="0.5"/>
        <path id="Trazado_105849" data-name="Trazado 105849" d="M603.6,6101.756s8.04-1.876,10.727,3.491" transform="translate(-562.671 -6093.736)" fill="none" stroke="#fff" stroke-linecap="round" stroke-miterlimit="10" stroke-width="0.5"/>
        <path id="Trazado_105850" data-name="Trazado 105850" d="M602.726,6098.279s8.038,4.023,9.383,7.784-5.629,10.989-10.195,12.334-8.038-.27-11.259,2.146-1.877,9.112-1.877,9.112" transform="translate(-571.707 -6095.627)" fill="none" stroke="#fff" stroke-linecap="round" stroke-miterlimit="10" stroke-width="0.5"/>
        <path id="Trazado_105851" data-name="Trazado 105851" d="M587.331,6120.039s-2.148-5.1,2.417-7.777,8.58,0,13.677-3.221a12.511,12.511,0,0,0,5.9-7.235" transform="translate(-572.709 -6093.517)" fill="none" stroke="#fff" stroke-linecap="round" stroke-miterlimit="10" stroke-width="0.5"/>
        <path id="Trazado_105852" data-name="Trazado 105852" d="M596.963,6117.96s-2.82-6.851-5.647-4.434,2.016,8.868,5.236,8.065" transform="translate(-570.532 -6086.812)" fill="#aed3f2" stroke="#263238" stroke-linecap="round" stroke-linejoin="round" stroke-width="1"/>
        <path id="Trazado_105853" data-name="Trazado 105853" d="M596.963,6117.96s-2.82-6.851-5.647-4.434,2.016,8.868,5.236,8.065" transform="translate(-570.532 -6086.812)" fill="#d9a171" stroke="#263238" stroke-linecap="round" stroke-linejoin="round" stroke-width="1" opacity="0.37" style="isolation: isolate"/>
        <path id="Trazado_105854" data-name="Trazado 105854" d="M587.13,6134.028s-1.37-1.031-4.416,1.265-5.882,12.733-3.98,17.16,6.983,27.432,9.347,28.69,27.8,1.152,30.8.444,5.1-4.635,4.591-8.03a5.275,5.275,0,0,0-4.845-4.3c-.986-.025-21.244-1.177-21.244-1.177l-6.293-26.586" transform="translate(-577.92 -6074.373)" fill="#aed3f2"/>
        <g id="Grupo_57550" data-name="Grupo 57550" transform="translate(0.198 59.425)">
          <g id="Grupo_57549" data-name="Grupo 57549" clip-path="url(#clip-path-9)">
            <g id="Grupo_57548" data-name="Grupo 57548" transform="translate(0 -0.009)">
              <path id="Trazado_105855" data-name="Trazado 105855" d="M619.686,6175.891c-1.448-1.789-24.508,1.327-26.97,0s-3.649-3.85-1.851-5.55-3.438-2.087-3.4-3.588,3.047-1.918,2.855-3.919-6.678-2.427-6.52-8.169,1.6-12.69,2.9-14.654a12.288,12.288,0,0,1,2.462-2.164l-2.035-3.825s-1.37-1.029-4.416,1.267-5.882,12.742-3.98,17.168,6.983,27.433,9.347,28.69,27.8,1.152,30.8.444a6.381,6.381,0,0,0,4.137-4.146,7.827,7.827,0,0,1-3.334-1.553Z" transform="translate(-578.118 -6133.792)" fill="#d9a171" opacity="0.5" style="isolation: isolate"/>
            </g>
          </g>
        </g>
        <path id="Trazado_105856" data-name="Trazado 105856" d="M587.13,6134.028s-1.37-1.031-4.416,1.265-5.882,12.733-3.98,17.16,6.983,27.432,9.347,28.69,27.8,1.152,30.8.444,5.1-4.635,4.591-8.03a5.275,5.275,0,0,0-4.845-4.3c-.986-.025-21.244-1.177-21.244-1.177l-6.293-26.586" transform="translate(-577.92 -6074.373)" fill="none" stroke="#263238" stroke-linecap="round" stroke-linejoin="round" stroke-width="1"/>
        <path id="Trazado_105857" data-name="Trazado 105857" d="M585.351,6160.21c1.5-4.417,7.7-4.5,7.7-4.5a17.3,17.3,0,0,0-7.567-.27" transform="translate(-573.592 -6061.601)" fill="none" stroke="#263238" stroke-linecap="round" stroke-linejoin="round" stroke-width="0.5"/>
        <path id="Trazado_105858" data-name="Trazado 105858" d="M606.979,6156.667a5.125,5.125,0,0,0-3.107,4.678,4.476,4.476,0,0,0,2.855,4.653c.585.409,4.111,2.3,5.534,1.143a6.091,6.091,0,0,0,1.746-6.9C612.651,6157.621,608.366,6156.7,606.979,6156.667Z" transform="translate(-562.524 -6060.686)" fill="#aed3f2"/>
        <g id="Grupo_57553" data-name="Grupo 57553" transform="translate(41.323 95.981)">
          <g id="Grupo_57552" data-name="Grupo 57552" clip-path="url(#clip-path-10)">
            <g id="Grupo_57551" data-name="Grupo 57551" transform="translate(0.035 5.282)">
              <path id="Trazado_105859" data-name="Trazado 105859" d="M612.247,6165.165a5.663,5.663,0,0,0,.959-1.047l-2.967-1.579c-2.717-.751-5.316-1.521-5.962-2.314a.947.947,0,0,0-.409-.252,4.417,4.417,0,0,0,2.845,4.05C607.276,6164.405,610.824,6166.325,612.247,6165.165Z" transform="translate(-603.868 -6159.973)" fill="#d9a171" opacity="0.5" style="isolation: isolate"/>
            </g>
          </g>
        </g>
        <path id="Trazado_105860" data-name="Trazado 105860" d="M606.979,6156.667a5.125,5.125,0,0,0-3.107,4.678,4.476,4.476,0,0,0,2.855,4.653c.585.409,4.111,2.3,5.534,1.143a6.091,6.091,0,0,0,1.746-6.9C612.651,6157.621,608.366,6156.7,606.979,6156.667Z" transform="translate(-562.524 -6060.686)" fill="none" stroke="#263238" stroke-linecap="round" stroke-linejoin="round" stroke-width="1"/>
        <path id="Trazado_105861" data-name="Trazado 105861" d="M609.866,6158.672s-2.164.83-2.461,2.461-.192,2.515.184,2.62,1.624.671,1.624.671l3.849,2s3.055,3.492,4.058,3.771.139-.375,0-1.134a14.656,14.656,0,0,0-1.685-3.073l4.557,4.032s1.5.542,1.151-.6a14.926,14.926,0,0,0-2.679-3.491l4.3,3.9s.873.4.873-.1a1.489,1.489,0,0,0-.471-1.4c-.489-.394-3.421-3.754-3.421-3.754l4.084,2.5s.873,1.161,1.485,1.178.261-.375-.2-1.744-3.569-3.377-4.678-4.156S613.27,6158.77,609.866,6158.672Z" transform="translate(-560.498 -6059.488)" fill="#ffbf9d" stroke="#263238" stroke-linecap="round" stroke-linejoin="round" stroke-width="1"/>
      </g>
      <g id="freepik--Desk--inject-1--inject-76" transform="translate(32.12 112.003)">
        <path id="Trazado_105862" data-name="Trazado 105862" d="M743.818,6165.468H709.726l6.136-19.9h34.092Z" transform="translate(-475.829 -6113.482)" fill="#344154" stroke="#263238" stroke-linecap="round" stroke-linejoin="round" stroke-width="1"/>
        <path id="Trazado_105863" data-name="Trazado 105863" d="M742.139,6166.645H708.055l6.136-19.91h34.084Z" transform="translate(-476.829 -6112.784)" fill="#aed3f2" stroke="#263238" stroke-linecap="round" stroke-linejoin="round" stroke-width="1"/>
        <path id="Trazado_105864" data-name="Trazado 105864" d="M698.734,6154.259h56.174a5.238,5.238,0,0,1,5.238,5.238v14.646H698.734Z" transform="translate(-482.407 -6108.28)" fill="#344154" stroke="#263238" stroke-linecap="round" stroke-linejoin="round" stroke-width="1"/>
        <rect id="Rectángulo_5890" data-name="Rectángulo 5890" width="61.438" height="19.91" transform="translate(206.246 45.979)" fill="#aed3f2" stroke="#263238" stroke-linecap="round" stroke-linejoin="round" stroke-width="1"/>
        <rect id="Rectángulo_5891" data-name="Rectángulo 5891" width="49.079" height="2.628" transform="translate(204.781 60.547)" fill="#aed3f2" stroke="#263238" stroke-linecap="round" stroke-linejoin="round" stroke-width="1"/>
        <rect id="Rectángulo_5892" data-name="Rectángulo 5892" width="38.605" height="2.628" transform="translate(215.253 57.919)" fill="#344154" stroke="#263238" stroke-linecap="round" stroke-linejoin="round" stroke-width="1"/>
        <rect id="Rectángulo_5893" data-name="Rectángulo 5893" width="38.728" height="1.806" transform="translate(166.254 63.952)" fill="#aed3f2" stroke="#263238" stroke-linecap="round" stroke-linejoin="round" stroke-width="1"/>
        <rect id="Rectángulo_5894" data-name="Rectángulo 5894" width="83.476" height="53.836" transform="translate(151.285)" fill="#aed3f2" stroke="#263238" stroke-linecap="round" stroke-linejoin="round" stroke-width="1"/>
        <rect id="Rectángulo_5895" data-name="Rectángulo 5895" width="78.919" height="53.836" transform="translate(155.841)" fill="#344154" stroke="#263238" stroke-linecap="round" stroke-linejoin="round" stroke-width="1"/>
        <rect id="Rectángulo_5896" data-name="Rectángulo 5896" width="18.268" height="41.563" transform="translate(187.612 25.015)" fill="#aed3f2" stroke="#263238" stroke-linecap="round" stroke-linejoin="round" stroke-width="1"/>
        <rect id="Rectángulo_5897" data-name="Rectángulo 5897" width="18.268" height="41.563" transform="translate(189.297 25.015)" fill="#344154" stroke="#263238" stroke-linecap="round" stroke-linejoin="round" stroke-width="1"/>
        <path id="Trazado_105865" data-name="Trazado 105865" d="M681.064,6141.45h19.91v28.462" transform="translate(-492.98 -6115.945)" fill="none" stroke="#fff" stroke-linejoin="round" stroke-width="1"/>
        <rect id="Rectángulo_5898" data-name="Rectángulo 5898" width="55.922" height="2.923" transform="translate(94.788 62.981)" fill="#aed3f2" stroke="#263238" stroke-linecap="round" stroke-linejoin="round" stroke-width="1"/>
        <rect id="Rectángulo_5899" data-name="Rectángulo 5899" width="55.922" height="2.923" transform="translate(109.241 62.981)" fill="#aed3f2" stroke="#263238" stroke-linecap="round" stroke-linejoin="round" stroke-width="1"/>
        <path id="Trazado_105866" data-name="Trazado 105866" d="M654.95,6169.741H569.264L565.2,6294.954a2.619,2.619,0,0,0,2.444,2.784h.043a2.556,2.556,0,0,0,2.487-2.417L578.351,6193a7.313,7.313,0,0,1,7.07-6.893h53.372a7.3,7.3,0,0,1,7.062,6.893l8.187,102.3a2.556,2.556,0,0,0,2.479,2.416h0a2.616,2.616,0,0,0,2.5-2.729v-.045Z" transform="translate(-562.318 -6099.017)" fill="#d9a171" stroke="#263238" stroke-linecap="round" stroke-linejoin="round" stroke-width="1"/>
        <path id="Trazado_105867" data-name="Trazado 105867" d="M653.689,6175.5l-.192-5.754H567.812l-.192,5.754Z" transform="translate(-560.865 -6099.014)" fill="#344154" stroke="#263238" stroke-linecap="round" stroke-linejoin="round" stroke-width="1"/>
        <path id="Trazado_105868" data-name="Trazado 105868" d="M777.033,6169.741H691.322l-4.06,125.213a2.62,2.62,0,0,0,2.453,2.774h.035a2.556,2.556,0,0,0,2.478-2.418l8.2-102.312a7.314,7.314,0,0,1,7.07-6.893h53.374a7.3,7.3,0,0,1,7.06,6.893l8.187,102.3a2.568,2.568,0,0,0,2.479,2.435h0a2.618,2.618,0,0,0,2.49-2.741v-.033Z" transform="translate(-489.275 -6099.017)" fill="#d9a171" stroke="#263238" stroke-linecap="round" stroke-linejoin="round" stroke-width="1"/>
        <path id="Trazado_105869" data-name="Trazado 105869" d="M776,6175.5l-.184-5.754H690.121l-.184,5.754Z" transform="translate(-487.671 -6099.014)" fill="#344154" stroke="#263238" stroke-linecap="round" stroke-linejoin="round" stroke-width="1"/>
        <rect id="Rectángulo_5900" data-name="Rectángulo 5900" width="293.407" height="6.598" transform="translate(0 65.889)" fill="#aed3f2" stroke="#263238" stroke-linecap="round" stroke-linejoin="round" stroke-width="1"/>
        <rect id="Rectángulo_5901" data-name="Rectángulo 5901" width="210.297" height="6.598" transform="translate(83.118 65.889)" fill="#aed3f2" stroke="#263238" stroke-linecap="round" stroke-linejoin="round" stroke-width="1"/>
      </g>
    </g>
  </g>
</svg>
