<svg xmlns="http://www.w3.org/2000/svg" width="360" height="360" viewBox="0 0 360 360">
  <g id="Grupo_58231" data-name="Grupo 58231" transform="translate(-531.529 -6830.239)">
    <rect id="Rectángulo_5925" data-name="Rectángulo 5925" width="360" height="360" transform="translate(531.529 6830.239)" fill="#344154" opacity="0"/>
    <g id="Grupo_58230" data-name="Grupo 58230" transform="translate(551.501 6840.471)">
      <rect id="Rectángulo_5926" data-name="Rectángulo 5926" width="30.485" height="0.23" transform="translate(287.385 315.984)" fill="#aed3f2"/>
      <rect id="Rectángulo_5927" data-name="Rectángulo 5927" width="7.999" height="0.23" transform="translate(200.632 318.488)" fill="#aed3f2"/>
      <rect id="Rectángulo_5928" data-name="Rectángulo 5928" width="17.664" height="0.23" transform="translate(268.801 307.442)" fill="#aed3f2"/>
      <rect id="Rectángulo_5929" data-name="Rectángulo 5929" width="5.827" height="0.23" transform="translate(0 308.989)" fill="#aed3f2"/>
      <rect id="Rectángulo_5930" data-name="Rectángulo 5930" width="86.228" height="0.23" transform="translate(24.77 312.872)" fill="#aed3f2"/>
      <rect id="Rectángulo_5931" data-name="Rectángulo 5931" width="13.309" height="18.556" transform="translate(82.942 108.67)" fill="#aed3f2"/>
      <rect id="Rectángulo_5932" data-name="Rectángulo 5932" width="13.309" height="18.556" transform="translate(100.652 108.67)" fill="#aed3f2"/>
      <rect id="Rectángulo_5933" data-name="Rectángulo 5933" width="13.309" height="18.556" transform="translate(118.362 108.67)" fill="#aed3f2"/>
      <rect id="Rectángulo_5934" data-name="Rectángulo 5934" width="13.309" height="18.556" transform="translate(29.29 141.99)" fill="#aed3f2"/>
      <rect id="Rectángulo_5935" data-name="Rectángulo 5935" width="13.309" height="18.556" transform="translate(46.989 141.99)" fill="#aed3f2"/>
      <rect id="Rectángulo_5936" data-name="Rectángulo 5936" width="13.309" height="18.556" transform="translate(64.699 141.99)" fill="#aed3f2"/>
      <rect id="Rectángulo_5937" data-name="Rectángulo 5937" width="13.309" height="18.556" transform="translate(82.409 141.99)" fill="#aed3f2"/>
      <rect id="Rectángulo_5938" data-name="Rectángulo 5938" width="13.309" height="18.556" transform="translate(100.109 141.99)" fill="#aed3f2"/>
      <rect id="Rectángulo_5939" data-name="Rectángulo 5939" width="13.309" height="18.556" transform="translate(117.819 141.99)" fill="#aed3f2"/>
      <rect id="Rectángulo_5940" data-name="Rectángulo 5940" width="13.309" height="18.556" transform="translate(46.456 175.31)" fill="#aed3f2"/>
      <rect id="Rectángulo_5941" data-name="Rectángulo 5941" width="13.309" height="18.556" transform="translate(64.156 175.31)" fill="#aed3f2"/>
      <rect id="Rectángulo_5942" data-name="Rectángulo 5942" width="13.309" height="18.556" transform="translate(81.866 175.31)" fill="#aed3f2"/>
      <rect id="Rectángulo_5943" data-name="Rectángulo 5943" width="13.309" height="18.556" transform="translate(45.913 208.632)" fill="#aed3f2"/>
      <rect id="Rectángulo_5944" data-name="Rectángulo 5944" width="13.309" height="18.556" transform="translate(63.622 208.632)" fill="#aed3f2"/>
      <rect id="Rectángulo_5945" data-name="Rectángulo 5945" width="13.309" height="18.556" transform="translate(81.323 208.632)" fill="#aed3f2"/>
      <rect id="Rectángulo_5946" data-name="Rectángulo 5946" width="13.309" height="18.556" transform="translate(45.37 241.952)" fill="#aed3f2"/>
      <rect id="Rectángulo_5947" data-name="Rectángulo 5947" width="13.309" height="18.556" transform="translate(80.789 241.952)" fill="#aed3f2"/>
      <rect id="Rectángulo_5948" data-name="Rectángulo 5948" width="13.309" height="18.556" transform="translate(80.246 275.271)" fill="#aed3f2"/>
      <rect id="Rectángulo_5949" data-name="Rectángulo 5949" width="13.309" height="19.21" transform="translate(36.46 136.385)" fill="#aed3f2"/>
      <rect id="Rectángulo_5950" data-name="Rectángulo 5950" width="13.309" height="19.21" transform="translate(54.17 136.385)" fill="#aed3f2"/>
      <rect id="Rectángulo_5951" data-name="Rectángulo 5951" width="13.309" height="19.21" transform="translate(53.627 170.882)" fill="#aed3f2"/>
      <rect id="Rectángulo_5952" data-name="Rectángulo 5952" width="13.309" height="19.21" transform="translate(53.092 205.391)" fill="#aed3f2"/>
      <rect id="Rectángulo_5953" data-name="Rectángulo 5953" width="3.48" height="25.672" transform="translate(80.789)" fill="#aed3f2"/>
      <rect id="Rectángulo_5954" data-name="Rectángulo 5954" width="3.48" height="25.672" transform="translate(168.232)" fill="#aed3f2"/>
      <rect id="Rectángulo_5955" data-name="Rectángulo 5955" width="117.155" height="37.306" transform="translate(66.439 20.73)" fill="#f2e9e4"/>
      <rect id="Rectángulo_5956" data-name="Rectángulo 5956" width="4.879" height="37.306" transform="translate(178.707 20.73)" fill="#aed3f2"/>
      <g id="freepik--Plant--inject-48" transform="translate(0.005 227.246)">
        <path id="Trazado_106030" data-name="Trazado 106030" d="M568.909,7075.306s-5.2-11.349.746-22.531,7.658-13.808,3.879-16.107-5.523,8.945-5.523,8.945a25.285,25.285,0,0,1-.552-15.822c2.632-8.091,4.288-21.272.689-22.689s-.69,16.438-3.81,22.533a52.46,52.46,0,0,1-3.056-13.282c-.431-6.5.239-16.872-2.6-19.539s-4.658-.818-1.842,13.522a149.8,149.8,0,0,1,2.761,26s-6.178-18.821-10.318-19.33-4.133,5.524-.589,10.825,10.383,14.728,11.506,19.625c0,0-6.775-14.158-12.887-9.813s5.3,12.888,10.383,15.979,8.606,22.459,8.606,22.459Z" transform="translate(-545.555 -6995.784)" fill="#d9a171"/>
        <path id="Trazado_106031" data-name="Trazado 106031" d="M568.909,7075.306s-5.2-11.349.746-22.531,7.658-13.808,3.879-16.107-5.523,8.945-5.523,8.945a25.285,25.285,0,0,1-.552-15.822c2.632-8.091,4.288-21.272.689-22.689s-.69,16.438-3.81,22.533a52.46,52.46,0,0,1-3.056-13.282c-.431-6.5.239-16.872-2.6-19.539s-4.658-.818-1.842,13.522a149.8,149.8,0,0,1,2.761,26s-6.178-18.821-10.318-19.33-4.133,5.524-.589,10.825,10.383,14.728,11.506,19.625c0,0-6.775-14.158-12.887-9.813s5.3,12.888,10.383,15.979,8.606,22.459,8.606,22.459Z" transform="translate(-545.555 -6995.784)" fill="#47495a" opacity="0.6" style="isolation: isolate"/>
        <path id="Trazado_106032" data-name="Trazado 106032" d="M561.082,7078.594s5.061-11.422-1.006-22.514-7.824-13.706-4.068-16.053,5.633,8.864,5.633,8.864a25.259,25.259,0,0,0,.368-15.833c-2.73-8.053-4.547-21.168-.92-22.67s.919,16.432,4.086,22.469a52.334,52.334,0,0,0,2.891-13.318c.359-6.508-.441-16.873,2.366-19.58s4.656-.92,2.034,13.5a149.65,149.65,0,0,0-2.458,26.04s5.946-18.9,10.124-19.515,4.2,5.523.718,10.826-10.2,14.9-11.266,19.789c0,0,6.6-14.257,12.749-10.014s-5.146,12.969-10.19,16.135-8.333,22.588-8.333,22.588Z" transform="translate(-541.851 -6994.422)" fill="#d9a171"/>
        <path id="Trazado_106033" data-name="Trazado 106033" d="M561.082,7078.594s5.061-11.422-1.006-22.514-7.824-13.706-4.068-16.053,5.633,8.864,5.633,8.864a25.259,25.259,0,0,0,.368-15.833c-2.73-8.053-4.547-21.168-.92-22.67s.919,16.432,4.086,22.469a52.334,52.334,0,0,0,2.891-13.318c.359-6.508-.441-16.873,2.366-19.58s4.656-.92,2.034,13.5a149.65,149.65,0,0,0-2.458,26.04s5.946-18.9,10.124-19.515,4.2,5.523.718,10.826-10.2,14.9-11.266,19.789c0,0,6.6-14.257,12.749-10.014s-5.146,12.969-10.19,16.135-8.333,22.588-8.333,22.588Z" transform="translate(-541.851 -6994.422)" fill="#5e6178" opacity="0.7" style="isolation: isolate"/>
        <path id="Trazado_106034" data-name="Trazado 106034" d="M587.921,7048.7H546.1l3.388,29.934h35.055Z" transform="translate(-545.32 -6972.675)" fill="#d9a171"/>
      </g>
      <g id="freepik--trash-bin--inject-48" transform="translate(271.157 282.056)">
        <path id="Trazado_106035" data-name="Trazado 106035" d="M772.671,7056.915a2.76,2.76,0,0,0-2.2-3.929,5.853,5.853,0,0,0-1.841-6.442,1.352,1.352,0,0,0-.8-.358,1.62,1.62,0,0,0-.873.377l-5.128,3.681a3.039,3.039,0,0,0-1.021,1.006c-1.049,2.034,2.761,4.6,1.178,6.321-.441.479-1.159.575-1.724.921-1.224.763-1.372,2.442-1.932,3.764s-2.56,2.348-3.314,1.124c.562-1.271-1.141-2.357-2.513-2.522s-2.816-.239-3.58-1.527c-1.961,1.7-6.333-3.057-6.232-4.981a3.772,3.772,0,0,0-3.056,3.131,22.509,22.509,0,0,0-.165,4.786c-.046,3.121-1.049,6.167-.994,9.278,0,2.421.976,5.109,3.194,6.084a8.342,8.342,0,0,0,3.434.46l25.248-.155a3.983,3.983,0,0,0,1.776-.295c1.142-.6,1.381-2.1,1.491-3.379l1.353-16.449Z" transform="translate(-732.465 -7028.584)" fill="#d9a171"/>
        <path id="Trazado_106036" data-name="Trazado 106036" d="M772.671,7056.915a2.76,2.76,0,0,0-2.2-3.929,5.853,5.853,0,0,0-1.841-6.442,1.352,1.352,0,0,0-.8-.358,1.62,1.62,0,0,0-.873.377l-5.128,3.681a3.039,3.039,0,0,0-1.021,1.006c-1.049,2.034,2.761,4.6,1.178,6.321-.441.479-1.159.575-1.724.921-1.224.763-1.372,2.442-1.932,3.764s-2.56,2.348-3.314,1.124c.562-1.271-1.141-2.357-2.513-2.522s-2.816-.239-3.58-1.527c-1.961,1.7-6.333-3.057-6.232-4.981a3.772,3.772,0,0,0-3.056,3.131,22.509,22.509,0,0,0-.165,4.786c-.046,3.121-1.049,6.167-.994,9.278,0,2.421.976,5.109,3.194,6.084a8.342,8.342,0,0,0,3.434.46l25.248-.155a3.983,3.983,0,0,0,1.776-.295c1.142-.6,1.381-2.1,1.491-3.379l1.353-16.449Z" transform="translate(-732.465 -7028.584)" fill="#ffbf9d" opacity="0.3" style="isolation: isolate"/>
        <path id="Trazado_106037" data-name="Trazado 106037" d="M775.206,7035.081H736.034l.322,3.958.23,2.826.6,7.363.34,4.225.451,5.625.192,2.412.065.718.23,2.834.313,3.88.194,2.411.2,2.45.23,2.834.175,2.146.192,2.411.083,1.051h35.953l.083-1.051.193-2.4.175-2.161.23-2.837.2-2.442.194-2.411.312-3.894.231-2.825.055-.719.193-2.411.461-5.625.341-4.215.589-7.365.23-2.825.322-3.958Zm2.356,2.6h0l-.756-.756h.82Zm-.194,2.4-.073.921-3.507,3.507-4.023-4.022,3.6-3.592h.848Zm-1.013,12.536-2.567,2.568-4.023-4.023,4.023-4.013,2.761,2.761Zm-37.277-2.687h0l2.761-2.761,4.023,4.013-4.023,4.023-2.55-2.566Zm33.411-4.087-4.023,4.022-4.023-4.022,4.023-4.022Zm-6.321-8.92h4.6l-2.3,2.3Zm.994,14.241-4.013,4.022-3.987-4.022,4.023-4.014Zm-13.361,5.316,4.023-4.014,4.014,4.014-4.014,3.986Zm2.715,5.316-4.023,4.022-4.014-4.013,4.023-4.023Zm6.627-4.012,4.013,4.022-4.013,4.014-3.987-4.023Zm-5.316-7.926-4.023-4.022,4.023-4.022,4.014,4.022Zm-1.306,1.292-4.014,4.022-4.023-4.022,4.023-4.014Zm-9.324-1.292-4.014-4.022,4.014-4.022,4.023,4.022Zm0,2.6,4.023,4.014-4.023,3.985-4.014-4.023Zm4.023,14.664-4.023,4.012-4.014-4.012,4.014-4.022Zm1.293,1.293,4.023,4.022-4.013,4.023-4.041-4.04Zm1.306-1.293,4.023-4.022,4.014,4.022-4.014,4.012Zm9.338,1.293,4.014,4.022-4.014,4.023-4-4.04Zm5.316,5.316,4.023,4.022-2.6,2.6h-2.835l-2.6-2.6Zm-4.023-6.617,4.023-4.023,4.023,4.023-4.023,4.012Zm0-10.651,4.023-4.013,4.023,4.013-4.04,3.985Zm2.715-15.961-4.014,4.022-4-4.022,3.6-3.6h.848Zm-9.338-1.293-2.3-2.3h4.6Zm-1.307,1.293-4.013,4.022-4.023-4.022,3.592-3.6h.848Zm-7.04-3.6-2.3,2.3-2.3-2.3Zm-7.2,0,3.6,3.6-4.023,4.022-3.5-3.507-.073-.921,3.148-3.161Zm-3.448,0-.746.746h0l-.065-.746Zm-.248,6.949,1.97,1.972-1.667,1.675Zm1.095,13.485-.157-1.905h0l1.031,1.031-.921.874Zm.194,2.42,1.978-1.986,4.023,4.022-4.023,4.015-1.619-1.621Zm.6,7.438v-.176l.092.094-.082.082Zm.7,8.569-.506-6.167,1.187-1.187,4.023,4.022-4.023,4.012-.681-.681Zm.369,4.6-.075-.919.386-.387,1.307,1.306Zm1.619-2.6,4.014-4.022,4.023,4.022-2.6,2.6h-2.835Zm8.035,2.6,1.307-1.306,1.307,1.306Zm5.211,0-2.606-2.6,4.023-4.022,4.014,4.022-2.6,2.6Zm5.431,0,1.306-1.306,1.307,1.306Zm12.261,0h-1.621l1.307-1.306.386.387Zm.377-4.6-.69.681-4.041-4.031,4.023-4.023,1.187,1.189Zm.71-8.753v.184l-.083-.082.1-.1Zm.23-2.826-1.629,1.621-4.023-4.014,4.023-4.023,1.988,1.987Zm.552-6.837-.921-.922,1.04-1.03Zm1.078-13.466-.295,3.681-1.685-1.684,1.98-1.979Z" transform="translate(-733.53 -7033.433)" fill="#d9a171"/>
        <g id="Grupo_58226" data-name="Grupo 58226" transform="translate(2.504 1.648)" opacity="0.6">
          <path id="Trazado_106038" data-name="Trazado 106038" d="M775.206,7035.081H736.034l.322,3.958.23,2.826.6,7.363.34,4.225.451,5.625.192,2.412.065.718.23,2.834.313,3.88.194,2.411.2,2.45.23,2.834.175,2.146.192,2.411.083,1.051h35.953l.083-1.051.193-2.4.175-2.161.23-2.837.2-2.442.194-2.411.312-3.894.231-2.825.055-.719.193-2.411.461-5.625.341-4.215.589-7.365.23-2.825.322-3.958Zm2.356,2.6h0l-.756-.756h.82Zm-.194,2.4-.073.921-3.507,3.507-4.023-4.022,3.6-3.592h.848Zm-1.013,12.536-2.567,2.568-4.023-4.023,4.023-4.013,2.761,2.761Zm-37.277-2.687h0l2.761-2.761,4.023,4.013-4.023,4.023-2.55-2.566Zm33.411-4.087-4.023,4.022-4.023-4.022,4.023-4.022Zm-6.321-8.92h4.6l-2.3,2.3Zm.994,14.241-4.013,4.022-3.987-4.022,4.023-4.014Zm-13.361,5.316,4.023-4.014,4.014,4.014-4.014,3.986Zm2.715,5.316-4.023,4.022-4.014-4.013,4.023-4.023Zm6.627-4.012,4.013,4.022-4.013,4.014-3.987-4.023Zm-5.316-7.926-4.023-4.022,4.023-4.022,4.014,4.022Zm-1.306,1.292-4.014,4.022-4.023-4.022,4.023-4.014Zm-9.324-1.292-4.014-4.022,4.014-4.022,4.023,4.022Zm0,2.6,4.023,4.014-4.023,3.985-4.014-4.023Zm4.023,14.664-4.023,4.012-4.014-4.012,4.014-4.022Zm1.293,1.293,4.023,4.022-4.013,4.023-4.041-4.04Zm1.306-1.293,4.023-4.022,4.014,4.022-4.014,4.012Zm9.338,1.293,4.014,4.022-4.014,4.023-4-4.04Zm5.316,5.316,4.023,4.022-2.6,2.6h-2.835l-2.6-2.6Zm-4.023-6.617,4.023-4.023,4.023,4.023-4.023,4.012Zm0-10.651,4.023-4.013,4.023,4.013-4.04,3.985Zm2.715-15.961-4.014,4.022-4-4.022,3.6-3.6h.848Zm-9.338-1.293-2.3-2.3h4.6Zm-1.307,1.293-4.013,4.022-4.023-4.022,3.592-3.6h.848Zm-7.04-3.6-2.3,2.3-2.3-2.3Zm-7.2,0,3.6,3.6-4.023,4.022-3.5-3.507-.073-.921,3.148-3.161Zm-3.448,0-.746.746h0l-.065-.746Zm-.248,6.949,1.97,1.972-1.667,1.675Zm1.095,13.485-.157-1.905h0l1.031,1.031-.921.874Zm.194,2.42,1.978-1.986,4.023,4.022-4.023,4.015-1.619-1.621Zm.6,7.438v-.176l.092.094-.082.082Zm.7,8.569-.506-6.167,1.187-1.187,4.023,4.022-4.023,4.012-.681-.681Zm.369,4.6-.075-.919.386-.387,1.307,1.306Zm1.619-2.6,4.014-4.022,4.023,4.022-2.6,2.6h-2.835Zm8.035,2.6,1.307-1.306,1.307,1.306Zm5.211,0-2.606-2.6,4.023-4.022,4.014,4.022-2.6,2.6Zm5.431,0,1.306-1.306,1.307,1.306Zm12.261,0h-1.621l1.307-1.306.386.387Zm.377-4.6-.69.681-4.041-4.031,4.023-4.023,1.187,1.189Zm.71-8.753v.184l-.083-.082.1-.1Zm.23-2.826-1.629,1.621-4.023-4.014,4.023-4.023,1.988,1.987Zm.552-6.837-.921-.922,1.04-1.03Zm1.078-13.466-.295,3.681-1.685-1.684,1.98-1.979Z" transform="translate(-736.034 -7035.081)" fill="#ffbf9d"/>
        </g>
        <rect id="Rectángulo_5957" data-name="Rectángulo 5957" width="48.6" height="5.127" rx="1.051" fill="#d9a171"/>
        <rect id="Rectángulo_5958" data-name="Rectángulo 5958" width="41.595" height="5.127" rx="1.051" transform="translate(3.498 46.033)" fill="#d9a171"/>
      </g>
      <g id="freepik--character-2--inject-48" transform="translate(68.473 44.532)">
        <path id="Trazado_106039" data-name="Trazado 106039" d="M612.594,6937.742h27.614l18.694,7.583H631.288Z" transform="translate(-584.75 -6838.415)" fill="#ffbf9d" opacity="0.3" style="isolation: isolate"/>
        <g id="freepik--group--inject-48" transform="translate(47.371)">
          <path id="Trazado_106040" data-name="Trazado 106040" d="M682.18,6902.011c5.817,2.965,4.151,17.232-10.723,43.87l-10.19-8.285a150.581,150.581,0,0,1,9.353-24.077C676.647,6901.5,682.18,6902.011,682.18,6902.011Z" transform="translate(-610.867 -6854.019)" fill="#d9a171"/>
          <path id="Trazado_106041" data-name="Trazado 106041" d="M682.18,6902.011c5.817,2.965,4.151,17.232-10.723,43.87l-10.19-8.285a150.581,150.581,0,0,1,9.353-24.077C676.647,6901.5,682.18,6902.011,682.18,6902.011Z" transform="translate(-610.867 -6854.019)" fill="#ffbf9d" opacity="0.4" style="isolation: isolate"/>
          <path id="Trazado_106042" data-name="Trazado 106042" d="M725.7,6946.641h-39.58c-3.766,20.571-15.556,93.352-7.1,158.2l13.383-1.665s-1.243-86.09,10.6-117.911c1.362,17.029,2.972,35.152,4.382,44.8,3.424,23.729,10.788,75.606,10.788,75.606h13.648s-2.761-49.65-4.087-72.982C726.357,7007.363,725.75,6951.814,725.7,6946.641Z" transform="translate(-604.42 -6834.529)" fill="#344154"/>
          <path id="Trazado_106043" data-name="Trazado 106043" d="M674.093,6903.716c4.1-.921,25.7-5.762,43.133-5.082,0,0,5.6,57.446,10.861,80.8l-45.59,7.99s-10.236-57.162-9.121-82.842A.918.918,0,0,1,674.093,6903.716Z" transform="translate(-605.616 -6855.521)" fill="#d9a171"/>
          <path id="Trazado_106044" data-name="Trazado 106044" d="M674.093,6903.716c4.1-.921,25.7-5.762,43.133-5.082,0,0,5.6,57.446,10.861,80.8l-45.59,7.99s-10.236-57.162-9.121-82.842A.918.918,0,0,1,674.093,6903.716Z" transform="translate(-605.616 -6855.521)" fill="#ffbf9d" opacity="0.6" style="isolation: isolate"/>
          <path id="Trazado_106045" data-name="Trazado 106045" d="M713.12,6898.078s-5.219,21.943,9.051,40.583l3.526,23.408,4.1,19.384-22.681,5.984-8.127-18.2-.819,20.094-18.05,2.632-1.961-23.011s-3.12-18.17-3.921-28.147c0,0-2.707-23.122,1.51-37.868l5.936-1.28s.332,14.092,9.353,25.4c0,0,8.56-22.556,16.328-28.95Z" transform="translate(-605.578 -6855.736)" fill="#d9a171"/>
          <path id="Trazado_106046" data-name="Trazado 106046" d="M713.12,6898.078s-5.219,21.943,9.051,40.583l3.526,23.408,4.1,19.384-22.681,5.984-8.127-18.2-.819,20.094-18.05,2.632-1.961-23.011s-3.12-18.17-3.921-28.147c0,0-2.707-23.122,1.51-37.868l5.936-1.28s.332,14.092,9.353,25.4c0,0,8.56-22.556,16.328-28.95Z" transform="translate(-605.578 -6855.736)" fill="#d9a171" opacity="0.2" style="isolation: isolate"/>
          <path id="Trazado_106047" data-name="Trazado 106047" d="M676.585,6926.778s-3.862,15.374-5.013,17.118-27.1-2.518-27.1-2.518-4.425-1.706-7-.538-10.746,4.187-11.258,6.307,5.854,6.135,7.15,7.225c1.141.962,6.966-2.554,8.494-3.8a6.535,6.535,0,0,0,2.155-3.072s27.285,8.87,35.361,6.513,7.4-18.956,7.4-18.956Z" transform="translate(-626.186 -6843.201)" fill="#d9a171"/>
          <path id="Trazado_106048" data-name="Trazado 106048" d="M689.191,7069.665l-7.695.81-1.445-16.6,7.695-.818Z" transform="translate(-602.664 -6788.062)" fill="#d9a171"/>
          <path id="Trazado_106049" data-name="Trazado 106049" d="M715.626,7069.48h-7.471l-.616-17.287h7.471Z" transform="translate(-590.661 -6788.437)" fill="#d9a171"/>
          <path id="Trazado_106050" data-name="Trazado 106050" d="M711.459,7063.643h9.067a.669.669,0,0,1,.644.515l1.464,6.645a1.1,1.1,0,0,1-.835,1.3h-.011a.987.987,0,0,1-.24,0c-2.937-.046-5.071-.221-8.754-.221-2.273,0-9.113.23-12.25.23s-3.536-3.092-2.256-3.378c5.747-1.251,10.078-2.991,11.924-4.6a1.827,1.827,0,0,1,1.247-.5Z" transform="translate(-594.999 -6783.437)" fill="#344154"/>
          <path id="Trazado_106051" data-name="Trazado 106051" d="M706.081,7065.11a2.238,2.238,0,0,1-1.427-.388,1.037,1.037,0,0,1-.378-.919.536.536,0,0,1,.3-.49c.828-.43,3.24,1.05,3.507,1.225a.157.157,0,0,1,.082.167.193.193,0,0,1-.128.156,10.239,10.239,0,0,1-1.961.248Zm-1.1-1.556a.465.465,0,0,0-.23.055c-.046,0-.111.064-.119.2a.745.745,0,0,0,.239.635,3.588,3.588,0,0,0,2.661.144,7.35,7.35,0,0,0-2.55-1.035Z" transform="translate(-592.088 -6783.615)" fill="#d9a171"/>
          <path id="Trazado_106052" data-name="Trazado 106052" d="M707.536,7065.363h-.092c-.764-.424-2.256-2.062-2.109-2.854a.581.581,0,0,1,.575-.46.978.978,0,0,1,.754.222c.862.708,1.04,2.852,1.049,2.955a.2.2,0,0,1-.082.166.16.16,0,0,1-.095-.028Zm-1.5-3.029h-.092c-.22,0-.239.129-.257.175-.092.488.862,1.726,1.629,2.311a4.253,4.253,0,0,0-.921-2.338.613.613,0,0,0-.359-.144Z" transform="translate(-591.628 -6784.136)" fill="#d9a171"/>
          <path id="Trazado_106053" data-name="Trazado 106053" d="M684.7,7063.457h9.051a.672.672,0,0,1,.635.515l1.473,6.645a1.1,1.1,0,0,1-.848,1.307h-.236c-2.937-.054-5.071-.23-8.754-.23-2.274,0-9.122.241-12.252.241s-3.543-3.1-2.254-3.388c5.747-1.251,10.078-2.99,11.924-4.6A1.836,1.836,0,0,1,684.7,7063.457Z" transform="translate(-606.689 -6783.519)" fill="#344154"/>
          <path id="Trazado_106054" data-name="Trazado 106054" d="M679.32,7064.939a2.273,2.273,0,0,1-1.437-.378,1.085,1.085,0,0,1-.367-.92.526.526,0,0,1,.3-.487c.829-.432,3.241,1.048,3.507,1.224a.164.164,0,0,1,.083.167.185.185,0,0,1-.144.155,8.7,8.7,0,0,1-1.945.238Zm-1.113-1.546a.354.354,0,0,0-.221.046c-.056,0-.111.064-.121.211a.768.768,0,0,0,.24.635,3.69,3.69,0,0,0,2.661.13A7.352,7.352,0,0,0,678.207,7063.393Z" transform="translate(-603.773 -6783.685)" fill="#d9a171"/>
          <path id="Trazado_106055" data-name="Trazado 106055" d="M680.769,7065.2h-.083c-.773-.414-2.254-2.062-2.108-2.853a.574.574,0,0,1,.575-.459.921.921,0,0,1,.746.229c.862.7,1.05,2.845,1.059,2.945a.206.206,0,0,1-.083.165.182.182,0,0,1-.105-.028Zm-1.5-3.028h-.083c-.23,0-.249.129-.257.175-.092.488.855,1.724,1.629,2.31a4.241,4.241,0,0,0-.921-2.337.661.661,0,0,0-.374-.147Z" transform="translate(-603.312 -6784.209)" fill="#d9a171"/>
          <path id="Trazado_106056" data-name="Trazado 106056" d="M687.746,7053.051l-7.695.818.746,8.569,7.7-.818Z" transform="translate(-602.664 -6788.062)" fill="#d9a171" opacity="0.2" style="isolation: isolate"/>
          <path id="Trazado_106057" data-name="Trazado 106057" d="M715.01,7052.2h-7.471l.322,8.907h7.471Z" transform="translate(-590.661 -6788.434)" fill="#d9a171" opacity="0.2" style="isolation: isolate"/>
          <path id="Trazado_106058" data-name="Trazado 106058" d="M677.379,7061.073l16.6-2.466-.506-4.6-17.267,2.274Z" transform="translate(-604.345 -6787.644)" fill="#d9a171"/>
          <path id="Trazado_106059" data-name="Trazado 106059" d="M677.379,7061.073l16.6-2.466-.506-4.6-17.267,2.274Z" transform="translate(-604.345 -6787.644)" fill="#ffbf9d" opacity="0.6" style="isolation: isolate"/>
          <path id="Trazado_106060" data-name="Trazado 106060" d="M704.421,7058.967h16.1v-4.814l-16.706-.313Z" transform="translate(-592.287 -6787.717)" fill="#d9a171"/>
          <path id="Trazado_106061" data-name="Trazado 106061" d="M704.421,7058.967h16.1v-4.814l-16.706-.313Z" transform="translate(-592.287 -6787.717)" fill="#ffbf9d" opacity="0.6" style="isolation: isolate"/>
          <path id="Trazado_106062" data-name="Trazado 106062" d="M696.19,6977.8a105.933,105.933,0,0,0-4.418,17.176c-1.113-15.16,3.323-31.231,3.323-31.231Z" transform="translate(-597.624 -6827.062)" fill="#d9a171" opacity="0.2" style="isolation: isolate"/>
          <path id="Trazado_106063" data-name="Trazado 106063" d="M698.882,6904.644c-2.873,3.976-11.847,4.6-11.847,4.6s-5.747-.34-4.969-2.283c3.092-1.2,4.326-3.028,4.6-5.08a9.446,9.446,0,0,0-.451-3.729,17.913,17.913,0,0,0-.7-1.988l9.085-10.254C694.271,6891.508,694.592,6901.557,698.882,6904.644Z" transform="translate(-601.816 -6861.049)" fill="#d9a171"/>
          <path id="Trazado_106064" data-name="Trazado 106064" d="M691.875,6889.825a9.354,9.354,0,0,1-6.517,10.374,9.449,9.449,0,0,0-.45-3.729Z" transform="translate(-600.543 -6859.339)" fill="#d9a171" opacity="0.2" style="isolation: isolate"/>
          <path id="Trazado_106065" data-name="Trazado 106065" d="M677.206,6875.449s-2.246,10.125,2.937,14.479,6.443-14.8,6.443-14.8Z" transform="translate(-604.118 -6865.756)" fill="#344154"/>
          <path id="Trazado_106066" data-name="Trazado 106066" d="M695.3,6899.669a9.338,9.338,0,0,1-10.943,2.892,10.388,10.388,0,0,1-5.587-5.22,8.325,8.325,0,0,1-.431-1.021c-2.256-6.444-2.366-17.49,4.537-21.171a10.126,10.126,0,0,1,14.911,8.644C698.107,6891.2,698.64,6895.535,695.3,6899.669Z" transform="translate(-604.013 -6866.273)" fill="#d9a171"/>
          <path id="Trazado_106067" data-name="Trazado 106067" d="M684.265,6883.347c.1.588-.2,1.114-.6,1.16s-.756-.43-.82-1.021.213-1.115.6-1.149S684.2,6882.741,684.265,6883.347Z" transform="translate(-601.447 -6862.608)" fill="#344154"/>
          <path id="Trazado_106068" data-name="Trazado 106068" d="M679.536,6883.829c.1.59-.211,1.113-.606,1.16s-.756-.423-.82-1.013.213-1.122.6-1.159S679.536,6883.267,679.536,6883.829Z" transform="translate(-603.516 -6862.4)" fill="#344154"/>
          <path id="Trazado_106069" data-name="Trazado 106069" d="M681.352,6883.572a22.015,22.015,0,0,1-2.339,5.422,3.479,3.479,0,0,0,2.927.237Z" transform="translate(-603.117 -6862.07)" fill="#d58745"/>
          <path id="Trazado_106070" data-name="Trazado 106070" d="M686.077,6881.9a.4.4,0,0,1-.359-.1,2.822,2.822,0,0,0-2.365-.92.36.36,0,0,1-.366-.353.362.362,0,0,1,.246-.348h0a3.537,3.537,0,0,1,3,1.16.351.351,0,0,1,0,.495h0a.454.454,0,0,1-.157.066Z" transform="translate(-601.382 -6863.561)" fill="#344154"/>
          <path id="Trazado_106071" data-name="Trazado 106071" d="M677.066,6882.917a.339.339,0,0,1-.211,0,.35.35,0,0,1-.214-.447h0a3.494,3.494,0,0,1,2.328-2.227.349.349,0,0,1,.265.04.355.355,0,0,1,.159.216h0a.359.359,0,0,1-.267.423h0a2.841,2.841,0,0,0-1.84,1.841A.4.4,0,0,1,677.066,6882.917Z" transform="translate(-604.162 -6863.527)" fill="#344154"/>
          <path id="Trazado_106072" data-name="Trazado 106072" d="M687.114,6874.813l-.22,3.276a2.43,2.43,0,0,1,1.381,2.991c-.921,2.762.919,6.95,3.075,8.533,0,0,0-1.2,1.006-.92s1.078,6.443-.718,9.471c0,0,2.807-2.825,4.123-9.4,1.224-6.076,1.141-11.044-.221-13.339Z" transform="translate(-599.676 -6865.894)" fill="#344154"/>
          <path id="Trazado_106073" data-name="Trazado 106073" d="M696.3,6886.128a7,7,0,0,1-3.682,3.95c-2.246,1.021-3.747-.921-3.434-3.223.287-2.054,1.786-5.126,4.2-5.155a3.161,3.161,0,0,1,2.918,4.428Z" transform="translate(-598.695 -6862.886)" fill="#d9a171"/>
          <path id="Trazado_106074" data-name="Trazado 106074" d="M691.527,6880.8a21.593,21.593,0,0,0-7.511.736,12.259,12.259,0,0,1-6.546.267s-3.276-6.627,1.059-10.64,11.588-2.442,13.936-1.086-2.421,1.133-2.421,1.133,7.676,1.426,11,4.345a7.6,7.6,0,0,1,1.842,8.533c-.681.809-1.293-.976-1.293-.976a8.819,8.819,0,0,1-4.6.921C694.132,6884,695.329,6881.464,691.527,6880.8Z" transform="translate(-604.309 -6868.605)" fill="#344154"/>
          <path id="Trazado_106075" data-name="Trazado 106075" d="M681.358,6889.873a19.313,19.313,0,0,1,1.326,2.549,3.816,3.816,0,0,0,.487-.127c2.228-.576,3.066-1.582,3.323-2.514a2.989,2.989,0,0,0,0-1.4,2.778,2.778,0,0,0-.267-.755,10.944,10.944,0,0,1-4.123,2.034Z" transform="translate(-602.093 -6860.297)" fill="#344154"/>
          <path id="Trazado_106076" data-name="Trazado 106076" d="M681.883,6889.662l.415.746a6.866,6.866,0,0,0,3.976-2.026,2.8,2.8,0,0,0-.267-.754,10.935,10.935,0,0,1-4.125,2.034Z" transform="translate(-601.864 -6860.298)" fill="#ffbf9d"/>
          <path id="Trazado_106077" data-name="Trazado 106077" d="M682.62,6891.639c2.228-.575,3.066-1.581,3.323-2.513a7.3,7.3,0,0,0-2.338,1.132,2.759,2.759,0,0,0-.986,1.381Z" transform="translate(-601.542 -6859.644)" fill="#de5753"/>
          <path id="Trazado_106078" data-name="Trazado 106078" d="M696.88,6896.917a25.011,25.011,0,0,1-8.533,6.976,11.047,11.047,0,0,1-2.1-4.731,19.3,19.3,0,0,0-4.9,3.333,13.4,13.4,0,0,0,2.172,6.02l4.666-3.341,5.661,4.132s7.438-4.8,9.1-9.738Z" transform="translate(-602.096 -6856.241)" fill="#d9a171"/>
          <path id="Trazado_106079" data-name="Trazado 106079" d="M696.88,6896.917a25.011,25.011,0,0,1-8.533,6.976,11.047,11.047,0,0,1-2.1-4.731,19.3,19.3,0,0,0-4.9,3.333,13.4,13.4,0,0,0,2.172,6.02l4.666-3.341,5.661,4.132s7.438-4.8,9.1-9.738Z" transform="translate(-602.096 -6856.241)" fill="#ffbf9d" opacity="0.4" style="isolation: isolate"/>
          <rect id="Rectángulo_5959" data-name="Rectángulo 5959" width="9.278" height="6.352" transform="translate(92.06 73.977) rotate(-6.144)" fill="#ffbf9d" opacity="0.6" style="isolation: isolate"/>
          <path id="Trazado_106080" data-name="Trazado 106080" d="M692.359,6917.894l.919,3.046a.812.812,0,0,0,.921.576h0a.83.83,0,0,0,.691-.7l.487-3.536Z" transform="translate(-597.289 -6847.349)" fill="#d9a171"/>
          <path id="Trazado_106081" data-name="Trazado 106081" d="M692.359,6917.894l.919,3.046a.812.812,0,0,0,.921.576h0a.83.83,0,0,0,.691-.7l.487-3.536Z" transform="translate(-597.289 -6847.349)" fill="#d9a171" opacity="0.4" style="isolation: isolate"/>
          <path id="Trazado_106082" data-name="Trazado 106082" d="M715.18,6923.755s-3.424,10.28-4.9,12.518-39.441,12.058-39.441,12.058a12.9,12.9,0,0,0-5.192-1.445c-2.011.176-9.83,2-10.014,3.449s4.013,8.008,5.007,8.551,11.045-.967,12.113-3.582c0,0,38.779-6.958,42.424-8.421s11.46-18.758,11.46-18.758Z" transform="translate(-613.328 -6844.522)" fill="#d9a171"/>
          <path id="Trazado_106083" data-name="Trazado 106083" d="M707.974,6898.616c5.872.4,11,13.044,10,23.244s-10.383,27.613-10.383,27.613l-13.108-6.443s3.277-11.662,7.014-22.7S703.537,6898.309,707.974,6898.616Z" transform="translate(-596.364 -6855.502)" fill="#d9a171"/>
          <path id="Trazado_106084" data-name="Trazado 106084" d="M707.974,6898.616c5.872.4,11,13.044,10,23.244s-10.383,27.613-10.383,27.613l-13.108-6.443s3.277-11.662,7.014-22.7S703.537,6898.309,707.974,6898.616Z" transform="translate(-596.364 -6855.502)" fill="#ffbf9d" opacity="0.4" style="isolation: isolate"/>
          <path id="Trazado_106085" data-name="Trazado 106085" d="M693.39,6930.975l1.454-2.126,15.308,5.172-.792,3.8Z" transform="translate(-596.839 -6842.298)" fill="#d9a171"/>
          <path id="Trazado_106086" data-name="Trazado 106086" d="M693.39,6930.975l1.454-2.126,15.308,5.172-.792,3.8Z" transform="translate(-596.839 -6842.298)" fill="#ffbf9d" opacity="0.3" style="isolation: isolate"/>
          <path id="Trazado_106087" data-name="Trazado 106087" d="M684.4,6904.679l-.54,3.857,1.744,1.489s-2.155,9.991-2.011,10.465,2.487,4.437,2.487,4.437l4.633-9.6-3.017-5.612,3.488-4.157-3.962-2.891Z" transform="translate(-601.12 -6853.732)" fill="#344154"/>
          <g id="Grupo_58227" data-name="Grupo 58227" transform="translate(90.34 75.038)">
            <path id="Trazado_106088" data-name="Trazado 106088" d="M689.479,6924.1l-.412-2.646.927-.145a1.23,1.23,0,0,1,.76.07.637.637,0,0,1,.332.5.388.388,0,1,0,.066.773.619.619,0,0,1,.175.359.7.7,0,0,1-.153.617,1.11,1.11,0,0,1-.663.307Zm.306-1.622.4-.063c.273-.047.394-.179.361-.394a.312.312,0,0,0-.144-.244.548.548,0,0,0-.342-.027l-.38.06Zm.06.385.111.719.467-.073a.463.463,0,0,0,.287-.145.312.312,0,0,0,.069-.27.335.335,0,0,0-.431-.31Z" transform="translate(-689.067 -6920.643)" fill="#344154"/>
            <path id="Trazado_106089" data-name="Trazado 106089" d="M692.2,6923.458a.622.622,0,0,1-.08-.168.643.643,0,0,1-.463.288.707.707,0,0,1-.506-.092.544.544,0,0,1-.254-.392.559.559,0,0,1,.157-.516,1.159,1.159,0,0,1,.644-.272l.241-.038-.017-.114a.321.321,0,0,0-.1-.207.276.276,0,0,0-.233-.047.322.322,0,0,0-.2.1.214.214,0,0,0-.049.185l-.524.082a.518.518,0,0,1,.056-.331.7.7,0,0,1,.263-.276,1.144,1.144,0,0,1,.42-.142.88.88,0,0,1,.6.093.651.651,0,0,1,.288.48l.134.852a.961.961,0,0,0,.144.413v.03Zm-.491-.3a.452.452,0,0,0,.207-.084.36.36,0,0,0,.123-.162l-.053-.339-.2.031c-.263.041-.389.154-.378.337v.032a.215.215,0,0,0,.095.145A.273.273,0,0,0,691.709,6923.159Z" transform="translate(-688.308 -6920.546)" fill="#344154"/>
            <path id="Trazado_106090" data-name="Trazado 106090" d="M692.645,6921.391l.052.224a.7.7,0,0,1,.524-.351.575.575,0,0,1,.493.112.884.884,0,0,1,.243.523l.2,1.271-.524.081-.2-1.256a.345.345,0,0,0-.109-.231.323.323,0,0,0-.255-.039.365.365,0,0,0-.3.241l.216,1.386-.524.082-.306-1.966Z" transform="translate(-687.72 -6920.654)" fill="#344154"/>
            <path id="Trazado_106091" data-name="Trazado 106091" d="M694.657,6922.681a.345.345,0,0,0,.224-.116.288.288,0,0,0,.062-.228l.493-.078a.69.69,0,0,1-.053.385.72.72,0,0,1-.253.3.937.937,0,0,1-.4.156.859.859,0,0,1-.705-.165,1.071,1.071,0,0,1-.359-.7v-.033a1.058,1.058,0,0,1,.129-.763.849.849,0,0,1,.621-.374.831.831,0,0,1,.624.119.744.744,0,0,1,.313.523l-.491.077a.366.366,0,0,0-.133-.235.356.356,0,0,0-.512.119.772.772,0,0,0-.026.448l.008.055a.792.792,0,0,0,.161.422.321.321,0,0,0,.3.089Z" transform="translate(-687.068 -6920.742)" fill="#344154"/>
            <path id="Trazado_106092" data-name="Trazado 106092" d="M695.012,6922a1.2,1.2,0,0,1,.032-.539.839.839,0,0,1,.27-.406.968.968,0,0,1,.471-.2.915.915,0,0,1,.688.144,1,1,0,0,1,.384.618l.024.136a1.039,1.039,0,0,1-.143.765.989.989,0,0,1-1.356.211,1.051,1.051,0,0,1-.369-.7Zm.532-.044a.733.733,0,0,0,.172.413.382.382,0,0,0,.6-.092.821.821,0,0,0,.034-.485.736.736,0,0,0-.174-.409.354.354,0,0,0-.325-.1.348.348,0,0,0-.274.2.829.829,0,0,0-.033.48Z" transform="translate(-686.478 -6920.835)" fill="#344154"/>
          </g>
        </g>
        <rect id="Rectángulo_5960" data-name="Rectángulo 5960" width="210.71" height="158.309" transform="translate(2.218 130.365)" fill="#344154"/>
        <rect id="Rectángulo_5961" data-name="Rectángulo 5961" width="156.036" height="158.309" transform="translate(2.218 130.365)" fill="#344154" opacity="0.4" style="isolation: isolate"/>
        <rect id="Rectángulo_5962" data-name="Rectángulo 5962" width="215.976" height="9.159" rx="0.999" transform="translate(0 124.538)" fill="#d9a171"/>
        <rect id="Rectángulo_5963" data-name="Rectángulo 5963" width="160.748" height="9.159" rx="0.999" transform="translate(0 124.538)" fill="#344154" opacity="0.2" style="isolation: isolate"/>
        <rect id="Rectángulo_5964" data-name="Rectángulo 5964" width="45.489" height="76.242" transform="translate(0 49.733)" fill="#ffbf9d" opacity="0.56"/>
        <rect id="Rectángulo_5965" data-name="Rectángulo 5965" width="101.224" height="76.242" transform="translate(115.046 49.733)" fill="#ffbf9d" opacity="0.56"/>
        <rect id="Rectángulo_5966" data-name="Rectángulo 5966" width="69.557" height="49.664" transform="translate(45.488 49.733)" fill="#ffbf9d" opacity="0.56"/>
      </g>
      <g id="freepik--character-1--inject-48" transform="translate(23.079 81.005)">
        <path id="Trazado_106093" data-name="Trazado 106093" d="M613.332,6936.87c3.177.994,3.682,19.449,3.682,19.449h-1.84s.919-19.559-3.82-18.952Z" transform="translate(-539.897 -6875.268)" fill="#344154"/>
        <path id="Trazado_106094" data-name="Trazado 106094" d="M613.332,6936.87c3.177.994,3.682,19.449,3.682,19.449h-1.84s.919-19.559-3.82-18.952Z" transform="translate(-539.897 -6875.268)" fill="#d9a171" opacity="0.2" style="isolation: isolate"/>
        <path id="Trazado_106095" data-name="Trazado 106095" d="M618.668,7063.415l-5.808,1.021-2.383-7.916-2.172-7.263,6.7-2.337,1.942,8.736Z" transform="translate(-541.229 -6827.212)" fill="#e4897b"/>
        <path id="Trazado_106096" data-name="Trazado 106096" d="M616.967,7055.817l-6.465.862-2.181-7.344,6.682-2.385Z" transform="translate(-541.221 -6827.199)" fill="#d9a171" opacity="0.2" style="isolation: isolate"/>
        <path id="Trazado_106097" data-name="Trazado 106097" d="M590.892,7065.447h-5.9l-.967-8.312-.875-7.577,7-1.159.4,9.021Z" transform="translate(-552.213 -6826.565)" fill="#e4897b"/>
        <path id="Trazado_106098" data-name="Trazado 106098" d="M590.547,7057.489l-6.517-.288-.875-7.614,7-1.177Z" transform="translate(-552.211 -6826.562)" fill="#d9a171" opacity="0.2" style="isolation: isolate"/>
        <path id="Trazado_106099" data-name="Trazado 106099" d="M599.5,7073.438a10.181,10.181,0,0,0-3.148-1.711h0s-3.424-3.4-5.071-13.623l-4.483-1.167a3.84,3.84,0,0,0-4.079,1.591,2.211,2.211,0,0,0-.287.589,25.436,25.436,0,0,0-.478,3.324,92.334,92.334,0,0,0-.065,11.228h.81l.322-7.05c.119-2.394,1.951.414,2.476,2.992s1.639,5.316,6.886,5.448C598.5,7075.177,601.041,7074.9,599.5,7073.438Z" transform="translate(-552.827 -6822.885)" fill="#344154"/>
        <path id="Trazado_106100" data-name="Trazado 106100" d="M626.724,7072.958a10.106,10.106,0,0,0-3.147-1.713h0s-3.424-3.4-5.071-13.623l-4.482-1.169a3.84,3.84,0,0,0-4.077,1.593,2.139,2.139,0,0,0-.287.589,25.444,25.444,0,0,0-.478,3.322,92.4,92.4,0,0,0-.065,11.23h.81l.322-7.051c.119-2.394,1.951.414,2.475,2.991s1.639,5.316,6.886,5.45C625.73,7074.7,628.271,7074.457,626.724,7072.958Z" transform="translate(-540.936 -6823.095)" fill="#344154"/>
        <path id="Trazado_106101" data-name="Trazado 106101" d="M632.637,7092.655l-9.545,1.675c-9.637-23.993-16.486-44.025-21.327-60.647-2.6-8.967-4.777-16.937-6.333-24.015l.287,26.123v58.85h-9.407c-23.573-112.3-6.866-137.894-6.866-137.894l28.212-4.695a129.41,129.41,0,0,1,2.356,15.813l1.27,9.352,11.045,56.958Z" transform="translate(-556.339 -6868.639)" fill="#d9a171"/>
        <g id="Grupo_58228" data-name="Grupo 58228" transform="translate(17.363 83.412)" opacity="0.4">
          <path id="Trazado_106102" data-name="Trazado 106102" d="M632.637,7092.655l-9.545,1.675c-9.637-23.993-16.486-44.025-21.327-60.647-2.6-8.967-4.777-16.937-6.333-24.015l.287,26.123v58.85h-9.407c-23.573-112.3-6.866-137.894-6.866-137.894l28.212-4.695a129.41,129.41,0,0,1,2.356,15.813l1.27,9.352,11.045,56.958Z" transform="translate(-573.702 -6952.051)" fill="#ffbf9d"/>
        </g>
        <path id="Trazado_106103" data-name="Trazado 106103" d="M620.58,6937.387l9.517-9.408s.332-2.521,1.253-3.222,7.455-3.075,8.284-2.549,1.905,5.808.792,6.775-7.06,2.2-7.668,2.1l-10.3,12.225Z" transform="translate(-535.868 -6881.704)" fill="#eec1bb"/>
        <path id="Trazado_106104" data-name="Trazado 106104" d="M597.187,6920.813c4.1,2.183,18.677,22.556,20.832,23.562s18.557-12.3,18.557-12.3l2.761,4.723s-13.495,19.025-21.07,18.1-22.192-17.028-22.192-17.028Z" transform="translate(-546.569 -6882.278)" fill="#344154"/>
        <path id="Trazado_106105" data-name="Trazado 106105" d="M623.636,6929.336l1.132-1.078,2.991,5.063-1.067,2.071Z" transform="translate(-534.534 -6879.029)" fill="#d9a171"/>
        <path id="Trazado_106106" data-name="Trazado 106106" d="M601.914,6941.064c-3.4-3.249-5.853-5.947-5.853-5.947l.257-4.05,1.28-3.929A16.154,16.154,0,0,1,601.914,6941.064Z" transform="translate(-546.575 -6879.517)" fill="#d9a171" opacity="0.2" style="isolation: isolate"/>
        <path id="Trazado_106107" data-name="Trazado 106107" d="M595.118,7023.786c-2.6-8.967-4.6-16.937-6.2-24.015a221.109,221.109,0,0,1,1.842-25.055S594.907,7007.02,595.118,7023.786Z" transform="translate(-549.692 -6858.743)" fill="#d9a171" opacity="0.2" style="isolation: isolate"/>
        <path id="Trazado_106108" data-name="Trazado 106108" d="M609.427,6964.124c1.149-20.257.645-31.407.121-36.976-.575-5.936-1.491-6.158-1.491-6.158s-6.443-.626-12.031-.574a90.666,90.666,0,0,0-12.887,1.363,86.4,86.4,0,0,0-11.966,2.874q.977,2.761,1.8,5.3c.736,2.191,1.389,4.234,1.978,6.13,1.115,3.563,1.97,6.638,2.661,9.389a102.7,102.7,0,0,1,3.064,21.17s-7.087,18.5-8.468,32.079l23.471,2.531,3.222-13.577,3.221,14.037,13.117-4.6Z" transform="translate(-557.443 -6882.456)" fill="#344154"/>
        <path id="Trazado_106109" data-name="Trazado 106109" d="M580.916,6920.086s3.378-2.7,9.416-.543l.819,3.075s-5.182,1.961-7.8,1.445S580.916,6920.086,580.916,6920.086Z" transform="translate(-553.19 -6883.199)" fill="#d9a171"/>
        <path id="Trazado_106110" data-name="Trazado 106110" d="M580.916,6920.086s3.378-2.7,9.416-.543l.819,3.075s-5.182,1.961-7.8,1.445S580.916,6920.086,580.916,6920.086Z" transform="translate(-553.19 -6883.199)" fill="#d9a171" opacity="0.2" style="isolation: isolate"/>
        <path id="Trazado_106111" data-name="Trazado 106111" d="M577.054,6944.385c-.313-1.548-.681-3.195-1.132-4.963-.287-1.122-.6-2.3-.921-3.553.921-3.139,1.842-.689,1.842-.689a28.319,28.319,0,0,1,.211,9.2Z" transform="translate(-555.771 -6876.404)" fill="#d9a171" opacity="0.2" style="isolation: isolate"/>
        <path id="Trazado_106112" data-name="Trazado 106112" d="M591.69,6924.435a7.462,7.462,0,0,0-.921-.378c-.662-.524-1.464-1.786-1.427-4.851a24.767,24.767,0,0,1,.332-3.592l-8.524-1.593s2.908,5.746.478,10.015c-.829.368-1.326.921-1.243,1.581.645,4.934,11.239,9.7,11.239,9.7S596.8,6927.261,591.69,6924.435Z" transform="translate(-553.424 -6885.246)" fill="#eec1bb"/>
        <path id="Trazado_106113" data-name="Trazado 106113" d="M589.466,6915.612a24.978,24.978,0,0,0-.33,3.592,9.505,9.505,0,0,1-8.2-5.191Z" transform="translate(-553.181 -6885.25)" fill="#d9a171" opacity="0.2" style="isolation: isolate"/>
        <path id="Trazado_106114" data-name="Trazado 106114" d="M584.221,6895.549s9.978-1.26,11.818,6.811a12.4,12.4,0,0,1-4.372,12.538Z" transform="translate(-551.745 -6893.345)" fill="#344154"/>
        <path id="Trazado_106115" data-name="Trazado 106115" d="M586.295,6898.527c7.419-.406,10.024,3.435,10.981,11.046,1.207,9.517-.543,16.42-9.932,14.893C574.6,6922.386,573.969,6899.2,586.295,6898.527Z" transform="translate(-554.721 -6892.023)" fill="#eec1bb"/>
        <path id="Trazado_106116" data-name="Trazado 106116" d="M587.886,6906.1a15.585,15.585,0,0,0,2.327,2.956,2.031,2.031,0,0,1-1.914.919Z" transform="translate(-550.145 -6888.705)" fill="#d4827d"/>
        <path id="Trazado_106117" data-name="Trazado 106117" d="M585.149,6906.174c.046.607-.249,1.124-.654,1.16s-.773-.432-.819-1.049.248-1.124.654-1.16S585.1,6905.566,585.149,6906.174Z" transform="translate(-551.985 -6889.131)" fill="#344154"/>
        <path id="Trazado_106118" data-name="Trazado 106118" d="M584.016,6905.346l1.279-.626S584.724,6905.89,584.016,6905.346Z" transform="translate(-551.835 -6889.307)" fill="#344154"/>
        <path id="Trazado_106119" data-name="Trazado 106119" d="M590.41,6905.674c0,.607-.248,1.124-.654,1.161s-.773-.442-.819-1.05.24-1.122.654-1.159S590.364,6905.068,590.41,6905.674Z" transform="translate(-549.688 -6889.351)" fill="#344154"/>
        <path id="Trazado_106120" data-name="Trazado 106120" d="M589.244,6904.846l1.293-.626S590,6905.39,589.244,6904.846Z" transform="translate(-549.552 -6889.526)" fill="#344154"/>
        <path id="Trazado_106121" data-name="Trazado 106121" d="M585.412,6902.3a3.876,3.876,0,0,0-3.161,1.293" transform="translate(-552.606 -6890.371)" fill="none" stroke="#263238" stroke-linecap="round" stroke-linejoin="round" stroke-width="0.686"/>
        <path id="Trazado_106122" data-name="Trazado 106122" d="M588.193,6901.918a3.458,3.458,0,0,1,2.991.443" transform="translate(-550.011 -6890.601)" fill="none" stroke="#263238" stroke-linecap="round" stroke-linejoin="round" stroke-width="0.686"/>
        <path id="Trazado_106123" data-name="Trazado 106123" d="M579.526,6912.325s3.138-6.277,2.356-10.953c0,0,14.367-6.812,15.914,8.063,0,0,.708-13.329-12.058-12.888s-11.7,19.063-4.8,24.254C580.93,6920.765,577.584,6916.257,579.526,6912.325Z" transform="translate(-555.381 -6892.88)" fill="#344154"/>
        <path id="Trazado_106124" data-name="Trazado 106124" d="M590.348,6895.6s6.093-1.5,7.824.111-10.585,13.007-17.029,14.157c0,0-2.191,7.132-.46,10.465,0,0-7.254-2.533-7.594-13.577S584.336,6891.554,590.348,6895.6Z" transform="translate(-556.61 -6893.951)" fill="#344154"/>
        <path id="Trazado_106125" data-name="Trazado 106125" d="M580.972,6909.45a3.26,3.26,0,0,0-3.682-2.761c-2.283.378-3.12,5.154,2.661,5.984C580.791,6912.721,581.212,6911.9,580.972,6909.45Z" transform="translate(-555.529 -6888.461)" fill="#eec1bb"/>
        <path id="Trazado_106126" data-name="Trazado 106126" d="M581.81,6900s-2.531-6.442-9.324-5.982-7.824,11.044-4.253,18.869,1.187,10.373,1.187,10.373,3.793-.46,3.793-7.482a25.37,25.37,0,0,1,.23,4.491s2.531-3.571.119-10.354,5.293-3.682,5.293-3.682Z" transform="translate(-559.607 -6893.992)" fill="#344154"/>
        <path id="Trazado_106127" data-name="Trazado 106127" d="M593.747,6895.61s-3.221,10.354-11.845,13.456" transform="translate(-552.758 -6893.286)" fill="none" stroke="#263238" stroke-linecap="round" stroke-linejoin="round" stroke-width="0.686"/>
        <path id="Trazado_106128" data-name="Trazado 106128" d="M584.118,6910.667a5.934,5.934,0,0,0,4.253,1.724" transform="translate(-551.79 -6886.711)" fill="none" stroke="#263238" stroke-linecap="round" stroke-linejoin="round" stroke-width="0.686"/>
        <path id="Trazado_106129" data-name="Trazado 106129" d="M581.341,6919.832s1.527,3.1,6.738,5.316l2.126,3.434v-3.912a12.1,12.1,0,0,0,.552-5.375l1.731,3.267a2.763,2.763,0,0,1,2.089,2.191c.552,2.011-2.412,9.2-2.412,9.2s-9.471-3.4-11.6-7.658c-1.58-3.175.313-3.94.313-3.94Z" transform="translate(-553.615 -6882.944)" fill="#d9a171"/>
        <path id="Trazado_106130" data-name="Trazado 106130" d="M589.933,6931.536a.681.681,0,1,1-.2-.482.681.681,0,0,1,.2.482Z" transform="translate(-549.846 -6877.896)" fill="#344154"/>
        <path id="Trazado_106131" data-name="Trazado 106131" d="M591.086,6938.947a.681.681,0,1,1-.681-.682A.681.681,0,0,1,591.086,6938.947Z" transform="translate(-549.342 -6874.659)" fill="#344154"/>
        <path id="Trazado_106132" data-name="Trazado 106132" d="M591.58,6947.932a.681.681,0,1,1-.681-.683.682.682,0,0,1,.681.683Z" transform="translate(-549.127 -6870.736)" fill="#344154"/>
        <path id="Trazado_106133" data-name="Trazado 106133" d="M591.972,6957.341a.682.682,0,1,1-.681-.682A.682.682,0,0,1,591.972,6957.341Z" transform="translate(-548.957 -6866.625)" fill="#344154"/>
        <path id="Trazado_106134" data-name="Trazado 106134" d="M628.774,6926.157a27.685,27.685,0,0,1,13.99-2.928l5.128,5.395s-4.372-1.059-14.239,1.215Z" transform="translate(-532.29 -6881.243)" fill="#d9a171"/>
        <path id="Trazado_106135" data-name="Trazado 106135" d="M628.774,6926.157a27.685,27.685,0,0,1,13.99-2.928l5.128,5.395s-4.372-1.059-14.239,1.215Z" transform="translate(-532.29 -6881.243)" fill="#53372c" opacity="0.4" style="isolation: isolate"/>
        <path id="Trazado_106136" data-name="Trazado 106136" d="M628.735,6926.085a27.721,27.721,0,0,1,13.808-3.682l5.412,5.109s-4.428-.783-14.166,1.979Z" transform="translate(-532.307 -6881.586)" fill="#d9a171"/>
        <path id="Trazado_106137" data-name="Trazado 106137" d="M628.735,6926.085a27.721,27.721,0,0,1,13.808-3.682l5.412,5.109s-4.428-.783-14.166,1.979Z" transform="translate(-532.307 -6881.586)" fill="#a66d58" opacity="0.2" style="isolation: isolate"/>
        <path id="Trazado_106138" data-name="Trazado 106138" d="M629.011,6925.665l4.961,4.134a25.177,25.177,0,0,1,15.786-2.487l-6.231-5.476S634.469,6920.788,629.011,6925.665Z" transform="translate(-532.187 -6881.875)" fill="#d9a171"/>
        <path id="Trazado_106139" data-name="Trazado 106139" d="M629.889,6925.638l3.478,3.074s7.1-3.792,14.111-2.393l-4.6-4.188S635.006,6921.137,629.889,6925.638Z" transform="translate(-531.803 -6881.745)" fill="#d9a171" opacity="0.2" style="isolation: isolate"/>
        <path id="Trazado_106140" data-name="Trazado 106140" d="M637.8,6924.015c0,.746-.809,1.353-1.84,1.353s-1.84-.607-1.84-1.353.809-1.362,1.84-1.362S637.8,6923.262,637.8,6924.015Z" transform="translate(-529.954 -6881.477)" fill="#d9a171"/>
        <path id="Trazado_106141" data-name="Trazado 106141" d="M604.553,6971.836c.341-5.127,3.516-20.25,3.516-20.25a31.117,31.117,0,0,1,4.382-2.467,23.962,23.962,0,0,1,7.262-1.39s1.445,19.082,0,21.171S604.148,6977.9,604.553,6971.836Z" transform="translate(-542.871 -6870.526)" fill="#344154"/>
        <path id="Trazado_106142" data-name="Trazado 106142" d="M607,6956.328s2.274-20.314,8.238-19.449c0,0-4.712.995-6.444,20.114Z" transform="translate(-541.798 -6875.276)" fill="#344154"/>
        <path id="Trazado_106143" data-name="Trazado 106143" d="M597.617,6946.182c1.057-.229,3.8-7.144,3.448-7.989s-20.793,2.011-20.793,2.011l1.345,7.457Z" transform="translate(-553.47 -6874.758)" fill="#d9a171"/>
        <path id="Trazado_106144" data-name="Trazado 106144" d="M597.617,6946.182c1.057-.229,3.8-7.144,3.448-7.989s-20.793,2.011-20.793,2.011l1.345,7.457Z" transform="translate(-553.47 -6874.758)" fill="#d9a171" opacity="0.2" style="isolation: isolate"/>
        <path id="Trazado_106145" data-name="Trazado 106145" d="M574.434,6940.484s21.815-3.1,22.79-2.761,2.983,8.62,2.983,8.62-18.9,2.991-20.544,2.513S573.659,6941.627,574.434,6940.484Z" transform="translate(-556.059 -6874.907)" fill="#caa79b"/>
        <path id="Trazado_106146" data-name="Trazado 106146" d="M569.248,6953.141,580.569,6946s.862-2.384,1.915-2.873,7.943-1.4,8.62-.709.608,6.076-.691,6.784-7.363.627-7.933.4l-12.693,9.693Z" transform="translate(-558.284 -6872.955)" fill="#eec1bb"/>
        <path id="Trazado_106147" data-name="Trazado 106147" d="M575.342,6923.365s7.364,10.75,6.321,19.956l-9.812,16.253,6.59-3.367,2.991,5.633s-7.593,11.7-17.257,8.938S575.342,6923.365,575.342,6923.365Z" transform="translate(-561.616 -6881.167)" fill="#344154"/>
        <path id="Trazado_106148" data-name="Trazado 106148" d="M572.849,6946.217l3.764,6.986.838-2-2.991-5.68Z" transform="translate(-556.711 -6871.488)" fill="#d9a171"/>
      </g>
      <g id="Grupo_58229" data-name="Grupo 58229" transform="translate(93.479 28.884)">
        <path id="Trazado_106149" data-name="Trazado 106149" d="M623.436,6868.661a5.565,5.565,0,0,1-1.868,3.991,6.583,6.583,0,0,1-4.454,1.456,5.913,5.913,0,0,1-4.751-2.033,8.337,8.337,0,0,1-1.731-5.584v-.96a9.424,9.424,0,0,1,.8-3.991,5.98,5.98,0,0,1,2.281-2.646,7.128,7.128,0,0,1,7.826.535,5.975,5.975,0,0,1,1.921,4.087h-3.24a3.28,3.28,0,0,0-.846-2.206,3.137,3.137,0,0,0-2.217-.686,2.751,2.751,0,0,0-2.422,1.16,6.5,6.5,0,0,0-.825,3.592v1.188a6.951,6.951,0,0,0,.771,3.72,2.7,2.7,0,0,0,2.432,1.177,3.2,3.2,0,0,0,2.238-.686,3.1,3.1,0,0,0,.846-2.12Z" transform="translate(-610.618 -6857.601)" fill="#6595bf"/>
        <path id="Trazado_106150" data-name="Trazado 106150" d="M627.782,6872.668a3.413,3.413,0,0,1-.313-1.046,3.773,3.773,0,0,1-2.945,1.263,4.139,4.139,0,0,1-2.842-.993,3.194,3.194,0,0,1-1.128-2.5,3.3,3.3,0,0,1,1.375-2.848,6.805,6.805,0,0,1,3.975-1.007h1.437v-.668a1.928,1.928,0,0,0-.415-1.293,1.633,1.633,0,0,0-1.312-.487,1.85,1.85,0,0,0-1.234.379,1.282,1.282,0,0,0-.448,1.035h-3.118a3.137,3.137,0,0,1,.627-1.875,4.153,4.153,0,0,1,1.768-1.353,6.439,6.439,0,0,1,2.567-.493,5.094,5.094,0,0,1,3.425,1.085,3.794,3.794,0,0,1,1.267,3.048v5.059a5.579,5.579,0,0,0,.464,2.513v.184ZM625.2,6870.5a2.669,2.669,0,0,0,1.273-.308,2.039,2.039,0,0,0,.862-.825v-2.011h-1.165q-2.34,0-2.493,1.619l-.01.183a1.252,1.252,0,0,0,.409.961A1.6,1.6,0,0,0,625.2,6870.5Z" transform="translate(-606.281 -6856.378)" fill="#6595bf"/>
        <path id="Trazado_106151" data-name="Trazado 106151" d="M633.1,6862.333v12.308a4.168,4.168,0,0,1-1.024,3,3.894,3.894,0,0,1-2.956,1.072,6.343,6.343,0,0,1-1.543-.183v-2.47a5.807,5.807,0,0,0,.981.1q1.414,0,1.414-1.5v-12.33Zm-3.376-3.017a1.532,1.532,0,0,1,.47-1.149,2.027,2.027,0,0,1,2.556,0,1.652,1.652,0,0,1-.01,2.318,2,2,0,0,1-2.536,0,1.541,1.541,0,0,1-.48-1.173Z" transform="translate(-603.215 -6857.713)" fill="#6595bf"/>
        <path id="Trazado_106152" data-name="Trazado 106152" d="M640.02,6872.668a3.405,3.405,0,0,1-.313-1.046,3.773,3.773,0,0,1-2.945,1.263,4.14,4.14,0,0,1-2.842-.993,3.194,3.194,0,0,1-1.127-2.5,3.3,3.3,0,0,1,1.375-2.848,6.805,6.805,0,0,1,3.975-1.007h1.437v-.668a1.928,1.928,0,0,0-.415-1.293,1.637,1.637,0,0,0-1.312-.487,1.85,1.85,0,0,0-1.234.379,1.282,1.282,0,0,0-.448,1.035h-3.118a3.135,3.135,0,0,1,.627-1.875,4.157,4.157,0,0,1,1.768-1.354,6.456,6.456,0,0,1,2.567-.492,5.093,5.093,0,0,1,3.425,1.085,3.794,3.794,0,0,1,1.267,3.048v5.059a5.583,5.583,0,0,0,.464,2.513v.184Zm-2.586-2.167a2.669,2.669,0,0,0,1.273-.308,2.027,2.027,0,0,0,.862-.825v-2.011h-1.161q-2.34,0-2.491,1.619l-.012.183a1.249,1.249,0,0,0,.41.961,1.6,1.6,0,0,0,1.126.382Z" transform="translate(-600.937 -6856.378)" fill="#6595bf"/>
        <path id="Trazado_106153" data-name="Trazado 106153" d="M652.445,6873.833h-3.113v-12.016l-3.722,1.149v-2.534l6.505-2.331h.333Z" transform="translate(-595.339 -6857.543)" fill="#6595bf"/>
      </g>
    </g>
  </g>
</svg>
