<svg xmlns="http://www.w3.org/2000/svg" width="371" height="308" viewBox="0 0 371 308">
  <g id="Grupo_59422" data-name="Grupo 59422" transform="translate(-531.452 -7621.71)">
    <rect id="Rectángulo_5971" data-name="Rectángulo 5971" width="371" height="308" transform="translate(531.452 7621.71)" fill="#344154" opacity="0"/>
    <g id="Grupo_59421" data-name="Grupo 59421" transform="translate(570.309 7639.799)">
      <g id="freepik--Character--inject-99" transform="translate(104.777)">
        <path id="Trazado_106364" data-name="Trazado 106364" d="M711.517,7819.1l-15.059-1.747v-86.383H683.548v86.383l-15.059,1.747-1.31,4.282h45.646Z" transform="translate(-609.633 -7559.98)" fill="#344154"/>
        <path id="Trazado_106365" data-name="Trazado 106365" d="M711.517,7819.1l-15.059-1.747v-86.383H683.548v86.383l-15.059,1.747-1.31,4.282h45.646Z" transform="translate(-609.633 -7559.98)" fill="#d9a171" opacity="0.4" style="isolation: isolate"/>
        <path id="Trazado_106366" data-name="Trazado 106366" d="M685.618,7652.633h67.095a364.031,364.031,0,0,0-17.318,109.822H668.3A364.056,364.056,0,0,1,685.618,7652.633Z" transform="translate(-609.09 -7597.879)" fill="#d9a171"/>
        <path id="Trazado_106367" data-name="Trazado 106367" d="M685.618,7652.633h67.095a364.031,364.031,0,0,0-17.318,109.822H668.3A364.056,364.056,0,0,1,685.618,7652.633Z" transform="translate(-609.09 -7597.879)" opacity="0.3" style="isolation: isolate"/>
        <path id="Trazado_106368" data-name="Trazado 106368" d="M682.872,7652.633h67.095a364.057,364.057,0,0,0-17.328,109.823H665.544a363.676,363.676,0,0,1,17.328-109.822Z" transform="translate(-610.424 -7597.879)" fill="#d9a171"/>
        <path id="Trazado_106369" data-name="Trazado 106369" d="M734.1,7738.164H639.123c3.995-8.689,11.258-14.014,19.1-14.014H727.66Z" transform="translate(-623.206 -7563.278)" fill="#d9a171"/>
        <path id="Trazado_106370" data-name="Trazado 106370" d="M731.091,7738.164H685.232c3.982-8.689,11.246-14.014,19.1-14.014h16.231C728.4,7724.149,732.273,7728.677,731.091,7738.164Z" transform="translate(-600.898 -7563.278)" fill="#d9a171"/>
        <path id="Trazado_106371" data-name="Trazado 106371" d="M731.091,7738.164H685.232c3.982-8.689,11.246-14.014,19.1-14.014h16.231C728.4,7724.149,732.273,7728.677,731.091,7738.164Z" transform="translate(-600.898 -7563.278)" opacity="0.3" style="isolation: isolate"/>
        <path id="Trazado_106372" data-name="Trazado 106372" d="M657.644,7793.6l-8.594,1.13-5.591-19.469,8.594-1.13Z" transform="translate(-621.108 -7539.096)" fill="#ffc3bd"/>
        <path id="Trazado_106373" data-name="Trazado 106373" d="M652.025,7786.916l9.584-1.267a.626.626,0,0,1,.714.5l1.471,7.568a1.533,1.533,0,0,1-1.3,1.727c-3.365.383-4.995.394-9.234.957-2.609.342-11.587,1.587-15.218,1.609s-3.451-3.561-1.96-3.919c6.891-1.484,12.354-4.261,14.526-6.465a2.461,2.461,0,0,1,1.417-.71Z" transform="translate(-625.162 -7533.528)" fill="#344154"/>
        <path id="Trazado_106374" data-name="Trazado 106374" d="M652.053,7774.141l-8.594,1.128,2.886,10.032,8.594-1.129Z" transform="translate(-621.108 -7539.094)" opacity="0.2" style="isolation: isolate"/>
        <path id="Trazado_106375" data-name="Trazado 106375" d="M693.123,7703.128s-67.365,4.825-64.646,29.5c3.908,35.475,19.171,82.053,19.171,82.053L663.271,7812s-6.539-42.952-10.011-70.643c16.806-6.964,62.388-.287,67.734-14.8a47.534,47.534,0,0,0,2.013-23.43Z" transform="translate(-628.396 -7573.451)" fill="#344154"/>
        <path id="Trazado_106376" data-name="Trazado 106376" d="M653.92,7716.972s1.64,7.338,2.758,15.3h-.148l-1.726.268-.89.17-.991.182a39.366,39.366,0,0,0-4.006,1.064l-.905.3c-.393.128-.778.288-1.14.438.395,3.194,1.758,7.358,1.769,11C633.659,7727.975,646.013,7716.972,653.92,7716.972Z" transform="translate(-622.013 -7566.751)" opacity="0.3" style="isolation: isolate"/>
        <path id="Trazado_106377" data-name="Trazado 106377" d="M660.332,7781.6,642,7784.006l-2.471-6.593,18.352-4.113Z" transform="translate(-623.008 -7539.5)" fill="#d9a171"/>
        <path id="Trazado_106378" data-name="Trazado 106378" d="M645.259,7788.418a11.019,11.019,0,0,0,2.248-.607.216.216,0,0,0,.138-.171.2.2,0,0,0-.117-.191c-.3-.16-2.94-1.5-3.941-.948a.788.788,0,0,0-.393.626,1.068,1.068,0,0,0,.393,1.066,2.349,2.349,0,0,0,1.672.227Zm1.662-.821c-1.491.5-2.631.608-3.089.257a.718.718,0,0,1-.234-.694.364.364,0,0,1,.181-.308,5.674,5.674,0,0,1,3.143.787Z" transform="translate(-621.248 -7533.177)" fill="#d9a171"/>
        <path id="Trazado_106379" data-name="Trazado 106379" d="M646.872,7788.585a.126.126,0,0,0,.085,0,.213.213,0,0,0,.1-.18c0-.1-.138-2.6-1.119-3.314a.979.979,0,0,0-.89-.17.776.776,0,0,0-.648.7c-.076.959,1.448,2.588,2.364,2.982a.174.174,0,0,0,.113-.019Zm-1.632-3.324a.641.641,0,0,1,.457.118,4.531,4.531,0,0,1,.917,2.651c-.831-.532-1.865-1.781-1.812-2.407,0-.127.053-.276.341-.339Z" transform="translate(-620.657 -7533.897)" fill="#d9a171"/>
        <path id="Trazado_106380" data-name="Trazado 106380" d="M691.492,7659.238c-.742,3.345-1.65,6.455-2.555,9.646s-1.929,6.314-3.036,9.435-2.269,6.24-3.536,9.348-2.684,6.156-4.207,9.19l-.277.545-.105.159a14.244,14.244,0,0,1-3.366,3.387,26.965,26.965,0,0,1-3.143,1.97,45,45,0,0,1-6.06,2.6c-2.012.7-4.025,1.29-6.037,1.79a60.147,60.147,0,0,1-6.146,1.188l-1.991-6.178,5.058-2.833c1.672-.958,3.324-1.908,4.9-2.886a49.73,49.73,0,0,0,4.408-2.993,13.58,13.58,0,0,0,1.694-1.484c.436-.458.755-.9.692-.948l-.383.7c1.16-2.833,2.226-5.741,3.264-8.681s1.971-5.921,2.9-8.936,1.812-6.026,2.671-9.062,1.7-6.124,2.5-9.051Z" transform="translate(-617.444 -7596.18)" fill="#ffc3bd"/>
        <path id="Trazado_106381" data-name="Trazado 106381" d="M672.639,7658.653a81.807,81.807,0,0,0-11.722,19.395l18.426,11.087c5.324-6.486,11.949-23.622,12.215-29.406C691.979,7650.848,680.221,7649.953,672.639,7658.653Z" transform="translate(-612.662 -7597.906)" fill="#d9a171"/>
        <path id="Trazado_106382" data-name="Trazado 106382" d="M672.639,7658.653a81.807,81.807,0,0,0-11.722,19.395l18.426,11.087c5.324-6.486,11.949-23.622,12.215-29.406C691.979,7650.848,680.221,7649.953,672.639,7658.653Z" transform="translate(-612.662 -7597.906)" fill="#aed3f2" opacity="0.5" style="isolation: isolate"/>
        <path id="Trazado_106383" data-name="Trazado 106383" d="M675.834,7662.529c-4.015,3.375-6.87,10.387-8.116,17.213l8.339,5.014a63.33,63.33,0,0,0,7.925-14.773C682.107,7664.268,679.381,7659.546,675.834,7662.529Z" transform="translate(-609.372 -7593.537)" fill="#d9a171" opacity="0.5" style="isolation: isolate"/>
        <path id="Trazado_106384" data-name="Trazado 106384" d="M675.555,7797.289H666.9l-3.972-20.055h8.658Z" transform="translate(-611.692 -7537.595)" fill="#ffc3bd"/>
        <path id="Trazado_106385" data-name="Trazado 106385" d="M671.331,7789.328h9.735a.619.619,0,0,1,.638.595l.469,7.7a1.534,1.534,0,0,1-1.512,1.544c-3.386-.062-5-.254-9.287-.254-2.631,0-11.554.267-15.187.267s-3.536-3.59-1.991-3.919c6.9-1.461,13.206-3.473,15.645-5.39a2.438,2.438,0,0,1,1.49-.542Z" transform="translate(-616.404 -7531.744)" fill="#344154"/>
        <path id="Trazado_106386" data-name="Trazado 106386" d="M671.582,7777.233h-8.658l2.055,10.342h8.658Z" transform="translate(-611.691 -7537.595)" opacity="0.2" style="isolation: isolate"/>
        <path id="Trazado_106387" data-name="Trazado 106387" d="M701.615,7703.127s-57.085,4.823-55.68,29.615c1.534,27.154,23.515,88.194,23.515,88.194H685.31s-7.179-55.23-10.651-82.879c16.093,0,49.48,3.036,54.827-11.479a42.612,42.612,0,0,0,1.524-23Z" transform="translate(-619.923 -7573.451)" fill="#344154"/>
        <path id="Trazado_106388" data-name="Trazado 106388" d="M679.754,7785.069l-19.021.861-1.47-8.16,19.905.063Z" transform="translate(-613.462 -7537.336)" fill="#d9a171"/>
        <path id="Trazado_106389" data-name="Trazado 106389" d="M663.974,7791.063a11.355,11.355,0,0,0,2.312-.308.2.2,0,0,0,.148-.162.188.188,0,0,0-.085-.2c-.277-.191-2.727-1.874-3.78-1.459a.769.769,0,0,0-.469.575,1.069,1.069,0,0,0,.255,1.065,2.31,2.31,0,0,0,1.618.49Zm1.758-.608c-1.555.31-2.695.268-3.1-.137a.74.74,0,0,1-.138-.724.371.371,0,0,1,.222-.288c.565-.213,2,.511,3.015,1.15Z" transform="translate(-612.114 -7531.967)" fill="#d9a171"/>
        <path id="Trazado_106390" data-name="Trazado 106390" d="M665.576,7791.409h.085a.19.19,0,0,0,.107-.161c0-.1.2-2.6-.671-3.439a1.076,1.076,0,0,0-.852-.287.792.792,0,0,0-.742.619,4.4,4.4,0,0,0,1.96,3.265A.19.19,0,0,0,665.576,7791.409Zm-1.187-3.516a.619.619,0,0,1,.436.181,4.49,4.49,0,0,1,.576,2.748c-.757-.628-1.619-2-1.491-2.62,0-.118.1-.266.393-.3Z" transform="translate(-611.411 -7532.621)" fill="#d9a171"/>
        <path id="Trazado_106391" data-name="Trazado 106391" d="M656.956,7688.213l-9.68-2.429.681,10.352s9.585,0,10.394-2.819Z" transform="translate(-619.262 -7581.839)" fill="#ffc3bd"/>
        <path id="Trazado_106392" data-name="Trazado 106392" d="M642.317,7690.832l2.279,6.5,5.762-1.187-.681-10.353Z" transform="translate(-621.661 -7581.838)" fill="#ffc3bd"/>
        <path id="Trazado_106393" data-name="Trazado 106393" d="M673.011,7728.706h46.307c.331-4.133-.628-17.594.086-34.73a219.866,219.866,0,0,1,4.6-37.767c.214-.935.426-1.852.65-2.788,0,0-2.353-.48-5.719-.969-2.791-.416-6.294-.831-9.723-.992a171.07,171.07,0,0,0-19.681,0c-3.026.277-5.986.777-8.339,1.235-3.015.607-4.793,1.129-4.793,1.129S664.96,7680.013,673.011,7728.706Z" transform="translate(-608.2 -7598.583)" fill="#d9a171"/>
        <path id="Trazado_106394" data-name="Trazado 106394" d="M673.011,7728.706h46.307c.331-4.133-.628-17.594.086-34.73a219.866,219.866,0,0,1,4.6-37.767c.214-.935.426-1.852.65-2.788,0,0-2.353-.48-5.719-.969-2.791-.416-6.294-.831-9.723-.992a171.07,171.07,0,0,0-19.681,0c-3.026.277-5.986.777-8.339,1.235-3.015.607-4.793,1.129-4.793,1.129S664.96,7680.013,673.011,7728.706Z" transform="translate(-608.2 -7598.583)" fill="#aed3f2" opacity="0.5" style="isolation: isolate"/>
        <path id="Trazado_106395" data-name="Trazado 106395" d="M704.995,7692.368a220.14,220.14,0,0,1,4.6-37.777c-3.089-.265-8.382,0-9.254,5.046C699.393,7665,699.319,7677.543,704.995,7692.368Z" transform="translate(-593.824 -7596.965)" fill="#d9a171" opacity="0.5" style="isolation: isolate"/>
        <path id="Trazado_106396" data-name="Trazado 106396" d="M717.545,7656.731c.445.82.755,1.438,1.064,2.129s.65,1.384.958,2.13q.927,2.076,1.758,4.186a85.089,85.089,0,0,1,2.864,8.658,74.231,74.231,0,0,1,1.907,9.051,54.065,54.065,0,0,1,.553,9.522v.916a10.333,10.333,0,0,1-.947,3.561,11.734,11.734,0,0,1-2.333,3.291,18.988,18.988,0,0,1-4.867,3.427,41.919,41.919,0,0,1-9.085,3.2,79.408,79.408,0,0,1-8.839,1.585,83.907,83.907,0,0,1-8.861.642l-.872-6.445a163.317,163.317,0,0,0,15.559-5.218,38.646,38.646,0,0,0,6.636-3.333,7.576,7.576,0,0,0,1.916-1.694c.14-.2.14-.308.065-.213a.88.88,0,0,0-.129.278,1.167,1.167,0,0,0-.052.211v-.158a62.691,62.691,0,0,0-3.057-14.986q-1.215-3.749-2.706-7.456c-.479-1.235-.99-2.47-1.522-3.684l-.821-1.8-.777-1.672Z" transform="translate(-598.183 -7595.897)" fill="#ffc3bd"/>
        <path id="Trazado_106397" data-name="Trazado 106397" d="M710.787,7652.877c-8.435-2.662-13.845,4.079-11.5,15.762s5.326,16.039,5.326,16.039l19.724-2.79C722.72,7670.43,719.413,7655.6,710.787,7652.877Z" transform="translate(-594.365 -7598.04)" fill="#d9a171"/>
        <path id="Trazado_106398" data-name="Trazado 106398" d="M710.787,7652.877c-8.435-2.662-13.845,4.079-11.5,15.762s5.326,16.039,5.326,16.039l19.724-2.79C722.72,7670.43,719.413,7655.6,710.787,7652.877Z" transform="translate(-594.365 -7598.04)" fill="#aed3f2" opacity="0.5" style="isolation: isolate"/>
        <path id="Trazado_106399" data-name="Trazado 106399" d="M702.6,7636.49l-5.262,4.366-7.177,6.006a23.678,23.678,0,0,1,.457,2.9c.384,3.9-.617,7.457-6.336,8.787,0,0-5.638,5.262,5.622,5.42s13.845-5.323,13.845-5.323C699.5,7654.382,701.137,7642.827,702.6,7636.49Z" transform="translate(-602.043 -7605.69)" fill="#ffc3bd"/>
        <path id="Trazado_106400" data-name="Trazado 106400" d="M700.867,7649.273a35.525,35.525,0,0,1-13.633,8.459,6.307,6.307,0,0,1,5.07,5.954c5.57-1.662,12.183-10.034,12-11.588a35.38,35.38,0,0,1-3.439-2.825Z" transform="translate(-599.93 -7599.506)" fill="#aed3f2"/>
        <path id="Trazado_106401" data-name="Trazado 106401" d="M687.477,7650.442s-5.262,4.411,2.5,6.72a7.078,7.078,0,0,0-6.027,5.324,9.305,9.305,0,0,1-.852-11.352,34.257,34.257,0,0,0,4.378-.691Z" transform="translate(-602.675 -7598.938)" fill="#aed3f2"/>
        <path id="Trazado_106402" data-name="Trazado 106402" d="M687.78,7645.421a23.7,23.7,0,0,1,.457,2.9c2.671-.531,6.253-3.386,6.625-6.111a13.006,13.006,0,0,0,.095-2.739Z" transform="translate(-599.666 -7604.247)" opacity="0.2" style="isolation: isolate"/>
        <path id="Trazado_106403" data-name="Trazado 106403" d="M683.922,7623.663c-3.536,2.929-2.9,14.261.5,13.217S689.759,7618.85,683.922,7623.663Z" transform="translate(-602.677 -7612.31)" fill="#344154"/>
        <path id="Trazado_106404" data-name="Trazado 106404" d="M705.987,7634.89c-1.831,8.413-2.47,13.419-7.455,17.264a11.2,11.2,0,0,1-18.1-8.062c-.65-7.84,2.46-20.29,11.311-22.674a11.331,11.331,0,0,1,14.244,13.472Z" transform="translate(-603.262 -7613.205)" fill="#ffc3bd"/>
        <path id="Trazado_106405" data-name="Trazado 106405" d="M703.21,7643.187a8.21,8.21,0,0,1-.49-7.326c-1.458-1.16-2.918-4.91-1.789-6.39-2.853-.191-17.626,3.355-20.565-7.253a13.727,13.727,0,0,0,4.622,0s-3-5,2.322-6.486c.778,2.522,7.2,2.778,10.387,2.661,6.529-.266,13.973,2.45,10.959,7.519C713.423,7628.012,714.2,7637.277,703.21,7643.187Z" transform="translate(-603.253 -7615.732)" fill="#344154"/>
        <path id="Trazado_106406" data-name="Trazado 106406" d="M698.632,7623.511s3.264.683,2.631-3.472C703.957,7622.318,702.232,7626.483,698.632,7623.511Z" transform="translate(-594.415 -7613.648)" fill="#344154"/>
        <path id="Trazado_106407" data-name="Trazado 106407" d="M700.885,7637.218a7.661,7.661,0,0,1-4.622,2.853c-2.386.429-3.116-1.767-2.055-3.885.948-1.917,3.334-4.441,5.527-3.9S702.3,7635.385,700.885,7637.218Z" transform="translate(-596.786 -7607.759)" fill="#ffc3bd"/>
        <path id="Trazado_106408" data-name="Trazado 106408" d="M702.643,7632.233a26.513,26.513,0,0,1-4.26,8.594,9.994,9.994,0,0,1-8.69,3.95c-3.055-.052-2.588-4.258-2.588-4.258l-1.5-.341s.16,5.208-2.819,3a7.955,7.955,0,0,1-1.672-3.2,10.33,10.33,0,0,1-.531-2.852h0c-.726,1.149-.991,6.251.116,8.678a8.2,8.2,0,0,0,4.772,3.771,18.243,18.243,0,0,0,11.194-.392c5.43-2.132,6.218-7.371,6.389-10.354a48.533,48.533,0,0,1,1.065-6.56Z" transform="translate(-603.454 -7607.748)" fill="#344154"/>
        <path id="Trazado_106409" data-name="Trazado 106409" d="M688.451,7631.3c-.107.693-.554,1.2-1.012,1.149s-.734-.66-.628-1.335.564-1.213,1.064-1.162S688.558,7630.617,688.451,7631.3Z" transform="translate(-600.145 -7608.852)" fill="#344154"/>
        <path id="Trazado_106410" data-name="Trazado 106410" d="M683.168,7630.669c-.107.693-.553,1.215-1.012,1.163s-.735-.661-.628-1.354.564-1.2,1.012-1.15S683.278,7629.979,683.168,7630.669Z" transform="translate(-602.701 -7609.155)" fill="#344154"/>
        <path id="Trazado_106411" data-name="Trazado 106411" d="M685.347,7630.417a22.37,22.37,0,0,1-3.281,4.931,3.364,3.364,0,0,0,2.791.67Z" transform="translate(-602.43 -7608.626)" fill="#ed847e"/>
        <path id="Trazado_106412" data-name="Trazado 106412" d="M684.226,7636.994a5.974,5.974,0,0,0,4.569-1.187.207.207,0,0,0,.071-.139.2.2,0,0,0-.048-.147.2.2,0,0,0-.288-.022,5.75,5.75,0,0,1-4.994.937.2.2,0,0,0-.245.15h0a.193.193,0,0,0,.011.147.189.189,0,0,0,.112.1h.015a5.782,5.782,0,0,0,.8.168Z" transform="translate(-601.843 -7606.193)" fill="#344154"/>
        <path id="Trazado_106413" data-name="Trazado 106413" d="M692.085,7628.646a.346.346,0,0,0,.181-.1.4.4,0,0,0,0-.573h0a3.909,3.909,0,0,0-3.44-1.353.4.4,0,0,0-.343.459v.01a.416.416,0,0,0,.479.33,3.194,3.194,0,0,1,2.695,1.065.4.4,0,0,0,.427.157Z" transform="translate(-599.327 -7610.475)" fill="#344154"/>
        <path id="Trazado_106414" data-name="Trazado 106414" d="M680.987,7627.414a.373.373,0,0,0,.374-.075,3.387,3.387,0,0,1,2.917-.787.429.429,0,0,0,.512-.288.416.416,0,0,0-.288-.512h0a4.254,4.254,0,0,0-3.663.958.4.4,0,0,0-.073.553l.019.023a.42.42,0,0,0,.2.127Z" transform="translate(-603.098 -7610.927)" fill="#344154"/>
        <path id="Trazado_106415" data-name="Trazado 106415" d="M694.551,7687.378h-8l3.877,8.52s7.864-.117,7.455-4.164Z" transform="translate(-600.26 -7581.069)" fill="#ffc3bd"/>
        <path id="Trazado_106416" data-name="Trazado 106416" d="M681.413,7692.867l4.1,5.528,7.4-2.5-3.877-8.521Z" transform="translate(-602.746 -7581.072)" fill="#ffc3bd"/>
      </g>
      <g id="freepik--Desk--inject-99" transform="translate(0 31.014)">
        <rect id="Rectángulo_5972" data-name="Rectángulo 5972" width="3.888" height="148.314" transform="translate(258.357 89.641)" fill="#d9a171"/>
        <rect id="Rectángulo_5973" data-name="Rectángulo 5973" width="3.888" height="148.314" transform="translate(281.319 89.641)" fill="#d9a171"/>
        <rect id="Rectángulo_5974" data-name="Rectángulo 5974" width="3.888" height="148.314" transform="translate(281.319 89.641)" opacity="0.2" style="isolation: isolate"/>
        <rect id="Rectángulo_5975" data-name="Rectángulo 5975" width="3.888" height="148.314" transform="translate(37.475 89.641)" fill="#d9a171"/>
        <path id="Trazado_106417" data-name="Trazado 106417" d="M583.038,7697.046h3.888V7796.7l-3.888-8.7Z" transform="translate(-545.563 -7607.404)" opacity="0.2" style="isolation: isolate"/>
        <rect id="Rectángulo_5976" data-name="Rectángulo 5976" width="3.888" height="148.314" transform="translate(14.523 89.641)" fill="#d9a171"/>
        <rect id="Rectángulo_5977" data-name="Rectángulo 5977" width="247.732" height="86.755" transform="translate(14.523 89.641)" fill="#5e6178"/>
        <rect id="Rectángulo_5978" data-name="Rectángulo 5978" width="250.213" height="6.337" transform="translate(12.043 83.304)" fill="#d9a171"/>
        <rect id="Rectángulo_5979" data-name="Rectángulo 5979" width="22.952" height="86.755" transform="translate(262.245 89.641)" fill="#2f313c"/>
        <rect id="Rectángulo_5980" data-name="Rectángulo 5980" width="25.432" height="6.337" transform="translate(262.245 83.316)" fill="#d9a171"/>
        <rect id="Rectángulo_5981" data-name="Rectángulo 5981" width="25.432" height="6.337" transform="translate(262.245 83.316)" opacity="0.2" style="isolation: isolate"/>
        <rect id="Rectángulo_5982" data-name="Rectángulo 5982" width="270.683" height="4.41" transform="translate(14.523 89.652)" opacity="0.2" style="isolation: isolate"/>
        <path id="Trazado_106418" data-name="Trazado 106418" d="M704.977,7702.919h-92.07a6.764,6.764,0,0,1-6.667-6.392l-2.427-53.505a6.058,6.058,0,0,1,5.72-6.38c.12-.006.24-.01.36-.008h92.07a6.763,6.763,0,0,1,6.656,6.388l2.44,53.507a6.05,6.05,0,0,1-5.7,6.38C705.233,7702.91,705.105,7702.919,704.977,7702.919Z" transform="translate(-535.516 -7636.634)" fill="#d9a171"/>
        <path id="Trazado_106419" data-name="Trazado 106419" d="M704.146,7702.919h-92.07a6.763,6.763,0,0,1-6.668-6.392l-2.427-53.505a6.058,6.058,0,0,1,5.72-6.38c.12-.006.24-.01.361-.008h92.07a6.761,6.761,0,0,1,6.656,6.389l2.439,53.506a6.048,6.048,0,0,1-5.7,6.38C704.4,7702.91,704.274,7702.919,704.146,7702.919Z" transform="translate(-535.919 -7636.634)" fill="#d9a171"/>
        <path id="Trazado_106420" data-name="Trazado 106420" d="M704.146,7702.919h-92.07a6.763,6.763,0,0,1-6.668-6.392l-2.427-53.505a6.058,6.058,0,0,1,5.72-6.38c.12-.006.24-.01.361-.008h92.07a6.761,6.761,0,0,1,6.656,6.389l2.439,53.506a6.048,6.048,0,0,1-5.7,6.38C704.4,7702.91,704.274,7702.919,704.146,7702.919Z" transform="translate(-535.919 -7636.634)" fill="#aed3f2" opacity="0.2" style="isolation: isolate"/>
        <rect id="Rectángulo_5983" data-name="Rectángulo 5983" width="17.583" height="32.334" transform="translate(112.877 33.953)" fill="#d9a171"/>
        <path id="Trazado_106421" data-name="Trazado 106421" d="M636.014,7657.189l-7.765,52.792H647.27l7.765-52.792Zm11.172,16.774-1.257,8.52a2.662,2.662,0,0,1-2.631,2.279h-2.865a2.669,2.669,0,0,1-2.671-2.679,2.712,2.712,0,0,1,.026-.378l1.257-8.52a2.663,2.663,0,0,1,2.631-2.28h2.865a2.68,2.68,0,0,1,2.644,3.058Z" transform="translate(-523.69 -7626.688)" fill="#d9a171"/>
        <path id="Trazado_106422" data-name="Trazado 106422" d="M636.014,7657.189l-7.765,52.792H647.27l7.765-52.792Zm11.172,16.774-1.257,8.52a2.662,2.662,0,0,1-2.631,2.279h-2.865a2.669,2.669,0,0,1-2.671-2.679,2.712,2.712,0,0,1,.026-.378l1.257-8.52a2.663,2.663,0,0,1,2.631-2.28h2.865a2.68,2.68,0,0,1,2.644,3.058Z" transform="translate(-523.69 -7626.688)" fill="#aed3f2" opacity="0.2" style="isolation: isolate"/>
        <path id="Trazado_106423" data-name="Trazado 106423" d="M660.563,7690.169H627.271l-4.089,3.877h46.232Z" transform="translate(-526.141 -7610.73)" fill="#d9a171"/>
        <path id="Trazado_106424" data-name="Trazado 106424" d="M660.563,7690.169H627.271l-4.089,3.877h46.232Z" transform="translate(-526.141 -7610.73)" fill="#aed3f2" opacity="0.2" style="isolation: isolate"/>
        <path id="Trazado_106425" data-name="Trazado 106425" d="M582.51,7702.218c-1.874-1.063-1.236-11.31-.415-17.167,1-7.082,3.983-19.617,13.461-26.56,4.517-3.312,8.83-6.124,9.585-9.689,1.384,3.194,9.255,25.817-1.97,35.986C593.671,7693.381,586.632,7691.464,582.51,7702.218Z" transform="translate(-546.409 -7630.749)" fill="#d9a171"/>
        <g id="Grupo_59420" data-name="Grupo 59420" transform="translate(34.881 18.053)" opacity="0.2">
          <path id="Trazado_106426" data-name="Trazado 106426" d="M582.51,7702.218c-1.874-1.063-1.236-11.31-.415-17.167,1-7.082,3.983-19.617,13.461-26.56,4.517-3.312,8.83-6.124,9.585-9.689,1.384,3.194,9.255,25.817-1.97,35.986C593.671,7693.381,586.632,7691.464,582.51,7702.218Z" transform="translate(-581.29 -7648.801)"/>
        </g>
        <path id="Trazado_106427" data-name="Trazado 106427" d="M596.374,7701.029c2.184-1.224-.319-13.163-2.321-19.957-2.419-8.222-8.234-22.75-21.3-30.694-6.2-3.781-12.089-6.974-13.651-11.14-1.214,3.7-5.112,32.8,10.649,44.476C583.137,7693.586,589.4,7688.594,596.374,7701.029Z" transform="translate(-557.782 -7635.373)" fill="#d9a171"/>
        <path id="Trazado_106428" data-name="Trazado 106428" d="M593.371,7694.826a.308.308,0,0,1-.288-.213,184.7,184.7,0,0,0-12.227-29.191c-7.987-15.708-18.733-18.265-18.844-18.286a.3.3,0,0,1-.215-.345h0a.289.289,0,0,1,.34-.224h0c.117,0,11.108,2.62,19.235,18.605a184.845,184.845,0,0,1,12.215,29.3.3.3,0,0,1-.2.362Z" transform="translate(-555.843 -7631.831)" fill="#aed3f2"/>
        <path id="Trazado_106429" data-name="Trazado 106429" d="M560.27,7655.246a.285.285,0,0,1-.2-.075.3.3,0,0,1,0-.414,13.109,13.109,0,0,1,15.059-2.185.275.275,0,0,1,.135.368l-.007.017a.278.278,0,0,1-.362.148l-.021-.009a12.524,12.524,0,0,0-14.393,2.129.318.318,0,0,1-.209.021Z" transform="translate(-556.717 -7629.625)" fill="#aed3f2"/>
        <path id="Trazado_106430" data-name="Trazado 106430" d="M567.868,7669.428a.243.243,0,0,1-.257-.394h0c0-.095,5.324-8.882,13.132-6.731a.3.3,0,1,1-.16.564c-7.36-2.033-12.418,6.39-12.464,6.464a.317.317,0,0,1-.251.1Z" transform="translate(-553.057 -7624.377)" fill="#aed3f2"/>
        <path id="Trazado_106431" data-name="Trazado 106431" d="M573.6,7658.32a.308.308,0,0,1-.288-.214,4.391,4.391,0,0,1,.277-3.024,2.244,2.244,0,0,1,1.533-1.012.28.28,0,0,1,.337.2v.024a.3.3,0,0,1-.224.351,1.582,1.582,0,0,0-1.15.741,3.893,3.893,0,0,0-.214,2.568.276.276,0,0,1-.019.211.283.283,0,0,1-.163.135h-.019Z" transform="translate(-550.341 -7628.201)" fill="#aed3f2"/>
        <path id="Trazado_106432" data-name="Trazado 106432" d="M602.22,7677.208H575.264l2.481,23.079h21.993Z" transform="translate(-549.324 -7617.003)" fill="#d9a171"/>
        <path id="Trazado_106433" data-name="Trazado 106433" d="M602.22,7677.208H575.264l2.481,23.079h21.993Z" transform="translate(-549.324 -7617.003)" fill="#aed3f2" opacity="0.7" style="isolation: isolate"/>
        <path id="Trazado_106434" data-name="Trazado 106434" d="M742.819,7679.5v-1.438a1.162,1.162,0,0,0-1.16-1.161H727.334a1.16,1.16,0,0,0-1.162,1.161v22.366h16.647v-2.6c3.62,0,6.465-4.026,6.465-9.17S746.451,7679.5,742.819,7679.5Zm0,15.975v-13.609c2.236,0,4.132,3.13,4.132,6.837s-1.886,6.837-4.132,6.837Z" transform="translate(-476.314 -7617.152)" fill="#d9a171"/>
        <path id="Trazado_106435" data-name="Trazado 106435" d="M742.819,7679.5v-1.438a1.162,1.162,0,0,0-1.16-1.161H727.334a1.16,1.16,0,0,0-1.162,1.161v22.366h16.647v-2.6c3.62,0,6.465-4.026,6.465-9.17S746.451,7679.5,742.819,7679.5Zm0,15.975v-13.609c2.236,0,4.132,3.13,4.132,6.837s-1.886,6.837-4.132,6.837Z" transform="translate(-476.314 -7617.152)" fill="#aed3f2" opacity="0.2" style="isolation: isolate"/>
        <path id="Trazado_106436" data-name="Trazado 106436" d="M738.018,7680.245h-1.9l1.9,5.251Z" transform="translate(-471.5 -7615.534)" opacity="0.3" style="isolation: isolate"/>
        <path id="Trazado_106437" data-name="Trazado 106437" d="M738.018,7691.031h-1.9l1.9.874Z" transform="translate(-471.5 -7610.315)" opacity="0.3" style="isolation: isolate"/>
      </g>
    </g>
  </g>
</svg>
