<svg id="conversacion" xmlns="http://www.w3.org/2000/svg" width="54.636" height="54.636" viewBox="0 0 54.636 54.636">
  <path id="Trazado_1031566" data-name="Trazado 1031566" d="M39.452,184H16.4a6.4,6.4,0,0,0-6.4,6.4v16.433a6.4,6.4,0,0,0,6.4,6.4h6.934l-.1.008,4.687,4.687,0-4.7H39.452a6.4,6.4,0,0,0,6.4-6.4V190.4A6.4,6.4,0,0,0,39.452,184Z" transform="translate(-8.933 -164.365)" fill="#c7eaff"/>
  <path id="Trazado_1031567" data-name="Trazado 1031567" d="M18.995,210.068a1.067,1.067,0,0,1-.755-.313l-4.383-4.383H7.47A7.478,7.478,0,0,1,0,197.9V181.47A7.478,7.478,0,0,1,7.47,174H18.247a1.067,1.067,0,0,1,0,2.134H7.47a5.342,5.342,0,0,0-5.336,5.336V197.9a5.342,5.342,0,0,0,5.336,5.336H14.4a1.067,1.067,0,0,1,.979.641l2.547,2.547v-2.122A1.067,1.067,0,0,1,19,203.239H30.519a5.342,5.342,0,0,0,5.336-5.336V190.54a1.067,1.067,0,1,1,2.134,0V197.9a7.478,7.478,0,0,1-7.47,7.47H20.064l0,3.629a1.067,1.067,0,0,1-1.067,1.066Z" transform="translate(0 -155.432)"/>
  <path id="Trazado_1031568" data-name="Trazado 1031568" d="M223.144,10h-2.7A14.443,14.443,0,0,0,206,24.443h0a14.443,14.443,0,0,0,14.443,14.443h2.7a14.439,14.439,0,0,0,4.248-.635l4.433,4.43V35.986a14.42,14.42,0,0,0,5.762-11.544h0A14.443,14.443,0,0,0,223.144,10Z" transform="translate(-184.018 -8.933)" fill="#ffbc53"/>
  <path id="Trazado_1031569" data-name="Trazado 1031569" d="M222.891,34.815a1.067,1.067,0,0,1-.755-.312l-3.99-3.987a15.54,15.54,0,0,1-3.937.5h-2.7a15.51,15.51,0,1,1,0-31.02h2.7a15.527,15.527,0,0,1,15.51,15.51,15.343,15.343,0,0,1-1.685,7.038,15.658,15.658,0,0,1-4.077,5.026v6.174a1.067,1.067,0,0,1-1.067,1.067Zm-4.433-6.565a1.067,1.067,0,0,1,.754.312l2.611,2.61V27.054a1.067,1.067,0,0,1,.425-.852,13.376,13.376,0,0,0-8.038-24.067h-2.7a13.376,13.376,0,0,0,0,26.751h2.7a13.38,13.38,0,0,0,3.934-.588A1.066,1.066,0,0,1,218.458,28.25Z" transform="translate(-175.085)"/>
  <path id="Trazado_1031570" data-name="Trazado 1031570" d="M318.98,82.517a1.067,1.067,0,0,1-1.067-1.067V78.887a2.019,2.019,0,0,1,1.591-1.979,2.384,2.384,0,1,0-2.907-2.326,1.067,1.067,0,1,1-2.134,0,4.534,4.534,0,0,1,1.436-3.3,4.518,4.518,0,1,1,4.149,7.694V81.45A1.067,1.067,0,0,1,318.98,82.517Z" transform="translate(-280.906 -62.587)"/>
  <path id="Trazado_1031571" data-name="Trazado 1031571" d="M347.867,208.464a1.066,1.066,0,1,1,.754-.312A1.074,1.074,0,0,1,347.867,208.464Z" transform="translate(-309.793 -184.312)"/>
  <path id="Trazado_1031572" data-name="Trazado 1031572" d="M77.583,312.134H55.067a1.067,1.067,0,0,1,0-2.134H77.583a1.067,1.067,0,1,1,0,2.134Z" transform="translate(-48.238 -276.92)"/>
  <path id="Trazado_1031573" data-name="Trazado 1031573" d="M266.067,368.134a1.068,1.068,0,1,1,.754-.313A1.075,1.075,0,0,1,266.067,368.134Z" transform="translate(-236.722 -326.944)"/>
  <path id="Trazado_1031574" data-name="Trazado 1031574" d="M73.386,368.134H55.067a1.067,1.067,0,0,1,0-2.134H73.386a1.067,1.067,0,0,1,0,2.134Z" transform="translate(-48.238 -326.944)"/>
  <path id="Trazado_1031575" data-name="Trazado 1031575" d="M70.647,256.134H55.067a1.067,1.067,0,0,1,0-2.134h15.58a1.067,1.067,0,0,1,0,2.134Z" transform="translate(-48.238 -226.896)"/>
</svg>
