<svg xmlns="http://www.w3.org/2000/svg" width="374.077" height="225.02" viewBox="0 0 374.077 225.02">
  <g id="Grupo_1111501" data-name="Grupo 1111501" transform="translate(9780.218 12579.839)">
    <path id="Trazado_900558" data-name="Trazado 900558" d="M354,249.657c0,64.3-129.08,134.53-200.287,134.53S6,313.957,6,249.657s30.043-107.841,135.2-59.088C204.542,219.939,354,185.358,354,249.657Z" transform="translate(-9779.001 -12749.518)" fill="#ddeffd"/>
    <g id="Grupo_1111500" data-name="Grupo 1111500" transform="translate(-9749.218 -12570.975)">
      <g id="freepik--Plant--inject-11" transform="translate(-31 82.799)">
        <path id="Trazado_99212" data-name="Trazado 99212" d="M604.294,4264.778c-12.434,12.169-14.516,31-11.9,47.488.071.372.653.272.653-.085,0-3.753-.116-7.469-.1-11.183l.187-.5a24.757,24.757,0,0,0,8.074-8.673c2.083-4.087,2.9-8.688,4.484-12.955.147-.4-.288-.288-.575-.077-7.56,5.578-9.97,11.579-12.138,19.6a66.7,66.7,0,0,1,1.314-12.488c1.632-7.608,4.864-15.153,10.335-20.8C604.807,4264.9,604.488,4264.561,604.294,4264.778Z" transform="translate(-562.316 -4237.098)" fill="#344154"/>
        <path id="Trazado_99213" data-name="Trazado 99213" d="M583.321,4266.021c2.137.07,3.481,3.489,5.144,4.482a1.606,1.606,0,0,0,2.258-.271c.026-.032.05-.066.073-.1,1.648-2.333-.614-5.146-2.743-6.738,1.554.629,2.783,1.725,4.43,2.043a1.554,1.554,0,0,0,1.95-1.013,1.618,1.618,0,0,0,.047-.19c.723-3.108-3.218-4.538-5.922-4.6,1.313-.918,5.067-3.388,3.069-4.609s-6.426,2.331-7.864,3.482c-2.114,1.718-4.663,4.282-4.733,6.994C578.922,4268.6,581.657,4266.674,583.321,4266.021Z" transform="translate(-539.011 -4236.918)" fill="#ef9548"/>
        <path id="Trazado_99214" data-name="Trazado 99214" d="M583.321,4266.021c2.137.07,3.481,3.489,5.144,4.482a1.606,1.606,0,0,0,2.258-.271c.026-.032.05-.066.073-.1,1.648-2.333-.614-5.146-2.743-6.738,1.554.629,2.783,1.725,4.43,2.043a1.554,1.554,0,0,0,1.95-1.013,1.618,1.618,0,0,0,.047-.19c.723-3.108-3.218-4.538-5.922-4.6,1.313-.918,5.067-3.388,3.069-4.609s-6.426,2.331-7.864,3.482c-2.114,1.718-4.663,4.282-4.733,6.994C578.922,4268.6,581.657,4266.674,583.321,4266.021Z" transform="translate(-539.011 -4236.918)" fill="#ef9548" opacity="0.1" style="isolation: isolate"/>
        <path id="Trazado_99215" data-name="Trazado 99215" d="M585.919,4266.594c2.735-1.243,7.989.552,8.439-.48.9-2.114-3.3-3.552-5.564-3.832,2.09-.567,6.085-1.469,5.968-3.482-.155-2.456-6.131-.34-9.162,1.975-3.816,2.929-3.792,5.75-3.163,6.318C583.307,4267.86,585.469,4266.8,585.919,4266.594Z" transform="translate(-542.246 -4236.972)" fill="#ef9548"/>
        <path id="Trazado_99216" data-name="Trazado 99216" d="M608.066,4263.552c12.884,11.656,15.682,30.422,13.692,47-.055.373-.637.295-.653-.056-.14-3.752-.171-7.474-.319-11.181-.078-.164-.139-.319-.209-.49-3.334-2.229-6.42-4.778-8.4-8.362-2.23-4-3.225-8.548-4.973-12.767-.163-.4.28-.3.575-.1,7.771,5.285,10.4,11.191,12.877,19.117a66.777,66.777,0,0,0-1.795-12.435c-1.919-7.543-5.44-14.959-11.113-20.391A.231.231,0,0,1,608.066,4263.552Z" transform="translate(-594.412 -4237.076)" fill="#344154"/>
        <path id="Trazado_99217" data-name="Trazado 99217" d="M631.071,4264.886c-2.13.155-3.341,3.621-4.965,4.663a1.609,1.609,0,0,1-2.271-.144,1.69,1.69,0,0,1-.107-.137c-1.733-2.237.419-5.167,2.486-6.838-1.5.685-2.72,1.834-4.344,2.207a1.554,1.554,0,0,1-1.994-.924,1.47,1.47,0,0,1-.057-.2c-.84-3.107,3.046-4.662,5.743-4.833-1.345-.856-5.191-3.194-3.241-4.484s6.512,2.074,8,3.186c2.176,1.632,4.795,4.095,4.989,6.776C635.546,4267.3,632.741,4265.477,631.071,4264.886Z" transform="translate(-619.702 -4236.903)" fill="#ef9548"/>
        <path id="Trazado_99218" data-name="Trazado 99218" d="M631.071,4264.886c-2.13.155-3.341,3.621-4.965,4.663a1.609,1.609,0,0,1-2.271-.144,1.69,1.69,0,0,1-.107-.137c-1.733-2.237.419-5.167,2.486-6.838-1.5.685-2.72,1.834-4.344,2.207a1.554,1.554,0,0,1-1.994-.924,1.47,1.47,0,0,1-.057-.2c-.84-3.107,3.046-4.662,5.743-4.833-1.345-.856-5.191-3.194-3.241-4.484s6.512,2.074,8,3.186c2.176,1.632,4.795,4.095,4.989,6.776C635.546,4267.3,632.741,4265.477,631.071,4264.886Z" transform="translate(-619.702 -4236.903)" fill="#ef9548" opacity="0.1" style="isolation: isolate"/>
        <path id="Trazado_99219" data-name="Trazado 99219" d="M628.656,4265.444c-2.775-1.143-7.957.846-8.439-.17-.987-2.068,3.147-3.678,5.4-4.042-2.105-.482-6.131-1.228-6.085-3.248.055-2.463,6.116-.575,9.225,1.631,3.924,2.774,4.009,5.6,3.4,6.217C631.321,4266.609,629.1,4265.662,628.656,4265.444Z" transform="translate(-616.651 -4236.956)" fill="#ef9548"/>
        <path id="Trazado_99220" data-name="Trazado 99220" d="M609.509,4294.181a125.975,125.975,0,0,0,4,18.48.459.459,0,0,0,.9-.178h0c-.846-5.7-2.393-11.285-3.24-16.981a86.155,86.155,0,0,1-.987-17.43c.544-9.6,3.147-19.808,9.41-27.314.14-.18-.155-.428-.3-.264-12.534,14.617-10.544,32.537-10.529,34.145-1.78-6.053-3.607-12.985-10.321-19.147-.288-.273-.513-.141-.466.311,1.2,11.222,4.321,17.1,10.825,23.08C609,4290.661,609.229,4292.434,609.509,4294.181Z" transform="translate(-582.684 -4236.84)" fill="#344154"/>
        <path id="Trazado_99221" data-name="Trazado 99221" d="M592.076,4252.186c2.253-1,5.362,1.873,7.592,2.067a1.845,1.845,0,0,0,2.261-1.556c.552-3.224-3.224-5.034-6.216-5.61,1.9-.117,3.761.389,5.626-.117a1.771,1.771,0,0,0,1.522-1.991,1.867,1.867,0,0,0-.053-.254c-.832-3.629-5.619-3.109-8.463-1.8.9-1.6,3.551-6.069.87-6.326s-5.5,5.642-6.411,7.576c-1.328,2.845-2.658,6.775-1.407,9.605C588.828,4257.073,590.693,4253.7,592.076,4252.186Z" transform="translate(-555.048 -4236.589)" fill="#ef9548"/>
        <path id="Trazado_99222" data-name="Trazado 99222" d="M592.076,4252.186c2.253-1,5.362,1.873,7.592,2.067a1.845,1.845,0,0,0,2.261-1.556c.552-3.224-3.224-5.034-6.216-5.61,1.9-.117,3.761.389,5.626-.117a1.771,1.771,0,0,0,1.522-1.991,1.867,1.867,0,0,0-.053-.254c-.832-3.629-5.619-3.109-8.463-1.8.9-1.6,3.551-6.069.87-6.326s-5.5,5.642-6.411,7.576c-1.328,2.845-2.658,6.775-1.407,9.605C588.828,4257.073,590.693,4253.7,592.076,4252.186Z" transform="translate(-555.048 -4236.589)" fill="#ef9548" opacity="0.1" style="isolation: isolate"/>
        <path id="Trazado_99223" data-name="Trazado 99223" d="M594.272,4253.109c2.215-2.666,8.548-3.459,8.5-4.756-.116-2.643-5.2-2.028-7.693-1.173,1.88-1.639,5.58-4.585,4.437-6.613-1.39-2.471-6.535,2.728-8.509,6.667-2.487,4.951-1.041,7.864-.1,8.136C592.2,4255.734,593.907,4253.544,594.272,4253.109Z" transform="translate(-557.625 -4236.649)" fill="#ef9548"/>
        <path id="Trazado_99224" data-name="Trazado 99224" d="M593.585,4298.43l-5.533,42.243H621.7c-.691-3.746-6.955-42.3-6.955-42.3Z" transform="translate(-575.005 -4237.708)" fill="#ef9548"/>
      </g>
      <g id="freepik--Character--inject-11" transform="translate(51.978)">
        <path id="Trazado_99286" data-name="Trazado 99286" d="M483.877,4277.523a78.464,78.464,0,0,1-14.05,9.364c6.924-12.636,3.218-39.569,2.588-35.63-2.992,18.829-14.26,40.122-19.163,41.536a.251.251,0,0,0-.085,0c-13.265,2.665-25.737.5-36.376-3.66a.113.113,0,0,1,0-.062c9.107-14.407,6.154-41.854,5.61-40.121-5.922,18.595-20.663,30.384-23.406,30.587h0c-10.879-7.663-16.988-15.705-15.628-16.685,9.878-7.157,17.283-24.09,23.741-41.854h0c6.387-17.523,8.781-43.044,18.557-59.021,8.952-14.633,29.118-18.961,41.326-12.892C499.015,4164.97,489.916,4272.5,483.877,4277.523Z" transform="translate(-301.026 -4143.691)" fill="#344154"/>
        <path id="Trazado_99287" data-name="Trazado 99287" d="M379.206,4148.17a20.47,20.47,0,0,1,7.173,4.306,43.5,43.5,0,0,1,5.525,5.976,69.541,69.541,0,0,1,7.772,13.832c4.235,9.644,6.542,29.056,7.724,39.33a160.817,160.817,0,0,1,0,31c-.2,2.58-.582,5.146-.87,7.718l-1.134,7.692-1.477,7.646-1.717,7.6,1.2-7.662,1.018-7.686.863-7.686c.194-2.573.481-5.131.6-7.7a175.008,175.008,0,0,0-.427-30.742c-.995-10.2-3.333-29.437-7.157-39.057a70,70,0,0,0-7.2-13.848,42.354,42.354,0,0,0-5.12-6.116,27.615,27.615,0,0,0-3.109-2.6A14.608,14.608,0,0,0,379.206,4148.17Z" transform="translate(-217.063 -4143.724)" fill="#344154"/>
        <path id="Trazado_99288" data-name="Trazado 99288" d="M441.281,4260.3a133.769,133.769,0,0,0,7.918-11.5c2.479-3.886,4.794-7.9,6.885-11.967a133.84,133.84,0,0,0,5.7-12.434c1.654-4.243,3.163-8.509,4.755-12.767,3.279-8.495,6.411-26.15,10.25-34.488,1.943-4.166,3.971-8.3,6.31-12.31A62.375,62.375,0,0,1,486.99,4159a17.627,17.627,0,0,1,5.206-4.927,18.348,18.348,0,0,0-4.771,5.167,61.955,61.955,0,0,0-3.474,5.953c-2.144,4.056-4,8.222-5.766,12.434-3.536,8.393-6.668,26.018-9.807,34.542-1.648,4.25-3.194,8.5-4.935,12.75a109.819,109.819,0,0,1-6.022,12.435A129.525,129.525,0,0,1,441.281,4260.3Z" transform="translate(-358.713 -4143.831)" fill="#344154"/>
        <path id="Trazado_99289" data-name="Trazado 99289" d="M544.693,4254.846c-8.362,18.782-41.077,79.263-61.267,82.9-13.21,2.377-66.169-4.663-74.865-17.57-3.792-5.618,4.32-43.517,11.346-41.784s49.415,8.928,54.7,7.6,46.105-45.07,61.15-55.733C561.727,4211.85,549.192,4244.737,544.693,4254.846Z" transform="translate(-380.763 -4145.111)" fill="#ffbf9d"/>
        <path id="Trazado_99290" data-name="Trazado 99290" d="M406.021,4276.162l-3.186,57.319s41.815,9.194,60.07,2.892c22.155-7.655,54.583-76.288,59.059-87.572,7.288-18.519,5.269-29.722-5.059-26.987-4.01,1.033-9.326,4.2-15.76,9.893-6.768,5.937-45.646,44.456-57.917,51.73C436.336,4287.508,406.021,4276.162,406.021,4276.162Z" transform="translate(-354.734 -4145.049)" fill="#ef9548"/>
        <path id="Trazado_99291" data-name="Trazado 99291" d="M427.96,4323.935a12.7,12.7,0,0,1,3.155,1.664,12.607,12.607,0,0,1-3.473-.777,12.441,12.441,0,0,1-3.156-1.655A12.31,12.31,0,0,1,427.96,4323.935Zm31.5-45.024a12.37,12.37,0,0,1,3.147,1.655,13.634,13.634,0,0,1-6.621-2.456A12.43,12.43,0,0,1,459.464,4278.911Zm31.783-27.2a12.7,12.7,0,0,1,3.155,1.663,13.7,13.7,0,0,1-6.628-2.456,12.587,12.587,0,0,1,3.473.786Zm-23.1,61.624a12.486,12.486,0,0,1,3.155,1.656,13.657,13.657,0,0,1-6.621-2.456,12.271,12.271,0,0,1,3.466.792Zm-36.974-22.091a12.455,12.455,0,0,1,3.155,1.661,12.589,12.589,0,0,1-3.474-.777,12.454,12.454,0,0,1-3.155-1.656,12.325,12.325,0,0,1,3.474.763Zm55.523-10.025a12.592,12.592,0,0,1,3.109,1.664,12.679,12.679,0,0,1-3.473-.778,12.411,12.411,0,0,1-3.109-1.663,12.7,12.7,0,0,1,3.473.769Zm-83.149,31.65c.133-.529.3-1.048.482-1.554a12.63,12.63,0,0,1,1.663-3.155,12.365,12.365,0,0,1-.778,3.473,13,13,0,0,1-1.43,2.844Zm43.93,3.194a12.607,12.607,0,0,1,1.655-3.155,12.646,12.646,0,0,1-.778,3.474,12.449,12.449,0,0,1-1.662,3.155,12.292,12.292,0,0,1,.753-3.482Zm27.766-49.09a12.643,12.643,0,0,1,1.662-3.147,12.616,12.616,0,0,1-.777,3.473,12.322,12.322,0,0,1-1.663,3.147A12.379,12.379,0,0,1,475.239,4266.974Zm30.609-30.135a12.51,12.51,0,0,1,1.656-3.155,13.644,13.644,0,0,1-2.456,6.62,12.227,12.227,0,0,1,.839-3.465Zm-43.315,93.678a12.3,12.3,0,0,1,3.381-1.088,13.809,13.809,0,0,1-6.42,2.945A12.533,12.533,0,0,1,462.534,4330.518ZM424.4,4306.933a12.447,12.447,0,0,1,3.4-1.05,13.873,13.873,0,0,1-6.426,2.946,12.93,12.93,0,0,1,3.022-1.928Zm12.558,31.479a12.315,12.315,0,0,1,3.4-1.057,10.2,10.2,0,0,1-1.88,1.307l-1.834-.1Zm30.835-44.721a12.32,12.32,0,0,1,3.4-1.058,13.83,13.83,0,0,1-6.419,2.947,12.38,12.38,0,0,1,3.015-1.921Zm46.626-40.463a12.283,12.283,0,0,1,3.4-1.057,13.8,13.8,0,0,1-6.419,2.944,12.592,12.592,0,0,1,3-1.919Zm-28.909,49.921a12.127,12.127,0,0,1,1.05,3.4,12.612,12.612,0,0,1-1.888-3.023,12.865,12.865,0,0,1-1.057-3.4,12.653,12.653,0,0,1,1.881,2.992Zm15.542-32.047a12.131,12.131,0,0,1,1.05,3.4,12.593,12.593,0,0,1-1.889-3.021,12.859,12.859,0,0,1-1.057-3.4,12.875,12.875,0,0,1,1.872,2.991Zm-49.462,25.736a12.586,12.586,0,0,1,1.034,3.374,12.224,12.224,0,0,1-1.9-3.016,12.834,12.834,0,0,1-1.056-3.4,12.385,12.385,0,0,1,1.9,3.017Zm73.6-60.13c-.078.427-.163.854-.264,1.3a11.3,11.3,0,0,1-.778-2.719,9.52,9.52,0,0,1,1.018,1.39Z" transform="translate(-354.288 -4145.272)" fill="#fff"/>
        <path id="Trazado_99292" data-name="Trazado 99292" d="M515.914,4333.736c.731-8.456,2.432-43.167,2.293-50.7,0-.521-.342-.638-.4-.093-2.782,25.286-1.926,42.42-2.214,50.751C515.58,4333.882,515.9,4333.93,515.914,4333.736Z" transform="translate(-455.862 -4146.16)" fill="#344154"/>
        <path id="Trazado_99293" data-name="Trazado 99293" d="M482.911,4248.793c-4.429,11.284-36.873,79.924-59.059,87.571-5.44,1.889-13.055,2.384-20.981,2.176L479.22,4221.5a6.542,6.542,0,0,1,5.245,1.064C488.584,4225.823,488.187,4235.412,482.911,4248.793Z" transform="translate(-317.146 -4145.05)" fill="#ef9548" opacity="0.1" style="isolation: isolate"/>
        <path id="Trazado_99294" data-name="Trazado 99294" d="M445.874,4339.135l-114.808-.3,6.349-39.476s-9.077-11.019-7.359-22.971c1.88-13.093,25.5-46.292,27.478-48.18,8-7.506,16.458-8.851,24.587-6.146h0C419.678,4245.712,445.874,4339.135,445.874,4339.135Z" transform="translate(-209.017 -4145.039)" fill="#ef9548"/>
        <path id="Trazado_99295" data-name="Trazado 99295" d="M442.06,4316.46a15.472,15.472,0,0,1,1.934.885l.234.661a14.933,14.933,0,0,1-2.487-.685,12.3,12.3,0,0,1-3.155-1.662A12.394,12.394,0,0,1,442.06,4316.46Zm-41.482-75.378a12.654,12.654,0,0,1,3.109,1.662,12.551,12.551,0,0,1-3.466-.777,12.244,12.244,0,0,1-3.155-1.663,12.677,12.677,0,0,1,3.512.762Zm-54.172,11.16a10.329,10.329,0,0,1,1.554.947,9.633,9.633,0,0,1-1.9-.31C346.151,4252.667,346.283,4252.457,346.407,4252.241Zm29.576,17.181a12.613,12.613,0,0,1,3.155,1.656,13.719,13.719,0,0,1-6.629-2.457A12.386,12.386,0,0,1,375.984,4269.422Zm14.765,44.955a12.52,12.52,0,0,1,3.156,1.654,12.622,12.622,0,0,1-3.474-.776,12.367,12.367,0,0,1-3.109-1.664,12.292,12.292,0,0,1,3.4.786Zm-50.511-33.346a12.609,12.609,0,0,1,3.109,1.664,12.641,12.641,0,0,1-3.474-.777,12.406,12.406,0,0,1-3.108-1.663,12.677,12.677,0,0,1,3.457.777Zm75.332,2.005a12.543,12.543,0,0,1,3.108,1.655,13.642,13.642,0,0,1-6.621-2.456,12.369,12.369,0,0,1,3.5.8Zm-56.627,30.112a12.545,12.545,0,0,1,3.155,1.655,12.607,12.607,0,0,1-3.473-.777,12.479,12.479,0,0,1-3.148-1.662,12.242,12.242,0,0,1,3.45.784Zm30.438-88.828.234-.576c.256.178.5.366.777.551-.046.117-.085.225-.124.342a12.44,12.44,0,0,1-1.663,3.125A12.656,12.656,0,0,1,389.38,4224.32ZM418.04,4315.5a12.649,12.649,0,0,1,1.655-3.154,13.7,13.7,0,0,1-2.456,6.629A12.325,12.325,0,0,1,418.04,4315.5Zm-41.278-17.974a12.561,12.561,0,0,1,1.654-3.108,13.643,13.643,0,0,1-2.456,6.621A12.381,12.381,0,0,1,376.761,4297.529Zm14.6-38.746a12.617,12.617,0,0,1,1.662-3.148,13.927,13.927,0,0,1-2.456,6.621,12.64,12.64,0,0,1,.793-3.473Zm-50.729,65.9a12.211,12.211,0,0,1,1.655-3.155,12.632,12.632,0,0,1-.778,3.473,12.5,12.5,0,0,1-1.662,3.148,12.222,12.222,0,0,1,.785-3.467Zm18.782-88.029a12.479,12.479,0,0,1,1.655-3.155,13.659,13.659,0,0,1-2.456,6.621A12.223,12.223,0,0,1,359.416,4236.66Zm44.022,63.924a12.429,12.429,0,0,1,3.4-1.05,13.884,13.884,0,0,1-6.426,2.946,12.806,12.806,0,0,1,3.022-1.9Zm-40.774,37.463a9.636,9.636,0,0,1-1.267.932h-1.85A11.658,11.658,0,0,1,362.664,4338.047Zm67.358-6.652a12.509,12.509,0,0,1,3.4-1.056,12.246,12.246,0,0,1-3.023,1.9,12.7,12.7,0,0,1-3.4,1.056A12.253,12.253,0,0,1,430.022,4331.4Zm-69.542-40.324a12.47,12.47,0,0,1,3.4-1.057,12.194,12.194,0,0,1-3.015,1.9,12.562,12.562,0,0,1-3.4,1.049,12.586,12.586,0,0,1,3.023-1.888Zm7.452-38.077a12.334,12.334,0,0,1,3.4-1.057,12.393,12.393,0,0,1-3.014,1.889,12.612,12.612,0,0,1-3.4,1.057,12.592,12.592,0,0,1,3.015-1.866Zm44.714,10.538a12.312,12.312,0,0,1,1.056,3.4,12.46,12.46,0,0,1-1.888-3.023,12.143,12.143,0,0,1-1.057-3.4,12.453,12.453,0,0,1,1.888,3.039ZM376.621,4326a12.562,12.562,0,0,1,1.05,3.4,13.237,13.237,0,0,1-2.946-6.357,12.841,12.841,0,0,1,1.9,2.976Zm-22.062-55.135a12.137,12.137,0,0,1,1.05,3.4,12.608,12.608,0,0,1-1.888-3.023,12.871,12.871,0,0,1-1.058-3.4,12.856,12.856,0,0,1,1.9,3.045Zm49.307,58.345a12.572,12.572,0,0,1,1.056,3.458,12.211,12.211,0,0,1-1.9-3.016,12.534,12.534,0,0,1-1.049-3.4,12.554,12.554,0,0,1,1.888,2.985Zm24.929-28.55a12.5,12.5,0,0,1,1.057,3.4,13.671,13.671,0,0,1-2.945-6.426A12.641,12.641,0,0,1,428.8,4300.661Zm-35.109-18.5a12.171,12.171,0,0,1,1.057,3.4,12.446,12.446,0,0,1-1.888-3.014,12.6,12.6,0,0,1-1.056-3.4A12.6,12.6,0,0,1,393.686,4282.158Zm-14.135-44.085a12.188,12.188,0,0,1,1.057,3.4,13.795,13.795,0,0,1-2.945-6.419,12.642,12.642,0,0,1,1.888,3.048Z" transform="translate(-214.171 -4145.093)" fill="#fff"/>
        <path id="Trazado_99296" data-name="Trazado 99296" d="M448.2,4244.628c-2.222,3.7-4.662,7.266-6.994,10.88.941-2.581,1.858-5.16,2.883-7.7a.047.047,0,0,0-.03-.059.05.05,0,0,0-.047.011,53.587,53.587,0,0,0-3.971,9.605,73.126,73.126,0,0,0-4.663,8.548,34.187,34.187,0,0,0-3.108,11.236,28.836,28.836,0,0,0,1.632,11.563,74.747,74.747,0,0,0,5.813,12.247c.295.521,1.017.039.777-.481-3.256-6.947-6.854-14.252-6.528-22.123s3.948-14.96,7.5-21.713a107.873,107.873,0,0,1,6.994-11.912C448.562,4244.621,448.3,4244.458,448.2,4244.628Z" transform="translate(-307.338 -4145.47)" fill="#344154"/>
        <path id="Trazado_99297" data-name="Trazado 99297" d="M546.547,4332.7l2.331,13.046H476.515a8.866,8.866,0,0,1-8.408-7.11l-1.041-5.936Z" transform="translate(-436.345 -4147.068)" fill="#dbdbdb"/>
        <path id="Trazado_99298" data-name="Trazado 99298" d="M476.271,4338.636l-1.049-5.936H461.008l1.049,5.936a8.848,8.848,0,0,0,8.362,7.11,5.91,5.91,0,0,0,4.662-2.082A6.11,6.11,0,0,0,476.271,4338.636Z" transform="translate(-362.339 -4147.068)" fill="#ebebeb"/>
        <path id="Trazado_99299" data-name="Trazado 99299" d="M547.969,4237.8l18.7,106.1H501.4a8.866,8.866,0,0,1-8.354-7.11l-18.705-106.1h65.276a8.441,8.441,0,0,1,5.393,2.082A8.706,8.706,0,0,1,547.969,4237.8Z" transform="translate(-461.283 -4145.219)" fill="#dbdbdb"/>
        <path id="Trazado_99300" data-name="Trazado 99300" d="M576.383,4230.693l3.776,21.431H500.694l-2.526-14.321a5.805,5.805,0,0,1,5.851-7.109Z" transform="translate(-498.058 -4145.219)" fill="#ebebeb"/>
        <path id="Trazado_99301" data-name="Trazado 99301" d="M505.139,4237.8l2.526,14.321H493.452l-2.525-14.321a5.8,5.8,0,0,1,5.852-7.109,8.44,8.44,0,0,1,5.393,2.082A8.706,8.706,0,0,1,505.139,4237.8Z" transform="translate(-421.576 -4145.219)" fill="#dbdbdb"/>
        <path id="Trazado_99302" data-name="Trazado 99302" d="M526.747,4272.48c-2.657,7.577-10.32,17.438-10.405,23.405a6.854,6.854,0,0,0,4.546,6.784s-5.564,3.552-4.748,8.976c.42,2.792,5.253,4.569,5.253,4.569s-4.336,3.039-3.31,7.819c.816,3.806,5.533,5.019,5.533,5.019s-2.8,4.857-.723,8.472c4.211,7.319,37.448,3.791,41.279-9,1.787-5.96-6.287-4.662-6.287-4.662s11.159-4.664,10.6-11.548-10.933-4.547-10.933-4.547,10.77-4.623,9.48-11.693c-1.352-7.352-11.338-3.249-11.338-3.249s6.861-5.789,4.663-10.973c-3.676-8.548-16.49,4.056-23.982,3.109l-5.307-11.657Z" transform="translate(-504.078 -4145.976)" fill="#ffbf9d"/>
        <path id="Trazado_99303" data-name="Trazado 99303" d="M560.141,4283.374c1.889-7.39-7.848-15.231-7.056-22.537,1.065-9.907,12.978-1.553,16.894,12.239l1.158,11.229Z" transform="translate(-543.02 -4145.687)" fill="#ffbf9d"/>
        <path id="Trazado_99304" data-name="Trazado 99304" d="M526.3,4330.291a.085.085,0,1,0,0,.171c11.221,1.507,24-.281,34.021-5.681.334-.17.187-.777-.218-.66C548.685,4327.711,538.3,4329.98,526.3,4330.291Z" transform="translate(-506.044 -4146.912)" fill="#344154"/>
        <path id="Trazado_99305" data-name="Trazado 99305" d="M526.574,4316.944c-.133,0-.125.218,0,.233,11.571,1.492,25.908-.916,36.733-8.5.365-.257.443-.862,0-.6C555.731,4312.577,537.376,4316.72,526.574,4316.944Z" transform="translate(-509.414 -4146.62)" fill="#344154"/>
        <path id="Trazado_99306" data-name="Trazado 99306" d="M563.26,4292.393c-10.654,6.87-22.442,9.629-34.969,10.716-.163,0-.125.249,0,.272,6.263,1.133,14.167-.4,20.2-2.106a33.3,33.3,0,0,0,14.959-8.509C563.672,4292.6,563.493,4292.252,563.26,4292.393Z" transform="translate(-511.03 -4146.336)" fill="#344154"/>
        <path id="Trazado_99307" data-name="Trazado 99307" d="M429.073,4220.938c-.155,2.019-7.506,16.093-16.474,17.05-2.922.3-5.3-15.544-5.3-15.544l-.451-1.125-6.216-15.845L418,4190.134l2.533-2.059s1.407,4.444,3.109,9.993c.078.257.163.521.241.777s.21.606.3.9c.264.824.528,1.672.778,2.519.193.646.38,1.268.559,1.951s.365,1.353.56,2.028A108.556,108.556,0,0,1,429.073,4220.938Z" transform="translate(-258.078 -4144.447)" fill="#ffbf9d"/>
        <path id="Trazado_99308" data-name="Trazado 99308" d="M429.174,4198.044a34.139,34.139,0,0,1-16.817,23.251l-6.216-15.844,17.368-15.341,2.533-2.06S427.472,4192.5,429.174,4198.044Z" transform="translate(-263.432 -4144.446)" fill="#344154"/>
        <path id="Trazado_99309" data-name="Trazado 99309" d="M404.351,4185.8c3.932,29.591,22.1,30.578,28.481,29.724,5.79-.778,25.419-4.157,24.565-34s-15.861-37.371-29.2-36.3S400.412,4156.206,404.351,4185.8Z" transform="translate(-288.828 -4143.668)" fill="#ffbf9d"/>
        <path id="Trazado_99310" data-name="Trazado 99310" d="M451.054,4183.251a20.086,20.086,0,0,0,1.9-.824,3.279,3.279,0,0,0,1.763-1.205,1.048,1.048,0,0,0-.264-1.267,2.631,2.631,0,0,0-2.665-.085,3.885,3.885,0,0,0-2.106,1.826,1.135,1.135,0,0,0,1.376,1.555Z" transform="translate(-330.24 -4144.292)" fill="#344154"/>
        <path id="Trazado_99311" data-name="Trazado 99311" d="M436.53,4178.091q-1.03.05-2.059,0a3.363,3.363,0,0,1-2.106-.421,1.065,1.065,0,0,1-.256-1.267,2.641,2.641,0,0,1,2.424-1.126,3.89,3.89,0,0,1,2.65.854,1.137,1.137,0,0,1-.653,1.96Z" transform="translate(-296.411 -4144.214)" fill="#344154"/>
        <path id="Trazado_99312" data-name="Trazado 99312" d="M433.051,4184.774c0-.086.171.062.187.147.295,2.013.971,4.266,2.906,4.6.054,0,.07.117,0,.117C433.883,4189.755,433.012,4186.724,433.051,4184.774Z" transform="translate(-296.088 -4144.387)" fill="#344154"/>
        <path id="Trazado_99313" data-name="Trazado 99313" d="M432.921,4182.311c3.17-.823,4.593,5.588,1.648,6.349S430.264,4183,432.921,4182.311Z" transform="translate(-294.586 -4144.34)" fill="#344154"/>
        <path id="Trazado_99314" data-name="Trazado 99314" d="M429.835,4182.358c.637.241,1.329.776,2.013.676.778-.093,1.244-.9,1.609-1.654.038-.079.108-.04.124.045.3,1.229.1,2.588-1.181,3.062-1.158.436-2.261-.458-2.844-1.624C429.447,4182.646,429.57,4182.265,429.835,4182.358Z" transform="translate(-290.252 -4144.326)" fill="#344154"/>
        <path id="Trazado_99315" data-name="Trazado 99315" d="M448.657,4186.682c0-.07-.132.132-.108.218.52,1.965.777,4.3-.863,5.37-.054.039,0,.131.039.107C449.846,4191.546,449.465,4188.445,448.657,4186.682Z" transform="translate(-322.989 -4144.421)" fill="#344154"/>
        <path id="Trazado_99316" data-name="Trazado 99316" d="M449.767,4184.963c-3.248.49-2.029,6.939.971,6.489S452.479,4184.56,449.767,4184.963Z" transform="translate(-326.27 -4144.389)" fill="#344154"/>
        <path id="Trazado_99317" data-name="Trazado 99317" d="M454.925,4185.66c-.443.434-.832,1.15-1.437,1.305s-1.344-.419-1.92-1c-.062-.062-.1,0-.093.085.2,1.243.855,2.447,2.083,2.463s1.709-1.2,1.772-2.479C455.344,4185.792,455.1,4185.481,454.925,4185.66Z" transform="translate(-332.564 -4144.402)" fill="#344154"/>
        <path id="Trazado_99318" data-name="Trazado 99318" d="M436.47,4202.2c-.35.583-.645,1.344-1.344,1.555a5.441,5.441,0,0,1-2.239.076.07.07,0,0,0-.089.042.07.07,0,0,0,.027.083,2.755,2.755,0,0,0,2.782.389,2.14,2.14,0,0,0,1.073-2.146C436.68,4202.115,436.508,4202.115,436.47,4202.2Z" transform="translate(-296.341 -4144.703)" fill="#344154"/>
        <path id="Trazado_99319" data-name="Trazado 99319" d="M439.343,4196.284s.21,3.055.506,4.461c0,.132.38.116.862.046a.048.048,0,0,0,.054,0,6.825,6.825,0,0,0,5.953-3.839.149.149,0,0,0-.071-.2.147.147,0,0,0-.178.042,10.2,10.2,0,0,1-5.727,3.014c-.179-.364-.179-5.245-.4-5.213a12.153,12.153,0,0,0-3.038,1.384c-.621-6.357-.218-12.761-.933-19.079a.194.194,0,0,0-.389,0c-.893,6.683-.334,13.988.14,20.593C436.165,4198.3,438.831,4196.642,439.343,4196.284Z" transform="translate(-308.789 -4144.241)" fill="#344154"/>
        <path id="Trazado_99320" data-name="Trazado 99320" d="M455.284,4181.883c-6.839,1.4-8.89-9.41-8.89-9.41s-7.9.778-10.919-11.617c0,0-2.261,8.3-12.488,11.889-2.168.778,4.181-6.473,4.181-6.473s-7.375,9.845-24.6,10.009c-1.213,0-3.52-18.1,8.346-26.616a30.324,30.324,0,0,1,35.35-.667s9.325,3.279,12.146,12.115S457.941,4181.34,455.284,4181.883Z" transform="translate(-288.818 -4143.642)" fill="#344154"/>
        <path id="Trazado_99321" data-name="Trazado 99321" d="M434.23,4195.977a9.908,9.908,0,1,0-12.574-9.324h0a9.925,9.925,0,0,0,10.1,9.667A9.681,9.681,0,0,0,434.23,4195.977Zm-4.982-17.811a6.542,6.542,0,1,1-.023,0Z" transform="translate(-290.347 -4144.237)" fill="#ebebeb"/>
        <path id="Trazado_99322" data-name="Trazado 99322" d="M456.205,4199.444c3.645-1.018,5.914-5.68,5.114-10.786a11.806,11.806,0,0,0-3.109-6.52,6.171,6.171,0,0,0-10.429,1.64,11.805,11.805,0,0,0-.995,7.166c.847,5.392,4.8,9.271,8.82,8.642A4.58,4.58,0,0,0,456.205,4199.444Zm-3.994-18.013a3.621,3.621,0,0,1,.49-.109,5.307,5.307,0,0,1,4.538,1.749,10.573,10.573,0,0,1,2.774,5.789c.73,4.663-1.344,8.9-4.663,9.419s-6.574-2.868-7.312-7.539a10.561,10.561,0,0,1,.863-6.364,5.436,5.436,0,0,1,3.349-2.945Z" transform="translate(-333.9 -4144.3)" fill="#ebebeb"/>
        <path id="Trazado_99323" data-name="Trazado 99323" d="M447.323,4187.915l.683-1.134c-1.678-1.019-5.369-2.152-7.358.776l1.095.778C443.523,4185.677,447.168,4187.821,447.323,4187.915Z" transform="translate(-314.978 -4144.404)" fill="#ebebeb"/>
        <path id="Trazado_99324" data-name="Trazado 99324" d="M421.847,4183.41l1.064-.776c-.365-.5-3.653-4.864-6.652-4.88-2.8,0-20.072,4.39-20.81,4.576l.334,1.283c4.951-1.267,18.308-4.547,20.468-4.539C418.234,4179.114,420.961,4182.236,421.847,4183.41Z" transform="translate(-247.072 -4144.259)" fill="#ebebeb"/>
        <path id="Trazado_99325" data-name="Trazado 99325" d="M396.32,4184.982s4.344-10.514,8.975-9.161,2.782,15.6-1.662,18.486a5.053,5.053,0,0,1-7.073-1.008c-.042-.058-.083-.115-.124-.174Z" transform="translate(-233.19 -4144.223)" fill="#ffbf9d"/>
        <path id="Trazado_99326" data-name="Trazado 99326" d="M405.465,4179.971a.068.068,0,0,1,.081.057.07.07,0,0,1-.027.066c-3.109,2.137-4.181,5.681-4.7,9.225.73-1.477,1.95-2.471,3.885-1.648a.109.109,0,0,1-.047.2,3.107,3.107,0,0,0-3.108,1.8,14.364,14.364,0,0,0-1,3.054c-.093.333-.676.3-.637-.078v-.086C398.922,4188.253,400.941,4181.439,405.465,4179.971Z" transform="translate(-233.965 -4144.3)" fill="#344154"/>
        <path id="Trazado_99327" data-name="Trazado 99327" d="M401.053,4223.555l4.181,13.645,17.8-15.292,4.189,5.742s-18.285,25.155-18.285,23.942l-4.469-11.827-8.548,7.242,2.332-19.8Z" transform="translate(-251.774 -4145.059)" fill="#ebebeb"/>
        <path id="Trazado_99328" data-name="Trazado 99328" d="M396.707,4237.254c.49-3.255.893-6.551,1.554-9.783,0-.108.21-.148.226,0,.388,3.217-1.554,15.658-1.8,18.65h0c.357-.32,7.864-6.342,7.926-6.218,1.026,1.9,4.313,10.522,4.523,11.3,2.891-3.994,15.06-19.684,18.4-23.406a.112.112,0,1,1,.187.125c-2.619,4.258-18.386,24.983-18.572,24.913a128.074,128.074,0,0,1-4.662-12.5c-1.3,1.336-8.945,8.213-8.929,7.724A102.1,102.1,0,0,1,396.707,4237.254Z" transform="translate(-251.93 -4145.159)" fill="#344154"/>
        <path id="Trazado_99329" data-name="Trazado 99329" d="M322.877,4249.643c6.916,29.792,26.507,63.123,38.909,72.922,7.554,5.959,31.729,6.014,32.809-9.628s-46.384-64.67-53.37-74.206S316.629,4222.762,322.877,4249.643Z" transform="translate(-149.625 -4145.214)" fill="#ffbf9d"/>
        <path id="Trazado_99330" data-name="Trazado 99330" d="M322.877,4249.643c6.916,29.792,26.507,63.123,38.909,72.922,7.554,5.959,31.729,6.014,32.809-9.628s-46.384-64.67-53.37-74.206S316.629,4222.762,322.877,4249.643Z" transform="translate(-149.625 -4145.214)" fill="#ef9548"/>
        <path id="Trazado_99331" data-name="Trazado 99331" d="M372.906,4316.765a12.582,12.582,0,0,1,3.108,1.662,12.6,12.6,0,0,1-3.466-.776,12.323,12.323,0,0,1-3.155-1.664A12.346,12.346,0,0,1,372.906,4316.765Zm-41.482-75.378a12.64,12.64,0,0,1,3.109,1.663,12.57,12.57,0,0,1-3.466-.777,12.261,12.261,0,0,1-3.155-1.664,12.66,12.66,0,0,1,3.512.762ZM346.4,4283.35a12.584,12.584,0,0,1,3.109,1.655,13.653,13.653,0,0,1-6.621-2.455,12.334,12.334,0,0,1,3.512.792Zm11.835-13.319a12.569,12.569,0,0,1,1.624-3.186,12.644,12.644,0,0,1-.777,3.474,12.437,12.437,0,0,1-1.663,3.154A12.626,12.626,0,0,1,358.233,4270.03Zm19.319,29.646a12.684,12.684,0,0,1,1.663-3.154,13.706,13.706,0,0,1-2.456,6.628A12.635,12.635,0,0,1,377.552,4299.676Zm-27.019,12.977a10.85,10.85,0,0,1-.56,2.766l-.614-.776A10.553,10.553,0,0,1,350.533,4312.653ZM322.2,4259.089a12.631,12.631,0,0,1,1.662-3.148,12.306,12.306,0,0,1-.777,3.466,13.413,13.413,0,0,1-1.328,2.7c-.063-.2-.133-.4-.194-.6h0a14.8,14.8,0,0,1,.645-2.416Zm44.123,24.928a12.546,12.546,0,0,1,3.4-1.049,12.426,12.426,0,0,1-3.015,1.887,12.581,12.581,0,0,1-3.4,1.058A12.846,12.846,0,0,1,366.323,4284.018Zm-22.831-20.2a12.331,12.331,0,0,1,1.056,3.4,12.43,12.43,0,0,1-1.888-3.024,12.133,12.133,0,0,1-1.057-3.394,12.421,12.421,0,0,1,1.888,3.061Zm16.148,37.153a12.492,12.492,0,0,1,1.056,3.4,13.675,13.675,0,0,1-2.945-6.427A12.611,12.611,0,0,1,359.641,4300.966Zm29.793,10.429c.2.458.4.924.56,1.405a2.078,2.078,0,0,1,0,.313,7.342,7.342,0,0,1-.093.939,14.492,14.492,0,0,1-1.29-2.276,12.78,12.78,0,0,1-1.056-3.4A12.393,12.393,0,0,1,389.434,4311.4Z" transform="translate(-145.016 -4145.398)" fill="#fff"/>
        <path id="Trazado_99332" data-name="Trazado 99332" d="M395.875,4325.1a31.863,31.863,0,0,1-9.838.054,26.6,26.6,0,0,1-9.069-3.24c-5.922-3.4-9.885-9.169-13.4-14.843q-5.79-9.324-10.879-19.1c-3.381-6.5-6.481-13.156-9.473-19.846-1.515-3.374-2.891-6.792-4.328-10.2s-2.8-6.768-4.048-10.21c-.319-.871-.615-1.741-.917-2.611a.065.065,0,0,0-.125.039h0c1.119,3.559,2.184,7.156,3.388,10.685.155.458.326.917.489,1.375-1.251-2.665-2.533-5.314-3.885-7.934-.078-.156-.3,0-.233.14,1.2,2.72,2.44,5.439,3.715,8.089q.947,1.983,1.9,3.948c.606,1.632,1.235,3.271,1.88,4.9q4.172,10.445,9.279,20.445t11,19.59c3.6,5.882,7.46,11.928,13.281,15.853a25.335,25.335,0,0,0,19,3.832,17.479,17.479,0,0,0,2.332-.669.155.155,0,0,0-.071-.294Z" transform="translate(-162.811 -4145.478)" fill="#344154"/>
        <path id="Trazado_99333" data-name="Trazado 99333" d="M423.493,4204.006c-4.935-12.005-12.938-28.473-18.316-30.991-5.658-2.619-25.916-11.011-31.254-11.439s-24.269,5.106-27.688,8.463c-2.728,2.688,2.005,9.092,12.791,8.176,10.1-.863,12.434-1.555,15.363-1.112s11.6,7.437,10.833,11.711c-.451,2.51-6.317,6.836-10.879,6.053s-7.305-5.245-12.938-7.849-13.716,0-13.615,2.331,3.108,2.673,9.216,9.123c3.948,4.142,6.792,12.372,15.068,19.125,4.157,3.387,12.386,13.147,12.386,13.147Z" transform="translate(-201.992 -4143.965)" fill="#ffbf9d"/>
        <path id="Trazado_99334" data-name="Trazado 99334" d="M419.888,4172.949c-5.564-5.2-18.58-13.8-29.608-15.06-7.452-.863-27.866,16.521-26.033,20.8s5.813,3.28,11.54,1.057c2.083-.778,12.434-7.825,14.959-5.937,3.668,2.712,10.227,13.522,10.227,13.522Z" transform="translate(-214.406 -4143.898)" fill="#ffbf9d"/>
        <path id="Trazado_99335" data-name="Trazado 99335" d="M407.181,4176.938c1.656-5.517,7.336-9.7,13.125-13.335.093-.062.187.077.093.133-1.468.931-10.529,8.307-13.125,13.256C407.243,4177.046,407.165,4176.992,407.181,4176.938Z" transform="translate(-255.823 -4144.002)" fill="#344154"/>
        <path id="Trazado_99336" data-name="Trazado 99336" d="M414.239,4172.949c-5.564-5.2-18.58-13.8-29.608-15.06-7.452-.864-22.17,18.44-20.344,22.729s7.654,3.163,13.413-.668c1.865-1.244,7.483-7.833,10.032-5.953,3.676,2.711,12.659,9.481,12.659,9.481Z" transform="translate(-208.818 -4143.899)" fill="#ffbf9d"/>
        <path id="Trazado_99337" data-name="Trazado 99337" d="M414.843,4179.235c-.886-.777-1.2-1.1-2.1-1.9s-1.811-1.554-2.766-2.331a9.056,9.056,0,0,0-2.658-1.664,4.622,4.622,0,0,0-2.946.163c-2.144.777-3.768,2.674-5.354,4.228-1.771,1.725-5.587,4.771-8.983,5.269a6.725,6.725,0,0,1-2.782,0,4.237,4.237,0,0,1-1.888-.848c-2.051-2.059-.979-5.292.342-7.77,2.471-4.539,6.373-8.37,10.258-11.656.956-.816,1.935-1.609,2.906-2.4a10.1,10.1,0,0,1,3.715-2.184c2.293-.606,6.652.778,8,1.165.1,0,.132-.13,0-.163-1.632-.52-5.867-2.479-9.519-1.335a12.04,12.04,0,0,0-3.52,2.285c-1.1.846-2.269,1.818-3.365,2.773a53.765,53.765,0,0,0-5.984,5.991,22.421,22.421,0,0,0-4.368,6.939,6.573,6.573,0,0,0,1.3,6.706c1.445,1.423,3.707,1.274,4.732,1.151a11.236,11.236,0,0,0,2.914-.778,46.793,46.793,0,0,0,5.868-3.488c1.8-1.313,3.264-3.109,5.168-4.29a3.993,3.993,0,0,1,3.046-.576,10.382,10.382,0,0,1,2.766,1.468,32.046,32.046,0,0,1,4.881,3.466C414.944,4179.795,415.216,4179.578,414.843,4179.235Z" transform="translate(-227.866 -4143.892)" fill="#344154"/>
        <path id="Trazado_99338" data-name="Trazado 99338" d="M395.105,4177.441c-2.214-2.58-7.771-14.143-11.112-17.275s-17.391-13.288-22.264-11.438c-6.123,2.331,3.373,12,7.88,15.822s5.992,11.928,5.992,11.928Z" transform="translate(-185.714 -4143.729)" fill="#ffbf9d"/>
        <path id="Trazado_99339" data-name="Trazado 99339" d="M379.925,4158.189c1.554,1.182,3.015,2.556,4.445,3.885a38.253,38.253,0,0,1,4.01,3.886,16.721,16.721,0,0,1,2.565,4.872,25.608,25.608,0,0,1,.777,2.6c.218.877.419,1.951.691,2.9,0,.1-.124.164-.155.055a42.688,42.688,0,0,0-2.028-5.05,23.26,23.26,0,0,0-2.922-4.795c-2.332-2.922-5.237-5.309-7.585-8.214C379.638,4158.235,379.808,4158.1,379.925,4158.189Z" transform="translate(-201.97 -4143.904)" fill="#344154"/>
        <path id="Trazado_99340" data-name="Trazado 99340" d="M422.58,4195.295a8.086,8.086,0,0,1-5.735-1.935c-1.492-1.118-2.914-2.331-4.414-3.443a19.279,19.279,0,0,0-4.78-2.819,22.263,22.263,0,0,0-6.139-1.027,12,12,0,0,0-5.906.864c-1.507.714-3.109,2.277-2.277,4.111a7.163,7.163,0,0,0,1.695,2.16,17.729,17.729,0,0,0,2.1,1.709c1.485,1.066,3.063,2.021,4.445,3.233a28.314,28.314,0,0,1,4.461,5.843c.506.777,3.73,5.86,4.958,7.592a30.73,30.73,0,0,0,3.457,4.134,42.657,42.657,0,0,0,3.972,3.232,25.1,25.1,0,0,1,4.142,3.707c.054.071.147,0,.109-.093-1.554-2.86-4.4-4.779-6.994-6.675-3.319-2.454-10.685-15.137-12.022-16.861-2.222-2.867-5.595-4.243-8.128-6.739-.583-.574-1.477-1.39-1.461-2.291a2.539,2.539,0,0,1,1.554-1.935,10.261,10.261,0,0,1,5.781-.676,26.265,26.265,0,0,1,5.89.971,19.416,19.416,0,0,1,4.709,2.462c1.663,1.151,3.256,2.333,5,3.373a8.147,8.147,0,0,0,5.626,1.259C422.72,4195.428,422.674,4195.288,422.58,4195.295Z" transform="translate(-244.607 -4144.409)" fill="#344154"/>
        <path id="Trazado_99341" data-name="Trazado 99341" d="M421.021,4168.591c1.328-.652,2.65-1.359,4-1.974v-.062c-1.6.637-3.248,1.166-4.856,1.787a4.962,4.962,0,0,0-3.109,2.541,3.748,3.748,0,0,0,.777,3.669,10.042,10.042,0,0,0,3.512,2.378c.071.039.125-.071.055-.109-1.935-1.119-4.935-3.373-3.357-5.945A6.819,6.819,0,0,1,421.021,4168.591Z" transform="translate(-269.606 -4144.056)" fill="#344154"/>
        <path id="Trazado_99342" data-name="Trazado 99342" d="M420.815,4181.676a8.561,8.561,0,0,1-4.538-.777,3.237,3.237,0,0,1-1.655-2.456,1.617,1.617,0,0,1,.147-1.1c.063-.078-.085-.147-.108-.055a4.925,4.925,0,0,1-.242.59,2.561,2.561,0,0,0-.116.528,2.868,2.868,0,0,0,.085,1.065,3.446,3.446,0,0,0,1.344,1.857,5.763,5.763,0,0,0,5.1.481A.072.072,0,0,0,420.815,4181.676Z" transform="translate(-263.057 -4144.25)" fill="#344154"/>
        <path id="Trazado_99343" data-name="Trazado 99343" d="M319.226,4231.526c3.311,11.944,28.473,75.643,35.467,84.633s24,10.926,28.752-5.323-19.971-93.912-25.193-106.065C355.338,4198.011,318.037,4227.2,319.226,4231.526Z" transform="translate(-136.743 -4144.73)" fill="#ffbf9d"/>
        <path id="Trazado_99344" data-name="Trazado 99344" d="M318.638,4239.708l49.376-28.634s21.122,72.447,21.495,94.788c.272,16.032-18.945,28.015-34.129,6.341S318.638,4239.708,318.638,4239.708Z" transform="translate(-141.656 -4144.864)" fill="#ef9548"/>
        <path id="Trazado_99345" data-name="Trazado 99345" d="M363.017,4212.007a12.97,12.97,0,0,1,1.826,2.931,12.514,12.514,0,0,1,1.049,3.4,12.459,12.459,0,0,1-1.888-3.015,12.644,12.644,0,0,1-1.041-3.318h.054Zm15.915,69.083a12.6,12.6,0,0,1,1.049,3.4,12.406,12.406,0,0,1-1.888-3.016,12.577,12.577,0,0,1-1.057-3.418A12.993,12.993,0,0,1,378.932,4281.09Zm3.652,29.787a12.5,12.5,0,0,1,1.057,3.4,12.449,12.449,0,0,1-1.881-3.022,12.775,12.775,0,0,1-1.056-3.4,12.424,12.424,0,0,1,1.88,3.024Zm-29.793-10.429a12.513,12.513,0,0,1,1.056,3.4,13.673,13.673,0,0,1-2.945-6.426,12.632,12.632,0,0,1,1.888,3.023Zm-16.6-72.9v.217l-.133-.162Zm.451,35.816a12.328,12.328,0,0,1,1.057,3.4,12.427,12.427,0,0,1-1.888-3.022,12.17,12.17,0,0,1-1.057-3.4,12.445,12.445,0,0,1,1.888,2.992Zm22.769-8.113a12.241,12.241,0,0,1,1.057,3.38,13.876,13.876,0,0,1-2.945-6.426,12.63,12.63,0,0,1,1.888,3.022Zm-16.91-8.585a12.512,12.512,0,0,1,3.4-1.058,12.3,12.3,0,0,1-3.015,1.9,12.554,12.554,0,0,1-3.4,1.024,12.612,12.612,0,0,1,3.014-1.889Zm16.972,36.833a12.6,12.6,0,0,1,3.4-1.049,12.445,12.445,0,0,1-3.015,1.888,12.579,12.579,0,0,1-3.4,1.057A12.846,12.846,0,0,1,359.473,4283.5Zm7.383-45.521a12.43,12.43,0,0,1,3.4-1.058,13.681,13.681,0,0,1-6.426,2.946,12.548,12.548,0,0,1,3.023-1.858Zm3.885,61.147a12.657,12.657,0,0,1,1.663-3.155,13.721,13.721,0,0,1-2.456,6.629,12.621,12.621,0,0,1,.753-3.442Zm-19.358-29.613a12.574,12.574,0,0,1,1.624-3.187,12.607,12.607,0,0,1-.777,3.473,12.419,12.419,0,0,1-1.663,3.155A12.617,12.617,0,0,1,351.384,4269.513Zm-11.835,13.342a12.618,12.618,0,0,1,3.109,1.656,13.654,13.654,0,0,1-6.621-2.456,12.332,12.332,0,0,1,3.512.769Zm32.98-17.329a12.365,12.365,0,0,1,3.109,1.663,12.947,12.947,0,0,1-3.474-.777,12.432,12.432,0,0,1-3.109-1.664A12.366,12.366,0,0,1,372.529,4265.526ZM353.2,4229.289a12.657,12.657,0,0,1,3.155,1.664,12.713,12.713,0,0,1-3.473-.777,12.477,12.477,0,0,1-3.155-1.663A12.606,12.606,0,0,1,353.2,4229.289Zm-28.628,11.564a12.577,12.577,0,0,1,3.109,1.664,12.642,12.642,0,0,1-3.466-.778,12.26,12.26,0,0,1-3.155-1.663A12.642,12.642,0,0,1,324.574,4240.854Zm41.482,75.377a12.618,12.618,0,0,1,3.108,1.663,12.577,12.577,0,0,1-3.466-.777,12.292,12.292,0,0,1-3.155-1.664,12.369,12.369,0,0,1,3.513.793Z" transform="translate(-138.167 -4144.88)" fill="#fff"/>
        <path id="Trazado_99346" data-name="Trazado 99346" d="M339.367,4248.72c7.476-4.017,37.487-21.549,43.712-25.775.435-.3.35-.645-.139-.4-22.723,11.469-36.578,21.51-43.743,25.854A.181.181,0,0,0,339.367,4248.72Z" transform="translate(-155.61 -4145.069)" fill="#344154"/>
        <path id="Trazado_99347" data-name="Trazado 99347" d="M387.642,4287.373c-5.215-9.791-10.226-19.684-14.765-29.825q-1.888-4.259-3.7-8.548c-1.159-2.751-2.332-5.509-3.373-8.307,1.033-.724,5.571-3.691,6.061-4.151a.2.2,0,0,0-.2-.325c-.606.225-5.875,3.28-6.994,4.11-.163.117,2.083,5.572,3.109,8.183s2.067,5.207,3.155,7.772q3.233,7.667,6.839,15.159c2.587,5.395,5.291,10.709,8.159,15.94C388.435,4291.887,394.38,4299.985,387.642,4287.373Z" transform="translate(-186.059 -4145.319)" fill="#344154"/>
      </g>
      <g id="freepik--Pencil--inject-11" transform="translate(30.545 196.699)">
        <path id="Trazado_99348" data-name="Trazado 99348" d="M581.038,4370.385s-9.683,1.313-10.041-5.361,9.41-6.412,9.41-6.412Z" transform="translate(-570.988 -4354.943)" fill="#dd6a57"/>
        <rect id="Rectángulo_5092" data-name="Rectángulo 5092" width="11.789" height="68.718" transform="matrix(-0.054, -0.999, 0.999, -0.054, 9.641, 15.485)" fill="#ef9548"/>
        <rect id="Rectángulo_5093" data-name="Rectángulo 5093" width="13.762" height="2.728" transform="matrix(-0.054, -0.999, 0.999, -0.054, 9.327, 16.497)" fill="#37474f"/>
        <rect id="Rectángulo_5094" data-name="Rectángulo 5094" width="13.762" height="2.735" transform="matrix(-0.054, -0.999, 0.999, -0.054, 12.341, 16.329)" fill="#37474f"/>
        <path id="Trazado_99349" data-name="Trazado 99349" d="M492,4354.876l8.7,3.972,2.875,1.3-2.72,1.632-8.229,4.88-1.771-1.1,1.648-1.258-1.772-1.1,1.648-1.251-1.771-1.08s1.616-1.25,1.639-1.282l-1.771-1.072,1.648-1.282-1.772-1.072Z" transform="translate(-414.349 -4354.876)" fill="#ebebeb"/>
        <path id="Trazado_99350" data-name="Trazado 99350" d="M490.35,4358.92l2.875,1.3-2.72,1.632Z" transform="translate(-403.997 -4354.949)" fill="#37474f"/>
      </g>
      <g id="freepik--Calculator--inject-11" transform="translate(251.216 185.765)">
        <path id="Trazado_99351" data-name="Trazado 99351" d="M442.415,4348.5l10.063,25.987h-91.86l10.98-25.955Z" transform="translate(-360.618 -4348.497)" fill="#ef9548"/>
        <path id="Trazado_99352" data-name="Trazado 99352" d="M443.146,4350.421l9.333,24.1v4.405h-91.86v-4.405l10.188-24.074Z" transform="translate(-360.618 -4348.532)" fill="#ef9548"/>
        <path id="Trazado_99353" data-name="Trazado 99353" d="M442.415,4348.5l10.063,25.987h-91.86l10.98-25.955Z" transform="translate(-360.618 -4348.497)" fill="#ef9548" opacity="0.1" style="isolation: isolate"/>
        <path id="Trazado_99354" data-name="Trazado 99354" d="M396.665,4367.84l-.575,5H384.931l1.072-5Z" transform="translate(-361.059 -4348.848)" fill="#fff"/>
        <path id="Trazado_99355" data-name="Trazado 99355" d="M397.348,4362.078l-.583,5H386.173l1.08-5Z" transform="translate(-361.081 -4348.742)" fill="#fff"/>
        <path id="Trazado_99356" data-name="Trazado 99356" d="M398.023,4356.316l-.575,5H387.416l1.08-5Z" transform="translate(-361.104 -4348.639)" fill="#ef9548"/>
        <path id="Trazado_99357" data-name="Trazado 99357" d="M398.707,4350.556l-.583,4.988-9.457.009,1.08-5Z" transform="translate(-361.126 -4348.535)" fill="#ef9548"/>
        <path id="Trazado_99358" data-name="Trazado 99358" d="M409.133,4367.84l-.008,5H397.966l.505-5Z" transform="translate(-361.295 -4348.848)" fill="#37474f"/>
        <path id="Trazado_99359" data-name="Trazado 99359" d="M409.143,4362.078v5H398.552l.505-5Z" transform="translate(-361.305 -4348.742)" fill="#37474f"/>
        <path id="Trazado_99360" data-name="Trazado 99360" d="M409.161,4356.316v4.99H399.129l.505-4.99Z" transform="translate(-361.316 -4348.639)" fill="#37474f"/>
        <path id="Trazado_99361" data-name="Trazado 99361" d="M409.243,4350.547v5h-9.457l.5-4.988Z" transform="translate(-361.328 -4348.535)" fill="#fff"/>
        <path id="Trazado_99362" data-name="Trazado 99362" d="M421.591,4367.84l.567,5H411l-.07-5Z" transform="translate(-361.53 -4348.848)" fill="#37474f"/>
        <path id="Trazado_99363" data-name="Trazado 99363" d="M420.945,4362.078l.567,4.989-10.592.008-.07-5Z" transform="translate(-361.528 -4348.742)" fill="#37474f"/>
        <path id="Trazado_99364" data-name="Trazado 99364" d="M420.3,4356.308l.567,5H410.841l-.07-4.989Z" transform="translate(-361.527 -4348.638)" fill="#37474f"/>
        <path id="Trazado_99365" data-name="Trazado 99365" d="M419.652,4350.547l.567,5h-9.457l-.07-5Z" transform="translate(-361.525 -4348.535)" fill="#fff"/>
        <path id="Trazado_99366" data-name="Trazado 99366" d="M434.048,4367.84l1.142,5H424.024l-.637-5Z" transform="translate(-361.755 -4348.848)" fill="#37474f"/>
        <path id="Trazado_99367" data-name="Trazado 99367" d="M432.737,4362.07l1.142,5H423.288l-.645-4.989Z" transform="translate(-361.742 -4348.743)" fill="#37474f"/>
        <path id="Trazado_99368" data-name="Trazado 99368" d="M431.426,4356.308l1.142,5H422.544l-.645-5Z" transform="translate(-361.728 -4348.638)" fill="#37474f"/>
        <path id="Trazado_99369" data-name="Trazado 99369" d="M430.123,4350.54l1.142,5-9.465.007-.637-5Z" transform="translate(-361.715 -4348.535)" fill="#fff"/>
        <path id="Trazado_99370" data-name="Trazado 99370" d="M446.5,4367.84l1.717,4.99-11.159.007-1.22-5Z" transform="translate(-361.981 -4348.848)" fill="#37474f"/>
        <path id="Trazado_99371" data-name="Trazado 99371" d="M444.529,4362.07l1.717,5h-10.6l-1.212-5Z" transform="translate(-361.955 -4348.743)" fill="#37474f"/>
        <path id="Trazado_99372" data-name="Trazado 99372" d="M442.553,4356.3l1.717,5-10.025.007-1.22-5Z" transform="translate(-361.93 -4348.639)" fill="#fff"/>
        <path id="Trazado_99373" data-name="Trazado 99373" d="M440.585,4350.54l1.717,5h-9.457l-1.22-5Z" transform="translate(-361.904 -4348.535)" fill="#fff"/>
        <path id="Trazado_99374" data-name="Trazado 99374" d="M389.808,4371.111h0c-.443,0-.778-.139-.778-.341s.436-.342.871-.342h0c.443,0,.777.132.777.342S390.227,4371.111,389.808,4371.111Zm.085-.5h0c-.256,0-.474.061-.5.154s.187.155.436.155h0c.256,0,.473-.062.489-.155S390.142,4370.615,389.893,4370.615Zm2.083.255-2.68-.948a.067.067,0,0,1-.071-.078c.008-.032.093-.078.187-.078h.117l2.688.956a.075.075,0,0,1,.071.07c0,.022-.093.085-.195.085a.262.262,0,0,1-.117-.007Zm-.389-.637h0c-.443,0-.777-.14-.777-.342s.427-.342.854-.342h0c.436,0,.778.141.778.342s-.42.342-.855.342Zm.078-.505h0c-.256,0-.473.07-.489.163s.187.155.427.155h0c.256,0,.474-.062.49-.155s-.186-.163-.428-.163Z" transform="translate(-361.133 -4348.879)" fill="#37474f"/>
        <path id="Trazado_99375" data-name="Trazado 99375" d="M392.424,4360.123c-.816,0-1.414-.342-1.336-.777a.778.778,0,0,1,.4-.482.424.424,0,0,1,.326,0c.093.039.1.117,0,.163a.517.517,0,0,0-.28.334.357.357,0,0,0,.226.373,1.469,1.469,0,0,0,.691.157,1.751,1.751,0,0,0,.738-.157.571.571,0,0,0,.357-.373.349.349,0,0,0-.171-.334c-.062-.046-.039-.124.07-.163a.407.407,0,0,1,.319,0,.522.522,0,0,1,.248.482C393.964,4359.781,393.248,4360.123,392.424,4360.123Z" transform="translate(-361.17 -4348.684)" fill="#37474f"/>
        <path id="Trazado_99376" data-name="Trazado 99376" d="M393.953,4358.4h-2.394c-.125,0-.21-.054-.2-.116h0l.125-.667c0-.062.117-.117.241-.117s.218.055.21.117l-.1.559h.778l.078-.481c0-.063.124-.117.241-.117s.218.054.21.117l-.078.481h.777l.093-.559c0-.062.117-.117.24-.117s.21.055.2.117l-.1.667h0A.369.369,0,0,1,393.953,4358.4Z" transform="translate(-361.175 -4348.66)" fill="#37474f"/>
        <path id="Trazado_99377" data-name="Trazado 99377" d="M393.511,4353.737c-.778,0-1.322-.352-1.251-.777a.777.777,0,0,1,.388-.482.381.381,0,0,1,.3,0c.093.048.093.125,0,.171a.49.49,0,0,0-.272.335.4.4,0,0,0,.21.373,1.3,1.3,0,0,0,.644.146,1.552,1.552,0,0,0,.692-.146.6.6,0,0,0,.342-.373.35.35,0,0,0-.163-.335c-.055-.046,0-.123.07-.171a.345.345,0,0,1,.3,0,.513.513,0,0,1,.225.482C394.948,4353.386,394.28,4353.737,393.511,4353.737Z" transform="translate(-361.191 -4348.569)" fill="#37474f"/>
        <path id="Trazado_99378" data-name="Trazado 99378" d="M402.525,4369.921l2.65.522c.093,0,.147.053.147.1a.1.1,0,0,1,0,.047.45.45,0,0,1-.334.062l-2.331-.45v.536c0,.063-.125.117-.264.117s-.248-.053-.242-.117l.047-.715h0l.046-.046h.3Z" transform="translate(-361.371 -4348.886)" fill="#fff"/>
        <path id="Trazado_99379" data-name="Trazado 99379" d="M404.537,4364.16c.568,0,1.018.225,1,.5s-.482.5-1.049.5a1.434,1.434,0,0,1-.847-.226,1.2,1.2,0,0,1-.427.07c-.389,0-.7-.156-.692-.342s.343-.342.731-.342a1.172,1.172,0,0,1,.42.069A1.556,1.556,0,0,1,404.537,4364.16Zm0,.225c-.3,0-.568.125-.574.272s.241.264.551.272.56-.124.568-.272-.248-.272-.552-.272Zm-1.3.39c.139,0,.248-.055.256-.117s-.109-.117-.242-.117-.241.055-.241.117.093.085.218.085Z" transform="translate(-361.377 -4348.781)" fill="#fff"/>
        <path id="Trazado_99380" data-name="Trazado 99380" d="M403.868,4359.377c-.552,0-.98-.225-.964-.5s.42-.475.917-.5h.241a4.844,4.844,0,0,1,.824.07,1.65,1.65,0,0,1,.684.273.429.429,0,0,1,.179.31c0,.062-.093.118-.226.118s-.217-.048-.225-.11a.264.264,0,0,0-.109-.194.857.857,0,0,0-.28-.132h-.1a.3.3,0,0,1,.071.194C404.863,4359.152,404.412,4359.377,403.868,4359.377Zm0-.225c.295,0,.544-.125.552-.279s-.226-.272-.521-.272-.536.124-.544.272.226.279.521.279Z" transform="translate(-361.384 -4348.677)" fill="#fff"/>
        <path id="Trazado_99381" data-name="Trazado 99381" d="M404.7,4353.531c-.125,0-.226-.055-.226-.117v-.652c0-.062.117-.125.242-.125s.217.063.217.125v.652C404.938,4353.476,404.829,4353.531,404.7,4353.531Z" transform="translate(-361.413 -4348.572)" fill="#37474f"/>
        <path id="Trazado_99382" data-name="Trazado 99382" d="M417.116,4369.818c.139,0,.256.047.256.117h.342c.14,0,.249.055.257.117s-.1.117-.241.117h-.342l.046.645h0a.08.08,0,0,1-.054.069.444.444,0,0,1-.35,0l-2.138-.776h1.975C416.868,4369.866,416.977,4369.818,417.116,4369.818Zm-1.344.365,1.15.412v-.412Z" transform="translate(-361.6 -4348.884)" fill="#fff"/>
        <path id="Trazado_99383" data-name="Trazado 99383" d="M415.713,4364.338a1.7,1.7,0,0,1,.778-.156,1.934,1.934,0,0,1,.777.156c.218.1.327.234.335.366h0c0,.131-.086.264-.288.365a.444.444,0,0,1-.35,0c-.1-.046-.1-.125,0-.171s.171-.125.163-.194a.286.286,0,0,0-.187-.2,1.029,1.029,0,0,0-.412-.078.938.938,0,0,0-.411.078.23.23,0,0,0-.155.2c0,.07.062.139.179.194s.108.125,0,.171h-.2l-1.127-.063a.32.32,0,0,1-.171-.054h0a.1.1,0,0,1,0-.054v-.613c0-.071.1-.125.242-.125s.241.054.241.125v.5h.427a.247.247,0,0,1-.046-.14C415.411,4364.572,415.5,4364.441,415.713,4364.338Z" transform="translate(-361.597 -4348.78)" fill="#fff"/>
        <path id="Trazado_99384" data-name="Trazado 99384" d="M416.087,4358.366c.544,0,1,.227,1.018.506s-.35.474-.847.5h-.241a4.327,4.327,0,0,1-.839-.079,1.674,1.674,0,0,1-.715-.263.5.5,0,0,1-.21-.312c0-.069.085-.116.21-.124s.226.047.24.11a.288.288,0,0,0,.125.2,1.036,1.036,0,0,0,.3.125h.109a.322.322,0,0,1-.093-.2C415.124,4358.592,415.551,4358.366,416.087,4358.366Zm0,.233c-.288,0-.528.124-.52.273s.264.272.56.272.528-.117.513-.272-.241-.273-.536-.273Z" transform="translate(-361.59 -4348.675)" fill="#fff"/>
        <path id="Trazado_99385" data-name="Trazado 99385" d="M415.551,4353.481c0,.063-.085.109-.194.109s-.2-.047-.209-.109l-.047-.839c0-.054.085-.108.194-.108s.194.046.2.108Zm-1.041-.559h0c.139,0,.264.062.264.14s-.109.146-.249.146h0c-.139,0-.256-.061-.264-.146s.1-.14.242-.14Zm1.553,0h0c.14,0,.257.062.257.14s-.1.146-.242.146h0c-.147,0-.264-.069-.272-.146s.148-.14.288-.14Z" transform="translate(-361.59 -4348.57)" fill="#37474f"/>
        <path id="Trazado_99386" data-name="Trazado 99386" d="M427.775,4370.159h2.673c.14,0,.257.053.272.116s-.085.116-.225.116h-2.269l.117.077s.046.048.046.063,0,.077-.109.093a.443.443,0,0,1-.349,0l-.373-.257h.194Z" transform="translate(-361.831 -4348.89)" fill="#fff"/>
        <path id="Trazado_99387" data-name="Trazado 99387" d="M429.3,4364.144c.139,0,.248.054.264.117l.139.737h0a.076.076,0,0,1-.062.085.464.464,0,0,1-.342,0l-1.267-.621a1.048,1.048,0,0,0-.427-.085.821.821,0,0,0-.357.07c-.117.054-.164.125-.148.2s.07.124.171.178l.133.063c.1.047.1.116,0,.163a.466.466,0,0,1-.335,0l-.132-.062a.518.518,0,0,1-.326-.333.408.408,0,0,1,.279-.374,1.63,1.63,0,0,1,.669-.132,1.841,1.841,0,0,1,.778.171l.777.39-.085-.445A.315.315,0,0,1,429.3,4364.144Z" transform="translate(-361.814 -4348.78)" fill="#fff"/>
        <path id="Trazado_99388" data-name="Trazado 99388" d="M426.746,4358.554a1.421,1.421,0,0,1,.669-.131,1.766,1.766,0,0,1,.737.146c.218.1.343.234.365.365a.356.356,0,0,1-.225.366.394.394,0,0,1-.327,0c-.1-.045-.108-.117,0-.164a.21.21,0,0,0,.125-.2.324.324,0,0,0-.2-.193.838.838,0,0,0-.4-.086.647.647,0,0,0-.365.086c-.1.054-.14.124-.133.193s0,.062-.054.086h0a.426.426,0,0,1-.327,0l-.458-.21.054.335c0,.061-.078.117-.21.117s-.241-.056-.248-.117l-.1-.614c0-.07.085-.117.21-.117h.171l.575.264A.561.561,0,0,1,426.746,4358.554Z" transform="translate(-361.796 -4348.677)" fill="#fff"/>
        <path id="Trazado_99389" data-name="Trazado 99389" d="M425.795,4352.731l.669.249.583-.249a.361.361,0,0,1,.28,0s.054.047.054.072a.091.091,0,0,1-.062.092l-.49.21.568.2a.118.118,0,0,1,.1.085.21.21,0,0,1,0,.07.313.313,0,0,1-.272,0l-.684-.249-.582.249a.349.349,0,0,1-.28,0c-.071-.054-.063-.116,0-.155l.481-.2-.552-.21c-.093-.039-.124-.109-.07-.164A.333.333,0,0,1,425.795,4352.731Z" transform="translate(-361.794 -4348.574)" fill="#37474f"/>
        <path id="Trazado_99390" data-name="Trazado 99390" d="M442.856,4370.29c0-.086.109-.155.295-.155s.358.069.389.155-.109.157-.3.157S442.886,4370.375,442.856,4370.29Z" transform="translate(-362.108 -4348.889)" fill="#fff"/>
        <path id="Trazado_99391" data-name="Trazado 99391" d="M440.387,4365.208a3.771,3.771,0,0,1-1.08-.139c-.3-.085-.536-.226-.583-.389s.117-.3.365-.381a2.9,2.9,0,0,1,.988-.14,3.737,3.737,0,0,1,1.064.14c.3.085.552.226.6.381s-.116.3-.365.389A2.937,2.937,0,0,1,440.387,4365.208Zm-.241-.816a2.57,2.57,0,0,0-.778.094c-.163.062-.233.133-.209.194s.124.14.318.2a3.241,3.241,0,0,0,.778.1,2.561,2.561,0,0,0,.737-.1c.164-.063.226-.132.2-.2s-.117-.132-.326-.194a3.2,3.2,0,0,0-.723-.094Z" transform="translate(-362.033 -4348.78)" fill="#fff"/>
        <path id="Trazado_99392" data-name="Trazado 99392" d="M438.36,4359.284c-.124,0-.248-.054-.272-.124l-.179-.637c0-.071.071-.125.194-.125s.248.055.272.125l.187.637C438.586,4359.2,438.516,4359.284,438.36,4359.284Zm.778,0c-.14,0-.264-.054-.28-.124l-.194-.637c0-.071.078-.125.21-.125s.256.055.272.125l.195.637c.007.038-.047.124-.218.124Z" transform="translate(-362.018 -4348.677)" fill="#37474f"/>
        <path id="Trazado_99393" data-name="Trazado 99393" d="M437.072,4353.179l.093.3c0,.061-.062.108-.179.108s-.233-.047-.249-.108l-.085-.3h-.506c-.116,0-.233-.055-.248-.116s.062-.125.187-.125h.528l-.086-.294c0-.062.062-.117.179-.117s.226.055.241.117l.086.294h.536a.281.281,0,0,1,.256.117c0,.069-.063.125-.187.125Z" transform="translate(-361.982 -4348.569)" fill="#37474f"/>
        <path id="Trazado_99394" data-name="Trazado 99394" d="M390.625,4363.9c.1,0,.179.039.171.086l-.046.264c.606.108,2.192.38,2.65.443a.373.373,0,0,1,.14.046.064.064,0,0,1,.039.063s0,.054-.085.078-.607.279-.824.364a.816.816,0,0,1-.451.055c-.024-.016,0,0,0-.047s0-.054.07-.078l.21-.094.171-.078.163-.07.171-.077-2.5-.435h-.063s-.054-.048-.046-.07l.062-.343C390.438,4363.961,390.531,4363.9,390.625,4363.9Z" transform="translate(-361.157 -4348.776)" fill="#37474f"/>
        <path id="Trazado_99395" data-name="Trazado 99395" d="M384.128,4350.556l-6.03,21.967h-11.75l8.346-21.959Z" transform="translate(-360.722 -4348.535)" fill="#455a64"/>
        <path id="Trazado_99396" data-name="Trazado 99396" d="M374.2,4360.662h4.1c.217,0,.357.085.326.193s-.225.188-.443.188h-3.411l.109.14a.1.1,0,0,1,0,.1.372.372,0,0,1-.249.163.55.55,0,0,1-.5-.069l-.357-.42h.248Z" transform="translate(-360.856 -4348.718)" fill="#fff"/>
        <path id="Trazado_99397" data-name="Trazado 99397" d="M378.909,4358.612c.21,0,.342.086.311.2l-.373,1.226h0a.3.3,0,0,1-.163.14.7.7,0,0,1-.536,0l-1.508-1.033a1.081,1.081,0,0,0-.606-.141,1.892,1.892,0,0,0-.629.109.67.67,0,0,0-.4.335.247.247,0,0,0,.125.3l.155.109c.117.077.062.193-.117.271a.657.657,0,0,1-.536,0l-.155-.108a.458.458,0,0,1-.225-.56,1.22,1.22,0,0,1,.777-.613,3.124,3.124,0,0,1,1.166-.219,2.033,2.033,0,0,1,1.111.273l.963.66.226-.739C378.505,4358.7,378.7,4358.612,378.909,4358.612Z" transform="translate(-360.865 -4348.681)" fill="#fff"/>
        <path id="Trazado_99398" data-name="Trazado 99398" d="M377.008,4356.779a3.108,3.108,0,0,1,1.244-.25,2.112,2.112,0,0,1,1.088.25.528.528,0,0,1,.3.613,1.155,1.155,0,0,1-.676.605.642.642,0,0,1-.536,0c-.125-.077-.086-.2.085-.279a.616.616,0,0,0,.365-.326.289.289,0,0,0-.156-.335,1.181,1.181,0,0,0-.6-.14,1.679,1.679,0,0,0-.676.14.713.713,0,0,0-.38.327c0,.062-.071.109-.164.146h0a.665.665,0,0,1-.536,0l-.574-.35-.194.561c0,.109-.242.194-.451.194s-.35-.085-.311-.194l.357-1.026c0-.109.242-.194.443-.194a.626.626,0,0,1,.171,0h.085l.716.443A1.509,1.509,0,0,1,377.008,4356.779Z" transform="translate(-360.876 -4348.642)" fill="#fff"/>
        <path id="Trazado_99399" data-name="Trazado 99399" d="M379.463,4354.077c.2,0,.327.086.3.195v.038h.5c.2,0,.326.078.295.187s-.209.2-.411.2h-.5l-.342,1.087h0a.216.216,0,0,1-.117.125.629.629,0,0,1-.513,0l-2.587-1.283h0v-.039H378.9v-.039C379.113,4354.17,379.269,4354.077,379.463,4354.077Zm-2.16.615,1.383.691.225-.691Z" transform="translate(-360.898 -4348.599)" fill="#fff"/>
        <path id="Trazado_99400" data-name="Trazado 99400" d="M378.506,4352.316a2.836,2.836,0,0,1,1.2-.257,1.929,1.929,0,0,1,1.026.257.51.51,0,0,1,.279.6h0a1.091,1.091,0,0,1-.652.606.592.592,0,0,1-.514,0c-.116-.077-.078-.2.085-.278a.61.61,0,0,0,.357-.335.269.269,0,0,0-.147-.325,1.029,1.029,0,0,0-.56-.142,1.571,1.571,0,0,0-.653.142.6.6,0,0,0-.357.325.274.274,0,0,0,.14.335c.117.077.07.2-.093.278l-.093.039H378.3l-1.632-.1a.354.354,0,0,1-.225-.093h0a.069.069,0,0,1,0-.085l.357-1.025c0-.109.225-.194.427-.194s.327.085.288.194l-.3.854.621.039a.62.62,0,0,1,0-.233A1.155,1.155,0,0,1,378.506,4352.316Z" transform="translate(-360.904 -4348.563)" fill="#fff"/>
      </g>
      <g id="freepik--speech-bubble--inject-11" transform="translate(101.607 35.532)">
        <path id="Trazado_99401" data-name="Trazado 99401" d="M458.312,4129.757a25.939,25.939,0,0,0,41.4,20.835l12.737,3.241L507.16,4142a25.947,25.947,0,1,0-48.817-12.24Z" transform="translate(-458.312 -4103.67)" fill="#fff"/>
        <path id="Trazado_99402" data-name="Trazado 99402" d="M457.75,4129.754a26.075,26.075,0,0,0,3.846,13.624,29.656,29.656,0,0,0,2.059,2.93,29.169,29.169,0,0,0,2.479,2.587c.458.388.863.839,1.352,1.181l1.438,1.081c.474.357,1.01.645,1.508.964l.777.474c.256.147.536.271.778.4l1.616.776,1.686.629a11.868,11.868,0,0,0,1.717.521c.583.14,1.158.343,1.749.428a25.344,25.344,0,0,0,3.575.435,22.126,22.126,0,0,0,3.6,0,26,26,0,0,0,13.373-4.981l-.233.047,12.69,3.31.684.179-.288-.654-5.261-11.841v.325a25.693,25.693,0,0,0,3.108-11.43,26.134,26.134,0,1,0-52.251-.988Zm0,0a26,26,0,0,1,10.032-20.39,26.342,26.342,0,0,1,10.568-4.856,25.856,25.856,0,0,1,11.6.319,25.5,25.5,0,0,1,10.288,5.316,26.726,26.726,0,0,1,6.885,9.255,25.64,25.64,0,0,1-.854,22.425l-.085.163.07.165,5.323,11.819.4-.467-12.729-3.185h-.125l-.108.077a25.658,25.658,0,0,1-13.071,5.059,22.636,22.636,0,0,1-3.551.053,25.8,25.8,0,0,1-3.536-.379c-.591-.086-1.158-.272-1.741-.4a11.965,11.965,0,0,1-1.709-.5l-1.679-.6-1.608-.777c-.272-.132-.544-.25-.777-.389l-.778-.458c-.5-.32-1.041-.591-1.515-.941L467.6,4150a16.046,16.046,0,0,1-1.352-1.166,29.35,29.35,0,0,1-2.487-2.564,28.2,28.2,0,0,1-2.067-2.916A26,26,0,0,1,457.75,4129.754Z" transform="translate(-457.75 -4103.667)" fill="#344154"/>
        <path id="Trazado_99403" data-name="Trazado 99403" d="M483.99,4143.708l-9.659-9.769,3.248-3.2,5.634,5.706,11.718-18.363,3.839,2.448Z" transform="translate(-460.359 -4103.929)" fill="#ef9548"/>
      </g>
    </g>
  </g>
</svg>
