<svg xmlns="http://www.w3.org/2000/svg" width="259.992" height="280.132" viewBox="0 0 259.992 280.132">
  <g id="_40350255_8810412" data-name="40350255_8810412" transform="translate(-43.338 -33.352)">
    <g id="OBJECT" transform="translate(43.338 33.352)">
      <g id="Grupo_1111499" data-name="Grupo 1111499">
        <g id="Grupo_1111480" data-name="Grupo 1111480" transform="translate(0.888 5.386)">
          <g id="Grupo_1111479" data-name="Grupo 1111479" transform="translate(10.229)">
            <path id="Trazado_900484" data-name="Trazado 900484" d="M313.875,138.821c-4.147,29.034-14.591,37.368-11.985,58.924,1.768,14.619,9.988,26.618,16.069,43.617,7.516,21.01-1.761,61.448-55.321,63.513-29.881,1.152-60.613-15.871-89.656-8.857-51.989,12.555-74.563-13.877-78.191-27.894-11.308-43.684,28.785-50.017,9.475-82.943C76.1,137.156,80.411,61.046,170.883,86.331c47.453,13.262,85.277-41.167,123.282-15.193C319.559,88.494,316.886,117.745,313.875,138.821Z" transform="translate(-88.91 -64.016)" fill="#e6dcfb"/>
          </g>
          <circle id="Elipse_12756" data-name="Elipse 12756" cx="8.523" cy="8.523" r="8.523" transform="translate(3.07 9.946)" fill="#e6dcfb"/>
          <path id="Trazado_900485" data-name="Trazado 900485" d="M83.806,114.941a4.559,4.559,0,1,1-4.559-4.559A4.559,4.559,0,0,1,83.806,114.941Z" transform="translate(-74.689 -77.033)" fill="#e6dcfb"/>
          <circle id="Elipse_12757" data-name="Elipse 12757" cx="5.321" cy="5.321" r="5.321" transform="translate(241.994 168.281)" fill="#e6dcfb"/>
          <path id="Trazado_900486" data-name="Trazado 900486" d="M426.83,322.21a3.085,3.085,0,1,1-3.085-3.085A3.085,3.085,0,0,1,426.83,322.21Z" transform="translate(-171.817 -135.636)" fill="#e6dcfb"/>
        </g>
        <g id="Grupo_1111481" data-name="Grupo 1111481" transform="translate(43.587 18.556)">
          <path id="Trazado_900487" data-name="Trazado 900487" d="M279.52,264.1l-120.86-.282a4.136,4.136,0,0,1-4.144-4.127L154.9,86.472a4.135,4.135,0,0,1,4.127-4.144l120.86.282a4.135,4.135,0,0,1,4.144,4.127l-.381,173.22A4.083,4.083,0,0,1,279.52,264.1Z" transform="translate(-139.799 -82.328)" fill="#8454ee"/>
          <path id="Trazado_900488" data-name="Trazado 900488" d="M144.87,94.413,144.5,255.193a5.442,5.442,0,0,0,5.427,5.44l118.817.229a4.765,4.765,0,0,0,4.823-4.782l.367-161.567a4.574,4.574,0,0,0-4.572-4.564l-119.839-.256A4.629,4.629,0,0,0,144.87,94.413Zm14.438,149.305a3.653,3.653,0,0,1-4.144-4.127,3.6,3.6,0,0,1,2.986-3,3.653,3.653,0,0,1,4.144,4.127A3.6,3.6,0,0,1,159.307,243.719Zm.047-26.536a3.653,3.653,0,0,1-4.144-4.127,3.6,3.6,0,0,1,2.986-3,3.653,3.653,0,0,1,4.144,4.127A3.6,3.6,0,0,1,159.355,217.183Zm.042-21.889a3.653,3.653,0,0,1-4.144-4.127,3.6,3.6,0,0,1,2.986-3,3.611,3.611,0,0,1,1.159,7.129Zm.055-26.614a3.653,3.653,0,0,1-4.144-4.127,3.6,3.6,0,0,1,2.986-3,3.653,3.653,0,0,1,4.144,4.127A3.521,3.521,0,0,1,159.453,168.68Zm.1-24.719a3.653,3.653,0,0,1-4.144-4.127,3.6,3.6,0,0,1,2.986-3,3.611,3.611,0,0,1,1.159,7.129Zm.047-26.536a3.653,3.653,0,0,1-4.144-4.127,3.6,3.6,0,0,1,2.986-3,3.611,3.611,0,0,1,1.158,7.129Z" transform="translate(-136.989 -84.396)" fill="#cdb9f8"/>
          <path id="Trazado_900489" data-name="Trazado 900489" d="M273.938,123.99C260.738,151.3,222.654,220,162.3,249.4c-.016.156.046.32.03.475a3.545,3.545,0,0,1-3.6,3.568,3.479,3.479,0,0,1-2.632-1.216c-3.793,1.658-7.64,3.075-11.635,4.4v8.427a5.145,5.145,0,0,0,5.217,5.182l123.853.274Z" transform="translate(-136.979 -94.024)" fill="#8454ee" opacity="0.3"/>
          <path id="Trazado_900490" data-name="Trazado 900490" d="M141.9,135.939c-4.354-1.313-7.455-4.861-7.436-8.876-.017-5.2,5.069-9.481,11.368-9.465,5.2-.017,9.55,2.871,10.872,6.865" transform="translate(-134.169 -92.23)" fill="none" stroke="#506ed8" stroke-linecap="round" stroke-miterlimit="10" stroke-width="2"/>
          <path id="Trazado_900491" data-name="Trazado 900491" d="M141.782,171.184c-4.354-1.313-7.455-4.861-7.436-8.876-.017-5.2,5.069-9.481,11.367-9.465,5.2-.017,9.55,2.871,10.872,6.865" transform="translate(-134.137 -102.125)" fill="none" stroke="#506ed8" stroke-linecap="round" stroke-miterlimit="10" stroke-width="2"/>
          <path id="Trazado_900492" data-name="Trazado 900492" d="M141.72,206.982c-4.354-1.313-7.455-4.861-7.436-8.876-.017-5.2,5.069-9.481,11.368-9.465,5.2-.017,9.55,2.871,10.872,6.865" transform="translate(-134.119 -112.175)" fill="none" stroke="#506ed8" stroke-linecap="round" stroke-miterlimit="10" stroke-width="2"/>
          <path id="Trazado_900493" data-name="Trazado 900493" d="M141.605,242.228c-4.354-1.313-7.455-4.861-7.436-8.876-.017-5.2,5.069-9.481,11.367-9.465,5.2-.017,9.55,2.871,10.872,6.865" transform="translate(-134.087 -122.07)" fill="none" stroke="#506ed8" stroke-linecap="round" stroke-miterlimit="10" stroke-width="2"/>
          <path id="Trazado_900494" data-name="Trazado 900494" d="M141.523,272.878c-4.354-1.313-7.455-4.861-7.436-8.876-.017-5.2,5.069-9.481,11.367-9.465,5.2-.017,9.55,2.871,10.872,6.865" transform="translate(-134.064 -130.674)" fill="none" stroke="#506ed8" stroke-linecap="round" stroke-miterlimit="10" stroke-width="2"/>
          <path id="Trazado_900495" data-name="Trazado 900495" d="M141.491,309.446c-4.354-1.313-7.455-4.861-7.436-8.876-.017-5.2,5.069-9.481,11.368-9.465,5.2-.017,9.55,2.871,10.872,6.865" transform="translate(-134.055 -140.941)" fill="none" stroke="#506ed8" stroke-linecap="round" stroke-miterlimit="10" stroke-width="2"/>
          <line id="Línea_563" data-name="Línea 563" x2="81.415" y2="0.17" transform="translate(34.212 32.764)" fill="none" stroke="#fff" stroke-linecap="round" stroke-miterlimit="10" stroke-width="2"/>
          <line id="Línea_564" data-name="Línea 564" x2="81.415" y2="0.169" transform="translate(34.135 58.825)" fill="none" stroke="#fff" stroke-linecap="round" stroke-miterlimit="10" stroke-width="2"/>
          <line id="Línea_565" data-name="Línea 565" x2="81.415" y2="0.169" transform="translate(34.078 83.154)" fill="none" stroke="#fff" stroke-linecap="round" stroke-miterlimit="10" stroke-width="2"/>
          <line id="Línea_566" data-name="Línea 566" x2="81.493" y2="0.177" transform="translate(34.217 107.11)" fill="none" stroke="#fff" stroke-linecap="round" stroke-miterlimit="10" stroke-width="2"/>
          <line id="Línea_567" data-name="Línea 567" x2="81.415" y2="0.17" transform="translate(33.966 131.025)" fill="none" stroke="#fff" stroke-linecap="round" stroke-miterlimit="10" stroke-width="2"/>
          <line id="Línea_568" data-name="Línea 568" x2="81.493" y2="0.178" transform="translate(33.897 157.007)" fill="none" stroke="#fff" stroke-linecap="round" stroke-miterlimit="10" stroke-width="2"/>
        </g>
        <g id="Grupo_1111495" data-name="Grupo 1111495" transform="translate(104.277 60.598)">
          <g id="Grupo_1111482" data-name="Grupo 1111482" transform="translate(85.407 14.675)">
            <path id="Trazado_900496" data-name="Trazado 900496" d="M360.944,193.916c-.272.431-.458-1.192-.981-.988-7.826,3.1-13.644-4.063-14.15-7.7s-8.618-1.493-8.636-7.856,2.937-8.221,2.639-11.487c0,0,.425-.806,1.06-1.751,1.33-1.966,3.592-4.529,4.943-1.69,2,4.209,3.452,3.877,7.639,4.649s5.917,3.837,4.482,5.856c-1.753,2.458-.163,2.889,3.742,5.392C369.408,183.293,364.625,188.092,360.944,193.916Z" transform="translate(-337.177 -161.182)" fill="#7c3301"/>
            <path id="Trazado_900497" data-name="Trazado 900497" d="M360.859,194.1a14.645,14.645,0,0,1-1.465.659c-7.826,3.1-13.074-4.745-13.58-8.379s-8.618-1.493-8.636-7.856,2.937-8.221,2.639-11.487c0,0,.425-.806,1.06-1.751,5.424,2.1,6.815,5.132,6.1,7.616-.913,3.167,1.482,4.747,7.5,8.463C361.623,185.783,361.12,190.5,360.859,194.1Z" transform="translate(-337.177 -162.334)" fill="#602700"/>
          </g>
          <g id="Grupo_1111483" data-name="Grupo 1111483" transform="translate(72.851)">
            <path id="Trazado_900498" data-name="Trazado 900498" d="M347.552,160.62c-3.017,4.918-23.034-2.359-23.034-2.359-3.247-1.2-4.837-.811-4.589-2.807s2.352-3.644,2.49-5.743c.053-.815.542-1.674.591-2.835.07-1.835,1.351-3.892,3.947-5.261a9.108,9.108,0,0,1,7.18-.194c1.649.715,3.582-.046,5.372-.211a9.646,9.646,0,0,1,5.909,1.635c2.624,1.584,3.893,5.791,4.137,8.953A15.216,15.216,0,0,1,347.552,160.62Z" transform="translate(-319.772 -140.779)" fill="#7c3301"/>
            <path id="Trazado_900499" data-name="Trazado 900499" d="M347.5,161.931c-3.017,4.918-19.365,9.087-19.365,9.087a13.073,13.073,0,0,1-8.257-14.254c.287-1.991,2.053-3.6,2.443-5.5a17.615,17.615,0,0,0,.637-3.075c4.728-4.328,11.566-2.95,14.793.156,3.353,3.228,6.649,9.524,11.751,4.765A15.217,15.217,0,0,1,347.5,161.931Z" transform="translate(-319.72 -142.09)" fill="#602700"/>
          </g>
          <g id="Grupo_1111485" data-name="Grupo 1111485" transform="translate(75.321 7.848)">
            <path id="Trazado_900500" data-name="Trazado 900500" d="M346.008,185a8.5,8.5,0,0,1-5.9,6.363c-5.125,1.583-7.307-.827-7.381-3.06-.006-.158-.011-.314-.012-.476-.053-2.484.081-5.265-.124-10.177a9.151,9.151,0,0,1,.279-2.5c1.188-5.065,9.14-11.852,10.208-3.122A117.445,117.445,0,0,0,346.008,185Z" transform="translate(-325.803 -156.219)" fill="#ffa0a4"/>
            <path id="Trazado_900501" data-name="Trazado 900501" d="M332.721,190.688c-.053-2.484.081-5.265-.124-10.177a9.146,9.146,0,0,1,.279-2.5c2.761.278,6.247,1.567,6.408,4.183C339.522,186.1,338.54,190.49,332.721,190.688Z" transform="translate(-325.803 -159.078)" fill="#f48c93"/>
            <g id="Grupo_1111484" data-name="Grupo 1111484">
              <path id="Trazado_900502" data-name="Trazado 900502" d="M329.571,176.722c3.932.255,10.189-2.3,15.207-9.252,2.388-3.309-1.078-3.459-1.976-5.193a19.169,19.169,0,0,1-1.439-3.688c-.953-2.8-4.348-6.9-6.709-6.9-3.913,0-9.808,1.049-11.4,11.079a24.339,24.339,0,0,0,.35,6.729C324.572,174.007,327.006,176.556,329.571,176.722Z" transform="translate(-323.154 -151.69)" fill="#ffa0a4"/>
            </g>
            <path id="Trazado_900503" data-name="Trazado 900503" d="M349.935,170.761s.924-3.945,3.92-1.969" transform="translate(-330.672 -156.336)" fill="none" stroke="#dd7a81" stroke-linecap="round" stroke-linejoin="round" stroke-miterlimit="10" stroke-width="0.5"/>
            <path id="Trazado_900504" data-name="Trazado 900504" d="M353.419,170.615s.511-1.757-.8-2.439" transform="translate(-331.427 -156.318)" fill="none" stroke="#dd7a81" stroke-linecap="round" stroke-linejoin="round" stroke-miterlimit="10" stroke-width="0.5"/>
          </g>
          <path id="Trazado_900505" data-name="Trazado 900505" d="M348.471,167.522c.354-3.556,5.363-5.974,6.837-1.239,1.276,4.1-3.191,5.068-5.661,4.854Z" transform="translate(-254.941 -147.2)" fill="#ffa0a4"/>
          <path id="Trazado_900506" data-name="Trazado 900506" d="M328.125,164.392c.086.6-.109,1.12-.434,1.167s-.659-.4-.744-1,.109-1.12.434-1.167S328.039,163.795,328.125,164.392Z" transform="translate(-248.892 -147.127)" fill="#372834"/>
          <path id="Trazado_900507" data-name="Trazado 900507" d="M339.379,170.3a3.129,3.129,0,1,0,1.956-3.97A3.129,3.129,0,0,0,339.379,170.3Z" transform="translate(-252.341 -147.904)" fill="#f48c93"/>
          <path id="Trazado_900508" data-name="Trazado 900508" d="M330.027,166.949s-1.263,3.512-1.042,4.3,2.047-.214,2.047-.214" transform="translate(-249.463 -148.126)" fill="none" stroke="#dd7a81" stroke-linecap="round" stroke-linejoin="round" stroke-miterlimit="10" stroke-width="0.5"/>
          <path id="Trazado_900509" data-name="Trazado 900509" d="M323.119,168.424c0-.127.034-.394.034-.519a2.332,2.332,0,0,1,2.414,1.875,3.241,3.241,0,0,1-2.023,4.039A23.676,23.676,0,0,1,323.119,168.424Z" transform="translate(-247.823 -148.394)" fill="#f48c93"/>
          <path id="Trazado_900510" data-name="Trazado 900510" d="M327.309,159.774s.276-.211-.237-.441a2.669,2.669,0,0,0-2.762.407s-.312.323.238.42A5.052,5.052,0,0,0,327.309,159.774Z" transform="translate(-248.133 -145.929)" fill="#372834"/>
          <path id="Trazado_900511" data-name="Trazado 900511" d="M334.813,159.01s-.291-.191.205-.457a2.669,2.669,0,0,1,2.784.208s.334.3-.208.437A5.065,5.065,0,0,1,334.813,159.01Z" transform="translate(-251.083 -145.685)" fill="#372834"/>
          <path id="Trazado_900512" data-name="Trazado 900512" d="M350.472,168.891s1.228-3.667,4.182-1.081" transform="translate(-255.503 -148.108)" fill="none" stroke="#dd7a81" stroke-linecap="round" stroke-linejoin="round" stroke-miterlimit="10" stroke-width="0.5"/>
          <path id="Trazado_900513" data-name="Trazado 900513" d="M353.918,169.621s.814-1.828-.5-2.762" transform="translate(-256.329 -148.101)" fill="none" stroke="#dd7a81" stroke-linecap="round" stroke-linejoin="round" stroke-miterlimit="10" stroke-width="0.5"/>
          <path id="Trazado_900514" data-name="Trazado 900514" d="M337.087,164c.086.6-.109,1.12-.434,1.167s-.659-.4-.744-1,.109-1.12.434-1.167S337,163.4,337.087,164Z" transform="translate(-251.408 -147.017)" fill="#372834"/>
          <path id="Trazado_900515" data-name="Trazado 900515" d="M332.076,175.257a21.114,21.114,0,0,0,3.336-1.043s.258,2.1-1.086,2.427A1.855,1.855,0,0,1,332.076,175.257Z" transform="translate(-250.338 -150.165)" fill="#fff" stroke="#934735" stroke-linecap="round" stroke-linejoin="round" stroke-miterlimit="10" stroke-width="0.5"/>
          <path id="Trazado_900516" data-name="Trazado 900516" d="M320.247,430.2c-.012,4.444,1.28,11.113-1.608,11.107l-27.276-.056c-1.052,0-.756-3.025,2.14-3.708s12.232-5.61,12.938-7.372Z" transform="translate(-238.752 -222.024)" fill="#450023"/>
          <line id="Línea_569" data-name="Línea 569" x1="18.222" y1="0.104" transform="translate(63.521 216.47)" fill="none" stroke="#fff" stroke-linecap="round" stroke-linejoin="round" stroke-miterlimit="10" stroke-width="0.5"/>
          <path id="Trazado_900517" data-name="Trazado 900517" d="M373.4,430.2c.012,4.444-1.28,11.113,1.609,11.107l27.276-.056c1.052,0,.756-3.025-2.14-3.708s-12.232-5.61-12.938-7.372Z" transform="translate(-261.861 -222.024)" fill="#450023"/>
          <line id="Línea_570" data-name="Línea 570" y1="0.104" x2="18.221" transform="translate(111.29 216.47)" fill="none" stroke="#fff" stroke-linecap="round" stroke-linejoin="round" stroke-miterlimit="10" stroke-width="0.5"/>
          <path id="Trazado_900518" data-name="Trazado 900518" d="M369.737,381.533a1.548,1.548,0,0,1-.975,1.68,20.049,20.049,0,0,1-8.184,1.457c-5.76,0-8.469-1.321-9.511-2.034a1.592,1.592,0,0,1-.662-.926L326.69,285.166s-2.456,29.234-2.573,35.362c-.1,5.161-.695,53.22-.331,60.778a1.422,1.422,0,0,1-1.061,1.382,25.591,25.591,0,0,1-7.356,1.3,19.087,19.087,0,0,1-6.523-1.347,1.429,1.429,0,0,1-.942-1.142c-.692-5.916-4.854-42.816-5.835-53.557-.906-9.926-1.12-19.739-1.622-27.408-.091-1.369-.156-2.653-.189-3.842-.241-7.869.266-24.5,5.143-35.723l34.962-.657,7.452-.15c-.952,4.5.633,9.715,1.468,13.647C350.069,277.512,367.675,370.627,369.737,381.533Z" transform="translate(-241.392 -174.295)" fill="#6c27a8"/>
          <g id="Grupo_1111486" data-name="Grupo 1111486" transform="translate(60.624 90.207)">
            <path id="Trazado_900519" data-name="Trazado 900519" d="M359.445,266.195a10.861,10.861,0,0,0,5.212,8.441" transform="translate(-318.646 -266.195)" fill="none" stroke="#fff" stroke-linecap="round" stroke-linejoin="round" stroke-miterlimit="10" stroke-width="0.5"/>
            <path id="Trazado_900520" data-name="Trazado 900520" d="M302.721,274.764c4.675-.85,5.481-7.708,5.519-8.114" transform="translate(-302.721 -266.323)" fill="none" stroke="#fff" stroke-linecap="round" stroke-linejoin="round" stroke-miterlimit="10" stroke-width="0.5"/>
            <path id="Trazado_900521" data-name="Trazado 900521" d="M334.447,266.522a55.545,55.545,0,0,0-.306,8.206" transform="translate(-311.532 -266.287)" fill="none" stroke="#fff" stroke-linecap="round" stroke-linejoin="round" stroke-miterlimit="10" stroke-width="0.5"/>
            <path id="Trazado_900522" data-name="Trazado 900522" d="M334.581,276.525c2.433-.851,3.578-.731,3.7-1.52s.593-8.484.593-8.484" transform="translate(-311.665 -266.287)" fill="none" stroke="#fff" stroke-linecap="round" stroke-linejoin="round" stroke-miterlimit="10" stroke-width="0.5"/>
          </g>
          <path id="Trazado_900523" data-name="Trazado 900523" d="M335.741,292.786l-3.292-5.479.5,57.7Z" transform="translate(-250.443 -181.915)" fill="#4d1884"/>
          <g id="torso_3_" transform="translate(38.191 36.906)">
            <g id="Grupo_1111487" data-name="Grupo 1111487" transform="translate(0 4.136)">
              <path id="Trazado_900524" data-name="Trazado 900524" d="M288.407,197.84l-7.961,11.584c-2.752,3.694-5.3,6.332-6.954,8.512-2.3,3.019-2.907,5.164-.012,8.03l0,.005.009.009a1.166,1.166,0,0,0,.143.091c.169.111.337.222.507.323.117.073.23.14.343.209.157.088.313.176.465.259.209.108.414.211.619.306a11.206,11.206,0,0,0,1.09.458c.14.051.277.1.409.14a10.414,10.414,0,0,0,1.872.437,3.322,3.322,0,0,0,.364.044,9.472,9.472,0,0,0,2.889-.112,7.468,7.468,0,0,0,.772-.182,9.47,9.47,0,0,0,1.888-.745c.105-.053.2-.106.3-.16.114-.062.225-.128.326-.194s.184-.116.276-.174a7.23,7.23,0,0,0,1.283-1.072c1.564-1.711,17.26-19.841,17.26-19.841l1.209-2.514,1.62-3.365Z" transform="translate(-271.531 -197.84)" fill="#fd9826"/>
              <path id="Trazado_900525" data-name="Trazado 900525" d="M293.087,226.641c1.564-1.711,17.26-19.841,17.26-19.841l1.209-2.514c-4.728,1.239-3.094-6.222-4.526-.7Z" transform="translate(-277.583 -198.874)" fill="#d6801e"/>
            </g>
            <g id="Grupo_1111490" data-name="Grupo 1111490" transform="translate(23.289)">
              <g id="Grupo_1111489" data-name="Grupo 1111489">
                <g id="Grupo_1111488" data-name="Grupo 1111488">
                  <path id="Trazado_900526" data-name="Trazado 900526" d="M311.8,195.844c.085,1.06-1.727,3.961-1.727,5.091,0,10.867-6.609,38.751-6.135,41.111.677,3.393,10.161-.09,15.908,3.713,5.6,3.706,12.339-.446,14.369.4,4.113,1.72,11.3.724,11.977-.768s-.893-11.142-.893-11.142l1.389.078,14.527,4.063c-.744-8.092-1.582-21.282-4.583-29.1a49.894,49.894,0,0,0-8.9-13.955c-1.133-1.174-7.428-3.714-8.968-3.176-2.33.814-1.585,4.062-5.123,4.062C327.311,196.226,311.8,195.844,311.8,195.844Z" transform="translate(-303.91 -192.09)" fill="#fd9826"/>
                  <path id="Trazado_900527" data-name="Trazado 900527" d="M374.414,243.5c3.246,15.119-23.236,24.115-23.477-15.512C359.867,215.665,371.76,227.243,374.414,243.5Z" transform="translate(-317.113 -200.719)" fill="#e0841d"/>
                </g>
              </g>
              <path id="Trazado_900528" data-name="Trazado 900528" d="M312.74,197.84c.242,2.919-.9,9.7-1.212,12.914" transform="translate(-306.049 -193.704)" fill="none" stroke="#c17e25" stroke-linecap="round" stroke-linejoin="round" stroke-miterlimit="10" stroke-width="0.5"/>
            </g>
          </g>
          <g id="hnad_1_" transform="translate(22.681 31.804)">
            <path id="Trazado_900529" data-name="Trazado 900529" d="M249.968,188.78s2.279,5.9,5.185,12.686a160.649,160.649,0,0,0,7.554,15.814c.18.307.36.6.549.883.077.132.165.258.252.379a3.831,3.831,0,0,0,.219.318c.127.186.264.36.392.532.142.186.286.365.429.537a1.318,1.318,0,0,1,.1.116c.124.146.252.283.379.421a.584.584,0,0,0,.066.075c.152.162.309.321.461.468a.143.143,0,0,0,.054.045c7,4.781,11.681,3.01,12.985-1.795.926-3.381.166-8.261-2.627-13.423L261.641,185Z" transform="translate(-249.968 -184.996)" fill="#fd9826"/>
            <path id="Trazado_900530" data-name="Trazado 900530" d="M286.1,213.962c1.026,1.482,2.525,4.407,2.525,4.407" transform="translate(-260.112 -193.128)" fill="none" stroke="#c17e25" stroke-linecap="round" stroke-linejoin="round" stroke-miterlimit="10" stroke-width="0.5"/>
          </g>
          <g id="Grupo_1111492" data-name="Grupo 1111492" transform="translate(0 12.393)">
            <path id="Trazado_900531" data-name="Trazado 900531" d="M218.434,159.327l5.575,5.429,8.443,8.209s72.99,27.974,108.019,41.344c9.643,3.679,16.4,6.253,17.985,6.832,5.254,1.93,10.995-10.861,4.971-13.577-.472-.214-7.146-2.846-17.2-6.8-34.535-13.587-108.979-42.75-108.979-42.75l-11.026.773Z" transform="translate(-218.434 -158.009)" fill="#b256df"/>
            <g id="Grupo_1111491" data-name="Grupo 1111491" transform="translate(20.938 6.668)">
              <line id="Línea_571" data-name="Línea 571" x1="92.368" y1="36.623" transform="translate(2.194)" fill="none" stroke="#ddd" stroke-linecap="round" stroke-linejoin="round" stroke-miterlimit="10" stroke-width="0.5"/>
              <line id="Línea_572" data-name="Línea 572" x1="91.559" y1="36.303" transform="translate(0 5.02)" fill="none" stroke="#ddd" stroke-linecap="round" stroke-linejoin="round" stroke-miterlimit="10" stroke-width="0.5"/>
            </g>
            <path id="Trazado_900532" data-name="Trazado 900532" d="M228.4,158.782a9.452,9.452,0,0,1-2.211,5.973l8.443,8.209a3.5,3.5,0,0,0,1.023-5.233c2.516-.182,4.24-2.878,1.248-4.806a3.664,3.664,0,0,0,2.522-4.917Z" transform="translate(-220.61 -158.009)" fill="#d999ff"/>
            <path id="Trazado_900533" data-name="Trazado 900533" d="M218.434,159.629l5.575,5.429a9.456,9.456,0,0,0,2.211-5.973Z" transform="translate(-218.434 -158.311)" fill="#4d1884"/>
            <path id="Trazado_900534" data-name="Trazado 900534" d="M393.857,217.445c-1.909,4.513-4.01,9.462-5.754,13.549,9.643,3.679,16.4,6.253,17.985,6.832,5.254,1.93,10.995-10.861,4.971-13.577C410.587,224.036,403.913,221.4,393.857,217.445Z" transform="translate(-266.067 -174.695)" fill="none" stroke="#ddd" stroke-linecap="round" stroke-linejoin="round" stroke-miterlimit="10" stroke-width="0.5"/>
          </g>
          <g id="Grupo_1111493" data-name="Grupo 1111493" transform="translate(22.682 25.893)">
            <path id="Trazado_900535" data-name="Trazado 900535" d="M260.344,187.43c1-7.118.288-8.143-.5-8.256s-1.825,3.228-2.022,4.23c0,0,.491-5.8-.935-6.5s-2.028,1.763-2.028,1.763-1.339-2.228-2.82.671c0,0-.716-1.144-1.482.265s-1.013,7.275.642,8.327S259.862,190.873,260.344,187.43Z" transform="translate(-249.969 -176.779)" fill="#ffa0a4"/>
            <path id="Trazado_900536" data-name="Trazado 900536" d="M260.936,184.386c.4-4.387-.2-5.118-.858-5.212-.785-.113-1.825,3.228-2.022,4.23,0,0,.491-5.8-.935-6.5s-2.028,1.763-2.028,1.763-1.339-2.228-2.82.671c0,0-.716-1.144-1.482.265" transform="translate(-250.2 -176.779)" fill="none" stroke="#ef8a66" stroke-linecap="round" stroke-linejoin="round" stroke-miterlimit="10" stroke-width="0.5"/>
            <line id="Línea_573" data-name="Línea 573" x1="0.086" y2="5.857" transform="translate(4.809 1.888)" fill="none" stroke="#ef8a66" stroke-linecap="round" stroke-linejoin="round" stroke-miterlimit="10" stroke-width="0.5"/>
            <line id="Línea_574" data-name="Línea 574" x1="0.011" y1="5.351" transform="translate(2.074 2.559)" fill="none" stroke="#ef8a66" stroke-linecap="round" stroke-linejoin="round" stroke-miterlimit="10" stroke-width="0.5"/>
          </g>
          <line id="Línea_575" data-name="Línea 575" x1="0.229" y2="1.827" transform="translate(30.31 32.519)" fill="none" stroke="#ef8a66" stroke-linecap="round" stroke-linejoin="round" stroke-miterlimit="10" stroke-width="0.5"/>
          <g id="hand_26_" transform="translate(74.736 38.562)">
            <path id="Trazado_900537" data-name="Trazado 900537" d="M333.351,228.449a15.466,15.466,0,0,1,4.244-6.483l3.318,5.189S336.283,230.806,333.351,228.449Z" transform="translate(-325.432 -202.134)" fill="#c7761b"/>
            <g id="Grupo_1111494" data-name="Grupo 1111494">
              <path id="Trazado_900538" data-name="Trazado 900538" d="M343.042,211.224a35.7,35.7,0,0,1-3.527-3.1c-.184-.331-1.2-3.231-1.738-4.382s-2.694-5.754-3.175-5.747-1.267.991-1.1,2.179a38.588,38.588,0,0,0-4.5-5.429c-1.293-1.034-1.841.452-1.28,1.638-1.085-1.6-3.278-2.044-2.149.667-1.226-1.093-2.594-.482-1.414,2.408-.78-1.392-2.142-1-1.743.781.651,2.919,3.428,6.6,4.31,7.756s7.207,7.351,9.056,10.713C335.779,218.706,340.941,215.847,343.042,211.224Z" transform="translate(-322.341 -194.393)" fill="#ffa0a4"/>
              <path id="Trazado_900539" data-name="Trazado 900539" d="M337.777,203.738c-.534-1.151-2.694-5.754-3.175-5.747s-1.267.991-1.1,2.179a38.587,38.587,0,0,0-4.5-5.429c-1.293-1.034-1.841.452-1.28,1.638-1.085-1.6-3.278-2.044-2.149.667-1.226-1.093-2.594-.482-1.414,2.408-.78-1.392-2.142-1-1.743.781" transform="translate(-322.341 -194.393)" fill="none" stroke="#ef8a66" stroke-linecap="round" stroke-linejoin="round" stroke-miterlimit="10" stroke-width="0.5"/>
              <line id="Línea_576" data-name="Línea 576" x2="1.421" y2="2.284" transform="translate(11.164 5.778)" fill="none" stroke="#ef8a66" stroke-linecap="round" stroke-linejoin="round" stroke-miterlimit="10" stroke-width="0.5"/>
              <line id="Línea_577" data-name="Línea 577" x2="2.984" y2="4.564" transform="translate(5.379 1.987)" fill="none" stroke="#ef8a66" stroke-linecap="round" stroke-linejoin="round" stroke-miterlimit="10" stroke-width="0.5"/>
              <line id="Línea_578" data-name="Línea 578" x2="3.075" y2="5.205" transform="translate(3.23 2.654)" fill="none" stroke="#ef8a66" stroke-linecap="round" stroke-linejoin="round" stroke-miterlimit="10" stroke-width="0.5"/>
              <line id="Línea_579" data-name="Línea 579" x2="2.307" y2="4.254" transform="translate(1.816 5.062)" fill="none" stroke="#ef8a66" stroke-linecap="round" stroke-linejoin="round" stroke-miterlimit="10" stroke-width="0.5"/>
              <path id="Trazado_900540" data-name="Trazado 900540" d="M344.954,213.958c6.865,5.31,18.714,15.74,24.159,29.086,2.107,5.164-5.228,16.808-15.1,9.306S333.351,226.2,333.351,226.2,338.056,227.861,344.954,213.958Z" transform="translate(-325.432 -199.886)" fill="#fd9826"/>
              <path id="Trazado_900541" data-name="Trazado 900541" d="M348.323,247.021c-7.918-8.633-14.971-20.82-14.971-20.82s4.705,1.661,11.6-12.242A97.284,97.284,0,0,1,359.4,227.572" transform="translate(-325.432 -199.886)" fill="none" stroke="#c17e25" stroke-linecap="round" stroke-linejoin="round" stroke-miterlimit="10" stroke-width="0.5"/>
            </g>
          </g>
        </g>
        <line id="Línea_580" data-name="Línea 580" x1="252.296" transform="translate(7.446 279.882)" fill="none" stroke="#2d2b82" stroke-linecap="round" stroke-linejoin="round" stroke-miterlimit="10" stroke-width="0.5"/>
        <g id="Grupo_1111496" data-name="Grupo 1111496" transform="translate(221.812 49.897)">
          <path id="Trazado_900542" data-name="Trazado 900542" d="M409.581,125.9h-20.36a3.539,3.539,0,0,0-3.539,3.539v10.518l-3.737,6.291a.7.7,0,0,0,.78,1.026l6.042-1.645a3.5,3.5,0,0,0,.455.032h20.36a3.539,3.539,0,0,0,3.539-3.539V129.441A3.541,3.541,0,0,0,409.581,125.9Z" transform="translate(-381.845 -125.901)" fill="#5757ea"/>
          <path id="Trazado_900543" data-name="Trazado 900543" d="M399.326,140.179a1.535,1.535,0,1,1-1.535-1.535A1.535,1.535,0,0,1,399.326,140.179Z" transform="translate(-385.891 -129.479)" fill="none" stroke="#e8e8e8" stroke-linecap="round" stroke-linejoin="round" stroke-miterlimit="10" stroke-width="0.5"/>
          <path id="Trazado_900544" data-name="Trazado 900544" d="M407.656,140.179a1.535,1.535,0,1,1-1.535-1.535A1.535,1.535,0,0,1,407.656,140.179Z" transform="translate(-388.229 -129.479)" fill="none" stroke="#e8e8e8" stroke-linecap="round" stroke-linejoin="round" stroke-miterlimit="10" stroke-width="0.5"/>
          <path id="Trazado_900545" data-name="Trazado 900545" d="M415.907,140.179a1.535,1.535,0,1,1-1.535-1.535A1.535,1.535,0,0,1,415.907,140.179Z" transform="translate(-390.546 -129.479)" fill="none" stroke="#e8e8e8" stroke-linecap="round" stroke-linejoin="round" stroke-miterlimit="10" stroke-width="0.5"/>
        </g>
        <g id="Grupo_1111497" data-name="Grupo 1111497" transform="translate(31.345 206.838)">
          <path id="Trazado_900546" data-name="Trazado 900546" d="M133.971,400.535s1.647-6.209-3.223-7.613-11.511-1.395-13.352,2.882,3.767,4.011,7.534,3.729S130.431,405.609,133.971,400.535Z" transform="translate(-117.035 -357.572)" fill="#8d8fff"/>
          <path id="Trazado_900547" data-name="Trazado 900547" d="M138.371,370.184s2.293-2.1,2.085-9.271-3.7-19.1-9.42-16.434-2.787,16.88.256,22.185S138.371,370.184,138.371,370.184Z" transform="translate(-120.05 -344.099)" fill="#8d8fff"/>
          <path id="Trazado_900548" data-name="Trazado 900548" d="M133.233,357.589s8.644,28,7.6,47.682c0,0-.708-18.694-13.908-19.868" transform="translate(-119.811 -347.886)" fill="none" stroke="#4747a8" stroke-linecap="round" stroke-miterlimit="10" stroke-width="0.5"/>
          <path id="Trazado_900549" data-name="Trazado 900549" d="M161.508,394.68s-4.083-4.959-.241-8.264,9.884-6.063,13.339-2.94-1.754,5.215-5.3,6.529S166.839,397.818,161.508,394.68Z" transform="translate(-128.99 -354.77)" fill="#8d8fff"/>
          <path id="Trazado_900550" data-name="Trazado 900550" d="M169.546,386.481s-15.188,4.7-14.019,22.776" transform="translate(-127.823 -355.998)" fill="none" stroke="#4747a8" stroke-linecap="round" stroke-miterlimit="10" stroke-width="0.5"/>
          <path id="Trazado_900551" data-name="Trazado 900551" d="M155.107,416.924h-21.4a1.386,1.386,0,0,0-1.386,1.386v2.046a1.386,1.386,0,0,0,1.386,1.386h21.4a1.386,1.386,0,0,0,1.386-1.386V418.31A1.386,1.386,0,0,0,155.107,416.924Z" transform="translate(-121.326 -364.544)" fill="#1818a0"/>
          <path id="Trazado_900552" data-name="Trazado 900552" d="M137.068,439.376l16.9-.034a1.385,1.385,0,0,0,1.383-1.393l-.073-14.659H135.643l.037,14.7A1.386,1.386,0,0,0,137.068,439.376Z" transform="translate(-122.259 -366.332)" fill="#1818a0"/>
          <line id="Línea_581" data-name="Línea 581" x1="17.682" transform="translate(15.295 57.238)" fill="none" stroke="#fff" stroke-linecap="round" stroke-miterlimit="10" stroke-width="0.5"/>
        </g>
        <g id="Grupo_1111498" data-name="Grupo 1111498">
          <path id="Trazado_900553" data-name="Trazado 900553" d="M82.659,174.971c1.6-.875,4.854-1.505,4.6-5.851-.034-.574.9-.643,1.173-.138.911,1.664,1.795,4.806,5.679,5.515.485.088.583.959.11,1.1-3.442,1.041-3.893,3.088-4.762,5.589a.638.638,0,0,1-1.167.119c-.96-1.767-1.008-4.254-5.515-5.168A.631.631,0,0,1,82.659,174.971Z" transform="translate(-75.944 -88.004)" fill="#fff"/>
          <path id="Trazado_900554" data-name="Trazado 900554" d="M232.072,60.194c1-.507,3.041-.872,2.881-3.389-.021-.332.562-.373.735-.08.57.964,1.124,2.784,3.557,3.194.3.051.365.555.069.638-2.157.6-2.439,1.789-2.983,3.238a.413.413,0,0,1-.731.069c-.6-1.023-.632-2.464-3.455-2.994A.357.357,0,0,1,232.072,60.194Z" transform="translate(-117.926 -56.529)" fill="#fff"/>
          <path id="Trazado_900555" data-name="Trazado 900555" d="M227.776,357.876c1.32-.721,3.995-1.239,3.785-4.815-.028-.473.739-.529.965-.114.749,1.369,1.477,3.955,4.674,4.539.4.073.48.789.091.907-2.833.857-3.2,2.541-3.92,4.6a.526.526,0,0,1-.96.1c-.79-1.454-.829-3.5-4.539-4.253A.52.52,0,0,1,227.776,357.876Z" transform="translate(-116.701 -139.667)" fill="#fff"/>
          <path id="Trazado_900556" data-name="Trazado 900556" d="M429.93,195.255a3.165,3.165,0,1,1-3.165-3.165A3.165,3.165,0,0,1,429.93,195.255Z" transform="translate(-171.755 -94.586)" fill="#fff"/>
          <path id="Trazado_900557" data-name="Trazado 900557" d="M81.37,299.32a3.957,3.957,0,1,1-3.957-3.957A3.957,3.957,0,0,1,81.37,299.32Z" transform="translate(-73.455 -123.579)" fill="#fff"/>
        </g>
      </g>
    </g>
  </g>
</svg>
