<svg xmlns="http://www.w3.org/2000/svg" xmlns:xlink="http://www.w3.org/1999/xlink" width="505" height="398.39" viewBox="0 0 505 398.39">
  <defs>
    <clipPath id="clip-path">
      <rect id="Rectángulo_405425" data-name="Rectángulo 405425" width="505" height="398.389" transform="translate(0 -68)" fill="none"/>
    </clipPath>
  </defs>
  <g id="Grupo_1178122" data-name="Grupo 1178122" transform="translate(-59 53.004)">
    <path id="Trazado_1034430" data-name="Trazado 1034430" d="M72.964,698.825V560.169H172.1V468.7H456.123v24.09H560.3l1.715,206.034Z" transform="translate(-13.964 -370.227)" fill="#f1f2f5"/>
    <g id="Grupo_1178121" data-name="Grupo 1178121" transform="translate(59 14.996)">
      <g id="Grupo_1178120" data-name="Grupo 1178120" clip-path="url(#clip-path)">
        <path id="Trazado_1034431" data-name="Trazado 1034431" d="M875.843,472.063H662.122c-7.335,0-13.282-7.19-13.282-16.059V114.665c0-8.869,5.946-16.059,13.282-16.059H875.843c7.335,0,13.282,7.19,13.282,16.059V456c0,8.869-5.946,16.059-13.282,16.059" transform="translate(-510.777 -142.206)" fill="#1d2238"/>
        <rect id="Rectángulo_405395" data-name="Rectángulo 405395" width="210.351" height="336.675" transform="translate(153.03 -25.209)" fill="#fff"/>
        <path id="Trazado_1034432" data-name="Trazado 1034432" d="M1113.562,16.129a16.3,16.3,0,0,0-32.605,0H1065.85V41.962h62.819V16.129Zm-16.3,2.581a5.751,5.751,0,1,1,5.751-5.751,5.751,5.751,0,0,1-5.751,5.751" transform="translate(-839.054 -64.579)" fill="#fd9826"/>
        <rect id="Rectángulo_405396" data-name="Rectángulo 405396" width="142.381" height="8.697" transform="translate(212.408 67.789)" fill="#f1f2f5"/>
        <rect id="Rectángulo_405428" data-name="Rectángulo 405428" width="142.381" height="8.697" transform="translate(212.408 11.116)" fill="#f1f2f5"/>
        <rect id="Rectángulo_405397" data-name="Rectángulo 405397" width="142.381" height="8.697" transform="translate(212.408 84.772)" fill="#f1f2f5"/>
        <rect id="Rectángulo_405427" data-name="Rectángulo 405427" width="142.381" height="8.697" transform="translate(212.408 28.099)" fill="#f1f2f5"/>
        <rect id="Rectángulo_405398" data-name="Rectángulo 405398" width="69.388" height="8.697" transform="translate(212.408 101.755)" fill="#f1f2f5"/>
        <rect id="Rectángulo_405426" data-name="Rectángulo 405426" width="69.388" height="8.697" transform="translate(212.408 45.082)" fill="#f1f2f5"/>
        <path id="Trazado_1034433" data-name="Trazado 1034433" d="M822.209,359.517H782.164v-43.94h40.045Zm-38.768-1.277h37.492V316.854H783.441Z" transform="translate(-615.732 -248.426)" fill="#9ea9bd"/>
        <path id="Trazado_1034490" data-name="Trazado 1034490" d="M822.209,359.517H782.164v-43.94h40.045Zm-38.768-1.277h37.492V316.854H783.441Z" transform="translate(-615.732 -305.099)" fill="#9ea9bd"/>
        <path id="Trazado_1034434" data-name="Trazado 1034434" d="M830.118,313.395l9.385,13.054,25.872-24.335,4.594,5.933-31.808,30.39-13.714-19.882Z" transform="translate(-649.018 -237.828)" fill="#fd9826"/>
        <path id="Trazado_1034489" data-name="Trazado 1034489" d="M830.118,313.395l9.385,13.054,25.872-24.335,4.594,5.933-31.808,30.39-13.714-19.882Z" transform="translate(-649.018 -294.501)" fill="#fd9826"/>
        <rect id="Rectángulo_405399" data-name="Rectángulo 405399" width="142.381" height="8.697" transform="translate(212.408 123.823)" fill="#f1f2f5"/>
        <rect id="Rectángulo_405400" data-name="Rectángulo 405400" width="142.381" height="8.697" transform="translate(212.408 140.806)" fill="#f1f2f5"/>
        <rect id="Rectángulo_405401" data-name="Rectángulo 405401" width="69.388" height="8.697" transform="translate(212.408 157.789)" fill="#f1f2f5"/>
        <path id="Trazado_1034435" data-name="Trazado 1034435" d="M822.209,622.854H782.164v-43.94h40.045Zm-38.768-1.277h37.492V580.191H783.441Z" transform="translate(-615.732 -455.729)" fill="#9ea9bd"/>
        <path id="Trazado_1034436" data-name="Trazado 1034436" d="M830.118,576.732l9.385,13.054,25.872-24.335,4.594,5.933-31.808,30.39-13.714-19.882Z" transform="translate(-649.018 -445.131)" fill="#fd9826"/>
        <rect id="Rectángulo_405402" data-name="Rectángulo 405402" width="142.381" height="8.697" transform="translate(212.408 179.857)" fill="#f1f2f5"/>
        <rect id="Rectángulo_405403" data-name="Rectángulo 405403" width="142.381" height="8.697" transform="translate(212.408 196.84)" fill="#f1f2f5"/>
        <rect id="Rectángulo_405404" data-name="Rectángulo 405404" width="69.388" height="8.697" transform="translate(212.408 213.824)" fill="#f1f2f5"/>
        <path id="Trazado_1034437" data-name="Trazado 1034437" d="M822.209,886.192H782.164V842.251h40.045Zm-38.768-1.277h37.492V843.528H783.441Z" transform="translate(-615.732 -663.032)" fill="#9ea9bd"/>
        <path id="Trazado_1034438" data-name="Trazado 1034438" d="M830.118,840.069l9.385,13.054,25.872-24.335,4.594,5.933-31.808,30.39L824.448,845.23Z" transform="translate(-649.018 -652.434)" fill="#fd9826"/>
        <rect id="Rectángulo_405405" data-name="Rectángulo 405405" width="142.381" height="8.697" transform="translate(212.408 235.891)" fill="#f1f2f5"/>
        <rect id="Rectángulo_405406" data-name="Rectángulo 405406" width="142.381" height="8.697" transform="translate(212.408 252.875)" fill="#f1f2f5"/>
        <rect id="Rectángulo_405407" data-name="Rectángulo 405407" width="69.388" height="8.697" transform="translate(212.408 269.858)" fill="#f1f2f5"/>
        <path id="Trazado_1034439" data-name="Trazado 1034439" d="M822.209,1149.528H782.164v-43.941h40.045Zm-38.768-1.277h37.492v-41.387H783.441Z" transform="translate(-615.732 -870.335)" fill="#9ea9bd"/>
        <path id="Trazado_1034440" data-name="Trazado 1034440" d="M830.118,1103.406l9.385,13.054,25.872-24.335,4.594,5.933-31.808,30.391-13.714-19.882Z" transform="translate(-649.018 -859.737)" fill="#fd9826"/>
        <rect id="Rectángulo_405408" data-name="Rectángulo 405408" width="66.14" height="66.421" transform="translate(354.258 263.436)" fill="#9ea9bd"/>
        <rect id="Rectángulo_405409" data-name="Rectángulo 405409" width="7.972" height="10.517" transform="translate(383.342 263.436)" fill="#1d2238"/>
        <rect id="Rectángulo_405410" data-name="Rectángulo 405410" width="47.356" height="66.421" transform="translate(420.398 263.436)" fill="#d2d6e1"/>
        <rect id="Rectángulo_405411" data-name="Rectángulo 405411" width="6.061" height="10.517" transform="translate(441.046 263.436)" fill="#1d2238"/>
        <rect id="Rectángulo_405412" data-name="Rectángulo 405412" width="66.14" height="127.117" transform="translate(341.511 136.319)" fill="#cb7a1e"/>
        <rect id="Rectángulo_405413" data-name="Rectángulo 405413" width="7.972" height="20.128" transform="translate(370.595 136.32)" fill="#1d2238"/>
        <rect id="Rectángulo_405414" data-name="Rectángulo 405414" width="47.356" height="127.117" transform="translate(407.651 136.319)" fill="#fd9826"/>
        <rect id="Rectángulo_405415" data-name="Rectángulo 405415" width="6.061" height="20.128" transform="translate(428.299 136.32)" fill="#1d2238"/>
        <rect id="Rectángulo_405416" data-name="Rectángulo 405416" width="85.064" height="66.421" transform="translate(230.305 263.436)" fill="#fd9826"/>
        <rect id="Rectángulo_405417" data-name="Rectángulo 405417" width="10.253" height="10.517" transform="translate(267.711 263.436)" fill="#1d2238"/>
        <rect id="Rectángulo_405418" data-name="Rectángulo 405418" width="56.289" height="66.421" transform="translate(315.37 263.436)" fill="#fed6a8"/>
        <rect id="Rectángulo_405419" data-name="Rectángulo 405419" width="10.253" height="10.517" transform="translate(340.042 263.436)" fill="#1d2238"/>
        <rect id="Rectángulo_405420" data-name="Rectángulo 405420" width="66.14" height="66.421" transform="translate(240.762 197.015)" fill="#d2d6e1"/>
        <rect id="Rectángulo_405421" data-name="Rectángulo 405421" width="7.972" height="10.517" transform="translate(269.846 197.015)" fill="#1d2238"/>
        <rect id="Rectángulo_405422" data-name="Rectángulo 405422" width="47.356" height="66.421" transform="translate(306.902 197.015)" fill="#f1f2f5"/>
        <rect id="Rectángulo_405423" data-name="Rectángulo 405423" width="6.061" height="10.517" transform="translate(327.55 197.015)" fill="#1d2238"/>
        <rect id="Rectángulo_405424" data-name="Rectángulo 405424" width="505" height="1.064" transform="translate(0 329.325)" fill="#1d2238"/>
        <path id="Trazado_1034441" data-name="Trazado 1034441" d="M446.638,562.709l-2.195,1.468-11.695-17.489a1.32,1.32,0,1,1,2.194-1.468Z" transform="translate(-340.491 -428.743)" fill="#1d2238"/>
        <path id="Trazado_1034442" data-name="Trazado 1034442" d="M444.4,621.357s.9-7.513,2.783-7.86a43.747,43.747,0,0,1,8.556,0c1.113.209,4.174,2.156,4.8,4.1l-11.9,11.547Z" transform="translate(-349.838 -482.786)" fill="#eb9481"/>
        <path id="Trazado_1034443" data-name="Trazado 1034443" d="M368.4,354.628a17.017,17.017,0,0,1,3.1,7.035,3.8,3.8,0,0,1-1.64,4.131l-8.07-11.165Z" transform="translate(-284.803 -279.168)" fill="#1d2238"/>
        <path id="Trazado_1034444" data-name="Trazado 1034444" d="M279.188,345.356h0a13.136,13.136,0,0,0-13.1,12.138l-.107-.017L263.143,375.2a7.156,7.156,0,0,0,5.933,8.2c3.9.625,6.9,1.734,8.2-5.933l.2-1.257a13.119,13.119,0,0,0,14.85-13.024v-4.692a13.139,13.139,0,0,0-13.139-13.138" transform="translate(-207.079 -271.869)" fill="#eb9481"/>
        <path id="Trazado_1034445" data-name="Trazado 1034445" d="M376.2,396.488a9.456,9.456,0,0,1,.248,1.032c.037.172.06.344.087.516s.055.344.072.516c.04.344.079.688.1,1.032l.035.516.012.516-.583-.583c.219,0,.439-.015.658-.01.112,0,.2,0,.389.016a1.822,1.822,0,0,1,.481.131,1.622,1.622,0,0,1,.965,1.567,1.6,1.6,0,0,1-.333.858,1.459,1.459,0,0,1-.728.481,1.319,1.319,0,0,1-.418.046,2.48,2.48,0,0,1-.357-.059c-.219-.05-.439-.1-.658-.172l-.009,0a.032.032,0,0,1,.009-.063l.658-.009c.109,0,.221,0,.324-.01a1.249,1.249,0,0,0,.3-.081,1.065,1.065,0,0,0,0-1.965,1.182,1.182,0,0,0-.3-.075c-.1-.007-.213,0-.322,0l-.658,0H376.1v-.063c.009-1.377.006-2.753.03-4.129a.032.032,0,0,1,.063-.009Z" transform="translate(-296.071 -312.095)" fill="#1d2238"/>
        <path id="Trazado_1034446" data-name="Trazado 1034446" d="M386.866,393.693a.912.912,0,1,1-.912-.912.912.912,0,0,1,.912.912" transform="translate(-303.111 -309.202)" fill="#1d2238"/>
        <path id="Trazado_1034447" data-name="Trazado 1034447" d="M363.862,432.482s-1.512-2.2-5.919-2.146Z" transform="translate(-281.778 -338.766)" fill="#fff"/>
        <path id="Trazado_1034448" data-name="Trazado 1034448" d="M378.492,378.565c-.082.34.624.8,1.578,1.033s1.794.143,1.876-.2-.624-.8-1.578-1.033-1.794-.143-1.876.2" transform="translate(-297.95 -297.754)" fill="#1d2238"/>
        <path id="Trazado_1034449" data-name="Trazado 1034449" d="M362.019,395.683a.912.912,0,1,1-.912-.912.912.912,0,0,1,.912.912" transform="translate(-283.551 -310.769)" fill="#1d2238"/>
        <path id="Trazado_1034450" data-name="Trazado 1034450" d="M353.672,381.369c.087.339.929.414,1.879.169s1.65-.719,1.562-1.057-.929-.414-1.879-.169-1.65.719-1.562,1.057" transform="translate(-278.41 -299.273)" fill="#1d2238"/>
        <path id="Trazado_1034451" data-name="Trazado 1034451" d="M363.242,433a10.592,10.592,0,0,1-1.926-.352c-.315-.074-.618-.181-.927-.271s-.606-.213-.908-.32c-.3-.122-.6-.238-.891-.366s-.588-.26-.873-.413a10.7,10.7,0,0,1-1.673-1.016l-.006,0a.026.026,0,0,1,.025-.046l3.608,1.345,3.589,1.394a.026.026,0,0,1-.012.051Z" transform="translate(-280.271 -338.668)" fill="#1d2238"/>
        <path id="Trazado_1034452" data-name="Trazado 1034452" d="M253.448,332.965s11.444-10.084,22.523-10.081c0,0,4.839-.213,6.627,3.885,0,0-2.132-16.737-20.631-13.916s-11.119,21.712-11.119,21.712Z" transform="translate(-196.327 -246.031)" fill="#fd9826"/>
        <path id="Trazado_1034453" data-name="Trazado 1034453" d="M290.771,370.864s-2.254,2.737-6.962,7.711c-1.164,1.23-3.182,2.932-3.182,2.932a8.6,8.6,0,0,0-.382-4.451,44.533,44.533,0,0,1,10.526-6.191" transform="translate(-220.613 -291.949)" fill="#1d2238"/>
        <path id="Trazado_1034454" data-name="Trazado 1034454" d="M352.557,360.023a6.239,6.239,0,0,0,5.141,2.8s-5.9,1.938-8.2-2.163Z" transform="translate(-275.129 -283.415)" fill="#1d2238"/>
        <path id="Trazado_1034455" data-name="Trazado 1034455" d="M259.773,407.9l-.872,5.14-2.678-7.727,4.492-2.91Z" transform="translate(-201.704 -316.775)" fill="#1d2238"/>
        <path id="Trazado_1034456" data-name="Trazado 1034456" d="M260.022,399.6c0,1.788,1.171,3.237,2.616,3.237s2.616-1.449,2.616-3.237-1.171-3.237-2.616-3.237-2.616,1.449-2.616,3.237" transform="translate(-204.693 -312.026)" fill="#eb9481"/>
        <path id="Trazado_1034457" data-name="Trazado 1034457" d="M268.87,403.939a1.969,1.969,0,0,0-.707-.405.965.965,0,0,0-.328-.049.876.876,0,0,0-.288.045,1.3,1.3,0,0,0-.75.8,1.8,1.8,0,0,0-.092.3c-.008.053-.022.1-.028.159l-.008.081-.008.058c0,.019,0,.013-.007.02s-.009-.012-.024-.037a.261.261,0,0,0-.163-.107c-.078,0,.043.035.152.02.234-.027.531-.091.83-.137a2.043,2.043,0,0,1,.949.038l.01,0a.032.032,0,0,1,.019.041.033.033,0,0,1-.029.021,2.565,2.565,0,0,0-.821.227c-.269.105-.533.226-.818.31a.88.88,0,0,1-.459.035.329.329,0,0,1-.2-.159.543.543,0,0,1-.062-.233,2.192,2.192,0,0,1,.142-.88,1.851,1.851,0,0,1,.506-.734A1.4,1.4,0,0,1,267.5,403a1.329,1.329,0,0,1,.857.231,1.737,1.737,0,0,1,.568.674.032.032,0,0,1-.048.039Z" transform="translate(-209.428 -317.246)" fill="#1d2238"/>
        <path id="Trazado_1034458" data-name="Trazado 1034458" d="M341.149,335.75s7.85-10.52,17.338-7.977-3.659,10.681-3.659,10.681-3.656-6.16-13.679-2.7" transform="translate(-268.558 -257.715)" fill="#f1f2f5"/>
        <path id="Trazado_1034459" data-name="Trazado 1034459" d="M287.027,314.566c.089.462-.9,1.042-2.207,1.295s-2.441.083-2.531-.379.9-1.042,2.207-1.295,2.441-.083,2.531.379" transform="translate(-222.218 -247.239)" fill="#1d2238"/>
        <path id="Trazado_1034460" data-name="Trazado 1034460" d="M309.2,473.31a27.767,27.767,0,0,1-5.85-4.609,9.413,9.413,0,0,0,5.649,5.866Z" transform="translate(-238.798 -368.968)" fill="#1d2238"/>
        <path id="Trazado_1034461" data-name="Trazado 1034461" d="M366.246,1474.141l19.885,8.67a8,8,0,0,1,4.8,7.484L347.7,1490.2l2.3-16.1Z" transform="translate(-273.714 -1160.438)" fill="#4a4e60"/>
        <path id="Trazado_1034462" data-name="Trazado 1034462" d="M347.728,1534.669c3.561.206,7.122.317,10.684.4,1.781.048,3.561.062,5.342.091l5.342.038,5.342-.013c1.781-.023,3.562-.028,5.342-.068,3.562-.062,7.124-.159,10.685-.35-3.561-.207-7.122-.319-10.684-.4-1.781-.048-3.561-.061-5.342-.091l-5.342-.037-5.342.015c-1.781.022-3.562.028-5.342.068-3.562.063-7.123.159-10.685.349" transform="translate(-273.737 -1207.774)" fill="#1d2238"/>
        <path id="Trazado_1034463" data-name="Trazado 1034463" d="M372.183,1491.727a3.926,3.926,0,1,0,3.935-3.918,3.927,3.927,0,0,0-3.935,3.918" transform="translate(-292.988 -1171.225)" fill="#1d2238"/>
        <path id="Trazado_1034464" data-name="Trazado 1034464" d="M500.421,1506.978a2.643,2.643,0,0,0-1.468-.138,3.465,3.465,0,0,0-1.306.519,3.3,3.3,0,0,0-1,1.031,2.294,2.294,0,0,0-.341,1.465l.083.048a5.222,5.222,0,0,1,.375-.505c.069-.079.129-.165.2-.24l.219-.225a6.418,6.418,0,0,1,.989-.774,8.489,8.489,0,0,1,1.1-.62q.286-.134.581-.249c.194-.082.394-.155.593-.218Z" transform="translate(-390.686 -1186.171)" fill="#1d2238"/>
        <path id="Trazado_1034465" data-name="Trazado 1034465" d="M476.572,1496.8a2.644,2.644,0,0,0-1.468-.138,3.465,3.465,0,0,0-1.306.519,3.3,3.3,0,0,0-1,1.031,2.3,2.3,0,0,0-.341,1.465l.083.048a5.158,5.158,0,0,1,.375-.505c.069-.08.129-.165.2-.24l.22-.225a6.4,6.4,0,0,1,.989-.775,8.533,8.533,0,0,1,1.1-.62q.286-.134.581-.249c.194-.082.393-.156.593-.218Z" transform="translate(-371.911 -1178.159)" fill="#1d2238"/>
        <path id="Trazado_1034466" data-name="Trazado 1034466" d="M454.5,1487.563a2.639,2.639,0,0,0-1.468-.138,3.461,3.461,0,0,0-1.306.519,3.3,3.3,0,0,0-1,1.031,2.294,2.294,0,0,0-.341,1.465l.083.048a5.155,5.155,0,0,1,.375-.505c.069-.079.129-.165.2-.24l.219-.225a6.422,6.422,0,0,1,.989-.774,8.484,8.484,0,0,1,1.1-.62c.191-.089.384-.173.581-.249s.394-.156.593-.218Z" transform="translate(-354.536 -1170.888)" fill="#1d2238"/>
        <path id="Trazado_1034467" data-name="Trazado 1034467" d="M244.465,1474.141l19.885,8.67a8,8,0,0,1,4.8,7.484l-43.234-.093,2.3-16.1Z" transform="translate(-177.846 -1160.438)" fill="#9ea9bd"/>
        <path id="Trazado_1034468" data-name="Trazado 1034468" d="M225.947,1534.669c3.561.206,7.122.317,10.684.4,1.781.048,3.561.062,5.342.091l5.342.038,5.342-.013c1.781-.023,3.562-.028,5.342-.068,3.562-.062,7.124-.159,10.686-.35-3.561-.207-7.123-.319-10.684-.4-1.781-.048-3.561-.061-5.342-.091l-5.342-.037-5.342.015c-1.781.022-3.562.028-5.342.068-3.562.063-7.123.159-10.685.349" transform="translate(-177.869 -1207.774)" fill="#1d2238"/>
        <path id="Trazado_1034469" data-name="Trazado 1034469" d="M250.4,1491.727a3.926,3.926,0,1,0,3.935-3.918,3.927,3.927,0,0,0-3.935,3.918" transform="translate(-197.12 -1171.225)" fill="#1d2238"/>
        <path id="Trazado_1034470" data-name="Trazado 1034470" d="M378.64,1506.978a2.643,2.643,0,0,0-1.468-.138,3.465,3.465,0,0,0-1.306.519,3.3,3.3,0,0,0-1,1.031,2.294,2.294,0,0,0-.341,1.465l.083.048a5.242,5.242,0,0,1,.375-.505c.069-.079.129-.165.2-.24l.219-.225a6.414,6.414,0,0,1,.989-.774,8.513,8.513,0,0,1,1.1-.62q.286-.134.581-.249c.194-.082.393-.155.593-.218Z" transform="translate(-294.818 -1186.171)" fill="#1d2238"/>
        <path id="Trazado_1034471" data-name="Trazado 1034471" d="M354.79,1496.8a2.644,2.644,0,0,0-1.468-.138,3.464,3.464,0,0,0-1.306.519,3.3,3.3,0,0,0-1,1.031,2.3,2.3,0,0,0-.341,1.465l.083.048a5.168,5.168,0,0,1,.375-.505c.069-.08.129-.165.2-.24l.22-.225a6.4,6.4,0,0,1,.989-.775,8.539,8.539,0,0,1,1.1-.62q.286-.134.581-.249c.194-.082.393-.156.593-.218Z" transform="translate(-276.043 -1178.159)" fill="#1d2238"/>
        <path id="Trazado_1034472" data-name="Trazado 1034472" d="M332.719,1487.563a2.639,2.639,0,0,0-1.468-.138,3.461,3.461,0,0,0-1.306.519,3.3,3.3,0,0,0-1,1.031,2.294,2.294,0,0,0-.341,1.465l.083.048a5.164,5.164,0,0,1,.375-.505c.069-.079.129-.165.2-.24l.219-.225a6.422,6.422,0,0,1,.989-.774,8.484,8.484,0,0,1,1.1-.62c.191-.089.385-.173.581-.249s.394-.156.593-.218Z" transform="translate(-258.668 -1170.888)" fill="#1d2238"/>
        <path id="Trazado_1034473" data-name="Trazado 1034473" d="M229.91,979.059l-3.883-79.733a48.243,48.243,0,0,0-.794-6.673l-8.25-43.334-50.007-3.91s-4.912,19.976,5.152,39.2l5.181,95.078,26.688-.17,0-.3Z" transform="translate(-130.503 -665.518)" fill="#1d2238"/>
        <path id="Trazado_1034474" data-name="Trazado 1034474" d="M326.277,876.053l.34,3.978.317,3.979.634,7.96,1.163,15.928.291,3.982.264,3.984.525,7.968,1.048,15.936.059,1c.017.332,0,.665.006,1l-.007,2-.014,3.993-.027,7.985-.028,7.985-.017,3.993-.042,3.993-.169,15.97-.136,7.984-.069,3.992-.091,3.991h-.072l-.018-31.928-.009-15.964,0-7.982,0-3.991v-2c0-.332.009-.665-.01-1l-.063-1-3.94-63.734Z" transform="translate(-256.794 -689.642)" fill="#4a4e60"/>
        <path id="Trazado_1034475" data-name="Trazado 1034475" d="M243.223,541.876l-6.854-10.667-15.829,4.285L216.4,507.124c-.041-.305-.078-.562-.112-.766-1.036-6.242-12.077-17.1-12.077-17.1l-2.438,2.511-11.35-6.147s-9.434,3.792-15.23,11.148-4.361,65.408-4.361,65.408,11.717,9.495,20.195,11.055,30.722-4.535,30.722-4.535-.384-4.872-.952-11.9Z" transform="translate(-134.355 -382.29)" fill="#fd9826"/>
        <path id="Trazado_1034476" data-name="Trazado 1034476" d="M264.6,491.771l-5.346,4.588a2.34,2.34,0,0,1-3.035.015c-2.468-2.091-6.848-6.391-5.472-9.576l2.5-1.174Z" transform="translate(-197.189 -382.29)" fill="#fff"/>
        <path id="Trazado_1034477" data-name="Trazado 1034477" d="M316.823,505.223l2.64,2.847a1.552,1.552,0,0,0,2.492-.3l.775-1.386-3.468-3.675Z" transform="translate(-249.408 -395.742)" fill="#fff"/>
        <path id="Trazado_1034478" data-name="Trazado 1034478" d="M180.705,545.313l9.867,28.206,30.69-15.54,4.857,11.909-27.313,22.6A16.5,16.5,0,0,1,175.03,589.6c-4.623-6.241-10.48-14.793-11.073-18.8-.994-6.709-6.058-19.493,4.283-32.785Z" transform="translate(-127.405 -423.534)" fill="#fd9826"/>
        <path id="Trazado_1034479" data-name="Trazado 1034479" d="M280.7,590.218q-2.492,1.387-5.006,2.733c-1.672.9-3.353,1.79-5.033,2.679s-3.363,1.771-5.053,2.639-3.374,1.75-5.069,2.608l-.48.243-.11-.53c-.254-1.218-.532-2.439-.819-3.654s-.576-2.433-.884-3.644c-.62-2.421-1.263-4.837-1.987-7.227s-1.5-4.767-2.4-7.094c-.456-1.161-.937-2.314-1.487-3.435a21.334,21.334,0,0,0-1.888-3.233,19.115,19.115,0,0,1,2.127,3.108c.611,1.1,1.172,2.229,1.676,3.382,1.019,2.3,1.875,4.669,2.66,7.057s1.476,4.8,2.1,7.237,1.206,4.873,1.707,7.342l-.591-.287c1.7-.857,3.4-1.693,5.1-2.537s3.413-1.671,5.12-2.507,3.422-1.654,5.14-2.466,3.438-1.622,5.168-2.412" transform="translate(-197.189 -450.524)" fill="#1d2238"/>
        <path id="Trazado_1034480" data-name="Trazado 1034480" d="M171.777,692.095l1.023,1.851,1.012,1.857q1.013,1.855,2.043,3.7c.683,1.232,1.369,2.462,2.07,3.682l1.055,1.829q.531.919,1.046,1.843a37.505,37.505,0,0,0,4.593,6.971,14.19,14.19,0,0,0,1.487,1.412c.258.224.54.413.814.612.288.18.571.368.873.523a12.118,12.118,0,0,0,3.855,1.295,17.8,17.8,0,0,0,8.156-.692,20.988,20.988,0,0,0,3.818-1.608q.909-.5,1.765-1.088c.568-.393,1.1-.826,1.654-1.273q3.285-2.662,6.593-5.3l3.318-2.622,1.66-1.31,1.669-1.3-1.588,1.4-1.6,1.385-3.2,2.769q-3.21,2.753-6.436,5.486c-.532.452-1.083.922-1.665,1.344a21.015,21.015,0,0,1-1.815,1.157,21.769,21.769,0,0,1-3.937,1.725,20.348,20.348,0,0,1-4.215.882,16.776,16.776,0,0,1-4.323-.119,12.954,12.954,0,0,1-4.114-1.405c-.324-.169-.628-.372-.937-.567-.3-.215-.6-.422-.872-.661a13.77,13.77,0,0,1-1.564-1.509,24.285,24.285,0,0,1-2.512-3.481c-.742-1.215-1.408-2.466-2.065-3.711q-.494-.935-1-1.858c-.34-.619-.679-1.238-1.008-1.862q-.992-1.87-1.95-3.756t-1.876-3.792l-.926-1.9Z" transform="translate(-135.226 -544.827)" fill="#1d2238"/>
        <path id="Trazado_1034481" data-name="Trazado 1034481" d="M278.6,711.1c-.076-.255-.135-.514-.192-.776a5.512,5.512,0,0,1-.134-.791,9.6,9.6,0,0,1-.042-1.608,10.393,10.393,0,0,1,.661-3.164,10.231,10.231,0,0,1,1.588-2.819,7.6,7.6,0,0,1,2.431-2.086,27.74,27.74,0,0,0-1.593,2.639,21.9,21.9,0,0,0-1.231,2.716,22.243,22.243,0,0,0-.865,2.855c-.141.487-.207.986-.325,1.49s-.163,1.017-.3,1.544" transform="translate(-219.01 -550.938)" fill="#1d2238"/>
        <path id="Trazado_1034482" data-name="Trazado 1034482" d="M428.617,599.678l-12.669-5.294a1.175,1.175,0,0,1-.345-1.946l32.68-30.27a1.175,1.175,0,0,1,1.848.333l6.917,13.724a1.25,1.25,0,0,1-.324,1.529L430.246,599.44a1.6,1.6,0,0,1-1.628.238" transform="translate(-326.872 -442.3)" fill="#4a4e60"/>
        <path id="Trazado_1034483" data-name="Trazado 1034483" d="M399.826,746.356c-.207-1.3-.375-2.605-.525-3.911q-.117-.979-.214-1.959c-.069-.653-.135-1.306-.191-1.96-.125-1.307-.224-2.616-.324-3.925-.055-.654-.087-1.31-.132-1.964s-.088-1.31-.118-1.965l-.012-.257.209-.114c.643-.349,1.281-.707,1.928-1.05s1.29-.692,1.943-1.024,1.3-.671,1.959-1,1.316-.646,1.983-.953q-.9.63-1.825,1.229c-.612.4-1.23.8-1.849,1.187s-1.244.772-1.866,1.159-1.254.755-1.88,1.133l.2-.37c.063.653.108,1.308.16,1.963s.107,1.308.145,1.964c.086,1.31.171,2.62.231,3.931.037.655.063,1.311.087,1.968s.049,1.312.063,1.969c.035,1.313.052,2.628.03,3.945" transform="translate(-313.556 -571.737)" fill="#1d2238"/>
        <path id="Trazado_1034484" data-name="Trazado 1034484" d="M510.068,665.429c-.049-.325-.141-.652-.22-.968-.164-.656-.319-1.313-.479-1.97l-.667-2.74a1.733,1.733,0,0,0-3.367.819l.064.262a1.731,1.731,0,0,0-2.8,1.728q.105.432.212.865a.526.526,0,0,0-.2-.216,1.37,1.37,0,0,0-1.86.318,1.915,1.915,0,0,0-.122,1.189c.135,1.84.4,3.68.6,5.515l-3.37,3.134.771,1.2c.7-.241,1.34-.377,2.036-.618.925-.32,1.874-.578,2.77-.976a7.971,7.971,0,0,0,1.92-1.275,28.348,28.348,0,0,0,3.128-3.216c.445-.522.884-1.052,1.3-1.6a1.83,1.83,0,0,0,.288-1.453" transform="translate(-391.921 -518.323)" fill="#eb9481"/>
        <path id="Trazado_1034485" data-name="Trazado 1034485" d="M511.576,713.9a3.5,3.5,0,0,0,.334,2.52s-1.251-.291-.814-2.073Z" transform="translate(-402.269 -561.99)" fill="#1d2238"/>
        <path id="Trazado_1034486" data-name="Trazado 1034486" d="M533.3,669.725a3.065,3.065,0,0,1,1.036,1.5c.187.583.334,1.173.485,1.763s.284,1.183.408,1.779l.183.894c.053.3.113.6.159.9-.093-.29-.173-.584-.26-.875l-.241-.88c-.161-.586-.307-1.176-.455-1.766l-.435-1.767a3.028,3.028,0,0,0-.337-.825,3.655,3.655,0,0,0-.542-.723" transform="translate(-419.822 -527.217)" fill="#1d2238"/>
        <path id="Trazado_1034487" data-name="Trazado 1034487" d="M521.112,681.926a2.28,2.28,0,0,1,1.02,1.257c.155.524.265,1.051.379,1.579s.211,1.059.3,1.592l.127.8c.034.268.075.535.1.8-.074-.26-.136-.523-.2-.785l-.185-.788c-.124-.526-.233-1.054-.344-1.581s-.214-1.058-.328-1.579a1.835,1.835,0,0,0-.324-.707,3.226,3.226,0,0,0-.539-.593" transform="translate(-410.227 -536.822)" fill="#1d2238"/>
        <path id="Trazado_1034488" data-name="Trazado 1034488" d="M425.866,598.589c1.256-1.229,2.533-2.434,3.8-3.646s2.553-2.412,3.833-3.614l3.86-3.584,3.882-3.56c2.6-2.361,5.2-4.722,7.818-7.059l1.961-1.757L453,573.623q1.969-1.748,3.952-3.482l.319-.278.185.368,1.5,2.974,1.483,2.981,1.463,2.991q.737,1.493,1.448,3-.83-1.444-1.641-2.9l-1.626-2.906-1.607-2.916-1.592-2.924.5.091q-1.927,1.795-3.872,3.57l-1.941,1.78-1.951,1.769c-2.6,2.364-5.215,4.7-7.832,7.044l-3.943,3.492-3.965,3.468c-1.328,1.149-2.652,2.3-3.992,3.438s-2.668,2.284-4.021,3.406" transform="translate(-335.248 -448.605)" fill="#1d2238"/>
      </g>
    </g>
  </g>
</svg>
