<svg xmlns="http://www.w3.org/2000/svg" width="295" height="167.272" viewBox="0 0 295 167.272">
  <g id="Grupo_56873" data-name="Grupo 56873" transform="translate(-346.059 -3013.758)">
    <g id="freepik--background-complete--inject-3" transform="translate(364.594 3017.302)">
      <path id="Trazado_105054" data-name="Trazado 105054" d="M394.69,3362.9v18.519H391.6v2.011h3.091v12.4H452.5v-11.283h-4.3v-2.453h4.284v-3.679h1.9v-1.676h-2.261V3362.9Z" transform="translate(-391.517 -3239.238)" fill="#f5f5f5"/>
      <path id="Trazado_105055" data-name="Trazado 105055" d="M503.019,3362.952v32.668H518.37v-11.279h-4.284v-2.253l4.284.078v-3.687l1.938,0-.037-1.9-2.261-.053V3362.9Z" transform="translate(-452.737 -3239.239)" fill="#ebebeb"/>
      <path id="Trazado_105056" data-name="Trazado 105056" d="M438.122,3412.173c0,.115-10.461.2-23.359.2s-23.363-.09-23.363-.2,10.457-.2,23.363-.2S438.122,3412.058,438.122,3412.173Z" transform="translate(-391.399 -3268.248)" fill="#e0e0e0"/>
      <path id="Trazado_105057" data-name="Trazado 105057" d="M438.122,3407.572c0,.115-10.461.2-23.359.2s-23.363-.09-23.363-.2,10.457-.2,23.363-.2S438.122,3407.458,438.122,3407.572Z" transform="translate(-391.399 -3265.529)" fill="#e0e0e0"/>
      <path id="Trazado_105058" data-name="Trazado 105058" d="M445.492,3395.183c0,.114-10.461.208-23.359.208s-23.363-.094-23.363-.208,10.457-.2,23.363-.2S445.492,3395.072,445.492,3395.183Z" transform="translate(-395.756 -3258.204)" fill="#e0e0e0"/>
      <path id="Trazado_105059" data-name="Trazado 105059" d="M446.172,3428.937c0,.111-10.461.2-23.363.2s-23.359-.094-23.359-.2,10.457-.208,23.359-.208S446.172,3428.822,446.172,3428.937Z" transform="translate(-396.158 -3278.156)" fill="#e0e0e0"/>
      <path id="Trazado_105060" data-name="Trazado 105060" d="M679.882,3042.411a17.145,17.145,0,0,1,4.182-1.819l.863-4.142,6.995-.123,1.006,4.088a17.034,17.034,0,0,1,4.243,1.668l3.528-2.3,5.032,4.861-2.171,3.614a17.064,17.064,0,0,1,1.819,4.186l4.141.858.123,6.995-4.109,1.01a17.087,17.087,0,0,1-1.668,4.244l2.314,3.536-4.869,5.033-3.614-2.191a17.194,17.194,0,0,1-4.186,1.815l-.858,4.141-6.995.123-1.01-4.109a17.078,17.078,0,0,1-4.243-1.668l-3.536,2.318-5.032-4.861,2.191-3.614a17.112,17.112,0,0,1-1.815-4.182l-4.141-.862-.123-6.995,4.109-1.006a17.049,17.049,0,0,1,1.66-4.243l-2.318-3.536,4.861-5.032,3.614,2.191Zm3.728,9.317a7.539,7.539,0,1,0,.016-.016Z" transform="translate(-542.006 -3030.646)" fill="#ebebeb"/>
      <path id="Trazado_105061" data-name="Trazado 105061" d="M782.069,3025.977a10.1,10.1,0,0,1,2.453-1.063l.5-2.416,4.088-.07.568,2.4a10.2,10.2,0,0,1,2.477.973l2.044-1.349,2.968,2.829-1.275,2.109a10.07,10.07,0,0,1,1.059,2.453l2.416.5.069,4.088-2.4.588a9.9,9.9,0,0,1-.973,2.453l1.353,2.044-2.837,2.935-2.109-1.28a9.924,9.924,0,0,1-2.453,1.063l-.5,2.412-4.088.073-.584-2.4a10.1,10.1,0,0,1-2.478-.973l-2.044,1.349-2.939-2.833,1.28-2.11a9.909,9.909,0,0,1-1.059-2.453l-2.416-.5-.073-4.088,2.383-.531a9.941,9.941,0,0,1,.978-2.453l-1.353-2.044,2.833-2.936,2.11,1.28Zm2.175,5.433a4.378,4.378,0,1,0,6.193-.106,4.378,4.378,0,0,0-6.193.106Z" transform="translate(-601.76 -3022.428)" fill="#ebebeb"/>
      <path id="Trazado_105062" data-name="Trazado 105062" d="M928.109,3177.514a13.392,13.392,0,0,1,3.25-1.414l.666-3.213,5.433-.1.785,3.193a13.264,13.264,0,0,1,3.295,1.3l2.743-1.8,3.912,3.773-1.7,2.8a13.434,13.434,0,0,1,1.414,3.271l3.213.67.1,5.4-3.189.781a13.107,13.107,0,0,1-1.308,3.307l1.8,2.747-3.773,3.908-2.809-1.7a13.174,13.174,0,0,1-3.246,1.41l-.67,3.217-5.433.094-.781-3.189a13.422,13.422,0,0,1-3.295-1.3l-2.747,1.8-3.908-3.773,1.7-2.809a13.191,13.191,0,0,1-1.41-3.25l-3.226-.662-.094-5.433,3.189-.785a13.592,13.592,0,0,1,1.3-3.295l-1.8-2.743,3.773-3.912,2.808,1.7ZM931,3184.75a5.83,5.83,0,1,0,8.246-.143,5.83,5.83,0,0,0-8.246.143Z" transform="translate(-679.695 -3118.149)" fill="#ebebeb"/>
    </g>
    <g id="freepik--Table--inject-3" transform="translate(346.059 3174.104)">
      <path id="Trazado_105063" data-name="Trazado 105063" d="M636.119,3444.074c0,.057-64.952.106-145.03.106s-145.03-.049-145.03-.106,64.952-.106,145.03-.106S636.119,3444.013,636.119,3444.074Z" transform="translate(-346.059 -3443.969)" fill="#5e6178"/>
    </g>
    <g id="freepik--Artboard--inject-3" transform="translate(369.026 3013.758)">
      <rect id="Rectángulo_8020" data-name="Rectángulo 8020" width="146.117" height="114.336" fill="#fff"/>
      <rect id="Rectángulo_8021" data-name="Rectángulo 8021" width="146.664" height="9.509" transform="translate(0.029)" fill="#5e6178"/>
      <rect id="Rectángulo_8022" data-name="Rectángulo 8022" width="8.16" height="104.827" transform="translate(0.029 9.509)" fill="#344154"/>
      <rect id="Rectángulo_8023" data-name="Rectángulo 8023" width="146.664" height="6.3" transform="translate(0.029 9.509)" fill="#344154"/>
      <path id="Trazado_105064" data-name="Trazado 105064" d="M409.336,3023.933a.2.2,0,0,1-.143-.057.2.2,0,0,1,0-.289h0l4.656-4.734a.2.2,0,0,1,.283,0l0,0a.2.2,0,0,1,0,.289h0l-4.652,4.73A.208.208,0,0,1,409.336,3023.933Z" transform="translate(-406.314 -3016.734)" fill="#fff"/>
      <path id="Trazado_105065" data-name="Trazado 105065" d="M413.977,3023.96a.191.191,0,0,1-.143-.062l-4.734-4.66a.205.205,0,1,1,.286-.294l4.734,4.656a.2.2,0,0,1,0,.289h0A.191.191,0,0,1,413.977,3023.96Z" transform="translate(-406.259 -3016.79)" fill="#fff"/>
      <path id="Trazado_105066" data-name="Trazado 105066" d="M551.184,3052.274c0,.058-32.2.106-71.918.106s-71.926-.049-71.926-.106,32.2-.106,71.926-.106S551.184,3052.221,551.184,3052.274Z" transform="translate(-405.255 -3036.466)" fill="#5e6178"/>
      <path id="Trazado_105067" data-name="Trazado 105067" d="M422.116,3143.146c-.057,0-.106-23.126-.106-51.649s.049-51.649.106-51.649.106,23.118.106,51.649S422.174,3143.146,422.116,3143.146Z" transform="translate(-413.928 -3029.182)" fill="#5e6178"/>
      <path id="Trazado_105068" data-name="Trazado 105068" d="M442.6,3044.885a29.891,29.891,0,0,1,0-5.036,29.874,29.874,0,0,1,0,5.036Z" transform="translate(-426.027 -3029.182)" fill="#5e6178"/>
      <path id="Trazado_105069" data-name="Trazado 105069" d="M463.078,3044.885a29.874,29.874,0,0,1,0-5.036,29.891,29.891,0,0,1,0,5.036Z" transform="translate(-438.137 -3029.182)" fill="#5e6178"/>
      <path id="Trazado_105070" data-name="Trazado 105070" d="M483.566,3044.885a29.891,29.891,0,0,1,0-5.036,29.874,29.874,0,0,1,0,5.036Z" transform="translate(-450.248 -3029.182)" fill="#5e6178"/>
      <path id="Trazado_105071" data-name="Trazado 105071" d="M504.048,3044.885a29.874,29.874,0,0,1,0-5.036,29.891,29.891,0,0,1,0,5.036Z" transform="translate(-462.358 -3029.182)" fill="#5e6178"/>
      <path id="Trazado_105072" data-name="Trazado 105072" d="M524.536,3044.885a29.891,29.891,0,0,1,0-5.036,29.874,29.874,0,0,1,0,5.036Z" transform="translate(-474.469 -3029.182)" fill="#5e6178"/>
      <path id="Trazado_105073" data-name="Trazado 105073" d="M545.018,3044.885a29.874,29.874,0,0,1,0-5.036,29.874,29.874,0,0,1,0,5.036Z" transform="translate(-486.579 -3029.182)" fill="#5e6178"/>
      <path id="Trazado_105074" data-name="Trazado 105074" d="M565.506,3044.885a29.874,29.874,0,0,1,0-5.036,29.874,29.874,0,0,1,0,5.036Z" transform="translate(-498.69 -3029.182)" fill="#5e6178"/>
      <path id="Trazado_105075" data-name="Trazado 105075" d="M585.988,3044.885a29.874,29.874,0,0,1,0-5.036,29.891,29.891,0,0,1,0,5.036Z" transform="translate(-510.8 -3029.182)" fill="#5e6178"/>
      <path id="Trazado_105076" data-name="Trazado 105076" d="M606.476,3044.885a29.874,29.874,0,0,1,0-5.036,29.908,29.908,0,0,1,0,5.036Z" transform="translate(-522.911 -3029.182)" fill="#5e6178"/>
      <path id="Trazado_105077" data-name="Trazado 105077" d="M626.958,3044.885a29.874,29.874,0,0,1,0-5.036,29.874,29.874,0,0,1,0,5.036Z" transform="translate(-535.021 -3029.182)" fill="#5e6178"/>
      <path id="Trazado_105078" data-name="Trazado 105078" d="M647.446,3044.885a29.874,29.874,0,0,1,0-5.036,29.874,29.874,0,0,1,0,5.036Z" transform="translate(-547.132 -3029.182)" fill="#5e6178"/>
      <path id="Trazado_105079" data-name="Trazado 105079" d="M667.928,3044.885a29.891,29.891,0,0,1,0-5.036,29.891,29.891,0,0,1,0,5.036Z" transform="translate(-559.242 -3029.182)" fill="#5e6178"/>
      <path id="Trazado_105080" data-name="Trazado 105080" d="M688.41,3044.885a28.787,28.787,0,0,1,0-5.036,29.891,29.891,0,0,1,0,5.036Z" transform="translate(-571.348 -3029.182)" fill="#5e6178"/>
      <path id="Trazado_105081" data-name="Trazado 105081" d="M708.9,3044.885a29.908,29.908,0,0,1,0-5.036,29.874,29.874,0,0,1,0,5.036Z" transform="translate(-583.463 -3029.182)" fill="#5e6178"/>
      <path id="Trazado_105082" data-name="Trazado 105082" d="M729.378,3044.885a29.874,29.874,0,0,1,0-5.036,28.787,28.787,0,0,1,0,5.036Z" transform="translate(-595.571 -3029.182)" fill="#5e6178"/>
      <path id="Trazado_105083" data-name="Trazado 105083" d="M749.868,3044.885a29.891,29.891,0,0,1,0-5.036,29.874,29.874,0,0,1,0,5.036Z" transform="translate(-607.684 -3029.182)" fill="#5e6178"/>
      <path id="Trazado_105084" data-name="Trazado 105084" d="M413.444,3069.686a43.9,43.9,0,0,1-6.1,0,43.9,43.9,0,0,1,6.1,0Z" transform="translate(-405.255 -3046.752)" fill="#5e6178"/>
      <path id="Trazado_105085" data-name="Trazado 105085" d="M413.444,3088.566a43.8,43.8,0,0,1-6.1,0,44,44,0,0,1,6.1,0Z" transform="translate(-405.255 -3057.914)" fill="#5e6178"/>
      <path id="Trazado_105086" data-name="Trazado 105086" d="M413.444,3107.446a44,44,0,0,1-6.1,0,43.8,43.8,0,0,1,6.1,0Z" transform="translate(-405.255 -3069.076)" fill="#5e6178"/>
      <path id="Trazado_105087" data-name="Trazado 105087" d="M413.444,3126.324a43.9,43.9,0,0,1-6.1,0,43.9,43.9,0,0,1,6.1,0Z" transform="translate(-405.255 -3080.235)" fill="#5e6178"/>
      <path id="Trazado_105088" data-name="Trazado 105088" d="M413.444,3145.2a43.9,43.9,0,0,1-6.1,0,43.9,43.9,0,0,1,6.1,0Z" transform="translate(-405.255 -3091.393)" fill="#5e6178"/>
      <path id="Trazado_105089" data-name="Trazado 105089" d="M413.444,3164.126a43.8,43.8,0,0,1-6.1,0,43.8,43.8,0,0,1,6.1,0Z" transform="translate(-405.255 -3102.584)" fill="#5e6178"/>
      <path id="Trazado_105090" data-name="Trazado 105090" d="M413.444,3182.954a43.9,43.9,0,0,1-6.1,0,43.8,43.8,0,0,1,6.1,0Z" transform="translate(-405.255 -3113.714)" fill="#5e6178"/>
      <path id="Trazado_105091" data-name="Trazado 105091" d="M413.444,3201.834a43.9,43.9,0,0,1-6.1,0,43.8,43.8,0,0,1,6.1,0Z" transform="translate(-405.255 -3124.876)" fill="#5e6178"/>
      <path id="Trazado_105092" data-name="Trazado 105092" d="M413.444,3220.706a43.8,43.8,0,0,1-6.1,0,43.8,43.8,0,0,1,6.1,0Z" transform="translate(-405.255 -3136.034)" fill="#5e6178"/>
      <path id="Trazado_105093" data-name="Trazado 105093" d="M413.444,3239.586a43.9,43.9,0,0,1-6.1,0,43.9,43.9,0,0,1,6.1,0Z" transform="translate(-405.255 -3147.195)" fill="#5e6178"/>
      <path id="Trazado_105094" data-name="Trazado 105094" d="M413.444,3258.464a44,44,0,0,1-6.1,0,43.8,43.8,0,0,1,6.1,0Z" transform="translate(-405.255 -3158.355)" fill="#5e6178"/>
      <path id="Trazado_105095" data-name="Trazado 105095" d="M413.444,3277.358a42.253,42.253,0,0,1-6.1,0,54.383,54.383,0,0,1,6.1,0Z" transform="translate(-405.255 -3169.534)" fill="#5e6178"/>
      <path id="Trazado_105096" data-name="Trazado 105096" d="M565.288,3273.274c0,.057-27.869.106-62.237.106s-62.241-.049-62.241-.106,27.86-.106,62.241-.106S565.288,3273.221,565.288,3273.274Z" transform="translate(-425.042 -3167.119)" fill="#5e6178"/>
      <g id="Grupo_56867" data-name="Grupo 56867" transform="translate(8.066 16.338)">
        <g id="Grupo_56712" data-name="Grupo 56712">
          <g id="Grupo_56708" data-name="Grupo 56708" transform="translate(0.129 0.129)">
            <g id="Grupo_56707" data-name="Grupo 56707">
              <rect id="Rectángulo_8024" data-name="Rectángulo 8024" width="132.524" height="86.925" fill="#fafafa"/>
            </g>
          </g>
          <g id="Grupo_56711" data-name="Grupo 56711">
            <g id="Grupo_56710" data-name="Grupo 56710">
              <g id="Grupo_56709" data-name="Grupo 56709">
                <path id="Trazado_105097" data-name="Trazado 105097" d="M554.624,3140.777c0-.837-.04-33.909-.1-86.925l.1.1-132.513.026H422.1l.129-.129c0,30.913-.007,60.331-.011,86.924l-.118-.118,132.524.119-132.524.118h-.119v-.119c0-26.593-.007-56.011-.011-86.924v-.129h.14l132.513.026h.1v.1C554.664,3106.868,554.625,3139.941,554.624,3140.777Z" transform="translate(-421.971 -3053.723)" fill="#344154"/>
              </g>
            </g>
          </g>
        </g>
        <g id="Grupo_56737" data-name="Grupo 56737" transform="translate(9.973 33.455)">
          <g id="Grupo_56724" data-name="Grupo 56724" transform="translate(30.581 14.676)">
            <g id="Grupo_56714" data-name="Grupo 56714">
              <g id="Grupo_56713" data-name="Grupo 56713">
                <path id="Trazado_105098" data-name="Trazado 105098" d="M521.247,3171.458l13.035.18a12.978,12.978,0,0,1-13.035,12.608h-.076Z" transform="translate(-521.171 -3171.458)" fill="#5e6178"/>
              </g>
            </g>
            <g id="Grupo_56717" data-name="Grupo 56717" transform="translate(4.593 7.72)">
              <g id="Grupo_56716" data-name="Grupo 56716">
                <g id="Grupo_56715" data-name="Grupo 56715">
                  <path id="Trazado_105099" data-name="Trazado 105099" d="M549.443,3200.271a1.337,1.337,0,0,1-.279.022l-.8.021-2.912.034h-.037l-.024-.03-4.3-5.418-3.466-4.42.067.032-3.836-.036-1.073-.023a2.155,2.155,0,0,1-.379-.026,2.024,2.024,0,0,1,.379-.027l1.073-.023,3.836-.036h.041l.026.033,3.489,4.4,4.264,5.446-.061-.029,2.912.034.8.021A1.315,1.315,0,0,1,549.443,3200.271Z" transform="translate(-532.407 -3190.342)" fill="#344154"/>
                </g>
              </g>
            </g>
            <g id="Grupo_56720" data-name="Grupo 56720" transform="translate(17.871 19.052)">
              <g id="Grupo_56719" data-name="Grupo 56719">
                <g id="Grupo_56718" data-name="Grupo 56718">
                  <path id="Trazado_105100" data-name="Trazado 105100" d="M573.32,3218.162c0,.055-1.888.1-4.217.1s-4.218-.045-4.218-.1,1.888-.1,4.218-.1S573.32,3218.107,573.32,3218.162Z" transform="translate(-564.885 -3218.062)" fill="#344154"/>
                </g>
              </g>
            </g>
            <g id="Grupo_56723" data-name="Grupo 56723" transform="translate(17.871 20.614)">
              <g id="Grupo_56722" data-name="Grupo 56722">
                <g id="Grupo_56721" data-name="Grupo 56721">
                  <path id="Trazado_105101" data-name="Trazado 105101" d="M573.32,3221.982c0,.055-1.888.1-4.217.1s-4.218-.044-4.218-.1,1.888-.1,4.218-.1S573.32,3221.927,573.32,3221.982Z" transform="translate(-564.885 -3221.882)" fill="#344154"/>
                </g>
              </g>
            </g>
          </g>
          <g id="Grupo_56736" data-name="Grupo 56736">
            <g id="Grupo_56726" data-name="Grupo 56726" transform="translate(15.56 0.033)">
              <g id="Grupo_56725" data-name="Grupo 56725">
                <path id="Trazado_105102" data-name="Trazado 105102" d="M497.463,3148.427l-.183,12.786a12.792,12.792,0,1,1,13.219-12.786Z" transform="translate(-484.427 -3135.64)" fill="#fd9826"/>
              </g>
            </g>
            <g id="Grupo_56729" data-name="Grupo 56729" transform="translate(11.736 0.662)">
              <g id="Grupo_56728" data-name="Grupo 56728">
                <g id="Grupo_56727" data-name="Grupo 56727">
                  <path id="Trazado_105103" data-name="Trazado 105103" d="M486.844,3145.156a.842.842,0,0,1-.226.053l-.648.1-2.342.329-.038.006-.029-.028-3.123-3.039c-1.5-1.472-2.851-2.812-3.821-3.789l-1.142-1.165a3.487,3.487,0,0,1-.4-.447,3.442,3.442,0,0,1,.454.391l1.186,1.119c1,.951,2.362,2.276,3.862,3.748l3.1,3.064-.068-.023,2.35-.259.654-.059A.853.853,0,0,1,486.844,3145.156Z" transform="translate(-475.074 -3137.179)" fill="#344154"/>
                </g>
              </g>
            </g>
            <g id="Grupo_56732" data-name="Grupo 56732">
              <g id="Grupo_56731" data-name="Grupo 56731">
                <g id="Grupo_56730" data-name="Grupo 56730">
                  <path id="Trazado_105104" data-name="Trazado 105104" d="M454.8,3135.659c0,.055-1.888.1-4.217.1s-4.218-.044-4.218-.1,1.888-.1,4.218-.1S454.8,3135.6,454.8,3135.659Z" transform="translate(-446.366 -3135.56)" fill="#344154"/>
                </g>
              </g>
            </g>
            <g id="Grupo_56735" data-name="Grupo 56735" transform="translate(0 1.562)">
              <g id="Grupo_56734" data-name="Grupo 56734">
                <g id="Grupo_56733" data-name="Grupo 56733">
                  <path id="Trazado_105105" data-name="Trazado 105105" d="M454.8,3139.479c0,.055-1.888.1-4.217.1s-4.218-.045-4.218-.1,1.888-.1,4.218-.1S454.8,3139.424,454.8,3139.479Z" transform="translate(-446.366 -3139.379)" fill="#344154"/>
                </g>
              </g>
            </g>
          </g>
        </g>
        <g id="Grupo_56765" data-name="Grupo 56765" transform="translate(74.344 13.068)">
          <g id="Grupo_56749" data-name="Grupo 56749">
            <g id="Grupo_56746" data-name="Grupo 56746">
              <g id="Grupo_56739" data-name="Grupo 56739">
                <g id="Grupo_56738" data-name="Grupo 56738">
                  <path id="Trazado_105106" data-name="Trazado 105106" d="M613.655,3093.634l-.052-7.946a10.142,10.142,0,0,0-6.555,2.556,9.4,9.4,0,0,0-3.159,8.23,11.22,11.22,0,0,0,.185,1.154c0,.01,0,.019.005.028h0l9.574-2.155Z" transform="translate(-603.827 -3085.688)" fill="#fed6a8"/>
                </g>
              </g>
              <g id="Grupo_56743" data-name="Grupo 56743" transform="translate(10.843 0.031)">
                <g id="Grupo_56742" data-name="Grupo 56742">
                  <path id="Trazado_105108" data-name="Trazado 105108" d="M639.2,3091.232a9.426,9.426,0,0,0-7.727-5.41c-.1-.01-.2-.019-.3-.026-.065,0-.128-.011-.193-.015q-.284-.015-.577-.016h-.052l.052,7.946.012,1.868,9.577,2.089.012,0h0a9.471,9.471,0,0,0,.213-2.06A10.309,10.309,0,0,0,639.2,3091.232Z" transform="translate(-630.351 -3085.763)" fill="#fd9826"/>
                </g>
              </g>
            </g>
            <g id="Grupo_56748" data-name="Grupo 56748" transform="translate(0.767 10.805)">
              <g id="Grupo_56747" data-name="Grupo 56747">
                <path id="Trazado_105110" data-name="Trazado 105110" d="M615.276,3112.119l-9.574,2.154a9.814,9.814,0,0,0,19.164-.064l-9.577-2.089" transform="translate(-605.702 -3112.119)" fill="#fd9826"/>
              </g>
            </g>
          </g>
          <g id="Grupo_56752" data-name="Grupo 56752" transform="translate(25.498 9.246)">
            <g id="Grupo_56751" data-name="Grupo 56751">
              <g id="Grupo_56750" data-name="Grupo 56750">
                <path id="Trazado_105111" data-name="Trazado 105111" d="M688.311,3108.433c0,.072-4.95.129-11.055.129s-11.057-.058-11.057-.129,4.95-.129,11.057-.129S688.311,3108.362,688.311,3108.433Z" transform="translate(-666.199 -3108.304)" fill="#344154"/>
              </g>
            </g>
          </g>
          <g id="Grupo_56755" data-name="Grupo 56755" transform="translate(25.498 6.725)">
            <g id="Grupo_56754" data-name="Grupo 56754">
              <g id="Grupo_56753" data-name="Grupo 56753">
                <path id="Trazado_105112" data-name="Trazado 105112" d="M688.311,3102.268c0,.071-4.95.129-11.055.129s-11.057-.058-11.057-.129,4.95-.129,11.057-.129S688.311,3102.2,688.311,3102.268Z" transform="translate(-666.199 -3102.139)" fill="#344154"/>
              </g>
            </g>
          </g>
          <g id="Grupo_56758" data-name="Grupo 56758" transform="translate(25.498 4.205)">
            <g id="Grupo_56757" data-name="Grupo 56757">
              <g id="Grupo_56756" data-name="Grupo 56756">
                <path id="Trazado_105113" data-name="Trazado 105113" d="M688.311,3096.1c0,.071-4.95.129-11.055.129s-11.057-.058-11.057-.129,4.95-.129,11.057-.129S688.311,3096.032,688.311,3096.1Z" transform="translate(-666.199 -3095.974)" fill="#344154"/>
              </g>
            </g>
          </g>
          <g id="Grupo_56761" data-name="Grupo 56761" transform="translate(25.498 11.591)">
            <g id="Grupo_56760" data-name="Grupo 56760">
              <g id="Grupo_56759" data-name="Grupo 56759">
                <path id="Trazado_105114" data-name="Trazado 105114" d="M688.311,3114.169c0,.071-4.95.128-11.055.128s-11.057-.058-11.057-.128,4.95-.129,11.057-.129S688.311,3114.1,688.311,3114.169Z" transform="translate(-666.199 -3114.04)" fill="#344154"/>
              </g>
            </g>
          </g>
          <g id="Grupo_56764" data-name="Grupo 56764" transform="translate(25.576 14.143)">
            <g id="Grupo_56763" data-name="Grupo 56763">
              <g id="Grupo_56762" data-name="Grupo 56762">
                <path id="Trazado_105115" data-name="Trazado 105115" d="M681.577,3120.412c0,.071-3.4.129-7.593.129s-7.594-.058-7.594-.129,3.4-.129,7.594-.129S681.577,3120.341,681.577,3120.412Z" transform="translate(-666.39 -3120.283)" fill="#344154"/>
              </g>
            </g>
          </g>
        </g>
        <g id="Grupo_56858" data-name="Grupo 56858" transform="translate(75.576 45.583)">
          <g id="Grupo_56768" data-name="Grupo 56768" transform="translate(1.078)">
            <g id="Grupo_56767" data-name="Grupo 56767">
              <g id="Grupo_56766" data-name="Grupo 56766">
                <rect id="Rectángulo_8025" data-name="Rectángulo 8025" width="2.278" height="25.435" fill="#fd9826"/>
              </g>
            </g>
          </g>
          <g id="Grupo_56771" data-name="Grupo 56771" transform="translate(5.475 8.639)">
            <g id="Grupo_56770" data-name="Grupo 56770">
              <g id="Grupo_56769" data-name="Grupo 56769">
                <rect id="Rectángulo_8026" data-name="Rectángulo 8026" width="2.278" height="16.797" fill="#cdb9f8"/>
              </g>
            </g>
          </g>
          <g id="Grupo_56774" data-name="Grupo 56774" transform="translate(9.872 3.161)">
            <g id="Grupo_56773" data-name="Grupo 56773">
              <g id="Grupo_56772" data-name="Grupo 56772">
                <rect id="Rectángulo_8027" data-name="Rectángulo 8027" width="2.278" height="22.403" fill="#fd9826"/>
              </g>
            </g>
          </g>
          <g id="Grupo_56777" data-name="Grupo 56777" transform="translate(14.269 0.982)">
            <g id="Grupo_56776" data-name="Grupo 56776">
              <g id="Grupo_56775" data-name="Grupo 56775">
                <rect id="Rectángulo_8028" data-name="Rectángulo 8028" width="2.278" height="24.453" fill="#cdb9f8"/>
              </g>
            </g>
          </g>
          <g id="Grupo_56780" data-name="Grupo 56780" transform="translate(18.666 9.156)">
            <g id="Grupo_56779" data-name="Grupo 56779">
              <g id="Grupo_56778" data-name="Grupo 56778">
                <rect id="Rectángulo_8029" data-name="Rectángulo 8029" width="2.278" height="16.28" fill="#fd9826"/>
              </g>
            </g>
          </g>
          <g id="Grupo_56783" data-name="Grupo 56783" transform="translate(23.063 12.349)">
            <g id="Grupo_56782" data-name="Grupo 56782">
              <g id="Grupo_56781" data-name="Grupo 56781">
                <rect id="Rectángulo_8030" data-name="Rectángulo 8030" width="2.278" height="13.087" fill="#cdb9f8"/>
              </g>
            </g>
          </g>
          <g id="Grupo_56786" data-name="Grupo 56786" transform="translate(27.46 2.611)">
            <g id="Grupo_56785" data-name="Grupo 56785">
              <g id="Grupo_56784" data-name="Grupo 56784">
                <rect id="Rectángulo_8031" data-name="Rectángulo 8031" width="2.278" height="22.825" fill="#fd9826"/>
              </g>
            </g>
          </g>
          <g id="Grupo_56789" data-name="Grupo 56789" transform="translate(31.857 6.726)">
            <g id="Grupo_56788" data-name="Grupo 56788">
              <g id="Grupo_56787" data-name="Grupo 56787">
                <rect id="Rectángulo_8032" data-name="Rectángulo 8032" width="2.278" height="18.71" fill="#cdb9f8"/>
              </g>
            </g>
          </g>
          <g id="Grupo_56792" data-name="Grupo 56792" transform="translate(36.254 3.437)">
            <g id="Grupo_56791" data-name="Grupo 56791">
              <g id="Grupo_56790" data-name="Grupo 56790">
                <rect id="Rectángulo_8033" data-name="Rectángulo 8033" width="2.278" height="21.998" fill="#fd9826"/>
              </g>
            </g>
          </g>
          <g id="Grupo_56795" data-name="Grupo 56795" transform="translate(40.651 10.449)">
            <g id="Grupo_56794" data-name="Grupo 56794">
              <g id="Grupo_56793" data-name="Grupo 56793">
                <rect id="Rectángulo_8034" data-name="Rectángulo 8034" width="2.278" height="14.987" fill="#cdb9f8"/>
              </g>
            </g>
          </g>
          <g id="Grupo_56798" data-name="Grupo 56798" transform="translate(45.048 7.597)">
            <g id="Grupo_56797" data-name="Grupo 56797">
              <g id="Grupo_56796" data-name="Grupo 56796">
                <rect id="Rectángulo_8035" data-name="Rectángulo 8035" width="2.278" height="17.839" fill="#fd9826"/>
              </g>
            </g>
          </g>
          <g id="Grupo_56802" data-name="Grupo 56802" transform="translate(0 27.114)">
            <g id="Grupo_56801" data-name="Grupo 56801">
              <g id="Grupo_56800" data-name="Grupo 56800">
                <g id="Grupo_56799" data-name="Grupo 56799">
                  <path id="Trazado_105116" data-name="Trazado 105116" d="M655.094,3231.642c0,.052-10.8.094-24.127.094s-24.129-.041-24.129-.094,10.8-.093,24.129-.093S655.094,3231.591,655.094,3231.642Z" transform="translate(-606.839 -3231.549)" fill="#344154"/>
                </g>
              </g>
            </g>
          </g>
          <g id="Grupo_56806" data-name="Grupo 56806" transform="translate(0.947 29.116)">
            <g id="Grupo_56805" data-name="Grupo 56805">
              <g id="Grupo_56804" data-name="Grupo 56804">
                <g id="Grupo_56803" data-name="Grupo 56803">
                  <path id="Trazado_105117" data-name="Trazado 105117" d="M612.536,3236.54a15.324,15.324,0,0,1-3.38,0,15.284,15.284,0,0,1,3.38,0Z" transform="translate(-609.155 -3236.446)" fill="#344154"/>
                </g>
              </g>
            </g>
          </g>
          <g id="Grupo_56810" data-name="Grupo 56810" transform="translate(5.894 29.217)">
            <g id="Grupo_56809" data-name="Grupo 56809">
              <g id="Grupo_56808" data-name="Grupo 56808">
                <g id="Grupo_56807" data-name="Grupo 56807">
                  <path id="Trazado_105118" data-name="Trazado 105118" d="M625.3,3236.789a21.864,21.864,0,1,1-2.02-.094A10.966,10.966,0,0,1,625.3,3236.789Z" transform="translate(-621.256 -3236.695)" fill="#344154"/>
                </g>
              </g>
            </g>
          </g>
          <g id="Grupo_56814" data-name="Grupo 56814" transform="translate(10.676 29.217)">
            <g id="Grupo_56813" data-name="Grupo 56813">
              <g id="Grupo_56812" data-name="Grupo 56812">
                <g id="Grupo_56811" data-name="Grupo 56811">
                  <path id="Trazado_105119" data-name="Trazado 105119" d="M636.993,3236.789a21.864,21.864,0,1,1-2.02-.094A10.963,10.963,0,0,1,636.993,3236.789Z" transform="translate(-632.953 -3236.695)" fill="#344154"/>
                </g>
              </g>
            </g>
          </g>
          <g id="Grupo_56818" data-name="Grupo 56818" transform="translate(15.458 29.217)">
            <g id="Grupo_56817" data-name="Grupo 56817">
              <g id="Grupo_56816" data-name="Grupo 56816">
                <g id="Grupo_56815" data-name="Grupo 56815">
                  <path id="Trazado_105120" data-name="Trazado 105120" d="M648.69,3236.789a21.864,21.864,0,1,1-2.02-.094A10.963,10.963,0,0,1,648.69,3236.789Z" transform="translate(-644.65 -3236.695)" fill="#344154"/>
                </g>
              </g>
            </g>
          </g>
          <g id="Grupo_56822" data-name="Grupo 56822" transform="translate(20.239 29.217)">
            <g id="Grupo_56821" data-name="Grupo 56821">
              <g id="Grupo_56820" data-name="Grupo 56820">
                <g id="Grupo_56819" data-name="Grupo 56819">
                  <path id="Trazado_105121" data-name="Trazado 105121" d="M660.387,3236.789a21.864,21.864,0,1,1-2.02-.094A10.96,10.96,0,0,1,660.387,3236.789Z" transform="translate(-656.347 -3236.695)" fill="#344154"/>
                </g>
              </g>
            </g>
          </g>
          <g id="Grupo_56826" data-name="Grupo 56826" transform="translate(25.021 29.217)">
            <g id="Grupo_56825" data-name="Grupo 56825">
              <g id="Grupo_56824" data-name="Grupo 56824">
                <g id="Grupo_56823" data-name="Grupo 56823">
                  <path id="Trazado_105122" data-name="Trazado 105122" d="M672.084,3236.789a21.864,21.864,0,1,1-2.019-.094A10.96,10.96,0,0,1,672.084,3236.789Z" transform="translate(-668.044 -3236.695)" fill="#344154"/>
                </g>
              </g>
            </g>
          </g>
          <g id="Grupo_56830" data-name="Grupo 56830" transform="translate(29.803 29.217)">
            <g id="Grupo_56829" data-name="Grupo 56829">
              <g id="Grupo_56828" data-name="Grupo 56828">
                <g id="Grupo_56827" data-name="Grupo 56827">
                  <path id="Trazado_105123" data-name="Trazado 105123" d="M683.782,3236.789a21.864,21.864,0,1,1-2.02-.094A10.967,10.967,0,0,1,683.782,3236.789Z" transform="translate(-679.742 -3236.695)" fill="#344154"/>
                </g>
              </g>
            </g>
          </g>
          <g id="Grupo_56834" data-name="Grupo 56834" transform="translate(34.585 29.217)">
            <g id="Grupo_56833" data-name="Grupo 56833">
              <g id="Grupo_56832" data-name="Grupo 56832">
                <g id="Grupo_56831" data-name="Grupo 56831">
                  <path id="Trazado_105124" data-name="Trazado 105124" d="M695.479,3236.789a21.864,21.864,0,1,1-2.02-.094A10.964,10.964,0,0,1,695.479,3236.789Z" transform="translate(-691.439 -3236.695)" fill="#344154"/>
                </g>
              </g>
            </g>
          </g>
          <g id="Grupo_56838" data-name="Grupo 56838" transform="translate(39.367 29.217)">
            <g id="Grupo_56837" data-name="Grupo 56837">
              <g id="Grupo_56836" data-name="Grupo 56836">
                <g id="Grupo_56835" data-name="Grupo 56835">
                  <path id="Trazado_105125" data-name="Trazado 105125" d="M707.176,3236.789a21.864,21.864,0,1,1-2.02-.094A10.963,10.963,0,0,1,707.176,3236.789Z" transform="translate(-703.136 -3236.695)" fill="#344154"/>
                </g>
              </g>
            </g>
          </g>
          <g id="Grupo_56842" data-name="Grupo 56842" transform="translate(44.149 29.217)">
            <g id="Grupo_56841" data-name="Grupo 56841">
              <g id="Grupo_56840" data-name="Grupo 56840">
                <g id="Grupo_56839" data-name="Grupo 56839">
                  <path id="Trazado_105126" data-name="Trazado 105126" d="M718.873,3236.789a21.863,21.863,0,1,1-2.019-.094A10.959,10.959,0,0,1,718.873,3236.789Z" transform="translate(-714.833 -3236.695)" fill="#344154"/>
                </g>
              </g>
            </g>
          </g>
        </g>
        <g id="Grupo_56860" data-name="Grupo 56860" transform="translate(11.846 14.275)">
          <g id="Grupo_56859" data-name="Grupo 56859">
            <path id="Trazado_105127" data-name="Trazado 105127" d="M455.332,3090.833a2.192,2.192,0,1,1-2.192-2.192A2.192,2.192,0,0,1,455.332,3090.833Z" transform="translate(-450.948 -3088.641)" fill="#d9a171"/>
          </g>
        </g>
        <g id="Grupo_56863" data-name="Grupo 56863" transform="translate(20.903 14.609)">
          <g id="Grupo_56862" data-name="Grupo 56862">
            <g id="Grupo_56861" data-name="Grupo 56861">
              <path id="Trazado_105128" data-name="Trazado 105128" d="M506.12,3089.587c0,.072-7.392.13-16.508.13s-16.509-.058-16.509-.13,7.39-.129,16.509-.129S506.12,3089.516,506.12,3089.587Z" transform="translate(-473.103 -3089.458)" fill="#d9a171"/>
            </g>
          </g>
        </g>
        <g id="Grupo_56866" data-name="Grupo 56866" transform="translate(21.144 17.26)">
          <g id="Grupo_56865" data-name="Grupo 56865">
            <g id="Grupo_56864" data-name="Grupo 56864">
              <path id="Trazado_105129" data-name="Trazado 105129" d="M486.707,3096.073a1.991,1.991,0,0,1-.511.051c-.33.015-.806.029-1.394.041-1.178.023-2.8.038-4.6.038s-3.424-.015-4.6-.038c-.589-.011-1.065-.025-1.394-.041a.258.258,0,1,1,0-.1c.329-.016.805-.03,1.394-.041,1.177-.024,2.8-.038,4.6-.038s3.423.014,4.6.038c.589.011,1.065.025,1.394.041A1.98,1.98,0,0,1,486.707,3096.073Z" transform="translate(-473.693 -3095.944)" fill="#d9a171"/>
            </g>
          </g>
        </g>
      </g>
      <path id="Trazado_105130" data-name="Trazado 105130" d="M631.1,3225.849l4.252,9.644,1.484-4.243,3.638-1.333Z" transform="translate(-537.54 -3139.144)" fill="#5e6178"/>
      <rect id="Rectángulo_8041" data-name="Rectángulo 8041" width="5.343" height="5.343" transform="translate(101.679 94.055)" fill="#fff"/>
      <path id="Trazado_105131" data-name="Trazado 105131" d="M656.2,3248.958s0-.151-.021-.409,0-.646-.025-1.1c0-.961-.029-2.277-.045-3.843l.09.09h-5.339c-.024,0,.2-.2.106-.106h0v5.335l-.09-.094,3.843.045,1.1.025a2.863,2.863,0,0,1,.409.024,3.119,3.119,0,0,1-.364,0l-1.075.025-3.9.045h-.094v-5.425h0l.106-.106h5.433v.094c0,1.59-.037,2.927-.049,3.9,0,.442,0,.818-.025,1.075A1.9,1.9,0,0,1,656.2,3248.958Z" transform="translate(-549.18 -3149.561)" fill="#5e6178"/>
      <path id="Trazado_105132" data-name="Trazado 105132" d="M657.336,3249.388a22.276,22.276,0,0,1,0-4.35A22.362,22.362,0,0,1,657.336,3249.388Z" transform="translate(-552.988 -3150.489)" fill="#5e6178"/>
      <path id="Trazado_105133" data-name="Trazado 105133" d="M656.52,3250.2a22.247,22.247,0,0,1-4.35,0A22.361,22.361,0,0,1,656.52,3250.2Z" transform="translate(-549.996 -3153.481)" fill="#5e6178"/>
      <rect id="Rectángulo_8042" data-name="Rectángulo 8042" width="5.87" height="98.527" transform="translate(140.823 15.809)" fill="#344154"/>
      <path id="Trazado_105134" data-name="Trazado 105134" d="M749.645,3080.768h0a2.936,2.936,0,0,1,2.935,2.935v14.313a2.935,2.935,0,0,1-2.935,2.935h0a2.935,2.935,0,0,1-2.935-2.935V3083.7A2.935,2.935,0,0,1,749.645,3080.768Z" transform="translate(-605.887 -3053.374)" fill="#5e6178"/>
      <path id="Trazado_105135" data-name="Trazado 105135" d="M475.239,3102.805v-1.5c0-.981,0-2.4-.025-4.211,0-3.618-.029-8.773-.045-14.95l.09.09H454.6c-.029,0,.2-.2.1-.1h0v20.657l-.094-.094,14.954.049,4.207.025h.037l-4.186.024-15.011.045h-.09v-20.7h0c-.094.09.131-.135.11-.111h20.755v.111c-.02,6.2-.037,11.377-.049,15.007,0,1.8,0,3.213-.025,4.19v1.374A.381.381,0,0,1,475.239,3102.805Z" transform="translate(-433.132 -3054.116)" fill="#5e6178"/>
      <path id="Trazado_105136" data-name="Trazado 105136" d="M460.364,3087.978h1.128l3.226-.025,11.59-.045h.09v16.033c.02-.024-.2.2-.11.106h-16v-.094c0-4.787.037-8.777.049-11.585,0-1.382,0-2.453.025-3.23v-1.128a.7.7,0,0,1,0,.082v1.083c0,.764,0,1.86.024,3.27,0,2.8.029,6.766.045,11.528l-.09-.094h15.94l-.1.106v-15.944l.094.094-11.528-.049-3.27-.025h-1.087A.314.314,0,0,1,460.364,3087.978Z" transform="translate(-436.559 -3057.595)" fill="#5e6178"/>
      <path id="Trazado_105137" data-name="Trazado 105137" d="M454.63,3082.3a13.757,13.757,0,0,1,2.412,2.363,6.363,6.363,0,0,1-1.284-1.1A6.93,6.93,0,0,1,454.63,3082.3Z" transform="translate(-433.212 -3054.279)" fill="#5e6178"/>
      <path id="Trazado_105138" data-name="Trazado 105138" d="M501.885,3082.478a6.287,6.287,0,0,1-1.018,1.263,6.548,6.548,0,0,1-1.177,1.125,6.142,6.142,0,0,1,1.018-1.268A6.243,6.243,0,0,1,501.885,3082.478Z" transform="translate(-459.852 -3054.385)" fill="#5e6178"/>
      <path id="Trazado_105139" data-name="Trazado 105139" d="M501.913,3129.612a10.368,10.368,0,0,1-1-1.161,9.982,9.982,0,0,1-1-1.153,5.881,5.881,0,0,1,1.987,2.331Z" transform="translate(-459.982 -3080.882)" fill="#5e6178"/>
      <path id="Trazado_105140" data-name="Trazado 105140" d="M456.768,3127.018a6.5,6.5,0,0,1-1.071,1.251,6.387,6.387,0,0,1-1.226,1.1,12.7,12.7,0,0,1,2.3-2.355Z" transform="translate(-433.118 -3080.716)" fill="#5e6178"/>
      <path id="Trazado_105141" data-name="Trazado 105141" d="M468.85,3095.761a.828.828,0,0,1,.159,0h.486l1.864-.024,6.721-.049h.09v9.321l-.11.106h-9.3v-.094c.02-2.768.037-5.077.045-6.721,0-.785.02-1.415.025-1.864v-.642a1.1,1.1,0,0,1,0,.18v.5c0,.454,0,1.088.02,1.885,0,1.635.029,3.917.049,6.66l-.094-.09h9.227c.1-.094-.127.131-.1.106v-9.227l.094.09-6.659-.045-1.889-.024h-.5Z" transform="translate(-441.566 -3062.194)" fill="#5e6178"/>
      <path id="Trazado_105142" data-name="Trazado 105142" d="M549.607,3293.494c0,.057-32.737.106-73.111.106s-73.116-.049-73.116-.106,32.729-.106,73.116-.106S549.607,3293.433,549.607,3293.494Z" transform="translate(-402.914 -3179.073)" fill="#5e6178"/>
    </g>
    <g id="freepik--Character--inject-3" transform="translate(457.941 3036.127)">
      <path id="Trazado_105143" data-name="Trazado 105143" d="M673.144,3394.942h-4.975s-11.23-4.055-13.54-3.679c-2.077.351-9.693,5.409-11.185,6.41a.937.937,0,0,0-.36.462h0a1.635,1.635,0,0,0,.907,2.072l.16.066-.07.225a2.708,2.708,0,0,0-.115.911,1.1,1.1,0,0,0,2.044.474l-.286.507a1.251,1.251,0,0,0-.159.683l.025.466a1.255,1.255,0,0,0,.859,1.116h0a1.225,1.225,0,0,0,1.308-.344,10.669,10.669,0,0,1,4.579-2.861,33.626,33.626,0,0,1,4.5-.818,1.569,1.569,0,0,1,1.451,1h0c-.838.062-5.159,2.044-7.224,3.115a2.221,2.221,0,0,0-1.2,1.664c-.074.646.253,1.324,1.533,1.022,2.743-.638,6.165-1.832,6.165-1.832s2.547-.728,4.194.434c2.322,1.635,3.385,2.24,5.38,1.578a17.1,17.1,0,0,0,3.463-1.607l3.925-.409S678.221,3396.373,673.144,3394.942Z" transform="translate(-609.964 -3274.817)" fill="#ffbe9d"/>
      <path id="Trazado_105144" data-name="Trazado 105144" d="M687.811,3410.645a1.47,1.47,0,0,1-.266.192,1.8,1.8,0,0,1-.343.2,3.123,3.123,0,0,1-.495.225,5.416,5.416,0,0,1-3.422.115,5.309,5.309,0,0,1-2.1-1.14l-.245-.225-.221-.25a4.633,4.633,0,0,1-.409-.552c-.249-.409-.433-.818-.707-1.206a1.726,1.726,0,0,0-1.12-.777,5.664,5.664,0,0,0-1.5,0,8.9,8.9,0,0,1-3.242-.319,9.347,9.347,0,0,1-2.788-1.333,9.482,9.482,0,0,1-1.136-.944.712.712,0,0,1-.188-.752.72.72,0,0,1,.6-.478h0l7.3-.306,2.093-.07h.556a.744.744,0,0,1,.192,0l-.192.025-.552.041-2.089.126-7.293.38h0a.515.515,0,0,0-.286.891,9.479,9.479,0,0,0,1.112.916,9.178,9.178,0,0,0,2.727,1.3,8.779,8.779,0,0,0,3.168.315,5.559,5.559,0,0,1,1.562,0,1.851,1.851,0,0,1,.719.307,2.3,2.3,0,0,1,.523.552c.282.409.466.846.7,1.226a4.678,4.678,0,0,0,.409.531l.213.245.233.213a5.172,5.172,0,0,0,2.044,1.133,5.431,5.431,0,0,0,3.348-.049A8.239,8.239,0,0,0,687.811,3410.645Z" transform="translate(-625.69 -3281.784)" fill="#eb996e"/>
      <path id="Trazado_105145" data-name="Trazado 105145" d="M813.888,3109.291a4.444,4.444,0,0,0-4.783-1.889,6.088,6.088,0,0,0-7.457.736,5.414,5.414,0,0,0-7.768,5.061,4.517,4.517,0,0,0-3.344,7.91,4.342,4.342,0,0,0,2.494,8.274l20.44-14.963A4.447,4.447,0,0,0,813.888,3109.291Z" transform="translate(-695.605 -3106.457)" fill="#344154"/>
      <path id="Trazado_105146" data-name="Trazado 105146" d="M799.106,3137.475a18.438,18.438,0,0,1,16.97-18.36l.953-.073c10.307-.221,16.25,8.409,16.185,18.719l1.226,34.287-1.067,4.407L819.5,3187.9l-6.97-6.173-2-10.089s-9.987-.748-10.895-10.6C799.2,3156.281,799.085,3146.412,799.106,3137.475Z" transform="translate(-702.26 -3113.895)" fill="#ffbe9d"/>
      <path id="Trazado_105147" data-name="Trazado 105147" d="M826.869,3240.73a23.99,23.99,0,0,0,12.62-4.812s-2.453,7.338-12.383,7.236Z" transform="translate(-718.675 -3182.993)" fill="#eb996e"/>
      <path id="Trazado_105148" data-name="Trazado 105148" d="M807.888,3183.912a1.411,1.411,0,0,0,1.468,1.313,1.349,1.349,0,0,0,1.354-1.344c0-.014,0-.028,0-.042a1.414,1.414,0,0,0-1.472-1.312,1.349,1.349,0,0,0-1.349,1.348C807.888,3183.888,807.888,3183.9,807.888,3183.912Z" transform="translate(-707.454 -3151.428)" fill="#5e6178"/>
      <path id="Trazado_105149" data-name="Trazado 105149" d="M805.02,3174.309c.188.167,1.194-.707,2.706-.817s2.69.556,2.837.355c.074-.09-.131-.409-.642-.72a3.877,3.877,0,0,0-2.289-.511,3.737,3.737,0,0,0-2.138.883C805.061,3173.888,804.93,3174.231,805.02,3174.309Z" transform="translate(-705.742 -3145.561)" fill="#5e6178"/>
      <path id="Trazado_105150" data-name="Trazado 105150" d="M839.778,3182.962a1.411,1.411,0,0,0,1.472,1.312,1.349,1.349,0,0,0,1.354-1.345c0-.012,0-.024,0-.037a1.418,1.418,0,0,0-1.472-1.316,1.353,1.353,0,0,0-1.354,1.353C839.778,3182.94,839.778,3182.951,839.778,3182.962Z" transform="translate(-726.307 -3150.866)" fill="#5e6178"/>
      <path id="Trazado_105151" data-name="Trazado 105151" d="M840.45,3170.958c.188.172,1.194-.7,2.71-.818s2.686.552,2.837.356c.074-.09-.131-.409-.646-.724a3.868,3.868,0,0,0-2.285-.507,3.683,3.683,0,0,0-2.138.883C840.492,3170.538,840.36,3170.906,840.45,3170.958Z" transform="translate(-726.689 -3143.58)" fill="#5e6178"/>
      <path id="Trazado_105152" data-name="Trazado 105152" d="M824.754,3183.539a10.032,10.032,0,0,0-2.494-.25c-.409,0-.765-.057-.85-.314a1.983,1.983,0,0,1,.168-1.169c.286-.965.589-1.974.908-3.038,1.255-4.321,2.13-7.861,1.954-7.91s-1.333,3.414-2.584,7.735l-.863,3.074a2.242,2.242,0,0,0-.078,1.533.96.96,0,0,0,.679.515,2.564,2.564,0,0,0,.666.041A9.472,9.472,0,0,0,824.754,3183.539Z" transform="translate(-715.088 -3144.53)" fill="#5e6178"/>
      <path id="Trazado_105153" data-name="Trazado 105153" d="M835.069,3203.567c-.249,0-.119,1.635-1.435,2.931s-3.082,1.227-3.074,1.468c0,.106.409.29,1.157.25a4.088,4.088,0,0,0,2.576-1.132,3.588,3.588,0,0,0,1.1-2.453C835.4,3203.943,835.179,3203.551,835.069,3203.567Z" transform="translate(-720.857 -3163.867)" fill="#5e6178"/>
      <path id="Trazado_105154" data-name="Trazado 105154" d="M839.568,3160.378c.213.376,1.488-.082,3.074-.18s2.935.123,3.07-.282c.053-.192-.237-.528-.818-.818a4.74,4.74,0,0,0-2.4-.409,4.55,4.55,0,0,0-2.277.781C839.7,3159.818,839.474,3160.194,839.568,3160.378Z" transform="translate(-726.17 -3137.325)" fill="#5e6178"/>
      <path id="Trazado_105155" data-name="Trazado 105155" d="M805.014,3164.272c.266.348,1.312,0,2.571-.024s2.326.241,2.571-.123c.111-.171-.057-.519-.523-.846a3.729,3.729,0,0,0-4.145.115C805.059,3163.765,804.912,3164.1,805.014,3164.272Z" transform="translate(-705.736 -3139.71)" fill="#5e6178"/>
      <path id="Trazado_105156" data-name="Trazado 105156" d="M800.425,3131.188s2.109-6.381,4.971-8.062c3.467-2.044,5.335,1.8,8.691.568s6.668-3.185,10.392-.818c4.088,2.6,2.453,4.783,3.025,9.141,2.375,17.665,6.018,22.423,6.271,13.993.029-.924,2.51-1.856,2.58-5.752.086-5.057-.2-11.16-1.611-14.631-1.181-2.923-3.058-4.861-6.308-6.9-5.131-3.221-11.786-2.768-16.266-1.954S799.407,3123.49,800.425,3131.188Z" transform="translate(-702.991 -3112.206)" fill="#344154"/>
      <path id="Trazado_105157" data-name="Trazado 105157" d="M880.535,3184.566a2.682,2.682,0,0,1,2.552-2.805c.045,0,.089,0,.134,0,1.852.028,3.982.907,4.162,4.718.323,6.761-6.541,5.69-6.541,5.5S880.645,3187.4,880.535,3184.566Z" transform="translate(-750.4 -3150.975)" fill="#ffbe9d"/>
      <path id="Trazado_105158" data-name="Trazado 105158" d="M884.56,3192.5c.029-.021.123.078.327.159a1.151,1.151,0,0,0,.879-.024,2.915,2.915,0,0,0,1.226-2.678,3.869,3.869,0,0,0-.409-1.668,1.356,1.356,0,0,0-.928-.863.6.6,0,0,0-.678.356c-.082.192-.033.327-.07.339s-.151-.106-.11-.408a.786.786,0,0,1,.245-.438.9.9,0,0,1,.646-.2,1.635,1.635,0,0,1,1.28.99,4,4,0,0,1,.5,1.864c0,1.361-.617,2.669-1.578,3a1.273,1.273,0,0,1-1.087-.127C884.581,3192.662,884.536,3192.515,884.56,3192.5Z" transform="translate(-752.778 -3154.115)" fill="#eb996e"/>
      <path id="Trazado_105159" data-name="Trazado 105159" d="M837.63,3129.623a6.372,6.372,0,0,1-2.751,1.545,2.208,2.208,0,0,1-2.563-1.353c-.119-.462-.045-1.018-.384-1.353-.409-.409-1.071-.217-1.635-.111a4.321,4.321,0,0,1-4.714-2.731,1.793,1.793,0,0,1-2.4.409,10.127,10.127,0,0,1-1.991-1.819,2.79,2.79,0,0,0-2.408-.973,6.759,6.759,0,0,1-1.439.442c-.891,0-1.406-1.01-1.611-1.88s-.409-1.885-1.177-2.3a3.351,3.351,0,0,0-2.416.127c-.805.188-1.876.078-2.146-.7a1.6,1.6,0,0,1,.2-1.247,4.379,4.379,0,0,1,5.02-2.065A5.936,5.936,0,0,1,826,3113.594a6.026,6.026,0,0,1,9.775,1.423,4.366,4.366,0,0,1,5.413,5.944,4.143,4.143,0,0,1,2.539,3.107c.135,1.39-1.112,2.895-2.49,2.633a2.42,2.42,0,0,1-3.978,2.739" transform="translate(-708.669 -3109.08)" fill="#344154"/>
      <path id="Trazado_105160" data-name="Trazado 105160" d="M873.5,3149.468a1.616,1.616,0,0,1-.315,1.329,2.193,2.193,0,0,1-1.288.916,2.334,2.334,0,0,1-1.966-.409l.282-.065a6.881,6.881,0,0,1-1.226,1.787,3.857,3.857,0,0,1-1.165.863,2.6,2.6,0,0,1-1.349.233,2.645,2.645,0,0,1-2.044-.961,3.831,3.831,0,0,1-.658-1.357,1.371,1.371,0,0,1-.1-.54,1.913,1.913,0,0,1,.241.486,4.472,4.472,0,0,0,.724,1.227,2.772,2.772,0,0,0,4.059-.229,6.79,6.79,0,0,0,1.157-1.676l.1-.208.18.143a2.078,2.078,0,0,0,1.668.389,1.991,1.991,0,0,0,1.169-.744A3.268,3.268,0,0,0,873.5,3149.468Z" transform="translate(-740.431 -3131.885)" fill="#344154"/>
      <path id="Trazado_105161" data-name="Trazado 105161" d="M828.214,3111.513c0,.024-.172.061-.462.212a2.336,2.336,0,0,0-.977.973l-.07.135-.1-.115a8.389,8.389,0,0,0-3.471-2.379,6.572,6.572,0,0,0-2.7-.372,5.514,5.514,0,0,0-2.788,1.042,5.618,5.618,0,0,0-1.574,1.75,4.579,4.579,0,0,0-.576,2.089v.217l-.208-.041a3.808,3.808,0,0,0-2.776.564,3.7,3.7,0,0,0-1.4,1.766,5.052,5.052,0,0,0-.262,2.044,1.382,1.382,0,0,1-.127-.548,3.79,3.79,0,0,1,.184-1.557,3.856,3.856,0,0,1,1.435-1.942,4.088,4.088,0,0,1,3.013-.666l-.213.176a4.873,4.873,0,0,1,.605-2.277,5.9,5.9,0,0,1,1.676-1.876,5.824,5.824,0,0,1,2.988-1.1,6.84,6.84,0,0,1,2.862.409,8.22,8.22,0,0,1,3.516,2.567h-.172a2.312,2.312,0,0,1,1.116-.977A1.089,1.089,0,0,1,828.214,3111.513Z" transform="translate(-709.117 -3108.307)" fill="#344154"/>
      <path id="Trazado_105162" data-name="Trazado 105162" d="M807.048,3290.349c-.372,0-1.149-31.662-1.149-31.662l-21.622-7.718-16.589,14.942-8.466-13.327-7.453,3.426a62.576,62.576,0,0,0-5.887,2.71c-2.363,1.8-7.3,6.132-8.691,11.381-2.126,8.033-5.462,34.749-5.462,34.749l-20.31,7.167.442,13.082,19.876,3.111c4.8-.172,10.6-2.2,12.469-5.527v6.982h61.064S807.416,3290.349,807.048,3290.349Z" transform="translate(-650.422 -3191.891)" fill="#e2dacc"/>
      <path id="Trazado_105163" data-name="Trazado 105163" d="M792.166,3317.838a.781.781,0,0,1,0,.131v1.868c-.025,1.284-.078,3.14-.18,5.438s-.245,5.028-.356,8.062-.151,6.369-.172,9.873c-.033,7.011,0,13.36,0,17.955v7.3a.466.466,0,0,1,0,.135.579.579,0,0,1,0-.131v-.388c0-.352-.02-.846-.033-1.476,0-1.3-.037-3.156-.065-5.441-.041-4.595-.082-10.944-.049-17.955.02-3.5.065-6.844.188-9.881s.282-5.768.409-8.062.2-4.149.249-5.433c.025-.63.041-1.128.057-1.48a2.055,2.055,0,0,1,.021-.384A.558.558,0,0,1,792.166,3317.838Z" transform="translate(-697.647 -3231.424)" fill="#5e6178"/>
      <g id="Grupo_56868" data-name="Grupo 56868" transform="translate(91.42 89.419)" opacity="0.3">
        <path id="Trazado_105164" data-name="Trazado 105164" d="M788.937,3325.188c-3.463,13.058-4.383,27.206-.9,40.26C788.1,3350.914,788.017,3337.305,788.937,3325.188Z" transform="translate(-785.838 -3325.188)"/>
      </g>
      <g id="Grupo_56869" data-name="Grupo 56869" transform="translate(145.371 89.738)" opacity="0.3">
        <path id="Trazado_105165" data-name="Trazado 105165" d="M917.809,3327.007q1.9,12.227,3.781,24.443a1.635,1.635,0,0,0,.266.793c.409.515,1.2.38,1.831.2,1.529-.446,3.937-.609,4.763-1.975l.2-3.479c-.22-1.054-1.226-2.069-1.721-3.033q-4.452-8.993-8.9-17.988" transform="translate(-917.809 -3325.968)"/>
      </g>
      <path id="Trazado_105166" data-name="Trazado 105166" d="M927.832,3269.7s7.06,3.973,9.677,9.566c3.193,6.823,17.321,31.4,17.844,37.537s.311,13.143-10.151,15.232a117.564,117.564,0,0,1-21.385,1.95l-4.264-12.706,11.991-6.193-2.989-2.625a7.005,7.005,0,0,1-1.594-2.044l-9.022-17.375" transform="translate(-772.515 -3202.964)" fill="#e2dacc"/>
      <path id="Trazado_105167" data-name="Trazado 105167" d="M917.939,3293.079s.082.135.225.409l.638,1.2,2.424,4.624,3.81,7.3,1.153,2.208.6,1.153a10.56,10.56,0,0,0,.658,1.161,7.055,7.055,0,0,0,.879,1.042c.331.319.7.621,1.055.94l2.216,1.942.09.078-.106.053-11.986,6.206.045-.11,4.276,12.7-.094-.069c3.467,0,7.089-.159,10.8-.486,1.86-.16,3.741-.368,5.637-.638s3.814-.568,5.723-1.018l.94-.229c.311-.086.613-.2.916-.307s.613-.2.908-.323l.867-.409c.147-.069.29-.131.433-.2l.409-.249c.27-.168.544-.327.818-.5a10.8,10.8,0,0,0,1.414-1.227,8.725,8.725,0,0,0,1.942-3.152,13.572,13.572,0,0,0,.744-3.593,28.322,28.322,0,0,0,0-3.63,15.651,15.651,0,0,0-.184-1.774,16.026,16.026,0,0,0-.454-1.7c-.356-1.124-.781-2.208-1.226-3.271s-.908-2.105-1.369-3.132c-1.885-4.088-3.835-7.91-5.678-11.475s-3.6-6.856-5.192-9.869l-2.257-4.313c-.352-.683-.691-1.349-1.01-2-.155-.327-.311-.646-.466-.965s-.315-.613-.47-.912a18.422,18.422,0,0,0-2.191-3.054,27.91,27.91,0,0,0-2.248-2.228,33.945,33.945,0,0,0-3.475-2.673c-.409-.282-.74-.487-.957-.622l-.327-.208s.119.061.339.188.548.331.969.6a32.242,32.242,0,0,1,3.5,2.649,27.264,27.264,0,0,1,2.273,2.224,18.466,18.466,0,0,1,2.216,3.062c.159.3.327.6.482.92s.307.634.466.957c.323.65.662,1.312,1.014,1.995q1.079,2.045,2.269,4.3c1.6,3.013,3.365,6.3,5.221,9.865s3.806,7.359,5.695,11.471c.47,1.026.936,2.068,1.378,3.135s.871,2.158,1.226,3.271a15.184,15.184,0,0,1,.462,1.733,15.619,15.619,0,0,1,.188,1.8,28.617,28.617,0,0,1,0,3.679,13.777,13.777,0,0,1-.752,3.651,8.864,8.864,0,0,1-1.991,3.221,10.448,10.448,0,0,1-1.443,1.276c-.266.176-.544.339-.818.511l-.409.253-.441.208-.879.409c-.3.131-.613.217-.92.327s-.613.221-.924.311l-.952.229c-1.913.454-3.831.752-5.723,1.022s-3.786.478-5.646.642c-3.724.323-7.359.487-10.829.479h-.074l-.02-.07c-1.5-4.468-2.931-8.748-4.26-12.71l-.025-.074.069-.037,12-6.186v.131l-2.212-1.946c-.356-.319-.719-.617-1.059-.949a7.254,7.254,0,0,1-.891-1.067,11.35,11.35,0,0,1-.666-1.177c-.2-.409-.409-.777-.6-1.157q-.589-1.141-1.145-2.208c-1.468-2.862-2.739-5.314-3.777-7.318l-2.383-4.64c-.27-.531-.478-.936-.617-1.226A2.455,2.455,0,0,0,917.939,3293.079Z" transform="translate(-772.515 -3202.993)" fill="#5e6178"/>
      <path id="Trazado_105168" data-name="Trazado 105168" d="M922.024,3268.645a6.806,6.806,0,0,1-.654.409,17.474,17.474,0,0,0-1.717,1.226A16.085,16.085,0,0,0,913.7,3282.4a17.717,17.717,0,0,0,.074,2.114c.045.5.082.772.065.777a.828.828,0,0,1-.053-.2c-.021-.13-.065-.323-.094-.572a13.742,13.742,0,0,1-.139-2.126,15.626,15.626,0,0,1,6-12.228,14.744,14.744,0,0,1,1.766-1.19c.217-.131.409-.212.511-.27A.371.371,0,0,1,922.024,3268.645Z" transform="translate(-769.924 -3202.34)" fill="#5e6178"/>
      <path id="Trazado_105169" data-name="Trazado 105169" d="M963.958,3368.148a2.319,2.319,0,0,1-.523.151l-1.435.36a40.535,40.535,0,0,0-4.64,1.5,34.518,34.518,0,0,0-4.391,2.11c-.544.311-.977.568-1.275.756a2.719,2.719,0,0,1-.474.266,2.853,2.853,0,0,1,.429-.335c.287-.208.707-.487,1.226-.818a29.072,29.072,0,0,1,4.411-2.175,32.979,32.979,0,0,1,4.681-1.447c.609-.139,1.108-.237,1.455-.294A3,3,0,0,1,963.958,3368.148Z" transform="translate(-792.19 -3261.167)" fill="#5e6178"/>
      <g id="Grupo_56870" data-name="Grupo 56870" transform="translate(117.319 59.805)" opacity="0.3">
        <path id="Trazado_105170" data-name="Trazado 105170" d="M865.12,3252.764a3.864,3.864,0,0,0-1.721.854,83.378,83.378,0,0,0-13.523,12.464l-.687,1.272c1.525-1.006,3.271-2.044,5.053-1.689,1.529.323,2.637,1.6,3.63,2.809a127.481,127.481,0,0,0,10-14.558A3.962,3.962,0,0,0,865.12,3252.764Z" transform="translate(-849.189 -3252.747)"/>
      </g>
      <path id="Trazado_105171" data-name="Trazado 105171" d="M849.029,3260.525l6.1-7.714,9.174-10.952,4.873,4.575-8.544,13.229-6.067-3.65Z" transform="translate(-731.776 -3186.505)" fill="#fff"/>
      <g id="Grupo_56871" data-name="Grupo 56871" transform="translate(106.174 62.679)" opacity="0.3">
        <path id="Trazado_105172" data-name="Trazado 105172" d="M822,3261.144c.818,4.342,2.825,7.963,3.638,12.305.969-1.267.736-1.807,1.7-3.074a3.5,3.5,0,0,1,1.419-1.263c1.042-.409,2.191.2,3.14.781a35.444,35.444,0,0,0-4.877-4.468l-.074.352q-2.453-3.045-5.024-6" transform="translate(-821.929 -3259.778)"/>
      </g>
      <path id="Trazado_105173" data-name="Trazado 105173" d="M831.98,3266.291l-8.569-14.6h0l-3.062,2.821,2.9,13.066,4.113-5.294Z" transform="translate(-714.821 -3192.316)" fill="#fff"/>
      <path id="Trazado_105174" data-name="Trazado 105174" d="M831.465,3259.723l-.155-.241-.433-.719-1.635-2.776-6.05-10.24h.115l-3.083,2.706.025-.082c.883,3.957,1.872,8.393,2.943,13.184l-.176-.041,4.088-5.315.065-.086.082.07,4.624,4.01-.09-.024.5-.094-.053.024c1.484-1.32,3.127-2.624,4.726-4.015l.409-.359.057-.049.065.037c2.13,1.136,4.043,2.547,6.067,3.651l-.139.036,8.548-13.225v.123q-2.539-2.4-4.865-4.579h.127L836.453,3254.8l-3.013,3.635-.777,1.01c-.184.212-.282.319-.282.319s.086-.115.262-.335l.773-.969,2.972-3.679,10.719-13.143.061-.07.069.062,4.873,4.57.062.054-.045.065-8.532,13.238-.053.082-.086-.049c-2.044-1.112-3.953-2.522-6.067-3.646h.123l-.409.36c-1.607,1.4-3.271,2.7-4.726,4.015h-.053l-.495.094h-.049l-.041-.033-4.62-4.01h.151l-4.117,5.286-.127.168-.045-.208-2.923-13.2v-.049l.037-.033,3.095-2.694.069-.061.045.082,5.993,10.273,1.615,2.8.409.732C831.424,3259.634,831.465,3259.723,831.465,3259.723Z" transform="translate(-714.649 -3186.333)" fill="#5e6178"/>
      <path id="Trazado_105175" data-name="Trazado 105175" d="M791.419,3278.3c.057,0,0,2.657-.086,5.936a58.4,58.4,0,0,1-.323,5.919c-.074,0-.02-2.657.086-5.936S791.353,3278.3,791.419,3278.3Z" transform="translate(-697.455 -3208.048)" fill="#5e6178"/>
      <path id="Trazado_105176" data-name="Trazado 105176" d="M876.416,3398.493a4.309,4.309,0,0,0-1.492.544c-1.1.74-1.341,2.22-1.488,3.536-.045.409-.057.9.282,1.145a1.165,1.165,0,0,0,1.006,0,31.178,31.178,0,0,0,6.431-2.862,5.135,5.135,0,0,0,2.567-2.628l.069-.515A30.744,30.744,0,0,0,876.416,3398.493Z" transform="translate(-746.191 -3278.643)" fill="#ffbe9d"/>
      <path id="Trazado_105177" data-name="Trazado 105177" d="M900.909,3376.63l2.428,2.036.674-.785-2.437-2.052Z" transform="translate(-762.447 -3265.707)" fill="#344154"/>
      <path id="Trazado_105178" data-name="Trazado 105178" d="M897.011,3387.422c-.041.041-.335-.167-.662-.47s-.552-.581-.515-.621.335.167.662.466S897.047,3387.377,897.011,3387.422Z" transform="translate(-759.444 -3271.913)" fill="#344154"/>
      <path id="Trazado_105179" data-name="Trazado 105179" d="M889.259,3397.7l-3.757,1.312s-3.446-.867-4.906-1.2a3.762,3.762,0,0,0-2.907.511c-1.766,1.145-4.8,3.115-5.891,3.839s-3.863,3.021-3.863,3.021-2.015,2.31-1.358,3.634,2.482,1.136,2.482,1.136a2.75,2.75,0,0,0,2.183,2.044s-.458.719,1.263,1.177,5.723,0,5.723,0,7.359.3,8.058-.053a41.336,41.336,0,0,0,3.8-3.508l2.625-1.57Z" transform="translate(-742.073 -3278.636)" fill="#ffbe9d"/>
      <path id="Trazado_105180" data-name="Trazado 105180" d="M875.91,3403.938a8.87,8.87,0,0,1-1.12.818c-.707.487-1.7,1.136-2.751,1.9a27.172,27.172,0,0,0-2.58,2.114c-.621.581-.982.973-1.006.948s.065-.114.217-.3.384-.45.683-.756a20.755,20.755,0,0,1,2.563-2.175c1.059-.769,2.044-1.4,2.792-1.856A8.974,8.974,0,0,1,875.91,3403.938Z" transform="translate(-743.257 -3282.325)" fill="#eb996e"/>
      <path id="Trazado_105181" data-name="Trazado 105181" d="M881.959,3412.3a1.856,1.856,0,0,1-.372.229l-1.031.589c-.883.479-2.1,1.145-3.373,1.983a24.985,24.985,0,0,0-3.095,2.384c-.74.675-1.165,1.128-1.189,1.108a1.607,1.607,0,0,1,.266-.348c.18-.217.462-.515.818-.871a20.641,20.641,0,0,1,3.078-2.453,33.2,33.2,0,0,1,3.422-1.937c.45-.221.818-.409,1.079-.507A1.491,1.491,0,0,1,881.959,3412.3Z" transform="translate(-745.888 -3287.268)" fill="#eb996e"/>
      <path id="Trazado_105182" data-name="Trazado 105182" d="M889,3418.918a1.865,1.865,0,0,1-.339.331c-.229.2-.576.475-1.014.789-.879.646-2.163,1.423-3.586,2.265a19.286,19.286,0,0,1-3.892,1.692c-.519.167-.94.29-1.227.372a2.293,2.293,0,0,1-.462.1,2.026,2.026,0,0,1,.433-.184c.331-.114.732-.262,1.226-.433a22.2,22.2,0,0,0,3.831-1.733c1.427-.842,2.714-1.595,3.61-2.2.446-.3.818-.556,1.047-.731A2.228,2.228,0,0,1,889,3418.918Z" transform="translate(-749.186 -3291.181)" fill="#eb996e"/>
      <path id="Trazado_105183" data-name="Trazado 105183" d="M900.677,3426.945a3.18,3.18,0,0,1-.63.646,13.451,13.451,0,0,1-1.737,1.3,13.875,13.875,0,0,1-1.917,1.018,3.117,3.117,0,0,1-.854.295c-.024-.062,1.226-.589,2.657-1.493S900.632,3426.9,900.677,3426.945Z" transform="translate(-759.272 -3295.926)" fill="#eb996e"/>
      <path id="Trazado_105184" data-name="Trazado 105184" d="M878.722,3438.777H823.279a3.569,3.569,0,0,1,3.569-3.569h48.3a3.569,3.569,0,0,1,3.569,3.569Z" transform="translate(-716.553 -3300.812)" fill="#5e6178"/>
      <path id="Trazado_105185" data-name="Trazado 105185" d="M657.37,3372.568l-25.641-.123-8.691-41.159a3.68,3.68,0,0,0-3.585-2.919H565.87a3.68,3.68,0,0,0-3.577,4.444l8.826,40.472a2.952,2.952,0,0,0,2.886,2.322h87.076C661.082,3373.533,659.447,3372.568,657.37,3372.568Z" transform="translate(-562.213 -3237.648)" fill="#e0e0e0"/>
      <path id="Trazado_105186" data-name="Trazado 105186" d="M712.816,3375.614c-.057,0-2.473-10.552-5.4-23.6s-5.249-23.633-5.192-23.65,2.473,10.552,5.4,23.6S712.873,3375.6,712.816,3375.614Z" transform="translate(-644.988 -3237.648)" fill="#5e6178"/>
      <path id="Trazado_105187" data-name="Trazado 105187" d="M641.489,3382.269a3.445,3.445,0,1,1-5.045-1.055A3.656,3.656,0,0,1,641.489,3382.269Z" transform="translate(-605.34 -3268.53)" fill="#fff"/>
      <rect id="Rectángulo_8043" data-name="Rectángulo 8043" width="3.712" height="1.701" rx="0.85" transform="translate(79.545 135.472)" fill="#5e6178"/>
      <path id="Trazado_105188" data-name="Trazado 105188" d="M798.834,3439.508a1.364,1.364,0,0,1,.111.118,1.094,1.094,0,0,1,.184.433,1.755,1.755,0,0,1-.675,1.635,2.425,2.425,0,0,1-1.226.462,6.689,6.689,0,0,1-1.558-.041,8.9,8.9,0,0,0-1.767-.1,2.742,2.742,0,0,0-.92.212,1.361,1.361,0,0,0-.728.609.868.868,0,0,0,.2.916,2.164,2.164,0,0,0,.883.613,8.786,8.786,0,0,1,1.083.466,1.467,1.467,0,0,1,.748,1,2.011,2.011,0,0,1-1.353,2.081,7.865,7.865,0,0,1-2.706.339,44.92,44.92,0,0,1-5.809-.376c-2-.237-4.088-.531-6.2-.724a32.576,32.576,0,0,0-6.214,0c-2,.184-3.937.462-5.8.495a9.816,9.816,0,0,1-2.715-.241,3.813,3.813,0,0,1-2.167-1.374,2.72,2.72,0,0,1-.5-2.322,1.661,1.661,0,0,1,1.737-1.227.944.944,0,0,1,.793.678,1.192,1.192,0,0,1-.2.981,1.223,1.223,0,0,1-.793.515,1.549,1.549,0,0,1-.879-.119,2.086,2.086,0,0,1-1.075-1.124,3.892,3.892,0,0,1-.27-1.284c-.033-.789.041-1.4.041-1.807v-.47a.8.8,0,0,1,0-.159,1.154,1.154,0,0,1,.021.159c0,.106.02.262.024.47,0,.409-.041,1.022,0,1.8a3.777,3.777,0,0,0,.282,1.251,1.973,1.973,0,0,0,1.026,1.055,1.436,1.436,0,0,0,.818.106,1.073,1.073,0,0,0,.7-.47,1.061,1.061,0,0,0,.176-.863.818.818,0,0,0-.679-.568,1.5,1.5,0,0,0-1.562,1.12,2.571,2.571,0,0,0,.491,2.175,3.61,3.61,0,0,0,2.073,1.292,9.5,9.5,0,0,0,2.661.229c1.848-.037,3.773-.319,5.785-.507a32.642,32.642,0,0,1,6.251,0c2.134.192,4.2.491,6.2.728a45.432,45.432,0,0,0,5.785.388,7.635,7.635,0,0,0,2.637-.319,2.041,2.041,0,0,0,.965-.748,1.583,1.583,0,0,0,.282-1.124,1.278,1.278,0,0,0-.658-.883,8.011,8.011,0,0,0-1.063-.462,2.361,2.361,0,0,1-.94-.662,1.3,1.3,0,0,1-.266-.511.876.876,0,0,1,.053-.568,1.467,1.467,0,0,1,.818-.679,3.085,3.085,0,0,1,.969-.221,9.235,9.235,0,0,1,1.786.123,6.612,6.612,0,0,0,1.537.057,2.316,2.316,0,0,0,1.186-.409,1.717,1.717,0,0,0,.686-1.546A1.172,1.172,0,0,0,798.834,3439.508Z" transform="translate(-679.745 -3303.354)" fill="#5e6178"/>
      <path id="Trazado_105189" data-name="Trazado 105189" d="M878.692,3439.4c0,.057-12.166.106-27.169.106s-27.174-.049-27.174-.106,12.146-.1,27.174-.1S878.692,3439.339,878.692,3439.4Z" transform="translate(-717.185 -3303.229)" fill="#344154"/>
    </g>
    <g id="freepik--speech-bubble--inject-3" transform="translate(596.263 3024.864)">
      <path id="Trazado_105190" data-name="Trazado 105190" d="M903.441,3082.182l7.125-1.091a21.826,21.826,0,1,0-5.654-5.4h0Z" transform="translate(-900.672 -3040.989)" fill="#cdb9f8"/>
      <path id="Trazado_105191" data-name="Trazado 105191" d="M903.336,3082.117l.086-.408.269-1.227c.242-1.1.6-2.735,1.063-4.853a.045.045,0,0,1,.052-.037h0l-.065.062a22.08,22.08,0,0,1-2.391-4.166,22.267,22.267,0,0,1-1.779-9.145,24.634,24.634,0,0,1,.409-3.623,21.8,21.8,0,0,1,27.66-16.879,22.628,22.628,0,0,1,4.836,2.044l1.116.728.564.368c.184.126.352.274.527.409l1.059.858c.347.286.654.617.985.928a20.323,20.323,0,0,1,1.795,1.966l.217.249.192.27.376.544c.249.364.523.711.744,1.087s.429.76.646,1.141c.106.188.217.376.319.568l.262.6.527,1.182c.164.409.278.817.409,1.226a21.863,21.863,0,0,1-13.975,27.581q-.846.277-1.711.484l-.907.2-.45.1-.454.053c-.6.069-1.19.151-1.77.209a29.994,29.994,0,0,1-3.385-.033,21.738,21.738,0,0,1-10.134-3.532h.033l-5.315.781-1.357.2-.454.061.47-.082,1.365-.217,5.286-.818h.029a21.941,21.941,0,0,0,4.3,2.188,21.636,21.636,0,0,0,5.793,1.292,28.685,28.685,0,0,0,3.36.024c.576-.062,1.165-.139,1.762-.213l.45-.053.442-.1.9-.2a21.667,21.667,0,0,0,16.023-26.118q-.208-.871-.489-1.722c-.139-.409-.258-.818-.409-1.227l-.523-1.173-.262-.588c-.1-.188-.208-.372-.315-.564q-.319-.555-.638-1.128c-.221-.373-.491-.716-.736-1.076l-.376-.536-.188-.27-.217-.25a20.469,20.469,0,0,0-1.811-1.95c-.327-.306-.634-.633-.977-.919l-1.042-.818c-.176-.135-.344-.282-.523-.409l-.56-.364-1.108-.72a22.557,22.557,0,0,0-4.783-2.044,21.467,21.467,0,0,0-18.613,3.046,21.767,21.767,0,0,0-5.977,6.316,21.532,21.532,0,0,0-2.862,7.358,24.238,24.238,0,0,0-.409,3.6,21.55,21.55,0,0,0,.18,3.369,21.816,21.816,0,0,0,3.97,9.856.049.049,0,0,1,0,.065.045.045,0,0,1-.053,0h0l.07-.025c-.482,2.1-.854,3.716-1.108,4.816-.127.543-.225.96-.29,1.247A1.717,1.717,0,0,1,903.336,3082.117Z" transform="translate(-900.566 -3040.924)" fill="#5e6178"/>
      <g id="Grupo_56872" data-name="Grupo 56872" transform="translate(10.053 5.825)">
        <path id="Trazado_105192" data-name="Trazado 105192" d="M925.157,3060.877a5.454,5.454,0,0,1,1.649-4.122,5.977,5.977,0,0,1,4.32-1.582,6.071,6.071,0,0,1,4.358,1.563,5.557,5.557,0,0,1,1.649,4.235v1.365a5.385,5.385,0,0,1-1.649,4.112,6.807,6.807,0,0,1-8.669-.01,5.514,5.514,0,0,1-1.658-4.216Zm3.638,1.459a2.553,2.553,0,0,0,.654,1.829,2.251,2.251,0,0,0,1.715.691,2.147,2.147,0,0,0,1.686-.7,2.716,2.716,0,0,0,.625-1.876v-1.4a2.658,2.658,0,0,0-.625-1.838,2.437,2.437,0,0,0-3.411-.01,2.715,2.715,0,0,0-.644,1.924Zm3.449,18.759-2.672-1.439,13.473-21.564,2.672,1.44Zm6.1-4.7a5.384,5.384,0,0,1,1.668-4.121,6.062,6.062,0,0,1,4.321-1.564,6.128,6.128,0,0,1,4.348,1.544,5.53,5.53,0,0,1,1.658,4.254v1.365a5.427,5.427,0,0,1-1.63,4.1,6.007,6.007,0,0,1-4.339,1.563,6.078,6.078,0,0,1-4.377-1.573,5.5,5.5,0,0,1-1.649-4.169Zm3.638,1.479a2.532,2.532,0,0,0,.682,1.781,2.225,2.225,0,0,0,1.705.738q2.312,0,2.312-2.558v-1.44a2.577,2.577,0,0,0-.644-1.829,2.448,2.448,0,0,0-3.411,0,2.657,2.657,0,0,0-.644,1.885Z" transform="translate(-925.157 -3055.173)" fill="#f2e9e4"/>
      </g>
    </g>
  </g>
</svg>
