<svg xmlns="http://www.w3.org/2000/svg" width="125" height="125" viewBox="0 0 125 125">
  <g id="Grupo_57472" data-name="Grupo 57472" transform="translate(-64.138 -4236.651)">
    <g id="Grupo_57469" data-name="Grupo 57469" transform="translate(64.138 4236.651)">
      <rect id="Rectángulo_5870" data-name="Rectángulo 5870" width="125" height="125" fill="#5e6178" opacity="0"/>
      <path id="Trazado_105592" data-name="Trazado 105592" d="M184.934,4307.563a51.594,51.594,0,1,1-51.594-51.594,51.594,51.594,0,0,1,51.594,51.594Z" transform="translate(-70.719 -4243.873)" fill="#f2e9e4"/>
    </g>
    <g id="Grupo_57470" data-name="Grupo 57470" transform="translate(87.398 4268.411)">
      <path id="Trazado_105593" data-name="Trazado 105593" d="M134.79,4300.971a1.328,1.328,0,0,0,2.3-1.328l-2.892-5.008a1.328,1.328,0,1,0-2.3,1.328Z" transform="translate(-112.66 -4289.837)" fill="#344154" fill-rule="evenodd"/>
      <path id="Trazado_105594" data-name="Trazado 105594" d="M192.374,4317.558a1.323,1.323,0,0,0,.663-.178l5.008-2.892a1.328,1.328,0,1,0-1.328-2.3l-5.009,2.892a1.328,1.328,0,0,0,.666,2.479Z" transform="translate(-134.835 -4296.58)" fill="#344154" fill-rule="evenodd"/>
      <path id="Trazado_105595" data-name="Trazado 105595" d="M114.346,4314.488l5.008,2.892a1.328,1.328,0,1,0,1.328-2.3l-5.008-2.892a1.328,1.328,0,1,0-1.328,2.3Z" transform="translate(-105.917 -4296.58)" fill="#344154" fill-rule="evenodd"/>
      <path id="Trazado_105596" data-name="Trazado 105596" d="M177.05,4301.458a1.328,1.328,0,0,0,1.814-.487l2.892-5.008a1.328,1.328,0,0,0-2.3-1.328l-2.892,5.008a1.329,1.329,0,0,0,.486,1.815Z" transform="translate(-129.355 -4289.837)" fill="#344154" fill-rule="evenodd"/>
      <path id="Trazado_105597" data-name="Trazado 105597" d="M157.69,4295.812a1.329,1.329,0,0,0,1.329-1.329V4288.7a1.328,1.328,0,1,0-2.657,0v5.786a1.329,1.329,0,0,0,1.328,1.326Z" transform="translate(-121.871 -4287.369)" fill="#344154" fill-rule="evenodd"/>
      <path id="Trazado_105598" data-name="Trazado 105598" d="M157.69,4376.694a1.328,1.328,0,0,0-1.328,1.328v5.787a1.328,1.328,0,1,0,2.657,0v-5.787a1.329,1.329,0,0,0-1.329-1.328Z" transform="translate(-121.871 -4320.758)" fill="#344154" fill-rule="evenodd"/>
      <path id="Trazado_105599" data-name="Trazado 105599" d="M203.52,4336.652h-5.787a1.328,1.328,0,0,0,0,2.656h5.787a1.328,1.328,0,1,0,0-2.656Z" transform="translate(-136.839 -4305.791)" fill="#344154" fill-rule="evenodd"/>
      <path id="Trazado_105600" data-name="Trazado 105600" d="M178.864,4372a1.328,1.328,0,0,0-2.3,1.329l2.892,5.008a1.328,1.328,0,0,0,2.3-1.328Z" transform="translate(-129.355 -4318.755)" fill="#344154" fill-rule="evenodd"/>
      <path id="Trazado_105601" data-name="Trazado 105601" d="M198.046,4359.746l-5.008-2.892a1.328,1.328,0,1,0-1.329,2.3l5.009,2.893a1.328,1.328,0,0,0,1.328-2.3Z" transform="translate(-134.835 -4313.275)" fill="#344154" fill-rule="evenodd"/>
      <path id="Trazado_105602" data-name="Trazado 105602" d="M154.953,4321a1.327,1.327,0,0,0-.969,1.608,17.412,17.412,0,0,1-22.427,20.692,7.28,7.28,0,0,0-5.944-11,10.262,10.262,0,0,0-5.9-5.333c0-.051,0-.1,0-.154a17.392,17.392,0,0,1,29.344-12.635,1.328,1.328,0,1,0,1.826-1.93,20.048,20.048,0,0,0-33.821,14.17c-.239-.017-.478-.026-.719-.026a10.267,10.267,0,0,0-10.066,8.382,6.094,6.094,0,0,0,1.1,12.088H125.3a7.244,7.244,0,0,0,4.338-1.437,20.059,20.059,0,0,0,26.92-23.451A1.33,1.33,0,0,0,154.953,4321Zm-47.578,23.2a3.437,3.437,0,0,1,0-6.874h.079a1.327,1.327,0,0,0,1.325-1.236,7.579,7.579,0,0,1,14.7-2,1.328,1.328,0,0,0,1.378.878c.148-.014.3-.021.443-.021a4.628,4.628,0,0,1,0,9.257Z" transform="translate(-101.282 -4294.616)" fill="#344154" fill-rule="evenodd"/>
      <path id="Trazado_105603" data-name="Trazado 105603" d="M182.185,4322.9a1.328,1.328,0,1,0,1.328-1.33A1.328,1.328,0,0,0,182.185,4322.9Z" transform="translate(-131.523 -4300.156)" fill="#344154" fill-rule="evenodd"/>
    </g>
    <g id="Grupo_57471" data-name="Grupo 57471" transform="translate(155.112 4251.408)">
      <path id="Trazado_105604" data-name="Trazado 105604" d="M223.2,4270.114h9.454v4.075H223.2V4284.9h-4.331v-10.713h-9.454v-4.075h9.454v-9.9H223.2Z" transform="translate(-209.417 -4260.217)" fill="#6595bf"/>
    </g>
  </g>
</svg>
