<svg xmlns="http://www.w3.org/2000/svg" width="125" height="125" viewBox="0 0 125 125">
  <g id="Grupo_57483" data-name="Grupo 57483" transform="translate(-748.17 -4236.652)">
    <g id="Grupo_57478" data-name="Grupo 57478" transform="translate(748.17 4236.652)">
      <rect id="Rectángulo_5872" data-name="Rectángulo 5872" width="125" height="125" fill="#344154" opacity="0"/>
      <path id="Trazado_105611" data-name="Trazado 105611" d="M868.769,4307.464a51.5,51.5,0,1,1-51.5-51.5,51.5,51.5,0,0,1,51.5,51.5Z" transform="translate(-754.773 -4243.896)" fill="#344154"/>
    </g>
    <g id="Grupo_57480" data-name="Grupo 57480" transform="translate(779.985 4272.125)">
      <g id="Grupo_57479" data-name="Grupo 57479">
        <path id="Trazado_105612" data-name="Trazado 105612" d="M845.348,4327.983a5.395,5.395,0,0,0,.273-8.321,4.494,4.494,0,0,0-1.667-4.294,4.4,4.4,0,0,0-3.257-.847,6.685,6.685,0,0,0-8.671-5.477,7.111,7.111,0,0,0-11.409,3.039,6.867,6.867,0,0,0-2.737.685,25.17,25.17,0,0,1,6.609-17.422,1.155,1.155,0,0,0-.98-1.929,27.576,27.576,0,0,0-20.921,13.873,1.154,1.154,0,1,0,2.014,1.128,25.291,25.291,0,0,1,16.188-12.187,27.481,27.481,0,0,0-5.134,18.32l-.07.085a7.07,7.07,0,0,0-1.221,5.854,4.44,4.44,0,0,0,1.463,8.634h5.484a27.613,27.613,0,0,0,21.724,10.679,25.335,25.335,0,0,1-15.516,6.051,6.274,6.274,0,0,0-5.342-5.895,5.464,5.464,0,0,0-5.138-3.683c-.169,0-.338.007-.506.023a6.468,6.468,0,0,0-10.433-.946,25.441,25.441,0,0,1-1.964-3.223,25,25,0,0,1-2.569-14.416,1.155,1.155,0,1,0-2.292-.277,27.4,27.4,0,0,0,4.638,18.817,5.108,5.108,0,0,0-2.856,4.58,5.22,5.22,0,0,0,.036.61,6.331,6.331,0,0,0,4.328,10.964h15.839a6.276,6.276,0,0,0,5.931-4.236,27.668,27.668,0,0,0,11.909-2.986,27.377,27.377,0,0,0,7.814-5.922,1.154,1.154,0,0,0-.981-1.927,25.323,25.323,0,0,1-21.617-8.211H842.38a4.416,4.416,0,0,0,2.968-1.141ZM821.257,4350.1h-15.84a4.034,4.034,0,0,1-4.034-4.025,3.983,3.983,0,0,1,1.652-3.245,1.157,1.157,0,0,0,.429-1.247,2.752,2.752,0,0,1-.1-.748,2.8,2.8,0,0,1,2.8-2.793,1.86,1.86,0,0,1,.188.005,1.156,1.156,0,0,0,1.041-.564,4.161,4.161,0,0,1,7.424.544,1.154,1.154,0,0,0,1.376.675,3.181,3.181,0,0,1,.844-.116,3.126,3.126,0,0,1,3.078,2.634,1.154,1.154,0,0,0,1.141.981,3.95,3.95,0,1,1,0,7.9Zm-5.43-23.284a2.131,2.131,0,1,1,0-4.262A1.156,1.156,0,0,0,816.91,4321a5.078,5.078,0,0,1,.507-4.953,4.291,4.291,0,0,1,3.476-1.658c.163,0,.328.007.494.023a1.156,1.156,0,0,0,1.244-.934,4.8,4.8,0,0,1,7.171-3.2,6.688,6.688,0,0,0-2.4,5.112,1.155,1.155,0,0,0,2.31,0,4.377,4.377,0,0,1,2.489-3.932l.036-.015a4.317,4.317,0,0,1,1.839-.4,4.364,4.364,0,0,1,4.364,4.353,4.716,4.716,0,0,1-.037.585,1.155,1.155,0,0,0,1.729,1.139,2.184,2.184,0,0,1,2.426.1,2.394,2.394,0,0,1,.676,2.645,1.156,1.156,0,0,0,.486,1.257,3.088,3.088,0,0,1,.186,5.067c-.03.023-.058.047-.086.072a2.117,2.117,0,0,1-1.442.565Z" transform="translate(-799.073 -4293.409)" fill="#fff"/>
        <path id="Trazado_105613" data-name="Trazado 105613" d="M851.795,4301.34l3.439,1.872,1.873,3.431a1.155,1.155,0,0,0,1.013.6h0a1.157,1.157,0,0,0,1.013-.6l1.877-3.432,3.439-1.872a1.154,1.154,0,0,0,0-2.029l-3.439-1.87-1.876-3.431a1.153,1.153,0,0,0-1.013-.6h0a1.154,1.154,0,0,0-1.013.6l-1.873,3.431-3.439,1.869a1.155,1.155,0,0,0,0,2.029Zm4.842-2.031a1.159,1.159,0,0,0,.462-.461l1.023-1.875,1.026,1.875a1.164,1.164,0,0,0,.462.461l1.873,1.018-1.873,1.019a1.161,1.161,0,0,0-.461.461l-1.026,1.875-1.023-1.875a1.158,1.158,0,0,0-.461-.461l-1.873-1.019Z" transform="translate(-818.618 -4293.409)" fill="#fff"/>
        <path id="Trazado_105614" data-name="Trazado 105614" d="M884.756,4315.53l-3.44-1.873-1.876-3.432a1.154,1.154,0,0,0-1.014-.6h0a1.155,1.155,0,0,0-1.013.6l-1.873,3.433-3.44,1.872a1.155,1.155,0,0,0,0,2.029l3.439,1.869,1.873,3.431a1.153,1.153,0,0,0,1.013.6h0a1.157,1.157,0,0,0,1.014-.6l1.876-3.432,3.44-1.869a1.154,1.154,0,0,0,0-2.028Zm-4.842,2.03a1.16,1.16,0,0,0-.462.461l-1.025,1.875-1.023-1.875a1.162,1.162,0,0,0-.463-.461l-1.873-1.018,1.873-1.019a1.16,1.16,0,0,0,.462-.461l1.023-1.874,1.025,1.875a1.165,1.165,0,0,0,.461.46l1.873,1.019Z" transform="translate(-826.232 -4299.49)" fill="#fff"/>
        <path id="Trazado_105615" data-name="Trazado 105615" d="M801.78,4324.427a1.155,1.155,0,0,0,1.553-.506v-.007a1.155,1.155,0,1,0-1.556.513Z" transform="translate(-799.852 -4304.221)" fill="#fff"/>
      </g>
    </g>
    <g id="Grupo_57481" data-name="Grupo 57481" transform="translate(838.97 4251.38)">
      <path id="Trazado_105616" data-name="Trazado 105616" d="M907.209,4270.1h9.436v4.067h-9.436v10.692h-4.323v-10.692H893.45V4270.1h9.436v-9.878h4.323Z" transform="translate(-893.45 -4260.217)" fill="#6595bf"/>
    </g>
    <g id="Grupo_57482" data-name="Grupo 57482" transform="translate(818.613 4252.146)">
      <path id="Trazado_105617" data-name="Trazado 105617" d="M876.493,4263.093l-9.569,21.455h-3.078l9.537-20.693h-12.5v-2.413H876.5Z" transform="translate(-860.878 -4261.442)" fill="#d9a171"/>
    </g>
  </g>
</svg>
