<svg xmlns="http://www.w3.org/2000/svg" width="400.064" height="400.399" viewBox="0 0 400.064 400.399">
  <g id="Capa_2" data-name="Capa 2" transform="translate(-28.049 -32.281)">
    <g id="Grupo_60096" data-name="Grupo 60096" transform="translate(28.049 32.281)">
      <g id="Grupo_60055" data-name="Grupo 60055" transform="translate(157.217 324.523)">
        <path id="Trazado_110429" data-name="Trazado 110429" d="M225.286,471.451c-1.38-1.185-4.422-4.917-2.078-9.259.884-1.592,2.706-2.379,4.422-3.086a17.632,17.632,0,0,0,4.793-2.485c2.6-2.211,3.316-5.881,5.041-8.843,1.99-3.387,5.686-5.925,9.6-5.748,4.475.2,8.207,3.856,9.9,8.021s1.769,8.8,1.769,13.265c0,2.485-.088,5.306-1.919,6.969-1.68,1.556-4.218,1.574-6.5,1.5l-24.461-.752" transform="translate(-207.741 -404.197)" fill="#e6dcfb"/>
        <path id="Trazado_110430" data-name="Trazado 110430" d="M270.147,399.25H205.83l11.585,69.084a7.711,7.711,0,0,0,5.492,6.146l.23.062c.186.053.371.115.566.15a8.007,8.007,0,0,0,1.309.15v.071l.31-.053h28.67a8.224,8.224,0,0,0,8.083-6.907l5.58-47.6.256-1.892h0l2.211-18.854Zm-12.133,44.066h-6.6l.663-20.048h7.649Zm2.352-20.048h6.323l-2.343,20.048h-5.677ZM241.513,465.54l-.4-17.413h9.5l-.575,17.413Zm-10.276-17.413h9.232l.407,17.413H232.59Zm.716,17.413h-7.747c-.734-4.7-1.689-10.815-2.733-17.413H230.6Zm-1.088-22.223L229.3,423.268h10.612l.46,20.048Zm10.134,0-.46-20.048h10.9l-.663,20.048Zm-.531-24.832-.424-18.571h12.221l-.619,18.571Zm-.637,0h-10.86l-1.441-18.571h11.877Zm-11.5,0h-11.5l-1.132-7.2c-1.2-7.508-1.654-10.338-1.9-11.4h13.088Zm.371,4.811,1.556,20.048h-9.542c-.318-2.034-.646-4.094-.964-6.19-.752-4.731-1.495-9.462-2.193-13.893Zm-8.587,20.048h-6.19L210.57,423.3h6.411c.911,6.164,2,13.062,3.1,20.021Zm.752,4.811c.946,6.022,1.884,11.965,2.733,17.413h-5.96l-2.927-17.413Zm29.846,17.413.584-17.413h6.35l-1.495,17.413Zm1.521-47.082.619-18.571H261.7l-1.592,18.571Zm-39.088-18.571c.256,1.344,1.433,8.649,3.007,18.571H209.7l-3.122-18.571Zm48.541,65.626h-4.97l1.486-17.413h5.527Zm5.562-47.055h-6.447l1.583-18.571h7.075Z" transform="translate(-205.83 -399.25)" fill="#cdb9f8"/>
      </g>
      <g id="Grupo_60057" data-name="Grupo 60057" transform="translate(169.097 203.458)">
        <g id="Grupo_60056" data-name="Grupo 60056">
          <path id="Trazado_110431" data-name="Trazado 110431" d="M274.832,315.1l-34.7,10.815a4.537,4.537,0,0,1-5.686-2.989l-14.972-48.019a4.537,4.537,0,0,1,2.989-5.7l22-6.862L266.97,274.6l10.851,34.807A4.554,4.554,0,0,1,274.832,315.1Z" transform="translate(-219.264 -262.35)" fill="#e6dcfb"/>
          <path id="Trazado_110432" data-name="Trazado 110432" d="M247.76,262.38l4.218,13.521a4.227,4.227,0,0,0,5.306,2.777l13-4.05Z" transform="translate(-222.56 -262.353)" fill="#cdb9f8"/>
        </g>
        <path id="Trazado_110433" data-name="Trazado 110433" d="M246.9,278.067c.053.168-3.493,1.433-7.959,2.812s-8.074,2.361-8.127,2.184,3.537-1.433,7.959-2.812S246.9,277.89,246.9,278.067Z" transform="translate(-220.599 -264.166)" fill="#fafafa"/>
        <path id="Trazado_110434" data-name="Trazado 110434" d="M260.01,283.049c.053.177-5.819,2.158-13.115,4.422s-13.265,3.971-13.265,3.8,5.819-2.158,13.115-4.422S259.957,282.88,260.01,283.049Z" transform="translate(-220.926 -264.743)" fill="#fafafa"/>
        <path id="Trazado_110435" data-name="Trazado 110435" d="M264.633,289.429c.053.177-6.349,2.326-14.3,4.8s-14.45,4.351-14.5,4.174,6.341-2.281,14.3-4.8S264.58,289.261,264.633,289.429Z" transform="translate(-221.18 -265.481)" fill="#fafafa"/>
        <path id="Trazado_110436" data-name="Trazado 110436" d="M266.759,296.238c.053.177-6.35,2.326-14.3,4.8S238,305.391,238,305.214s6.35-2.326,14.308-4.8S266.705,296.026,266.759,296.238Z" transform="translate(-221.431 -266.268)" fill="#fafafa"/>
        <path id="Trazado_110437" data-name="Trazado 110437" d="M268.874,303.048c.053.168-6.35,2.326-14.3,4.8s-14.441,4.342-14.494,4.174,6.341-2.326,14.3-4.8S268.821,302.872,268.874,303.048Z" transform="translate(-221.672 -267.056)" fill="#fafafa"/>
        <path id="Trazado_110438" data-name="Trazado 110438" d="M270.994,309.858c.053.168-6.35,2.317-14.3,4.8S242.253,319,242.2,318.826s6.35-2.326,14.3-4.8S270.941,309.682,270.994,309.858Z" transform="translate(-221.917 -267.844)" fill="#fafafa"/>
      </g>
      <g id="Grupo_60059" data-name="Grupo 60059" transform="translate(335.127)">
        <g id="Grupo_60058" data-name="Grupo 60058">
          <path id="Trazado_110439" data-name="Trazado 110439" d="M443.781,101.117,409.911,87.94a4.554,4.554,0,0,1-2.591-5.89l18.244-46.87a4.546,4.546,0,0,1,5.881-2.591l21.48,8.357,9.966,23.594L449.67,98.525a4.545,4.545,0,0,1-5.89,2.591Z" transform="translate(-407.01 -32.281)" fill="#e6dcfb"/>
          <path id="Trazado_110440" data-name="Trazado 110440" d="M458.221,42.07l-5.129,13.2a4.227,4.227,0,0,0,2.405,5.474l12.69,4.935Z" transform="translate(-412.307 -33.413)" fill="#cdb9f8"/>
        </g>
        <path id="Trazado_110441" data-name="Trazado 110441" d="M448.1,54.331c-.062.168-3.626-1.052-7.959-2.741s-7.782-3.184-7.72-3.352,3.635,1.052,7.959,2.741S448.17,54.163,448.1,54.331Z" transform="translate(-409.949 -34.125)" fill="#fafafa"/>
        <path id="Trazado_110442" data-name="Trazado 110442" d="M454.946,66.688c-.071.168-5.9-1.937-13.017-4.713s-12.84-5.147-12.779-5.306,5.9,1.946,13.017,4.713S455.008,66.538,454.946,66.688Z" transform="translate(-409.571 -35.101)" fill="#fafafa"/>
        <path id="Trazado_110443" data-name="Trazado 110443" d="M454.526,74.658c-.062.168-6.411-2.149-14.149-5.164s-14-5.607-13.937-5.775,6.411,2.14,14.149,5.164S454.6,74.481,454.526,74.658Z" transform="translate(-409.258 -35.916)" fill="#fafafa"/>
        <path id="Trazado_110444" data-name="Trazado 110444" d="M451.946,81.3c-.071.168-6.42-2.14-14.149-5.156s-14.008-5.607-13.937-5.784,6.411,2.149,14.149,5.164S452.008,81.13,451.946,81.3Z" transform="translate(-408.959 -36.684)" fill="#fafafa"/>
        <path id="Trazado_110445" data-name="Trazado 110445" d="M449.326,87.947c-.062.168-6.411-2.14-14.149-5.164s-14-5.607-13.937-5.784,6.411,2.14,14.149,5.164S449.424,87.779,449.326,87.947Z" transform="translate(-408.656 -37.452)" fill="#fafafa"/>
        <path id="Trazado_110446" data-name="Trazado 110446" d="M446.776,94.569c-.071.168-6.42-2.14-14.149-5.156s-14.008-5.607-13.937-5.775,6.411,2.14,14.149,5.156S446.838,94.419,446.776,94.569Z" transform="translate(-408.361 -38.22)" fill="#fafafa"/>
      </g>
      <g id="Grupo_60060" data-name="Grupo 60060" transform="translate(0 193.062)">
        <path id="Trazado_110447" data-name="Trazado 110447" d="M82,260.486a2.706,2.706,0,0,1,2.282,3.078c-.141.946-.274,1.875-.336,2.282l-3.122,20.481a1.769,1.769,0,0,1-2.025,1.5L31.932,280.7a1.769,1.769,0,0,1-1.5-1.937l2.4-26.53a1.769,1.769,0,0,1,2.043-1.618l10.612,1.609a4.271,4.271,0,0,1,2.538,1.38l1.91,2.193Z" transform="translate(-28.323 -250.595)" fill="#cdb9f8"/>
        <rect id="Rectángulo_8909" data-name="Rectángulo 8909" width="51.848" height="31.288" transform="translate(5.488 5.396) rotate(8.65)" fill="#aed3f2"/>
        <path id="Trazado_110448" data-name="Trazado 110448" d="M29.04,258.987l-.99,32.853a1.15,1.15,0,0,0,.973,1.176l49.956,7.6a1.15,1.15,0,0,0,1.291-.884l7.42-31.836a1.15,1.15,0,0,0-.937-1.406l-56.385-8.578a1.159,1.159,0,0,0-1.326,1.079Z" transform="translate(-28.049 -251.439)" fill="#e6dcfb"/>
      </g>
      <g id="Grupo_60062" data-name="Grupo 60062" transform="translate(23.833 201.07)">
        <path id="Trazado_110449" data-name="Trazado 110449" d="M159.751,264.86c-10.134,5.244-17.9,14.282-23.488,24.24s-9.188,20.87-12.761,31.712l-3.122,55.908c11.8-20.057,21.224-43.642,23.815-66.767l-7.844-.7c5.262-.8,9.675-4.616,12.487-9.135s4.254-9.728,5.669-14.866l-9.577,1.424A35.462,35.462,0,0,0,159.751,264.86Z" transform="translate(-62.562 -260.253)" fill="#5e6178"/>
        <g id="Grupo_60061" data-name="Grupo 60061" transform="translate(57.818 4.607)" opacity="0.3">
          <path id="Trazado_110450" data-name="Trazado 110450" d="M159.751,264.86c-10.134,5.244-17.9,14.282-23.488,24.24s-9.188,20.87-12.761,31.712l-3.122,55.908c11.8-20.057,21.224-43.642,23.815-66.767l-7.844-.7c5.262-.8,9.675-4.616,12.487-9.135s4.254-9.728,5.669-14.866l-9.577,1.424A35.462,35.462,0,0,0,159.751,264.86Z" transform="translate(-120.38 -264.86)" fill="#d9a171"/>
        </g>
        <path id="Trazado_110451" data-name="Trazado 110451" d="M115.094,389.214S89.5,358.58,89.794,329.344h10.338s-11.222-7.393-10.338-11.5,1.185-19.791,1.185-19.791l9.454,2.361s-7.075-3.537-7.959-9.153,2.069-31.615,2.069-31.615,11.5,12.115,15.034,24.523,12.849,26.884,10.117,64.689S115.094,389.214,115.094,389.214Z" transform="translate(-59.019 -259.65)" fill="#5e6178"/>
        <path id="Trazado_110452" data-name="Trazado 110452" d="M133.079,396.465S160.811,378,166.966,354.424l-8.313-2.264s10.612-3.484,10.842-7,3.378-16.166,3.378-16.166l-8.118-.168s6.473-1.3,8.41-5.615,5.253-25.867,5.253-25.867-11.912,7.216-17.474,16.413-16.21,18.8-22.285,49.8S133.079,396.465,133.079,396.465Z" transform="translate(-64.03 -264.01)" fill="#5e6178"/>
        <path id="Trazado_110453" data-name="Trazado 110453" d="M103.05,289.83a1.239,1.239,0,0,1,.1.318c.053.23.124.548.221.937l.814,3.635c.354,1.583.769,3.537,1.212,5.766s.99,4.82,1.5,7.667c1.1,5.677,2.255,12.469,3.449,20.021s2.3,15.918,3.325,24.655,1.769,17.147,2.388,24.761.99,14.5,1.212,20.278c.15,2.892.212,5.509.283,7.8s.124,4.28.133,5.9,0,2.839.044,3.723v.964a2.465,2.465,0,0,1,0,.336,1.255,1.255,0,0,1,0-.336v-.964c0-.884-.071-2.131-.133-3.723s-.106-3.59-.212-5.89-.186-4.908-.354-7.791c-.274-5.775-.725-12.646-1.318-20.269s-1.415-15.98-2.414-24.761-2.167-17.085-3.3-24.638-2.379-14.362-3.458-20c-.5-2.848-1.008-5.421-1.441-7.676s-.8-4.192-1.132-5.775-.548-2.794-.725-3.652c-.071-.407-.133-.716-.177-.955A1.891,1.891,0,0,1,103.05,289.83Z" transform="translate(-60.558 -263.141)" fill="#344154"/>
        <path id="Trazado_110454" data-name="Trazado 110454" d="M107.529,418.031s-23.426-26.574-30.7-42.642l5.492-2.343c-3.979.654-8.056-1.052-11.143-3.652s-5.359-6.013-7.579-9.383l7.234-1.22A26.893,26.893,0,0,1,55,346.55c8.534,1.406,16.254,6.093,22.621,11.947a113.533,113.533,0,0,1,13.707,15.918,53.483,53.483,0,0,1,5.306,8.755C100.614,391.271,107.538,408.268,107.529,418.031Z" transform="translate(-55 -269.702)" fill="#5e6178"/>
        <path id="Trazado_110455" data-name="Trazado 110455" d="M166.527,314.83a1.017,1.017,0,0,1-.106.274c-.1.195-.212.451-.363.769-.336.707-.814,1.689-1.424,2.945-1.256,2.556-3.033,6.27-5.191,10.868s-4.643,10.126-7.313,16.3-5.465,13-8.269,20.234-5.306,14.193-7.5,20.543-4.05,12.115-5.545,16.979-2.653,8.8-3.475,11.5c-.4,1.335-.707,2.388-.929,3.139-.106.336-.186.6-.256.814a1.266,1.266,0,0,1-.1.274,1.122,1.122,0,0,1,.053-.292c.053-.212.124-.486.2-.822l.884-3.166c.725-2.75,1.857-6.712,3.325-11.576s3.3-10.612,5.456-17.023,4.678-13.327,7.464-20.57,5.642-14.07,8.322-20.242,5.209-11.673,7.411-16.263,4.015-8.277,5.306-10.807c.646-1.238,1.15-2.211,1.5-2.909l.407-.752a1.132,1.132,0,0,1,.133-.212Z" transform="translate(-63.219 -266.033)" fill="#344154"/>
        <path id="Trazado_110456" data-name="Trazado 110456" d="M114.4,434.308a1.672,1.672,0,0,1-.106-.486c-.062-.371-.141-.84-.23-1.406-.177-1.229-.486-3-.884-5.173s-1.026-4.74-1.769-7.57-1.769-5.89-2.945-9.047-2.5-6.111-3.776-8.746-2.538-4.952-3.652-6.862-2.06-3.449-2.733-4.484l-.761-1.211a1.769,1.769,0,0,1-.239-.442,2.155,2.155,0,0,1,.318.389l.831,1.158c.725,1.008,1.716,2.52,2.865,4.422s2.45,4.218,3.767,6.845a87.458,87.458,0,0,1,3.829,8.773c1.176,3.175,2.149,6.261,2.918,9.1s1.318,5.43,1.7,7.623.646,3.971.769,5.209l.133,1.424A1.9,1.9,0,0,1,114.4,434.308Z" transform="translate(-59.894 -274.598)" fill="#344154"/>
        <rect id="Rectángulo_8910" data-name="Rectángulo 8910" width="51.265" height="10.453" transform="translate(34.153 153.467)" fill="#fd9826"/>
        <path id="Trazado_110457" data-name="Trazado 110457" d="M99.15,445.01l5.545,35.17h30.969l5.173-35.17Z" transform="translate(-60.107 -281.09)" fill="#fd9826"/>
        <path id="Trazado_110458" data-name="Trazado 110458" d="M142.335,444.969c0,.133-9.728.239-21.657.239s-21.657-.106-21.657-.239,9.728-.239,21.657-.239S142.335,444.845,142.335,444.969Z" transform="translate(-60.092 -281.058)" fill="#344154"/>
      </g>
      <g id="Grupo_60067" data-name="Grupo 60067" transform="translate(47.693 13.317)">
        <g id="Grupo_60066" data-name="Grupo 60066" transform="translate(0.088 0.283)">
          <rect id="Rectángulo_8911" data-name="Rectángulo 8911" width="228.909" height="143.386" transform="translate(0.088)" fill="#fff"/>
          <path id="Rectángulo_8912" data-name="Rectángulo 8912" d="M0,0H228.909V13.141H0Z" transform="translate(0.088)" fill="#412976"/>
          <path id="Rectángulo_8913" data-name="Rectángulo 8913" d="M0,0H229V25.849H0Z" transform="translate(0 140.538)" fill="#fed6a8"/>
          <path id="Trazado_110459" data-name="Trazado 110459" d="M115.464,219.469l-1.68-.248-.752-1.521-.752,1.521-1.68.248,1.212,1.185-.009.08-.274,1.6,1.5-.8,1.5.8-.283-1.68.053-.053Z" transform="translate(-85.379 -67.328)" fill="none" opacity="0"/>
          <path id="Trazado_110460" data-name="Trazado 110460" d="M100.918,218.15a1.008,1.008,0,1,0,1.008,1.008A1.008,1.008,0,0,0,100.918,218.15Z" transform="translate(-84.142 -67.38)" fill="none" opacity="0"/>
          <path id="Trazado_110461" data-name="Trazado 110461" d="M135.169,220.346h2.052l.646,1.335h.433l-2.043-4.271h-.115l-2.052,4.271h.442Zm1.026-2.131.831,1.769h-1.663Z" transform="translate(-88.096 -67.295)" fill="#344154"/>
          <rect id="Rectángulo_8914" data-name="Rectángulo 8914" width="4.846" height="0.345" transform="translate(45.658 155.298)" fill="#344154"/>
          <path id="Trazado_110462" data-name="Trazado 110462" d="M100.974,217.13h-.327a1.813,1.813,0,0,0-1.707,1.839,7.694,7.694,0,0,0,1.707,3.652s.124.221.327,0a7.693,7.693,0,0,0,1.707-3.652A1.813,1.813,0,0,0,100.974,217.13Zm-.168,2.918a1.008,1.008,0,1,1,1.008-1.008,1.008,1.008,0,0,1-1.008,1.008Z" transform="translate(-84.03 -67.262)" fill="#344154"/>
          <path id="Trazado_110463" data-name="Trazado 110463" d="M126.618,221.437a1.044,1.044,0,0,1-2.078,0v-3.352a.672.672,0,0,1,1.344,0v2.839h0a.389.389,0,0,1-.371.3.4.4,0,0,1-.371-.3v-2.193h-.221v2.1h0v.1h0a.619.619,0,0,0,.61.539.637.637,0,0,0,.619-.539h0v-.053a.381.381,0,0,1,0-.044h0V218.05h0a.92.92,0,0,0-1.839,0h0v3.537h0a1.291,1.291,0,0,0,2.565,0h0v-2.821h-.248Z" transform="translate(-86.965 -67.262)" fill="#344154"/>
          <path id="Trazado_110464" data-name="Trazado 110464" d="M113.9,218.846l-.955-1.946-.964,1.946-2.149.31,1.556,1.521-.363,2.131,1.919-1.008,1.919,1.008-.363-2.131,1.548-1.521Zm.548,3.4-1.5-.8-1.5.8.274-1.592v-.124l-1.212-1.185,1.68-.248.752-1.521.752,1.521,1.68.248-1.15,1.185-.053.053Z" transform="translate(-85.29 -67.236)" fill="#344154"/>
          <path id="Trazado_110465" data-name="Trazado 110465" d="M157.14,214.2h-.31v9.966h.31ZM156.98,224.166Z" transform="translate(-90.726 -66.923)" fill="#344154"/>
          <rect id="Rectángulo_8915" data-name="Rectángulo 8915" width="3.971" height="4.227" transform="translate(56.35 150.805)" fill="#344154"/>
          <path id="Trazado_110466" data-name="Trazado 110466" d="M147.056,217.07v.318h1.459v-.318h1.256v.646H145.8v-.646Z" transform="translate(-89.45 -67.255)" fill="#344154"/>
          <rect id="Rectángulo_8916" data-name="Rectángulo 8916" width="1.459" height="0.327" transform="translate(57.605 149.488)" fill="#344154"/>
          <rect id="Rectángulo_8917" data-name="Rectángulo 8917" width="1.459" height="0.327" transform="translate(57.605 149.815)" fill="#344154"/>
          <path id="Trazado_110467" data-name="Trazado 110467" d="M167.161,220.59l1.22-1.22.142.15-1.362,1.362-1.371-1.362.15-.15Z" transform="translate(-91.763 -67.521)" fill="#344154"/>
          <g id="Grupo_60063" data-name="Grupo 60063" transform="translate(5.076 5.147)">
            <circle id="Elipse_4285" data-name="Elipse 4285" cx="1.424" cy="1.424" r="1.424" fill="#fff"/>
            <circle id="Elipse_4286" data-name="Elipse 4286" cx="1.424" cy="1.424" r="1.424" transform="translate(5.058)" fill="#fff"/>
            <circle id="Elipse_4287" data-name="Elipse 4287" cx="1.424" cy="1.424" r="1.424" transform="translate(10.126)" fill="#fff"/>
          </g>
          <g id="Grupo_60065" data-name="Grupo 60065" transform="translate(21.648 30.112)">
            <rect id="Rectángulo_8918" data-name="Rectángulo 8918" width="131.916" height="13.787" transform="translate(0 13.796)" fill="#cdb9f8"/>
            <rect id="Rectángulo_8919" data-name="Rectángulo 8919" width="131.916" height="13.787" fill="#fd9826"/>
            <rect id="Rectángulo_8920" data-name="Rectángulo 8920" width="131.916" height="13.787" transform="translate(0 27.565)" fill="#fff5ea"/>
            <rect id="Rectángulo_8921" data-name="Rectángulo 8921" width="131.916" height="13.787" transform="translate(0 41.36)" fill="#cdb9f8"/>
            <rect id="Rectángulo_8922" data-name="Rectángulo 8922" width="131.916" height="13.787" transform="translate(0 55.147)" fill="#fff5ea"/>
            <rect id="Rectángulo_8923" data-name="Rectángulo 8923" width="39.547" height="69.102" fill="#feead4"/>
            <path id="Trazado_110468" data-name="Trazado 110468" d="M106.56,112.858l65.954-.168,65.954.168-65.954.186Z" transform="translate(-106.56 -85.293)" fill="#344154"/>
            <path id="Trazado_110469" data-name="Trazado 110469" d="M106.56,128.458l65.954-.168,65.954.168-65.954.177Z" transform="translate(-106.56 -87.098)" fill="#344154"/>
            <path id="Trazado_110470" data-name="Trazado 110470" d="M106.56,144.046l65.954-.186,65.954.186-65.954.168Z" transform="translate(-106.56 -88.899)" fill="#344154"/>
            <path id="Trazado_110471" data-name="Trazado 110471" d="M106.56,159.628l65.954-.168,65.954.168-65.954.177Z" transform="translate(-106.56 -90.703)" fill="#344154"/>
            <path id="Trazado_110472" data-name="Trazado 110472" d="M114.55,89.423c4.209-.274,8.419-.31,12.628-.345s8.419,0,12.637.345c-4.218.292-8.419.31-12.637.354S118.759,89.742,114.55,89.423Z" transform="translate(-107.484 -82.561)" fill="#344154"/>
            <path id="Trazado_110473" data-name="Trazado 110473" d="M114.55,98.885c3.184-.212,6.367-.23,9.551-.256s6.367,0,9.56.256c-3.192.212-6.367.221-9.56.256S117.734,99.1,114.55,98.885Z" transform="translate(-107.484 -83.666)" fill="#344154"/>
            <path id="Trazado_110474" data-name="Trazado 110474" d="M161.73,89.422c3.157-.274,6.332-.31,9.489-.345a77.439,77.439,0,0,1,9.5.345c-3.157.292-6.323.31-9.5.354A85.247,85.247,0,0,1,161.73,89.422Z" transform="translate(-112.941 -82.559)" fill="#344154"/>
            <path id="Trazado_110475" data-name="Trazado 110475" d="M161.73,105.05c3.157-.3,6.332-.31,9.489-.354a75.725,75.725,0,0,1,9.5.354c-3.157.292-6.323.3-9.5.345A89.725,89.725,0,0,1,161.73,105.05Z" transform="translate(-112.941 -84.366)" fill="#344154"/>
            <path id="Trazado_110476" data-name="Trazado 110476" d="M161.73,120.641c3.157-.292,6.332-.31,9.489-.354a77.442,77.442,0,0,1,9.5.354c-3.157.292-6.323.3-9.5.345A94.717,94.717,0,0,1,161.73,120.641Z" transform="translate(-112.941 -86.169)" fill="#344154"/>
            <path id="Trazado_110477" data-name="Trazado 110477" d="M161.73,136.212c3.157-.274,6.332-.3,9.489-.345a77.442,77.442,0,0,1,9.5.345c-3.157.3-6.323.31-9.5.354A87.431,87.431,0,0,1,161.73,136.212Z" transform="translate(-112.941 -87.971)" fill="#344154"/>
            <path id="Trazado_110478" data-name="Trazado 110478" d="M161.73,151.811c3.157-.292,6.332-.31,9.489-.354a77.436,77.436,0,0,1,9.5.354c-3.157.292-6.323.3-9.5.345a89.731,89.731,0,0,1-9.489-.345Z" transform="translate(-112.941 -89.775)" fill="#344154"/>
            <path id="Trazado_110479" data-name="Trazado 110479" d="M192.76,89.422c3.175-.274,6.332-.31,9.507-.345a77.363,77.363,0,0,1,9.489.345c-3.166.292-6.332.31-9.489.354a85.485,85.485,0,0,1-9.507-.354Z" transform="translate(-116.531 -82.559)" fill="#344154"/>
            <path id="Trazado_110480" data-name="Trazado 110480" d="M200.13,151.814a12.5,12.5,0,0,1,3.077-.354,12.09,12.09,0,0,1,3.024.354,13.468,13.468,0,0,1-6.058,0Z" transform="translate(-117.383 -89.778)" fill="#344154"/>
            <path id="Trazado_110481" data-name="Trazado 110481" d="M200.13,136.215a13.512,13.512,0,0,1,6.067,0A13.265,13.265,0,0,1,200.13,136.215Z" transform="translate(-117.383 -87.975)" fill="#344154"/>
            <path id="Trazado_110482" data-name="Trazado 110482" d="M200.13,120.644a13.265,13.265,0,0,1,6.067,0A13.512,13.512,0,0,1,200.13,120.644Z" transform="translate(-117.383 -86.173)" fill="#344154"/>
            <path id="Trazado_110483" data-name="Trazado 110483" d="M200.13,105.054a12.5,12.5,0,0,1,3.077-.354,11.69,11.69,0,0,1,3.024.354,12.072,12.072,0,0,1-3.024.345,12.938,12.938,0,0,1-3.077-.345Z" transform="translate(-117.383 -84.369)" fill="#344154"/>
            <path id="Trazado_110484" data-name="Trazado 110484" d="M223.8,89.422c3.166-.274,6.323-.31,9.5-.345a77.3,77.3,0,0,1,9.489.345c-3.157.292-6.332.31-9.489.354a85.326,85.326,0,0,1-9.5-.354Z" transform="translate(-120.121 -82.559)" fill="#344154"/>
            <path id="Trazado_110485" data-name="Trazado 110485" d="M223.8,105.05c3.166-.3,6.323-.31,9.5-.354a75.6,75.6,0,0,1,9.489.354c-3.157.292-6.332.3-9.489.345a89.8,89.8,0,0,1-9.5-.345Z" transform="translate(-120.121 -84.366)" fill="#344154"/>
            <path id="Trazado_110486" data-name="Trazado 110486" d="M223.8,120.641c3.166-.292,6.323-.31,9.5-.354a77.3,77.3,0,0,1,9.489.354c-3.157.292-6.332.3-9.489.345a94.792,94.792,0,0,1-9.5-.345Z" transform="translate(-120.121 -86.169)" fill="#344154"/>
            <path id="Trazado_110487" data-name="Trazado 110487" d="M223.8,136.212c3.166-.274,6.323-.3,9.5-.345a77.31,77.31,0,0,1,9.489.345c-3.157.3-6.332.31-9.489.354a87.548,87.548,0,0,1-9.5-.354Z" transform="translate(-120.121 -87.971)" fill="#344154"/>
            <path id="Trazado_110488" data-name="Trazado 110488" d="M223.8,151.811c3.166-.292,6.323-.31,9.5-.354a77.3,77.3,0,0,1,9.489.354c-3.157.292-6.332.3-9.489.345A89.818,89.818,0,0,1,223.8,151.811Z" transform="translate(-120.121 -89.775)" fill="#344154"/>
            <g id="Grupo_60064" data-name="Grupo 60064" transform="translate(11.01 30.155)">
              <path id="Trazado_110489" data-name="Trazado 110489" d="M124.952,120.592h-3.246v2.2h3.811v1.353H120V115.94h5.492v1.371h-3.8v1.954h3.245Z" transform="translate(-119.125 -115.825)" fill="#344154"/>
              <path id="Trazado_110490" data-name="Trazado 110490" d="M129.058,121.3V124.2h-1.7V115.99h3.219a3.768,3.768,0,0,1,1.627.336,2.494,2.494,0,0,1,1.079.964,2.653,2.653,0,0,1,.38,1.415,2.379,2.379,0,0,1-.822,1.91,3.484,3.484,0,0,1-2.264.69Zm0-1.371h1.521a1.468,1.468,0,0,0,1.026-.31,1.141,1.141,0,0,0,.354-.884,1.362,1.362,0,0,0-.354-.982,1.335,1.335,0,0,0-.982-.38h-1.548Z" transform="translate(-119.976 -115.83)" fill="#344154"/>
              <path id="Trazado_110491" data-name="Trazado 110491" d="M139.993,121.983a.884.884,0,0,0-.345-.734,4.289,4.289,0,0,0-1.212-.548,8.133,8.133,0,0,1-1.4-.557,2.282,2.282,0,0,1-1.4-2.034,1.937,1.937,0,0,1,.38-1.185,2.352,2.352,0,0,1,1.07-.814,4.1,4.1,0,0,1,1.583-.3,3.7,3.7,0,0,1,1.565.318,2.5,2.5,0,0,1,1.07.884,2.414,2.414,0,0,1,.38,1.318h-1.7a1.105,1.105,0,0,0-.354-.884,1.486,1.486,0,0,0-1-.31,1.618,1.618,0,0,0-.964.256.831.831,0,0,0-.345.7.787.787,0,0,0,.407.663,4.351,4.351,0,0,0,1.185.513,5.111,5.111,0,0,1,2.1,1.079,2.122,2.122,0,0,1,.663,1.6,1.981,1.981,0,0,1-.814,1.671,3.537,3.537,0,0,1-2.167.6,4.227,4.227,0,0,1-1.769-.345,2.733,2.733,0,0,1-1.185-.946,2.45,2.45,0,0,1-.407-1.406h1.689c0,.884.548,1.362,1.627,1.362a1.512,1.512,0,0,0,.937-.248.778.778,0,0,0,.389-.654Z" transform="translate(-120.9 -115.809)" fill="#344154"/>
              <path id="Trazado_110492" data-name="Trazado 110492" d="M124.367,138.148H121.4l-.566,1.689H119.07l3.051-8.207H123.7l3.069,8.207H125Zm-2.5-1.371h2.052l-1.035-3.051Z" transform="translate(-119.017 -117.639)" fill="#344154"/>
              <path id="Trazado_110493" data-name="Trazado 110493" d="M131.6,136.809h-1.344v3.007H128.57v-8.207h3.051a3.422,3.422,0,0,1,2.237.646,2.229,2.229,0,0,1,.787,1.831,2.3,2.3,0,0,1-1.459,2.3l1.769,3.352v.08h-1.822Zm-1.344-1.371h1.362a1.433,1.433,0,0,0,.99-.318,1.176,1.176,0,0,0,.345-.884,1.247,1.247,0,0,0-.327-.884,1.371,1.371,0,0,0-1.008-.327h-1.362Z" transform="translate(-120.116 -117.636)" fill="#344154"/>
              <path id="Trazado_110494" data-name="Trazado 110494" d="M138.626,138.455h3.59v1.362H136.91V131.61H138.6Z" transform="translate(-121.08 -117.637)" fill="#344154"/>
              <path id="Trazado_110495" data-name="Trazado 110495" d="M124.307,153.789h-2.971l-.557,1.7H119.01l3.06-8.207h1.565l3.069,8.207h-1.769Zm-2.511-1.362h2.052l-1.035-3.077Z" transform="translate(-119.01 -119.45)" fill="#344154"/>
              <path id="Trazado_110496" data-name="Trazado 110496" d="M133.455,152.126h-3.245v3.36H128.52V147.28h5.306v1.362h-3.652v2.122h3.245Z" transform="translate(-120.11 -119.45)" fill="#344154"/>
              <path id="Trazado_110497" data-name="Trazado 110497" d="M137.368,152.595v2.892h-1.7V147.28h3.2a3.644,3.644,0,0,1,1.627.336,2.476,2.476,0,0,1,1.079.955,2.653,2.653,0,0,1,.38,1.424,2.361,2.361,0,0,1-.822,1.9,3.537,3.537,0,0,1-2.29.7Zm0-1.371h1.5a1.468,1.468,0,0,0,1.026-.318,1.141,1.141,0,0,0,.354-.884,1.273,1.273,0,0,0-1.335-1.362h-1.548Z" transform="translate(-120.937 -119.449)" fill="#344154"/>
            </g>
          </g>
        </g>
        <path id="Trazado_110498" data-name="Trazado 110498" d="M311.977,214.01c0-1.6-.071-65.485-.195-166.387l.195.195H82.175l.239-.239V213.966l-.212-.212,229.82.212-229.82.221H81.98V47.34H312.234v.195C312.057,148.525,311.986,212.41,311.977,214.01Z" transform="translate(-81.98 -47.34)" fill="#344154"/>
      </g>
      <g id="Grupo_60095" data-name="Grupo 60095" transform="translate(185.011 44.168)">
        <g id="Grupo_60068" data-name="Grupo 60068" transform="translate(114.248 211.88)">
          <rect id="Rectángulo_8924" data-name="Rectángulo 8924" width="5.315" height="2.856" transform="translate(43.5 90.98)" fill="#412976"/>
          <rect id="Rectángulo_8925" data-name="Rectángulo 8925" width="12.266" height="60.833" transform="translate(34.728 18.978)" fill="#5b39a6"/>
          <path id="Trazado_110499" data-name="Trazado 110499" d="M435.154,344H377.548a11.09,11.09,0,0,1-11.1-11.09h0a11.09,11.09,0,0,1,11.1-11.09h57.57a11.089,11.089,0,0,1,11.09,11.09h0A11.09,11.09,0,0,1,435.154,344Z" transform="translate(-366.45 -321.82)" fill="#412976"/>
          <rect id="Rectángulo_8926" data-name="Rectángulo 8926" width="7.773" height="43.173" transform="translate(37.018 79.802)" fill="#412976"/>
          <path id="Trazado_110500" data-name="Trazado 110500" d="M377.457,481.927c-1.53.195,65.494,0,65.494,0s-28.59-3.192-30.439-21.047h-7.773S402.784,478.673,377.457,481.927Z" transform="translate(-367.72 -337.905)" fill="#412976"/>
          <path id="Trazado_110501" data-name="Trazado 110501" d="M438.934,346.869c0,.133-13.265.239-29.722.239s-29.731-.106-29.731-.239,13.265-.239,29.731-.239S438.934,346.736,438.934,346.869Z" transform="translate(-367.957 -324.69)" fill="#344154"/>
          <path id="Trazado_110502" data-name="Trazado 110502" d="M417.971,412.029a80.265,80.265,0,0,1-12.381,0,80.242,80.242,0,0,1,12.381,0Z" transform="translate(-370.977 -332.227)" fill="#344154"/>
          <path id="Trazado_110503" data-name="Trazado 110503" d="M421.445,430.339h0a1.565,1.565,0,0,1-1.565-1.565v-6.128a1.565,1.565,0,0,1,1.565-1.565h0a1.565,1.565,0,0,1,1.565,1.565v6.128A1.565,1.565,0,0,1,421.445,430.339Z" transform="translate(-372.63 -333.301)" fill="#412976"/>
        </g>
        <g id="Grupo_60094" data-name="Grupo 60094">
          <g id="Grupo_60074" data-name="Grupo 60074" transform="translate(0 33.484)">
            <g id="Grupo_60069" data-name="Grupo 60069" transform="translate(40.574 20.683)">
              <path id="Trazado_110504" data-name="Trazado 110504" d="M283.14,146.487s2.7-2.945,3.537-3.007,9.215,2.441,9.215,2.441a5.722,5.722,0,0,1,2.653,1.256c.752.884,9.029,9.878,9.029,9.878l-9.259,8.109s-10.789-1.937-11.726-3.069-1.689-2.945-1.008-3.537a4.705,4.705,0,0,1-.619-2.653,17.68,17.68,0,0,1,.557-1.91s-1.627-1.158-1.689-1.972a3.279,3.279,0,0,0-.309-1.256l-.38-.628Z" transform="translate(-283.14 -143.479)" fill="#ffbf9d"/>
              <path id="Trazado_110505" data-name="Trazado 110505" d="M286.933,148.87c.044,0,0,.283-.15.7a3.263,3.263,0,0,1-1.017,1.406,2.087,2.087,0,0,1-1.716.4c-.46-.115-.646-.363-.61-.389s.265.088.654.124a2.184,2.184,0,0,0,1.441-.442,4.165,4.165,0,0,0,1-1.22C286.747,149.082,286.879,148.843,286.933,148.87Z" transform="translate(-283.174 -144.102)" fill="#ff9a6c"/>
            </g>
            <g id="Grupo_60073" data-name="Grupo 60073">
              <g id="Grupo_60070" data-name="Grupo 60070" transform="translate(1.99 4.413)">
                <path id="Trazado_110506" data-name="Trazado 110506" d="M245,125.08a5.005,5.005,0,0,0-5.058,4.97l-.433,55.4a5.005,5.005,0,0,0,4.97,5.05l40.034.318a5.005,5.005,0,0,0,5.041-4.97l.274-55.439a5.138,5.138,0,0,0-5.111-5.165Z" transform="translate(-239.51 -125.08)" fill="#839eb6"/>
                <path id="Trazado_110507" data-name="Trazado 110507" d="M268.078,144.052c0,.2-4.148.327-9.259.292s-9.259-.239-9.259-.442,4.148-.327,9.259-.283S268.078,143.849,268.078,144.052Z" transform="translate(-240.672 -127.223)" fill="#839eb6"/>
                <path id="Trazado_110508" data-name="Trazado 110508" d="M280.013,152.195c0,.2-6.827.31-15.246.248s-15.237-.283-15.237-.486,6.827-.31,15.246-.239S280.013,151.965,280.013,152.195Z" transform="translate(-240.669 -128.158)" fill="#839eb6"/>
                <path id="Trazado_110509" data-name="Trazado 110509" d="M282.653,160.543c0,.2-7.446.31-16.617.239s-16.617-.3-16.617-.5,7.446-.309,16.617-.23S282.653,160.349,282.653,160.543Z" transform="translate(-240.656 -129.122)" fill="#839eb6"/>
                <path id="Trazado_110510" data-name="Trazado 110510" d="M282.574,168.4c0,.2-7.437.3-16.608.23s-16.617-.292-16.617-.5,7.446-.3,16.617-.23S282.583,168.2,282.574,168.4Z" transform="translate(-240.648 -130.031)" fill="#839eb6"/>
                <path id="Trazado_110511" data-name="Trazado 110511" d="M282.514,176.253c0,.2-7.437.31-16.617.239s-16.608-.3-16.608-.5,7.437-.31,16.617-.23S282.514,176.058,282.514,176.253Z" transform="translate(-240.641 -130.94)" fill="#839eb6"/>
                <path id="Trazado_110512" data-name="Trazado 110512" d="M282.454,184.112c0,.2-7.437.3-16.617.23s-16.608-.292-16.608-.5,7.437-.3,16.617-.23S282.454,183.953,282.454,184.112Z" transform="translate(-240.634 -131.848)" fill="#839eb6"/>
              </g>
              <g id="Grupo_60072" data-name="Grupo 60072" transform="translate(0 2.755)">
                <g id="Grupo_60071" data-name="Grupo 60071">
                  <path id="Trazado_110513" data-name="Trazado 110513" d="M242.913,123.21a5.005,5.005,0,0,0-5.05,4.97l-.433,55.4a5.005,5.005,0,0,0,4.97,5.05l40.025.318a5.005,5.005,0,0,0,5.049-4.97l.274-55.439a5.138,5.138,0,0,0-5.111-5.165Z" transform="translate(-237.279 -123.206)" fill="#fff"/>
                  <path id="Trazado_110514" data-name="Trazado 110514" d="M242.893,123.209H281.3a20.423,20.423,0,0,1,2.06.062,5.306,5.306,0,0,1,3.6,2.22,5.182,5.182,0,0,1,.884,2.043,12.752,12.752,0,0,1,.1,2.237c0,5.907-.053,12.23-.071,18.872s-.062,13.628-.088,20.861q0,5.43-.053,11.036v2.8a6.013,6.013,0,0,1-.513,2.865,5.306,5.306,0,0,1-4.811,3l-22.4-.186-10.612-.088h-5.165a22.984,22.984,0,0,1-2.573-.088,5.067,5.067,0,0,1-2.37-1.035,5.306,5.306,0,0,1-2.016-4.492c0-1.618,0-3.219,0-4.793q.053-4.722.088-9.162c.053-5.907.106-11.417.159-16.449.106-10.037.2-18.173.265-23.815a8.578,8.578,0,0,1,.15-1.99,5.094,5.094,0,0,1,2.794-3.4,5.244,5.244,0,0,1,1.627-.442,4.7,4.7,0,0,1,.575,0,5.447,5.447,0,0,0-2.167.531,4.89,4.89,0,0,0-2,1.769,4.7,4.7,0,0,0-.663,1.574,8.2,8.2,0,0,0-.133,1.963c0,5.633-.071,13.769-.115,23.815,0,5.023-.062,10.532-.1,16.449,0,2.954-.044,6.013-.062,9.162v4.793a4.864,4.864,0,0,0,1.857,4.139,4.669,4.669,0,0,0,2.175.937,23.137,23.137,0,0,0,2.5.08h5.164l10.612.08,22.409.177a4.8,4.8,0,0,0,4.369-2.724,5.412,5.412,0,0,0,.469-2.653V180.55q0-5.6.062-11.028c0-7.234.08-14.211.115-20.861s.08-12.964.115-18.881a12.23,12.23,0,0,0-.08-2.149,4.838,4.838,0,0,0-.8-1.9,4.943,4.943,0,0,0-3.343-2.069,18.878,18.878,0,0,0-2.007-.071h-5.872l-23.824-.177-6.473-.08h-1.68Z" transform="translate(-237.259 -123.205)" fill="#344154"/>
                </g>
                <path id="Trazado_110515" data-name="Trazado 110515" d="M265.988,142.182c0,.2-4.148.327-9.268.292s-9.259-.239-9.25-.442,4.147-.327,9.259-.283S265.988,141.97,265.988,142.182Z" transform="translate(-238.44 -125.349)" fill="#344154"/>
                <path id="Trazado_110516" data-name="Trazado 110516" d="M277.864,150.325c0,.2-6.827.31-15.237.248s-15.237-.283-15.237-.486,6.818-.31,15.237-.239S277.873,150.13,277.864,150.325Z" transform="translate(-238.431 -126.284)" fill="#344154"/>
                <path id="Trazado_110517" data-name="Trazado 110517" d="M280.544,158.673c0,.2-7.437.31-16.617.239s-16.608-.3-16.608-.5,7.437-.31,16.617-.23S280.544,158.479,280.544,158.673Z" transform="translate(-238.423 -127.248)" fill="#344154"/>
                <path id="Trazado_110518" data-name="Trazado 110518" d="M280.484,166.532c0,.2-7.437.3-16.617.23s-16.608-.292-16.608-.5,7.437-.3,16.617-.23S280.484,166.329,280.484,166.532Z" transform="translate(-238.416 -128.157)" fill="#344154"/>
                <path id="Trazado_110519" data-name="Trazado 110519" d="M280.424,174.382c0,.2-7.446.31-16.617.239s-16.608-.3-16.608-.5,7.437-.309,16.617-.239S280.424,174.188,280.424,174.382Z" transform="translate(-238.409 -129.065)" fill="#344154"/>
                <path id="Trazado_110520" data-name="Trazado 110520" d="M280.364,182.242c0,.195-7.446.3-16.617.23s-16.617-.292-16.608-.5,7.437-.3,16.617-.23S280.364,182.039,280.364,182.242Z" transform="translate(-238.402 -129.974)" fill="#344154"/>
              </g>
              <path id="Trazado_110521" data-name="Trazado 110521" d="M249.37,128.756V124.14a1.388,1.388,0,0,0-1.4-1.388h0a1.388,1.388,0,0,0-1.4,1.388v6.482a2.237,2.237,0,0,0,2.237,2.237h0a2.237,2.237,0,0,0,2.237-2.237V123.2a3.113,3.113,0,0,0-3.113-3.113h0a3.1,3.1,0,0,0-2.927,2.071v.361" transform="translate(-238.155 -120.09)" fill="none" stroke="#1a2e35" stroke-linecap="round" stroke-linejoin="round" stroke-width="0.75" opacity="0"/>
            </g>
            <path id="Trazado_110522" data-name="Trazado 110522" d="M302.465,152.938l-4.422-2.733L286.8,144.28s-2.237,2.167,1.539,5.306l4.652,3.679s4.13,7.579,5.014,8.136a52.175,52.175,0,0,0,4.943,2.034Z" transform="translate(-242.914 -122.888)" fill="#ffbf9d"/>
            <path id="Trazado_110523" data-name="Trazado 110523" d="M303.395,163.538a1.6,1.6,0,0,1-.451-.1c-.292-.08-.725-.212-1.273-.4s-1.212-.424-1.963-.761a11.429,11.429,0,0,1-1.176-.6,3.768,3.768,0,0,1-1.141-.99,52.491,52.491,0,0,1-3.794-6.19l-.513-.884a2.654,2.654,0,0,0-.663-.743c-.531-.46-1.105-.884-1.689-1.362a42.156,42.156,0,0,1-3.582-2.918,3.723,3.723,0,0,1-.637-4.581l.1-.142.15.088c4.5,2.538,8.366,4.855,11.3,6.19,1.424.787,2.5,1.477,3.254,1.954l.884.557a1.187,1.187,0,0,1,.283.221,1.611,1.611,0,0,1-.318-.159l-.884-.5c-.769-.442-1.875-1.105-3.3-1.848-2.963-1.291-6.871-3.537-11.372-6.093l.248-.053a3.007,3.007,0,0,0-.416,2.078,3.608,3.608,0,0,0,1.026,2,41.045,41.045,0,0,0,3.537,2.892c.584.46,1.167.884,1.707,1.38a4.035,4.035,0,0,1,.4.38,2.349,2.349,0,0,1,.336.46l.513.884a56.013,56.013,0,0,0,3.688,6.19,5.651,5.651,0,0,0,2.193,1.565c.734.354,1.4.61,1.928.814l1.247.469a2.079,2.079,0,0,1,.38.2Z" transform="translate(-242.896 -122.841)" fill="#ff9a6c"/>
          </g>
          <g id="Grupo_60082" data-name="Grupo 60082" transform="translate(122.438)">
            <g id="Grupo_60075" data-name="Grupo 60075" transform="translate(37.273 14.799)">
              <path id="Trazado_110524" data-name="Trazado 110524" d="M439.942,126.312c-.15-2.733-.5-16.006-.654-18.023a11.222,11.222,0,0,0-3.334-7.3,7.021,7.021,0,0,0-7.579-1.459h0a4.661,4.661,0,0,0-3.343,3.281c-5.589,19.862-4.7,41.015-7.172,61.558,7.287,1.185,17.1.707,24.478.318C442.338,148.279,440.976,144.017,439.942,126.312Z" transform="translate(-417.86 -98.961)" fill="#344154"/>
              <path id="Trazado_110525" data-name="Trazado 110525" d="M438.575,155.064a2.855,2.855,0,0,1-.053-.531c0-.407-.044-.884-.071-1.53,0-1.388-.1-3.281-.177-5.6-.1-4.793-.23-11.3-.38-18.491-.062-3.608-.115-7.075-.159-10.179,0-1.565,0-3.051-.053-4.422a21.347,21.347,0,0,0-.265-3.82A6.19,6.19,0,0,0,434.578,106a5.13,5.13,0,0,0-1.928-.593h.133a2.185,2.185,0,0,1,.407,0,3.741,3.741,0,0,1,1.477.433,5.482,5.482,0,0,1,1.831,1.609,7.393,7.393,0,0,1,1.256,2.98,22.987,22.987,0,0,1,.327,3.882c0,1.4.062,2.883.1,4.422.062,3.131.124,6.571.195,10.179.1,7.19.177,13.7.248,18.491v7.128a1.992,1.992,0,0,1-.044.531Z" transform="translate(-419.571 -99.705)" fill="#5e6178"/>
              <path id="Trazado_110526" data-name="Trazado 110526" d="M431.843,149.019a5.611,5.611,0,0,1-.088-1.194c0-.769-.044-1.892-.044-3.263,0-2.759.053-6.562.159-10.771s.221-7.906.3-10.753c0-1.3.08-2.4.106-3.263a5.181,5.181,0,0,1,.1-1.194,5.619,5.619,0,0,1,.088,1.194c0,.769.044,1.884.044,3.263,0,2.759-.053,6.562-.159,10.771s-.221,7.906-.3,10.754c0,1.3-.08,2.4-.106,3.263a6.887,6.887,0,0,1-.1,1.194Z" transform="translate(-419.462 -101.23)" fill="#5e6178"/>
            </g>
            <g id="Grupo_60081" data-name="Grupo 60081">
              <g id="Grupo_60080" data-name="Grupo 60080">
                <path id="Trazado_110527" data-name="Trazado 110527" d="M401.833,82.309c5.474-.566,10.09,1.831,14.459,5.182a27.255,27.255,0,0,1,9.144,13.433,32.154,32.154,0,0,1-.212,18.81,16.847,16.847,0,0,1-11.284,10.718c-7.623,2.158-16.2,1.282-22.188-3.891s-9.073-13.265-8.843-21.224a26.159,26.159,0,0,1,5.147-15.246,19.924,19.924,0,0,1,13.84-7.809" transform="translate(-376.543 -82.226)" fill="#344154"/>
                <g id="Grupo_60079" data-name="Grupo 60079" transform="translate(2.303 0.085)">
                  <path id="Trazado_110528" data-name="Trazado 110528" d="M415.569,101.74c-.654-2.122-.195-4.422-.363-6.632-.38-4.882-4.015-9.011-8.4-11.187-4.068-2.025-9.215-1.981-14.37-.681a19.34,19.34,0,0,0-9.4,5.306A15.219,15.219,0,0,0,379.347,102l24.965-1.981a27.392,27.392,0,0,0,7.172,5.421,5.191,5.191,0,0,0,2.556.584,2.326,2.326,0,0,0,2.025-1.468A4.952,4.952,0,0,0,415.569,101.74Z" transform="translate(-378.397 -82.322)" fill="#344154"/>
                  <path id="Trazado_110529" data-name="Trazado 110529" d="M391.381,90.992l21.286,5.987a4.041,4.041,0,0,1,3.537,4.192l-3.325,46.7a14.5,14.5,0,0,1-3.617,8.613l-2.255,2.6c-5.094,5.748-14.565,4.51-17.687-2.494a5.03,5.03,0,0,1-.416-1.256,8.642,8.642,0,0,1-.133-1.061,33.7,33.7,0,0,1,.088-7.075c.062-4.174.106-5.881.106-5.845s-8.764-1.7-10.285-13.265c-.752-5.73-.221-15.087.469-22.727C379.752,98.455,384.536,90.107,391.381,90.992Z" transform="translate(-378.316 -83.317)" fill="#ffbf9d"/>
                  <g id="Grupo_60078" data-name="Grupo 60078" transform="translate(2.697 25.465)">
                    <g id="Grupo_60076" data-name="Grupo 60076">
                      <path id="Trazado_110530" data-name="Trazado 110530" d="M382.3,117.2a1.477,1.477,0,0,0,1.38,1.521,1.406,1.406,0,0,0,1.556-1.282,1.486,1.486,0,0,0-1.38-1.53A1.415,1.415,0,0,0,382.3,117.2Z" transform="translate(-381.473 -111.671)" fill="#344154"/>
                      <path id="Trazado_110531" data-name="Trazado 110531" d="M381.387,112.588c.177.195,1.318-.6,2.9-.548s2.724.884,2.9.672-.088-.433-.584-.814a4.041,4.041,0,0,0-2.317-.778,3.882,3.882,0,0,0-2.317.672C381.476,112.154,381.3,112.5,381.387,112.588Z" transform="translate(-381.365 -111.118)" fill="#344154"/>
                    </g>
                    <g id="Grupo_60077" data-name="Grupo 60077" transform="translate(15.019 0.593)">
                      <path id="Trazado_110532" data-name="Trazado 110532" d="M398.35,117.83a1.459,1.459,0,0,0,1.38,1.521,1.424,1.424,0,0,0,1.556-1.291,1.477,1.477,0,0,0-1.38-1.521,1.415,1.415,0,0,0-1.556,1.291Z" transform="translate(-398.348 -112.337)" fill="#344154"/>
                      <path id="Trazado_110533" data-name="Trazado 110533" d="M398.387,113.267c.177.195,1.318-.6,2.9-.557s2.724.884,2.9.681-.088-.433-.584-.814a4.112,4.112,0,0,0-2.317-.787,3.882,3.882,0,0,0-2.317.681C398.476,112.86,398.3,113.178,398.387,113.267Z" transform="translate(-398.35 -111.788)" fill="#344154"/>
                    </g>
                    <path id="Trazado_110534" data-name="Trazado 110534" d="M391.614,124.979a10.259,10.259,0,0,0-2.565-.531c-.407-.053-.787-.15-.884-.424a2.131,2.131,0,0,1,.309-1.194q.61-1.441,1.273-3.051c1.769-4.342,3.077-7.915,2.9-7.959s-1.769,3.4-3.537,7.738c-.425,1.07-.884,2.087-1.229,3.069a2.353,2.353,0,0,0-.248,1.583,1.026,1.026,0,0,0,.646.61,3.112,3.112,0,0,0,.69.115,10.612,10.612,0,0,0,2.644.044Z" transform="translate(-382.085 -111.199)" fill="#344154"/>
                    <path id="Trazado_110535" data-name="Trazado 110535" d="M390.332,147.387a29.253,29.253,0,0,0,15.485-3.7s-4.077,7.853-15.547,6.465Z" transform="translate(-382.395 -114.885)" fill="#ff9a6c"/>
                    <path id="Trazado_110536" data-name="Trazado 110536" d="M392.757,130.866a2.856,2.856,0,0,1,2.591-1,2.6,2.6,0,0,1,1.769,1.017,1.654,1.654,0,0,1,.08,1.892,1.91,1.91,0,0,1-2.1.469,5.863,5.863,0,0,1-1.99-1.265,1.769,1.769,0,0,1-.442-.478.548.548,0,0,1,0-.592" transform="translate(-382.663 -113.283)" fill="#ff9a6c"/>
                    <path id="Trazado_110537" data-name="Trazado 110537" d="M396.7,128.08c-.257,0-.31,1.7-1.813,2.874s-3.334.946-3.352,1.185.4.345,1.176.389a4.3,4.3,0,0,0,2.795-.884,3.758,3.758,0,0,0,1.406-2.414C397,128.5,396.819,128.071,396.7,128.08Z" transform="translate(-382.542 -113.08)" fill="#344154"/>
                  </g>
                  <path id="Trazado_110538" data-name="Trazado 110538" d="M398.839,108.014c.142.433,1.769.274,3.582.539s3.343.822,3.6.442c.115-.177-.133-.592-.725-1.026a6.1,6.1,0,0,0-2.653-1.008,6.04,6.04,0,0,0-2.821.256C399.131,107.475,398.777,107.8,398.839,108.014Z" transform="translate(-380.689 -85.165)" fill="#344154"/>
                  <path id="Trazado_110539" data-name="Trazado 110539" d="M382.116,104.789c.265.363,1.371,0,2.653,0s2.423.31,2.653-.062c.115-.177-.053-.539-.531-.884a3.856,3.856,0,0,0-4.324,0C382.16,104.206,382.01,104.577,382.116,104.789Z" transform="translate(-378.752 -84.735)" fill="#344154"/>
                  <path id="Trazado_110540" data-name="Trazado 110540" d="M421.234,98.688c-1.769-6.721-10.992-16.316-17.952-16.148L391.91,88.677a10.7,10.7,0,0,0,6.88,8.507c1.928.681,4.28.955,5.368,2.653s.3,4.254,1.327,6.075c1.424,2.529,5.624,2.6,6.65,5.306.451,1.176.124,2.556.592,3.732.628,1.565,4.422,3.688,6.058,3.254s1.769-3.175,2.352-4.581a7.579,7.579,0,0,0,.46-5.085C421.049,105.311,422.1,101.9,421.234,98.688Z" transform="translate(-379.888 -82.347)" fill="#344154"/>
                  <path id="Trazado_110541" data-name="Trazado 110541" d="M416.867,123.814c0-.884,1.061-2.848,1.91-2.954,2.264-.292,6.332,0,6.19,5.722-.159,7.835-7.959,6.058-7.959,5.837S416.779,126.767,416.867,123.814Z" transform="translate(-382.773 -86.771)" fill="#ffbf9d"/>
                  <path id="Trazado_110542" data-name="Trazado 110542" d="M419.789,129.827a2.3,2.3,0,0,0,.363.2,1.379,1.379,0,0,0,1.017,0c.831-.283,1.556-1.583,1.618-3a4.572,4.572,0,0,0-.336-1.963,1.574,1.574,0,0,0-1.008-1.061.69.69,0,0,0-.814.354c-.106.221-.062.371-.106.389s-.159-.133-.1-.46a.964.964,0,0,1,.318-.486,1.035,1.035,0,0,1,.76-.177,1.928,1.928,0,0,1,1.406,1.238,4.766,4.766,0,0,1,.424,2.193c-.08,1.574-.884,3.033-2.06,3.343a1.468,1.468,0,0,1-1.238-.23C419.8,130.013,419.763,129.836,419.789,129.827Z" transform="translate(-383.112 -87.098)" fill="#ff9a6c"/>
                </g>
                <path id="Trazado_110543" data-name="Trazado 110543" d="M431.8,111.118a7.075,7.075,0,0,0,.451-2.326,17.517,17.517,0,0,0-.531-5.7,17.315,17.315,0,0,0-2.37-5.209,6.91,6.91,0,0,0-1.539-1.769,25.989,25.989,0,0,1,3.4,7.137A28.373,28.373,0,0,1,431.8,111.118Z" transform="translate(-381.737 -83.833)" fill="#d9a171"/>
                <path id="Trazado_110544" data-name="Trazado 110544" d="M392.459,86.971c-.884,3.131-6.022,6.889-8.3,9.224-4.36,4.422-5.164,5.1-6.049,19.331a33.7,33.7,0,0,1-2.343-14.344,17.085,17.085,0,0,1,5.253-10.895,13.265,13.265,0,0,1,11.443-3.316" transform="translate(-375.712 -82.749)" fill="#344154"/>
              </g>
              <path id="Trazado_110545" data-name="Trazado 110545" d="M425.379,99.681a8.322,8.322,0,0,1-1.344.239,15.455,15.455,0,0,1-1.6.177c-.628,0-1.335.115-2.131.106a37.532,37.532,0,0,1-5.536-.31,41.448,41.448,0,0,1-6.641-1.459,42.166,42.166,0,0,1-6.279-2.591,36.992,36.992,0,0,1-4.722-2.918,19.868,19.868,0,0,1-1.689-1.3c-.5-.416-.884-.752-1.212-1.052a6.611,6.611,0,0,1-.964-.973,8.535,8.535,0,0,1,1.079.831c.336.283.752.628,1.256.99s1.052.814,1.716,1.238a40.844,40.844,0,0,0,4.731,2.8,45.362,45.362,0,0,0,6.19,2.529,43.685,43.685,0,0,0,6.553,1.477,42.288,42.288,0,0,0,5.483.407h2.114a15.455,15.455,0,0,0,1.592-.088A7.28,7.28,0,0,1,425.379,99.681Z" transform="translate(-377.741 -83.079)" fill="#5e6178"/>
              <path id="Trazado_110546" data-name="Trazado 110546" d="M427.162,106.595a3.423,3.423,0,0,1-.884.159,21.224,21.224,0,0,1-2.538.159,31.376,31.376,0,0,1-16.113-4.254,23.358,23.358,0,0,1-2.131-1.388c-.486-.363-.743-.575-.716-.6s1.132.69,3.007,1.7a36.063,36.063,0,0,0,7.711,3.016,36.77,36.77,0,0,0,8.207,1.167C425.836,106.63,427.153,106.515,427.162,106.595Z" transform="translate(-379.074 -84.359)" fill="#5e6178"/>
            </g>
            <path id="Trazado_110547" data-name="Trazado 110547" d="M430.732,107.73a5.3,5.3,0,0,1,.195,1.194,30.317,30.317,0,0,1,.106,3.29,47.331,47.331,0,0,1-.31,4.864,32.146,32.146,0,0,1-1.185,5.872,15.7,15.7,0,0,1-6.632,8.445,15.387,15.387,0,0,1-3,1.371,5.807,5.807,0,0,1-1.167.318,5.784,5.784,0,0,1,1.105-.486,18.276,18.276,0,0,0,2.883-1.494,14.334,14.334,0,0,0,3.537-3.192,15.827,15.827,0,0,0,2.812-5.111,33.009,33.009,0,0,0,1.2-5.775c.239-1.769.354-3.449.416-4.82s.062-2.494.044-3.272A7.9,7.9,0,0,1,430.732,107.73Z" transform="translate(-380.689 -85.176)" fill="#5e6178"/>
          </g>
          <path id="Trazado_110548" data-name="Trazado 110548" d="M309.426,158.83l22.71,22.993c2.989-.69,39.636-22.595,39.636-22.595l5.792,28.193s-37.5,17.236-47.825,15.149c-1.689-.345-4.422-.557-6.19-2.794-8.251-10.612-23.939-32.959-23.939-32.959Z" transform="translate(-244.471 -91.087)" fill="#ffbf9d"/>
          <g id="Grupo_60087" data-name="Grupo 60087" transform="translate(44.683 147.475)">
            <path id="Trazado_110549" data-name="Trazado 110549" d="M344.39,395.292,355.6,419.584l18.085-8.357L362.094,381.16Z" transform="translate(-294.333 -264.278)" fill="#ffbf9d"/>
            <g id="Grupo_60084" data-name="Grupo 60084" transform="translate(50.289 143.456)">
              <path id="Trazado_110550" data-name="Trazado 110550" d="M353.526,421.442l6.553,12.487s-16.8,17.333-15.193,21.224L384.3,436.263,373.468,411.21Z" transform="translate(-344.667 -411.21)" fill="#5e6178"/>
              <path id="Trazado_110551" data-name="Trazado 110551" d="M374.749,428.357a1.769,1.769,0,0,1,2,1.309,1.716,1.716,0,0,1-1.282,1.981,1.866,1.866,0,0,1-2.1-1.388,1.769,1.769,0,0,1,1.548-1.919" transform="translate(-347.973 -413.191)" fill="#839eb6"/>
              <g id="Grupo_60083" data-name="Grupo 60083" transform="translate(0 21.923)" opacity="0.6">
                <path id="Trazado_110552" data-name="Trazado 110552" d="M384.286,439.113,382.641,436,345.5,455.3s-1.4,1.6-.6,2.741Z" transform="translate(-344.653 -436)" fill="#fff"/>
              </g>
              <path id="Trazado_110553" data-name="Trazado 110553" d="M361.249,436.9c.1.186,1.1-.186,2.343,0s2.131.725,2.273.566-.672-1.132-2.184-1.309S361.116,436.758,361.249,436.9Z" transform="translate(-346.571 -414.093)" fill="#344154"/>
              <path id="Trazado_110554" data-name="Trazado 110554" d="M357.5,441.147c.044.212,1.035.141,2.078.637s1.645,1.273,1.831,1.176-.212-1.247-1.521-1.848S357.411,440.979,357.5,441.147Z" transform="translate(-346.138 -414.634)" fill="#344154"/>
              <path id="Trazado_110555" data-name="Trazado 110555" d="M357.122,447.714c.195-.044,0-1.132-1-1.946s-2.122-.76-2.122-.61.822.5,1.627,1.185S356.918,447.785,357.122,447.714Z" transform="translate(-345.734 -415.126)" fill="#344154"/>
              <path id="Trazado_110556" data-name="Trazado 110556" d="M359.116,431.317c.168.133.884-.557,2.043-1s2.14-.513,2.158-.725-1.123-.513-2.441,0S358.948,431.211,359.116,431.317Z" transform="translate(-346.323 -413.304)" fill="#344154"/>
            </g>
            <path id="Trazado_110557" data-name="Trazado 110557" d="M339.728,396.148,311.81,320.237s.663-12.619,2.989-16.6,72.719-27.229,72.719-27.229,17.925-4.316,29.882,0,24.1,9.648,22.9,18.023a21.776,21.776,0,0,1-.884,3.767,30.456,30.456,0,0,1-28.139,20.667l-9.3,1.044-47.453,9.056a3.635,3.635,0,0,0-2.8,4.625l15.326,51.061S350.27,392.823,339.728,396.148Z" transform="translate(-290.565 -251.94)" fill="#344154"/>
            <path id="Trazado_110558" data-name="Trazado 110558" d="M315.422,352.064l-.672,26.751,19.924.486,2.865-32.1Z" transform="translate(-290.905 -260.35)" fill="#ffbf9d"/>
            <g id="Grupo_60086" data-name="Grupo 60086" transform="translate(0 114.901)">
              <path id="Trazado_110559" data-name="Trazado 110559" d="M311.635,378.92l-.822,15.272s-22.692,8.154-22.993,12.328l43.7.442,1.344-27.264Z" transform="translate(-287.79 -378.92)" fill="#5e6178"/>
              <path id="Trazado_110560" data-name="Trazado 110560" d="M313.091,385.9a1.617,1.617,0,0,1,0-.778,4.81,4.81,0,0,1,.884-1.99,2.793,2.793,0,0,1,.522-.575,1.088,1.088,0,0,1,.982-.195.69.69,0,0,1,.442.389.769.769,0,0,1,0,.531,4.583,4.583,0,0,1-.46.8c-.336.522-.619,1.035-1.052,1.609a1.318,1.318,0,0,1-1.176.478,2.654,2.654,0,0,1-1.123-.451,9.16,9.16,0,0,1-1.663-1.371,7.535,7.535,0,0,1-.654-.769,2.485,2.485,0,0,1-.5-.884.814.814,0,0,1,.5-.955,1.2,1.2,0,0,1,1.052.212,6.278,6.278,0,0,1,1.105,1.132,7.2,7.2,0,0,1,1.088,1.893c.177.469.221.752.186.76a14.245,14.245,0,0,0-1.565-2.458,6.486,6.486,0,0,0-1.07-1.008.77.77,0,0,0-.628-.15.416.416,0,0,0-.2.5,2.149,2.149,0,0,0,.433.707c.195.239.407.486.628.716a9.153,9.153,0,0,0,1.583,1.291,2.186,2.186,0,0,0,.884.372.761.761,0,0,0,.707-.3c.363-.469.716-1.052,1.052-1.539a5.142,5.142,0,0,0,.433-.716q.133-.327-.133-.425c-.4-.15-.787.256-1.052.593a7.18,7.18,0,0,0-1.212,2.591Z" transform="translate(-290.271 -379.241)" fill="#344154"/>
              <path id="Trazado_110561" data-name="Trazado 110561" d="M328.852,394.195a1.686,1.686,0,1,1-.814,3.272,1.893,1.893,0,0,1-1.273-2.175,1.769,1.769,0,0,1,2.246-1.035" transform="translate(-292.29 -380.682)" fill="#839eb6"/>
              <g id="Grupo_60085" data-name="Grupo 60085" transform="translate(0 24.505)" opacity="0.6">
                <path id="Trazado_110562" data-name="Trazado 110562" d="M331.52,410.167l-.08-3.537-41.873.884s-1.954.822-1.769,2.2Z" transform="translate(-287.786 -406.63)" fill="#fff"/>
              </g>
              <path id="Trazado_110563" data-name="Trazado 110563" d="M313,395.906c0,.212,1.079.318,2.122,1.017s1.592,1.6,1.769,1.521-.106-1.326-1.388-2.14S313,395.712,313,395.906Z" transform="translate(-290.702 -380.864)" fill="#344154"/>
              <path id="Trazado_110564" data-name="Trazado 110564" d="M307.82,397.99c-.053.2.884.575,1.583,1.486s.884,1.866,1.132,1.866.363-1.22-.557-2.335S307.829,397.8,307.82,397.99Z" transform="translate(-290.103 -381.117)" fill="#344154"/>
              <path id="Trazado_110565" data-name="Trazado 110565" d="M304.6,403.706c.195.053.5-1.008,0-2.184s-1.53-1.654-1.618-1.477.522.814.946,1.769S304.385,403.689,304.6,403.706Z" transform="translate(-289.542 -381.359)" fill="#344154"/>
              <path id="Trazado_110566" data-name="Trazado 110566" d="M313.519,390.013c.088.195,1.07-.088,2.273,0s2.14.486,2.255.309-.778-.955-2.2-1.043S313.413,389.845,313.519,390.013Z" transform="translate(-290.762 -380.117)" fill="#344154"/>
            </g>
            <path id="Trazado_110567" data-name="Trazado 110567" d="M325.936,268.7s-11.938-.955-13.265,11.992-7.561,72.975-7.561,72.975l32.818,2.733,4.324-61.762,44.491-18.925S333.9,267.04,325.936,268.7Z" transform="translate(-289.79 -251.246)" fill="#344154"/>
            <path id="Trazado_110568" data-name="Trazado 110568" d="M383.5,249s-7.243,20.34-5.863,22.568,20,11.576,20,11.576l46.622,17.872a39.062,39.062,0,0,0,4.784-19.3c0-11.691-16.21-32.72-16.21-32.72Z" transform="translate(-298.159 -248.99)" fill="#344154"/>
            <path id="Trazado_110569" data-name="Trazado 110569" d="M389.586,275.49a2.36,2.36,0,0,1-.221.115l-.654.31-2.582,1.15-9.728,4.183-33.445,14.4.15-.212c-.424,6.1-.884,12.69-1.353,19.508-1.132,15.918-2.184,30.624-3.007,42.245v.212h-.2l-20.34-1.769-5.6-.522-1.459-.15a2.934,2.934,0,0,1-.5-.071,2.981,2.981,0,0,1,.5,0l1.468.1,5.607.407,20.34,1.6-.221.195c.8-11.629,1.769-26.318,2.9-42.253.478-6.818.946-13.406,1.371-19.508v-.15l.141-.062,33.516-14.229L386,276.9l2.653-1.07.672-.265Z" transform="translate(-290.431 -252.055)" fill="#5e6178"/>
            <path id="Trazado_110570" data-name="Trazado 110570" d="M437.458,277.082a7.449,7.449,0,0,1-1.309-.363l-3.537-1.132a76.474,76.474,0,0,0-11.744-2.963,34.346,34.346,0,0,0-12.027.15,47.134,47.134,0,0,0-4.811,1.4,5.507,5.507,0,0,1,1.212-.61,21.547,21.547,0,0,1,3.537-1.15,32.563,32.563,0,0,1,12.186-.31,65.256,65.256,0,0,1,11.779,3.139c1.477.522,2.653.964,3.467,1.291A6.711,6.711,0,0,1,437.458,277.082Z" transform="translate(-301.232 -251.614)" fill="#5e6178"/>
            <path id="Trazado_110571" data-name="Trazado 110571" d="M430.957,265.629a33.371,33.371,0,0,0-4.077,0c-1.256.088-2.75.283-4.422.478s-3.484.416-5.368.778a24.886,24.886,0,0,0-9.135,3.387,28.665,28.665,0,0,0-3.166,2.547,4.05,4.05,0,0,1,.681-.884,13.8,13.8,0,0,1,2.282-1.981,23.364,23.364,0,0,1,9.241-3.59c1.91-.363,3.75-.575,5.412-.743s3.175-.318,4.422-.363a17.046,17.046,0,0,1,3.016.133,3.582,3.582,0,0,1,1.114.239Z" transform="translate(-301.319 -250.87)" fill="#5e6178"/>
            <path id="Trazado_110572" data-name="Trazado 110572" d="M357.131,428.156a2.024,2.024,0,0,1-.363-.8,5.881,5.881,0,0,1-.186-2.379,3.372,3.372,0,0,1,.186-.8,1.008,1.008,0,0,1,.787-.637.707.707,0,0,1,.584.2.937.937,0,0,1,.248.539,6.187,6.187,0,0,1,0,1c-.053.672-.053,1.309-.159,2.078a1.265,1.265,0,0,1-.822.99,2.432,2.432,0,0,1-1.229.053,9.48,9.48,0,0,1-2.167-.646c-.336-.142-.654-.3-.964-.469a3.015,3.015,0,0,1-.884-.663.884.884,0,0,1,0-1.176,1.1,1.1,0,0,1,1.043-.257,6.467,6.467,0,0,1,1.548.646,8.3,8.3,0,0,1,1.91,1.406,2.21,2.21,0,0,1,.548.681,17.286,17.286,0,0,0-2.653-1.769,7.235,7.235,0,0,0-1.45-.539.725.725,0,0,0-.637.133.486.486,0,0,0,.062.584,2.556,2.556,0,0,0,.734.513,9.728,9.728,0,0,0,2.971,1.043,2.131,2.131,0,0,0,.982,0,.734.734,0,0,0,.486-.61c.1-.628.124-1.371.177-2.007a4.651,4.651,0,0,0,0-.884c0-.265-.141-.389-.327-.371-.433,0-.584.6-.654,1.07a8.461,8.461,0,0,0,.23,3.069Z" transform="translate(-295.206 -269.179)" fill="#344154"/>
          </g>
          <g id="Grupo_60091" data-name="Grupo 60091" transform="translate(100.169 63.047)">
            <g id="Grupo_60090" data-name="Grupo 60090">
              <path id="Trazado_110573" data-name="Trazado 110573" d="M381.716,158.49a15.114,15.114,0,0,0-7.747,6.721c-2.9,5.147-2.131,7.694-1.371,10.736s2.1,9.073,2.175,8.684S381.716,158.49,381.716,158.49Z" transform="translate(-353.002 -154.095)" fill="#ffbf9d"/>
              <path id="Trazado_110574" data-name="Trazado 110574" d="M431.11,167.095s-3.8-9.179-4.572-10.037L412.5,153.52l-8.781,4.3a15.4,15.4,0,0,1-8.189,1.627c-3.139-.3-5.9-1.565-7.287-3.882h0l-5.483,1.486s-8.711,26.282-8.534,33.56,3.2,27.945,2.856,32.022,1.07,15.326,6.04,15.326h49.328s11.134-3.086,11.62-9.781S431.11,167.095,431.11,167.095Z" transform="translate(-353.271 -153.52)" fill="#cdb9f8"/>
              <path id="Trazado_110575" data-name="Trazado 110575" d="M417.65,213.376a3.909,3.909,0,0,1-.831.7,14.962,14.962,0,0,1-2.547,1.486,15.386,15.386,0,0,1-4.209,1.265,14.556,14.556,0,0,1-5.386-.23,17.766,17.766,0,0,1-8.375-4.864,19.388,19.388,0,0,1-1.928-2.237,4.5,4.5,0,0,1-.575-.884c.071-.062.964,1.2,2.759,2.883a18.394,18.394,0,0,0,8.233,4.616,15.087,15.087,0,0,0,9.33-.884C416.377,214.261,417.589,213.261,417.65,213.376Z" transform="translate(-355.535 -159.892)" fill="#344154"/>
              <g id="Grupo_60088" data-name="Grupo 60088" transform="translate(38.849 49.567)" opacity="0.3">
                <path id="Trazado_110576" data-name="Trazado 110576" d="M394.7,209.8a14.326,14.326,0,0,0,5.067,9.728,11.938,11.938,0,0,0,10.559,2.308A10.232,10.232,0,0,0,417.532,214a30.067,30.067,0,0,1-7.87,2.741,15.485,15.485,0,0,1-15.2-7.172l.407.424" transform="translate(-394.46 -209.57)" fill="#8454ee"/>
              </g>
              <g id="Grupo_60089" data-name="Grupo 60089" transform="translate(60.762 30.386)" opacity="0.3">
                <path id="Trazado_110577" data-name="Trazado 110577" d="M439.076,215.294c-5.209-10.108-10.718-20.578-19.836-27.414h0c2.025,6.915,3.829,13.406,6.067,20.26.637,1.937,1.627,4.192,3.643,4.51.743.115,1.512-.062,2.246.088a4.764,4.764,0,0,1,2.812,2.476,6.933,6.933,0,0,0,2.512,2.856c1.158.566,2.918,0,3.024-1.256a2.935,2.935,0,0,0-.469-1.521Z" transform="translate(-419.24 -187.88)" fill="#8454ee"/>
              </g>
              <path id="Trazado_110578" data-name="Trazado 110578" d="M453.411,192.47l-24.859,11.655s-11-22.046-11.868-25.115-2.741-8.286.062-14.671a12.513,12.513,0,0,1,14.928-6.747C442.63,161.43,453.411,192.47,453.411,192.47Z" transform="translate(-358.018 -153.931)" fill="#cdb9f8"/>
              <path id="Trazado_110579" data-name="Trazado 110579" d="M373.859,192.371c-1.159,0-14.485,6.969-14.485,6.969l-8.843-25.557c11.452-6.19,24.178-14.981,30.81-16.8l-5.766,19.995Z" transform="translate(-350.53 -153.92)" fill="#cdb9f8"/>
              <path id="Trazado_110580" data-name="Trazado 110580" d="M428.569,207.306c4.7,7.729,7.959,12.177,7.959,12.177L394.31,245.2l4.917,11.426,51.291-21.118a11.753,11.753,0,0,0,7.075-8.03,9.727,9.727,0,0,0-.124-5.138l-8.728-24.089Z" transform="translate(-355.594 -158.694)" fill="#ffbf9d"/>
              <path id="Trazado_110581" data-name="Trazado 110581" d="M452.314,226.187a22.686,22.686,0,0,0-10.594-3.962,13.681,13.681,0,0,1,10.612,3.935Z" transform="translate(-361.078 -161.463)" fill="#ff9a6c"/>
              <path id="Trazado_110582" data-name="Trazado 110582" d="M378.069,171.3a7.074,7.074,0,0,0-.707,1.185,21.939,21.939,0,0,0-1.38,3.4,52.173,52.173,0,0,0-2.087,11.691,67.734,67.734,0,0,0,.142,11.824,35.306,35.306,0,0,0,.548,3.537,5.661,5.661,0,0,0,.363,1.282,5.942,5.942,0,0,0-.133-1.309c-.106-.84-.257-2.052-.363-3.537a82.556,82.556,0,0,1,0-11.762,59.449,59.449,0,0,1,1.91-11.647,28.626,28.626,0,0,1,1.185-3.422,5.973,5.973,0,0,0,.522-1.247Z" transform="translate(-353.21 -155.577)" fill="#344154"/>
              <path id="Trazado_110583" data-name="Trazado 110583" d="M357.31,259.166l10.532-5.032,20.543-1.636,1.68-1.159,4.917,11.426s-5.386,2.573-8.207,2.8l-17.28-.522-9.029.946Z" transform="translate(-351.314 -164.835)" fill="#ffbf9d"/>
              <path id="Trazado_110584" data-name="Trazado 110584" d="M453.808,195.836a1.884,1.884,0,0,0-.5.177l-1.371.584-5.023,2.229-16.457,7.535-2.052.884.31.115c-2.865-5.916-5.386-11.2-7.163-15.034-.884-1.875-1.565-3.4-2.078-4.519-.221-.5-.407-.884-.557-1.22a2.39,2.39,0,0,0-.221-.416,1.451,1.451,0,0,0,.133.451c.106.283.265.716.486,1.256.433,1.088,1.1,2.653,1.945,4.581,1.7,3.856,4.165,9.171,7.03,15.087l.1.212.212-.1,2.016-.929,16.44-7.641,4.952-2.37,1.344-.672a1.841,1.841,0,0,0,.451-.212Z" transform="translate(-358.415 -157.297)" fill="#344154"/>
            </g>
            <path id="Trazado_110585" data-name="Trazado 110585" d="M430.722,157.65c0,.088-1.167.053-2.971.486a14.034,14.034,0,0,0-10.143,9.285c-.584,1.769-.663,2.918-.743,2.909a2.154,2.154,0,0,1,0-.814,11.293,11.293,0,0,1,.424-2.193,13.477,13.477,0,0,1,10.391-9.515,12.162,12.162,0,0,1,2.22-.23,2.459,2.459,0,0,1,.822.071Z" transform="translate(-358.198 -153.989)" fill="#344154"/>
            <path id="Trazado_110586" data-name="Trazado 110586" d="M445.513,175.76a5.781,5.781,0,0,1-.336,1.105,11.148,11.148,0,0,1-1.415,2.8l-.654.822-.354.433c-.133.133-.283.256-.424.389l-.884.822-1.07.725a20.057,20.057,0,0,1-5.244,2.255c-3.9,1.088-7.508,1.61-10.011,2.388A40.89,40.89,0,0,0,421.15,189a4.988,4.988,0,0,1,.973-.61,8.366,8.366,0,0,1,1.22-.584l.778-.327.884-.3c2.512-.884,6.137-1.441,9.984-2.52a20.606,20.606,0,0,0,5.138-2.167l1.052-.69.884-.769c.142-.133.292-.248.425-.371l.354-.416.654-.778a12.985,12.985,0,0,0,1.521-2.653,5.091,5.091,0,0,1,.5-1.052Z" transform="translate(-358.698 -156.092)" fill="#fff"/>
            <path id="Trazado_110587" data-name="Trazado 110587" d="M441.924,169.136a5.06,5.06,0,0,0-1.035.248,4.713,4.713,0,0,0-2.061,1.954c-.336.522-.672,1.123-1.114,1.769a9,9,0,0,1-1.671,1.724,14.645,14.645,0,0,1-4.89,2.37c-1.848.566-3.643.884-5.244,1.282a22.991,22.991,0,0,0-4.139,1.344,14.894,14.894,0,0,0-3.36,2.184,1.239,1.239,0,0,1,.168-.23,5.088,5.088,0,0,1,.557-.592,10.56,10.56,0,0,1,2.485-1.663,21.413,21.413,0,0,1,4.183-1.468c1.609-.424,3.4-.761,5.209-1.309a14.723,14.723,0,0,0,4.767-2.273,9,9,0,0,0,1.618-1.609c.442-.575.787-1.167,1.15-1.68a4.678,4.678,0,0,1,2.282-1.946,2.466,2.466,0,0,1,.814-.124.593.593,0,0,1,.283.018Z" transform="translate(-358.382 -155.323)" fill="#fff"/>
            <path id="Trazado_110588" data-name="Trazado 110588" d="M416.781,194.13a1.769,1.769,0,0,1-.389.221l-1.167.539c-1.008.46-2.485,1.114-4.342,1.831a46.767,46.767,0,0,1-6.7,2.078,25.177,25.177,0,0,1-8.569.5,37.77,37.77,0,0,1-8.26-2.361,31.169,31.169,0,0,0-6.686-1.848,13.557,13.557,0,0,0-4.643.106c-1.079.23-1.645.478-1.662.433s.133-.088.4-.2a7.885,7.885,0,0,1,1.22-.416,13.176,13.176,0,0,1,4.731-.256,29.792,29.792,0,0,1,6.783,1.769,38.709,38.709,0,0,0,8.171,2.3,25.592,25.592,0,0,0,8.428-.46,49.45,49.45,0,0,0,6.668-1.963c1.866-.672,3.36-1.273,4.422-1.68l1.194-.46a1.372,1.372,0,0,1,.407-.133Z" transform="translate(-353.286 -158.217)" fill="#fff"/>
            <path id="Trazado_110589" data-name="Trazado 110589" d="M376.21,184.4a3.944,3.944,0,0,1,.327-.256,5.732,5.732,0,0,1,1.043-.539,8.561,8.561,0,0,1,4.289-.433,16.616,16.616,0,0,1,6.022,2.167,56.419,56.419,0,0,0,6.854,3.626,20.144,20.144,0,0,0,7.57,1.132,37.6,37.6,0,0,0,6.279-.752c1.769-.345,3.2-.681,4.192-.884a9.447,9.447,0,0,1,1.548-.31,10.488,10.488,0,0,1-1.5.486c-.973.283-2.388.672-4.165,1.061a36.256,36.256,0,0,1-6.332.884,19.986,19.986,0,0,1-7.756-1.132,52.174,52.174,0,0,1-6.9-3.679,16.8,16.8,0,0,0-5.854-2.22,8.843,8.843,0,0,0-4.183.274C376.7,184.1,376.237,184.44,376.21,184.4Z" transform="translate(-353.5 -156.937)" fill="#fff"/>
            <path id="Trazado_110590" data-name="Trazado 110590" d="M369.425,196.3h-.283a4.278,4.278,0,0,1-.787-.23,6.473,6.473,0,0,1-2.405-1.769,10.24,10.24,0,0,1-2.061-3.953,23.4,23.4,0,0,1-.663-5.394,36.539,36.539,0,0,0-.425-5.306,11.966,11.966,0,0,0-1.5-4.033,8.021,8.021,0,0,0-2.848-2.75.755.755,0,0,1,.274.08,4.928,4.928,0,0,1,.734.363,7.076,7.076,0,0,1,2.122,2.122,11.613,11.613,0,0,1,1.654,4.139,34.248,34.248,0,0,1,.469,5.4,24.353,24.353,0,0,0,.61,5.306,10.347,10.347,0,0,0,1.892,3.856,6.8,6.8,0,0,0,2.228,1.831,5.3,5.3,0,0,1,.991.336Z" transform="translate(-351.446 -155.758)" fill="#fff"/>
            <path id="Trazado_110591" data-name="Trazado 110591" d="M372.524,189.336a28.8,28.8,0,0,1-1.327-2.989l-3.077-7.26c-1.229-2.821-2.361-5.359-3.237-7.172s-1.486-2.9-1.424-2.945a3.277,3.277,0,0,1,.522.707c.31.486.725,1.194,1.2,2.078.955,1.769,2.149,4.316,3.378,7.145s2.255,5.421,2.954,7.322c.345.946.619,1.716.787,2.255A3.068,3.068,0,0,1,372.524,189.336Z" transform="translate(-352.025 -155.307)" fill="#fff"/>
          </g>
          <g id="Grupo_60093" data-name="Grupo 60093" transform="translate(43.004 116.806)">
            <g id="Grupo_60092" data-name="Grupo 60092">
              <path id="Trazado_110592" data-name="Trazado 110592" d="M289.824,214.33l59.25.478c1.928,0,3.758.884,4.05,2.821l6.473,43.182h30.509a1.769,1.769,0,0,1,0,3.537H292.645l-6.65-45.552a3.891,3.891,0,0,1,3.829-4.466Z" transform="translate(-285.895 -214.312)" fill="#bce0fc"/>
              <path id="Trazado_110593" data-name="Trazado 110593" d="M289.816,214.328a3.017,3.017,0,0,0-.937.088,3.909,3.909,0,0,0-2.989,3.387,11.444,11.444,0,0,0,.212,2.441c.248,1.769.539,3.75.884,6.013,1.3,9.047,3.184,22.108,5.492,38.132v.15h.159l94.535.062h2.547a2.467,2.467,0,0,0,1.344-.256,1.972,1.972,0,0,0,.884-1.07,2.025,2.025,0,0,0-.884-2.458,2.431,2.431,0,0,0-1.335-.248H359.572l.23.2c-2.335-15.467-4.51-29.89-6.456-42.828a3.369,3.369,0,0,0-1.1-2.255,4.369,4.369,0,0,0-2.264-1,19.934,19.934,0,0,0-2.388-.088h-2.361l-8.843-.071-15.918-.106-22.559-.115h-6.04l6.04.088,22.559.248,15.918.274,8.923.088h2.326a20.218,20.218,0,0,1,2.326.088,4.033,4.033,0,0,1,2.069.884,3,3,0,0,1,.964,2.025c1.928,12.938,4.077,27.37,6.385,42.828v.2h30.333a1.946,1.946,0,0,1,1.105.186,1.548,1.548,0,0,1,0,2.7,2.052,2.052,0,0,1-1.114.195h-2.547l-94.535.053.177.159c-2.379-16.033-4.307-29.068-5.651-38.115-.336-2.255-.637-4.262-.884-6a10.823,10.823,0,0,1-.239-2.4,3.829,3.829,0,0,1,.681-1.848,3.891,3.891,0,0,1,2.193-1.5,5.5,5.5,0,0,1,.911-.133Z" transform="translate(-285.887 -214.31)" fill="#344154"/>
            </g>
            <circle id="Elipse_4288" data-name="Elipse 4288" cx="3.705" cy="3.705" r="3.705" transform="translate(29.734 20.782)" fill="#fff"/>
            <path id="Trazado_110594" data-name="Trazado 110594" d="M365.428,264.03c-.08,0-1.963-10.983-4.209-24.558s-3.988-24.584-3.909-24.6,1.972,10.983,4.218,24.558S365.516,264.012,365.428,264.03Z" transform="translate(-294.148 -214.375)" fill="#344154"/>
          </g>
        </g>
      </g>
      <path id="Trazado_110595" data-name="Trazado 110595" d="M31.57,484.749c0-.133,88.867-.239,198.471-.239s198.48.106,198.48.239-88.849.239-198.48.239S31.57,484.881,31.57,484.749Z" transform="translate(-28.456 -84.589)" fill="#344154"/>
    </g>
  </g>
</svg>
