<svg xmlns="http://www.w3.org/2000/svg" width="66.457" height="85.113" viewBox="0 0 66.457 85.113">
  <g id="doctor" transform="translate(-56.113)">
    <path id="Trazado_1034380" data-name="Trazado 1034380" d="M121.838,343.364l-14.045-4.131H83.4l-14.045,4.131a8,8,0,0,0-5.739,7.671v15.672h63.963V351.034A8,8,0,0,0,121.838,343.364Z" transform="translate(-6.254 -282.841)" fill="#edebed"/>
    <path id="Trazado_1034381" data-name="Trazado 1034381" d="M215.879,370.828H202.553l-2.665-26.651h18.656Z" transform="translate(-119.875 -286.963)" fill="#a5cdff"/>
    <path id="Trazado_1034382" data-name="Trazado 1034382" d="M200.494,350.239a13.279,13.279,0,0,0,17.444,0l.606-6.062H199.888Z" transform="translate(-119.875 -286.963)" fill="#8cb4eb"/>
    <path id="Trazado_1034383" data-name="Trazado 1034383" d="M209.216,282.672h0a9.328,9.328,0,0,1-9.328-9.328v-9.328h18.656v9.328A9.328,9.328,0,0,1,209.216,282.672Z" transform="translate(-119.875 -220.127)" fill="#f7d291"/>
    <path id="Trazado_1034384" data-name="Trazado 1034384" d="M199.888,270.987a19.634,19.634,0,0,0,18.656,0v-6.971H199.888Z" transform="translate(-119.875 -220.127)" fill="#f0c382"/>
    <path id="Trazado_1034385" data-name="Trazado 1034385" d="M161.7,92.971h-2V79.645H125.058V92.971h-2a3.331,3.331,0,1,0,0,6.663h2.066a17.306,17.306,0,0,0,34.512,0H161.7a3.331,3.331,0,1,0,0-6.663Z" transform="translate(-53.04 -66.405)" fill="#ffe1a0"/>
    <path id="Trazado_1034386" data-name="Trazado 1034386" d="M125.146,79.645V92.971h-1.864a3.408,3.408,0,0,0-3.327,2.427,3.342,3.342,0,0,0,3.211,4.236h2.049a17.2,17.2,0,0,0,19.93,15.766,17.312,17.312,0,0,1-14.667-17.1V89.927A3.99,3.99,0,0,1,134.991,86a33.757,33.757,0,0,0,4,.23,52.537,52.537,0,0,0,13.161-1.876,10.281,10.281,0,0,0,6.2-4.707Z" transform="translate(-53.128 -66.405)" fill="#f7d291"/>
    <path id="Trazado_1034387" data-name="Trazado 1034387" d="M144.92,47.535l.167,5.33s-4,4-4,9.328v1.645a2.665,2.665,0,0,1-2.335,2.644l-3,.375V55.53C135.759,51.114,139.923,47.312,144.92,47.535Z" transform="translate(-66.406 -39.625)" fill="#a06e50"/>
    <path id="Trazado_1034388" data-name="Trazado 1034388" d="M271.966,324.079l-2.639-2.639,2.825-3.766a1.632,1.632,0,0,0-.576-2.438l-6.247-3.123L256,344.094h8l8.469-16.938A2.665,2.665,0,0,0,271.966,324.079Z" transform="translate(-166.66 -260.228)" fill="#dbd9dc"/>
    <path id="Trazado_1034389" data-name="Trazado 1034389" d="M320.3,23.486l-.167,9.328s4,4,4,9.328v1.645a2.665,2.665,0,0,0,2.335,2.644l3,.375V31.481C329.458,27.065,325.294,23.263,320.3,23.486Z" transform="translate(-220.128 -19.574)" fill="#cd916e"/>
    <path id="Trazado_1034390" data-name="Trazado 1034390" d="M156.047,324.079l2.639-2.639-2.825-3.766a1.632,1.632,0,0,1,.576-2.438l6.247-3.123,9.328,31.982h-8l-8.469-16.938A2.665,2.665,0,0,1,156.047,324.079Z" transform="translate(-82.67 -260.228)" fill="#dbd9dc"/>
    <path id="Trazado_1034391" data-name="Trazado 1034391" d="M158.806,7.5c-11.118,0-13.248,3.38-21.809,6.106A.933.933,0,0,0,136.476,15c1.858,2.906,8.772,10.48,28.416,5.337a6.225,6.225,0,0,0,4.536-4.789h0a6.23,6.23,0,0,0-3.57-6.6A16.41,16.41,0,0,0,158.806,7.5Z" transform="translate(-66.883 -6.253)" fill="#b67f5f"/>
    <rect id="Rectángulo_405384" data-name="Rectángulo 405384" width="13.325" height="7.996" transform="translate(64.022 75.87)" fill="#a5cdff"/>
    <path id="Trazado_1034392" data-name="Trazado 1034392" d="M201.652,160.322a1.247,1.247,0,0,0-1.247,1.247V162.9a1.247,1.247,0,0,0,2.494,0v-1.333A1.247,1.247,0,0,0,201.652,160.322Z" transform="translate(-120.306 -133.671)"/>
    <path id="Trazado_1034393" data-name="Trazado 1034393" d="M297.845,160.322a1.247,1.247,0,0,0-1.247,1.247V162.9a1.247,1.247,0,0,0,2.493,0v-1.333A1.247,1.247,0,0,0,297.845,160.322Z" transform="translate(-200.508 -133.671)"/>
    <path id="Trazado_1034394" data-name="Trazado 1034394" d="M234.572,218.569a1.247,1.247,0,1,0-1.751-1.775,5.495,5.495,0,0,1-6.244,0,1.247,1.247,0,0,0-1.751,1.775,7.865,7.865,0,0,0,9.747,0Z" transform="translate(-140.357 -180.456)"/>
    <path id="Trazado_1034395" data-name="Trazado 1034395" d="M196.3,136.274h-2.665a1.247,1.247,0,1,0,0,2.494H196.3a1.247,1.247,0,0,0,0-2.494Z" transform="translate(-113.622 -113.62)"/>
    <path id="Trazado_1034396" data-name="Trazado 1034396" d="M289.829,138.768h2.665a1.247,1.247,0,1,0,0-2.494h-2.665a1.247,1.247,0,1,0,0,2.494Z" transform="translate(-193.825 -113.62)"/>
    <path id="Trazado_1034397" data-name="Trazado 1034397" d="M116.044,59.386l-8.987-2.763a2.859,2.859,0,0,0-1.583-2.731l-5.558-2.779V47.151a18.6,18.6,0,0,0,7.816-12.676h.741a4.724,4.724,0,0,0,4.745-4.111,4.571,4.571,0,0,0-2.642-4.624V11.907a9.253,9.253,0,0,0-9.242-9.242h-.211A15.718,15.718,0,0,0,91.923,0,31.786,31.786,0,0,0,76.415,3.5a54.072,54.072,0,0,1-7.745,2.99,1.247,1.247,0,0,0-.8,1.677A11.312,11.312,0,0,0,69.9,11.123c-.621.764-1.8,2.717-1.8,6.558V25.8a4.548,4.548,0,0,0,1.913,8.679h.931a18.592,18.592,0,0,0,7.817,12.678v3.961l-5.558,2.779a2.859,2.859,0,0,0-1.583,2.731l-8.987,2.763a9.2,9.2,0,0,0-6.526,8.834V83.866a1.247,1.247,0,0,0,2.494,0V68.22a6.714,6.714,0,0,1,4.765-6.451L72.72,58.9l1.65,2.2L72.495,62.97a3.907,3.907,0,0,0-.733,4.516l3.569,7.138h-3.4V73.205a1.247,1.247,0,0,0-2.494,0v1.418H64.023a1.247,1.247,0,0,0-1.247,1.247v8a1.247,1.247,0,0,0,1.247,1.247H77.349A1.247,1.247,0,0,0,78.6,83.866V81.152l1.636,3.272a1.247,1.247,0,0,0,2.23-1.115L73.992,66.37a1.417,1.417,0,0,1,.266-1.637L76.9,62.093a1.247,1.247,0,0,0,.116-1.63L74.189,56.7a.385.385,0,0,1,.136-.575l4.911-2.455L82.7,65.553a1.247,1.247,0,1,0,2.394-.7l-.546-1.873a14.588,14.588,0,0,0,9.585,0L89.342,79.413l-2.691-9.225a1.247,1.247,0,1,0-2.394.7l3.888,13.329a1.247,1.247,0,0,0,2.394,0l8.91-30.547,4.91,2.455a.385.385,0,0,1,.136.575l-2.825,3.766a1.247,1.247,0,0,0,.116,1.63l2.639,2.639a1.416,1.416,0,0,1,.266,1.637L96.222,83.308a1.247,1.247,0,1,0,2.23,1.115l8.469-16.938a3.907,3.907,0,0,0-.733-4.516L104.314,61.1l1.65-2.2,9.348,2.874a6.714,6.714,0,0,1,4.765,6.451V83.866a1.247,1.247,0,0,0,2.494,0V68.22A9.2,9.2,0,0,0,116.044,59.386ZM76.1,82.619H65.269v-5.5h4.169V77.2a1.247,1.247,0,0,0,2.494,0v-.086H76.1v5.5ZM77.445,5.772A29.366,29.366,0,0,1,91.923,2.494c4.6,0,8.71,1.925,9.561,4.478a1.247,1.247,0,0,0,2.366-.789,5.88,5.88,0,0,0-.254-.633,6.76,6.76,0,0,1,4.488,6.358V25.319h-1.418a1.42,1.42,0,0,1-1.418-1.418V22.568c0-5.78-4.185-10.031-4.363-10.209a1.248,1.248,0,0,0-1.257-.307c-6.921,2.186-16.68,4.028-23.864.393A13.412,13.412,0,0,1,70.9,8.408,61.325,61.325,0,0,0,77.445,5.772ZM97.423,51.706,95.042,59.87a12.1,12.1,0,0,1-11.4,0L81.26,51.706V48.613a18.543,18.543,0,0,0,16.162,0Zm-8.081-3.734A16.1,16.1,0,0,1,73.265,31.9a1.247,1.247,0,1,0-2.494,0v.086H70.02a2.085,2.085,0,0,1-2.073-2.3,2.212,2.212,0,0,1,2.264-1.865h1.808A3.916,3.916,0,0,0,75.93,23.9V19.195a1.247,1.247,0,0,0-2.494,0V23.9a1.42,1.42,0,0,1-1.418,1.418H70.6V17.682a8.4,8.4,0,0,1,1.14-4.855,17.137,17.137,0,0,0,2.7,1.741,23.274,23.274,0,0,0,10,2.424A47.186,47.186,0,0,0,99.6,14.668a13.139,13.139,0,0,1,3.15,7.9V23.9a3.916,3.916,0,0,0,3.912,3.912h2a2.085,2.085,0,0,1,2.073,2.3,2.212,2.212,0,0,1-2.264,1.865h-.563v-.073a1.247,1.247,0,0,0-1.246-1.247h0a1.247,1.247,0,0,0-1.247,1.246A16.1,16.1,0,0,1,89.342,47.972Z"/>
    <path id="Trazado_1034398" data-name="Trazado 1034398" d="M368.637,436.2h-2.085v-2.085a1.247,1.247,0,0,0-2.494,0V436.2h-2.085a1.247,1.247,0,0,0,0,2.494h2.085v2.085a1.247,1.247,0,0,0,2.494,0V438.7h2.085a1.247,1.247,0,0,0,0-2.494Z" transform="translate(-253.976 -360.913)"/>
  </g>
</svg>
